<?xml version="1.0" encoding="utf-8" standalone="no"?>
<!DOCTYPE svg PUBLIC "-//W3C//DTD SVG 1.1//EN"
  "http://www.w3.org/Graphics/SVG/1.1/DTD/svg11.dtd">
<svg xmlns:xlink="http://www.w3.org/1999/xlink" width="144pt" height="144pt" viewBox="0 0 144 144" xmlns="http://www.w3.org/2000/svg" version="1.1">
 <metadata>
  <rdf:RDF xmlns:dc="http://purl.org/dc/elements/1.1/" xmlns:cc="http://creativecommons.org/ns#" xmlns:rdf="http://www.w3.org/1999/02/22-rdf-syntax-ns#">
   <cc:Work>
    <dc:type rdf:resource="http://purl.org/dc/dcmitype/StillImage"/>
    <dc:date>2025-02-07T11:27:54.610858</dc:date>
    <dc:format>image/svg+xml</dc:format>
    <dc:creator>
     <cc:Agent>
      <dc:title>Matplotlib v3.8.0, https://matplotlib.org/</dc:title>
     </cc:Agent>
    </dc:creator>
   </cc:Work>
  </rdf:RDF>
 </metadata>
 <defs>
  <style type="text/css">*{stroke-linejoin: round; stroke-linecap: butt}</style>
 </defs>
 <g id="figure_1">
  <g id="patch_1">
   <path d="M 0 144 
L 144 144 
L 144 0 
L 0 0 
L 0 144 
z
" style="fill: none"/>
  </g>
  <g id="axes_1">
   <g id="patch_2">
    <path d="M 10.8 133.2 
L 133.2 133.2 
L 133.2 10.8 
L 10.8 10.8 
L 10.8 133.2 
z
" style="fill: none"/>
   </g>
   <g id="matplotlib.axis_1"/>
   <g id="matplotlib.axis_2"/>
   <g id="line2d_1">
    <path d="M 16.363636 87.489956 
L 16.417995 79.044727 
L 16.472354 93.613564 
L 16.526713 65.07201 
L 16.581072 87.341275 
L 16.635431 84.490389 
L 16.68979 96.09134 
L 16.744149 87.845032 
L 16.798508 78.707052 
L 16.961585 106.753578 
L 17.070302 71.30982 
L 17.124661 108.328369 
L 17.17902 77.314643 
L 17.287738 35.714252 
L 17.505174 77.927949 
L 17.668251 61.839079 
L 17.72261 97.249269 
L 17.776969 45.457087 
L 17.831327 92.842425 
L 17.940045 82.263399 
L 18.103122 100.476459 
L 18.266199 56.887003 
L 18.374917 94.559948 
L 18.429276 58.842658 
L 18.483635 69.451416 
L 18.592352 90.08423 
L 18.646711 56.831914 
L 18.70107 56.846595 
L 18.755429 82.14916 
L 18.809788 78.873312 
L 18.864147 61.765876 
L 18.972865 87.681006 
L 19.027224 60.335251 
L 19.081583 64.723832 
L 19.190301 86.057516 
L 19.24466 80.584693 
L 19.353377 59.142931 
L 19.407736 61.690335 
L 19.462095 57.729725 
L 19.516454 72.013471 
L 19.570813 59.841652 
L 19.625172 54.204261 
L 19.73389 78.417263 
L 19.788249 64.908328 
L 19.842608 111.143034 
L 19.896967 81.607453 
L 19.951326 91.449184 
L 20.005685 63.31259 
L 20.060044 86.975615 
L 20.114402 113.582699 
L 20.22312 73.507791 
L 20.331838 95.374073 
L 20.386197 57.162084 
L 20.440556 70.588144 
L 20.494915 91.641001 
L 20.549274 56.635866 
L 20.603633 59.610917 
L 20.76671 91.536139 
L 20.821069 97.204118 
L 20.875427 50.688931 
L 20.929786 84.978278 
L 20.984145 101.873421 
L 21.147222 73.424409 
L 21.201581 84.440564 
L 21.25594 47.741938 
L 21.310299 107.363789 
L 21.364658 89.688666 
L 21.419017 72.727002 
L 21.473376 111.746791 
L 21.527735 81.610221 
L 21.582094 85.96077 
L 21.636452 68.804996 
L 21.74517 68.906935 
L 21.908247 96.908862 
L 22.071324 56.474188 
L 22.125683 83.554937 
L 22.180042 67.84685 
L 22.234401 67.963807 
L 22.28876 54.087462 
L 22.343119 64.209697 
L 22.397477 92.938179 
L 22.451836 90.717699 
L 22.506195 90.106787 
L 22.560554 76.956458 
L 22.614913 80.921158 
L 22.669272 82.096378 
L 22.723631 62.704699 
L 22.77799 82.76982 
L 22.832349 82.456144 
L 22.941067 50.636947 
L 23.104144 78.849194 
L 23.158502 76.841374 
L 23.212861 62.213356 
L 23.26722 85.155804 
L 23.321579 69.883162 
L 23.430297 81.618261 
L 23.539015 44.271112 
L 23.593374 92.125824 
L 23.647733 82.761369 
L 23.756451 64.08404 
L 23.81081 82.801721 
L 23.865169 56.52395 
L 23.919527 80.745887 
L 24.028245 102.84443 
L 24.136963 64.20319 
L 24.191322 82.984725 
L 24.463117 57.707673 
L 24.626194 90.270404 
L 24.734911 64.483161 
L 24.78927 69.681575 
L 24.843629 78.775114 
L 24.897988 49.519779 
L 25.006706 87.693456 
L 25.061065 86.24812 
L 25.115424 51.174903 
L 25.169783 60.706123 
L 25.224142 86.524412 
L 25.278501 72.424497 
L 25.33286 57.156195 
L 25.550295 94.930407 
L 25.659013 72.053234 
L 25.713372 99.233902 
L 25.767731 86.11077 
L 25.82209 72.313226 
L 25.876449 83.598958 
L 25.930808 132.256591 
L 25.985167 90.269681 
L 26.093885 71.50018 
L 26.148244 93.247125 
L 26.202602 92.269807 
L 26.256961 66.020102 
L 26.31132 84.412136 
L 26.420038 78.787379 
L 26.528756 89.670231 
L 26.637474 59.589358 
L 26.691833 73.574715 
L 26.746192 54.720168 
L 26.800551 72.534003 
L 26.85491 95.698227 
L 26.909269 75.743287 
L 26.963627 51.669067 
L 27.017986 74.994654 
L 27.072345 73.756298 
L 27.181063 54.783305 
L 27.34414 92.542254 
L 27.398499 91.018698 
L 27.452858 59.8037 
L 27.507217 115.206163 
L 27.561576 83.253041 
L 27.615935 51.390611 
L 27.724652 51.953153 
L 27.779011 88.376121 
L 27.83337 68.993367 
L 27.887729 64.9722 
L 27.942088 78.793248 
L 27.996447 62.637446 
L 28.050806 62.72422 
L 28.213883 85.83227 
L 28.37696 51.440663 
L 28.431319 87.069088 
L 28.485677 77.858695 
L 28.540036 75.968397 
L 28.594395 60.143857 
L 28.648754 72.595087 
L 28.703113 100.049234 
L 28.757472 80.500095 
L 28.811831 69.112487 
L 28.974908 96.062126 
L 29.029267 69.386838 
L 29.083626 97.811881 
L 29.137985 65.139566 
L 29.192344 66.654226 
L 29.246702 89.602271 
L 29.301061 54.903361 
L 29.35542 86.557144 
L 29.409779 68.841212 
L 29.464138 85.394736 
L 29.518497 84.035372 
L 29.572856 44.84566 
L 29.627215 92.522788 
L 29.681574 82.945911 
L 29.735933 82.445449 
L 29.790292 55.893758 
L 29.844651 81.006156 
L 29.89901 81.896335 
L 30.062086 47.076669 
L 30.170804 95.453148 
L 30.225163 88.348595 
L 30.279522 69.648048 
L 30.333881 83.772654 
L 30.38824 96.448883 
L 30.551317 46.919066 
L 30.605676 96.986 
L 30.660035 67.950725 
L 30.714394 51.289254 
L 30.768752 64.155149 
L 30.87747 82.766404 
L 30.986188 53.31759 
L 31.149265 103.539872 
L 31.312342 76.501153 
L 31.366701 62.69603 
L 31.42106 71.509388 
L 31.584136 85.845326 
L 31.638495 68.570581 
L 31.692854 76.163705 
L 31.747213 73.786433 
L 31.801572 48.256624 
L 31.964649 91.26669 
L 32.073367 44.397375 
L 32.236444 86.347116 
L 32.290803 37.324099 
L 32.345161 39.892931 
L 32.453879 83.891103 
L 32.508238 82.860706 
L 32.562597 73.895307 
L 32.616956 83.577156 
L 32.671315 63.336794 
L 32.725674 75.092851 
L 32.834392 63.482656 
L 32.997469 96.11324 
L 33.106186 62.486523 
L 33.160545 77.190248 
L 33.214904 63.316518 
L 33.269263 76.574328 
L 33.377981 45.336467 
L 33.43234 95.705417 
L 33.486699 88.225189 
L 33.649776 54.776495 
L 33.758494 101.782124 
L 33.812853 95.95232 
L 33.92157 54.603161 
L 34.030288 103.379539 
L 34.193365 50.895634 
L 34.247724 101.013528 
L 34.302083 54.84767 
L 34.356442 72.451353 
L 34.410801 36.725133 
L 34.46516 62.148001 
L 34.519519 56.053023 
L 34.628236 101.363808 
L 34.682595 94.319113 
L 34.791313 58.226001 
L 34.845672 59.813694 
L 34.900031 65.679478 
L 35.063108 91.310696 
L 35.117467 76.918719 
L 35.171826 79.376767 
L 35.226185 81.592882 
L 35.280544 77.216543 
L 35.334903 94.264746 
L 35.389261 86.791991 
L 35.44362 65.202077 
L 35.497979 80.36742 
L 35.552338 73.876395 
L 35.606697 85.503313 
L 35.715415 47.656623 
L 35.878492 89.910904 
L 35.932851 89.642374 
L 35.98721 95.510331 
L 36.095928 59.387401 
L 36.150286 95.06426 
L 36.204645 78.112806 
L 36.259004 92.547876 
L 36.313363 79.786448 
L 36.367722 66.918132 
L 36.422081 89.499452 
L 36.47644 66.064153 
L 36.585158 73.794767 
L 36.639517 66.474608 
L 36.693876 94.803105 
L 36.748235 80.980444 
L 36.856953 73.779759 
L 36.911311 80.174383 
L 36.96567 102.771454 
L 37.020029 86.383147 
L 37.128747 72.082375 
L 37.237465 92.355883 
L 37.346183 50.432711 
L 37.454901 81.598617 
L 37.617978 59.311596 
L 37.672336 85.638572 
L 37.726695 77.88668 
L 37.781054 54.310134 
L 37.835413 57.277476 
L 37.889772 89.654747 
L 37.944131 84.969359 
L 38.052849 64.040461 
L 38.107208 82.901808 
L 38.161567 59.987595 
L 38.215926 88.809094 
L 38.270285 87.646223 
L 38.324644 68.931768 
L 38.379003 101.156915 
L 38.48772 100.714323 
L 38.542079 51.744373 
L 38.596438 65.121239 
L 38.650797 70.430245 
L 38.705156 95.389781 
L 38.868233 65.649023 
L 39.03131 101.537304 
L 39.248745 82.020487 
L 39.303104 83.285835 
L 39.357463 56.351611 
L 39.411822 88.839642 
L 39.466181 68.178341 
L 39.683617 83.098342 
L 39.737976 65.967244 
L 39.792335 72.024241 
L 39.846694 99.251454 
L 39.901053 76.511685 
L 40.00977 65.181168 
L 40.064129 98.109881 
L 40.118488 66.795389 
L 40.172847 68.664366 
L 40.227206 95.218362 
L 40.281565 94.703178 
L 40.335924 58.446711 
L 40.390283 80.120311 
L 40.444642 83.131296 
L 40.499001 75.316469 
L 40.55336 99.093603 
L 40.607719 61.50546 
L 40.662078 71.310084 
L 40.716436 96.888595 
L 40.770795 55.765911 
L 40.825154 78.673416 
L 40.988231 119.300305 
L 41.096949 65.620346 
L 41.151308 67.865547 
L 41.205667 66.360605 
L 41.260026 118.038652 
L 41.314385 96.219246 
L 41.423103 56.754286 
L 41.586179 89.018616 
L 41.694897 55.969267 
L 41.857974 91.845319 
L 41.966692 35.567177 
L 42.129769 92.86033 
L 42.292845 62.749884 
L 42.455922 92.42083 
L 42.56464 64.675654 
L 42.618999 85.626201 
L 42.673358 51.830222 
L 42.727717 73.121728 
L 42.782076 96.549955 
L 42.836435 79.915147 
L 42.945153 72.755378 
L 42.999511 118.717777 
L 43.05387 69.567008 
L 43.108229 77.387462 
L 43.216947 108.792896 
L 43.271306 103.671562 
L 43.325665 82.923607 
L 43.434383 82.951918 
L 43.488742 70.627131 
L 43.543101 102.200047 
L 43.59746 78.422589 
L 43.651819 54.376998 
L 43.706178 77.01869 
L 43.814895 54.8273 
L 43.923613 91.663744 
L 44.032331 62.775216 
L 44.08669 92.775275 
L 44.141049 89.528646 
L 44.304126 57.797447 
L 44.412844 90.021741 
L 44.467203 89.256454 
L 44.521561 60.405566 
L 44.57592 87.102519 
L 44.738997 58.226191 
L 44.847715 96.162224 
L 44.902074 75.674364 
L 45.065151 104.986181 
L 45.228228 69.221855 
L 45.282586 70.068333 
L 45.336945 56.448931 
L 45.391304 80.120051 
L 45.445663 73.056287 
L 45.500022 70.544589 
L 45.554381 73.301111 
L 45.60874 69.838882 
L 45.663099 93.124233 
L 45.717458 86.700706 
L 45.771817 42.645838 
L 45.826176 59.447208 
L 45.934894 88.471687 
L 46.09797 60.136454 
L 46.152329 60.284561 
L 46.206688 95.323207 
L 46.261047 50.225546 
L 46.315406 55.666185 
L 46.369765 94.318154 
L 46.424124 82.079178 
L 46.478483 78.285988 
L 46.532842 89.047944 
L 46.587201 78.139972 
L 46.64156 78.187541 
L 46.695919 88.607779 
L 46.750278 70.459299 
L 46.804636 86.970032 
L 46.858995 88.42722 
L 46.913354 85.210187 
L 47.022072 92.742716 
L 47.185149 57.934436 
L 47.293867 81.920294 
L 47.348226 80.617178 
L 47.402585 72.902394 
L 47.456944 95.534712 
L 47.511303 82.744047 
L 47.565662 82.734904 
L 47.62002 66.296717 
L 47.674379 72.5432 
L 47.728738 69.095981 
L 47.837456 81.92948 
L 47.891815 40.839508 
L 47.946174 83.517955 
L 48.000533 86.318596 
L 48.054892 80.056695 
L 48.109251 92.363715 
L 48.272328 66.327856 
L 48.326687 106.976201 
L 48.381045 100.99898 
L 48.489763 76.299124 
L 48.544122 89.890877 
L 48.598481 85.802322 
L 48.65284 72.421648 
L 48.707199 73.939244 
L 48.870276 94.381711 
L 48.924635 54.721025 
L 48.978994 76.309699 
L 49.033353 97.585943 
L 49.196429 56.258717 
L 49.359506 104.838755 
L 49.522583 77.230456 
L 49.576942 94.366443 
L 49.740019 37.645945 
L 49.903095 86.946229 
L 49.957454 96.947431 
L 50.120531 67.18546 
L 50.17489 96.239684 
L 50.229249 42.659104 
L 50.283608 69.058698 
L 50.337967 60.458966 
L 50.501044 84.826377 
L 50.609762 76.309401 
L 50.66412 76.958064 
L 50.718479 78.438207 
L 50.772838 69.773981 
L 50.827197 86.743475 
L 50.935915 60.067536 
L 51.098992 98.831081 
L 51.20771 89.384005 
L 51.262069 87.825098 
L 51.316428 101.115679 
L 51.425145 68.028399 
L 51.479504 89.287603 
L 51.533863 68.132438 
L 51.588222 72.735498 
L 51.642581 63.730698 
L 51.751299 90.902704 
L 51.914376 57.685387 
L 51.968735 98.557263 
L 52.023094 76.071481 
L 52.077453 60.986149 
L 52.18617 114.536553 
L 52.240529 64.464397 
L 52.294888 83.321542 
L 52.349247 75.53836 
L 52.457965 119.416425 
L 52.512324 90.352322 
L 52.675401 58.610018 
L 52.784119 82.134143 
L 52.838478 81.960089 
L 52.947195 51.375817 
L 53.055913 94.709903 
L 53.110272 59.231268 
L 53.164631 69.818775 
L 53.21899 80.973676 
L 53.273349 52.153415 
L 53.327708 84.685364 
L 53.382067 78.567479 
L 53.436426 64.773695 
L 53.490785 92.202433 
L 53.545144 65.497876 
L 53.653862 88.75281 
L 53.70822 66.528922 
L 53.762579 81.979856 
L 53.816938 93.791766 
L 53.871297 60.298636 
L 53.925656 89.925515 
L 53.980015 83.215823 
L 54.034374 49.743977 
L 54.088733 66.016492 
L 54.25181 87.245441 
L 54.306169 75.169998 
L 54.360528 64.349988 
L 54.414887 86.958757 
L 54.469245 68.348888 
L 54.523604 76.537067 
L 54.577963 66.959063 
L 54.632322 69.840262 
L 54.686681 71.124358 
L 54.74104 58.462754 
L 54.795399 67.278085 
L 54.849758 60.844945 
L 54.904117 87.288809 
L 54.958476 58.639421 
L 55.067194 96.340508 
L 55.121553 60.290741 
L 55.175912 77.74589 
L 55.23027 74.309526 
L 55.284629 90.257589 
L 55.338988 80.916556 
L 55.502065 66.404369 
L 55.610783 75.993312 
L 55.665142 53.135813 
L 55.719501 101.02084 
L 55.77386 77.054525 
L 55.828219 77.362801 
L 55.882578 75.70714 
L 55.936937 57.851671 
L 55.991295 83.931201 
L 56.045654 71.649685 
L 56.154372 81.957126 
L 56.317449 62.55144 
L 56.371808 78.175153 
L 56.426167 64.977777 
L 56.480526 74.60516 
L 56.589244 59.323008 
L 56.697962 74.70375 
L 56.75232 63.309346 
L 56.806679 72.736751 
L 56.861038 76.544868 
L 56.915397 88.542419 
L 56.969756 66.703671 
L 57.024115 79.111805 
L 57.078474 71.989457 
L 57.132833 76.748622 
L 57.187192 85.269174 
L 57.241551 59.239759 
L 57.29591 72.526362 
L 57.350269 91.214151 
L 57.404628 80.54659 
L 57.458987 83.584618 
L 57.513345 62.989876 
L 57.567704 84.344447 
L 57.730781 61.365506 
L 57.839499 89.384373 
L 57.893858 74.087965 
L 58.002576 83.073516 
L 58.056935 76.108268 
L 58.111294 48.224622 
L 58.165653 76.383803 
L 58.220012 99.110379 
L 58.27437 71.052978 
L 58.328729 72.201 
L 58.383088 98.862119 
L 58.437447 63.990234 
L 58.491806 71.240327 
L 58.600524 84.712082 
L 58.709242 58.04538 
L 58.763601 63.376697 
L 58.81796 65.193463 
L 58.872319 81.100518 
L 58.926678 76.523978 
L 58.981037 66.227438 
L 59.035395 74.649461 
L 59.089754 74.863076 
L 59.144113 69.114269 
L 59.198472 80.400764 
L 59.252831 77.066093 
L 59.30719 57.855767 
L 59.361549 68.855736 
L 59.415908 62.201333 
L 59.470267 68.610232 
L 59.633344 95.622797 
L 59.850779 68.469245 
L 59.905138 70.527378 
L 59.959497 60.995297 
L 60.013856 83.478337 
L 60.068215 56.293892 
L 60.122574 86.813603 
L 60.176933 79.823616 
L 60.231292 76.607767 
L 60.394369 92.782289 
L 60.448728 92.483185 
L 60.557445 75.165637 
L 60.611804 97.529156 
L 60.774881 42.13412 
L 60.937958 93.996813 
L 60.992317 74.570836 
L 61.046676 62.908563 
L 61.101035 71.969367 
L 61.209753 68.761078 
L 61.31847 80.862261 
L 61.372829 74.924387 
L 61.427188 83.77344 
L 61.481547 76.784893 
L 61.590265 53.993435 
L 61.644624 62.322717 
L 61.698983 63.401072 
L 61.86206 96.95973 
L 61.970778 65.062431 
L 62.079495 94.515998 
L 62.133854 84.439237 
L 62.188213 75.47946 
L 62.242572 87.051651 
L 62.296931 60.022798 
L 62.35129 81.653662 
L 62.405649 69.714933 
L 62.460008 88.025698 
L 62.514367 82.758953 
L 62.623085 73.018707 
L 62.731803 80.923107 
L 62.84052 72.142579 
L 62.894879 83.554957 
L 63.003597 58.906129 
L 63.112315 86.214205 
L 63.166674 82.620204 
L 63.275392 73.189725 
L 63.329751 89.539818 
L 63.38411 47.183449 
L 63.438469 66.715681 
L 63.492828 82.197058 
L 63.547187 75.711144 
L 63.601545 59.357977 
L 63.710263 80.811043 
L 63.764622 80.081256 
L 63.927699 74.695 
L 63.982058 77.378999 
L 64.036417 58.314435 
L 64.090776 71.917871 
L 64.145135 61.261736 
L 64.199494 76.354388 
L 64.253853 69.189633 
L 64.308212 66.588555 
L 64.416929 74.954516 
L 64.471288 63.956646 
L 64.525647 72.71272 
L 64.634365 66.369113 
L 64.688724 91.115368 
L 64.743083 64.325051 
L 64.797442 87.442215 
L 64.960519 75.897574 
L 65.014878 95.164022 
L 65.069237 79.383224 
L 65.123596 65.64821 
L 65.177954 78.431976 
L 65.286672 84.544832 
L 65.341031 58.407824 
L 65.39539 104.203746 
L 65.449749 71.447311 
L 65.558467 60.940173 
L 65.612826 86.905327 
L 65.667185 85.710955 
L 65.775903 57.543945 
L 65.830262 77.631201 
L 65.884621 74.211398 
L 65.938979 73.08417 
L 65.993338 73.43883 
L 66.156415 56.909745 
L 66.210774 78.636326 
L 66.265133 52.660413 
L 66.319492 86.922295 
L 66.373851 69.027303 
L 66.482569 89.628716 
L 66.591287 68.627665 
L 66.645646 89.324188 
L 66.700004 69.521689 
L 66.754363 67.60126 
L 66.808722 74.850545 
L 66.863081 64.515959 
L 66.91744 74.09889 
L 67.026158 87.001301 
L 67.080517 81.212523 
L 67.134876 80.760733 
L 67.297953 49.58657 
L 67.352312 79.678571 
L 67.406671 63.51806 
L 67.515388 75.826911 
L 67.569747 71.707942 
L 67.624106 73.335198 
L 67.678465 80.437954 
L 67.732824 77.163029 
L 67.787183 65.177272 
L 67.841542 68.068352 
L 67.895901 74.265098 
L 67.95026 55.329428 
L 68.004619 82.526914 
L 68.058978 72.868138 
L 68.113337 76.919178 
L 68.167696 59.058272 
L 68.330772 83.588537 
L 68.43949 58.529205 
L 68.493849 72.930633 
L 68.548208 66.653732 
L 68.602567 91.490004 
L 68.656926 61.708102 
L 68.711285 66.509951 
L 68.765644 75.617535 
L 68.820003 54.646224 
L 68.983079 84.743068 
L 69.037438 81.52842 
L 69.091797 71.419046 
L 69.146156 72.193025 
L 69.309233 91.293205 
L 69.526669 64.749324 
L 69.635387 72.19622 
L 69.689746 68.453184 
L 69.852822 79.853554 
L 69.907181 80.044894 
L 69.96154 96.828539 
L 70.015899 90.337326 
L 70.070258 73.794525 
L 70.124617 82.908828 
L 70.396412 74.680485 
L 70.450771 75.180073 
L 70.505129 62.432223 
L 70.668206 78.937537 
L 70.722565 81.676694 
L 70.831283 63.920251 
L 70.885642 96.236522 
L 70.940001 80.713369 
L 70.99436 82.823178 
L 71.048719 47.928503 
L 71.103078 81.525261 
L 71.157437 71.353501 
L 71.211796 76.938615 
L 71.266154 85.33346 
L 71.374872 65.127023 
L 71.537949 79.144026 
L 71.701026 56.404432 
L 71.755385 83.81671 
L 71.809744 82.297459 
L 71.864103 67.814186 
L 72.027179 92.918673 
L 72.135897 65.09998 
L 72.190256 69.600188 
L 72.353333 78.142144 
L 72.407692 59.107815 
L 72.462051 80.856312 
L 72.51641 73.442972 
L 72.679487 79.25666 
L 72.788204 64.61599 
L 72.842563 78.642966 
L 72.896922 62.234746 
L 72.951281 79.354581 
L 73.059999 68.390247 
L 73.114358 74.487608 
L 73.168717 86.193432 
L 73.223076 83.496256 
L 73.331794 62.111869 
L 73.440512 83.423231 
L 73.494871 72.884708 
L 73.549229 79.227094 
L 73.603588 78.127361 
L 73.657947 82.921687 
L 73.712306 82.015879 
L 73.929742 69.987486 
L 73.984101 79.830912 
L 74.03846 73.999297 
L 74.092819 76.669705 
L 74.147178 88.225666 
L 74.310254 64.936666 
L 74.582049 84.551399 
L 74.636408 84.030189 
L 74.690767 64.65204 
L 74.745126 67.419878 
L 74.853844 75.211732 
L 74.908203 58.950362 
L 74.962562 71.694289 
L 75.016921 81.911039 
L 75.179997 66.356405 
L 75.234356 60.824336 
L 75.343074 83.649642 
L 75.397433 82.352554 
L 75.451792 71.95204 
L 75.506151 79.428408 
L 75.669228 64.552154 
L 75.723587 72.261866 
L 75.777946 69.400584 
L 75.832304 65.625975 
L 75.886663 75.23088 
L 75.941022 64.881184 
L 76.04974 78.15413 
L 76.158458 71.471735 
L 76.212817 78.552059 
L 76.267176 72.524259 
L 76.321535 77.920246 
L 76.375894 74.514247 
L 76.430253 72.205949 
L 76.484612 85.434784 
L 76.538971 79.075624 
L 76.593329 66.985863 
L 76.647688 81.633576 
L 76.702047 71.77638 
L 76.756406 74.870117 
L 76.865124 63.280642 
L 76.919483 83.576782 
L 76.973842 78.503504 
L 77.08256 70.754833 
L 77.136919 83.987992 
L 77.191278 64.326137 
L 77.245637 70.430423 
L 77.408713 76.659039 
L 77.463072 76.107438 
L 77.57179 70.518897 
L 77.626149 76.294572 
L 77.680508 71.077599 
L 77.734867 59.965423 
L 77.789226 65.049778 
L 77.897944 82.161771 
L 77.952303 71.094415 
L 78.006662 89.655163 
L 78.061021 82.247712 
L 78.169738 69.309767 
L 78.224097 83.452994 
L 78.278456 69.189815 
L 78.332815 66.78776 
L 78.495892 80.809663 
L 78.550251 82.563613 
L 78.60461 82.546375 
L 78.658969 81.667574 
L 78.713328 77.473455 
L 78.767687 89.86399 
L 78.822046 85.813701 
L 78.876404 71.412289 
L 78.930763 88.141708 
L 78.985122 78.175262 
L 79.039481 78.371187 
L 79.148199 94.484307 
L 79.311276 72.366447 
L 79.474353 80.700656 
L 79.528712 72.845174 
L 79.583071 84.943805 
L 79.637429 77.771472 
L 79.691788 63.317103 
L 79.854865 90.723895 
L 79.909224 68.281991 
L 79.963583 72.441567 
L 80.017942 84.620207 
L 80.072301 76.100613 
L 80.12666 66.48884 
L 80.181019 100.001648 
L 80.235378 69.532747 
L 80.289737 65.004677 
L 80.344096 85.53704 
L 80.398455 69.173131 
L 80.452813 76.350387 
L 80.507172 61.396385 
L 80.561531 62.078778 
L 80.724608 88.109267 
L 80.887685 63.288604 
L 81.050762 85.892745 
L 81.105121 85.551622 
L 81.15948 69.315707 
L 81.213838 72.429404 
L 81.268197 73.075325 
L 81.322556 65.29167 
L 81.376915 69.144511 
L 81.539992 82.238233 
L 81.594351 81.265431 
L 81.64871 82.216589 
L 81.811787 64.938274 
L 81.866146 67.12941 
L 81.974863 66.807035 
L 82.029222 81.757326 
L 82.083581 87.065675 
L 82.13794 83.154314 
L 82.355376 70.971165 
L 82.409735 74.027232 
L 82.518453 86.060434 
L 82.627171 72.598257 
L 82.68153 79.037952 
L 82.735888 77.625864 
L 82.790247 71.01657 
L 82.844606 73.44054 
L 82.898965 73.905789 
L 82.953324 72.829913 
L 83.062042 92.584031 
L 83.17076 75.022445 
L 83.225119 75.593305 
L 83.279478 75.420914 
L 83.388196 58.073316 
L 83.551272 81.295642 
L 83.605631 65.216481 
L 83.65999 85.804942 
L 83.714349 68.011907 
L 83.768708 76.483217 
L 83.823067 75.552424 
L 83.877426 74.927366 
L 83.931785 67.49094 
L 84.040503 84.997548 
L 84.094862 83.97942 
L 84.149221 82.623027 
L 84.257938 70.263726 
L 84.312297 77.840054 
L 84.366656 72.904696 
L 84.421015 65.516705 
L 84.475374 71.01258 
L 84.638451 82.285263 
L 84.747169 70.171661 
L 84.855887 71.305801 
L 84.910246 91.612152 
L 84.964605 82.081919 
L 85.018963 75.625391 
L 85.073322 88.570263 
L 85.127681 66.516559 
L 85.18204 71.798117 
L 85.290758 77.507711 
L 85.453835 72.033133 
L 85.508194 84.96805 
L 85.562553 72.500208 
L 85.616912 71.24036 
L 85.72563 88.892783 
L 85.779988 83.443725 
L 85.834347 69.504967 
L 85.888706 82.938614 
L 85.943065 77.151323 
L 85.997424 77.733653 
L 86.051783 90.414012 
L 86.106142 77.490879 
L 86.160501 78.960085 
L 86.21486 67.925824 
L 86.269219 73.812593 
L 86.323578 76.111007 
L 86.377937 75.793915 
L 86.432296 69.181669 
L 86.541013 85.862726 
L 86.595372 80.096206 
L 86.70409 61.627743 
L 86.758449 78.43329 
L 86.812808 77.842903 
L 86.921526 63.775453 
L 86.975885 91.957259 
L 87.030244 83.143161 
L 87.084603 65.912944 
L 87.138962 73.474169 
L 87.193321 78.572672 
L 87.24768 67.193722 
L 87.302038 73.21653 
L 87.356397 85.914247 
L 87.410756 74.544259 
L 87.465115 65.54488 
L 87.519474 70.370833 
L 87.628192 80.732562 
L 87.682551 74.656658 
L 87.73691 76.419193 
L 87.791269 85.959137 
L 87.845628 74.023457 
L 87.899987 76.358059 
L 87.954346 77.793799 
L 88.008705 61.768383 
L 88.063063 74.623564 
L 88.117422 78.40432 
L 88.22614 68.996569 
L 88.280499 85.038603 
L 88.334858 82.435023 
L 88.389217 65.566336 
L 88.443576 70.113679 
L 88.497935 70.772111 
L 88.552294 68.323183 
L 88.606653 92.293544 
L 88.661012 81.673979 
L 88.715371 84.959262 
L 88.824088 69.614924 
L 88.878447 81.271915 
L 88.987165 80.930979 
L 89.041524 75.969195 
L 89.095883 81.229881 
L 89.204601 69.339718 
L 89.25896 74.928695 
L 89.313319 67.145581 
L 89.367678 74.763204 
L 89.422037 75.538228 
L 89.476396 81.321876 
L 89.530755 80.661999 
L 89.585113 79.652679 
L 89.639472 75.164466 
L 89.693831 77.709735 
L 89.74819 81.427523 
L 89.802549 68.520229 
L 89.856908 73.985961 
L 90.074344 65.49908 
L 90.128703 78.413327 
L 90.183062 76.446501 
L 90.237421 77.105769 
L 90.29178 76.470056 
L 90.454856 74.485227 
L 90.509215 80.750087 
L 90.563574 71.848276 
L 90.617933 81.925778 
L 90.672292 79.294857 
L 90.726651 72.65534 
L 90.78101 76.355821 
L 90.889728 73.679139 
L 91.052805 80.1592 
L 91.161522 69.651136 
L 91.215881 78.658491 
L 91.27024 72.892831 
L 91.378958 80.10902 
L 91.542035 71.268237 
L 91.596394 70.169996 
L 91.705112 83.565638 
L 91.759471 71.962002 
L 91.81383 83.60864 
L 91.922547 72.354847 
L 91.976906 79.878335 
L 92.031265 74.859216 
L 92.194342 80.868119 
L 92.30306 71.132297 
L 92.411778 71.172221 
L 92.466137 77.572348 
L 92.520496 75.944864 
L 92.574855 69.761862 
L 92.629213 79.87707 
L 92.683572 73.838481 
L 92.846649 63.040834 
L 92.901008 84.760533 
L 92.955367 74.269704 
L 93.009726 74.962519 
L 93.064085 74.555423 
L 93.118444 80.3652 
L 93.172803 76.974392 
L 93.227162 79.659665 
L 93.33588 76.396353 
L 93.390238 79.926596 
L 93.444597 73.002599 
L 93.498956 88.792206 
L 93.553315 77.948055 
L 93.607674 79.026487 
L 93.662033 83.74666 
L 93.770751 72.008328 
L 93.82511 77.87241 
L 93.879469 67.9218 
L 93.933828 80.296366 
L 93.988187 73.388351 
L 94.042546 68.589866 
L 94.096905 81.466249 
L 94.151263 68.259166 
L 94.205622 69.237275 
L 94.368699 80.508603 
L 94.477417 75.616706 
L 94.531776 76.527616 
L 94.586135 77.763341 
L 94.640494 76.777553 
L 94.694853 72.235142 
L 94.749212 79.182305 
L 94.803571 74.105366 
L 94.85793 75.864822 
L 94.912288 70.829336 
L 95.021006 81.537889 
L 95.075365 69.451177 
L 95.129724 76.337501 
L 95.238442 60.229033 
L 95.292801 77.632569 
L 95.34716 74.966909 
L 95.401519 74.563887 
L 95.455878 76.018266 
L 95.510237 71.662937 
L 95.564596 81.026906 
L 95.618955 79.326462 
L 95.673313 77.363926 
L 95.727672 83.233824 
L 95.782031 69.608647 
L 95.83639 72.727348 
L 95.890749 72.110884 
L 95.945108 77.496445 
L 95.999467 75.360879 
L 96.053826 74.431773 
L 96.216903 76.239898 
L 96.271262 70.875525 
L 96.325621 77.960926 
L 96.37998 75.359677 
L 96.543056 71.255154 
L 96.651774 75.614997 
L 96.706133 69.837236 
L 96.760492 74.556781 
L 96.814851 75.041351 
L 96.86921 69.367597 
L 96.977928 81.873044 
L 97.032287 78.06816 
L 97.086646 75.771128 
L 97.141005 79.341965 
L 97.195364 73.901229 
L 97.249722 76.930025 
L 97.304081 83.97778 
L 97.35844 79.019035 
L 97.521517 70.737348 
L 97.575876 73.724278 
L 97.630235 72.717719 
L 97.684594 71.322353 
L 97.738953 83.416882 
L 97.793312 72.658905 
L 97.90203 79.77211 
L 98.065106 72.013706 
L 98.119465 80.042687 
L 98.173824 76.64057 
L 98.228183 73.687605 
L 98.336901 80.066482 
L 98.39126 74.044968 
L 98.445619 76.305847 
L 98.499978 77.15244 
L 98.554337 75.576902 
L 98.663055 81.171813 
L 98.771772 70.527634 
L 98.826131 72.308067 
L 98.88049 73.173612 
L 98.934849 75.866583 
L 98.989208 75.671089 
L 99.043567 74.621804 
L 99.097926 75.89622 
L 99.152285 81.358749 
L 99.206644 75.742253 
L 99.315362 73.882666 
L 99.369721 77.463125 
L 99.42408 73.770152 
L 99.478439 71.023361 
L 99.587156 78.918006 
L 99.750233 70.39644 
L 99.804592 76.755209 
L 99.858951 76.404877 
L 99.91331 72.411844 
L 99.967669 78.360406 
L 100.022028 75.466939 
L 100.076387 68.856241 
L 100.130746 74.786796 
L 100.185105 75.636958 
L 100.239464 73.29988 
L 100.293822 79.646685 
L 100.348181 71.927548 
L 100.40254 75.445945 
L 100.456899 72.901656 
L 100.511258 73.062656 
L 100.619976 80.621088 
L 100.674335 78.318928 
L 100.837412 71.22783 
L 100.891771 78.746151 
L 101.054847 68.367652 
L 101.163565 77.506715 
L 101.217924 73.786228 
L 101.272283 75.603625 
L 101.326642 74.752192 
L 101.43536 78.426798 
L 101.489719 76.330333 
L 101.544078 79.21012 
L 101.598437 76.277164 
L 101.761514 72.18329 
L 101.92459 75.656751 
L 101.978949 69.085022 
L 102.033308 73.629892 
L 102.087667 73.052521 
L 102.142026 73.610837 
L 102.250744 78.63624 
L 102.305103 72.466504 
L 102.359462 74.978717 
L 102.413821 72.800712 
L 102.46818 79.467818 
L 102.522539 73.65105 
L 102.631256 76.448824 
L 102.794333 73.205917 
L 103.011769 76.387952 
L 103.066128 74.578371 
L 103.120487 67.656904 
L 103.174846 73.470431 
L 103.283564 78.809291 
L 103.337922 70.766056 
L 103.392281 73.45919 
L 103.609717 81.659132 
L 103.664076 74.236188 
L 103.718435 82.173213 
L 103.772794 74.379362 
L 103.827153 77.550491 
L 103.935871 71.92998 
L 103.99023 79.203107 
L 104.044589 71.182454 
L 104.098947 72.345751 
L 104.153306 73.249403 
L 104.207665 72.212148 
L 104.262024 76.090227 
L 104.316383 75.785928 
L 104.425101 72.743281 
L 104.588178 79.886351 
L 104.751255 71.735516 
L 104.805614 78.538705 
L 104.859972 71.594339 
L 105.023049 80.407767 
L 105.131767 73.346367 
L 105.186126 73.734855 
L 105.240485 78.137055 
L 105.294844 74.05606 
L 105.349203 72.605769 
L 105.457921 76.731844 
L 105.51228 74.897158 
L 105.566639 68.917072 
L 105.620997 74.748018 
L 105.675356 72.402026 
L 105.729715 72.533041 
L 105.784074 76.00014 
L 105.838433 72.066689 
L 105.892792 79.469221 
L 105.947151 79.166405 
L 106.055869 71.853557 
L 106.164587 76.377886 
L 106.218946 72.289772 
L 106.273305 80.408994 
L 106.327664 75.985686 
L 106.382022 72.117613 
L 106.49074 78.340644 
L 106.545099 72.066671 
L 106.599458 75.585429 
L 106.708176 72.014958 
L 106.762535 72.986729 
L 106.816894 75.26334 
L 106.871253 72.914974 
L 106.925612 73.942061 
L 107.088689 78.94539 
L 107.143047 77.747705 
L 107.306124 71.430974 
L 107.360483 74.23262 
L 107.414842 73.928087 
L 107.469201 72.51854 
L 107.52356 75.733105 
L 107.577919 73.640617 
L 107.632278 75.357437 
L 107.686637 73.528857 
L 107.740996 77.278645 
L 107.795355 76.509503 
L 107.849714 76.327936 
L 107.904072 76.771137 
L 107.958431 73.426241 
L 108.01279 76.080943 
L 108.067149 75.957925 
L 108.121508 76.473958 
L 108.230226 73.065358 
L 108.284585 77.884297 
L 108.338944 74.133674 
L 108.447662 72.991813 
L 108.502021 75.745631 
L 108.55638 74.125548 
L 108.610739 75.444907 
L 108.665097 73.388789 
L 108.719456 74.273615 
L 108.773815 79.771494 
L 108.828174 76.549492 
L 108.882533 74.415718 
L 109.04561 77.790704 
L 109.099969 73.800223 
L 109.154328 77.424328 
L 109.317405 72.933431 
L 109.371764 73.306662 
L 109.480481 77.928247 
L 109.53484 76.144723 
L 109.589199 76.03052 
L 109.643558 76.344575 
L 109.752276 74.516347 
L 109.860994 76.038637 
L 109.915353 75.579285 
L 109.969712 76.158676 
L 110.07843 73.042173 
L 110.132789 73.92229 
L 110.187147 77.063532 
L 110.241506 76.817027 
L 110.295865 76.744452 
L 110.404583 72.220692 
L 110.458942 76.689799 
L 110.513301 73.981941 
L 110.676378 75.909879 
L 110.839455 73.995249 
L 110.948172 74.977716 
L 111.002531 74.27959 
L 111.111249 75.590922 
L 111.219967 73.858419 
L 111.274326 74.642297 
L 111.383044 76.222619 
L 111.546121 72.997093 
L 111.60048 78.286149 
L 111.654839 76.085504 
L 111.709197 72.715104 
L 111.763556 77.681473 
L 111.817915 73.854868 
L 111.872274 75.401723 
L 111.980992 75.392524 
L 112.035351 72.501623 
L 112.08971 79.076139 
L 112.144069 72.626395 
L 112.198428 76.87842 
L 112.252787 75.046993 
L 112.307146 74.849058 
L 112.361505 76.639873 
L 112.415864 76.382702 
L 112.470222 75.767692 
L 112.524581 72.678034 
L 112.57894 73.524846 
L 112.633299 73.602048 
L 112.687658 75.518757 
L 112.742017 71.633059 
L 112.796376 77.12661 
L 112.850735 76.986933 
L 113.013812 73.798724 
L 113.12253 77.550982 
L 113.176889 74.187371 
L 113.231248 77.07919 
L 113.285606 76.431218 
L 113.394324 73.50666 
L 113.448683 74.019765 
L 113.503042 75.711321 
L 113.557401 74.681322 
L 113.61176 73.799173 
L 113.666119 76.317814 
L 113.720478 74.476157 
L 113.774837 75.592224 
L 113.829196 74.746577 
L 113.883555 74.44496 
L 114.046631 76.575026 
L 114.10099 72.511498 
L 114.155349 76.009787 
L 114.209708 77.166891 
L 114.264067 74.032753 
L 114.372785 74.124501 
L 114.427144 75.988806 
L 114.481503 73.421777 
L 114.535862 73.990699 
L 114.590221 77.581318 
L 114.64458 75.307217 
L 114.698939 77.27144 
L 114.753298 77.224577 
L 114.916374 74.33995 
L 115.079451 76.839465 
L 115.13381 77.007672 
L 115.188169 74.917768 
L 115.242528 75.379117 
L 115.351246 74.552927 
L 115.405605 77.175208 
L 115.459964 75.2828 
L 115.514323 77.018563 
L 115.568681 75.508826 
L 115.62304 75.636935 
L 115.677399 76.894713 
L 115.731758 75.235262 
L 115.786117 75.295805 
L 115.894835 76.886736 
L 116.057912 73.428893 
L 116.16663 76.602795 
L 116.220989 75.454978 
L 116.275348 75.368912 
L 116.329706 76.650234 
L 116.384065 74.274446 
L 116.438424 78.807125 
L 116.492783 75.105492 
L 116.547142 75.320305 
L 116.65586 74.762245 
L 116.710219 75.545604 
L 116.764578 73.376934 
L 116.818937 74.972494 
L 116.873296 74.70941 
L 117.090731 77.232611 
L 117.14509 76.670693 
L 117.253808 75.357875 
L 117.362526 77.077204 
L 117.416885 74.059797 
L 117.471244 76.08381 
L 117.525603 74.941548 
L 117.579962 76.602205 
L 117.634321 75.58083 
L 117.68868 74.189069 
L 117.743039 74.615936 
L 117.851756 75.398661 
L 117.960474 73.461982 
L 118.069192 76.707715 
L 118.123551 73.821838 
L 118.17791 75.395337 
L 118.232269 74.966 
L 118.286628 76.288845 
L 118.340987 75.742944 
L 118.395346 75.023401 
L 118.449705 76.00001 
L 118.504064 74.030949 
L 118.558423 75.255277 
L 118.612781 75.14564 
L 118.66714 75.294668 
L 118.721499 77.129713 
L 118.775858 75.810143 
L 118.830217 76.552744 
L 118.993294 75.224828 
L 119.156371 76.781437 
L 119.265089 74.845626 
L 119.319448 75.060605 
L 119.428165 74.834777 
L 119.536883 76.497832 
L 119.754319 74.056144 
L 119.808678 75.225419 
L 119.863037 73.508169 
L 119.917396 74.947176 
L 119.971755 76.951343 
L 120.026114 74.863602 
L 120.080473 73.813634 
L 120.243549 76.661498 
L 120.297908 76.652762 
L 120.406626 74.591504 
L 120.460985 76.065396 
L 120.515344 74.873372 
L 120.569703 75.105367 
L 120.624062 74.904745 
L 120.678421 76.313784 
L 120.73278 75.747201 
L 120.787139 75.310568 
L 120.841498 75.580398 
L 120.895856 76.385653 
L 121.058933 74.929922 
L 121.113292 74.851986 
L 121.22201 76.323771 
L 121.276369 75.63935 
L 121.385087 75.118556 
L 121.439446 76.125737 
L 121.602523 74.648662 
L 121.71124 75.914808 
L 121.765599 74.007943 
L 121.819958 75.903551 
L 122.037394 74.513169 
L 122.200471 75.813176 
L 122.25483 75.468164 
L 122.309189 75.51288 
L 122.363548 75.885942 
L 122.417906 74.818591 
L 122.472265 75.237249 
L 122.526624 75.846173 
L 122.580983 75.111172 
L 122.635342 75.29289 
L 122.689701 75.644005 
L 122.798419 74.801192 
L 122.852778 75.225989 
L 122.907137 75.078748 
L 123.070214 75.632141 
L 123.124573 75.588686 
L 123.178931 75.331655 
L 123.342008 75.837214 
L 123.396367 75.979027 
L 123.505085 75.097645 
L 123.559444 75.417894 
L 123.613803 75.759316 
L 123.668162 75.410313 
L 123.722521 75.48766 
L 123.77688 75.280011 
L 123.831239 75.532862 
L 123.885598 75.110434 
L 123.939956 75.334139 
L 123.994315 76.056772 
L 124.048674 75.387437 
L 124.103033 75.431169 
L 124.211751 75.68154 
L 124.26611 75.653592 
L 124.320469 75.513504 
L 124.374828 74.906452 
L 124.429187 75.487902 
L 124.483546 75.612592 
L 124.592264 74.970545 
L 124.646623 75.48197 
L 124.700981 75.367557 
L 124.809699 75.557101 
L 124.864058 75.463882 
L 124.918417 75.319197 
L 124.972776 75.415375 
L 125.027135 75.424134 
L 125.190212 74.997545 
L 125.244571 75.837563 
L 125.29893 75.213096 
L 125.462006 75.609739 
L 125.516365 75.334249 
L 125.570724 75.529308 
L 125.679442 75.193618 
L 125.733801 75.42689 
L 125.78816 75.591881 
L 125.842519 75.518219 
L 125.896878 75.312998 
L 125.951237 75.610852 
L 126.005596 75.490236 
L 126.114314 75.217001 
L 126.223031 75.513104 
L 126.331749 75.432095 
L 126.494826 75.551501 
L 126.657903 75.416921 
L 126.712262 75.326126 
L 126.766621 75.46809 
L 126.82098 75.416871 
L 126.875339 75.398146 
L 126.929698 75.515031 
L 126.984056 75.424815 
L 127.038415 75.419589 
L 127.092774 75.265762 
L 127.147133 75.50258 
L 127.201492 75.369573 
L 127.636364 75.444334 
L 127.636364 75.444334 
" clip-path="url(#pf28790890e)" style="fill: none; stroke: #8da0cb; stroke-width: 1.5; stroke-linecap: square"/>
   </g>
   <g id="patch_3">
    <path d="M 10.8 133.2 
L 10.8 10.8 
" style="fill: none; stroke: #000000; stroke-width: 0.8; stroke-linejoin: miter; stroke-linecap: square"/>
   </g>
   <g id="patch_4">
    <path d="M 133.2 133.2 
L 133.2 10.8 
" style="fill: none; stroke: #000000; stroke-width: 0.8; stroke-linejoin: miter; stroke-linecap: square"/>
   </g>
   <g id="patch_5">
    <path d="M 10.8 133.2 
L 133.2 133.2 
" style="fill: none; stroke: #000000; stroke-width: 0.8; stroke-linejoin: miter; stroke-linecap: square"/>
   </g>
   <g id="patch_6">
    <path d="M 10.8 10.8 
L 133.2 10.8 
" style="fill: none; stroke: #000000; stroke-width: 0.8; stroke-linejoin: miter; stroke-linecap: square"/>
   </g>
  </g>
 </g>
 <defs>
  <clipPath id="pf28790890e">
   <rect x="10.8" y="10.8" width="122.4" height="122.4"/>
  </clipPath>
 </defs>
</svg>
