<?xml version="1.0" encoding="utf-8" standalone="no"?>
<!DOCTYPE svg PUBLIC "-//W3C//DTD SVG 1.1//EN"
  "http://www.w3.org/Graphics/SVG/1.1/DTD/svg11.dtd">
<svg xmlns:xlink="http://www.w3.org/1999/xlink" width="144pt" height="144pt" viewBox="0 0 144 144" xmlns="http://www.w3.org/2000/svg" version="1.1">
 <metadata>
  <rdf:RDF xmlns:dc="http://purl.org/dc/elements/1.1/" xmlns:cc="http://creativecommons.org/ns#" xmlns:rdf="http://www.w3.org/1999/02/22-rdf-syntax-ns#">
   <cc:Work>
    <dc:type rdf:resource="http://purl.org/dc/dcmitype/StillImage"/>
    <dc:date>2025-02-07T11:27:54.806111</dc:date>
    <dc:format>image/svg+xml</dc:format>
    <dc:creator>
     <cc:Agent>
      <dc:title>Matplotlib v3.8.0, https://matplotlib.org/</dc:title>
     </cc:Agent>
    </dc:creator>
   </cc:Work>
  </rdf:RDF>
 </metadata>
 <defs>
  <style type="text/css">*{stroke-linejoin: round; stroke-linecap: butt}</style>
 </defs>
 <g id="figure_1">
  <g id="patch_1">
   <path d="M 0 144 
L 144 144 
L 144 0 
L 0 0 
L 0 144 
z
" style="fill: none"/>
  </g>
  <g id="axes_1">
   <g id="patch_2">
    <path d="M 10.8 133.2 
L 133.2 133.2 
L 133.2 10.8 
L 10.8 10.8 
L 10.8 133.2 
z
" style="fill: none"/>
   </g>
   <g id="matplotlib.axis_1"/>
   <g id="matplotlib.axis_2"/>
   <g id="line2d_1">
    <path d="M 16.363636 71.520314 
L 16.798508 71.51392 
L 16.852867 71.411829 
L 16.907226 71.526272 
L 17.015944 71.576863 
L 17.233379 71.373763 
L 17.287738 71.67086 
L 17.342097 71.542946 
L 17.559533 71.379313 
L 17.613892 71.696998 
L 17.668251 71.63719 
L 17.831327 71.391177 
L 17.940045 71.63852 
L 17.994404 71.409313 
L 18.048763 71.42701 
L 18.103122 71.952852 
L 18.157481 71.36738 
L 18.21184 71.564933 
L 18.266199 71.664835 
L 18.320558 71.459009 
L 18.374917 71.645803 
L 18.592352 71.123402 
L 18.646711 71.592833 
L 18.70107 70.952679 
L 18.755429 71.571952 
L 18.809788 71.342513 
L 18.864147 71.409159 
L 18.972865 71.467325 
L 19.027224 71.11046 
L 19.190301 71.98219 
L 19.24466 71.164878 
L 19.299019 71.721257 
L 19.462095 70.854431 
L 19.570813 71.824712 
L 19.625172 71.493819 
L 19.679531 71.691507 
L 19.788249 71.520218 
L 19.951326 72.054436 
L 20.060044 71.661646 
L 20.114402 72.029054 
L 20.168761 71.744762 
L 20.22312 71.414642 
L 20.331838 71.956145 
L 20.386197 71.871543 
L 20.549274 71.224644 
L 20.603633 70.817831 
L 20.657992 72.454553 
L 20.712351 72.210649 
L 20.821069 70.973751 
L 20.875427 72.014561 
L 20.929786 71.875292 
L 20.984145 71.637332 
L 21.038504 71.998705 
L 21.092863 71.117394 
L 21.147222 71.399266 
L 21.201581 71.164967 
L 21.25594 71.811685 
L 21.310299 71.09767 
L 21.364658 71.382423 
L 21.527735 72.416253 
L 21.582094 70.678308 
L 21.690811 70.754779 
L 21.74517 70.648637 
L 21.908247 71.888144 
L 21.962606 70.952597 
L 22.016965 71.088336 
L 22.071324 71.136276 
L 22.125683 72.482037 
L 22.180042 70.79732 
L 22.234401 70.880462 
L 22.28876 70.93108 
L 22.343119 70.328943 
L 22.506195 72.028819 
L 22.614913 70.640548 
L 22.723631 71.52679 
L 22.77799 71.323776 
L 22.832349 70.303485 
L 22.886708 72.343436 
L 22.941067 71.741842 
L 22.995426 70.980283 
L 23.158502 72.077829 
L 23.26722 70.492121 
L 23.321579 72.295423 
L 23.375938 71.692355 
L 23.430297 71.465684 
L 23.484656 69.955873 
L 23.539015 71.24811 
L 23.593374 71.470728 
L 23.647733 73.217563 
L 23.702092 71.135478 
L 23.756451 71.537356 
L 23.919527 71.77302 
L 24.028245 70.628559 
L 24.191322 72.448428 
L 24.30004 70.636988 
L 24.354399 72.606892 
L 24.408758 69.840353 
L 24.463117 71.503154 
L 24.517476 70.83542 
L 24.571835 71.10385 
L 24.626194 73.652201 
L 24.78927 70.034022 
L 24.897988 72.219391 
L 24.952347 70.887119 
L 25.006706 72.342815 
L 25.115424 70.229987 
L 25.169783 73.31174 
L 25.224142 72.21297 
L 25.278501 72.052601 
L 25.33286 72.810795 
L 25.387219 72.016324 
L 25.495936 70.516317 
L 25.550295 74.29891 
L 25.604654 72.541318 
L 25.82209 70.76556 
L 25.876449 71.822045 
L 25.930808 71.064607 
L 25.985167 71.615691 
L 26.039526 70.313847 
L 26.093885 71.322194 
L 26.148244 70.715969 
L 26.202602 70.872042 
L 26.31132 72.51157 
L 26.365679 71.824963 
L 26.474397 71.370981 
L 26.528756 72.727311 
L 26.637474 69.567822 
L 26.691833 73.761234 
L 26.746192 71.669035 
L 26.800551 69.375899 
L 26.85491 71.705753 
L 26.909269 72.500237 
L 27.072345 70.345961 
L 27.126704 70.841594 
L 27.181063 72.96947 
L 27.235422 71.246845 
L 27.289781 69.333757 
L 27.34414 71.233028 
L 27.398499 72.470589 
L 27.452858 70.30369 
L 27.507217 71.668395 
L 27.561576 70.750611 
L 27.615935 71.665218 
L 27.670294 72.209853 
L 27.724652 70.494039 
L 27.779011 71.23322 
L 27.83337 72.742286 
L 27.887729 70.609179 
L 27.942088 72.116547 
L 27.996447 71.173044 
L 28.050806 72.513095 
L 28.105165 70.935224 
L 28.159524 72.144787 
L 28.213883 71.624368 
L 28.268242 69.11871 
L 28.322601 73.578206 
L 28.37696 69.433737 
L 28.485677 71.168275 
L 28.540036 71.068018 
L 28.594395 74.388111 
L 28.648754 72.475904 
L 28.703113 73.691321 
L 28.757472 71.277006 
L 28.811831 72.813393 
L 28.86619 72.139436 
L 28.920549 72.163131 
L 29.029267 72.749509 
L 29.083626 73.933659 
L 29.137985 72.091735 
L 29.192344 74.534698 
L 29.246702 70.560711 
L 29.301061 74.26325 
L 29.35542 74.792495 
L 29.518497 69.787385 
L 29.572856 73.120223 
L 29.627215 72.072099 
L 29.681574 71.809098 
L 29.735933 68.001225 
L 29.790292 73.54249 
L 29.844651 73.537244 
L 30.007727 70.140471 
L 30.116445 75.737143 
L 30.279522 69.777677 
L 30.333881 72.390152 
L 30.38824 70.461921 
L 30.442599 69.303901 
L 30.496958 71.015649 
L 30.551317 70.904491 
L 30.605676 70.83933 
L 30.660035 73.277038 
L 30.714394 70.801402 
L 30.768752 71.226817 
L 30.823111 73.363425 
L 30.87747 71.464188 
L 30.931829 65.878962 
L 30.986188 69.527142 
L 31.094906 73.834098 
L 31.149265 69.825062 
L 31.203624 71.089172 
L 31.257983 70.342701 
L 31.312342 71.474674 
L 31.366701 69.904575 
L 31.529778 74.774648 
L 31.747213 68.2688 
L 31.855931 71.469542 
L 31.91029 69.196881 
L 31.964649 71.983154 
L 32.019008 68.270812 
L 32.073367 68.37806 
L 32.127726 73.238826 
L 32.182085 71.212586 
L 32.236444 67.885067 
L 32.290803 69.512655 
L 32.345161 73.238828 
L 32.39952 70.239922 
L 32.562597 73.91378 
L 32.616956 70.337467 
L 32.671315 77.348015 
L 32.725674 71.708252 
L 32.780033 71.997833 
L 32.834392 71.427312 
L 32.888751 73.091861 
L 32.94311 69.547056 
L 33.051828 75.167903 
L 33.106186 70.725522 
L 33.160545 72.932621 
L 33.214904 73.264303 
L 33.269263 73.185838 
L 33.323622 75.074828 
L 33.43234 68.640475 
L 33.486699 68.939714 
L 33.649776 73.606574 
L 33.704135 73.033885 
L 33.867211 69.10626 
L 33.92157 67.670264 
L 33.975929 72.81742 
L 34.030288 71.685241 
L 34.193365 73.990743 
L 34.247724 67.366043 
L 34.302083 72.318066 
L 34.356442 71.767402 
L 34.410801 72.387563 
L 34.46516 68.813937 
L 34.519519 73.92375 
L 34.573878 69.991862 
L 34.628236 69.851311 
L 34.682595 70.930612 
L 34.791313 67.366885 
L 34.95439 73.897464 
L 35.063108 67.951651 
L 35.226185 74.607011 
L 35.334903 68.144429 
L 35.389261 73.494258 
L 35.44362 72.544661 
L 35.552338 71.955669 
L 35.606697 72.282904 
L 35.661056 71.65373 
L 35.715415 72.612815 
L 35.769774 68.993565 
L 35.824133 72.192152 
L 35.878492 70.035316 
L 35.932851 73.138533 
L 35.98721 68.881773 
L 36.095928 73.630523 
L 36.150286 72.859401 
L 36.204645 67.755729 
L 36.259004 70.33116 
L 36.313363 71.584248 
L 36.367722 68.396545 
L 36.530799 74.916379 
L 36.585158 67.569134 
L 36.639517 70.604891 
L 36.693876 76.444967 
L 36.748235 68.957711 
L 36.802594 72.362296 
L 36.856953 72.898095 
L 37.020029 67.9276 
L 37.074388 68.331156 
L 37.128747 71.904609 
L 37.183106 71.199011 
L 37.237465 67.343103 
L 37.291824 69.906062 
L 37.346183 73.471968 
L 37.400542 70.024511 
L 37.454901 72.945549 
L 37.50926 72.478401 
L 37.672336 68.651005 
L 37.889772 76.002497 
L 37.944131 69.871716 
L 37.99849 73.101052 
L 38.052849 75.325777 
L 38.161567 67.911051 
L 38.270285 78.031264 
L 38.324644 72.863493 
L 38.379003 73.031096 
L 38.433361 68.752051 
L 38.48772 71.509009 
L 38.542079 71.241066 
L 38.596438 71.595513 
L 38.650797 71.131358 
L 38.705156 68.912906 
L 38.759515 75.19164 
L 38.813874 72.665524 
L 38.868233 72.728383 
L 38.922592 72.141031 
L 38.976951 77.692097 
L 39.03131 74.881649 
L 39.085669 70.616671 
L 39.140028 74.991195 
L 39.248745 69.999028 
L 39.303104 72.25863 
L 39.357463 69.942713 
L 39.411822 76.329889 
L 39.466181 73.933569 
L 39.52054 70.115741 
L 39.574899 73.826752 
L 39.629258 75.344673 
L 39.846694 68.155236 
L 40.064129 74.842128 
L 40.172847 68.048711 
L 40.335924 73.014215 
L 40.390283 71.20125 
L 40.444642 74.827564 
L 40.607719 65.32185 
L 40.716436 68.576702 
L 40.770795 67.421876 
L 40.825154 68.784354 
L 40.933872 77.397333 
L 40.988231 69.712664 
L 41.04259 73.359739 
L 41.096949 73.533567 
L 41.151308 65.861755 
L 41.260026 75.893651 
L 41.423103 63.864139 
L 41.477461 64.330678 
L 41.586179 75.210518 
L 41.640538 69.573982 
L 41.694897 70.002485 
L 41.749256 73.238111 
L 41.857974 66.76456 
L 42.021051 73.312437 
L 42.07541 71.844599 
L 42.129769 73.955435 
L 42.238486 70.552949 
L 42.292845 76.024226 
L 42.347204 73.419368 
L 42.401563 63.336855 
L 42.455922 68.509097 
L 42.618999 75.782446 
L 42.673358 68.340069 
L 42.727717 74.070553 
L 42.836435 70.368554 
L 42.890794 77.485433 
L 42.945153 73.814102 
L 42.999511 74.118934 
L 43.05387 75.62396 
L 43.108229 65.668772 
L 43.162588 73.936459 
L 43.271306 64.696316 
L 43.543101 79.016584 
L 43.59746 66.040407 
L 43.651819 68.419856 
L 43.760536 78.953714 
L 43.814895 69.752611 
L 43.923613 69.801229 
L 43.977972 66.877816 
L 44.141049 75.681302 
L 44.358485 66.720692 
L 44.521561 75.722748 
L 44.57592 65.463328 
L 44.630279 72.229319 
L 44.684638 72.629341 
L 44.738997 69.9406 
L 44.793356 82.306857 
L 44.847715 67.548987 
L 44.902074 71.626404 
L 44.956433 77.523274 
L 45.010792 71.478702 
L 45.065151 72.470598 
L 45.11951 78.611548 
L 45.173869 70.867074 
L 45.228228 71.788092 
L 45.282586 72.560248 
L 45.336945 75.691493 
L 45.391304 67.881489 
L 45.445663 75.774386 
L 45.500022 68.358443 
L 45.554381 73.802188 
L 45.60874 69.787579 
L 45.663099 71.612246 
L 45.717458 73.408782 
L 45.771817 71.173581 
L 45.826176 77.545376 
L 45.880535 67.759597 
L 45.934894 77.706766 
L 45.989253 75.935859 
L 46.043611 65.533483 
L 46.09797 78.140329 
L 46.152329 64.917224 
L 46.206688 70.742985 
L 46.315406 65.165648 
L 46.369765 84.569885 
L 46.424124 69.858075 
L 46.478483 71.647639 
L 46.532842 65.477733 
L 46.695919 80.016204 
L 46.804636 68.914691 
L 46.858995 78.180638 
L 46.967713 63.410869 
L 47.022072 78.442179 
L 47.076431 72.372551 
L 47.13079 74.243007 
L 47.239508 66.983886 
L 47.293867 77.444715 
L 47.348226 75.863038 
L 47.402585 76.659254 
L 47.511303 65.162497 
L 47.565662 70.348331 
L 47.62002 60.19487 
L 47.783097 75.595974 
L 47.837456 73.940865 
L 47.891815 68.513627 
L 47.946174 75.085643 
L 48.000533 70.385041 
L 48.16361 78.272867 
L 48.217969 69.6746 
L 48.272328 80.19251 
L 48.326687 70.455348 
L 48.381045 75.257027 
L 48.435404 68.091728 
L 48.489763 70.883874 
L 48.544122 71.249153 
L 48.598481 77.639051 
L 48.65284 62.506615 
L 48.707199 78.097609 
L 48.870276 68.44574 
L 49.033353 74.225233 
L 49.087712 75.532642 
L 49.196429 65.332113 
L 49.250788 78.207868 
L 49.305147 68.108563 
L 49.359506 72.812764 
L 49.413865 68.735668 
L 49.468224 71.759709 
L 49.522583 71.487814 
L 49.576942 70.695782 
L 49.68566 78.823966 
L 49.740019 65.769999 
L 49.794378 74.786022 
L 49.957454 71.484493 
L 50.011813 72.236425 
L 50.120531 68.546616 
L 50.17489 76.905992 
L 50.229249 65.105344 
L 50.283608 77.433804 
L 50.337967 65.712271 
L 50.446685 73.621019 
L 50.501044 72.896092 
L 50.555403 70.124505 
L 50.609762 70.155127 
L 50.66412 79.949135 
L 50.718479 70.208663 
L 50.772838 66.373665 
L 50.827197 68.693085 
L 50.935915 70.613036 
L 50.990274 65.41174 
L 51.098992 83.13619 
L 51.153351 79.946225 
L 51.370787 60.559154 
L 51.425145 69.171281 
L 51.479504 63.140056 
L 51.533863 66.295136 
L 51.588222 66.050717 
L 51.642581 65.218483 
L 51.69694 68.324304 
L 51.751299 64.180993 
L 51.860017 80.315244 
L 51.914376 65.023178 
L 51.968735 75.66165 
L 52.023094 71.249173 
L 52.077453 73.060368 
L 52.131812 72.327281 
L 52.240529 89.213081 
L 52.403606 70.609045 
L 52.457965 76.712943 
L 52.621042 63.843054 
L 52.675401 66.017631 
L 52.72976 77.936261 
L 52.784119 75.407416 
L 52.838478 72.590334 
L 52.892837 79.709474 
L 52.947195 77.02335 
L 53.001554 76.778456 
L 53.055913 79.198007 
L 53.110272 63.001361 
L 53.164631 78.207476 
L 53.21899 64.375614 
L 53.273349 76.473878 
L 53.382067 68.411619 
L 53.436426 81.462143 
L 53.599503 62.945226 
L 53.70822 79.909422 
L 53.762579 56.839813 
L 53.816938 72.874117 
L 53.925656 77.265459 
L 54.034374 68.117124 
L 54.088733 74.318539 
L 54.143092 65.288734 
L 54.197451 72.400102 
L 54.360528 81.091498 
L 54.414887 68.876155 
L 54.469245 71.018721 
L 54.523604 75.330705 
L 54.577963 66.173722 
L 54.632322 73.801221 
L 54.686681 72.841598 
L 54.849758 76.42121 
L 54.958476 71.496656 
L 55.012835 77.84083 
L 55.121553 58.870946 
L 55.175912 64.923825 
L 55.23027 64.454373 
L 55.338988 79.195759 
L 55.393347 78.221394 
L 55.447706 75.179988 
L 55.502065 80.523594 
L 55.719501 64.53818 
L 55.77386 79.064845 
L 55.828219 70.759881 
L 55.991295 79.744053 
L 56.045654 55.285952 
L 56.100013 77.852679 
L 56.154372 57.707172 
L 56.208731 75.603271 
L 56.26309 61.289129 
L 56.317449 72.58576 
L 56.371808 71.128329 
L 56.426167 76.078031 
L 56.480526 65.291641 
L 56.534885 71.462773 
L 56.589244 71.177241 
L 56.643603 80.467732 
L 56.697962 68.597898 
L 56.75232 75.507283 
L 56.806679 71.201178 
L 56.861038 84.632177 
L 56.915397 65.540915 
L 56.969756 68.212453 
L 57.132833 83.41755 
L 57.241551 66.927328 
L 57.29591 76.605168 
L 57.404628 72.330044 
L 57.458987 69.260038 
L 57.513345 69.734017 
L 57.567704 77.936898 
L 57.622063 64.629149 
L 57.676422 80.819132 
L 57.730781 76.936079 
L 57.893858 71.246499 
L 57.948217 71.443214 
L 58.002576 70.073758 
L 58.056935 70.967285 
L 58.165653 78.33834 
L 58.27437 55.125302 
L 58.383088 78.072261 
L 58.437447 66.031193 
L 58.491806 70.730947 
L 58.546165 76.135313 
L 58.654883 65.624511 
L 58.763601 75.901615 
L 58.81796 60.735182 
L 58.872319 73.611564 
L 58.926678 71.450017 
L 58.981037 77.242985 
L 59.035395 67.24002 
L 59.089754 92.79532 
L 59.144113 72.789301 
L 59.198472 78.369217 
L 59.415908 63.542092 
L 59.470267 71.987482 
L 59.524626 60.196901 
L 59.578985 65.175751 
L 59.687703 70.15476 
L 59.742062 65.355031 
L 59.79642 75.469839 
L 59.850779 57.727774 
L 59.905138 58.509304 
L 59.959497 85.09355 
L 60.013856 74.571457 
L 60.122574 66.132931 
L 60.176933 75.676237 
L 60.231292 60.7744 
L 60.285651 64.184558 
L 60.34001 77.153707 
L 60.394369 75.065842 
L 60.448728 60.729341 
L 60.611804 80.837824 
L 60.720522 72.089345 
L 60.774881 81.016423 
L 60.82924 78.716618 
L 60.937958 72.461691 
L 60.992317 73.253491 
L 61.046676 74.716825 
L 61.101035 82.91884 
L 61.155394 75.343281 
L 61.31847 88.472224 
L 61.427188 71.979451 
L 61.535906 74.853305 
L 61.644624 60.642638 
L 61.698983 61.722592 
L 61.753342 59.798343 
L 61.916419 74.212922 
L 61.970778 74.276257 
L 62.025137 51.83052 
L 62.079495 65.814495 
L 62.133854 61.40906 
L 62.242572 76.860839 
L 62.296931 72.475525 
L 62.35129 61.042995 
L 62.405649 63.572233 
L 62.460008 63.524769 
L 62.514367 84.016257 
L 62.568726 67.0735 
L 62.623085 67.809764 
L 62.731803 76.649406 
L 62.786162 70.184302 
L 62.84052 79.650071 
L 62.894879 50.395201 
L 62.949238 60.844081 
L 63.057956 82.102248 
L 63.112315 78.371307 
L 63.166674 67.369061 
L 63.221033 70.128517 
L 63.275392 72.990371 
L 63.329751 61.49033 
L 63.38411 79.662325 
L 63.438469 63.444039 
L 63.601545 72.682029 
L 63.655904 64.838885 
L 63.710263 76.672214 
L 63.764622 68.381737 
L 63.818981 69.983628 
L 63.927699 67.38094 
L 64.036417 84.782335 
L 64.090776 78.862963 
L 64.199494 67.890121 
L 64.253853 77.244793 
L 64.308212 75.946324 
L 64.362571 66.077693 
L 64.416929 67.179029 
L 64.471288 77.701643 
L 64.525647 58.134612 
L 64.580006 87.629987 
L 64.634365 69.634132 
L 64.797442 81.496066 
L 64.960519 72.193535 
L 65.014878 77.167565 
L 65.069237 93.447719 
L 65.123596 62.667101 
L 65.177954 69.79256 
L 65.232313 75.38912 
L 65.286672 67.555556 
L 65.341031 71.034137 
L 65.39539 78.871843 
L 65.449749 66.348874 
L 65.504108 100.353122 
L 65.558467 80.02583 
L 65.721544 66.756646 
L 65.830262 80.53107 
L 65.938979 67.003594 
L 65.993338 69.153211 
L 66.047697 75.88234 
L 66.210774 58.619257 
L 66.265133 88.16038 
L 66.319492 73.571645 
L 66.373851 72.002405 
L 66.42821 60.053265 
L 66.591287 84.67676 
L 66.645646 87.115773 
L 66.754363 54.681355 
L 66.808722 68.176151 
L 66.863081 64.658833 
L 66.971799 85.975295 
L 67.134876 65.894373 
L 67.189235 54.82266 
L 67.406671 92.202591 
L 67.515388 63.846283 
L 67.569747 67.412317 
L 67.624106 67.827633 
L 67.678465 77.255084 
L 67.732824 52.901693 
L 67.787183 71.841135 
L 67.841542 68.129336 
L 67.895901 77.763437 
L 67.95026 74.591481 
L 68.113337 55.763486 
L 68.276413 85.244906 
L 68.43949 56.877671 
L 68.493849 88.021064 
L 68.548208 70.207396 
L 68.602567 69.510297 
L 68.765644 73.965329 
L 68.874362 69.027416 
L 68.928721 52.564426 
L 68.983079 57.772059 
L 69.091797 72.211172 
L 69.146156 69.334207 
L 69.200515 76.269631 
L 69.254874 69.881013 
L 69.363592 65.293966 
L 69.526669 76.145245 
L 69.581028 59.693252 
L 69.635387 83.478403 
L 69.689746 71.856956 
L 69.744104 56.535081 
L 69.798463 68.182325 
L 69.852822 65.584213 
L 69.96154 84.653912 
L 70.070258 69.56992 
L 70.124617 71.413465 
L 70.178976 76.465085 
L 70.233335 61.957635 
L 70.287694 69.267465 
L 70.342053 69.472447 
L 70.396412 84.74827 
L 70.450771 80.955306 
L 70.559488 68.289046 
L 70.613847 79.789349 
L 70.668206 77.053282 
L 70.722565 69.567116 
L 70.885642 92.237887 
L 70.99436 70.538637 
L 71.048719 74.706033 
L 71.103078 62.148291 
L 71.157437 74.22381 
L 71.211796 69.877683 
L 71.266154 77.628961 
L 71.374872 43.856373 
L 71.48359 69.572905 
L 71.537949 66.563998 
L 71.592308 85.56618 
L 71.646667 81.414024 
L 71.864103 62.509571 
L 71.918462 68.601985 
L 71.972821 94.702177 
L 72.027179 84.297171 
L 72.081538 66.790159 
L 72.135897 84.817549 
L 72.190256 82.06112 
L 72.244615 57.806662 
L 72.298974 66.192689 
L 72.353333 80.773952 
L 72.407692 75.185961 
L 72.462051 64.820864 
L 72.51641 80.259751 
L 72.570769 69.382222 
L 72.733846 59.896285 
L 72.788204 61.820067 
L 72.842563 64.518226 
L 73.00564 86.423289 
L 73.168717 64.506088 
L 73.331794 75.749278 
L 73.386153 48.477501 
L 73.440512 76.47988 
L 73.494871 68.28615 
L 73.549229 68.419858 
L 73.657947 75.970385 
L 73.712306 71.486529 
L 73.766665 66.805502 
L 73.821024 66.809414 
L 73.875383 87.999971 
L 73.929742 84.879234 
L 73.984101 55.798237 
L 74.03846 64.916062 
L 74.092819 75.773934 
L 74.147178 68.004635 
L 74.310254 84.745261 
L 74.418972 69.46023 
L 74.473331 69.478495 
L 74.52769 84.317901 
L 74.582049 75.591449 
L 74.690767 54.899178 
L 74.745126 88.638604 
L 74.799485 79.142749 
L 74.908203 64.858315 
L 74.962562 79.193689 
L 75.016921 76.356386 
L 75.125638 61.995341 
L 75.179997 76.275915 
L 75.234356 54.094445 
L 75.288715 73.024452 
L 75.343074 73.091019 
L 75.397433 70.947529 
L 75.451792 81.880308 
L 75.506151 73.109815 
L 75.56051 72.654957 
L 75.614869 74.818728 
L 75.669228 60.568878 
L 75.723587 80.642539 
L 75.777946 78.153035 
L 75.832304 63.805801 
L 75.941022 86.898249 
L 76.104099 43.79158 
L 76.212817 77.564123 
L 76.267176 72.04994 
L 76.321535 82.120442 
L 76.375894 77.021001 
L 76.430253 80.823774 
L 76.484612 96.353953 
L 76.538971 65.691202 
L 76.593329 72.819086 
L 76.647688 81.202468 
L 76.756406 70.453473 
L 76.810765 71.880979 
L 76.919483 78.191228 
L 76.973842 73.253357 
L 77.08256 94.097555 
L 77.191278 69.258526 
L 77.245637 84.71896 
L 77.299996 84.206562 
L 77.354354 46.261539 
L 77.408713 76.56895 
L 77.463072 85.466376 
L 77.57179 49.602563 
L 77.680508 75.831319 
L 77.734867 70.651884 
L 77.789226 56.253473 
L 77.843585 65.067625 
L 77.897944 76.878175 
L 77.952303 71.93343 
L 78.006662 68.025155 
L 78.061021 54.077519 
L 78.115379 80.555905 
L 78.169738 49.874727 
L 78.224097 72.64251 
L 78.278456 70.594189 
L 78.332815 77.756784 
L 78.495892 56.27168 
L 78.550251 87.753249 
L 78.60461 73.49147 
L 78.713328 65.758637 
L 78.767687 97.764406 
L 78.822046 76.194048 
L 78.876404 58.524242 
L 78.930763 73.571362 
L 78.985122 71.192898 
L 79.09384 89.119413 
L 79.148199 85.490898 
L 79.256917 53.994243 
L 79.311276 64.841507 
L 79.365635 68.102296 
L 79.419994 61.084875 
L 79.583071 86.943184 
L 79.637429 62.587488 
L 79.691788 72.169354 
L 79.746147 66.090406 
L 79.800506 43.45935 
L 79.909224 94.234195 
L 79.963583 48.634919 
L 80.017942 74.483692 
L 80.072301 100.738983 
L 80.235378 64.508987 
L 80.398455 93.319127 
L 80.61589 50.286847 
L 80.724608 82.09212 
L 80.887685 36.567121 
L 80.942044 79.045208 
L 80.996403 62.835389 
L 81.050762 64.468625 
L 81.105121 49.597418 
L 81.15948 73.004443 
L 81.268197 72.077657 
L 81.322556 84.5199 
L 81.376915 34.650051 
L 81.431274 63.84237 
L 81.485633 75.364964 
L 81.539992 69.492711 
L 81.594351 53.745184 
L 81.757428 80.668947 
L 81.920505 91.703448 
L 81.974863 90.30969 
L 82.246658 60.334637 
L 82.301017 70.203863 
L 82.355376 67.846972 
L 82.409735 64.413874 
L 82.627171 83.30629 
L 82.68153 63.731648 
L 82.735888 71.901613 
L 82.844606 75.4509 
L 82.953324 50.895437 
L 83.007683 71.397176 
L 83.062042 50.363636 
L 83.225119 74.44807 
L 83.333837 66.492519 
L 83.388196 80.354113 
L 83.442555 64.647205 
L 83.496913 88.142667 
L 83.551272 59.781141 
L 83.605631 79.443668 
L 83.65999 75.129896 
L 83.714349 86.959643 
L 83.823067 45.108957 
L 84.040503 91.608779 
L 84.094862 91.41027 
L 84.20358 58.882665 
L 84.257938 59.642605 
L 84.312297 72.394786 
L 84.366656 64.716139 
L 84.421015 61.502397 
L 84.475374 66.940457 
L 84.529733 58.205594 
L 84.584092 83.141973 
L 84.638451 73.691983 
L 84.69281 70.803861 
L 84.801528 77.556281 
L 84.910246 66.150464 
L 84.964605 82.602253 
L 85.018963 63.881743 
L 85.073322 67.477517 
L 85.127681 72.922144 
L 85.18204 91.968179 
L 85.290758 31.145327 
L 85.345117 95.633761 
L 85.399476 85.035982 
L 85.453835 79.992795 
L 85.508194 86.372437 
L 85.671271 64.011357 
L 85.72563 59.170564 
L 85.779988 63.674843 
L 85.834347 60.357046 
L 85.943065 75.08015 
L 85.997424 68.703238 
L 86.051783 79.742997 
L 86.106142 72.570563 
L 86.160501 60.366836 
L 86.21486 96.089512 
L 86.269219 66.700243 
L 86.377937 58.550455 
L 86.432296 77.386417 
L 86.486655 70.082677 
L 86.541013 73.004309 
L 86.70409 65.271454 
L 86.758449 66.80643 
L 86.812808 54.259754 
L 86.921526 76.660609 
L 86.975885 55.336232 
L 87.030244 60.014032 
L 87.138962 78.856566 
L 87.193321 67.494453 
L 87.24768 41.389308 
L 87.302038 62.368325 
L 87.356397 80.389596 
L 87.410756 71.806861 
L 87.465115 62.027973 
L 87.519474 90.570614 
L 87.573833 65.334669 
L 87.791269 91.079309 
L 87.845628 59.015491 
L 87.899987 61.043603 
L 87.954346 71.6422 
L 88.008705 66.904126 
L 88.063063 65.056092 
L 88.117422 72.359236 
L 88.171781 44.625656 
L 88.22614 53.112954 
L 88.280499 89.761255 
L 88.334858 57.236535 
L 88.389217 83.340852 
L 88.443576 56.466628 
L 88.497935 51.742952 
L 88.552294 96.237711 
L 88.606653 95.385346 
L 88.715371 68.117648 
L 88.76973 82.705318 
L 88.824088 54.055723 
L 88.878447 63.420964 
L 88.932806 60.543086 
L 89.095883 92.832794 
L 89.25896 58.014752 
L 89.313319 40.667234 
L 89.476396 78.053468 
L 89.530755 61.577674 
L 89.585113 75.430986 
L 89.693831 92.164174 
L 89.74819 58.759141 
L 89.802549 65.817763 
L 89.856908 77.629481 
L 89.911267 33.363007 
L 89.965626 66.247819 
L 90.019985 90.342907 
L 90.074344 72.166149 
L 90.128703 55.081421 
L 90.183062 70.587554 
L 90.346138 99.221668 
L 90.400497 61.442512 
L 90.454856 69.111038 
L 90.563574 90.415842 
L 90.672292 70.490243 
L 90.726651 70.999447 
L 90.78101 104.679338 
L 90.889728 59.882371 
L 90.944087 99.606214 
L 90.998446 63.9764 
L 91.052805 76.676211 
L 91.107163 59.03467 
L 91.161522 68.661769 
L 91.324599 84.610607 
L 91.433317 49.020272 
L 91.542035 102.734222 
L 91.596394 61.237527 
L 91.650753 63.462081 
L 91.705112 74.647956 
L 91.759471 62.811234 
L 91.81383 87.670128 
L 91.868188 73.275069 
L 91.922547 76.963627 
L 92.085624 56.876929 
L 92.139983 72.351481 
L 92.194342 64.857596 
L 92.357419 73.511459 
L 92.466137 82.115455 
L 92.520496 79.097251 
L 92.629213 59.525482 
L 92.683572 67.297679 
L 92.737931 78.404061 
L 92.846649 58.233427 
L 92.955367 73.603334 
L 93.009726 95.9561 
L 93.064085 68.535429 
L 93.118444 68.579937 
L 93.281521 97.477288 
L 93.390238 48.156668 
L 93.444597 62.047287 
L 93.607674 85.68181 
L 93.716392 62.084736 
L 93.82511 66.682769 
L 93.879469 72.523734 
L 93.933828 39.508294 
L 93.988187 59.808733 
L 94.042546 92.440517 
L 94.096905 65.996791 
L 94.151263 77.435126 
L 94.259981 77.159816 
L 94.31434 50.688846 
L 94.368699 82.016783 
L 94.423058 65.416214 
L 94.477417 39.461477 
L 94.531776 65.56665 
L 94.586135 74.515787 
L 94.640494 53.99961 
L 94.694853 108.396729 
L 94.749212 68.396937 
L 94.803571 54.390819 
L 94.85793 68.927985 
L 94.912288 60.102128 
L 95.021006 81.443781 
L 95.129724 54.049186 
L 95.184083 74.139235 
L 95.238442 65.396485 
L 95.292801 70.087509 
L 95.34716 51.711409 
L 95.401519 111.64134 
L 95.455878 79.963112 
L 95.510237 65.488884 
L 95.564596 78.642482 
L 95.727672 68.441515 
L 95.782031 34.927847 
L 95.83639 81.091734 
L 95.890749 63.88643 
L 95.945108 59.405217 
L 95.999467 74.315373 
L 96.053826 69.506384 
L 96.108185 62.510319 
L 96.162544 119.881513 
L 96.216903 38.940778 
L 96.271262 90.467137 
L 96.325621 84.89036 
L 96.37998 102.98217 
L 96.434338 73.805085 
L 96.488697 75.636512 
L 96.543056 89.837297 
L 96.651774 55.41305 
L 96.706133 68.234004 
L 96.760492 60.201919 
L 96.814851 65.332603 
L 96.86921 59.431881 
L 96.923569 75.104828 
L 96.977928 60.663491 
L 97.086646 78.681239 
L 97.141005 56.737699 
L 97.195364 77.387549 
L 97.249722 70.705552 
L 97.304081 95.7903 
L 97.35844 79.145216 
L 97.521517 97.440508 
L 97.575876 69.686531 
L 97.630235 80.854321 
L 97.684594 90.521514 
L 97.793312 59.542428 
L 97.847671 66.835103 
L 97.90203 67.308711 
L 97.956389 90.143941 
L 98.010747 71.661649 
L 98.065106 81.25686 
L 98.119465 61.508499 
L 98.173824 68.545212 
L 98.228183 84.829277 
L 98.282542 70.969683 
L 98.336901 74.082069 
L 98.445619 59.228794 
L 98.608696 95.539458 
L 98.717414 51.460233 
L 98.771772 57.292168 
L 98.826131 75.898611 
L 98.88049 58.868535 
L 98.934849 47.031119 
L 99.097926 74.154427 
L 99.315362 53.060039 
L 99.369721 100.841661 
L 99.42408 43.295915 
L 99.478439 87.085528 
L 99.532797 51.6315 
L 99.587156 64.347969 
L 99.641515 63.395928 
L 99.695874 79.457701 
L 99.858951 48.834445 
L 99.91331 92.062028 
L 99.967669 27.570938 
L 100.022028 61.94938 
L 100.185105 81.172835 
L 100.293822 53.860786 
L 100.348181 66.347385 
L 100.40254 64.210988 
L 100.456899 72.184146 
L 100.511258 62.575909 
L 100.565617 80.458945 
L 100.619976 63.801056 
L 100.674335 55.596309 
L 100.728694 79.69643 
L 100.783053 71.170118 
L 100.837412 70.732865 
L 100.891771 76.795645 
L 100.94613 49.650404 
L 101.000489 75.458542 
L 101.054847 57.447314 
L 101.109206 90.454199 
L 101.163565 57.073898 
L 101.326642 77.857988 
L 101.381001 77.649141 
L 101.43536 80.331365 
L 101.598437 91.160761 
L 101.652796 92.717527 
L 101.707155 46.599806 
L 101.761514 107.418351 
L 101.815872 70.989307 
L 101.870231 64.001095 
L 101.92459 74.134256 
L 101.978949 51.345062 
L 102.142026 86.811038 
L 102.196385 84.76989 
L 102.250744 78.213284 
L 102.305103 56.540253 
L 102.359462 82.178525 
L 102.413821 68.347547 
L 102.46818 66.921715 
L 102.576897 76.563929 
L 102.631256 75.287321 
L 102.685615 63.362825 
L 102.739974 87.893825 
L 102.794333 61.13565 
L 102.848692 91.613318 
L 102.903051 64.214056 
L 102.95741 76.661578 
L 103.011769 50.119087 
L 103.066128 88.65735 
L 103.120487 50.22328 
L 103.174846 62.926081 
L 103.229205 107.33682 
L 103.283564 78.642055 
L 103.337922 77.503847 
L 103.392281 122.050953 
L 103.44664 77.560303 
L 103.555358 50.192783 
L 103.609717 84.534406 
L 103.664076 82.086473 
L 103.718435 82.140367 
L 103.827153 58.971308 
L 103.99023 88.743876 
L 104.044589 40.09038 
L 104.098947 86.780615 
L 104.153306 84.126492 
L 104.207665 86.699108 
L 104.262024 87.383341 
L 104.316383 84.475065 
L 104.370742 86.947901 
L 104.47946 41.701784 
L 104.588178 40.111351 
L 104.642537 85.978572 
L 104.805614 40.782912 
L 104.96869 89.97722 
L 105.023049 74.78051 
L 105.077408 85.116993 
L 105.131767 88.382274 
L 105.294844 56.165156 
L 105.349203 91.596094 
L 105.403562 70.337607 
L 105.457921 71.896101 
L 105.51228 96.939651 
L 105.566639 70.695501 
L 105.620997 83.272861 
L 105.675356 79.850638 
L 105.784074 42.140564 
L 105.892792 56.610096 
L 105.947151 97.490002 
L 106.00151 50.847358 
L 106.055869 77.448535 
L 106.110228 81.981923 
L 106.164587 62.330868 
L 106.218946 64.363918 
L 106.273305 87.576191 
L 106.327664 63.429785 
L 106.382022 25.125708 
L 106.436381 61.058478 
L 106.49074 27.747957 
L 106.599458 101.554319 
L 106.653817 80.611863 
L 106.708176 50.725941 
L 106.762535 53.294389 
L 106.871253 103.203506 
L 106.925612 60.464714 
L 106.979971 80.703829 
L 107.03433 82.060581 
L 107.088689 107.228161 
L 107.251765 55.135787 
L 107.360483 94.320653 
L 107.469201 59.869753 
L 107.52356 88.385633 
L 107.577919 67.979156 
L 107.632278 55.354739 
L 107.686637 68.221319 
L 107.740996 84.17626 
L 107.795355 32.948594 
L 107.849714 78.052808 
L 107.904072 53.422241 
L 107.958431 79.014206 
L 108.01279 63.745843 
L 108.067149 76.829612 
L 108.121508 101.207748 
L 108.175867 58.823265 
L 108.230226 86.130323 
L 108.284585 94.895822 
L 108.55638 58.765852 
L 108.610739 79.551857 
L 108.665097 71.134644 
L 108.773815 64.196517 
L 108.828174 39.143868 
L 108.882533 58.838719 
L 108.936892 87.242212 
L 108.991251 70.845123 
L 109.154328 92.552176 
L 109.263046 60.507809 
L 109.426122 104.325144 
L 109.480481 47.065411 
L 109.53484 51.364446 
L 109.752276 99.039531 
L 109.806635 28.462737 
L 109.860994 86.490074 
L 110.024071 25.819266 
L 110.132789 82.398923 
L 110.295865 46.081089 
L 110.350224 102.223177 
L 110.404583 62.204988 
L 110.622019 90.13417 
L 110.676378 84.358695 
L 110.730737 102.846912 
L 110.839455 55.611877 
L 111.002531 92.81608 
L 111.05689 82.288166 
L 111.111249 88.039283 
L 111.165608 83.787186 
L 111.328685 50.575425 
L 111.383044 77.646544 
L 111.437403 58.406363 
L 111.491762 54.289803 
L 111.546121 81.958856 
L 111.60048 63.295184 
L 111.654839 64.929888 
L 111.709197 96.662425 
L 111.763556 73.206858 
L 111.817915 63.428158 
L 111.926633 92.040625 
L 112.08971 65.732018 
L 112.144069 89.995938 
L 112.198428 55.565882 
L 112.252787 74.472108 
L 112.361505 103.197345 
L 112.415864 69.251261 
L 112.57894 110.907839 
L 112.633299 57.970083 
L 112.687658 58.474268 
L 112.850735 100.132532 
L 113.013812 61.629669 
L 113.068171 78.671806 
L 113.12253 62.582019 
L 113.176889 55.910899 
L 113.231248 61.434845 
L 113.285606 80.449394 
L 113.339965 52.034543 
L 113.503042 116.802533 
L 113.557401 69.081318 
L 113.61176 96.843233 
L 113.666119 86.904012 
L 113.720478 89.43941 
L 113.774837 45.914228 
L 113.829196 76.583019 
L 113.883555 80.423258 
L 113.937914 62.527222 
L 113.992273 70.044462 
L 114.046631 93.274538 
L 114.209708 53.457821 
L 114.264067 81.150808 
L 114.318426 63.970345 
L 114.372785 39.184483 
L 114.427144 47.198009 
L 114.481503 82.535339 
L 114.535862 67.591262 
L 114.590221 67.529912 
L 114.64458 73.370651 
L 114.698939 60.570771 
L 114.753298 61.875839 
L 114.807656 76.851099 
L 114.862015 53.03163 
L 115.025092 87.079596 
L 115.079451 45.582465 
L 115.13381 79.979699 
L 115.242528 58.440487 
L 115.296887 61.873076 
L 115.459964 32.605317 
L 115.677399 79.524807 
L 115.731758 70.339887 
L 115.786117 85.910082 
L 115.840476 59.618874 
L 115.894835 67.40537 
L 115.949194 77.894256 
L 116.003553 53.721525 
L 116.057912 91.96042 
L 116.112271 65.493618 
L 116.16663 63.981657 
L 116.220989 70.302751 
L 116.275348 92.244376 
L 116.329706 71.465721 
L 116.384065 57.679882 
L 116.438424 87.770338 
L 116.492783 40.611941 
L 116.547142 61.946731 
L 116.601501 58.644591 
L 116.764578 92.081085 
L 116.927655 49.861919 
L 116.982014 40.304453 
L 117.14509 87.142305 
L 117.253808 79.415898 
L 117.308167 41.416302 
L 117.362526 59.872537 
L 117.416885 91.879985 
L 117.471244 46.173597 
L 117.525603 71.596948 
L 117.579962 99.689063 
L 117.634321 38.512816 
L 117.68868 75.792106 
L 117.743039 77.914232 
L 117.797398 30.455757 
L 117.851756 35.93196 
L 117.906115 84.489659 
L 117.960474 79.678287 
L 118.014833 70.649489 
L 118.069192 93.934238 
L 118.123551 87.571684 
L 118.232269 44.50846 
L 118.286628 79.610283 
L 118.340987 57.891411 
L 118.395346 76.281001 
L 118.449705 57.053701 
L 118.504064 130.931053 
L 118.558423 69.009608 
L 118.612781 93.547253 
L 118.66714 87.94594 
L 118.721499 53.447809 
L 118.775858 101.109258 
L 118.830217 59.410418 
L 118.993294 91.154069 
L 119.21073 49.858287 
L 119.265089 88.982511 
L 119.319448 42.542791 
L 119.373806 59.114447 
L 119.482524 99.088558 
L 119.536883 59.612757 
L 119.591242 80.532967 
L 119.69996 47.559895 
L 119.917396 101.364572 
L 119.971755 49.346576 
L 120.026114 71.617058 
L 120.080473 57.768559 
L 120.243549 97.56196 
L 120.406626 53.661252 
L 120.515344 112.748736 
L 120.569703 45.05133 
L 120.624062 61.775993 
L 120.678421 67.625186 
L 120.73278 54.450506 
L 120.787139 87.115393 
L 120.841498 36.748992 
L 120.895856 48.879527 
L 120.950215 70.890125 
L 121.004574 68.353625 
L 121.058933 68.340312 
L 121.113292 71.267452 
L 121.167651 61.751106 
L 121.22201 75.345578 
L 121.276369 67.725377 
L 121.330728 74.306743 
L 121.385087 49.761186 
L 121.439446 117.112316 
L 121.493805 71.041719 
L 121.602523 88.227019 
L 121.656881 78.01658 
L 121.71124 93.82923 
L 121.874317 42.208198 
L 122.091753 98.54228 
L 122.146112 37.999901 
L 122.200471 90.014105 
L 122.363548 47.904576 
L 122.417906 77.464333 
L 122.472265 44.117088 
L 122.526624 47.987763 
L 122.580983 65.825164 
L 122.635342 59.227303 
L 122.689701 61.099714 
L 122.74406 54.42482 
L 122.798419 32.114517 
L 122.852778 98.951341 
L 122.907137 73.590528 
L 122.961496 61.182481 
L 123.015855 98.857298 
L 123.070214 75.12106 
L 123.124573 50.534153 
L 123.178931 81.565378 
L 123.23329 69.245363 
L 123.287649 63.211039 
L 123.450726 108.642555 
L 123.559444 43.27115 
L 123.613803 74.295426 
L 123.722521 77.821258 
L 123.885598 38.82849 
L 123.939956 46.682524 
L 124.103033 110.954004 
L 124.157392 98.83631 
L 124.26611 42.907854 
L 124.320469 77.032911 
L 124.374828 89.40631 
L 124.537905 49.430587 
L 124.592264 95.115872 
L 124.646623 79.634239 
L 124.75534 28.375912 
L 124.809699 81.54618 
L 124.864058 46.035899 
L 124.972776 92.426488 
L 125.027135 76.257621 
L 125.190212 56.468236 
L 125.244571 60.295645 
L 125.407648 93.602501 
L 125.462006 43.792846 
L 125.516365 78.380274 
L 125.625083 51.744342 
L 125.679442 70.427146 
L 125.842519 81.920536 
L 126.005596 58.981922 
L 126.223031 88.570296 
L 126.331749 45.634298 
L 126.386108 90.382946 
L 126.440467 90.110558 
L 126.494826 41.150592 
L 126.549185 80.926828 
L 126.603544 65.488902 
L 126.657903 88.391438 
L 126.712262 42.535161 
L 126.766621 72.19716 
L 126.82098 62.569238 
L 126.875339 93.374981 
L 126.984056 92.889789 
L 127.147133 47.860584 
L 127.201492 78.280269 
L 127.255851 78.023814 
L 127.31021 64.487542 
L 127.364569 108.153766 
L 127.418928 86.640563 
L 127.527646 40.638948 
L 127.582005 101.230422 
L 127.636364 54.868723 
" clip-path="url(#p2c14ff4eeb)" style="fill: none; stroke: #e78ac3; stroke-width: 1.5; stroke-linecap: square"/>
   </g>
   <g id="patch_3">
    <path d="M 10.8 133.2 
L 10.8 10.8 
" style="fill: none; stroke: #000000; stroke-width: 0.8; stroke-linejoin: miter; stroke-linecap: square"/>
   </g>
   <g id="patch_4">
    <path d="M 133.2 133.2 
L 133.2 10.8 
" style="fill: none; stroke: #000000; stroke-width: 0.8; stroke-linejoin: miter; stroke-linecap: square"/>
   </g>
   <g id="patch_5">
    <path d="M 10.8 133.2 
L 133.2 133.2 
" style="fill: none; stroke: #000000; stroke-width: 0.8; stroke-linejoin: miter; stroke-linecap: square"/>
   </g>
   <g id="patch_6">
    <path d="M 10.8 10.8 
L 133.2 10.8 
" style="fill: none; stroke: #000000; stroke-width: 0.8; stroke-linejoin: miter; stroke-linecap: square"/>
   </g>
  </g>
 </g>
 <defs>
  <clipPath id="p2c14ff4eeb">
   <rect x="10.8" y="10.8" width="122.4" height="122.4"/>
  </clipPath>
 </defs>
</svg>
