<?xml version="1.0" encoding="utf-8" standalone="no"?>
<!DOCTYPE svg PUBLIC "-//W3C//DTD SVG 1.1//EN"
  "http://www.w3.org/Graphics/SVG/1.1/DTD/svg11.dtd">
<svg xmlns:xlink="http://www.w3.org/1999/xlink" width="144pt" height="144pt" viewBox="0 0 144 144" xmlns="http://www.w3.org/2000/svg" version="1.1">
 <metadata>
  <rdf:RDF xmlns:dc="http://purl.org/dc/elements/1.1/" xmlns:cc="http://creativecommons.org/ns#" xmlns:rdf="http://www.w3.org/1999/02/22-rdf-syntax-ns#">
   <cc:Work>
    <dc:type rdf:resource="http://purl.org/dc/dcmitype/StillImage"/>
    <dc:date>2025-02-07T11:27:54.572648</dc:date>
    <dc:format>image/svg+xml</dc:format>
    <dc:creator>
     <cc:Agent>
      <dc:title>Matplotlib v3.8.0, https://matplotlib.org/</dc:title>
     </cc:Agent>
    </dc:creator>
   </cc:Work>
  </rdf:RDF>
 </metadata>
 <defs>
  <style type="text/css">*{stroke-linejoin: round; stroke-linecap: butt}</style>
 </defs>
 <g id="figure_1">
  <g id="patch_1">
   <path d="M 0 144 
L 144 144 
L 144 0 
L 0 0 
L 0 144 
z
" style="fill: none"/>
  </g>
  <g id="axes_1">
   <g id="patch_2">
    <path d="M 10.8 133.2 
L 133.2 133.2 
L 133.2 10.8 
L 10.8 10.8 
L 10.8 133.2 
z
" style="fill: none"/>
   </g>
   <g id="matplotlib.axis_1"/>
   <g id="matplotlib.axis_2"/>
   <g id="line2d_1">
    <path d="M 16.363636 73.652116 
L 16.907226 73.616811 
L 16.961585 73.533825 
L 17.124661 73.79815 
L 17.17902 73.638533 
L 17.233379 73.813943 
L 17.342097 73.72262 
L 17.396456 73.859175 
L 17.450815 73.742307 
L 17.613892 73.5147 
L 17.668251 73.648801 
L 17.72261 73.495043 
L 17.776969 73.533365 
L 17.831327 73.728941 
L 17.885686 73.541006 
L 17.940045 73.563773 
L 18.048763 73.919113 
L 18.103122 73.822482 
L 18.266199 73.285937 
L 18.320558 73.717009 
L 18.374917 73.134486 
L 18.429276 73.368952 
L 18.537994 73.625939 
L 18.70107 73.32984 
L 18.809788 73.744369 
L 18.918506 73.203519 
L 18.972865 73.78836 
L 19.027224 73.740727 
L 19.081583 73.12318 
L 19.135942 73.539666 
L 19.190301 73.630908 
L 19.24466 73.244341 
L 19.299019 73.823638 
L 19.353377 73.493172 
L 19.407736 73.475936 
L 19.516454 73.285244 
L 19.570813 74.118958 
L 19.625172 72.940794 
L 19.679531 73.239426 
L 19.842608 74.028879 
L 19.951326 73.338807 
L 20.005685 73.397311 
L 20.114402 74.272506 
L 20.168761 73.141055 
L 20.22312 74.167315 
L 20.331838 73.6586 
L 20.494915 74.26528 
L 20.549274 73.478699 
L 20.603633 74.279573 
L 20.821069 73.04418 
L 20.929786 73.850468 
L 20.984145 73.780066 
L 21.038504 72.477346 
L 21.092863 73.337228 
L 21.147222 72.791839 
L 21.201581 74.150439 
L 21.25594 73.714198 
L 21.310299 73.713636 
L 21.364658 74.147138 
L 21.419017 73.782399 
L 21.527735 73.660787 
L 21.582094 74.315743 
L 21.636452 73.638626 
L 21.690811 73.466031 
L 21.74517 74.668741 
L 21.799529 74.172534 
L 21.908247 72.236637 
L 21.962606 73.280476 
L 22.071324 74.273157 
L 22.234401 72.723787 
L 22.28876 74.521366 
L 22.343119 73.292581 
L 22.397477 74.423238 
L 22.451836 73.56518 
L 22.560554 72.846952 
L 22.614913 74.561871 
L 22.669272 74.395255 
L 22.832349 72.960639 
L 22.886708 73.535671 
L 22.941067 72.685448 
L 22.995426 72.77757 
L 23.104144 74.273512 
L 23.158502 73.631809 
L 23.26722 73.100512 
L 23.321579 74.023665 
L 23.375938 73.296038 
L 23.430297 73.8466 
L 23.484656 73.809477 
L 23.539015 73.774596 
L 23.593374 72.286999 
L 23.647733 75.162814 
L 23.702092 74.321668 
L 23.81081 72.74607 
L 23.865169 73.981605 
L 23.919527 73.883843 
L 23.973886 73.770843 
L 24.028245 73.378488 
L 24.082604 74.081687 
L 24.191322 72.991891 
L 24.30004 75.294195 
L 24.354399 74.51739 
L 24.517476 72.140422 
L 24.626194 73.977924 
L 24.78927 71.52549 
L 24.952347 73.248691 
L 25.006706 73.368454 
L 25.061065 74.750387 
L 25.115424 73.694427 
L 25.169783 72.808648 
L 25.33286 75.250113 
L 25.387219 75.210429 
L 25.495936 74.855472 
L 25.550295 75.779157 
L 25.713372 72.238157 
L 25.767731 73.411641 
L 25.82209 74.33094 
L 25.930808 72.442252 
L 25.985167 73.58657 
L 26.039526 73.039631 
L 26.093885 71.038417 
L 26.256961 73.897117 
L 26.31132 74.070214 
L 26.420038 72.311581 
L 26.528756 74.777955 
L 26.637474 71.635111 
L 26.691833 73.74604 
L 26.800551 73.731571 
L 26.85491 73.370596 
L 26.909269 74.773504 
L 26.963627 72.915014 
L 27.017986 75.224724 
L 27.072345 71.142547 
L 27.126704 72.066359 
L 27.181063 71.822871 
L 27.289781 74.79628 
L 27.34414 72.259211 
L 27.398499 74.66353 
L 27.561576 71.764733 
L 27.615935 72.445457 
L 27.724652 75.681663 
L 27.779011 73.733778 
L 27.83337 75.820748 
L 27.887729 72.830983 
L 27.942088 74.613088 
L 27.996447 75.042668 
L 28.050806 74.209446 
L 28.105165 75.719255 
L 28.159524 74.695776 
L 28.213883 70.512293 
L 28.268242 72.189551 
L 28.322601 75.825919 
L 28.37696 74.880477 
L 28.485677 75.410324 
L 28.594395 72.566498 
L 28.648754 74.896831 
L 28.811831 71.143017 
L 28.920549 73.45377 
L 28.974908 71.883601 
L 29.083626 75.708844 
L 29.246702 73.965824 
L 29.301061 73.000271 
L 29.35542 75.075205 
L 29.409779 70.256319 
L 29.464138 73.584208 
L 29.518497 76.468064 
L 29.572856 72.141446 
L 29.627215 77.051641 
L 29.681574 74.427353 
L 29.735933 73.185991 
L 29.790292 76.676366 
L 29.844651 71.85623 
L 29.89901 73.189389 
L 29.953369 72.159836 
L 30.062086 77.571669 
L 30.116445 72.474279 
L 30.170804 76.379425 
L 30.333881 74.830186 
L 30.38824 75.073045 
L 30.442599 72.829765 
L 30.496958 73.979875 
L 30.605676 75.532126 
L 30.768752 70.94151 
L 30.823111 70.724946 
L 30.87747 79.158614 
L 30.931829 71.29008 
L 30.986188 72.47033 
L 31.040547 71.65947 
L 31.094906 72.261992 
L 31.149265 76.094602 
L 31.203624 73.808055 
L 31.257983 70.419031 
L 31.312342 74.813774 
L 31.366701 74.508234 
L 31.475419 73.035781 
L 31.529778 73.860267 
L 31.584136 73.078228 
L 31.638495 73.21225 
L 31.692854 72.277461 
L 31.747213 73.182384 
L 31.801572 74.301151 
L 31.855931 73.01932 
L 31.91029 75.660029 
L 31.964649 74.664236 
L 32.019008 74.988477 
L 32.073367 68.593481 
L 32.127726 74.38537 
L 32.182085 74.771085 
L 32.236444 70.729397 
L 32.290803 73.864863 
L 32.39952 72.126534 
L 32.453879 77.287766 
L 32.508238 74.232731 
L 32.562597 72.253537 
L 32.616956 73.74663 
L 32.834392 70.871346 
L 32.888751 78.94955 
L 32.94311 70.826289 
L 33.106186 74.993288 
L 33.214904 70.202818 
L 33.377981 76.333389 
L 33.43234 71.324365 
L 33.486699 71.385506 
L 33.595417 72.086507 
L 33.704135 77.387897 
L 33.758494 70.263214 
L 33.812853 72.645526 
L 33.867211 73.578103 
L 33.92157 69.16537 
L 34.030288 76.543568 
L 34.084647 68.133928 
L 34.139006 69.3291 
L 34.193365 74.79509 
L 34.247724 73.940405 
L 34.519519 70.770436 
L 34.628236 75.140501 
L 34.736954 74.913427 
L 34.845672 70.433949 
L 34.900031 75.066372 
L 34.95439 71.945569 
L 35.063108 77.009751 
L 35.117467 74.718369 
L 35.171826 73.2818 
L 35.226185 76.048798 
L 35.280544 69.682894 
L 35.334903 71.38725 
L 35.389261 75.736529 
L 35.44362 70.285495 
L 35.497979 70.704323 
L 35.552338 74.712833 
L 35.606697 72.877638 
L 35.661056 73.220918 
L 35.715415 73.0767 
L 35.769774 74.679407 
L 35.824133 74.048721 
L 35.878492 72.827542 
L 35.932851 77.29604 
L 35.98721 70.254566 
L 36.041569 73.273769 
L 36.150286 72.145003 
L 36.204645 76.89254 
L 36.259004 73.188291 
L 36.313363 70.271292 
L 36.47644 78.907295 
L 36.530799 77.729535 
L 36.585158 69.146829 
L 36.639517 71.849529 
L 36.693876 69.950809 
L 36.748235 71.418098 
L 36.802594 81.37502 
L 36.856953 75.173327 
L 37.020029 70.357264 
L 37.074388 72.986509 
L 37.128747 72.403705 
L 37.183106 71.665234 
L 37.237465 72.380977 
L 37.291824 76.314975 
L 37.346183 70.967961 
L 37.400542 74.483768 
L 37.50926 76.053807 
L 37.563619 70.702779 
L 37.617978 76.856197 
L 37.781054 68.469148 
L 37.835413 69.23931 
L 37.889772 78.120879 
L 37.944131 74.006396 
L 37.99849 75.337724 
L 38.052849 67.902439 
L 38.107208 71.334178 
L 38.161567 69.258191 
L 38.215926 70.070201 
L 38.270285 69.75328 
L 38.324644 70.96029 
L 38.379003 69.408907 
L 38.433361 70.08226 
L 38.48772 75.200899 
L 38.542079 75.078938 
L 38.596438 74.945701 
L 38.650797 78.835524 
L 38.705156 71.137251 
L 38.759515 72.860794 
L 38.868233 80.09259 
L 39.03131 71.271699 
L 39.194386 77.351656 
L 39.248745 77.543588 
L 39.357463 69.816109 
L 39.411822 71.43255 
L 39.466181 70.803124 
L 39.52054 77.349672 
L 39.574899 72.568515 
L 39.629258 75.52051 
L 39.683617 69.738342 
L 39.737976 72.431859 
L 39.792335 78.827061 
L 39.846694 78.618281 
L 39.955411 70.306772 
L 40.00977 76.091791 
L 40.064129 75.248663 
L 40.118488 74.947469 
L 40.172847 71.354141 
L 40.227206 74.94403 
L 40.281565 78.554037 
L 40.444642 67.364166 
L 40.55336 71.370158 
L 40.607719 78.449064 
L 40.662078 77.658735 
L 40.716436 73.759074 
L 40.770795 77.699405 
L 40.825154 78.701125 
L 40.879513 73.093995 
L 40.933872 76.917967 
L 40.988231 73.553451 
L 41.04259 74.194582 
L 41.096949 74.641255 
L 41.151308 67.44499 
L 41.205667 73.318304 
L 41.260026 73.133144 
L 41.368744 65.958799 
L 41.477461 79.949046 
L 41.53182 77.881041 
L 41.749256 65.009601 
L 41.803615 80.774394 
L 41.857974 69.317465 
L 41.912333 78.851575 
L 41.966692 73.25673 
L 42.021051 70.645996 
L 42.07541 72.600766 
L 42.129769 78.405687 
L 42.184128 73.863176 
L 42.238486 73.312704 
L 42.292845 69.108853 
L 42.401563 76.429112 
L 42.56464 68.5384 
L 42.673358 78.505542 
L 42.727717 74.336071 
L 42.836435 70.337765 
L 42.945153 76.774281 
L 42.999511 81.500336 
L 43.108229 68.449424 
L 43.162588 71.745795 
L 43.271306 78.170181 
L 43.488742 72.995952 
L 43.543101 75.646513 
L 43.59746 71.522221 
L 43.651819 77.826211 
L 43.706178 70.992325 
L 43.760536 73.853431 
L 43.814895 74.654608 
L 43.869254 73.157935 
L 43.923613 76.770173 
L 43.977972 76.129446 
L 44.08669 75.486998 
L 44.141049 69.311013 
L 44.249767 78.993002 
L 44.358485 70.569461 
L 44.412844 79.73435 
L 44.467203 71.508181 
L 44.57592 74.182566 
L 44.684638 67.659253 
L 44.738997 72.237873 
L 44.793356 67.27499 
L 44.902074 81.468045 
L 45.010792 71.042098 
L 45.173869 81.734433 
L 45.228228 73.223082 
L 45.282586 73.521174 
L 45.336945 75.010857 
L 45.391304 73.429468 
L 45.445663 64.879931 
L 45.500022 69.391472 
L 45.554381 69.283157 
L 45.60874 63.864344 
L 45.771817 79.286075 
L 45.934894 71.91023 
L 45.989253 73.360333 
L 46.043611 66.214331 
L 46.09797 73.222783 
L 46.152329 80.039273 
L 46.206688 67.534784 
L 46.261047 78.891109 
L 46.315406 71.131125 
L 46.369765 83.006289 
L 46.424124 69.991974 
L 46.478483 70.76868 
L 46.532842 81.77833 
L 46.587201 77.038898 
L 46.804636 62.524593 
L 47.022072 72.542362 
L 47.13079 83.475674 
L 47.185149 73.479154 
L 47.239508 75.352519 
L 47.293867 77.832846 
L 47.402585 66.676527 
L 47.456944 83.864931 
L 47.511303 69.761603 
L 47.565662 66.249023 
L 47.62002 82.7177 
L 47.674379 81.41534 
L 47.783097 75.290208 
L 47.837456 65.158662 
L 47.891815 74.876974 
L 48.054892 63.279171 
L 48.217969 85.925137 
L 48.272328 75.039435 
L 48.326687 75.388083 
L 48.381045 79.032772 
L 48.544122 68.620446 
L 48.598481 75.455766 
L 48.65284 71.398695 
L 48.707199 72.229672 
L 48.761558 67.783491 
L 48.815917 77.884152 
L 48.870276 74.938358 
L 48.924635 77.418357 
L 48.978994 67.670824 
L 49.033353 73.415605 
L 49.087712 80.475474 
L 49.250788 70.833403 
L 49.305147 68.863076 
L 49.468224 77.762731 
L 49.631301 66.391711 
L 49.68566 78.689271 
L 49.740019 72.136006 
L 49.903095 64.692338 
L 49.957454 79.465042 
L 50.011813 75.647866 
L 50.120531 67.727035 
L 50.229249 82.418236 
L 50.283608 63.428098 
L 50.337967 69.69867 
L 50.501044 76.513109 
L 50.66412 69.136238 
L 50.772838 76.614298 
L 50.827197 70.447052 
L 50.881556 80.562294 
L 50.935915 72.746702 
L 50.990274 66.299455 
L 51.044633 70.25089 
L 51.098992 69.983812 
L 51.20771 72.346169 
L 51.262069 71.20964 
L 51.316428 75.389767 
L 51.370787 74.608035 
L 51.425145 64.939991 
L 51.479504 71.454676 
L 51.588222 78.649888 
L 51.642581 77.003281 
L 51.69694 64.768215 
L 51.751299 65.806606 
L 51.860017 74.00936 
L 51.914376 72.127373 
L 51.968735 70.565025 
L 52.023094 73.853463 
L 52.077453 84.965204 
L 52.131812 72.97119 
L 52.18617 79.394763 
L 52.240529 76.717986 
L 52.294888 66.824668 
L 52.349247 76.328089 
L 52.512324 72.820652 
L 52.566683 61.073827 
L 52.621042 71.645374 
L 52.675401 69.940263 
L 52.72976 72.655149 
L 52.784119 69.056338 
L 52.892837 83.775318 
L 53.055913 64.092019 
L 53.110272 66.445475 
L 53.164631 77.486352 
L 53.21899 68.845288 
L 53.327708 80.71275 
L 53.382067 76.354215 
L 53.436426 74.68835 
L 53.490785 84.741527 
L 53.545144 69.0838 
L 53.599503 74.43616 
L 53.70822 73.90592 
L 53.762579 78.926313 
L 53.816938 77.954597 
L 53.871297 71.077513 
L 53.925656 81.268415 
L 53.980015 75.009654 
L 54.034374 65.795676 
L 54.088733 81.81632 
L 54.143092 70.316348 
L 54.197451 74.923061 
L 54.25181 66.834854 
L 54.306169 74.963825 
L 54.469245 80.240553 
L 54.523604 66.011826 
L 54.577963 76.529148 
L 54.632322 74.887248 
L 54.686681 86.927418 
L 54.74104 82.302277 
L 54.904117 68.677093 
L 54.958476 80.490613 
L 55.012835 67.342228 
L 55.067194 81.486292 
L 55.121553 63.311282 
L 55.175912 81.115918 
L 55.338988 72.822319 
L 55.502065 77.33243 
L 55.556424 75.997376 
L 55.610783 77.593552 
L 55.665142 70.714479 
L 55.77386 82.34694 
L 55.828219 82.057214 
L 55.882578 84.12559 
L 55.936937 70.622159 
L 55.991295 75.807521 
L 56.045654 76.107483 
L 56.100013 77.673143 
L 56.154372 69.69139 
L 56.208731 74.987115 
L 56.26309 74.456755 
L 56.371808 55.906554 
L 56.426167 58.18301 
L 56.589244 73.378037 
L 56.643603 82.017361 
L 56.697962 63.055876 
L 56.75232 71.756525 
L 56.915397 82.432501 
L 56.969756 65.112156 
L 57.024115 77.08222 
L 57.132833 71.025398 
L 57.187192 76.982811 
L 57.241551 68.620185 
L 57.29591 68.731848 
L 57.350269 70.258304 
L 57.404628 68.950639 
L 57.458987 67.826679 
L 57.513345 63.613658 
L 57.676422 83.976278 
L 57.839499 60.167807 
L 57.893858 62.239255 
L 57.948217 73.501538 
L 58.002576 68.015204 
L 58.056935 58.091728 
L 58.165653 79.79778 
L 58.220012 73.104298 
L 58.27437 85.433629 
L 58.328729 81.414712 
L 58.383088 75.417969 
L 58.437447 83.959196 
L 58.491806 76.029877 
L 58.546165 70.955388 
L 58.600524 72.123328 
L 58.654883 79.240946 
L 58.709242 69.632084 
L 58.872319 89.1023 
L 58.926678 77.293632 
L 58.981037 82.413726 
L 59.035395 83.601691 
L 59.089754 60.959903 
L 59.144113 65.512695 
L 59.198472 76.268564 
L 59.252831 75.752352 
L 59.30719 73.700037 
L 59.361549 61.300939 
L 59.415908 66.828616 
L 59.470267 81.949321 
L 59.524626 71.54786 
L 59.578985 76.479335 
L 59.633344 67.034888 
L 59.687703 81.560713 
L 59.742062 80.633003 
L 59.79642 68.276014 
L 59.850779 70.871375 
L 60.013856 84.503798 
L 60.122574 69.387061 
L 60.176933 84.568715 
L 60.231292 83.183474 
L 60.34001 64.265965 
L 60.503087 86.983075 
L 60.611804 76.967144 
L 60.666163 92.834141 
L 60.720522 63.216806 
L 60.774881 88.996361 
L 60.883599 62.75691 
L 60.937958 71.724183 
L 60.992317 83.089638 
L 61.046676 67.666144 
L 61.101035 76.916859 
L 61.155394 72.497891 
L 61.209753 82.039346 
L 61.264112 77.141507 
L 61.31847 72.463383 
L 61.372829 79.906472 
L 61.535906 58.219862 
L 61.590265 61.071557 
L 61.753342 88.77503 
L 62.025137 60.989606 
L 62.079495 88.433731 
L 62.133854 85.463313 
L 62.242572 65.805856 
L 62.296931 90.980468 
L 62.35129 78.74154 
L 62.405649 65.418404 
L 62.460008 66.744465 
L 62.514367 69.093541 
L 62.568726 79.891821 
L 62.623085 72.731979 
L 62.677444 54.164685 
L 62.84052 88.275652 
L 62.894879 70.673942 
L 62.949238 85.553626 
L 63.112315 65.207014 
L 63.221033 79.282229 
L 63.275392 67.927457 
L 63.329751 73.033853 
L 63.38411 80.607926 
L 63.438469 62.129193 
L 63.492828 78.081093 
L 63.547187 71.530057 
L 63.710263 80.60574 
L 63.818981 72.558823 
L 63.87334 75.929165 
L 63.927699 79.219949 
L 63.982058 65.636414 
L 64.090776 84.401866 
L 64.199494 69.162929 
L 64.253853 72.145147 
L 64.308212 70.338308 
L 64.362571 77.366535 
L 64.416929 69.942654 
L 64.471288 87.394223 
L 64.525647 86.42129 
L 64.580006 55.013063 
L 64.634365 79.202026 
L 64.743083 73.380692 
L 64.797442 87.000085 
L 64.851801 73.905875 
L 64.960519 87.318615 
L 65.069237 66.459043 
L 65.177954 78.92239 
L 65.232313 78.688074 
L 65.341031 60.714943 
L 65.39539 77.643955 
L 65.449749 71.245451 
L 65.504108 56.16434 
L 65.558467 59.501113 
L 65.775903 85.075343 
L 65.830262 69.854501 
L 65.884621 72.901009 
L 65.938979 76.174991 
L 66.047697 65.227462 
L 66.156415 80.67006 
L 66.210774 60.484721 
L 66.265133 85.177984 
L 66.319492 59.521406 
L 66.42821 83.10932 
L 66.482569 60.442293 
L 66.536928 67.493317 
L 66.591287 89.033173 
L 66.645646 74.216903 
L 66.700004 74.050734 
L 66.754363 77.737985 
L 66.808722 72.033782 
L 66.863081 85.530063 
L 66.91744 73.077068 
L 66.971799 73.946793 
L 67.026158 76.850092 
L 67.080517 75.281491 
L 67.189235 77.854955 
L 67.243594 83.98636 
L 67.297953 81.457465 
L 67.352312 73.758637 
L 67.406671 84.922316 
L 67.515388 85.033237 
L 67.569747 61.943428 
L 67.678465 91.734598 
L 67.732824 85.334511 
L 67.787183 66.900319 
L 67.841542 76.411244 
L 67.895901 71.78294 
L 67.95026 76.718258 
L 68.004619 68.809912 
L 68.058978 83.443774 
L 68.113337 69.925542 
L 68.276413 83.65651 
L 68.493849 56.066793 
L 68.656926 75.289834 
L 68.711285 76.211121 
L 68.820003 58.910891 
L 68.874362 84.212355 
L 68.928721 69.775175 
L 68.983079 59.7726 
L 69.037438 79.788271 
L 69.091797 65.515415 
L 69.146156 72.004401 
L 69.200515 56.788618 
L 69.363592 100.241132 
L 69.417951 52.850786 
L 69.47231 62.26724 
L 69.635387 81.770518 
L 69.744104 55.76948 
L 69.798463 64.509737 
L 69.907181 73.071931 
L 70.070258 89.890399 
L 70.178976 48.371706 
L 70.342053 103.542999 
L 70.396412 48.502282 
L 70.450771 72.784754 
L 70.505129 73.51664 
L 70.613847 86.885752 
L 70.722565 68.700645 
L 70.776924 79.138162 
L 70.831283 76.285219 
L 70.885642 55.637752 
L 70.940001 90.545245 
L 70.99436 63.510077 
L 71.048719 62.907193 
L 71.103078 86.640123 
L 71.157437 71.061179 
L 71.211796 70.364284 
L 71.266154 90.871749 
L 71.320513 73.81218 
L 71.374872 75.015535 
L 71.429231 90.685542 
L 71.48359 65.174051 
L 71.537949 87.886106 
L 71.646667 76.377245 
L 71.809744 52.033337 
L 71.972821 81.192958 
L 72.027179 68.08635 
L 72.081538 83.345821 
L 72.135897 71.446275 
L 72.190256 72.549123 
L 72.244615 60.165015 
L 72.353333 100.609021 
L 72.407692 55.948498 
L 72.462051 64.576486 
L 72.51641 65.637954 
L 72.570769 64.538407 
L 72.733846 82.225857 
L 72.788204 80.354646 
L 72.842563 53.195523 
L 72.896922 66.931389 
L 72.951281 77.680908 
L 73.00564 73.111624 
L 73.059999 71.714667 
L 73.114358 87.010968 
L 73.223076 56.711885 
L 73.277435 102.092505 
L 73.331794 84.500079 
L 73.494871 58.682147 
L 73.712306 83.210322 
L 73.766665 54.833896 
L 73.821024 72.819727 
L 73.929742 54.475726 
L 73.984101 77.758201 
L 74.03846 72.331508 
L 74.092819 44.651515 
L 74.255896 94.209711 
L 74.473331 67.951003 
L 74.52769 94.873975 
L 74.582049 72.625277 
L 74.636408 91.348737 
L 74.745126 57.537503 
L 74.799485 81.038195 
L 74.853844 74.165142 
L 74.908203 66.990334 
L 74.962562 68.897599 
L 75.016921 69.63351 
L 75.071279 80.213227 
L 75.125638 56.698505 
L 75.179997 85.867555 
L 75.234356 52.561805 
L 75.288715 76.548294 
L 75.343074 73.630822 
L 75.397433 60.601131 
L 75.56051 95.60772 
L 75.723587 65.536859 
L 75.832304 86.768179 
L 75.941022 66.636499 
L 75.995381 94.599098 
L 76.04974 60.481703 
L 76.104099 76.142876 
L 76.212817 65.556879 
L 76.267176 80.503346 
L 76.321535 75.568532 
L 76.375894 78.069652 
L 76.430253 71.58983 
L 76.484612 47.627732 
L 76.647688 95.879955 
L 76.810765 72.88224 
L 76.919483 64.633781 
L 76.973842 90.113125 
L 77.028201 61.813536 
L 77.08256 69.626193 
L 77.136919 93.413614 
L 77.191278 92.802204 
L 77.245637 84.637457 
L 77.299996 55.208125 
L 77.354354 68.527524 
L 77.408713 63.303544 
L 77.463072 72.201124 
L 77.517431 52.577344 
L 77.57179 90.645424 
L 77.626149 79.431244 
L 77.680508 76.771918 
L 77.897944 55.607412 
L 77.952303 92.738049 
L 78.006662 76.334109 
L 78.061021 65.706914 
L 78.115379 71.263011 
L 78.169738 93.658884 
L 78.224097 86.104973 
L 78.332815 84.148886 
L 78.495892 72.414567 
L 78.550251 94.586407 
L 78.60461 61.318345 
L 78.658969 83.67769 
L 78.767687 58.655087 
L 78.876404 84.226854 
L 78.930763 61.442262 
L 78.985122 70.591588 
L 79.039481 100.920106 
L 79.09384 84.254714 
L 79.148199 68.200465 
L 79.202558 71.238545 
L 79.256917 76.736032 
L 79.311276 58.333933 
L 79.365635 69.315088 
L 79.419994 65.599961 
L 79.474353 67.951452 
L 79.528712 85.19954 
L 79.583071 48.977712 
L 79.637429 69.574887 
L 79.691788 55.347505 
L 79.800506 94.766217 
L 79.909224 63.665358 
L 79.963583 86.983646 
L 80.017942 72.458332 
L 80.072301 67.205165 
L 80.235378 88.524962 
L 80.289737 79.357189 
L 80.344096 44.122572 
L 80.398455 96.096012 
L 80.452813 61.16281 
L 80.561531 95.06784 
L 80.61589 72.157016 
L 80.670249 72.198133 
L 80.833326 86.15893 
L 80.996403 62.374609 
L 81.105121 74.374971 
L 81.15948 69.466941 
L 81.213838 74.622137 
L 81.268197 95.929027 
L 81.322556 65.942577 
L 81.376915 72.755771 
L 81.485633 79.060423 
L 81.594351 38.815228 
L 81.757428 89.935357 
L 81.811787 88.816851 
L 81.974863 50.07507 
L 82.13794 80.231501 
L 82.192299 64.36884 
L 82.246658 96.339439 
L 82.301017 77.525867 
L 82.355376 59.823122 
L 82.409735 64.133273 
L 82.464094 64.142015 
L 82.627171 91.419414 
L 82.790247 52.643169 
L 82.844606 77.152058 
L 82.898965 71.340267 
L 82.953324 65.495249 
L 83.007683 80.433462 
L 83.062042 67.691679 
L 83.116401 53.564958 
L 83.279478 100.198941 
L 83.333837 98.921789 
L 83.551272 64.958629 
L 83.65999 98.634687 
L 83.714349 60.881457 
L 83.768708 98.284545 
L 84.040503 58.169319 
L 84.20358 83.343794 
L 84.257938 56.427394 
L 84.312297 76.426571 
L 84.366656 58.391954 
L 84.529733 109.992308 
L 84.638451 76.975646 
L 84.69281 80.655212 
L 84.855887 97.528446 
L 85.018963 58.803425 
L 85.18204 87.646324 
L 85.399476 56.402795 
L 85.453835 86.355456 
L 85.508194 52.904101 
L 85.562553 90.812657 
L 85.616912 51.451954 
L 85.72563 74.571518 
L 85.779988 65.877227 
L 85.888706 86.495941 
L 85.943065 70.40462 
L 85.997424 79.895765 
L 86.051783 83.460888 
L 86.160501 63.258806 
L 86.269219 68.805827 
L 86.377937 105.330639 
L 86.432296 74.875267 
L 86.486655 102.911402 
L 86.595372 62.229088 
L 86.649731 79.338775 
L 86.70409 100.918281 
L 86.758449 68.379162 
L 86.867167 69.489581 
L 86.921526 78.452757 
L 86.975885 53.658826 
L 87.030244 67.054978 
L 87.084603 72.629036 
L 87.138962 64.678606 
L 87.356397 117.127983 
L 87.410756 64.245636 
L 87.465115 65.766851 
L 87.573833 89.828169 
L 87.628192 63.476066 
L 87.682551 81.687212 
L 87.73691 74.472203 
L 87.845628 39.907257 
L 87.954346 90.821086 
L 88.008705 67.800321 
L 88.117422 88.02189 
L 88.22614 66.181098 
L 88.280499 84.814699 
L 88.334858 60.808852 
L 88.443576 99.931668 
L 88.661012 51.952014 
L 88.715371 93.748528 
L 88.76973 73.58444 
L 88.824088 69.884822 
L 88.932806 88.43171 
L 89.041524 66.803656 
L 89.150242 96.256092 
L 89.204601 57.383301 
L 89.25896 71.881812 
L 89.313319 72.448774 
L 89.367678 90.913898 
L 89.422037 61.081788 
L 89.476396 76.751614 
L 89.530755 79.852711 
L 89.585113 74.603047 
L 89.639472 53.337256 
L 89.693831 101.156591 
L 89.74819 77.164824 
L 89.856908 83.629581 
L 90.019985 50.774449 
L 90.183062 81.202558 
L 90.29178 63.468951 
L 90.346138 89.40048 
L 90.454856 53.241653 
L 90.509215 98.400162 
L 90.563574 78.876912 
L 90.617933 72.984027 
L 90.672292 87.033394 
L 90.78101 53.678049 
L 90.944087 96.545276 
L 90.998446 86.925975 
L 91.107163 72.617311 
L 91.161522 106.442809 
L 91.27024 54.937873 
L 91.324599 62.495925 
L 91.378958 92.425205 
L 91.433317 74.089903 
L 91.487676 73.855105 
L 91.542035 94.419764 
L 91.596394 52.065561 
L 91.650753 81.512027 
L 91.705112 62.208332 
L 91.759471 68.021461 
L 91.81383 70.799247 
L 91.868188 52.241571 
L 92.031265 103.372588 
L 92.248701 51.805633 
L 92.411778 110.291766 
L 92.574855 80.409782 
L 92.629213 54.374117 
L 92.683572 73.783612 
L 92.737931 80.777535 
L 92.79229 77.595596 
L 92.846649 78.084363 
L 92.901008 85.597764 
L 92.955367 56.805946 
L 93.009726 102.090107 
L 93.064085 91.814008 
L 93.33588 24.698396 
L 93.390238 38.282688 
L 93.444597 99.179241 
L 93.498956 63.423182 
L 93.553315 89.030698 
L 93.607674 50.184288 
L 93.662033 62.894988 
L 93.770751 90.770506 
L 93.82511 62.136577 
L 93.879469 62.578991 
L 93.988187 79.968774 
L 94.042546 58.314775 
L 94.096905 82.835162 
L 94.151263 72.210897 
L 94.259981 83.527615 
L 94.423058 22.398667 
L 94.531776 89.996472 
L 94.586135 44.940552 
L 94.640494 58.50179 
L 94.749212 88.268534 
L 94.803571 61.191563 
L 94.85793 74.146505 
L 94.912288 76.547586 
L 94.966647 95.719654 
L 95.021006 90.998294 
L 95.075365 91.980362 
L 95.129724 68.144564 
L 95.184083 71.4796 
L 95.34716 93.780715 
L 95.401519 69.849469 
L 95.455878 95.886515 
L 95.510237 84.471406 
L 95.564596 56.302957 
L 95.618955 72.239049 
L 95.673313 69.617946 
L 95.727672 108.777652 
L 95.782031 72.822507 
L 95.83639 82.276402 
L 95.890749 38.746498 
L 95.945108 82.950298 
L 95.999467 60.8114 
L 96.053826 77.203772 
L 96.108185 87.527989 
L 96.162544 80.16312 
L 96.216903 62.147976 
L 96.271262 77.070168 
L 96.37998 96.71348 
L 96.488697 46.792571 
L 96.597415 76.658298 
L 96.651774 71.533808 
L 96.706133 50.700993 
L 96.760492 55.206973 
L 96.814851 91.910407 
L 96.86921 29.180017 
L 96.923569 55.591069 
L 97.141005 92.457378 
L 97.249722 46.787079 
L 97.304081 82.781887 
L 97.35844 25.023454 
L 97.412799 76.828315 
L 97.467158 84.502807 
L 97.521517 79.56536 
L 97.575876 20.355358 
L 97.630235 51.391292 
L 97.684594 97.515322 
L 97.738953 78.996391 
L 97.793312 62.112574 
L 97.90203 106.376187 
L 98.065106 50.809002 
L 98.119465 47.742304 
L 98.228183 87.592213 
L 98.336901 84.768289 
L 98.445619 45.213217 
L 98.499978 107.787717 
L 98.554337 94.443727 
L 98.608696 89.870901 
L 98.717414 71.4801 
L 98.771772 107.607547 
L 98.826131 88.969047 
L 98.88049 67.201106 
L 98.934849 76.323088 
L 98.989208 92.43743 
L 99.043567 62.822495 
L 99.097926 98.197434 
L 99.152285 75.833514 
L 99.206644 61.988609 
L 99.261003 81.514478 
L 99.315362 80.003988 
L 99.369721 77.655059 
L 99.42408 90.176246 
L 99.478439 63.580827 
L 99.532797 90.520088 
L 99.641515 64.254522 
L 99.695874 88.611189 
L 99.750233 73.036919 
L 99.804592 26.031835 
L 99.858951 87.190979 
L 99.91331 45.999532 
L 100.076387 82.02513 
L 100.130746 49.812929 
L 100.185105 56.771305 
L 100.293822 76.288251 
L 100.456899 54.871633 
L 100.565617 111.5397 
L 100.619976 87.71118 
L 100.674335 76.381627 
L 100.728694 91.701663 
L 100.783053 67.722684 
L 100.837412 75.830626 
L 100.891771 76.875599 
L 100.94613 57.804899 
L 101.000489 97.276064 
L 101.054847 81.60949 
L 101.109206 63.359248 
L 101.163565 78.756652 
L 101.217924 84.11886 
L 101.381001 33.280879 
L 101.43536 97.269436 
L 101.489719 81.351445 
L 101.544078 72.310252 
L 101.598437 112.785544 
L 101.707155 47.39159 
L 101.761514 99.612643 
L 101.815872 38.839369 
L 101.870231 72.943932 
L 101.92459 69.140564 
L 101.978949 31.921208 
L 102.142026 112.38274 
L 102.305103 38.386839 
L 102.359462 72.848717 
L 102.413821 72.816264 
L 102.46818 68.89092 
L 102.522539 79.151376 
L 102.576897 50.327826 
L 102.739974 90.68846 
L 102.903051 44.819297 
L 103.011769 95.983693 
L 103.066128 87.585407 
L 103.120487 74.853205 
L 103.174846 80.601697 
L 103.337922 104.037375 
L 103.392281 77.482131 
L 103.44664 91.975204 
L 103.500999 102.544144 
L 103.555358 56.291109 
L 103.609717 92.166918 
L 103.718435 66.199429 
L 103.772794 92.322192 
L 103.827153 69.70333 
L 103.99023 105.216877 
L 104.098947 66.600909 
L 104.153306 93.114858 
L 104.207665 86.591389 
L 104.262024 87.491098 
L 104.316383 44.30414 
L 104.370742 88.033271 
L 104.425101 109.333147 
L 104.47946 62.175423 
L 104.533819 86.888401 
L 104.696896 62.060273 
L 104.805614 84.557686 
L 104.859972 78.335974 
L 105.023049 44.330524 
L 105.186126 121.52001 
L 105.294844 84.28294 
L 105.349203 97.367401 
L 105.403562 57.278664 
L 105.457921 66.001488 
L 105.566639 86.651773 
L 105.620997 58.338305 
L 105.675356 66.387175 
L 105.784074 73.20626 
L 105.838433 101.626113 
L 105.892792 74.813446 
L 106.00151 86.252554 
L 106.055869 50.417317 
L 106.110228 74.803591 
L 106.273305 96.90086 
L 106.327664 117.04415 
L 106.382022 55.981016 
L 106.49074 56.894621 
L 106.599458 91.585891 
L 106.762535 62.037256 
L 106.816894 58.28184 
L 106.925612 80.28091 
L 106.979971 59.447365 
L 107.03433 74.523261 
L 107.088689 106.780778 
L 107.143047 98.15217 
L 107.251765 80.594815 
L 107.306124 44.263254 
L 107.360483 63.697259 
L 107.414842 50.902195 
L 107.577919 82.239333 
L 107.686637 98.275644 
L 107.795355 75.159462 
L 107.849714 97.973096 
L 107.904072 67.562761 
L 107.958431 90.541971 
L 108.01279 108.339325 
L 108.067149 80.998598 
L 108.121508 104.1702 
L 108.338944 59.38198 
L 108.393303 64.519668 
L 108.447662 58.00441 
L 108.610739 76.875866 
L 108.665097 86.189489 
L 108.719456 50.774208 
L 108.773815 75.621199 
L 108.828174 54.902332 
L 108.882533 81.19746 
L 108.936892 75.598363 
L 108.991251 33.746668 
L 109.04561 104.073073 
L 109.099969 69.482936 
L 109.154328 87.542613 
L 109.208687 83.145855 
L 109.317405 35.154514 
L 109.426122 101.879465 
L 109.480481 94.298807 
L 109.53484 88.52497 
L 109.589199 55.202006 
L 109.643558 66.365522 
L 109.697917 109.549588 
L 109.752276 85.68263 
L 109.860994 73.822129 
L 109.915353 91.052176 
L 109.969712 63.667496 
L 110.024071 67.012638 
L 110.07843 111.944608 
L 110.132789 60.749213 
L 110.187147 61.181879 
L 110.295865 95.716682 
L 110.404583 29.615658 
L 110.458942 98.195291 
L 110.513301 74.514581 
L 110.676378 54.980028 
L 110.730737 85.868151 
L 110.785096 71.949494 
L 110.839455 77.666299 
L 110.893814 108.297279 
L 111.05689 57.997499 
L 111.111249 115.150652 
L 111.165608 56.965197 
L 111.219967 64.277273 
L 111.274326 94.213595 
L 111.328685 87.827608 
L 111.437403 64.565926 
L 111.60048 80.730278 
L 111.709197 52.334606 
L 111.763556 89.093055 
L 111.817915 85.139995 
L 111.980992 62.835446 
L 112.035351 57.62056 
L 112.08971 72.739834 
L 112.144069 26.798916 
L 112.198428 104.630802 
L 112.252787 76.695595 
L 112.307146 82.656612 
L 112.361505 79.928037 
L 112.415864 53.174697 
L 112.470222 61.484843 
L 112.524581 74.481211 
L 112.57894 63.736281 
L 112.633299 66.229915 
L 112.687658 57.276503 
L 112.742017 77.747404 
L 112.796376 43.305107 
L 112.850735 65.966586 
L 112.959453 89.157292 
L 113.12253 54.457719 
L 113.285606 47.484317 
L 113.394324 91.779661 
L 113.448683 79.305912 
L 113.503042 65.32754 
L 113.557401 97.983701 
L 113.61176 77.86538 
L 113.720478 67.469089 
L 113.883555 94.288678 
L 113.937914 35.307231 
L 113.992273 79.48254 
L 114.046631 75.149451 
L 114.10099 104.272767 
L 114.155349 68.824387 
L 114.209708 106.334372 
L 114.264067 77.245261 
L 114.318426 78.402199 
L 114.372785 94.958728 
L 114.427144 83.732692 
L 114.535862 55.542141 
L 114.590221 72.649982 
L 114.64458 92.540214 
L 114.698939 84.566568 
L 114.807656 52.874847 
L 114.916374 60.066872 
L 114.970733 89.491467 
L 115.025092 66.046174 
L 115.079451 67.541307 
L 115.13381 121.417679 
L 115.188169 32.094377 
L 115.242528 52.030424 
L 115.296887 58.666782 
L 115.351246 94.732464 
L 115.405605 62.478129 
L 115.459964 71.107679 
L 115.568681 119.376925 
L 115.677399 66.46771 
L 115.731758 86.224154 
L 115.786117 66.881258 
L 115.840476 77.560429 
L 115.894835 113.918969 
L 116.057912 49.857886 
L 116.16663 125.79195 
L 116.220989 89.007362 
L 116.275348 45.715919 
L 116.329706 70.304294 
L 116.438424 55.032869 
L 116.492783 74.318772 
L 116.547142 51.724591 
L 116.601501 65.424723 
L 116.65586 65.478898 
L 116.710219 61.44497 
L 116.764578 95.614135 
L 116.818937 67.155235 
L 116.873296 91.394607 
L 116.927655 62.139161 
L 116.982014 88.625832 
L 117.036373 75.810145 
L 117.090731 101.829096 
L 117.14509 50.772744 
L 117.199449 81.521408 
L 117.253808 59.670613 
L 117.308167 66.4733 
L 117.362526 79.62695 
L 117.416885 76.580804 
L 117.471244 74.829788 
L 117.634321 90.558492 
L 117.851756 50.446382 
L 117.906115 101.435238 
L 117.960474 66.960598 
L 118.014833 76.082827 
L 118.069192 49.436645 
L 118.123551 88.258103 
L 118.17791 76.110109 
L 118.232269 64.38674 
L 118.286628 90.425001 
L 118.340987 66.314989 
L 118.395346 62.411736 
L 118.558423 91.573926 
L 118.612781 53.48324 
L 118.66714 84.121146 
L 118.721499 83.301288 
L 118.775858 123.708344 
L 118.830217 90.076008 
L 118.884576 51.194816 
L 118.938935 77.208642 
L 118.993294 105.251515 
L 119.047653 84.687058 
L 119.102012 77.539884 
L 119.156371 91.673451 
L 119.265089 40.501202 
L 119.428165 94.381906 
L 119.536883 51.046675 
L 119.591242 89.361671 
L 119.645601 74.721941 
L 119.69996 56.225371 
L 119.754319 79.155398 
L 119.863037 27.831079 
L 119.917396 85.797006 
L 119.971755 51.308225 
L 120.080473 83.553491 
L 120.134831 100.341629 
L 120.18919 90.215054 
L 120.352267 61.62073 
L 120.406626 84.326265 
L 120.460985 77.488072 
L 120.569703 71.887227 
L 120.624062 123.485139 
L 120.787139 55.5314 
L 120.841498 57.948312 
L 120.895856 44.950247 
L 120.950215 92.903057 
L 121.004574 71.655318 
L 121.058933 81.746096 
L 121.22201 59.496611 
L 121.276369 95.847811 
L 121.330728 45.014687 
L 121.439446 45.611198 
L 121.602523 80.39258 
L 121.656881 97.269217 
L 121.71124 94.23622 
L 121.765599 37.625152 
L 121.819958 119.152295 
L 121.874317 87.517736 
L 121.928676 94.94146 
L 122.091753 63.315778 
L 122.146112 96.368977 
L 122.309189 51.294004 
L 122.417906 71.720163 
L 122.472265 45.891853 
L 122.526624 82.798054 
L 122.580983 73.001737 
L 122.689701 86.9162 
L 122.798419 54.132843 
L 122.852778 78.398754 
L 122.907137 68.012725 
L 123.015855 62.642322 
L 123.070214 68.821778 
L 123.178931 58.86955 
L 123.287649 81.32985 
L 123.342008 49.113455 
L 123.505085 105.151524 
L 123.559444 81.857088 
L 123.613803 86.506729 
L 123.77688 121.674401 
L 123.831239 68.75411 
L 123.885598 84.662361 
L 123.939956 71.52968 
L 123.994315 80.943199 
L 124.048674 78.456995 
L 124.103033 29.813003 
L 124.157392 88.806211 
L 124.211751 77.505173 
L 124.320469 43.120061 
L 124.374828 101.352952 
L 124.429187 73.403104 
L 124.483546 73.228277 
L 124.646623 91.580812 
L 124.75534 62.895965 
L 124.809699 73.14342 
L 124.972776 105.383763 
L 125.027135 45.500638 
L 125.081494 78.803661 
L 125.135853 76.029947 
L 125.190212 100.338319 
L 125.244571 78.50624 
L 125.353289 101.647964 
L 125.407648 52.098198 
L 125.462006 85.777457 
L 125.516365 56.591422 
L 125.679442 113.262587 
L 125.842519 67.200045 
L 125.951237 92.225074 
L 126.059955 53.619821 
L 126.114314 62.868269 
L 126.168673 84.035897 
L 126.223031 63.830127 
L 126.27739 69.100638 
L 126.331749 92.572776 
L 126.386108 82.963583 
L 126.494826 67.786411 
L 126.549185 84.946978 
L 126.603544 74.478758 
L 126.657903 73.432304 
L 126.712262 66.444146 
L 126.766621 68.766661 
L 126.875339 110.580924 
L 126.929698 39.300894 
L 126.984056 61.452099 
L 127.038415 91.33494 
L 127.092774 86.775563 
L 127.147133 63.825862 
L 127.201492 64.449618 
L 127.364569 90.640802 
L 127.418928 68.086794 
L 127.473287 77.439901 
L 127.582005 122.328548 
L 127.636364 77.572113 
L 127.636364 77.572113 
" clip-path="url(#p379df455e4)" style="fill: none; stroke: #fc8d62; stroke-width: 1.5; stroke-linecap: square"/>
   </g>
   <g id="patch_3">
    <path d="M 10.8 133.2 
L 10.8 10.8 
" style="fill: none; stroke: #000000; stroke-width: 0.8; stroke-linejoin: miter; stroke-linecap: square"/>
   </g>
   <g id="patch_4">
    <path d="M 133.2 133.2 
L 133.2 10.8 
" style="fill: none; stroke: #000000; stroke-width: 0.8; stroke-linejoin: miter; stroke-linecap: square"/>
   </g>
   <g id="patch_5">
    <path d="M 10.8 133.2 
L 133.2 133.2 
" style="fill: none; stroke: #000000; stroke-width: 0.8; stroke-linejoin: miter; stroke-linecap: square"/>
   </g>
   <g id="patch_6">
    <path d="M 10.8 10.8 
L 133.2 10.8 
" style="fill: none; stroke: #000000; stroke-width: 0.8; stroke-linejoin: miter; stroke-linecap: square"/>
   </g>
  </g>
 </g>
 <defs>
  <clipPath id="p379df455e4">
   <rect x="10.8" y="10.8" width="122.4" height="122.4"/>
  </clipPath>
 </defs>
</svg>
