<?xml version="1.0" encoding="utf-8" standalone="no"?>
<!DOCTYPE svg PUBLIC "-//W3C//DTD SVG 1.1//EN"
  "http://www.w3.org/Graphics/SVG/1.1/DTD/svg11.dtd">
<svg xmlns:xlink="http://www.w3.org/1999/xlink" width="144pt" height="144pt" viewBox="0 0 144 144" xmlns="http://www.w3.org/2000/svg" version="1.1">
 <metadata>
  <rdf:RDF xmlns:dc="http://purl.org/dc/elements/1.1/" xmlns:cc="http://creativecommons.org/ns#" xmlns:rdf="http://www.w3.org/1999/02/22-rdf-syntax-ns#">
   <cc:Work>
    <dc:type rdf:resource="http://purl.org/dc/dcmitype/StillImage"/>
    <dc:date>2025-02-11T14:44:00.430229</dc:date>
    <dc:format>image/svg+xml</dc:format>
    <dc:creator>
     <cc:Agent>
      <dc:title>Matplotlib v3.8.0, https://matplotlib.org/</dc:title>
     </cc:Agent>
    </dc:creator>
   </cc:Work>
  </rdf:RDF>
 </metadata>
 <defs>
  <style type="text/css">*{stroke-linejoin: round; stroke-linecap: butt}</style>
 </defs>
 <g id="figure_1">
  <g id="patch_1">
   <path d="M 0 144 
L 144 144 
L 144 0 
L 0 0 
L 0 144 
z
" style="fill: none"/>
  </g>
  <g id="axes_1">
   <g id="patch_2">
    <path d="M 10.8 133.2 
L 133.2 133.2 
L 133.2 10.8 
L 10.8 10.8 
L 10.8 133.2 
z
" style="fill: none"/>
   </g>
   <g id="matplotlib.axis_1"/>
   <g id="matplotlib.axis_2"/>
   <g id="line2d_1">
    <path d="M 16.363636 78.833859 
L 23.104144 78.798177 
L 23.158502 78.970724 
L 23.212861 78.878456 
L 23.375938 78.737945 
L 23.484656 78.885252 
L 23.539015 78.833071 
L 23.702092 78.839442 
L 23.865169 78.721657 
L 23.919527 78.892463 
L 23.973886 78.822911 
L 24.028245 78.855598 
L 24.082604 78.741882 
L 24.136963 78.863194 
L 24.408758 78.915195 
L 24.463117 78.758101 
L 24.517476 78.877931 
L 24.680552 78.874473 
L 24.897988 78.982549 
L 24.952347 78.800748 
L 25.006706 78.911066 
L 25.224142 78.754459 
L 25.387219 78.873472 
L 25.550295 78.79755 
L 25.604654 78.862473 
L 25.659013 78.808461 
L 25.713372 78.747836 
L 25.767731 78.874476 
L 25.82209 78.802515 
L 25.930808 78.861048 
L 26.093885 78.765001 
L 26.256961 78.940738 
L 26.31132 79.003315 
L 26.474397 78.685699 
L 26.691833 78.962823 
L 26.746192 78.642331 
L 26.800551 78.891722 
L 26.963627 78.798532 
L 27.670294 78.807948 
L 27.724652 78.68234 
L 27.779011 78.862781 
L 27.83337 78.795488 
L 28.213883 78.703272 
L 28.268242 78.932884 
L 28.322601 78.833248 
L 28.594395 78.800268 
L 28.757472 78.738321 
L 28.86619 78.968447 
L 28.974908 78.81019 
L 29.029267 79.005874 
L 29.083626 78.63824 
L 29.137985 78.920531 
L 29.192344 78.901803 
L 29.35542 78.624076 
L 29.572856 78.898167 
L 29.627215 78.815939 
L 29.681574 78.97873 
L 29.735933 78.937956 
L 29.790292 78.934151 
L 29.844651 78.706121 
L 29.89901 78.877218 
L 29.953369 78.936014 
L 30.007727 78.596028 
L 30.062086 78.978878 
L 30.116445 78.89402 
L 30.225163 78.726273 
L 30.442599 78.87571 
L 30.551317 78.978075 
L 30.714394 78.863668 
L 30.768752 78.868278 
L 30.931829 78.722553 
L 31.257983 78.999325 
L 31.312342 78.71904 
L 31.366701 78.833816 
L 31.42106 78.967252 
L 31.475419 78.83489 
L 31.801572 78.76518 
L 31.855931 78.973262 
L 31.91029 78.808029 
L 31.964649 78.859015 
L 32.019008 79.138431 
L 32.073367 78.944605 
L 32.290803 78.74455 
L 32.345161 78.715295 
L 32.39952 78.91078 
L 32.453879 78.806511 
L 32.508238 78.853856 
L 32.562597 78.606221 
L 32.725674 78.939274 
L 32.888751 78.6248 
L 33.051828 78.985125 
L 33.160545 78.925403 
L 33.214904 78.921874 
L 33.269263 79.102519 
L 33.323622 78.779587 
L 33.377981 78.836021 
L 33.486699 78.928235 
L 33.704135 78.798319 
L 33.812853 78.781643 
L 33.867211 78.64856 
L 33.975929 79.125636 
L 34.084647 78.796326 
L 34.139006 79.345666 
L 34.193365 78.929517 
L 34.247724 78.593428 
L 34.302083 78.816013 
L 34.46516 79.109636 
L 34.519519 78.752218 
L 34.573878 78.876409 
L 34.845672 78.938548 
L 34.95439 78.99826 
L 35.117467 78.501574 
L 35.280544 79.002305 
L 35.334903 79.090908 
L 35.44362 78.706943 
L 35.497979 78.775022 
L 35.552338 78.695766 
L 35.715415 78.911396 
L 35.769774 78.675685 
L 35.824133 78.872814 
L 35.878492 78.858021 
L 35.932851 79.176026 
L 35.98721 79.020114 
L 36.041569 78.768479 
L 36.095928 79.142723 
L 36.150286 78.593372 
L 36.204645 78.838403 
L 36.259004 78.976745 
L 36.313363 78.931156 
L 36.367722 78.908947 
L 36.422081 78.716548 
L 36.47644 78.792244 
L 36.530799 78.891357 
L 36.639517 78.560755 
L 36.693876 78.824878 
L 36.748235 78.735731 
L 36.802594 78.618533 
L 36.856953 79.238559 
L 36.911311 78.91325 
L 36.96567 78.951599 
L 37.020029 78.809596 
L 37.183106 79.183103 
L 37.237465 78.41717 
L 37.291824 78.908928 
L 37.346183 79.295482 
L 37.400542 79.000005 
L 37.454901 78.967049 
L 37.50926 79.160487 
L 37.563619 78.965987 
L 37.672336 78.841417 
L 37.726695 79.119202 
L 37.781054 78.705454 
L 37.835413 78.809844 
L 37.889772 79.043453 
L 37.944131 78.581933 
L 37.99849 78.78979 
L 38.052849 78.905429 
L 38.107208 78.877387 
L 38.215926 78.472985 
L 38.324644 78.989363 
L 38.433361 78.649959 
L 38.596438 79.042054 
L 38.650797 78.910368 
L 38.705156 79.177898 
L 38.759515 78.621249 
L 38.813874 78.806358 
L 38.868233 78.801983 
L 39.03131 79.128347 
L 39.140028 79.157831 
L 39.357463 78.758016 
L 39.466181 78.854458 
L 39.574899 79.126062 
L 39.737976 78.750913 
L 39.901053 78.90537 
L 39.955411 78.635944 
L 40.118488 79.023899 
L 40.172847 78.697175 
L 40.227206 78.797384 
L 40.335924 79.1954 
L 40.390283 79.072196 
L 40.55336 78.78587 
L 40.607719 79.261426 
L 40.662078 78.962906 
L 40.716436 78.689381 
L 40.770795 78.956036 
L 40.825154 78.814372 
L 40.879513 79.108877 
L 40.933872 78.83465 
L 40.988231 78.792538 
L 41.04259 79.209292 
L 41.096949 78.595528 
L 41.151308 78.614867 
L 41.314385 79.048577 
L 41.368744 78.5448 
L 41.423103 79.261922 
L 41.477461 79.089576 
L 41.53182 79.214111 
L 41.586179 78.669914 
L 41.640538 79.139474 
L 41.694897 78.765696 
L 41.749256 78.973826 
L 41.803615 79.453945 
L 41.857974 78.747276 
L 41.912333 79.23946 
L 41.966692 78.822177 
L 42.021051 78.993519 
L 42.07541 79.088538 
L 42.129769 78.969163 
L 42.238486 78.384094 
L 42.347204 79.132528 
L 42.510281 78.563681 
L 42.618999 79.220767 
L 42.673358 78.810628 
L 42.727717 78.872402 
L 42.782076 79.147472 
L 42.890794 78.560116 
L 42.945153 79.220958 
L 42.999511 78.989078 
L 43.05387 79.048921 
L 43.108229 78.659418 
L 43.271306 79.213795 
L 43.434383 78.43193 
L 43.543101 78.716527 
L 43.59746 78.357972 
L 43.651819 79.382282 
L 43.706178 79.044935 
L 43.814895 78.62413 
L 43.977972 79.12318 
L 44.08669 78.603567 
L 44.141049 79.146769 
L 44.195408 78.791346 
L 44.358485 79.406988 
L 44.467203 78.819205 
L 44.521561 78.939894 
L 44.57592 78.19936 
L 44.630279 78.526954 
L 44.793356 78.821232 
L 44.902074 78.617506 
L 45.010792 79.338306 
L 45.065151 79.159308 
L 45.228228 78.415283 
L 45.282586 79.157281 
L 45.336945 79.025107 
L 45.391304 79.046062 
L 45.554381 78.271573 
L 45.663099 78.970306 
L 45.771817 78.480516 
L 45.880535 79.025814 
L 45.989253 78.90445 
L 46.152329 78.399902 
L 46.206688 79.021661 
L 46.261047 78.929735 
L 46.315406 78.986524 
L 46.369765 78.566308 
L 46.424124 79.312575 
L 46.478483 79.196899 
L 46.64156 78.526337 
L 46.695919 78.554507 
L 46.804636 78.913209 
L 46.858995 78.825128 
L 46.967713 78.214351 
L 47.022072 79.659859 
L 47.076431 78.854543 
L 47.13079 78.912705 
L 47.185149 77.927967 
L 47.239508 78.145076 
L 47.348226 78.705512 
L 47.511303 78.100325 
L 47.62002 79.357092 
L 47.674379 78.97825 
L 47.728738 77.95273 
L 47.783097 78.402801 
L 47.946174 79.731963 
L 48.054892 79.023609 
L 48.109251 79.378078 
L 48.217969 78.777144 
L 48.326687 79.067672 
L 48.381045 78.511668 
L 48.435404 79.173461 
L 48.489763 78.895054 
L 48.598481 78.494973 
L 48.65284 79.491805 
L 48.707199 78.301319 
L 48.761558 78.955319 
L 48.924635 78.592167 
L 48.978994 79.185869 
L 49.033353 78.659805 
L 49.087712 78.655238 
L 49.14207 78.062012 
L 49.196429 79.218297 
L 49.250788 78.744889 
L 49.305147 79.071907 
L 49.468224 78.428804 
L 49.522583 78.663728 
L 49.576942 78.171255 
L 49.68566 80.059603 
L 49.848737 78.308463 
L 49.903095 78.933208 
L 49.957454 78.612717 
L 50.011813 78.491806 
L 50.066172 79.282181 
L 50.120531 79.022176 
L 50.17489 78.363531 
L 50.229249 78.917995 
L 50.283608 78.832973 
L 50.337967 79.182777 
L 50.392326 78.85231 
L 50.555403 79.777645 
L 50.718479 78.281171 
L 50.772838 79.214063 
L 50.827197 79.15291 
L 50.881556 78.312257 
L 50.935915 78.455823 
L 51.044633 79.272773 
L 51.098992 77.888953 
L 51.153351 78.671908 
L 51.20771 78.722782 
L 51.262069 79.610815 
L 51.316428 78.511644 
L 51.370787 79.324332 
L 51.425145 79.403039 
L 51.533863 78.38299 
L 51.588222 78.420743 
L 51.642581 79.105107 
L 51.69694 78.422908 
L 51.860017 78.90757 
L 51.914376 78.410744 
L 51.968735 79.359456 
L 52.023094 78.819155 
L 52.077453 79.221521 
L 52.18617 78.206748 
L 52.240529 79.172373 
L 52.294888 79.07295 
L 52.512324 78.319228 
L 52.621042 79.42529 
L 52.675401 78.969739 
L 52.838478 78.380484 
L 52.947195 79.34112 
L 53.110272 77.842139 
L 53.164631 79.053302 
L 53.21899 78.441276 
L 53.382067 79.578058 
L 53.545144 78.092475 
L 53.653862 79.245017 
L 53.70822 78.596068 
L 53.762579 79.097803 
L 53.816938 79.184072 
L 53.871297 78.52626 
L 53.925656 78.833993 
L 53.980015 78.717721 
L 54.034374 79.441474 
L 54.088733 78.400432 
L 54.143092 79.699564 
L 54.197451 79.196456 
L 54.306169 79.32467 
L 54.360528 78.279593 
L 54.414887 78.636837 
L 54.469245 78.666125 
L 54.523604 80.503455 
L 54.577963 78.697912 
L 54.686681 79.060384 
L 54.74104 78.985738 
L 54.795399 79.040074 
L 54.849758 79.444642 
L 54.904117 78.10678 
L 54.958476 79.085906 
L 55.012835 79.374703 
L 55.067194 79.169391 
L 55.175912 79.301745 
L 55.284629 78.017884 
L 55.393347 78.094938 
L 55.447706 80.392626 
L 55.502065 78.455049 
L 55.556424 79.247373 
L 55.610783 78.908768 
L 55.77386 78.409073 
L 55.828219 79.068927 
L 55.882578 78.618429 
L 56.045654 78.896344 
L 56.100013 78.249909 
L 56.154372 78.661611 
L 56.317449 79.313555 
L 56.426167 79.850424 
L 56.480526 78.095693 
L 56.534885 78.717258 
L 56.697962 79.104828 
L 56.861038 78.06194 
L 56.915397 78.323344 
L 57.078474 79.189867 
L 57.187192 78.215397 
L 57.241551 78.267612 
L 57.404628 79.882893 
L 57.458987 78.858161 
L 57.513345 79.500642 
L 57.622063 78.595352 
L 57.676422 78.818343 
L 57.730781 78.927523 
L 57.78514 78.549227 
L 57.839499 78.638385 
L 57.948217 79.348361 
L 58.002576 79.076888 
L 58.056935 78.968175 
L 58.165653 78.260654 
L 58.220012 79.461571 
L 58.27437 78.744256 
L 58.328729 78.193408 
L 58.383088 78.790708 
L 58.437447 78.213603 
L 58.600524 79.655671 
L 58.763601 77.618975 
L 58.926678 79.662591 
L 59.035395 78.646477 
L 59.089754 78.924359 
L 59.198472 78.021755 
L 59.252831 79.786003 
L 59.30719 78.717074 
L 59.415908 78.21703 
L 59.470267 78.304653 
L 59.633344 78.881168 
L 59.687703 77.96113 
L 59.742062 79.07946 
L 59.79642 78.927946 
L 59.850779 77.938321 
L 59.905138 78.897005 
L 59.959497 78.603063 
L 60.068215 80.11017 
L 60.122574 79.679287 
L 60.285651 79.135497 
L 60.34001 79.181758 
L 60.394369 78.218139 
L 60.448728 78.634049 
L 60.611804 79.454512 
L 60.666163 78.144076 
L 60.720522 78.6031 
L 60.883599 78.345927 
L 61.046676 79.008611 
L 61.209753 78.398017 
L 61.31847 79.205838 
L 61.427188 78.895653 
L 61.590265 77.976139 
L 61.644624 78.39584 
L 61.698983 80.180865 
L 61.753342 79.161241 
L 61.86206 78.390753 
L 61.916419 79.454062 
L 61.970778 78.644344 
L 62.025137 79.032291 
L 62.079495 78.891581 
L 62.35129 78.565484 
L 62.405649 78.850148 
L 62.460008 78.649806 
L 62.514367 78.021185 
L 62.568726 78.53526 
L 62.623085 79.574781 
L 62.677444 78.115018 
L 62.731803 79.250906 
L 62.786162 78.669688 
L 62.84052 78.700955 
L 62.894879 79.892822 
L 62.949238 79.095349 
L 63.112315 78.070286 
L 63.221033 79.288943 
L 63.275392 78.26927 
L 63.438469 79.708778 
L 63.492828 78.714524 
L 63.547187 78.829098 
L 63.601545 79.46388 
L 63.655904 77.765259 
L 63.710263 78.084079 
L 63.818981 80.097353 
L 63.87334 77.449663 
L 63.927699 78.856724 
L 63.982058 78.679724 
L 64.036417 77.90812 
L 64.145135 79.96362 
L 64.199494 77.577924 
L 64.253853 79.633369 
L 64.416929 78.357084 
L 64.471288 80.232037 
L 64.525647 77.241126 
L 64.580006 78.382695 
L 64.634365 77.875176 
L 64.743083 79.732597 
L 64.797442 78.903128 
L 64.851801 79.096395 
L 64.90616 78.148142 
L 64.960519 79.02818 
L 65.014878 79.216937 
L 65.069237 77.92366 
L 65.123596 79.025524 
L 65.177954 78.997637 
L 65.232313 79.741631 
L 65.286672 77.969585 
L 65.341031 79.436629 
L 65.39539 79.262807 
L 65.504108 79.280111 
L 65.558467 77.897108 
L 65.612826 79.307517 
L 65.667185 77.948124 
L 65.721544 78.353283 
L 65.775903 77.344167 
L 65.830262 78.345856 
L 65.993338 80.169205 
L 66.156415 77.929933 
L 66.210774 80.009562 
L 66.265133 77.92197 
L 66.319492 77.752025 
L 66.373851 78.839286 
L 66.42821 78.739088 
L 66.482569 78.302813 
L 66.645646 79.40774 
L 66.754363 77.39612 
L 66.808722 77.716549 
L 66.971799 79.52101 
L 67.026158 78.467213 
L 67.080517 78.996229 
L 67.134876 79.982909 
L 67.189235 78.144201 
L 67.243594 79.544105 
L 67.515388 78.177531 
L 67.569747 80.022579 
L 67.624106 79.201647 
L 67.732824 76.649186 
L 67.895901 79.040772 
L 67.95026 78.402554 
L 68.004619 79.621808 
L 68.058978 78.270872 
L 68.113337 78.48109 
L 68.222054 78.848827 
L 68.330772 78.103764 
L 68.385131 79.010825 
L 68.43949 78.236798 
L 68.493849 78.776294 
L 68.548208 77.843653 
L 68.602567 79.692507 
L 68.656926 79.613507 
L 68.765644 77.786876 
L 68.820003 78.096947 
L 68.983079 78.988796 
L 69.037438 80.549637 
L 69.146156 78.062907 
L 69.200515 78.306749 
L 69.254874 77.623563 
L 69.417951 80.120821 
L 69.47231 77.283805 
L 69.526669 78.384975 
L 69.635387 77.610693 
L 69.798463 80.139488 
L 69.852822 79.54779 
L 69.907181 77.524901 
L 69.96154 78.336738 
L 70.015899 78.173816 
L 70.178976 79.63219 
L 70.396412 77.79167 
L 70.559488 79.035441 
L 70.668206 79.414221 
L 70.722565 79.280382 
L 70.776924 78.283292 
L 70.831283 79.689024 
L 70.885642 77.683609 
L 70.940001 80.010127 
L 70.99436 76.851018 
L 71.048719 78.76814 
L 71.103078 79.662635 
L 71.157437 77.724536 
L 71.211796 79.568335 
L 71.48359 77.237085 
L 71.537949 79.524362 
L 71.592308 78.930775 
L 71.646667 79.014141 
L 71.864103 77.612393 
L 72.027179 79.420846 
L 72.081538 78.456838 
L 72.135897 80.056104 
L 72.190256 79.643488 
L 72.244615 77.510013 
L 72.298974 79.652774 
L 72.407692 77.885544 
L 72.462051 78.984897 
L 72.51641 77.092837 
L 72.570769 78.221109 
L 72.625128 78.467804 
L 72.679487 76.720367 
L 72.733846 78.949964 
L 72.788204 77.950286 
L 72.842563 77.931358 
L 72.951281 79.163744 
L 73.059999 77.637545 
L 73.168717 79.364839 
L 73.223076 77.320038 
L 73.277435 80.269688 
L 73.331794 78.872166 
L 73.386153 78.810344 
L 73.440512 79.9852 
L 73.494871 76.895723 
L 73.549229 78.512472 
L 73.712306 80.143088 
L 73.766665 79.903451 
L 73.821024 77.826866 
L 73.875383 79.218587 
L 74.03846 78.124014 
L 74.147178 80.200012 
L 74.201537 77.974458 
L 74.310254 77.999545 
L 74.364613 77.885303 
L 74.418972 77.165996 
L 74.473331 77.993652 
L 74.52769 77.867367 
L 74.582049 77.188754 
L 74.690767 79.340791 
L 74.745126 78.132555 
L 74.799485 78.410217 
L 74.853844 79.536941 
L 74.908203 78.977977 
L 75.016921 78.064814 
L 75.071279 79.054831 
L 75.125638 78.236813 
L 75.179997 77.997606 
L 75.288715 80.006456 
L 75.343074 79.615829 
L 75.397433 77.53173 
L 75.451792 79.844437 
L 75.506151 78.78965 
L 75.56051 78.771198 
L 75.614869 80.705188 
L 75.777946 78.109852 
L 75.832304 79.731128 
L 75.886663 79.488855 
L 75.941022 78.995947 
L 75.995381 80.136575 
L 76.04974 78.958343 
L 76.158458 79.095835 
L 76.212817 77.719982 
L 76.267176 78.959151 
L 76.321535 78.925322 
L 76.375894 79.500036 
L 76.538971 77.45575 
L 76.702047 79.202034 
L 76.865124 78.535016 
L 76.919483 78.965004 
L 76.973842 78.162623 
L 77.028201 78.96035 
L 77.08256 79.03756 
L 77.136919 80.023573 
L 77.191278 77.123977 
L 77.245637 79.817544 
L 77.299996 80.104509 
L 77.408713 77.308964 
L 77.463072 79.753934 
L 77.517431 77.830206 
L 77.57179 79.235932 
L 77.626149 78.740154 
L 77.680508 76.88735 
L 77.734867 77.779809 
L 77.789226 78.062136 
L 77.897944 80.571704 
L 78.006662 77.823058 
L 78.061021 79.471133 
L 78.115379 78.104863 
L 78.169738 77.558834 
L 78.332815 78.989871 
L 78.441533 77.939469 
L 78.495892 79.229656 
L 78.550251 79.045032 
L 78.713328 77.996924 
L 78.767687 80.306992 
L 78.822046 79.395473 
L 78.876404 78.104191 
L 78.930763 78.932614 
L 78.985122 79.12923 
L 79.09384 77.42902 
L 79.256917 78.959975 
L 79.311276 77.880235 
L 79.365635 81.075942 
L 79.419994 78.602681 
L 79.583071 79.620707 
L 79.637429 77.949645 
L 79.691788 79.501467 
L 79.800506 78.156266 
L 79.909224 79.40533 
L 79.963583 80.048716 
L 80.12666 77.542718 
L 80.181019 79.634074 
L 80.235378 79.609064 
L 80.398455 77.500202 
L 80.452813 81.032378 
L 80.507172 78.069669 
L 80.61589 80.526112 
L 80.778967 76.282531 
L 80.887685 79.45802 
L 80.942044 78.953085 
L 80.996403 79.762882 
L 81.050762 79.609944 
L 81.105121 79.152432 
L 81.15948 79.840057 
L 81.213838 79.579085 
L 81.376915 78.191278 
L 81.485633 80.682951 
L 81.539992 80.468215 
L 81.703069 79.11464 
L 81.757428 80.719559 
L 81.811787 79.834515 
L 81.866146 79.706733 
L 81.920505 77.511588 
L 81.974863 81.043586 
L 82.029222 78.927158 
L 82.083581 78.626423 
L 82.192299 79.605314 
L 82.355376 78.348321 
L 82.464094 80.580748 
L 82.518453 80.428404 
L 82.572812 77.579944 
L 82.627171 78.38072 
L 82.68153 79.302785 
L 82.735888 77.639614 
L 82.790247 77.862131 
L 82.898965 80.873475 
L 83.007683 78.13997 
L 83.062042 79.214442 
L 83.116401 78.794983 
L 83.17076 78.584 
L 83.279478 79.767013 
L 83.442555 78.042409 
L 83.605631 80.269617 
L 83.65999 77.383712 
L 83.714349 79.522551 
L 83.768708 78.136268 
L 83.823067 78.692068 
L 83.986144 80.279153 
L 84.040503 77.889866 
L 84.094862 78.494007 
L 84.149221 79.609501 
L 84.20358 77.704483 
L 84.257938 77.888897 
L 84.366656 80.660882 
L 84.475374 78.144276 
L 84.529733 78.616507 
L 84.584092 77.809104 
L 84.638451 80.619221 
L 84.69281 79.353394 
L 84.747169 80.417143 
L 84.801528 78.358227 
L 84.855887 78.633105 
L 84.910246 78.58614 
L 84.964605 79.612865 
L 85.018963 79.041713 
L 85.073322 77.938963 
L 85.127681 78.372857 
L 85.18204 80.194637 
L 85.236399 77.494853 
L 85.290758 79.08369 
L 85.453835 81.010375 
L 85.508194 77.435353 
L 85.562553 77.913559 
L 85.779988 79.661989 
L 85.834347 78.262407 
L 85.888706 78.761363 
L 85.943065 79.045205 
L 85.997424 79.030306 
L 86.051783 80.651103 
L 86.106142 80.328208 
L 86.323578 78.896773 
L 86.377937 80.450782 
L 86.432296 79.768511 
L 86.486655 76.575033 
L 86.541013 76.770938 
L 86.595372 80.168703 
L 86.649731 78.28483 
L 86.70409 78.52192 
L 86.758449 79.548116 
L 86.867167 77.308194 
L 86.921526 77.846828 
L 87.030244 80.009201 
L 87.084603 76.785104 
L 87.138962 80.699465 
L 87.193321 78.298762 
L 87.24768 78.353789 
L 87.302038 77.948734 
L 87.356397 79.420682 
L 87.410756 76.273961 
L 87.465115 79.491203 
L 87.573833 77.870794 
L 87.628192 81.913691 
L 87.682551 77.909818 
L 87.73691 78.395747 
L 87.791269 76.543906 
L 87.845628 77.858994 
L 87.899987 78.256422 
L 87.954346 79.561707 
L 88.008705 78.188368 
L 88.117422 78.213363 
L 88.171781 81.172087 
L 88.22614 78.945408 
L 88.334858 79.928477 
L 88.443576 78.451817 
L 88.497935 80.741033 
L 88.661012 77.027015 
L 88.715371 79.975005 
L 88.76973 78.39039 
L 88.824088 79.381446 
L 88.878447 77.750043 
L 88.932806 78.562744 
L 88.987165 81.503098 
L 89.041524 78.271377 
L 89.095883 78.78986 
L 89.204601 80.778548 
L 89.25896 78.865063 
L 89.313319 79.445027 
L 89.367678 81.37344 
L 89.476396 77.681651 
L 89.530755 79.49325 
L 89.585113 78.664059 
L 89.639472 78.235207 
L 89.74819 79.97634 
L 89.856908 76.628629 
L 89.965626 78.974551 
L 90.019985 78.621262 
L 90.074344 77.256529 
L 90.128703 79.281965 
L 90.183062 76.216438 
L 90.237421 79.38752 
L 90.29178 78.694685 
L 90.400497 80.818816 
L 90.454856 78.801603 
L 90.563574 78.848014 
L 90.617933 79.307665 
L 90.672292 79.260948 
L 90.726651 78.482779 
L 90.78101 79.229486 
L 90.889728 81.135969 
L 90.944087 78.927765 
L 90.998446 79.877776 
L 91.052805 79.293547 
L 91.107163 80.159991 
L 91.161522 79.638753 
L 91.324599 76.757481 
L 91.487676 79.860274 
L 91.650753 77.00191 
L 91.705112 79.885933 
L 91.759471 77.410304 
L 91.868188 80.762088 
L 91.922547 78.266556 
L 91.976906 78.348662 
L 92.031265 79.343349 
L 92.085624 78.296531 
L 92.194342 81.881705 
L 92.30306 77.051932 
L 92.357419 77.182755 
L 92.411778 81.447392 
L 92.466137 79.439664 
L 92.520496 78.545626 
L 92.574855 78.564379 
L 92.737931 79.508525 
L 92.79229 80.924885 
L 92.846649 79.546889 
L 92.901008 79.598944 
L 92.955367 79.988657 
L 93.009726 77.572849 
L 93.064085 79.002075 
L 93.118444 78.92582 
L 93.172803 76.925592 
L 93.281521 81.657144 
L 93.33588 80.169921 
L 93.390238 82.360832 
L 93.553315 77.567641 
L 93.607674 80.139022 
L 93.662033 77.442284 
L 93.716392 78.00085 
L 93.82511 80.460207 
L 93.879469 77.813043 
L 93.933828 79.85338 
L 94.042546 79.505146 
L 94.096905 80.120035 
L 94.151263 80.079671 
L 94.259981 78.93694 
L 94.31434 79.657885 
L 94.368699 76.094872 
L 94.423058 77.303183 
L 94.477417 80.568444 
L 94.531776 79.395229 
L 94.586135 78.028403 
L 94.640494 78.503194 
L 94.749212 79.092256 
L 94.803571 78.27634 
L 94.85793 80.716606 
L 94.912288 79.223375 
L 95.021006 78.469751 
L 95.184083 80.873727 
L 95.238442 77.458923 
L 95.292801 77.773757 
L 95.34716 80.498097 
L 95.401519 78.813355 
L 95.510237 78.787764 
L 95.618955 79.808768 
L 95.782031 78.951143 
L 95.83639 79.368262 
L 95.890749 78.487734 
L 95.945108 79.404768 
L 95.999467 79.102071 
L 96.053826 79.922001 
L 96.108185 79.551453 
L 96.162544 79.49143 
L 96.216903 79.97812 
L 96.271262 79.903882 
L 96.325621 79.813137 
L 96.37998 78.857889 
L 96.434338 80.875249 
L 96.488697 79.207753 
L 96.543056 78.907344 
L 96.597415 77.536468 
L 96.651774 82.415978 
L 96.706133 75.374501 
L 96.760492 78.211547 
L 96.814851 80.454034 
L 96.86921 80.341344 
L 96.923569 80.260162 
L 96.977928 78.330766 
L 97.032287 78.581477 
L 97.086646 80.85267 
L 97.141005 77.625136 
L 97.195364 79.850609 
L 97.249722 79.873261 
L 97.304081 77.879542 
L 97.35844 78.978024 
L 97.412799 78.93077 
L 97.467158 78.151936 
L 97.521517 79.438593 
L 97.575876 75.812055 
L 97.630235 80.319184 
L 97.684594 76.957024 
L 97.738953 79.958377 
L 97.793312 76.271144 
L 97.847671 77.45487 
L 98.010747 81.090835 
L 98.282542 75.99494 
L 98.336901 79.660831 
L 98.39126 78.654288 
L 98.445619 76.919517 
L 98.608696 80.996067 
L 98.663055 76.413531 
L 98.717414 79.700157 
L 98.771772 79.568344 
L 98.826131 77.92453 
L 98.88049 78.068679 
L 98.934849 78.379608 
L 98.989208 80.566977 
L 99.152285 76.998476 
L 99.315362 81.864585 
L 99.478439 77.371522 
L 99.587156 79.044956 
L 99.641515 78.937992 
L 99.695874 75.473537 
L 99.750233 76.980502 
L 99.91331 80.536656 
L 99.967669 80.446254 
L 100.022028 78.836551 
L 100.076387 79.164656 
L 100.130746 80.128045 
L 100.185105 75.946848 
L 100.239464 80.030845 
L 100.293822 78.785362 
L 100.348181 81.318013 
L 100.40254 76.584856 
L 100.456899 78.374393 
L 100.565617 80.794276 
L 100.728694 77.230636 
L 100.783053 81.002933 
L 100.837412 79.332037 
L 100.891771 79.397532 
L 100.94613 81.328529 
L 101.109206 77.750672 
L 101.217924 79.890643 
L 101.326642 77.627983 
L 101.489719 80.184053 
L 101.598437 77.65777 
L 101.652796 79.112251 
L 101.707155 77.225097 
L 101.761514 79.288302 
L 101.815872 78.5041 
L 101.870231 78.416508 
L 101.92459 81.131888 
L 101.978949 79.217607 
L 102.142026 76.41014 
L 102.196385 81.026175 
L 102.250744 75.45878 
L 102.305103 77.452496 
L 102.413821 80.011069 
L 102.46818 79.753851 
L 102.631256 76.868287 
L 102.739974 78.681245 
L 102.794333 77.225826 
L 102.848692 78.430226 
L 102.903051 78.423169 
L 102.95741 78.227699 
L 103.011769 78.905782 
L 103.066128 78.424718 
L 103.174846 79.892496 
L 103.229205 82.294852 
L 103.337922 77.642756 
L 103.392281 78.442848 
L 103.44664 79.494705 
L 103.609717 77.59894 
L 103.664076 78.34772 
L 103.718435 78.172241 
L 103.772794 77.711581 
L 103.881512 81.742699 
L 103.99023 80.524745 
L 104.207665 78.227853 
L 104.262024 78.627884 
L 104.370742 76.58657 
L 104.47946 79.317907 
L 104.533819 78.786608 
L 104.588178 78.503333 
L 104.642537 76.872301 
L 104.805614 80.583142 
L 104.914331 78.355604 
L 104.96869 80.24739 
L 105.023049 77.973796 
L 105.077408 78.821383 
L 105.131767 78.870231 
L 105.240485 79.665361 
L 105.294844 78.644494 
L 105.349203 80.775611 
L 105.457921 76.74637 
L 105.566639 78.886363 
L 105.620997 78.660869 
L 105.675356 78.734412 
L 105.729715 80.227325 
L 105.784074 79.250686 
L 105.892792 80.107096 
L 106.00151 77.517519 
L 106.055869 78.152673 
L 106.164587 80.48852 
L 106.273305 77.040878 
L 106.327664 77.165538 
L 106.545099 79.737187 
L 106.653817 78.897636 
L 106.708176 79.001177 
L 106.762535 78.692338 
L 106.816894 79.980881 
L 106.979971 77.960804 
L 107.03433 78.534522 
L 107.088689 78.358445 
L 107.143047 77.254802 
L 107.251765 79.209421 
L 107.306124 78.742855 
L 107.414842 77.856253 
L 107.52356 80.974143 
L 107.577919 77.063142 
L 107.632278 78.29579 
L 107.795355 80.860932 
L 107.849714 80.578198 
L 108.01279 78.007589 
L 108.067149 78.633039 
L 108.121508 80.673764 
L 108.175867 79.691886 
L 108.230226 79.944385 
L 108.284585 77.8385 
L 108.338944 78.025486 
L 108.502021 80.306146 
L 108.55638 78.220624 
L 108.610739 80.672519 
L 108.665097 77.469912 
L 108.719456 79.780757 
L 108.773815 79.713031 
L 108.882533 79.067952 
L 108.936892 79.400688 
L 109.099969 78.763443 
L 109.154328 79.4448 
L 109.208687 79.412353 
L 109.263046 78.966588 
L 109.317405 79.260636 
L 109.371764 79.880274 
L 109.426122 78.291529 
L 109.480481 79.171989 
L 109.53484 80.312799 
L 109.589199 80.092517 
L 109.643558 77.467242 
L 109.697917 78.538536 
L 109.752276 80.102021 
L 109.806635 78.027676 
L 109.860994 79.298391 
L 109.915353 79.457409 
L 109.969712 79.247835 
L 110.024071 79.655035 
L 110.07843 79.577017 
L 110.132789 79.340043 
L 110.295865 77.705572 
L 110.350224 77.143807 
L 110.458942 78.930011 
L 110.513301 77.135337 
L 110.676378 80.29864 
L 110.730737 77.687144 
L 110.785096 79.379005 
L 110.839455 80.037162 
L 110.893814 79.749495 
L 111.002531 78.793885 
L 111.05689 78.922856 
L 111.111249 76.207384 
L 111.165608 80.414663 
L 111.219967 78.338659 
L 111.274326 79.98576 
L 111.383044 79.996902 
L 111.437403 77.687495 
L 111.491762 78.16142 
L 111.546121 80.186755 
L 111.60048 77.856602 
L 111.654839 78.751518 
L 111.709197 78.169781 
L 111.763556 78.821866 
L 111.817915 78.239669 
L 111.872274 78.549943 
L 111.926633 78.207493 
L 111.980992 80.157999 
L 112.035351 79.897997 
L 112.144069 77.401588 
L 112.307146 80.358057 
L 112.415864 78.033022 
L 112.470222 78.375409 
L 112.524581 78.094444 
L 112.57894 78.285402 
L 112.687658 79.366488 
L 112.796376 77.237132 
L 112.959453 80.442522 
L 113.013812 77.792864 
L 113.068171 78.905649 
L 113.176889 77.972518 
L 113.339965 80.312345 
L 113.503042 77.616411 
L 113.666119 80.834885 
L 113.829196 77.697664 
L 113.883555 77.744748 
L 114.046631 79.333209 
L 114.155349 77.724826 
L 114.209708 79.59161 
L 114.264067 79.329085 
L 114.318426 77.761528 
L 114.372785 78.048341 
L 114.427144 78.361727 
L 114.590221 79.955129 
L 114.64458 77.981517 
L 114.698939 78.849827 
L 114.753298 79.145851 
L 114.807656 78.413228 
L 114.862015 79.881946 
L 114.916374 79.596091 
L 114.970733 79.489382 
L 115.025092 79.938179 
L 115.13381 77.701654 
L 115.242528 79.952998 
L 115.351246 76.708022 
L 115.405605 80.987921 
L 115.459964 79.185222 
L 115.514323 78.342404 
L 115.568681 78.888497 
L 115.62304 78.715796 
L 115.731758 77.405399 
L 115.786117 80.059118 
L 115.840476 78.98287 
L 115.894835 78.156531 
L 116.003553 79.193453 
L 116.057912 78.293406 
L 116.112271 78.438705 
L 116.16663 79.251722 
L 116.220989 78.509932 
L 116.275348 76.772022 
L 116.329706 79.146352 
L 116.384065 78.558768 
L 116.547142 77.46141 
L 116.710219 79.223653 
L 116.764578 77.570313 
L 116.873296 79.464347 
L 116.927655 79.276189 
L 116.982014 80.08674 
L 117.036373 79.9132 
L 117.090731 78.389749 
L 117.14509 78.958587 
L 117.253808 78.884695 
L 117.416885 79.947972 
L 117.471244 79.783974 
L 117.525603 79.879111 
L 117.579962 81.168505 
L 117.743039 78.707579 
L 117.797398 79.474225 
L 117.851756 79.376564 
L 117.906115 78.418887 
L 117.960474 79.093157 
L 118.069192 78.749955 
L 118.123551 77.519869 
L 118.17791 79.654849 
L 118.232269 79.076138 
L 118.286628 77.689121 
L 118.340987 78.927848 
L 118.395346 79.897431 
L 118.449705 78.187233 
L 118.504064 79.098685 
L 118.558423 79.427112 
L 118.721499 78.244436 
L 118.775858 78.478202 
L 118.830217 78.80941 
L 118.884576 78.172642 
L 118.938935 79.939031 
L 118.993294 79.662016 
L 119.047653 78.424041 
L 119.102012 78.991347 
L 119.156371 79.458482 
L 119.21073 78.063689 
L 119.265089 79.142252 
L 119.319448 80.184934 
L 119.373806 79.175306 
L 119.482524 78.38842 
L 119.536883 79.928622 
L 119.591242 78.834926 
L 119.645601 78.845787 
L 119.754319 79.147069 
L 119.808678 79.891354 
L 119.863037 79.372931 
L 119.917396 79.472967 
L 119.971755 78.451682 
L 120.026114 78.778642 
L 120.080473 78.643803 
L 120.134831 79.554095 
L 120.297908 78.083985 
L 120.515344 79.667341 
L 120.569703 78.718109 
L 120.624062 79.383928 
L 120.73278 78.286449 
L 120.787139 79.278509 
L 120.841498 79.267699 
L 120.895856 78.626041 
L 120.950215 78.855613 
L 121.004574 79.281454 
L 121.167651 78.578653 
L 121.22201 79.057708 
L 121.276369 78.318278 
L 121.330728 79.644495 
L 121.385087 79.522923 
L 121.439446 78.293891 
L 121.493805 78.898504 
L 121.548164 79.207861 
L 121.602523 78.003214 
L 121.656881 78.853246 
L 121.765599 79.150658 
L 121.819958 78.881399 
L 121.874317 79.64171 
L 121.928676 79.40392 
L 121.983035 79.303136 
L 122.146112 78.628648 
L 122.200471 78.371624 
L 122.25483 78.520266 
L 122.472265 79.683831 
L 122.526624 78.450614 
L 122.580983 79.19643 
L 122.689701 78.433259 
L 122.852778 79.261622 
L 122.907137 78.918287 
L 123.015855 79.658254 
L 123.23329 78.639925 
L 123.396367 78.896493 
L 123.450726 78.55276 
L 123.505085 78.874368 
L 123.613803 78.563711 
L 123.668162 79.355886 
L 123.722521 78.742579 
L 123.77688 79.307214 
L 123.939956 78.480931 
L 124.048674 79.089478 
L 124.103033 78.74468 
L 124.157392 78.508793 
L 124.211751 79.233047 
L 124.26611 78.944247 
L 124.320469 78.263163 
L 124.374828 78.682685 
L 124.429187 78.517047 
L 124.592264 79.074883 
L 124.700981 79.293072 
L 124.75534 79.254567 
L 124.809699 79.25216 
L 124.918417 78.642343 
L 124.972776 78.929396 
L 125.027135 79.177669 
L 125.135853 78.312763 
L 125.244571 78.755622 
L 125.29893 78.442339 
L 125.407648 79.101669 
L 125.462006 78.48911 
L 125.516365 78.658547 
L 125.570724 78.900708 
L 125.625083 78.700523 
L 125.679442 78.630425 
L 125.78816 78.892348 
L 125.842519 78.868075 
L 125.951237 78.593616 
L 126.005596 78.667137 
L 126.168673 79.023111 
L 126.27739 78.709586 
L 126.331749 78.94296 
L 126.386108 78.717749 
L 126.603544 78.912096 
L 126.657903 78.676016 
L 126.712262 78.766659 
L 126.875339 78.918515 
L 126.929698 78.785265 
L 126.984056 78.931542 
L 127.147133 78.823088 
L 127.636364 78.844381 
L 127.636364 78.844381 
" clip-path="url(#p96bc472fd5)" style="fill: none; stroke: #66c2a5; stroke-width: 1.5; stroke-linecap: square"/>
   </g>
   <g id="patch_3">
    <path d="M 10.8 133.2 
L 10.8 10.8 
" style="fill: none; stroke: #000000; stroke-width: 0.8; stroke-linejoin: miter; stroke-linecap: square"/>
   </g>
   <g id="patch_4">
    <path d="M 133.2 133.2 
L 133.2 10.8 
" style="fill: none; stroke: #000000; stroke-width: 0.8; stroke-linejoin: miter; stroke-linecap: square"/>
   </g>
   <g id="patch_5">
    <path d="M 10.8 133.2 
L 133.2 133.2 
" style="fill: none; stroke: #000000; stroke-width: 0.8; stroke-linejoin: miter; stroke-linecap: square"/>
   </g>
   <g id="patch_6">
    <path d="M 10.8 10.8 
L 133.2 10.8 
" style="fill: none; stroke: #000000; stroke-width: 0.8; stroke-linejoin: miter; stroke-linecap: square"/>
   </g>
  </g>
 </g>
 <defs>
  <clipPath id="p96bc472fd5">
   <rect x="10.8" y="10.8" width="122.4" height="122.4"/>
  </clipPath>
 </defs>
</svg>
