<?xml version="1.0" encoding="utf-8" standalone="no"?>
<!DOCTYPE svg PUBLIC "-//W3C//DTD SVG 1.1//EN"
  "http://www.w3.org/Graphics/SVG/1.1/DTD/svg11.dtd">
<svg xmlns:xlink="http://www.w3.org/1999/xlink" width="144pt" height="144pt" viewBox="0 0 144 144" xmlns="http://www.w3.org/2000/svg" version="1.1">
 <metadata>
  <rdf:RDF xmlns:dc="http://purl.org/dc/elements/1.1/" xmlns:cc="http://creativecommons.org/ns#" xmlns:rdf="http://www.w3.org/1999/02/22-rdf-syntax-ns#">
   <cc:Work>
    <dc:type rdf:resource="http://purl.org/dc/dcmitype/StillImage"/>
    <dc:date>2025-02-07T11:27:54.741743</dc:date>
    <dc:format>image/svg+xml</dc:format>
    <dc:creator>
     <cc:Agent>
      <dc:title>Matplotlib v3.8.0, https://matplotlib.org/</dc:title>
     </cc:Agent>
    </dc:creator>
   </cc:Work>
  </rdf:RDF>
 </metadata>
 <defs>
  <style type="text/css">*{stroke-linejoin: round; stroke-linecap: butt}</style>
 </defs>
 <g id="figure_1">
  <g id="patch_1">
   <path d="M 0 144 
L 144 144 
L 144 0 
L 0 0 
L 0 144 
z
" style="fill: none"/>
  </g>
  <g id="axes_1">
   <g id="patch_2">
    <path d="M 10.8 133.2 
L 133.2 133.2 
L 133.2 10.8 
L 10.8 10.8 
L 10.8 133.2 
z
" style="fill: none"/>
   </g>
   <g id="matplotlib.axis_1"/>
   <g id="matplotlib.axis_2"/>
   <g id="line2d_1">
    <path d="M 16.363636 75.438619 
L 16.907226 75.431201 
L 17.450815 75.360587 
L 17.559533 75.546383 
L 17.613892 75.470045 
L 17.668251 75.273335 
L 17.72261 75.395975 
L 17.831327 75.472931 
L 17.940045 75.314124 
L 18.103122 75.667825 
L 18.157481 75.350079 
L 18.21184 75.536862 
L 18.266199 75.381506 
L 18.320558 75.522723 
L 18.429276 75.830572 
L 18.592352 75.356213 
L 18.646711 75.526428 
L 18.755429 75.324918 
L 18.809788 75.480548 
L 18.864147 75.413689 
L 18.918506 75.378759 
L 18.972865 75.096726 
L 19.027224 75.735856 
L 19.081583 75.190793 
L 19.190301 75.471024 
L 19.407736 75.031875 
L 19.462095 75.06151 
L 19.516454 75.55926 
L 19.570813 75.538307 
L 19.625172 75.51069 
L 19.679531 75.248244 
L 19.73389 75.32249 
L 19.788249 75.409311 
L 19.842608 75.198067 
L 19.896967 75.228533 
L 19.951326 75.244869 
L 20.060044 75.494158 
L 20.114402 74.807273 
L 20.168761 75.463376 
L 20.331838 74.982485 
L 20.603633 75.732159 
L 20.657992 75.38578 
L 20.712351 75.942267 
L 20.76671 74.56405 
L 20.821069 75.427023 
L 20.875427 75.575172 
L 20.929786 74.781007 
L 20.984145 75.951638 
L 21.038504 75.469684 
L 21.092863 75.502665 
L 21.147222 74.958347 
L 21.201581 75.383719 
L 21.25594 75.110546 
L 21.310299 76.622612 
L 21.364658 75.72788 
L 21.473376 75.121352 
L 21.527735 75.666811 
L 21.582094 75.233741 
L 21.636452 75.375142 
L 21.799529 75.006431 
L 21.853888 75.018773 
L 21.908247 74.800615 
L 22.016965 75.764123 
L 22.071324 74.134127 
L 22.125683 74.555014 
L 22.28876 76.067216 
L 22.397477 75.097019 
L 22.451836 75.177708 
L 22.506195 75.83082 
L 22.560554 75.16636 
L 22.614913 75.088669 
L 22.669272 76.36816 
L 22.723631 75.573396 
L 22.832349 74.317345 
L 22.941067 75.527253 
L 22.995426 75.38233 
L 23.049785 75.738303 
L 23.104144 74.477947 
L 23.158502 76.249118 
L 23.212861 74.808286 
L 23.321579 75.696498 
L 23.375938 75.157263 
L 23.430297 75.94042 
L 23.484656 75.613504 
L 23.593374 74.548902 
L 23.81081 75.625835 
L 23.865169 75.56943 
L 23.919527 75.161994 
L 23.973886 75.317384 
L 24.028245 76.459297 
L 24.191322 74.747541 
L 24.30004 76.239738 
L 24.354399 75.690693 
L 24.408758 75.266929 
L 24.463117 75.687858 
L 24.517476 75.663621 
L 24.571835 74.700077 
L 24.626194 75.200412 
L 24.78927 76.02276 
L 24.843629 76.020206 
L 24.897988 74.592105 
L 24.952347 75.983631 
L 25.006706 75.090127 
L 25.061065 76.225533 
L 25.115424 74.539772 
L 25.169783 75.154259 
L 25.224142 76.260686 
L 25.278501 75.448358 
L 25.495936 76.366919 
L 25.604654 74.742535 
L 25.767731 76.26894 
L 25.876449 74.739341 
L 26.039526 75.990103 
L 26.093885 75.556666 
L 26.148244 75.607579 
L 26.202602 76.039293 
L 26.256961 75.953754 
L 26.31132 75.012584 
L 26.365679 76.135132 
L 26.474397 73.678595 
L 26.637474 76.39686 
L 26.691833 74.800449 
L 26.746192 75.888847 
L 27.017986 74.412002 
L 27.072345 75.763829 
L 27.126704 75.701768 
L 27.181063 74.763615 
L 27.235422 74.947463 
L 27.289781 76.262999 
L 27.34414 73.551876 
L 27.398499 76.561727 
L 27.452858 75.81084 
L 27.507217 75.932126 
L 27.561576 74.840676 
L 27.615935 76.086111 
L 27.670294 74.386076 
L 27.724652 74.946179 
L 27.83337 76.201657 
L 27.887729 75.273288 
L 27.942088 76.750014 
L 27.996447 73.844838 
L 28.050806 76.758063 
L 28.105165 74.869666 
L 28.159524 75.26328 
L 28.213883 75.114726 
L 28.322601 76.976164 
L 28.485677 74.731396 
L 28.540036 75.761078 
L 28.594395 75.135478 
L 28.648754 74.601807 
L 28.703113 76.253109 
L 28.757472 75.467097 
L 28.811831 75.011976 
L 28.974908 76.504948 
L 29.029267 74.964539 
L 29.083626 76.177438 
L 29.137985 76.289942 
L 29.301061 75.8199 
L 29.35542 76.761063 
L 29.464138 74.24145 
L 29.572856 77.179313 
L 29.627215 76.939462 
L 29.681574 74.872957 
L 29.735933 76.255802 
L 29.790292 77.181495 
L 29.844651 74.450687 
L 29.89901 76.104969 
L 30.007727 73.858397 
L 30.062086 76.262438 
L 30.116445 75.47313 
L 30.170804 74.839342 
L 30.279522 75.941206 
L 30.333881 73.638673 
L 30.38824 76.985174 
L 30.442599 76.230397 
L 30.551317 75.205878 
L 30.605676 76.164955 
L 30.660035 74.380542 
L 30.714394 75.629919 
L 30.768752 77.211292 
L 30.823111 76.14441 
L 30.986188 73.919643 
L 31.040547 74.034535 
L 31.312342 77.490338 
L 31.366701 75.864256 
L 31.42106 76.086028 
L 31.475419 76.716377 
L 31.529778 74.821861 
L 31.638495 74.889627 
L 31.692854 75.782043 
L 31.747213 74.432531 
L 31.801572 76.721101 
L 31.855931 74.023177 
L 31.91029 76.073116 
L 31.964649 76.539675 
L 32.019008 75.254385 
L 32.073367 75.645419 
L 32.127726 76.062628 
L 32.182085 75.11841 
L 32.236444 76.776785 
L 32.290803 75.069349 
L 32.345161 74.621687 
L 32.39952 74.941928 
L 32.562597 76.423047 
L 32.616956 75.821592 
L 32.671315 76.511279 
L 32.725674 74.361793 
L 32.780033 75.362694 
L 32.834392 75.713716 
L 32.888751 75.292355 
L 32.94311 76.773055 
L 32.997469 75.000357 
L 33.051828 75.210261 
L 33.160545 76.18048 
L 33.269263 73.870169 
L 33.323622 74.242276 
L 33.541058 77.297237 
L 33.649776 72.428837 
L 33.758494 76.8878 
L 33.812853 75.454832 
L 33.867211 76.205393 
L 33.92157 76.593568 
L 33.975929 78.508752 
L 34.030288 75.108619 
L 34.084647 75.450887 
L 34.193365 76.60802 
L 34.302083 75.21994 
L 34.356442 78.3085 
L 34.46516 74.360374 
L 34.573878 75.927429 
L 34.628236 72.768628 
L 34.682595 76.514575 
L 34.736954 72.660225 
L 34.900031 77.771241 
L 34.95439 74.276445 
L 35.063108 74.349999 
L 35.117467 74.605644 
L 35.171826 76.018405 
L 35.226185 75.651508 
L 35.280544 74.570092 
L 35.334903 76.271218 
L 35.389261 74.086882 
L 35.44362 75.481424 
L 35.497979 74.724236 
L 35.552338 75.482125 
L 35.661056 75.205867 
L 35.715415 76.796402 
L 35.769774 75.827655 
L 35.932851 75.046645 
L 35.98721 76.487071 
L 36.095928 73.844157 
L 36.150286 74.675494 
L 36.259004 76.321257 
L 36.47644 74.20033 
L 36.639517 79.310177 
L 36.802594 74.85136 
L 36.96567 76.270509 
L 37.020029 76.807562 
L 37.074388 75.286805 
L 37.128747 75.45427 
L 37.183106 75.853839 
L 37.237465 73.400431 
L 37.291824 73.680333 
L 37.346183 75.800628 
L 37.400542 73.576107 
L 37.454901 74.85357 
L 37.617978 73.892413 
L 37.726695 76.28709 
L 37.781054 75.495209 
L 37.835413 74.830898 
L 37.889772 77.102191 
L 37.944131 74.808024 
L 37.99849 75.605301 
L 38.161567 73.292322 
L 38.324644 75.890696 
L 38.379003 74.952507 
L 38.433361 76.415175 
L 38.48772 75.450587 
L 38.542079 73.447535 
L 38.596438 77.64846 
L 38.650797 75.927634 
L 38.705156 74.255679 
L 38.759515 75.862889 
L 38.813874 76.109036 
L 38.868233 77.266248 
L 39.03131 74.425764 
L 39.140028 75.853459 
L 39.194386 74.317919 
L 39.248745 77.293519 
L 39.303104 74.688352 
L 39.357463 75.386725 
L 39.52054 78.720258 
L 39.629258 75.279443 
L 39.683617 75.904969 
L 39.737976 75.639837 
L 39.792335 76.417455 
L 39.901053 74.907591 
L 39.955411 75.981045 
L 40.00977 73.101512 
L 40.064129 74.732737 
L 40.118488 73.73504 
L 40.227206 76.840468 
L 40.281565 76.00215 
L 40.335924 77.391874 
L 40.390283 74.982004 
L 40.499001 75.065253 
L 40.55336 77.121213 
L 40.607719 76.427769 
L 40.716436 74.284516 
L 40.879513 75.4109 
L 40.933872 75.326173 
L 41.04259 77.139839 
L 41.096949 75.05403 
L 41.151308 77.594972 
L 41.205667 74.51901 
L 41.260026 74.884488 
L 41.368744 76.555342 
L 41.477461 73.74014 
L 41.586179 77.813455 
L 41.749256 73.808299 
L 41.857974 76.031544 
L 41.912333 74.631245 
L 41.966692 75.368123 
L 42.021051 77.094812 
L 42.129769 73.912349 
L 42.292845 77.501414 
L 42.347204 73.113814 
L 42.401563 73.67784 
L 42.618999 78.381362 
L 42.782076 74.276105 
L 42.836435 74.432141 
L 42.890794 73.780784 
L 43.05387 77.793133 
L 43.162588 75.290969 
L 43.216947 74.126517 
L 43.271306 74.594742 
L 43.325665 76.343513 
L 43.380024 72.9722 
L 43.434383 74.501722 
L 43.488742 77.25449 
L 43.543101 75.444482 
L 43.59746 74.879168 
L 43.651819 76.936037 
L 43.706178 75.122751 
L 43.760536 74.592293 
L 43.814895 76.18034 
L 43.869254 74.827447 
L 43.977972 74.84011 
L 44.032331 73.456166 
L 44.141049 75.304893 
L 44.195408 74.900222 
L 44.249767 76.86641 
L 44.304126 74.932303 
L 44.358485 76.064781 
L 44.412844 75.459343 
L 44.57592 73.109204 
L 44.793356 76.705745 
L 44.902074 75.216466 
L 44.956433 75.257763 
L 45.010792 75.432895 
L 45.065151 74.544485 
L 45.173869 76.30783 
L 45.336945 73.358983 
L 45.500022 76.59786 
L 45.60874 77.006756 
L 45.717458 75.473575 
L 45.771817 74.16636 
L 45.826176 77.081374 
L 45.880535 75.217266 
L 45.934894 74.410352 
L 45.989253 74.970143 
L 46.043611 75.096988 
L 46.152329 76.402068 
L 46.315406 74.37808 
L 46.424124 75.331216 
L 46.478483 74.199358 
L 46.532842 74.639238 
L 46.587201 76.950702 
L 46.64156 75.124249 
L 46.695919 75.292174 
L 46.750278 76.394519 
L 46.804636 75.559969 
L 46.858995 73.338945 
L 47.022072 78.004638 
L 47.13079 73.071616 
L 47.185149 76.657086 
L 47.239508 75.05267 
L 47.402585 76.26513 
L 47.456944 73.730071 
L 47.511303 74.04757 
L 47.565662 76.973504 
L 47.62002 75.497683 
L 47.674379 76.600288 
L 47.728738 73.57244 
L 47.783097 77.415924 
L 47.837456 75.135644 
L 47.946174 75.780525 
L 48.000533 73.408549 
L 48.054892 75.018274 
L 48.109251 76.784658 
L 48.16361 76.266483 
L 48.217969 74.829043 
L 48.272328 76.10234 
L 48.326687 75.898632 
L 48.381045 74.321701 
L 48.435404 76.734594 
L 48.489763 75.193458 
L 48.544122 75.134796 
L 48.598481 76.450781 
L 48.65284 74.230109 
L 48.707199 76.266159 
L 48.761558 76.911178 
L 48.978994 72.233223 
L 49.087712 76.054598 
L 49.14207 74.390743 
L 49.196429 75.560449 
L 49.250788 76.536116 
L 49.413865 74.860627 
L 49.576942 76.946228 
L 49.631301 74.880316 
L 49.68566 75.850726 
L 49.794378 76.407516 
L 49.848737 75.977759 
L 49.903095 74.587288 
L 49.957454 75.140371 
L 50.011813 76.861817 
L 50.066172 71.65723 
L 50.120531 76.768914 
L 50.17489 75.839304 
L 50.229249 77.110691 
L 50.283608 75.948803 
L 50.392326 73.87355 
L 50.555403 76.178114 
L 50.609762 76.589347 
L 50.718479 73.903511 
L 50.772838 76.188394 
L 50.827197 75.950374 
L 50.881556 75.889782 
L 51.044633 74.181405 
L 51.20771 77.025901 
L 51.262069 74.044785 
L 51.316428 75.052962 
L 51.370787 75.093956 
L 51.425145 76.575504 
L 51.588222 74.490456 
L 51.642581 77.086608 
L 51.69694 75.464212 
L 51.751299 74.011927 
L 51.860017 76.659464 
L 51.968735 74.587118 
L 52.023094 74.751336 
L 52.131812 76.338132 
L 52.18617 75.831822 
L 52.240529 74.391073 
L 52.294888 75.309792 
L 52.403606 74.894839 
L 52.457965 75.833273 
L 52.512324 73.751064 
L 52.566683 75.713056 
L 52.621042 74.363262 
L 52.675401 76.73024 
L 52.72976 74.684647 
L 52.784119 75.339004 
L 52.838478 73.803916 
L 52.892837 74.721185 
L 53.001554 76.394628 
L 53.055913 73.869923 
L 53.110272 75.440437 
L 53.164631 75.201875 
L 53.382067 76.9672 
L 53.490785 76.492119 
L 53.545144 76.410132 
L 53.599503 75.064318 
L 53.653862 76.187225 
L 53.762579 74.587839 
L 53.871297 77.201274 
L 53.925656 74.183567 
L 53.980015 75.142156 
L 54.034374 74.323175 
L 54.197451 77.235935 
L 54.25181 74.384954 
L 54.306169 75.241894 
L 54.360528 74.921238 
L 54.523604 76.066383 
L 54.632322 75.170503 
L 54.686681 78.54061 
L 54.74104 75.16301 
L 54.904117 78.009616 
L 55.067194 72.96256 
L 55.175912 75.436626 
L 55.284629 73.213847 
L 55.447706 75.830168 
L 55.502065 75.147152 
L 55.556424 76.092 
L 55.665142 73.917664 
L 55.77386 75.951782 
L 55.882578 74.961282 
L 55.936937 77.351897 
L 55.991295 75.357114 
L 56.045654 75.440129 
L 56.100013 75.769247 
L 56.154372 78.373795 
L 56.208731 77.761476 
L 56.26309 73.841472 
L 56.317449 74.329583 
L 56.480526 76.447373 
L 56.589244 73.290695 
L 56.697962 73.750807 
L 56.806679 75.310434 
L 56.861038 74.116219 
L 56.915397 74.462082 
L 56.969756 76.158017 
L 57.024115 75.913161 
L 57.132833 74.044851 
L 57.241551 76.396953 
L 57.458987 72.41172 
L 57.513345 74.279437 
L 57.676422 75.764598 
L 57.730781 73.579568 
L 57.78514 74.828807 
L 57.839499 75.098098 
L 57.948217 74.527395 
L 58.002576 76.02959 
L 58.056935 75.156664 
L 58.111294 74.846401 
L 58.165653 76.281455 
L 58.220012 75.866553 
L 58.27437 75.788666 
L 58.383088 74.267859 
L 58.491806 77.577011 
L 58.546165 73.891885 
L 58.600524 75.764864 
L 58.654883 74.695706 
L 58.81796 78.045291 
L 58.926678 75.152752 
L 58.981037 75.572523 
L 59.035395 75.095977 
L 59.089754 75.271731 
L 59.252831 76.834611 
L 59.361549 75.111657 
L 59.415908 74.418252 
L 59.470267 75.81615 
L 59.524626 74.75827 
L 59.578985 75.742436 
L 59.633344 75.613296 
L 59.687703 75.215231 
L 59.79642 77.189749 
L 59.850779 74.606625 
L 59.905138 75.839443 
L 59.959497 77.535408 
L 60.068215 77.615874 
L 60.122574 74.696445 
L 60.176933 76.35566 
L 60.231292 73.996545 
L 60.285651 76.380874 
L 60.34001 77.391601 
L 60.448728 73.584033 
L 60.503087 76.558468 
L 60.557445 75.51396 
L 60.666163 75.272868 
L 60.82924 73.594124 
L 60.883599 76.187158 
L 60.937958 74.085931 
L 60.992317 73.89969 
L 61.101035 75.763756 
L 61.155394 75.406873 
L 61.209753 75.497265 
L 61.372829 77.616228 
L 61.535906 75.16897 
L 61.590265 74.870944 
L 61.698983 76.37634 
L 61.753342 75.33544 
L 61.807701 76.967009 
L 61.86206 75.284976 
L 61.916419 73.943382 
L 61.970778 74.243089 
L 62.079495 75.640525 
L 62.133854 75.531884 
L 62.188213 74.339462 
L 62.242572 74.555474 
L 62.296931 76.402057 
L 62.35129 73.716443 
L 62.405649 74.568136 
L 62.460008 76.41115 
L 62.514367 76.007896 
L 62.623085 73.793933 
L 62.677444 75.509237 
L 62.731803 75.209653 
L 62.786162 73.985825 
L 62.894879 76.853514 
L 63.057956 74.770325 
L 63.166674 76.901085 
L 63.329751 75.477715 
L 63.38411 74.354279 
L 63.438469 75.777424 
L 63.492828 74.60956 
L 63.601545 76.245883 
L 63.710263 74.090014 
L 63.764622 76.995863 
L 63.818981 75.381809 
L 63.87334 75.264392 
L 64.036417 76.276485 
L 64.145135 75.15962 
L 64.199494 76.479159 
L 64.253853 74.699119 
L 64.308212 76.031774 
L 64.471288 73.218695 
L 64.525647 75.955487 
L 64.634365 75.878444 
L 64.797442 74.208092 
L 64.960519 76.946862 
L 65.014878 73.539255 
L 65.069237 75.2844 
L 65.177954 74.896766 
L 65.39539 77.091188 
L 65.449749 74.682413 
L 65.558467 74.76966 
L 65.721544 77.011711 
L 65.830262 74.241617 
L 65.884621 76.919502 
L 65.938979 74.480286 
L 65.993338 76.617266 
L 66.047697 74.487695 
L 66.102056 76.19682 
L 66.156415 74.255917 
L 66.210774 75.598375 
L 66.265133 74.658175 
L 66.319492 75.882566 
L 66.373851 75.366515 
L 66.42821 74.589948 
L 66.536928 75.813844 
L 66.591287 74.206564 
L 66.645646 74.396813 
L 66.700004 76.210954 
L 66.754363 76.070267 
L 66.808722 73.274642 
L 66.91744 77.191517 
L 66.971799 75.330952 
L 67.026158 75.391797 
L 67.080517 75.631753 
L 67.189235 75.267533 
L 67.243594 75.774692 
L 67.297953 74.112615 
L 67.352312 75.645486 
L 67.406671 75.562267 
L 67.461029 76.185585 
L 67.515388 74.64666 
L 67.569747 75.967523 
L 67.624106 76.57283 
L 67.678465 74.723818 
L 67.732824 75.284759 
L 67.787183 78.009712 
L 67.841542 75.152473 
L 67.895901 76.124384 
L 67.95026 75.900501 
L 68.004619 76.215866 
L 68.058978 74.727995 
L 68.113337 75.816648 
L 68.167696 77.522347 
L 68.222054 74.609253 
L 68.276413 75.454363 
L 68.330772 76.659367 
L 68.385131 76.619545 
L 68.43949 76.534143 
L 68.602567 75.263475 
L 68.656926 75.86418 
L 68.711285 74.931281 
L 68.765644 76.083663 
L 68.820003 75.067652 
L 68.928721 76.811964 
L 69.091797 74.328997 
L 69.146156 74.068462 
L 69.200515 76.668677 
L 69.254874 75.998536 
L 69.363592 74.967682 
L 69.417951 76.104757 
L 69.47231 76.04866 
L 69.581028 75.70478 
L 69.689746 73.989646 
L 69.744104 77.445925 
L 69.798463 73.614515 
L 69.852822 76.448327 
L 69.96154 74.64864 
L 70.124617 76.502284 
L 70.178976 74.421601 
L 70.233335 74.586133 
L 70.287694 75.68212 
L 70.342053 74.716315 
L 70.559488 77.468078 
L 70.776924 74.176099 
L 70.885642 75.367394 
L 70.940001 74.037756 
L 70.99436 76.899135 
L 71.048719 75.921661 
L 71.157437 74.141896 
L 71.211796 75.027331 
L 71.266154 75.367626 
L 71.320513 73.633676 
L 71.374872 75.810225 
L 71.429231 75.721424 
L 71.48359 75.030411 
L 71.646667 76.866303 
L 71.701026 75.362543 
L 71.755385 75.847748 
L 71.809744 76.221161 
L 71.972821 75.050676 
L 72.027179 75.148 
L 72.190256 73.712341 
L 72.407692 75.716854 
L 72.462051 74.629894 
L 72.51641 76.330628 
L 72.570769 74.643525 
L 72.625128 74.901804 
L 72.679487 77.008887 
L 72.733846 74.843925 
L 72.788204 76.091565 
L 72.842563 75.708856 
L 72.896922 74.169603 
L 72.951281 76.178984 
L 73.059999 76.173797 
L 73.168717 74.61952 
L 73.223076 76.999576 
L 73.277435 74.643571 
L 73.331794 75.90603 
L 73.386153 75.446489 
L 73.440512 75.847522 
L 73.603588 73.940756 
L 73.712306 76.287132 
L 73.875383 74.501204 
L 74.03846 76.516254 
L 74.092819 75.161973 
L 74.147178 75.293213 
L 74.201537 76.212214 
L 74.255896 75.500038 
L 74.473331 74.882849 
L 74.582049 75.961973 
L 74.745126 74.142943 
L 74.799485 74.434055 
L 74.853844 74.492543 
L 74.908203 75.350733 
L 74.962562 74.015606 
L 75.016921 76.59352 
L 75.071279 74.959564 
L 75.234356 76.633846 
L 75.343074 74.457538 
L 75.397433 75.292873 
L 75.451792 75.447368 
L 75.506151 76.616388 
L 75.56051 75.582486 
L 75.614869 76.349775 
L 75.669228 74.36176 
L 75.723587 74.784521 
L 75.832304 76.653483 
L 75.886663 75.96751 
L 75.941022 74.679372 
L 75.995381 75.749046 
L 76.04974 76.461888 
L 76.104099 76.376905 
L 76.267176 75.506586 
L 76.321535 76.066223 
L 76.375894 75.181829 
L 76.430253 76.399329 
L 76.484612 76.238805 
L 76.593329 74.605994 
L 76.702047 76.555934 
L 76.810765 74.69385 
L 76.973842 76.060857 
L 77.136919 74.282731 
L 77.299996 75.971933 
L 77.354354 76.778243 
L 77.408713 76.025744 
L 77.463072 75.997654 
L 77.57179 76.038526 
L 77.626149 74.021525 
L 77.789226 75.545248 
L 77.843585 74.735578 
L 77.897944 75.599344 
L 77.952303 75.420745 
L 78.061021 75.618743 
L 78.115379 76.285624 
L 78.169738 75.680289 
L 78.224097 75.800754 
L 78.278456 76.730818 
L 78.332815 75.116545 
L 78.387174 75.212485 
L 78.441533 76.630021 
L 78.495892 75.231189 
L 78.550251 75.739076 
L 78.60461 74.11781 
L 78.658969 76.70591 
L 78.713328 75.060163 
L 78.767687 76.085366 
L 78.822046 75.783778 
L 78.930763 75.030128 
L 79.039481 76.276503 
L 79.09384 76.043509 
L 79.148199 75.064059 
L 79.202558 75.941217 
L 79.256917 76.190389 
L 79.311276 75.368717 
L 79.365635 75.923025 
L 79.419994 75.941898 
L 79.528712 74.834721 
L 79.637429 75.87493 
L 79.691788 75.782353 
L 79.746147 74.508805 
L 79.800506 75.631035 
L 79.854865 75.553941 
L 79.909224 76.194006 
L 79.963583 74.36661 
L 80.017942 75.383469 
L 80.072301 75.663054 
L 80.12666 76.597996 
L 80.235378 75.055055 
L 80.289737 75.471472 
L 80.344096 76.335521 
L 80.507172 74.706215 
L 80.61589 75.511027 
L 80.670249 74.449964 
L 80.724608 74.659495 
L 80.778967 75.188585 
L 80.833326 75.024456 
L 80.887685 74.379064 
L 80.942044 75.726211 
L 80.996403 74.911101 
L 81.050762 75.507877 
L 81.105121 74.715751 
L 81.15948 75.209173 
L 81.213838 75.123772 
L 81.268197 75.641823 
L 81.322556 75.513823 
L 81.376915 75.092468 
L 81.431274 76.170425 
L 81.539992 74.804213 
L 81.757428 76.344345 
L 81.866146 74.959646 
L 81.920505 75.47259 
L 81.974863 77.179411 
L 82.029222 74.360427 
L 82.083581 75.676156 
L 82.192299 75.718562 
L 82.246658 75.986716 
L 82.355376 74.992806 
L 82.409735 73.801424 
L 82.464094 76.449179 
L 82.518453 75.101696 
L 82.627171 76.152592 
L 82.735888 75.354016 
L 82.790247 75.774767 
L 82.844606 74.645515 
L 82.898965 75.20034 
L 82.953324 75.185338 
L 83.007683 76.006336 
L 83.062042 75.173512 
L 83.116401 75.383113 
L 83.17076 74.165068 
L 83.225119 74.47572 
L 83.279478 74.659121 
L 83.333837 75.836609 
L 83.388196 75.566045 
L 83.442555 75.739697 
L 83.496913 75.210979 
L 83.65999 76.719425 
L 83.768708 75.301933 
L 83.823067 75.541646 
L 83.877426 76.674546 
L 83.931785 75.868938 
L 84.094862 75.08855 
L 84.20358 75.069527 
L 84.257938 75.780287 
L 84.366656 75.085349 
L 84.421015 75.208904 
L 84.584092 76.561629 
L 84.638451 74.517312 
L 84.69281 74.958204 
L 84.855887 75.490717 
L 84.910246 75.058366 
L 84.964605 75.184586 
L 85.018963 75.287336 
L 85.073322 75.871842 
L 85.127681 75.482494 
L 85.290758 74.883747 
L 85.345117 75.484375 
L 85.399476 74.75786 
L 85.453835 75.167277 
L 85.508194 75.002157 
L 85.562553 75.97331 
L 85.616912 75.922944 
L 85.671271 75.24744 
L 85.72563 76.460215 
L 85.779988 75.227694 
L 85.834347 75.044053 
L 85.888706 76.088105 
L 85.943065 75.88073 
L 85.997424 75.395187 
L 86.051783 76.286759 
L 86.106142 75.627481 
L 86.269219 74.688233 
L 86.323578 74.822642 
L 86.432296 76.340439 
L 86.486655 74.914201 
L 86.541013 75.691275 
L 86.595372 74.98168 
L 86.649731 75.120037 
L 86.70409 75.210415 
L 86.758449 74.746875 
L 86.812808 75.790147 
L 86.867167 75.522583 
L 87.030244 75.241426 
L 87.084603 75.35539 
L 87.138962 76.467868 
L 87.24768 74.792718 
L 87.302038 76.124491 
L 87.356397 74.653459 
L 87.410756 75.674121 
L 87.519474 75.650834 
L 87.573833 76.209033 
L 87.682551 75.400533 
L 87.845628 76.021007 
L 88.008705 75.269888 
L 88.063063 75.370995 
L 88.117422 75.070904 
L 88.171781 75.302113 
L 88.22614 75.757359 
L 88.334858 75.271989 
L 88.389217 75.765983 
L 88.443576 75.373549 
L 88.497935 74.424505 
L 88.552294 75.322357 
L 88.606653 75.134865 
L 88.715371 76.005267 
L 88.76973 75.759295 
L 88.824088 75.173388 
L 88.878447 75.223497 
L 88.932806 75.240927 
L 89.041524 76.046491 
L 89.204601 74.857503 
L 89.313319 76.065975 
L 89.367678 74.463363 
L 89.422037 75.471994 
L 89.476396 75.196141 
L 89.530755 75.85539 
L 89.585113 75.794764 
L 89.802549 75.111588 
L 89.856908 74.586682 
L 89.911267 75.901135 
L 89.965626 74.902018 
L 90.074344 75.736956 
L 90.128703 75.604492 
L 90.183062 75.518409 
L 90.237421 75.695991 
L 90.29178 74.787307 
L 90.346138 75.735691 
L 90.400497 75.684535 
L 90.454856 74.895895 
L 90.563574 76.00345 
L 90.617933 75.951223 
L 90.726651 74.590434 
L 90.78101 75.060792 
L 90.998446 76.191685 
L 91.107163 74.674255 
L 91.215881 74.906762 
L 91.324599 75.583833 
L 91.378958 75.509327 
L 91.433317 75.052122 
L 91.487676 76.087329 
L 91.542035 75.280361 
L 91.596394 75.308683 
L 91.759471 76.149844 
L 91.81383 75.323995 
L 91.868188 75.37033 
L 91.976906 75.458905 
L 92.031265 75.689526 
L 92.085624 75.663913 
L 92.139983 75.117293 
L 92.194342 75.395684 
L 92.248701 75.800843 
L 92.411778 74.663475 
L 92.520496 76.032676 
L 92.574855 75.82117 
L 92.629213 75.288905 
L 92.683572 75.387035 
L 92.737931 75.823286 
L 92.79229 75.776193 
L 92.955367 75.17915 
L 93.009726 75.409332 
L 93.064085 75.293945 
L 93.118444 74.946043 
L 93.281521 75.443462 
L 93.33588 75.617557 
L 93.390238 74.436773 
L 93.444597 74.901922 
L 93.498956 75.891155 
L 93.553315 75.488988 
L 93.607674 75.275644 
L 93.662033 75.391845 
L 93.716392 75.628847 
L 93.770751 75.593526 
L 93.82511 75.489065 
L 93.879469 75.599387 
L 93.933828 75.598834 
L 93.988187 74.681524 
L 94.042546 75.909895 
L 94.096905 75.6694 
L 94.151263 75.444542 
L 94.205622 75.459702 
L 94.259981 75.668288 
L 94.368699 75.056728 
L 94.477417 75.142864 
L 94.531776 75.95721 
L 94.586135 75.222254 
L 94.694853 75.458024 
L 94.749212 75.348194 
L 94.85793 75.058099 
L 94.912288 75.100741 
L 95.129724 75.90914 
L 95.238442 75.190728 
L 95.292801 75.216284 
L 95.401519 75.700572 
L 95.455878 75.490654 
L 95.564596 75.61098 
L 95.618955 75.547284 
L 95.673313 76.117407 
L 95.727672 75.40796 
L 95.782031 75.417131 
L 95.83639 76.157094 
L 95.890749 75.680169 
L 95.999467 75.131223 
L 96.053826 75.277477 
L 96.108185 75.768428 
L 96.162544 75.527859 
L 96.216903 75.694091 
L 96.271262 75.670256 
L 96.325621 75.277062 
L 96.37998 75.499829 
L 96.434338 76.099291 
L 96.488697 75.028326 
L 96.543056 75.48778 
L 96.597415 75.317619 
L 96.651774 75.412624 
L 96.706133 76.101724 
L 96.814851 74.532256 
L 96.923569 76.367247 
L 96.977928 74.919384 
L 97.032287 75.350303 
L 97.086646 75.821418 
L 97.141005 74.706173 
L 97.195364 75.718459 
L 97.304081 75.421523 
L 97.412799 75.725382 
L 97.467158 75.676576 
L 97.521517 75.856097 
L 97.630235 75.398621 
L 97.684594 76.100362 
L 97.847671 75.163077 
L 98.010747 75.919761 
L 98.065106 75.295054 
L 98.119465 75.435287 
L 98.173824 75.607333 
L 98.228183 74.971313 
L 98.282542 75.521178 
L 98.39126 75.18029 
L 98.445619 75.305723 
L 98.608696 75.816841 
L 98.717414 75.185095 
L 98.826131 75.614746 
L 98.88049 75.418223 
L 98.934849 75.254228 
L 98.989208 75.786322 
L 99.043567 75.568404 
L 99.152285 75.086368 
L 99.261003 75.161744 
L 99.315362 75.713975 
L 99.369721 75.535021 
L 99.532797 75.101924 
L 99.587156 75.261555 
L 99.695874 75.553842 
L 99.750233 75.146851 
L 99.804592 75.83567 
L 99.858951 75.464698 
L 99.967669 75.388628 
L 100.022028 75.588943 
L 100.076387 75.471488 
L 100.130746 75.524778 
L 100.185105 74.951382 
L 100.239464 75.526802 
L 100.293822 75.117757 
L 100.348181 75.426256 
L 100.456899 75.562094 
L 100.565617 75.875831 
L 100.728694 75.19524 
L 100.783053 75.351897 
L 100.837412 75.857891 
L 100.891771 75.219728 
L 100.94613 75.503179 
L 101.054847 75.401862 
L 101.109206 75.742469 
L 101.163565 75.426149 
L 101.217924 75.626557 
L 101.272283 75.578095 
L 101.326642 75.083603 
L 101.381001 75.594778 
L 101.43536 75.113107 
L 101.598437 75.858726 
L 101.652796 75.49494 
L 101.707155 75.958269 
L 101.761514 75.168526 
L 101.815872 75.695235 
L 101.870231 75.631207 
L 101.92459 76.077557 
L 102.087667 75.293287 
L 102.142026 75.750908 
L 102.196385 75.743142 
L 102.250744 75.098984 
L 102.305103 75.279794 
L 102.359462 75.717823 
L 102.413821 75.271909 
L 102.46818 75.043069 
L 102.522539 75.558805 
L 102.576897 75.303767 
L 102.685615 75.440806 
L 102.739974 75.077273 
L 102.794333 75.459539 
L 102.848692 75.625773 
L 102.903051 75.046284 
L 102.95741 75.704175 
L 103.011769 75.683603 
L 103.174846 75.101418 
L 103.229205 75.710966 
L 103.283564 75.52588 
L 103.337922 75.142091 
L 103.392281 75.22273 
L 103.500999 75.565745 
L 103.555358 75.184291 
L 103.609717 75.20094 
L 103.772794 75.621778 
L 103.881512 75.171178 
L 104.044589 75.725999 
L 104.098947 75.242569 
L 104.153306 75.910535 
L 104.207665 75.529033 
L 104.262024 75.517192 
L 104.370742 75.39773 
L 104.47946 75.427206 
L 104.533819 75.351633 
L 104.642537 75.746509 
L 104.696896 75.42975 
L 104.805614 75.451282 
L 104.859972 75.727196 
L 104.914331 75.646722 
L 104.96869 75.187801 
L 105.023049 75.655223 
L 105.186126 74.98253 
L 105.349203 75.567037 
L 105.566639 75.277896 
L 105.620997 75.503305 
L 105.675356 75.277645 
L 105.784074 75.455129 
L 105.838433 75.803779 
L 105.892792 75.516303 
L 105.947151 75.572772 
L 106.00151 75.323277 
L 106.055869 75.856996 
L 106.110228 75.496018 
L 106.164587 75.420169 
L 106.218946 75.726969 
L 106.273305 75.619955 
L 106.382022 75.231804 
L 106.545099 75.667578 
L 106.653817 75.013426 
L 106.708176 75.074798 
L 106.762535 75.633125 
L 106.816894 75.376376 
L 106.925612 75.294027 
L 106.979971 75.654336 
L 107.03433 75.260818 
L 107.088689 75.344125 
L 107.143047 75.684329 
L 107.197406 75.355612 
L 107.251765 75.298969 
L 107.414842 75.641411 
L 107.469201 75.592113 
L 107.52356 75.377546 
L 107.577919 75.931877 
L 107.632278 75.433017 
L 107.686637 75.246193 
L 107.740996 75.391786 
L 107.795355 75.655056 
L 107.849714 75.621124 
L 108.121508 75.327753 
L 108.230226 75.612079 
L 108.284585 75.327231 
L 108.338944 75.370331 
L 108.393303 75.375958 
L 108.447662 75.602557 
L 108.502021 75.377341 
L 108.719456 75.382507 
L 108.882533 75.240267 
L 108.936892 75.306153 
L 109.04561 75.681438 
L 109.099969 75.194891 
L 109.154328 75.516168 
L 109.208687 75.332601 
L 109.263046 75.516455 
L 109.426122 75.594724 
L 109.53484 75.273319 
L 109.697917 75.571889 
L 109.752276 75.639594 
L 109.806635 75.563366 
L 109.915353 75.339116 
L 109.969712 75.162128 
L 110.132789 75.441568 
L 110.241506 75.229918 
L 110.295865 75.485324 
L 110.350224 75.315614 
L 110.513301 75.567322 
L 110.56766 75.290984 
L 110.622019 75.409152 
L 110.785096 75.658538 
L 110.839455 75.28362 
L 110.893814 75.414092 
L 110.948172 75.487148 
L 111.002531 75.438856 
L 111.111249 75.356116 
L 111.165608 75.598407 
L 111.219967 75.397695 
L 111.274326 75.502734 
L 111.328685 75.143901 
L 111.383044 75.285737 
L 111.437403 75.570047 
L 111.491762 75.149972 
L 111.546121 75.346678 
L 111.60048 75.535107 
L 111.654839 75.376897 
L 111.709197 75.209218 
L 111.763556 75.539993 
L 111.817915 75.443247 
L 112.08971 75.335344 
L 112.198428 75.62488 
L 112.252787 75.519968 
L 112.307146 75.519204 
L 112.361505 75.729662 
L 112.415864 75.548491 
L 112.470222 75.350518 
L 112.524581 75.447417 
L 112.57894 75.398263 
L 112.742017 75.687223 
L 112.850735 75.317788 
L 112.959453 75.544296 
L 113.013812 75.471656 
L 113.12253 75.383955 
L 113.231248 75.513969 
L 113.339965 75.256853 
L 113.394324 75.59399 
L 113.448683 75.370986 
L 113.503042 75.41477 
L 113.61176 75.663381 
L 113.720478 75.307198 
L 113.774837 75.353447 
L 113.829196 75.269837 
L 113.883555 75.385164 
L 113.937914 75.583538 
L 113.992273 75.51436 
L 114.155349 75.455941 
L 114.209708 75.575544 
L 114.264067 75.439478 
L 114.535862 75.506352 
L 114.590221 75.320827 
L 114.64458 75.429141 
L 114.698939 75.353092 
L 114.753298 75.476204 
L 114.807656 75.345659 
L 114.916374 75.306726 
L 115.079451 75.513794 
L 115.568681 75.451433 
L 115.677399 75.512251 
L 115.731758 75.257432 
L 115.786117 75.441751 
L 116.112271 75.356521 
L 116.16663 75.514585 
L 116.220989 75.346065 
L 116.384065 75.455152 
L 116.438424 75.31719 
L 116.492783 75.45286 
L 116.764578 75.236429 
L 116.927655 75.623503 
L 116.982014 75.450568 
L 117.036373 75.477125 
L 117.199449 75.451476 
L 117.308167 75.329558 
L 117.471244 75.47215 
L 118.123551 75.432582 
L 118.232269 75.347264 
L 118.286628 75.437288 
L 118.340987 75.432952 
L 118.395346 75.291351 
L 118.449705 75.397708 
L 118.612781 75.38721 
L 119.265089 75.461142 
L 119.319448 75.595352 
L 119.373806 75.448148 
L 119.428165 75.394378 
L 119.482524 75.574954 
L 119.536883 75.377309 
L 119.69996 75.544758 
L 119.808678 75.365773 
L 119.863037 75.499506 
L 119.917396 75.344235 
L 120.080473 75.54855 
L 120.297908 75.406822 
L 120.406626 75.422155 
L 120.515344 75.425277 
L 120.624062 75.514518 
L 120.787139 75.425331 
L 120.841498 75.47616 
L 120.895856 75.370472 
L 120.950215 75.430259 
L 121.113292 75.506013 
L 121.276369 75.359009 
L 121.439446 75.379029 
L 121.71124 75.44017 
L 127.636364 75.440839 
L 127.636364 75.440839 
" clip-path="url(#p28069ba6b3)" style="fill: none; stroke: #a6d854; stroke-width: 1.5; stroke-linecap: square"/>
   </g>
   <g id="patch_3">
    <path d="M 10.8 133.2 
L 10.8 10.8 
" style="fill: none; stroke: #000000; stroke-width: 0.8; stroke-linejoin: miter; stroke-linecap: square"/>
   </g>
   <g id="patch_4">
    <path d="M 133.2 133.2 
L 133.2 10.8 
" style="fill: none; stroke: #000000; stroke-width: 0.8; stroke-linejoin: miter; stroke-linecap: square"/>
   </g>
   <g id="patch_5">
    <path d="M 10.8 133.2 
L 133.2 133.2 
" style="fill: none; stroke: #000000; stroke-width: 0.8; stroke-linejoin: miter; stroke-linecap: square"/>
   </g>
   <g id="patch_6">
    <path d="M 10.8 10.8 
L 133.2 10.8 
" style="fill: none; stroke: #000000; stroke-width: 0.8; stroke-linejoin: miter; stroke-linecap: square"/>
   </g>
  </g>
 </g>
 <defs>
  <clipPath id="p28069ba6b3">
   <rect x="10.8" y="10.8" width="122.4" height="122.4"/>
  </clipPath>
 </defs>
</svg>
