<?xml version="1.0" encoding="utf-8" standalone="no"?>
<!DOCTYPE svg PUBLIC "-//W3C//DTD SVG 1.1//EN"
  "http://www.w3.org/Graphics/SVG/1.1/DTD/svg11.dtd">
<svg xmlns:xlink="http://www.w3.org/1999/xlink" width="144pt" height="144pt" viewBox="0 0 144 144" xmlns="http://www.w3.org/2000/svg" version="1.1">
 <metadata>
  <rdf:RDF xmlns:dc="http://purl.org/dc/elements/1.1/" xmlns:cc="http://creativecommons.org/ns#" xmlns:rdf="http://www.w3.org/1999/02/22-rdf-syntax-ns#">
   <cc:Work>
    <dc:type rdf:resource="http://purl.org/dc/dcmitype/StillImage"/>
    <dc:date>2025-02-11T14:44:00.525463</dc:date>
    <dc:format>image/svg+xml</dc:format>
    <dc:creator>
     <cc:Agent>
      <dc:title>Matplotlib v3.8.0, https://matplotlib.org/</dc:title>
     </cc:Agent>
    </dc:creator>
   </cc:Work>
  </rdf:RDF>
 </metadata>
 <defs>
  <style type="text/css">*{stroke-linejoin: round; stroke-linecap: butt}</style>
 </defs>
 <g id="figure_1">
  <g id="patch_1">
   <path d="M 0 144 
L 144 144 
L 144 0 
L 0 0 
L 0 144 
z
" style="fill: none"/>
  </g>
  <g id="axes_1">
   <g id="patch_2">
    <path d="M 10.8 133.2 
L 133.2 133.2 
L 133.2 10.8 
L 10.8 10.8 
L 10.8 133.2 
z
" style="fill: none"/>
   </g>
   <g id="matplotlib.axis_1"/>
   <g id="matplotlib.axis_2"/>
   <g id="line2d_1">
    <path d="M 16.363636 65.106334 
L 16.907226 65.164981 
L 16.961585 65.010453 
L 17.015944 65.13721 
L 17.233379 65.197913 
L 17.287738 65.356367 
L 17.342097 64.935268 
L 17.396456 65.141671 
L 17.668251 64.906194 
L 17.776969 65.262716 
L 17.885686 64.941792 
L 18.048763 65.303776 
L 18.157481 65.024072 
L 18.21184 65.292907 
L 18.266199 65.273672 
L 18.374917 65.118717 
L 18.429276 65.491918 
L 18.483635 65.10926 
L 18.537994 64.648131 
L 18.592352 64.883517 
L 18.70107 64.956459 
L 18.755429 65.257918 
L 18.809788 65.044091 
L 18.864147 64.916481 
L 18.918506 64.990301 
L 18.972865 65.489716 
L 19.027224 65.386558 
L 19.190301 65.183838 
L 19.24466 65.456541 
L 19.407736 64.82256 
L 19.516454 64.941478 
L 19.570813 65.238563 
L 19.625172 64.655768 
L 19.679531 65.375624 
L 19.73389 64.809039 
L 19.842608 65.503015 
L 19.896967 65.053345 
L 19.951326 65.064719 
L 20.005685 64.637259 
L 20.060044 64.724847 
L 20.22312 65.588493 
L 20.331838 64.776057 
L 20.386197 65.484057 
L 20.440556 65.247986 
L 20.494915 65.395861 
L 20.603633 64.734048 
L 20.657992 65.656823 
L 20.712351 65.407782 
L 20.929786 64.587137 
L 21.092863 65.836463 
L 21.201581 64.246042 
L 21.25594 65.287236 
L 21.310299 65.017877 
L 21.364658 64.596473 
L 21.419017 65.056538 
L 21.582094 64.134027 
L 21.690811 65.411637 
L 21.74517 64.553829 
L 21.853888 65.80946 
L 21.908247 65.768784 
L 21.962606 64.450346 
L 22.016965 65.179948 
L 22.125683 65.449989 
L 22.234401 64.507854 
L 22.28876 64.836573 
L 22.343119 65.295855 
L 22.397477 65.106017 
L 22.451836 64.631469 
L 22.506195 65.268533 
L 22.560554 65.200133 
L 22.614913 64.444752 
L 22.669272 66.048836 
L 22.723631 65.331623 
L 22.77799 64.583502 
L 22.832349 64.624837 
L 22.886708 66.268463 
L 22.941067 65.01549 
L 22.995426 65.870363 
L 23.049785 64.486834 
L 23.104144 64.991199 
L 23.26722 65.35152 
L 23.321579 64.230239 
L 23.375938 64.875303 
L 23.430297 65.967941 
L 23.484656 65.600576 
L 23.593374 65.614813 
L 23.647733 64.232954 
L 23.756451 66.311107 
L 23.81081 64.719544 
L 23.865169 64.79494 
L 24.028245 65.446472 
L 24.082604 65.266145 
L 24.191322 65.959188 
L 24.463117 64.720804 
L 24.626194 66.527481 
L 24.680552 64.682812 
L 24.734911 65.324371 
L 24.843629 64.310845 
L 24.952347 65.110806 
L 25.006706 64.638283 
L 25.061065 64.790127 
L 25.115424 65.033287 
L 25.169783 65.993986 
L 25.224142 65.160856 
L 25.278501 65.389454 
L 25.33286 63.99582 
L 25.387219 64.191407 
L 25.441577 65.69483 
L 25.495936 64.698786 
L 25.550295 64.535685 
L 25.604654 65.101767 
L 25.659013 64.619846 
L 25.876449 63.724852 
L 25.985167 65.996418 
L 26.039526 64.72542 
L 26.148244 64.78337 
L 26.202602 66.404733 
L 26.256961 64.841202 
L 26.31132 65.152555 
L 26.365679 64.384376 
L 26.474397 66.10476 
L 26.528756 65.813693 
L 26.637474 66.407556 
L 26.746192 64.529164 
L 26.800551 66.731686 
L 26.85491 65.193506 
L 27.072345 63.589502 
L 27.126704 63.749166 
L 27.235422 66.296964 
L 27.34414 64.345899 
L 27.398499 65.733846 
L 27.452858 63.924416 
L 27.507217 64.907082 
L 27.561576 66.139347 
L 27.615935 65.300495 
L 27.670294 65.237366 
L 27.724652 64.975223 
L 27.779011 65.077737 
L 27.83337 65.096481 
L 27.887729 65.337974 
L 27.942088 64.727079 
L 27.996447 65.316593 
L 28.050806 65.64412 
L 28.105165 65.297013 
L 28.213883 64.066585 
L 28.268242 64.081985 
L 28.322601 64.917026 
L 28.37696 63.672113 
L 28.431319 63.918607 
L 28.540036 64.599747 
L 28.703113 63.587725 
L 28.811831 66.239924 
L 28.86619 64.566172 
L 28.920549 64.76504 
L 28.974908 64.793586 
L 29.137985 65.442926 
L 29.192344 65.950886 
L 29.301061 64.991106 
L 29.35542 66.861235 
L 29.409779 64.304067 
L 29.464138 65.775529 
L 29.518497 65.455644 
L 29.572856 64.372036 
L 29.627215 66.206532 
L 29.681574 64.074162 
L 29.735933 66.384205 
L 29.790292 64.752558 
L 29.844651 65.824874 
L 29.89901 65.692056 
L 29.953369 65.559 
L 30.007727 66.492682 
L 30.116445 62.893929 
L 30.170804 63.526536 
L 30.225163 65.239064 
L 30.279522 64.672964 
L 30.496958 65.97833 
L 30.605676 64.732175 
L 30.714394 66.166251 
L 30.823111 64.07306 
L 30.931829 66.166901 
L 31.040547 63.924607 
L 31.094906 66.144423 
L 31.149265 65.996436 
L 31.366701 63.724218 
L 31.475419 65.275564 
L 31.529778 67.030911 
L 31.584136 65.7155 
L 31.638495 65.630037 
L 31.801572 63.185761 
L 31.855931 65.464438 
L 31.91029 65.361929 
L 31.964649 65.152609 
L 32.019008 65.387039 
L 32.073367 65.364555 
L 32.127726 64.571701 
L 32.182085 65.629649 
L 32.236444 65.372982 
L 32.290803 65.472558 
L 32.39952 63.99792 
L 32.562597 65.236125 
L 32.671315 65.938149 
L 32.725674 63.638873 
L 32.780033 65.2287 
L 32.888751 63.847955 
L 33.051828 66.380677 
L 33.214904 63.852634 
L 33.269263 66.103629 
L 33.323622 64.457065 
L 33.377981 64.699386 
L 33.43234 63.552325 
L 33.486699 64.402179 
L 33.649776 65.801474 
L 33.704135 65.369894 
L 33.758494 66.233363 
L 33.812853 65.422775 
L 33.867211 61.920193 
L 33.92157 65.444486 
L 33.975929 65.370784 
L 34.030288 66.384151 
L 34.084647 65.711574 
L 34.139006 65.041356 
L 34.193365 65.233818 
L 34.247724 65.800732 
L 34.410801 64.061048 
L 34.46516 67.186022 
L 34.519519 65.958129 
L 34.628236 64.481808 
L 34.682595 64.953558 
L 34.736954 64.261673 
L 34.791313 64.376327 
L 34.845672 67.795221 
L 34.900031 62.78556 
L 34.95439 64.586835 
L 35.008749 66.277189 
L 35.063108 63.40354 
L 35.117467 64.497398 
L 35.171826 65.775398 
L 35.226185 63.634603 
L 35.280544 65.575251 
L 35.334903 63.985447 
L 35.497979 66.960583 
L 35.552338 61.463004 
L 35.606697 64.977766 
L 35.769774 66.208726 
L 35.824133 64.401578 
L 35.878492 67.102843 
L 35.932851 66.092467 
L 35.98721 63.839435 
L 36.041569 65.663056 
L 36.095928 66.63464 
L 36.150286 62.742429 
L 36.204645 64.242263 
L 36.259004 64.698597 
L 36.313363 67.537931 
L 36.367722 65.849133 
L 36.422081 63.076215 
L 36.47644 63.770978 
L 36.585158 65.06419 
L 36.639517 64.686256 
L 36.693876 64.776522 
L 36.748235 66.981124 
L 36.802594 64.283948 
L 36.856953 66.226168 
L 36.911311 66.022441 
L 36.96567 63.878238 
L 37.020029 65.984617 
L 37.074388 64.931801 
L 37.128747 66.213936 
L 37.291824 64.290024 
L 37.346183 64.168531 
L 37.454901 65.761753 
L 37.617978 64.340603 
L 37.672336 64.546246 
L 37.726695 64.228084 
L 37.781054 64.317013 
L 37.99849 66.504968 
L 38.052849 64.607463 
L 38.107208 65.892509 
L 38.161567 65.332378 
L 38.215926 66.154321 
L 38.270285 65.821729 
L 38.324644 63.118932 
L 38.379003 64.066501 
L 38.433361 65.048918 
L 38.48772 62.658211 
L 38.542079 64.905817 
L 38.596438 65.095252 
L 38.650797 63.125952 
L 38.705156 65.894965 
L 38.759515 64.907176 
L 38.813874 63.220856 
L 38.922592 65.85409 
L 38.976951 63.863782 
L 39.085669 66.356913 
L 39.140028 64.249831 
L 39.194386 65.248735 
L 39.248745 65.649632 
L 39.411822 63.881774 
L 39.466181 66.46587 
L 39.52054 64.697895 
L 39.574899 66.035153 
L 39.629258 63.563914 
L 39.683617 64.390274 
L 39.792335 66.178724 
L 39.846694 65.532994 
L 39.901053 64.65833 
L 39.955411 65.906413 
L 40.00977 65.669144 
L 40.172847 62.419412 
L 40.335924 66.497817 
L 40.390283 63.732288 
L 40.444642 64.783171 
L 40.55336 63.666781 
L 40.607719 64.290114 
L 40.770795 66.676268 
L 40.825154 66.443838 
L 40.879513 66.490445 
L 40.933872 64.149601 
L 40.988231 64.835043 
L 41.096949 67.12418 
L 41.260026 65.107487 
L 41.314385 63.773047 
L 41.368744 63.936612 
L 41.477461 65.159188 
L 41.53182 64.879648 
L 41.640538 62.430564 
L 41.749256 65.029664 
L 41.803615 64.385933 
L 41.857974 64.549963 
L 41.912333 64.544239 
L 42.021051 63.860451 
L 42.07541 65.203054 
L 42.129769 64.989695 
L 42.184128 64.723148 
L 42.238486 65.29538 
L 42.292845 62.601741 
L 42.347204 64.685972 
L 42.401563 65.251804 
L 42.455922 63.498953 
L 42.510281 63.951826 
L 42.618999 64.968368 
L 42.673358 67.16266 
L 42.727717 66.014045 
L 42.890794 65.686868 
L 42.945153 66.156062 
L 42.999511 65.697585 
L 43.05387 65.173168 
L 43.108229 65.357714 
L 43.162588 65.905663 
L 43.216947 65.46264 
L 43.271306 63.031373 
L 43.380024 66.46988 
L 43.434383 64.855164 
L 43.488742 65.299011 
L 43.543101 65.317718 
L 43.651819 63.140716 
L 43.706178 66.533899 
L 43.760536 65.814509 
L 43.814895 63.81711 
L 43.869254 65.008928 
L 43.923613 63.923868 
L 43.977972 65.738855 
L 44.032331 61.679087 
L 44.08669 64.576495 
L 44.141049 65.957928 
L 44.195408 65.39141 
L 44.249767 65.640229 
L 44.304126 64.82187 
L 44.358485 65.861883 
L 44.412844 64.714183 
L 44.467203 64.793926 
L 44.521561 66.74333 
L 44.57592 64.541998 
L 44.630279 64.748545 
L 44.684638 68.609788 
L 44.738997 65.444195 
L 44.793356 63.357653 
L 44.847715 65.520957 
L 44.902074 66.131985 
L 44.956433 64.980653 
L 45.065151 67.995138 
L 45.282586 64.710204 
L 45.445663 66.697914 
L 45.60874 62.367352 
L 45.717458 66.222629 
L 45.771817 63.962847 
L 45.826176 67.11045 
L 45.880535 64.599489 
L 45.989253 66.823719 
L 46.043611 62.833375 
L 46.09797 63.598889 
L 46.152329 63.732231 
L 46.261047 66.150691 
L 46.315406 66.079291 
L 46.369765 65.043489 
L 46.424124 66.194596 
L 46.478483 65.464317 
L 46.64156 63.980087 
L 46.858995 66.608799 
L 46.913354 62.890767 
L 46.967713 64.454933 
L 47.022072 64.529849 
L 47.076431 64.382297 
L 47.13079 64.606145 
L 47.185149 66.022878 
L 47.293867 62.522329 
L 47.348226 65.8025 
L 47.402585 64.524653 
L 47.511303 65.316029 
L 47.565662 64.075348 
L 47.674379 66.840662 
L 47.783097 63.671751 
L 47.837456 64.619915 
L 47.891815 64.208011 
L 47.946174 65.71374 
L 48.000533 62.229259 
L 48.054892 64.355546 
L 48.109251 67.079416 
L 48.16361 62.695567 
L 48.217969 64.345876 
L 48.326687 65.712741 
L 48.381045 65.145632 
L 48.435404 63.605627 
L 48.489763 65.099569 
L 48.598481 64.671099 
L 48.65284 65.341011 
L 48.707199 64.162153 
L 48.761558 65.757034 
L 48.815917 64.494191 
L 48.870276 63.808228 
L 49.087712 66.779522 
L 49.14207 65.907462 
L 49.196429 66.98954 
L 49.305147 64.335264 
L 49.359506 66.937167 
L 49.413865 63.281407 
L 49.468224 64.432929 
L 49.631301 64.787513 
L 49.68566 63.857988 
L 49.740019 65.577674 
L 49.794378 63.214979 
L 49.957454 66.458516 
L 50.011813 63.218444 
L 50.066172 65.832905 
L 50.17489 62.747059 
L 50.283608 65.216799 
L 50.337967 64.891173 
L 50.392326 63.778616 
L 50.555403 65.533296 
L 50.609762 65.809829 
L 50.772838 64.041306 
L 50.827197 63.149199 
L 50.935915 66.110091 
L 50.990274 64.280473 
L 51.044633 63.642109 
L 51.098992 64.91254 
L 51.153351 63.588482 
L 51.20771 63.710992 
L 51.262069 65.866658 
L 51.316428 64.778863 
L 51.370787 63.503425 
L 51.425145 67.981049 
L 51.479504 66.131101 
L 51.533863 65.239377 
L 51.588222 65.971077 
L 51.69694 67.972943 
L 51.751299 63.965976 
L 51.805658 65.250213 
L 51.968735 67.011108 
L 52.023094 64.232021 
L 52.077453 64.706166 
L 52.131812 65.093648 
L 52.18617 64.97446 
L 52.240529 64.728717 
L 52.294888 67.751413 
L 52.349247 63.991573 
L 52.403606 66.12122 
L 52.566683 64.307037 
L 52.621042 65.677788 
L 52.675401 65.238148 
L 52.72976 64.485048 
L 52.784119 64.991234 
L 52.838478 64.577324 
L 52.947195 65.633798 
L 53.055913 64.322383 
L 53.110272 65.83505 
L 53.164631 61.984992 
L 53.21899 64.191931 
L 53.273349 68.21067 
L 53.327708 64.420444 
L 53.436426 66.413466 
L 53.490785 65.838056 
L 53.599503 64.064307 
L 53.70822 65.603125 
L 53.816938 62.210717 
L 53.980015 65.197573 
L 54.034374 65.289537 
L 54.143092 66.83281 
L 54.197451 66.464866 
L 54.25181 62.237713 
L 54.306169 65.448149 
L 54.414887 66.491306 
L 54.469245 63.650793 
L 54.523604 65.872734 
L 54.577963 65.723253 
L 54.632322 66.368455 
L 54.686681 66.006421 
L 54.74104 63.609974 
L 54.849758 67.726022 
L 54.958476 63.628899 
L 55.012835 64.709181 
L 55.067194 63.91476 
L 55.175912 66.363591 
L 55.23027 65.734229 
L 55.284629 63.044114 
L 55.338988 65.567406 
L 55.393347 65.735553 
L 55.502065 64.227127 
L 55.556424 66.522391 
L 55.610783 65.229011 
L 55.665142 65.353317 
L 55.719501 67.865258 
L 55.77386 64.575389 
L 55.828219 64.944983 
L 55.882578 67.753105 
L 55.936937 63.987272 
L 55.991295 64.49241 
L 56.045654 64.402776 
L 56.100013 65.976073 
L 56.208731 63.473742 
L 56.26309 63.94449 
L 56.317449 64.626092 
L 56.371808 60.873422 
L 56.480526 66.988263 
L 56.534885 65.217467 
L 56.589244 66.279562 
L 56.697962 63.831312 
L 56.75232 63.840488 
L 56.806679 62.962787 
L 56.861038 63.669325 
L 56.915397 63.312836 
L 57.078474 66.462495 
L 57.241551 63.483721 
L 57.404628 65.905633 
L 57.458987 64.732254 
L 57.513345 66.773544 
L 57.567704 65.795152 
L 57.622063 64.306852 
L 57.676422 65.20719 
L 57.730781 65.232344 
L 57.78514 66.340953 
L 57.948217 64.827994 
L 58.002576 64.302964 
L 58.111294 67.079078 
L 58.27437 64.18498 
L 58.328729 65.571165 
L 58.383088 65.117315 
L 58.491806 63.753419 
L 58.600524 65.769544 
L 58.654883 65.011493 
L 58.763601 65.032116 
L 58.81796 64.577232 
L 58.872319 66.382798 
L 58.926678 65.380156 
L 58.981037 65.055987 
L 59.035395 65.209846 
L 59.089754 66.671178 
L 59.144113 64.490198 
L 59.198472 66.432634 
L 59.361549 63.756681 
L 59.524626 66.729703 
L 59.578985 66.326252 
L 59.633344 62.366666 
L 59.687703 64.813248 
L 59.742062 64.801658 
L 59.79642 65.466596 
L 59.850779 63.666578 
L 59.959497 66.134071 
L 60.013856 63.733454 
L 60.068215 64.615671 
L 60.122574 64.593712 
L 60.231292 65.596467 
L 60.34001 64.609617 
L 60.394369 65.526524 
L 60.448728 64.990079 
L 60.503087 63.591347 
L 60.557445 64.428475 
L 60.720522 65.482669 
L 60.774881 64.004855 
L 60.82924 67.016224 
L 60.883599 65.627087 
L 60.937958 63.407244 
L 60.992317 64.686385 
L 61.046676 64.308946 
L 61.101035 65.997005 
L 61.155394 65.909478 
L 61.209753 62.667238 
L 61.264112 65.910027 
L 61.481547 62.937998 
L 61.644624 66.662848 
L 61.753342 64.915219 
L 61.807701 65.689315 
L 61.86206 65.571405 
L 62.025137 64.241484 
L 62.133854 65.367493 
L 62.296931 63.937606 
L 62.35129 68.172933 
L 62.405649 65.130085 
L 62.460008 67.508458 
L 62.514367 66.227334 
L 62.786162 62.761382 
L 62.84052 64.38866 
L 62.894879 63.012671 
L 62.949238 63.103827 
L 63.003597 64.619868 
L 63.112315 64.561301 
L 63.166674 64.10867 
L 63.275392 66.659174 
L 63.329751 65.170865 
L 63.38411 66.644363 
L 63.438469 66.571522 
L 63.492828 64.283903 
L 63.547187 64.827632 
L 63.601545 67.219786 
L 63.655904 64.754008 
L 63.710263 65.696695 
L 63.764622 62.732193 
L 63.818981 66.487789 
L 63.87334 65.224958 
L 63.927699 65.218331 
L 63.982058 63.726714 
L 64.090776 66.598665 
L 64.145135 66.106848 
L 64.199494 63.831658 
L 64.253853 67.465717 
L 64.308212 65.258385 
L 64.362571 66.939241 
L 64.416929 64.33236 
L 64.471288 64.867391 
L 64.525647 66.386803 
L 64.580006 65.787807 
L 64.634365 65.708032 
L 64.688724 63.900801 
L 64.743083 65.107539 
L 64.797442 65.193123 
L 64.851801 65.700495 
L 64.90616 64.416879 
L 64.960519 64.616983 
L 65.069237 66.183266 
L 65.123596 65.302675 
L 65.177954 62.591 
L 65.232313 63.891946 
L 65.341031 66.625112 
L 65.504108 64.632479 
L 65.558467 66.89206 
L 65.721544 62.936835 
L 65.775903 64.956579 
L 65.830262 63.645174 
L 65.884621 64.755429 
L 65.938979 62.712559 
L 65.993338 64.621687 
L 66.047697 66.902388 
L 66.102056 64.785788 
L 66.156415 64.277161 
L 66.265133 66.929391 
L 66.319492 66.452766 
L 66.42821 65.70498 
L 66.536928 66.612571 
L 66.591287 63.640051 
L 66.645646 65.604315 
L 66.700004 65.137745 
L 66.754363 66.114245 
L 66.808722 65.904079 
L 66.91744 63.646352 
L 66.971799 64.180906 
L 67.026158 64.290357 
L 67.189235 66.339413 
L 67.352312 63.883238 
L 67.406671 64.781579 
L 67.461029 66.014761 
L 67.515388 64.328791 
L 67.569747 66.013767 
L 67.624106 64.67451 
L 67.678465 64.92128 
L 67.732824 65.062614 
L 67.787183 65.543479 
L 67.895901 64.100298 
L 67.95026 66.606607 
L 68.004619 66.534876 
L 68.167696 64.477559 
L 68.222054 64.782307 
L 68.276413 64.754146 
L 68.330772 64.180734 
L 68.385131 66.213552 
L 68.43949 65.151803 
L 68.493849 64.302011 
L 68.548208 64.774082 
L 68.656926 64.810361 
L 68.765644 63.647955 
L 68.874362 65.52777 
L 68.928721 65.353043 
L 68.983079 64.494807 
L 69.037438 65.528799 
L 69.091797 64.181223 
L 69.200515 66.07785 
L 69.254874 63.339365 
L 69.309233 64.373528 
L 69.363592 66.594539 
L 69.417951 63.924362 
L 69.47231 65.761552 
L 69.526669 66.513649 
L 69.635387 64.347557 
L 69.744104 64.75923 
L 69.798463 67.229253 
L 69.96154 63.480427 
L 70.015899 66.252622 
L 70.070258 64.426119 
L 70.178976 66.047457 
L 70.233335 62.944844 
L 70.287694 64.11898 
L 70.342053 65.432368 
L 70.396412 64.639391 
L 70.450771 65.096515 
L 70.505129 64.686303 
L 70.559488 63.944639 
L 70.613847 64.10003 
L 70.668206 65.585946 
L 70.722565 64.692577 
L 70.776924 65.27746 
L 70.885642 64.214811 
L 70.940001 65.233494 
L 70.99436 64.297894 
L 71.048719 64.248737 
L 71.103078 64.457059 
L 71.157437 66.498101 
L 71.211796 65.221867 
L 71.266154 64.355646 
L 71.374872 66.148347 
L 71.429231 65.477985 
L 71.48359 64.68267 
L 71.592308 64.7042 
L 71.701026 65.784367 
L 71.864103 64.086711 
L 71.918462 66.316889 
L 71.972821 63.982175 
L 72.027179 66.778497 
L 72.081538 65.845243 
L 72.190256 65.857399 
L 72.244615 63.093487 
L 72.298974 63.502997 
L 72.353333 65.48315 
L 72.407692 65.456999 
L 72.51641 65.482625 
L 72.570769 64.640094 
L 72.733846 66.764624 
L 72.896922 65.758557 
L 72.951281 65.088327 
L 73.00564 65.108345 
L 73.059999 66.1585 
L 73.223076 63.652019 
L 73.277435 65.405981 
L 73.331794 65.204633 
L 73.386153 65.173365 
L 73.549229 64.26044 
L 73.603588 63.608978 
L 73.657947 64.221497 
L 73.766665 65.109751 
L 73.875383 64.040568 
L 73.929742 66.316642 
L 73.984101 65.33923 
L 74.03846 64.526431 
L 74.201537 65.678591 
L 74.255896 65.553937 
L 74.310254 66.75415 
L 74.473331 63.728826 
L 74.636408 66.109008 
L 74.690767 63.862511 
L 74.745126 65.736433 
L 74.853844 64.591325 
L 75.016921 66.487224 
L 75.071279 64.771127 
L 75.179997 64.803893 
L 75.288715 64.895817 
L 75.343074 65.502581 
L 75.506151 63.871755 
L 75.669228 66.678517 
L 75.777946 64.636748 
L 75.832304 66.30828 
L 75.886663 64.590862 
L 75.941022 64.209558 
L 76.04974 65.184673 
L 76.104099 64.553945 
L 76.267176 66.781124 
L 76.430253 64.603455 
L 76.484612 65.067985 
L 76.538971 66.615072 
L 76.647688 64.303674 
L 76.702047 64.51299 
L 76.756406 65.742594 
L 76.810765 65.2699 
L 76.865124 64.692681 
L 76.919483 65.266096 
L 76.973842 66.000605 
L 77.028201 65.2365 
L 77.08256 65.281765 
L 77.136919 64.195242 
L 77.191278 66.00031 
L 77.245637 64.001906 
L 77.299996 65.034407 
L 77.408713 64.703266 
L 77.463072 65.906419 
L 77.517431 65.900637 
L 77.680508 64.065754 
L 77.734867 64.344239 
L 77.843585 65.539001 
L 77.897944 64.263581 
L 77.952303 66.337144 
L 78.006662 65.008341 
L 78.061021 65.019812 
L 78.115379 63.729834 
L 78.278456 65.365034 
L 78.332815 66.037792 
L 78.387174 65.506105 
L 78.441533 65.709833 
L 78.550251 64.213826 
L 78.60461 66.084972 
L 78.658969 63.959759 
L 78.713328 65.536612 
L 78.767687 65.123988 
L 78.822046 63.853843 
L 78.876404 66.401094 
L 78.985122 66.345383 
L 79.039481 64.571425 
L 79.09384 65.086818 
L 79.148199 65.734534 
L 79.256917 64.791564 
L 79.419994 66.546828 
L 79.474353 64.858573 
L 79.528712 65.691571 
L 79.583071 66.251874 
L 79.637429 64.728811 
L 79.691788 66.294752 
L 79.746147 64.988542 
L 79.800506 65.81258 
L 79.854865 66.0108 
L 79.909224 64.855163 
L 79.963583 65.531046 
L 80.072301 65.934317 
L 80.12666 64.368975 
L 80.181019 65.862135 
L 80.289737 64.336718 
L 80.452813 66.186857 
L 80.507172 64.25266 
L 80.561531 64.954638 
L 80.670249 64.382856 
L 80.724608 65.467251 
L 80.833326 65.444432 
L 80.887685 65.59824 
L 80.942044 63.890941 
L 80.996403 65.22989 
L 81.15948 63.587984 
L 81.268197 66.259404 
L 81.322556 63.994827 
L 81.376915 64.728073 
L 81.703069 65.652053 
L 81.757428 65.049682 
L 81.811787 65.652993 
L 81.866146 65.546184 
L 81.920505 64.522746 
L 81.974863 66.04503 
L 82.029222 65.258821 
L 82.246658 64.068757 
L 82.355376 65.80611 
L 82.409735 65.682241 
L 82.464094 64.347561 
L 82.518453 64.784799 
L 82.572812 64.585295 
L 82.735888 66.097359 
L 82.790247 65.862292 
L 82.953324 63.905946 
L 83.116401 66.067305 
L 83.17076 63.925422 
L 83.225119 64.791805 
L 83.279478 64.326832 
L 83.333837 64.741464 
L 83.388196 64.941115 
L 83.442555 65.689129 
L 83.496913 65.299683 
L 83.551272 64.905958 
L 83.605631 65.965405 
L 83.65999 65.749542 
L 83.714349 64.759412 
L 83.768708 66.161783 
L 83.823067 65.543719 
L 83.877426 64.955848 
L 83.931785 64.961839 
L 83.986144 65.360317 
L 84.040503 64.382409 
L 84.094862 64.947281 
L 84.20358 65.484867 
L 84.257938 65.201058 
L 84.312297 65.821377 
L 84.366656 64.421419 
L 84.421015 65.902308 
L 84.475374 63.943409 
L 84.529733 64.21146 
L 84.747169 66.659399 
L 84.910246 64.891281 
L 85.018963 65.901596 
L 85.073322 64.816625 
L 85.127681 64.855008 
L 85.18204 64.899249 
L 85.236399 64.811842 
L 85.290758 64.748096 
L 85.345117 65.101593 
L 85.399476 64.495878 
L 85.453835 65.730631 
L 85.508194 64.281281 
L 85.562553 65.203265 
L 85.616912 65.252462 
L 85.671271 65.971306 
L 85.72563 63.984273 
L 85.779988 64.494556 
L 85.997424 66.585076 
L 86.051783 64.942227 
L 86.106142 65.533587 
L 86.160501 65.323462 
L 86.21486 64.434677 
L 86.269219 64.88209 
L 86.377937 65.594392 
L 86.432296 63.350108 
L 86.486655 65.003567 
L 86.541013 65.624434 
L 86.70409 64.627903 
L 86.921526 65.621463 
L 87.030244 64.193187 
L 87.138962 65.513512 
L 87.193321 64.347286 
L 87.24768 65.522167 
L 87.302038 64.894496 
L 87.356397 65.496511 
L 87.410756 65.503084 
L 87.465115 66.205462 
L 87.519474 64.469129 
L 87.573833 65.475099 
L 87.682551 64.953992 
L 87.73691 65.711611 
L 87.791269 65.44 
L 87.845628 64.294896 
L 87.899987 65.560136 
L 87.954346 64.817265 
L 88.008705 64.895836 
L 88.063063 64.718044 
L 88.117422 65.298218 
L 88.171781 64.922431 
L 88.280499 64.810521 
L 88.334858 65.265847 
L 88.389217 64.86609 
L 88.443576 64.144455 
L 88.606653 65.178872 
L 88.76973 64.764936 
L 88.824088 66.225886 
L 88.878447 63.984842 
L 88.932806 64.830165 
L 89.150242 65.723011 
L 89.313319 64.778514 
L 89.367678 65.302575 
L 89.422037 64.741768 
L 89.476396 65.191581 
L 89.530755 66.044683 
L 89.585113 65.681251 
L 89.639472 64.896117 
L 89.693831 64.942025 
L 89.74819 65.323613 
L 89.802549 65.141369 
L 89.856908 65.230683 
L 89.911267 65.177613 
L 90.019985 64.892089 
L 90.074344 65.245749 
L 90.128703 64.404133 
L 90.183062 65.846963 
L 90.237421 65.325553 
L 90.29178 64.800802 
L 90.400497 64.829211 
L 90.454856 64.576346 
L 90.563574 65.40721 
L 90.617933 64.941443 
L 90.726651 64.968116 
L 90.78101 64.674628 
L 90.835369 65.780289 
L 90.889728 64.727471 
L 91.107163 65.730972 
L 91.161522 64.46884 
L 91.215881 65.135007 
L 91.27024 65.642397 
L 91.378958 64.399556 
L 91.433317 65.435991 
L 91.487676 63.986781 
L 91.542035 64.897688 
L 91.596394 64.463548 
L 91.650753 64.576656 
L 91.81383 65.534993 
L 91.868188 64.832034 
L 91.922547 65.171039 
L 91.976906 65.603384 
L 92.031265 65.171617 
L 92.085624 65.294148 
L 92.194342 64.846793 
L 92.248701 65.168363 
L 92.30306 64.395752 
L 92.357419 64.752521 
L 92.411778 64.542686 
L 92.574855 65.913239 
L 92.629213 65.0148 
L 92.683572 65.175594 
L 92.737931 65.79438 
L 92.79229 65.658943 
L 92.901008 64.626656 
L 93.009726 65.465254 
L 93.064085 65.057281 
L 93.118444 64.334609 
L 93.172803 65.178044 
L 93.227162 64.955912 
L 93.281521 64.663386 
L 93.444597 65.907132 
L 93.607674 64.655953 
L 93.716392 65.385137 
L 93.770751 64.645328 
L 93.82511 64.886489 
L 93.879469 64.944498 
L 93.933828 64.753633 
L 93.988187 65.572369 
L 94.042546 65.33573 
L 94.096905 64.259267 
L 94.259981 65.629322 
L 94.31434 64.333029 
L 94.368699 64.788828 
L 94.477417 65.601438 
L 94.586135 65.3952 
L 94.640494 65.101518 
L 94.694853 65.661055 
L 94.803571 64.322249 
L 94.85793 64.980014 
L 94.912288 65.154226 
L 94.966647 64.89511 
L 95.075365 65.353389 
L 95.129724 64.603157 
L 95.184083 65.504972 
L 95.238442 65.138014 
L 95.292801 65.049817 
L 95.34716 65.829473 
L 95.401519 65.482363 
L 95.455878 65.087393 
L 95.510237 65.408834 
L 95.618955 64.673612 
L 95.727672 64.773855 
L 95.782031 64.996003 
L 95.83639 64.805706 
L 95.890749 64.703589 
L 95.945108 65.250475 
L 95.999467 65.011735 
L 96.053826 65.11884 
L 96.108185 64.43234 
L 96.162544 65.381435 
L 96.216903 64.906412 
L 96.434338 65.804413 
L 96.597415 64.58311 
L 96.651774 65.295822 
L 96.706133 65.277669 
L 96.760492 64.569083 
L 96.814851 65.057049 
L 96.86921 66.006323 
L 96.923569 65.422233 
L 96.977928 64.630762 
L 97.032287 65.035851 
L 97.086646 65.362142 
L 97.141005 64.945464 
L 97.195364 65.398797 
L 97.249722 65.110456 
L 97.304081 64.919104 
L 97.35844 65.048775 
L 97.521517 65.664957 
L 97.630235 64.872092 
L 97.684594 65.075799 
L 97.738953 64.768312 
L 97.793312 65.069645 
L 97.847671 65.160168 
L 97.90203 64.643277 
L 97.956389 65.486441 
L 98.010747 65.409754 
L 98.065106 64.923953 
L 98.173824 64.941341 
L 98.228183 64.596779 
L 98.445619 65.465224 
L 98.499978 65.124365 
L 98.554337 65.521366 
L 98.608696 64.859044 
L 98.663055 65.855042 
L 98.717414 64.809409 
L 98.771772 65.424055 
L 98.826131 65.002589 
L 98.88049 65.307062 
L 98.934849 65.293696 
L 98.989208 64.727627 
L 99.043567 65.470177 
L 99.097926 65.018563 
L 99.206644 64.596723 
L 99.261003 65.710814 
L 99.315362 65.101785 
L 99.369721 65.278743 
L 99.42408 65.099863 
L 99.478439 65.114277 
L 99.587156 64.732448 
L 99.695874 65.451142 
L 99.750233 65.413733 
L 99.858951 65.511183 
L 99.91331 64.781365 
L 99.967669 65.069213 
L 100.130746 65.278079 
L 100.293822 64.804611 
L 100.348181 65.320428 
L 100.40254 64.926637 
L 100.456899 64.878083 
L 100.511258 65.58145 
L 100.565617 65.403548 
L 100.619976 64.752964 
L 100.674335 64.902871 
L 100.783053 65.424317 
L 100.94613 64.703438 
L 101.054847 65.366712 
L 101.109206 65.341968 
L 101.163565 65.258185 
L 101.326642 65.666116 
L 101.489719 64.880435 
L 101.544078 64.90502 
L 101.652796 65.177591 
L 101.707155 65.083495 
L 101.92459 64.715923 
L 101.978949 65.545974 
L 102.033308 64.645557 
L 102.087667 65.191255 
L 102.142026 64.979536 
L 102.196385 65.049348 
L 102.46818 65.575584 
L 102.631256 64.8001 
L 102.685615 64.77221 
L 102.739974 64.919478 
L 102.794333 64.66091 
L 102.848692 64.901435 
L 102.903051 65.368841 
L 102.95741 64.999287 
L 103.011769 65.168965 
L 103.120487 64.701801 
L 103.229205 65.580718 
L 103.283564 65.264852 
L 103.337922 64.86768 
L 103.392281 65.196776 
L 103.44664 64.923868 
L 103.500999 65.209486 
L 103.555358 65.276039 
L 103.609717 64.874887 
L 103.664076 65.258871 
L 103.718435 65.338898 
L 103.772794 65.048361 
L 103.935871 65.50588 
L 103.99023 64.711621 
L 104.044589 65.161487 
L 104.098947 65.467228 
L 104.153306 64.914008 
L 104.207665 64.997807 
L 104.316383 65.195118 
L 104.370742 64.996784 
L 104.425101 64.725433 
L 104.47946 65.3146 
L 104.533819 65.231648 
L 104.588178 65.203082 
L 104.751255 64.764244 
L 104.859972 65.401324 
L 104.96869 64.949166 
L 105.023049 65.270925 
L 105.077408 65.155259 
L 105.131767 64.827187 
L 105.240485 65.296676 
L 105.349203 65.08039 
L 105.403562 65.270062 
L 105.457921 65.181328 
L 105.51228 64.839772 
L 105.566639 65.247864 
L 105.620997 64.938328 
L 105.675356 65.133905 
L 105.729715 65.097288 
L 105.892792 64.874178 
L 106.055869 65.273972 
L 106.110228 65.067006 
L 106.164587 65.473501 
L 106.218946 65.224586 
L 106.382022 65.575637 
L 106.436381 64.914666 
L 106.49074 65.058406 
L 106.545099 64.980336 
L 106.599458 65.289593 
L 106.653817 65.151048 
L 106.708176 65.184019 
L 106.762535 64.956458 
L 106.816894 65.172695 
L 106.871253 65.036142 
L 107.03433 65.186489 
L 107.143047 65.025345 
L 107.197406 64.938181 
L 107.251765 65.188165 
L 107.306124 64.899514 
L 107.360483 64.961624 
L 107.52356 65.362678 
L 107.632278 64.925103 
L 107.740996 65.219789 
L 107.904072 64.825076 
L 108.01279 65.422861 
L 108.067149 65.367381 
L 108.230226 64.918023 
L 108.284585 65.124876 
L 108.338944 65.080032 
L 108.393303 64.9571 
L 108.447662 65.029617 
L 108.610739 65.409673 
L 108.665097 64.984572 
L 108.719456 65.158094 
L 108.936892 64.988541 
L 108.991251 65.259858 
L 109.04561 64.743357 
L 109.099969 65.305646 
L 109.154328 64.845093 
L 109.317405 65.23687 
L 109.426122 65.279665 
L 109.480481 65.00271 
L 109.53484 65.489862 
L 109.589199 65.216825 
L 109.697917 64.981624 
L 109.860994 64.844293 
L 109.969712 65.276494 
L 110.132789 64.936147 
L 110.241506 65.252442 
L 110.295865 65.01914 
L 110.350224 64.90697 
L 110.458942 65.296308 
L 110.513301 65.204391 
L 110.676378 65.068632 
L 110.839455 65.120992 
L 111.002531 65.277643 
L 111.165608 65.074079 
L 111.219967 65.051643 
L 111.274326 65.347334 
L 111.328685 64.92527 
L 111.383044 65.309857 
L 111.546121 64.895242 
L 111.654839 65.446851 
L 111.709197 64.95139 
L 111.763556 65.214944 
L 111.817915 65.031755 
L 111.872274 65.117198 
L 112.035351 65.204763 
L 112.144069 65.215249 
L 112.198428 65.049122 
L 112.252787 65.094929 
L 112.470222 65.075563 
L 112.687658 65.282808 
L 112.796376 64.98137 
L 112.850735 65.413923 
L 112.905094 65.109607 
L 112.959453 64.769498 
L 113.068171 65.341204 
L 113.12253 65.176505 
L 113.176889 64.888053 
L 113.231248 65.089328 
L 113.339965 65.162112 
L 113.448683 65.062552 
L 113.503042 65.105249 
L 113.61176 65.068637 
L 113.666119 65.163002 
L 113.720478 64.9977 
L 113.774837 65.022573 
L 113.937914 65.217254 
L 113.992273 65.246037 
L 114.046631 64.751068 
L 114.155349 65.27901 
L 114.264067 65.014772 
L 114.318426 65.121263 
L 114.372785 65.285686 
L 114.481503 64.845894 
L 114.535862 65.009011 
L 114.698939 65.282723 
L 114.807656 64.936338 
L 114.862015 65.355335 
L 114.916374 65.091896 
L 115.079451 64.968167 
L 115.242528 65.172501 
L 115.351246 65.199905 
L 115.405605 65.0928 
L 115.459964 65.128715 
L 115.568681 65.202748 
L 115.731758 64.905805 
L 115.949194 65.138877 
L 116.112271 65.053214 
L 116.329706 65.04339 
L 116.384065 65.231365 
L 116.438424 65.163968 
L 116.492783 65.020166 
L 116.547142 65.128588 
L 116.65586 65.074213 
L 116.710219 65.285764 
L 116.764578 65.095456 
L 116.818937 65.063259 
L 116.927655 65.220534 
L 116.982014 65.064684 
L 117.036373 65.08786 
L 117.090731 65.209737 
L 117.14509 65.130993 
L 117.199449 64.92759 
L 117.253808 65.141808 
L 117.416885 65.009243 
L 117.471244 65.128569 
L 117.525603 65.091951 
L 117.579962 65.032565 
L 117.68868 65.167034 
L 117.851756 65.068042 
L 117.960474 65.140801 
L 118.014833 65.249091 
L 118.069192 65.033005 
L 118.123551 65.082651 
L 118.17791 65.067372 
L 118.232269 65.2381 
L 118.286628 65.168768 
L 118.504064 65.14403 
L 118.66714 65.220834 
L 118.721499 65.023904 
L 118.775858 65.110293 
L 118.884576 65.051828 
L 118.938935 65.218006 
L 118.993294 65.037874 
L 119.156371 65.128501 
L 119.319448 65.032431 
L 119.536883 65.083276 
L 119.69996 65.173137 
L 119.754319 65.031212 
L 119.808678 65.069637 
L 120.515344 65.101914 
L 120.678421 65.089132 
L 120.950215 65.057081 
L 121.004574 65.17202 
L 121.058933 65.059529 
L 121.113292 65.13524 
L 121.167651 65.07078 
L 121.874317 65.16724 
L 122.037394 65.122214 
L 122.25483 65.12612 
L 122.363548 65.107568 
L 122.417906 65.197309 
L 122.472265 65.152252 
L 122.689701 65.10595 
L 127.636364 65.107307 
L 127.636364 65.107307 
" clip-path="url(#pbc9bc127d6)" style="fill: none; stroke: #e78ac3; stroke-width: 1.5; stroke-linecap: square"/>
   </g>
   <g id="patch_3">
    <path d="M 10.8 133.2 
L 10.8 10.8 
" style="fill: none; stroke: #000000; stroke-width: 0.8; stroke-linejoin: miter; stroke-linecap: square"/>
   </g>
   <g id="patch_4">
    <path d="M 133.2 133.2 
L 133.2 10.8 
" style="fill: none; stroke: #000000; stroke-width: 0.8; stroke-linejoin: miter; stroke-linecap: square"/>
   </g>
   <g id="patch_5">
    <path d="M 10.8 133.2 
L 133.2 133.2 
" style="fill: none; stroke: #000000; stroke-width: 0.8; stroke-linejoin: miter; stroke-linecap: square"/>
   </g>
   <g id="patch_6">
    <path d="M 10.8 10.8 
L 133.2 10.8 
" style="fill: none; stroke: #000000; stroke-width: 0.8; stroke-linejoin: miter; stroke-linecap: square"/>
   </g>
  </g>
 </g>
 <defs>
  <clipPath id="pbc9bc127d6">
   <rect x="10.8" y="10.8" width="122.4" height="122.4"/>
  </clipPath>
 </defs>
</svg>
