<?xml version="1.0" encoding="utf-8" standalone="no"?>
<!DOCTYPE svg PUBLIC "-//W3C//DTD SVG 1.1//EN"
  "http://www.w3.org/Graphics/SVG/1.1/DTD/svg11.dtd">
<svg xmlns:xlink="http://www.w3.org/1999/xlink" width="144pt" height="144pt" viewBox="0 0 144 144" xmlns="http://www.w3.org/2000/svg" version="1.1">
 <metadata>
  <rdf:RDF xmlns:dc="http://purl.org/dc/elements/1.1/" xmlns:cc="http://creativecommons.org/ns#" xmlns:rdf="http://www.w3.org/1999/02/22-rdf-syntax-ns#">
   <cc:Work>
    <dc:type rdf:resource="http://purl.org/dc/dcmitype/StillImage"/>
    <dc:date>2025-02-07T11:27:54.827558</dc:date>
    <dc:format>image/svg+xml</dc:format>
    <dc:creator>
     <cc:Agent>
      <dc:title>Matplotlib v3.8.0, https://matplotlib.org/</dc:title>
     </cc:Agent>
    </dc:creator>
   </cc:Work>
  </rdf:RDF>
 </metadata>
 <defs>
  <style type="text/css">*{stroke-linejoin: round; stroke-linecap: butt}</style>
 </defs>
 <g id="figure_1">
  <g id="patch_1">
   <path d="M 0 144 
L 144 144 
L 144 0 
L 0 0 
L 0 144 
z
" style="fill: none"/>
  </g>
  <g id="axes_1">
   <g id="patch_2">
    <path d="M 10.8 133.2 
L 133.2 133.2 
L 133.2 10.8 
L 10.8 10.8 
L 10.8 133.2 
z
" style="fill: none"/>
   </g>
   <g id="matplotlib.axis_1"/>
   <g id="matplotlib.axis_2"/>
   <g id="line2d_1">
    <path d="M 16.363636 86.678168 
L 16.417995 59.922363 
L 16.472354 68.843883 
L 16.581072 55.197591 
L 16.744149 85.348637 
L 16.852867 72.181654 
L 16.961585 82.524617 
L 17.015944 55.250035 
L 17.070302 96.182386 
L 17.124661 90.50158 
L 17.17902 68.11647 
L 17.233379 72.796482 
L 17.342097 120.344258 
L 17.559533 57.385373 
L 17.668251 101.840526 
L 17.72261 82.244928 
L 17.776969 68.442106 
L 17.831327 70.914276 
L 17.885686 74.685146 
L 17.940045 92.150446 
L 18.103122 48.157598 
L 18.157481 86.038819 
L 18.21184 64.538519 
L 18.266199 81.996434 
L 18.320558 66.629731 
L 18.374917 59.434102 
L 18.429276 35.577557 
L 18.592352 83.502266 
L 18.646711 67.469353 
L 18.70107 86.689799 
L 18.755429 85.778358 
L 18.809788 71.973211 
L 18.864147 77.763752 
L 18.918506 80.646928 
L 18.972865 103.738494 
L 19.027224 51.641166 
L 19.081583 95.237683 
L 19.190301 73.136386 
L 19.407736 104.594795 
L 19.462095 102.044219 
L 19.516454 67.267711 
L 19.570813 68.818882 
L 19.625172 70.768003 
L 19.679531 88.130744 
L 19.73389 83.123205 
L 19.788249 77.457621 
L 19.842608 90.747864 
L 19.896967 88.638362 
L 19.951326 87.454003 
L 20.060044 72.260209 
L 20.114402 112.735666 
L 20.168761 74.131464 
L 20.331838 101.074822 
L 20.603633 60.095927 
L 20.657992 78.307895 
L 20.712351 49.624259 
L 20.76671 120.081859 
L 20.821069 76.136553 
L 20.875427 68.749529 
L 20.929786 107.957132 
L 20.984145 50.534113 
L 21.038504 74.048976 
L 21.092863 72.488219 
L 21.147222 98.249666 
L 21.201581 78.114039 
L 21.25594 90.745439 
L 21.310299 21.217052 
L 21.364658 62.397599 
L 21.473376 89.684341 
L 21.527735 65.460379 
L 21.582094 84.503458 
L 21.636452 78.289595 
L 21.799529 93.77897 
L 21.853888 93.102909 
L 21.908247 102.001509 
L 22.016965 62.255092 
L 22.071324 128.293619 
L 22.125683 110.974623 
L 22.28876 50.917955 
L 22.397477 88.690666 
L 22.451836 85.502646 
L 22.506195 60.642792 
L 22.560554 85.777063 
L 22.614913 88.603117 
L 22.669272 41.040297 
L 22.723631 70.559659 
L 22.832349 116.213235 
L 22.941067 72.349309 
L 22.995426 77.519331 
L 23.049785 64.94706 
L 23.104144 109.17521 
L 23.158502 47.316564 
L 23.212861 97.301831 
L 23.321579 66.722769 
L 23.375938 85.047272 
L 23.430297 58.627396 
L 23.484656 69.667356 
L 23.593374 104.885803 
L 23.81081 69.484067 
L 23.865169 71.32546 
L 23.919527 84.311137 
L 23.973886 79.344565 
L 24.028245 43.427429 
L 24.136963 96.867266 
L 24.191322 96.854539 
L 24.30004 51.0465 
L 24.354399 67.854619 
L 24.408758 80.69168 
L 24.463117 68.024052 
L 24.517476 68.788612 
L 24.571835 97.439074 
L 24.626194 82.542065 
L 24.78927 58.526926 
L 24.843629 58.689621 
L 24.897988 99.852393 
L 24.952347 59.909632 
L 25.006706 85.424467 
L 25.061065 53.216965 
L 25.115424 100.831583 
L 25.169783 83.475734 
L 25.224142 52.569119 
L 25.278501 75.232128 
L 25.33286 65.519909 
L 25.387219 69.103356 
L 25.441577 65.949522 
L 25.495936 50.228431 
L 25.604654 94.272037 
L 25.767731 53.420211 
L 25.876449 93.924452 
L 26.039526 61.162813 
L 26.093885 72.443292 
L 26.148244 71.144685 
L 26.202602 60.088799 
L 26.256961 62.340276 
L 26.31132 86.331898 
L 26.365679 57.859784 
L 26.474397 119.687098 
L 26.637474 51.736197 
L 26.691833 91.254068 
L 26.746192 64.42334 
L 27.017986 100.239339 
L 27.072345 67.68627 
L 27.126704 69.200709 
L 27.181063 91.573861 
L 27.235422 87.148895 
L 27.289781 56.005274 
L 27.34414 119.925413 
L 27.398499 49.14399 
L 27.452858 66.792959 
L 27.507217 64.001031 
L 27.561576 89.364039 
L 27.615935 60.526309 
L 27.670294 99.730883 
L 27.724652 86.790865 
L 27.83337 58.109438 
L 27.887729 79.244014 
L 27.942088 45.829893 
L 27.996447 111.411884 
L 28.050806 45.857041 
L 28.105165 88.224227 
L 28.159524 79.401019 
L 28.213883 82.689248 
L 28.322601 41.548175 
L 28.485677 90.944598 
L 28.540036 68.465753 
L 28.594395 82.069907 
L 28.648754 93.595593 
L 28.703113 57.922483 
L 28.757472 74.876375 
L 28.811831 84.630489 
L 28.974908 52.85643 
L 29.029267 85.517907 
L 29.083626 59.905446 
L 29.137985 57.588388 
L 29.301061 67.544402 
L 29.35542 48.022143 
L 29.464138 100.199996 
L 29.572856 39.766959 
L 29.627215 44.779673 
L 29.681574 87.025307 
L 29.735933 58.864682 
L 29.790292 40.139199 
L 29.844651 95.463733 
L 29.89901 62.049395 
L 30.007727 107.167412 
L 30.062086 59.015073 
L 30.116445 74.797081 
L 30.170804 87.398902 
L 30.279522 65.548384 
L 30.333881 110.972417 
L 30.38824 45.075952 
L 30.442599 59.958681 
L 30.551317 80.023271 
L 30.605676 61.356211 
L 30.660035 96.009557 
L 30.714394 71.782591 
L 30.768752 41.27689 
L 30.823111 61.899783 
L 30.986188 104.491093 
L 31.040547 102.228176 
L 31.312342 36.891876 
L 31.366701 67.496579 
L 31.42106 63.365529 
L 31.475419 51.626626 
L 31.529778 86.968875 
L 31.638495 85.657055 
L 31.692854 69.132153 
L 31.747213 94.039323 
L 31.801572 51.882335 
L 31.855931 101.465891 
L 31.91029 63.861024 
L 31.964649 55.363435 
L 32.019008 78.839705 
L 32.073367 71.720223 
L 32.127726 64.158713 
L 32.182085 81.277762 
L 32.236444 51.311526 
L 32.290803 82.135285 
L 32.345161 90.16902 
L 32.39952 84.390959 
L 32.562597 57.938177 
L 32.616956 68.6709 
L 32.671315 56.449717 
L 32.725674 94.542872 
L 32.780033 76.821213 
L 32.834392 70.631093 
L 32.888751 78.052404 
L 32.94311 52.059708 
L 32.997469 83.155085 
L 33.051828 79.470448 
L 33.160545 62.569078 
L 33.269263 102.661129 
L 33.323622 96.169469 
L 33.541058 43.596465 
L 33.649776 126.90077 
L 33.758494 50.817902 
L 33.812853 75.2032 
L 33.867211 62.481653 
L 33.92157 55.940328 
L 33.975929 23.642538 
L 34.030288 81.039144 
L 34.084647 75.271842 
L 34.193365 55.885461 
L 34.302083 79.127854 
L 34.356442 27.667022 
L 34.46516 93.373661 
L 34.573878 67.394608 
L 34.628236 119.547274 
L 34.682595 57.75059 
L 34.736954 121.16929 
L 34.900031 37.323094 
L 34.95439 94.452524 
L 35.063108 93.188519 
L 35.117467 89.005347 
L 35.171826 66.076952 
L 35.226185 72.031276 
L 35.280544 89.50895 
L 35.334903 62.048081 
L 35.389261 97.240619 
L 35.44362 74.788505 
L 35.497979 86.9394 
L 35.552338 74.77949 
L 35.661056 79.192163 
L 35.715415 53.835476 
L 35.769774 69.285891 
L 35.932851 81.682272 
L 35.98721 58.902453 
L 36.095928 100.598874 
L 36.150286 87.480576 
L 36.259004 61.635066 
L 36.47644 94.771029 
L 36.639517 15.426592 
L 36.802594 84.541974 
L 36.911311 84.640153 
L 36.96567 62.689077 
L 37.020029 54.466075 
L 37.074388 77.801261 
L 37.128747 75.235327 
L 37.183106 69.130683 
L 37.237465 106.570292 
L 37.291824 102.260847 
L 37.346183 69.967675 
L 37.400542 103.766508 
L 37.454901 84.348761 
L 37.617978 98.827807 
L 37.726695 62.695252 
L 37.781054 74.623107 
L 37.835413 84.601707 
L 37.889772 50.523076 
L 37.944131 84.919026 
L 37.99849 72.980943 
L 38.161567 107.445972 
L 38.324644 68.766499 
L 38.379003 82.676391 
L 38.433361 61.023302 
L 38.48772 75.296793 
L 38.542079 104.85896 
L 38.596438 42.9022 
L 38.650797 68.275169 
L 38.705156 92.863992 
L 38.759515 69.244213 
L 38.813874 65.642799 
L 38.868233 48.708207 
L 39.03131 90.250134 
L 39.140028 69.435997 
L 39.194386 91.762424 
L 39.248745 48.545437 
L 39.303104 86.351308 
L 39.357463 76.224495 
L 39.52054 28.122259 
L 39.629258 77.764046 
L 39.683617 68.767895 
L 39.737976 72.58316 
L 39.792335 61.432836 
L 39.901053 83.071557 
L 39.955411 67.719536 
L 40.00977 108.8388 
L 40.064129 85.538591 
L 40.118488 99.738202 
L 40.227206 55.549888 
L 40.281565 67.472738 
L 40.335924 47.776002 
L 40.390283 81.93964 
L 40.499001 80.748712 
L 40.55336 51.719609 
L 40.607719 61.524017 
L 40.716436 91.710726 
L 40.879513 75.860736 
L 40.933872 77.047294 
L 41.04259 51.688501 
L 41.096949 80.84281 
L 41.151308 45.388951 
L 41.205667 88.287665 
L 41.260026 83.186223 
L 41.368744 59.957012 
L 41.477461 99.020417 
L 41.586179 42.611995 
L 41.749256 97.961807 
L 41.857974 67.308166 
L 41.912333 86.576179 
L 41.966692 76.440019 
L 42.021051 52.73611 
L 42.129769 96.382467 
L 42.292845 47.290036 
L 42.347204 107.201693 
L 42.401563 99.480802 
L 42.618999 35.493489 
L 42.782076 91.220448 
L 42.836435 89.094108 
L 42.890794 97.890277 
L 43.05387 43.715328 
L 43.162588 77.45858 
L 43.216947 93.120325 
L 43.271306 86.81209 
L 43.325665 63.31976 
L 43.380024 108.560979 
L 43.434383 88.029517 
L 43.488742 51.150048 
L 43.543101 75.392086 
L 43.59746 82.950682 
L 43.651819 55.466136 
L 43.706178 79.686681 
L 43.760536 86.757761 
L 43.814895 65.586453 
L 43.869254 83.607962 
L 43.977972 83.426203 
L 44.032331 101.801128 
L 44.08669 77.239545 
L 44.141049 77.243545 
L 44.195408 82.603868 
L 44.249767 56.567563 
L 44.304126 82.168035 
L 44.358485 67.193539 
L 44.412844 75.196441 
L 44.57592 106.163984 
L 44.793356 58.824804 
L 44.902074 78.383776 
L 44.956433 77.840307 
L 45.010792 75.544876 
L 45.065151 87.171296 
L 45.173869 64.111417 
L 45.336945 102.586002 
L 45.500022 60.387054 
L 45.60874 55.09592 
L 45.717458 75.016119 
L 45.771817 91.964478 
L 45.826176 54.186061 
L 45.880535 78.335447 
L 45.934894 88.773441 
L 45.989253 81.526616 
L 46.043611 79.883571 
L 46.152329 63.038053 
L 46.315406 89.126257 
L 46.424124 76.850627 
L 46.478483 91.396222 
L 46.532842 85.736236 
L 46.587201 56.061392 
L 46.64156 79.501734 
L 46.695919 77.346547 
L 46.750278 63.223629 
L 46.804636 73.915677 
L 46.858995 102.33334 
L 47.022072 42.699878 
L 47.13079 105.659731 
L 47.185149 59.937368 
L 47.239508 80.38582 
L 47.402585 64.958934 
L 47.456944 97.182472 
L 47.511303 93.136997 
L 47.565662 55.985648 
L 47.62002 74.719703 
L 47.674379 60.740333 
L 47.728738 99.116314 
L 47.783097 50.427912 
L 47.837456 79.303687 
L 47.946174 71.146333 
L 48.000533 101.119745 
L 48.054892 80.77715 
L 48.109251 58.480078 
L 48.16361 65.025907 
L 48.217969 83.153966 
L 48.272328 67.105639 
L 48.326687 69.675604 
L 48.381045 89.52712 
L 48.435404 59.165504 
L 48.489763 78.551206 
L 48.544122 79.286716 
L 48.598481 62.756192 
L 48.65284 90.639313 
L 48.707199 65.085915 
L 48.761558 57.00278 
L 48.978994 115.581567 
L 49.087712 67.767919 
L 49.14207 88.562054 
L 49.196429 73.947028 
L 49.250788 61.768708 
L 49.413865 82.672856 
L 49.576942 56.704145 
L 49.631301 82.414019 
L 49.68566 70.344067 
L 49.794378 63.4319 
L 49.848737 68.773838 
L 49.903095 86.034583 
L 49.957454 79.168338 
L 50.011813 57.820741 
L 50.066172 122.336181 
L 50.120531 58.987667 
L 50.17489 70.506577 
L 50.229249 54.772026 
L 50.283608 69.156245 
L 50.392326 94.814494 
L 50.555403 66.339046 
L 50.609762 61.268372 
L 50.718479 94.39522 
L 50.772838 66.227793 
L 50.827197 69.163825 
L 50.881556 69.912557 
L 51.044633 90.93043 
L 51.20771 55.969923 
L 51.262069 92.583176 
L 51.316428 80.201753 
L 51.370787 79.696915 
L 51.425145 61.524527 
L 51.588222 87.083547 
L 51.642581 55.286936 
L 51.69694 75.154723 
L 51.751299 92.925987 
L 51.860017 60.539977 
L 51.968735 85.872162 
L 52.023094 83.862589 
L 52.131812 64.488959 
L 52.18617 70.670407 
L 52.240529 88.24465 
L 52.294888 77.038638 
L 52.403606 82.093358 
L 52.457965 70.661023 
L 52.512324 96.015147 
L 52.566683 72.127507 
L 52.621042 88.55232 
L 52.675401 59.75722 
L 52.72976 84.635728 
L 52.784119 76.678687 
L 52.838478 95.331896 
L 52.892837 84.182869 
L 53.001554 63.862081 
L 53.055913 94.505315 
L 53.110272 75.44572 
L 53.164631 78.339067 
L 53.382067 56.951442 
L 53.490785 62.713925 
L 53.545144 63.709955 
L 53.599503 79.996354 
L 53.653862 66.412995 
L 53.762579 85.752266 
L 53.871297 54.172068 
L 53.925656 90.626353 
L 53.980015 79.047376 
L 54.034374 88.932641 
L 54.197451 53.789174 
L 54.25181 88.173048 
L 54.306169 77.83915 
L 54.360528 81.70304 
L 54.523604 67.907686 
L 54.632322 78.694731 
L 54.686681 38.139977 
L 54.74104 78.78324 
L 54.904117 44.560021 
L 55.067194 105.212446 
L 55.175912 75.49143 
L 55.284629 102.169024 
L 55.447706 70.771283 
L 55.502065 78.962506 
L 55.556424 67.634312 
L 55.665142 93.693773 
L 55.77386 69.320546 
L 55.882578 81.182814 
L 55.936937 52.563463 
L 55.991295 76.442912 
L 56.045654 75.449335 
L 56.100013 71.511797 
L 56.154372 40.358132 
L 56.208731 47.687789 
L 56.26309 94.564387 
L 56.317449 88.725555 
L 56.480526 63.414743 
L 56.589244 101.12154 
L 56.697962 95.618954 
L 56.806679 76.997271 
L 56.861038 91.247963 
L 56.915397 87.118699 
L 56.969756 66.885382 
L 57.024115 69.80728 
L 57.132833 92.085937 
L 57.241551 64.044185 
L 57.458987 111.525264 
L 57.513345 89.274026 
L 57.622063 89.362942 
L 57.676422 71.586289 
L 57.730781 97.597339 
L 57.78514 82.72544 
L 57.839499 79.519691 
L 57.948217 86.30855 
L 58.002576 68.437077 
L 58.056935 78.820937 
L 58.111294 82.510445 
L 58.165653 65.444716 
L 58.220012 70.379121 
L 58.27437 71.305701 
L 58.383088 89.382507 
L 58.491806 50.056852 
L 58.546165 93.844885 
L 58.600524 71.59133 
L 58.654883 84.292259 
L 58.81796 44.51243 
L 58.926678 78.861245 
L 58.981037 73.877535 
L 59.035395 79.534516 
L 59.089754 77.448047 
L 59.252831 58.902226 
L 59.361549 79.346263 
L 59.415908 87.571793 
L 59.470267 70.9889 
L 59.524626 83.536825 
L 59.578985 71.863869 
L 59.633344 73.395637 
L 59.687703 78.11616 
L 59.79642 54.704839 
L 59.850779 85.331017 
L 59.905138 70.715449 
L 59.959497 50.611711 
L 60.068215 49.661233 
L 60.122574 84.263215 
L 60.176933 64.599275 
L 60.231292 92.556188 
L 60.285651 64.301764 
L 60.34001 52.326326 
L 60.448728 97.439712 
L 60.503087 62.200196 
L 60.557445 74.574609 
L 60.666163 77.430523 
L 60.82924 97.31303 
L 60.883599 66.601913 
L 60.937958 91.486893 
L 60.992317 93.691855 
L 61.101035 71.616975 
L 61.155394 75.843038 
L 61.209753 74.772701 
L 61.372829 49.684355 
L 61.535906 78.659539 
L 61.590265 82.187779 
L 61.698983 64.3659 
L 61.753342 76.688584 
L 61.807701 57.37377 
L 61.86206 77.285952 
L 61.916419 93.16761 
L 61.970778 89.61958 
L 62.079495 73.077029 
L 62.133854 74.363087 
L 62.188213 88.478487 
L 62.242572 85.921419 
L 62.296931 64.062342 
L 62.35129 95.853562 
L 62.405649 85.771587 
L 62.460008 63.954576 
L 62.514367 68.72814 
L 62.623085 94.936902 
L 62.677444 74.631137 
L 62.731803 78.177688 
L 62.786162 92.665936 
L 62.894879 58.716435 
L 63.057956 83.379419 
L 63.166674 58.151394 
L 63.329751 75.004193 
L 63.38411 88.307253 
L 63.438469 71.455069 
L 63.492828 85.284993 
L 63.601545 65.906688 
L 63.710263 91.439902 
L 63.764622 57.022522 
L 63.818981 76.140041 
L 63.87334 77.530926 
L 64.036417 65.540923 
L 64.145135 78.772775 
L 64.199494 63.137989 
L 64.253853 84.229807 
L 64.308212 68.438216 
L 64.471288 101.777919 
L 64.525647 69.34082 
L 64.634365 70.253351 
L 64.797442 90.05703 
L 64.960519 57.580802 
L 65.014878 97.993493 
L 65.069237 77.296332 
L 65.177954 81.894955 
L 65.39539 55.857193 
L 65.449749 84.441345 
L 65.558467 83.407306 
L 65.721544 56.790663 
L 65.830262 89.681205 
L 65.884621 57.880561 
L 65.938979 86.849235 
L 65.993338 61.467185 
L 66.047697 86.76343 
L 66.102056 66.459502 
L 66.156415 89.519563 
L 66.210774 73.568883 
L 66.265133 84.742002 
L 66.319492 70.190824 
L 66.373851 76.324291 
L 66.42821 85.556002 
L 66.536928 71.005696 
L 66.591287 90.118354 
L 66.645646 87.857367 
L 66.700004 66.280885 
L 66.754363 67.953405 
L 66.808722 101.212067 
L 66.91744 54.608161 
L 66.971799 76.748623 
L 67.026158 76.024575 
L 67.080517 73.168191 
L 67.189235 77.5044 
L 67.243594 71.465156 
L 67.297953 91.259982 
L 67.352312 73.003188 
L 67.406671 73.994264 
L 67.461029 66.56749 
L 67.515388 84.904406 
L 67.569747 69.163963 
L 67.624106 61.948267 
L 67.678465 83.988402 
L 67.732824 77.301721 
L 67.787183 44.809082 
L 67.841542 78.879846 
L 67.895901 67.287842 
L 67.95026 69.957439 
L 68.004619 66.19407 
L 68.058978 83.946923 
L 68.113337 70.955817 
L 68.167696 50.595822 
L 68.222054 85.368169 
L 68.276413 75.279365 
L 68.330772 60.889942 
L 68.385131 61.363364 
L 68.43949 62.381343 
L 68.602567 77.560433 
L 68.656926 70.380917 
L 68.711285 81.53222 
L 68.765644 67.755153 
L 68.820003 79.903431 
L 68.928721 59.039571 
L 69.091797 88.747159 
L 69.146156 91.867917 
L 69.200515 60.741392 
L 69.254874 68.763071 
L 69.363592 81.108271 
L 69.417951 67.487115 
L 69.47231 68.157898 
L 69.581028 72.277172 
L 69.689746 92.841378 
L 69.744104 51.394549 
L 69.798463 97.347249 
L 69.852822 63.35402 
L 69.96154 84.948313 
L 70.124617 62.694949 
L 70.178976 87.682201 
L 70.233335 85.708067 
L 70.287694 72.541879 
L 70.342053 84.147553 
L 70.559488 51.060321 
L 70.776924 90.66325 
L 70.885642 76.32518 
L 70.940001 92.338568 
L 70.99436 57.874591 
L 71.048719 69.647802 
L 71.157437 91.097225 
L 71.211796 80.425959 
L 71.266154 76.323656 
L 71.320513 97.236557 
L 71.374872 70.984832 
L 71.429231 72.055342 
L 71.48359 80.394053 
L 71.646667 58.226641 
L 71.701026 76.386561 
L 71.755385 70.52478 
L 71.809744 66.011336 
L 71.972821 80.158742 
L 72.027179 78.98268 
L 72.190256 96.360881 
L 72.407692 72.097171 
L 72.462051 85.266978 
L 72.51641 64.656851 
L 72.570769 85.106315 
L 72.625128 81.976846 
L 72.679487 56.423195 
L 72.733846 82.682054 
L 72.788204 67.544955 
L 72.842563 72.187953 
L 72.896922 90.873343 
L 72.951281 66.477792 
L 73.059999 66.536479 
L 73.168717 85.42352 
L 73.223076 56.490615 
L 73.277435 85.135948 
L 73.331794 69.782527 
L 73.386153 75.372102 
L 73.440512 70.49173 
L 73.603588 93.709737 
L 73.712306 65.128983 
L 73.875383 86.898811 
L 74.03846 62.317018 
L 74.092819 78.844864 
L 74.147178 77.243334 
L 74.201537 66.020014 
L 74.255896 74.717649 
L 74.473331 82.264601 
L 74.582049 69.064392 
L 74.745126 91.334357 
L 74.799485 87.772865 
L 74.853844 87.059605 
L 74.908203 76.545143 
L 74.962562 92.91271 
L 75.016921 61.306295 
L 75.071279 81.344015 
L 75.234356 60.795598 
L 75.343074 87.518495 
L 75.397433 77.258783 
L 75.451792 75.360596 
L 75.506151 60.989658 
L 75.56051 73.699061 
L 75.614869 64.260824 
L 75.669228 88.717412 
L 75.723587 83.51823 
L 75.832304 60.508106 
L 75.886663 68.953444 
L 75.941022 84.823102 
L 75.995381 71.642225 
L 76.04974 62.852882 
L 76.104099 63.897226 
L 76.267176 74.629332 
L 76.321535 67.719521 
L 76.375894 78.639666 
L 76.430253 63.599803 
L 76.484612 65.579964 
L 76.593329 85.763606 
L 76.702047 61.644546 
L 76.810765 84.688384 
L 76.973842 67.758179 
L 77.136919 89.804157 
L 77.299996 68.847917 
L 77.354354 58.833341 
L 77.408713 68.175409 
L 77.463072 68.522182 
L 77.57179 68.009692 
L 77.626149 93.092962 
L 77.789226 74.141072 
L 77.843585 84.223289 
L 77.897944 73.466391 
L 77.952303 75.691231 
L 78.006662 75.174191 
L 78.061021 73.222618 
L 78.115379 64.904165 
L 78.169738 72.453314 
L 78.224097 70.948879 
L 78.278456 59.335919 
L 78.332815 79.490836 
L 78.387174 78.293606 
L 78.441533 60.579926 
L 78.495892 78.061643 
L 78.550251 71.711423 
L 78.60461 91.990563 
L 78.658969 59.610931 
L 78.713328 80.205817 
L 78.767687 67.37055 
L 78.822046 71.145401 
L 78.930763 80.588553 
L 79.039481 64.959969 
L 79.09384 67.879659 
L 79.148199 80.169555 
L 79.202558 69.158838 
L 79.256917 66.027467 
L 79.311276 76.346903 
L 79.365635 69.381142 
L 79.419994 69.141839 
L 79.528712 83.065718 
L 79.637429 69.97634 
L 79.691788 71.14027 
L 79.746147 87.181623 
L 79.800506 73.044134 
L 79.854865 74.015124 
L 79.909224 65.943509 
L 79.963583 88.991358 
L 80.017942 76.16477 
L 80.072301 72.635853 
L 80.12666 60.829173 
L 80.235378 80.315591 
L 80.289737 75.053634 
L 80.344096 64.127838 
L 80.507172 84.739673 
L 80.61589 74.551781 
L 80.670249 87.996469 
L 80.724608 85.344929 
L 80.778967 78.639471 
L 80.833326 80.722516 
L 80.887685 88.913843 
L 80.942044 71.818435 
L 80.996403 82.167525 
L 81.050762 74.589283 
L 81.105121 84.654639 
L 81.15948 78.385709 
L 81.213838 79.47273 
L 81.268197 72.884176 
L 81.322556 74.512103 
L 81.376915 79.875565 
L 81.431274 66.149974 
L 81.539992 83.553753 
L 81.757428 63.910245 
L 81.866146 81.586318 
L 81.920505 75.035195 
L 81.974863 53.220793 
L 82.029222 89.254237 
L 82.083581 72.431137 
L 82.13794 72.864528 
L 82.192299 71.886163 
L 82.246658 68.45141 
L 82.355376 81.181698 
L 82.409735 96.455193 
L 82.464094 62.510966 
L 82.518453 79.791262 
L 82.627171 66.303934 
L 82.735888 76.556233 
L 82.790247 71.149371 
L 82.844606 85.665763 
L 82.898965 78.53392 
L 82.953324 78.728089 
L 83.007683 68.162494 
L 83.062042 78.882813 
L 83.116401 76.184369 
L 83.17076 91.87941 
L 83.225119 87.881275 
L 83.279478 85.521022 
L 83.333837 70.3355 
L 83.388196 73.825103 
L 83.442555 71.582733 
L 83.496913 78.409347 
L 83.65999 58.909883 
L 83.768708 77.238134 
L 83.823067 74.136005 
L 83.877426 59.465818 
L 83.931785 69.895362 
L 84.094862 80.009541 
L 84.20358 80.25995 
L 84.257938 71.033598 
L 84.366656 80.059932 
L 84.421015 78.455661 
L 84.584092 60.855261 
L 84.638451 87.463963 
L 84.69281 81.72655 
L 84.855887 74.790481 
L 84.910246 80.429823 
L 84.964605 78.784713 
L 85.018963 77.44469 
L 85.073322 69.812259 
L 85.127681 74.896643 
L 85.290758 82.727436 
L 85.345117 74.87118 
L 85.399476 84.381011 
L 85.453835 79.023171 
L 85.508194 81.187687 
L 85.562553 68.462591 
L 85.616912 69.120174 
L 85.671271 77.977409 
L 85.72563 62.0657 
L 85.779988 78.238605 
L 85.834347 80.651147 
L 85.888706 66.938055 
L 85.943065 69.659941 
L 85.997424 76.041025 
L 86.051783 64.315232 
L 86.106142 72.985138 
L 86.269219 85.354902 
L 86.323578 83.587574 
L 86.432296 63.576266 
L 86.486655 82.389295 
L 86.541013 72.135278 
L 86.595372 81.50382 
L 86.649731 79.678566 
L 86.70409 78.485907 
L 86.758449 84.61529 
L 86.812808 70.821009 
L 86.867167 74.359288 
L 87.030244 78.082437 
L 87.084603 76.573233 
L 87.138962 61.824986 
L 87.24768 84.040236 
L 87.302038 66.366371 
L 87.356397 85.896368 
L 87.410756 72.341864 
L 87.465115 72.936702 
L 87.519474 72.648974 
L 87.573833 65.223613 
L 87.682551 75.977363 
L 87.73691 67.613684 
L 87.845628 67.708812 
L 88.008705 77.721913 
L 88.063063 76.373175 
L 88.117422 80.381052 
L 88.171781 77.294176 
L 88.22614 71.210515 
L 88.334858 77.699374 
L 88.389217 71.089953 
L 88.443576 76.341637 
L 88.497935 89.051879 
L 88.552294 77.02823 
L 88.606653 79.541868 
L 88.715371 67.869544 
L 88.76973 71.167298 
L 88.824088 79.03139 
L 88.878447 78.359856 
L 88.932806 78.126867 
L 89.041524 67.296649 
L 89.204601 83.29457 
L 89.313319 67.017464 
L 89.367678 88.617208 
L 89.422037 75.020706 
L 89.476396 78.742072 
L 89.530755 69.845833 
L 89.585113 70.66212 
L 89.802549 79.8937 
L 89.856908 86.99735 
L 89.911267 69.210609 
L 89.965626 82.736922 
L 90.074344 71.427893 
L 90.128703 73.222122 
L 90.183062 74.388751 
L 90.237421 71.978792 
L 90.29178 84.311982 
L 90.346138 71.436835 
L 90.400497 72.130154 
L 90.454856 82.847107 
L 90.563574 67.7882 
L 90.617933 68.495741 
L 90.726651 87.022304 
L 90.78101 80.618738 
L 90.998446 65.194264 
L 91.107163 85.910777 
L 91.215881 82.741206 
L 91.324599 73.484637 
L 91.378958 74.503515 
L 91.433317 80.762982 
L 91.487676 66.585766 
L 91.542035 77.63984 
L 91.596394 77.252488 
L 91.759471 65.709572 
L 91.81383 77.045213 
L 91.868188 76.409392 
L 91.976906 75.192479 
L 92.031265 72.02056 
L 92.085624 72.371575 
L 92.139983 79.894323 
L 92.194342 76.062633 
L 92.248701 70.481475 
L 92.411778 86.162833 
L 92.520496 67.271123 
L 92.574855 70.1886 
L 92.629213 77.539857 
L 92.683572 76.184461 
L 92.737931 70.152925 
L 92.79229 70.802168 
L 92.955367 79.064995 
L 93.009726 75.877359 
L 93.064085 77.476846 
L 93.118444 82.301673 
L 93.281521 75.404424 
L 93.33588 72.986486 
L 93.390238 89.391482 
L 93.444597 82.931666 
L 93.498956 69.179018 
L 93.553315 74.77104 
L 93.607674 77.739803 
L 93.662033 76.122945 
L 93.716392 72.822286 
L 93.770751 73.31337 
L 93.82511 74.768615 
L 93.879469 73.229925 
L 93.933828 73.236739 
L 93.988187 86.037872 
L 94.042546 68.892033 
L 94.096905 72.248467 
L 94.151263 75.389103 
L 94.205622 75.177164 
L 94.259981 72.260158 
L 94.368699 80.816607 
L 94.477417 79.614449 
L 94.531776 68.205354 
L 94.586135 78.50492 
L 94.694853 75.199754 
L 94.749212 76.74108 
L 94.85793 80.816732 
L 94.912288 80.219693 
L 95.129724 68.850105 
L 95.238442 78.963625 
L 95.292801 78.604926 
L 95.401519 71.778192 
L 95.455878 74.738099 
L 95.564596 73.038748 
L 95.618955 73.937427 
L 95.673313 65.881344 
L 95.727672 75.905582 
L 95.782031 75.776091 
L 95.83639 65.308684 
L 95.890749 72.053951 
L 95.999467 79.825823 
L 96.053826 77.755379 
L 96.108185 70.797708 
L 96.162544 74.206963 
L 96.216903 71.848529 
L 96.271262 72.18537 
L 96.325621 77.765772 
L 96.37998 74.603112 
L 96.434338 66.086396 
L 96.488697 81.303561 
L 96.543056 74.773449 
L 96.597415 77.19343 
L 96.651774 75.842306 
L 96.706133 66.033714 
L 96.814851 88.383679 
L 96.923569 62.233981 
L 96.977928 82.877545 
L 97.032287 76.732514 
L 97.086646 70.009095 
L 97.141005 85.930232 
L 97.195364 71.47554 
L 97.304081 75.716947 
L 97.412799 71.370506 
L 97.467158 72.067391 
L 97.521517 69.496159 
L 97.630235 76.045674 
L 97.684594 65.988707 
L 97.847671 79.42613 
L 98.010747 68.561657 
L 98.065106 77.535662 
L 98.119465 75.520651 
L 98.173824 73.046677 
L 98.228183 82.195048 
L 98.282542 74.284726 
L 98.39126 79.193009 
L 98.445619 77.387366 
L 98.608696 70.018105 
L 98.717414 79.131891 
L 98.826131 72.929093 
L 98.88049 75.767598 
L 98.934849 78.138011 
L 98.989208 70.445622 
L 99.043567 73.595759 
L 99.152285 80.571526 
L 99.261003 79.483403 
L 99.315362 71.483192 
L 99.369721 74.075686 
L 99.532797 80.358552 
L 99.587156 78.043201 
L 99.695874 73.799419 
L 99.750233 79.712635 
L 99.804592 69.701747 
L 99.858951 75.093917 
L 99.91331 75.185401 
L 99.967669 76.200553 
L 100.022028 73.285082 
L 100.076387 74.994574 
L 100.130746 74.218209 
L 100.185105 82.572585 
L 100.239464 74.187868 
L 100.293822 80.151591 
L 100.348181 75.653544 
L 100.40254 75.454421 
L 100.565617 69.087635 
L 100.728694 79.031504 
L 100.783053 76.741609 
L 100.837412 69.339467 
L 100.891771 78.676714 
L 100.94613 74.528212 
L 101.054847 76.011818 
L 101.109206 71.020786 
L 101.163565 75.656181 
L 101.217924 72.717582 
L 101.272283 73.427539 
L 101.326642 80.682543 
L 101.381001 73.181381 
L 101.43536 80.252742 
L 101.598437 69.299367 
L 101.652796 74.645493 
L 101.707155 67.831602 
L 101.761514 79.446699 
L 101.815872 71.697378 
L 101.870231 72.638672 
L 101.92459 66.065585 
L 102.087667 77.615481 
L 102.142026 70.869606 
L 102.196385 70.982727 
L 102.250744 80.483779 
L 102.305103 77.817258 
L 102.359462 71.352371 
L 102.413821 77.935122 
L 102.46818 81.315762 
L 102.522539 73.698005 
L 102.576897 77.466558 
L 102.685615 75.441334 
L 102.739974 80.818606 
L 102.848692 72.703733 
L 102.903051 81.282155 
L 102.95741 71.541069 
L 103.011769 71.844665 
L 103.174846 80.473185 
L 103.229205 71.434715 
L 103.283564 74.179282 
L 103.337922 79.873961 
L 103.392281 78.678266 
L 103.500999 73.585805 
L 103.555358 79.252035 
L 103.609717 79.005687 
L 103.718435 75.429629 
L 103.772794 72.749908 
L 103.881512 79.453454 
L 104.044589 71.194178 
L 104.098947 78.394303 
L 104.153306 68.442302 
L 104.207665 74.126395 
L 104.262024 74.302566 
L 104.316383 76.27206 
L 104.370742 76.083846 
L 104.425101 75.305265 
L 104.47946 75.644294 
L 104.533819 76.772445 
L 104.642537 70.875677 
L 104.696896 75.606502 
L 104.751255 73.518005 
L 104.805614 75.284753 
L 104.859972 71.159843 
L 104.914331 72.362149 
L 104.96869 79.225599 
L 105.023049 72.233462 
L 105.186126 82.302514 
L 105.349203 73.550098 
L 105.403562 75.416006 
L 105.457921 73.395633 
L 105.566639 77.884389 
L 105.620997 74.503866 
L 105.675356 77.88926 
L 105.729715 77.460738 
L 105.838433 69.991946 
L 105.892792 74.307638 
L 105.947151 73.459227 
L 106.00151 77.206987 
L 106.055869 69.187516 
L 106.110228 74.611525 
L 106.164587 75.751571 
L 106.218946 71.138603 
L 106.273305 72.747091 
L 106.382022 78.58585 
L 106.545099 72.027379 
L 106.653817 81.877954 
L 106.708176 80.954738 
L 106.762535 72.543752 
L 106.816894 76.412261 
L 106.871253 76.494476 
L 106.925612 77.65408 
L 106.979971 72.221701 
L 107.03433 78.155738 
L 107.088689 76.89966 
L 107.143047 71.767412 
L 107.197406 76.726859 
L 107.251765 77.581954 
L 107.414842 72.412171 
L 107.469201 73.156182 
L 107.52356 76.396913 
L 107.577919 68.022252 
L 107.632278 75.559041 
L 107.686637 78.382533 
L 107.740996 76.182298 
L 107.795355 72.202303 
L 107.849714 72.71484 
L 108.121508 77.152098 
L 108.230226 72.84878 
L 108.284585 77.160785 
L 108.338944 76.508437 
L 108.393303 76.423383 
L 108.447662 72.991499 
L 108.502021 76.402711 
L 108.665097 75.851205 
L 108.719456 76.324937 
L 108.773815 78.443891 
L 108.828174 76.007072 
L 108.882533 78.481943 
L 108.936892 77.483228 
L 109.04561 71.791491 
L 109.099969 79.171776 
L 109.154328 74.297989 
L 109.208687 77.083156 
L 109.263046 74.293376 
L 109.317405 74.405027 
L 109.371764 74.921045 
L 109.426122 73.104876 
L 109.53484 77.984332 
L 109.697917 73.450488 
L 109.752276 72.421893 
L 109.915353 76.986367 
L 109.969712 79.675813 
L 110.132789 75.429768 
L 110.241506 78.647094 
L 110.295865 74.76456 
L 110.350224 77.344699 
L 110.513301 73.517459 
L 110.56766 77.719791 
L 110.622019 75.922753 
L 110.676378 75.189527 
L 110.730737 76.328961 
L 110.785096 72.129334 
L 110.839455 77.832507 
L 110.893814 75.847743 
L 110.948172 74.736307 
L 111.002531 75.471014 
L 111.05689 75.448749 
L 111.111249 76.729985 
L 111.165608 73.043175 
L 111.219967 76.097384 
L 111.274326 74.498933 
L 111.328685 79.959772 
L 111.383044 77.801328 
L 111.437403 73.474372 
L 111.491762 79.867811 
L 111.546121 76.874008 
L 111.60048 74.006021 
L 111.654839 76.414106 
L 111.709197 78.966432 
L 111.763556 73.931559 
L 111.817915 75.404186 
L 111.872274 76.163825 
L 111.926633 74.641765 
L 112.08971 77.04675 
L 112.198428 72.639247 
L 112.252787 74.236285 
L 112.307146 74.24793 
L 112.361505 71.044247 
L 112.415864 73.802121 
L 112.470222 76.815722 
L 112.524581 75.340717 
L 112.57894 76.088921 
L 112.742017 71.690697 
L 112.850735 77.313678 
L 112.959453 73.866332 
L 113.013812 74.971853 
L 113.12253 76.306464 
L 113.176889 74.060552 
L 113.231248 74.328099 
L 113.339965 78.240098 
L 113.394324 73.11085 
L 113.448683 76.503503 
L 113.503042 75.837408 
L 113.61176 72.055945 
L 113.720478 77.473273 
L 113.774837 76.769822 
L 113.829196 78.041093 
L 113.937914 73.271283 
L 113.992273 74.323143 
L 114.10099 75.564407 
L 114.155349 75.211317 
L 114.209708 73.393702 
L 114.264067 75.461524 
L 114.318426 75.260103 
L 114.427144 74.802157 
L 114.481503 75.304937 
L 114.535862 74.445815 
L 114.590221 77.263421 
L 114.64458 75.618476 
L 114.698939 76.773121 
L 114.753298 74.903947 
L 114.916374 77.476132 
L 114.970733 74.241253 
L 115.079451 74.334111 
L 115.242528 74.982253 
L 115.296887 75.721418 
L 115.351246 75.007906 
L 115.459964 76.062194 
L 115.62304 74.074889 
L 115.677399 74.359263 
L 115.731758 78.21818 
L 115.786117 75.42703 
L 115.949194 76.594379 
L 116.057912 75.19023 
L 116.112271 76.716109 
L 116.16663 74.325679 
L 116.220989 76.87371 
L 116.275348 75.709082 
L 116.384065 75.22457 
L 116.438424 77.308812 
L 116.492783 75.259283 
L 116.601501 77.951315 
L 116.65586 76.051357 
L 116.710219 77.268239 
L 116.764578 78.524994 
L 116.927655 72.68663 
L 116.982014 75.294184 
L 117.036373 74.893979 
L 117.090731 74.712761 
L 117.14509 73.879991 
L 117.308167 77.115956 
L 117.471244 74.969875 
L 117.525603 74.917015 
L 117.579962 73.752755 
L 117.634321 74.311432 
L 117.743039 76.365358 
L 117.797398 74.011398 
L 117.851756 74.893666 
L 117.960474 75.071261 
L 118.014833 74.691047 
L 118.232269 76.842951 
L 118.286628 75.494034 
L 118.340987 75.558948 
L 118.395346 77.678716 
L 118.449705 76.08632 
L 118.558423 75.029301 
L 118.612781 76.242683 
L 118.66714 76.196369 
L 118.721499 76.008197 
L 118.775858 75.288503 
L 118.884576 76.867126 
L 118.938935 76.556688 
L 118.993294 74.840308 
L 119.047653 77.41139 
L 119.102012 75.038306 
L 119.21073 75.91965 
L 119.319448 73.140717 
L 119.428165 76.131982 
L 119.482524 73.446524 
L 119.536883 76.385199 
L 119.591242 75.280474 
L 119.645601 75.612278 
L 119.69996 73.897844 
L 119.754319 75.552743 
L 119.808678 76.554572 
L 119.863037 74.570745 
L 119.917396 76.873019 
L 119.971755 75.201839 
L 120.080473 73.845879 
L 120.297908 75.943733 
L 120.352267 75.39021 
L 120.406626 75.716826 
L 120.460985 76.278412 
L 120.624062 74.354341 
L 120.787139 75.669226 
L 120.841498 74.920884 
L 120.895856 76.476241 
L 120.950215 75.596447 
L 121.113292 74.483579 
L 121.276369 76.641076 
L 121.330728 75.837846 
L 121.385087 77.140128 
L 121.439446 76.34616 
L 121.493805 75.860088 
L 121.548164 73.767674 
L 121.602523 75.522284 
L 121.656881 74.935116 
L 121.71124 75.450623 
L 121.819958 75.417391 
L 121.874317 75.179705 
L 121.983035 76.114301 
L 122.037394 75.177015 
L 122.091753 76.225115 
L 122.146112 75.472834 
L 122.200471 75.971773 
L 122.363548 74.77771 
L 122.580983 75.838187 
L 122.635342 75.736425 
L 122.798419 74.569608 
L 122.961496 75.914901 
L 123.015855 75.49729 
L 123.070214 76.022366 
L 123.23329 74.877404 
L 123.287649 75.427 
L 123.342008 75.036245 
L 123.396367 75.174278 
L 123.450726 75.819872 
L 123.505085 75.223486 
L 123.559444 75.005149 
L 123.668162 75.626775 
L 123.722521 75.135888 
L 123.77688 75.986747 
L 123.831239 75.688913 
L 123.885598 74.63975 
L 123.939956 75.328803 
L 124.103033 75.53107 
L 124.157392 75.579782 
L 124.26611 75.142032 
L 124.320469 75.793565 
L 124.374828 75.767844 
L 124.483546 75.353686 
L 124.537905 76.026932 
L 124.592264 75.082794 
L 124.646623 75.356945 
L 124.700981 75.898388 
L 124.75534 75.117203 
L 124.809699 75.60505 
L 124.918417 75.82525 
L 124.972776 75.165206 
L 125.027135 75.727988 
L 125.135853 75.321225 
L 125.190212 75.406892 
L 125.244571 75.866963 
L 125.29893 75.174655 
L 125.353289 75.785448 
L 125.407648 75.415368 
L 125.462006 75.731264 
L 125.570724 75.130478 
L 125.733801 75.577086 
L 125.951237 75.209103 
L 126.005596 75.30652 
L 126.059955 75.47631 
L 126.114314 75.32355 
L 126.168673 75.208495 
L 126.223031 75.449559 
L 126.27739 75.399181 
L 126.440467 75.538073 
L 126.494826 75.308554 
L 126.549185 75.53936 
L 126.603544 75.608547 
L 126.766621 75.352022 
L 126.929698 75.499133 
L 127.038415 75.368432 
L 127.092774 75.513091 
L 127.147133 75.439853 
L 127.31021 75.436059 
L 127.527646 75.433772 
L 127.636364 75.44263 
L 127.636364 75.44263 
" clip-path="url(#pf2c25927e0)" style="fill: none; stroke: #a6d854; stroke-width: 1.5; stroke-linecap: square"/>
   </g>
   <g id="patch_3">
    <path d="M 10.8 133.2 
L 10.8 10.8 
" style="fill: none; stroke: #000000; stroke-width: 0.8; stroke-linejoin: miter; stroke-linecap: square"/>
   </g>
   <g id="patch_4">
    <path d="M 133.2 133.2 
L 133.2 10.8 
" style="fill: none; stroke: #000000; stroke-width: 0.8; stroke-linejoin: miter; stroke-linecap: square"/>
   </g>
   <g id="patch_5">
    <path d="M 10.8 133.2 
L 133.2 133.2 
" style="fill: none; stroke: #000000; stroke-width: 0.8; stroke-linejoin: miter; stroke-linecap: square"/>
   </g>
   <g id="patch_6">
    <path d="M 10.8 10.8 
L 133.2 10.8 
" style="fill: none; stroke: #000000; stroke-width: 0.8; stroke-linejoin: miter; stroke-linecap: square"/>
   </g>
  </g>
 </g>
 <defs>
  <clipPath id="pf2c25927e0">
   <rect x="10.8" y="10.8" width="122.4" height="122.4"/>
  </clipPath>
 </defs>
</svg>
