<?xml version="1.0" encoding="utf-8" standalone="no"?>
<!DOCTYPE svg PUBLIC "-//W3C//DTD SVG 1.1//EN"
  "http://www.w3.org/Graphics/SVG/1.1/DTD/svg11.dtd">
<svg xmlns:xlink="http://www.w3.org/1999/xlink" width="144pt" height="144pt" viewBox="0 0 144 144" xmlns="http://www.w3.org/2000/svg" version="1.1">
 <metadata>
  <rdf:RDF xmlns:dc="http://purl.org/dc/elements/1.1/" xmlns:cc="http://creativecommons.org/ns#" xmlns:rdf="http://www.w3.org/1999/02/22-rdf-syntax-ns#">
   <cc:Work>
    <dc:type rdf:resource="http://purl.org/dc/dcmitype/StillImage"/>
    <dc:date>2025-02-11T14:44:00.704566</dc:date>
    <dc:format>image/svg+xml</dc:format>
    <dc:creator>
     <cc:Agent>
      <dc:title>Matplotlib v3.8.0, https://matplotlib.org/</dc:title>
     </cc:Agent>
    </dc:creator>
   </cc:Work>
  </rdf:RDF>
 </metadata>
 <defs>
  <style type="text/css">*{stroke-linejoin: round; stroke-linecap: butt}</style>
 </defs>
 <g id="figure_1">
  <g id="patch_1">
   <path d="M 0 144 
L 144 144 
L 144 0 
L 0 0 
L 0 144 
z
" style="fill: none"/>
  </g>
  <g id="axes_1">
   <g id="patch_2">
    <path d="M 10.8 133.2 
L 133.2 133.2 
L 133.2 10.8 
L 10.8 10.8 
L 10.8 133.2 
z
" style="fill: none"/>
   </g>
   <g id="matplotlib.axis_1"/>
   <g id="matplotlib.axis_2"/>
   <g id="line2d_1">
    <path d="M 16.363636 65.107631 
L 16.907226 65.05098 
L 16.961585 65.202507 
L 17.015944 65.077745 
L 17.233379 65.016029 
L 17.287738 64.855391 
L 17.342097 65.281985 
L 17.396456 65.072287 
L 17.668251 65.315698 
L 17.776969 64.945286 
L 17.885686 65.280883 
L 18.048763 64.899505 
L 18.157481 65.19583 
L 18.21184 64.909378 
L 18.266199 64.929413 
L 18.374917 65.095041 
L 18.429276 64.692759 
L 18.483635 65.105196 
L 18.537994 65.60481 
L 18.592352 65.350404 
L 18.70107 65.27201 
L 18.755429 64.942443 
L 18.809788 65.17668 
L 18.864147 65.317248 
L 18.918506 65.236357 
L 18.972865 64.684476 
L 19.027224 64.797766 
L 19.190301 65.021842 
L 19.24466 64.716343 
L 19.407736 65.42843 
L 19.516454 65.295234 
L 19.570813 64.958198 
L 19.625172 65.621507 
L 19.679531 64.801015 
L 19.73389 65.448613 
L 19.842608 64.652314 
L 19.896967 65.169502 
L 19.951326 65.156511 
L 20.005685 65.651684 
L 20.060044 65.551307 
L 20.22312 64.544678 
L 20.331838 65.496471 
L 20.386197 64.663634 
L 20.440556 64.941244 
L 20.494915 64.765879 
L 20.603633 65.551059 
L 20.657992 64.452462 
L 20.712351 64.74839 
L 20.929786 65.734542 
L 21.092863 64.221836 
L 21.201581 66.158137 
L 21.25594 64.887259 
L 21.310299 65.216935 
L 21.364658 65.734981 
L 21.419017 65.169835 
L 21.582094 66.314464 
L 21.690811 64.728076 
L 21.74517 65.79862 
L 21.853888 64.226183 
L 21.908247 64.275285 
L 21.962606 65.935581 
L 22.016965 65.01551 
L 22.125683 64.672229 
L 22.234401 65.871944 
L 22.28876 65.45345 
L 22.343119 64.865679 
L 22.397477 65.108964 
L 22.451836 65.71995 
L 22.506195 64.899244 
L 22.560554 64.987236 
L 22.614913 65.966327 
L 22.669272 63.883747 
L 22.723631 64.815119 
L 22.77799 65.791189 
L 22.832349 65.738688 
L 22.886708 63.584231 
L 22.941067 65.228023 
L 22.995426 64.101752 
L 23.049785 65.926868 
L 23.104144 65.261026 
L 23.26722 64.781724 
L 23.321579 66.279324 
L 23.375938 65.418052 
L 23.430297 63.951899 
L 23.484656 64.443552 
L 23.593374 64.421218 
L 23.647733 66.292074 
L 23.756451 63.468549 
L 23.81081 65.636401 
L 23.865169 65.534514 
L 24.028245 64.640213 
L 24.082604 64.88805 
L 24.191322 63.925923 
L 24.463117 65.64955 
L 24.626194 63.100991 
L 24.680552 65.708391 
L 24.734911 64.799232 
L 24.843629 66.242956 
L 24.952347 65.102295 
L 25.006706 65.780732 
L 25.061065 65.563769 
L 25.115424 65.214078 
L 25.169783 63.825345 
L 25.224142 65.029706 
L 25.278501 64.697486 
L 25.33286 66.725489 
L 25.387219 66.443828 
L 25.441577 64.247981 
L 25.495936 65.706203 
L 25.550295 65.947251 
L 25.604654 65.115466 
L 25.659013 65.826906 
L 25.876449 67.167081 
L 25.985167 63.776443 
L 26.039526 65.680257 
L 26.148244 65.595566 
L 26.202602 63.147208 
L 26.256961 65.510258 
L 26.31132 65.03863 
L 26.365679 66.207086 
L 26.474397 63.582869 
L 26.528756 64.025216 
L 26.637474 63.106263 
L 26.746192 66.001177 
L 26.800551 62.590032 
L 26.85491 64.973416 
L 27.072345 67.486782 
L 27.126704 67.241406 
L 27.235422 63.229286 
L 27.34414 66.314856 
L 27.398499 64.11135 
L 27.452858 66.992004 
L 27.507217 65.427063 
L 27.561576 63.455336 
L 27.615935 64.797358 
L 27.670294 64.898157 
L 27.724652 65.320204 
L 27.779011 65.155078 
L 27.83337 65.124837 
L 27.887729 64.73292 
L 27.942088 65.725868 
L 27.996447 64.766048 
L 28.050806 64.22996 
L 28.213883 66.820073 
L 28.268242 66.798637 
L 28.322601 65.421914 
L 28.37696 67.485728 
L 28.431319 67.081799 
L 28.540036 65.954303 
L 28.703113 67.660794 
L 28.811831 63.195238 
L 28.86619 66.02296 
L 28.920549 65.687798 
L 28.974908 65.640618 
L 29.137985 64.532794 
L 29.192344 63.659919 
L 29.301061 65.307607 
L 29.35542 62.076986 
L 29.409779 66.49831 
L 29.464138 63.947436 
L 29.518497 64.501277 
L 29.572856 66.389484 
L 29.627215 63.186012 
L 29.681574 66.91729 
L 29.735933 62.865098 
L 29.790292 65.731683 
L 29.844651 63.84142 
L 29.89901 64.073336 
L 29.953369 64.306757 
L 30.007727 62.646263 
L 30.116445 69.057524 
L 30.170804 67.935058 
L 30.225163 64.871066 
L 30.279522 65.88789 
L 30.496958 63.527355 
L 30.605676 65.790924 
L 30.714394 63.168579 
L 30.823111 67.009625 
L 30.931829 63.149301 
L 31.040547 67.302964 
L 31.094906 63.177449 
L 31.149265 63.448979 
L 31.203624 64.567497 
L 31.257983 63.757211 
L 31.312342 64.511677 
L 31.366701 67.710994 
L 31.42106 66.482331 
L 31.529778 61.460775 
L 31.584136 63.951689 
L 31.638495 64.111766 
L 31.801572 68.792492 
L 31.855931 64.4208 
L 31.91029 64.616711 
L 31.964649 65.019817 
L 32.019008 64.56582 
L 32.073367 64.608185 
L 32.127726 66.148927 
L 32.182085 64.089116 
L 32.236444 64.588227 
L 32.290803 64.392012 
L 32.39952 67.290017 
L 32.562597 64.852083 
L 32.671315 63.453509 
L 32.725674 68.037047 
L 32.780033 64.864545 
L 32.888751 67.6375 
L 33.051828 62.53102 
L 33.214904 67.663558 
L 33.269263 63.072681 
L 33.323622 66.438286 
L 33.377981 65.944226 
L 33.43234 68.305059 
L 33.486699 66.560754 
L 33.649776 63.666414 
L 33.704135 64.560979 
L 33.758494 62.759015 
L 33.812853 64.44789 
L 33.867211 71.784816 
L 33.92157 64.399214 
L 33.975929 64.552699 
L 34.030288 62.413336 
L 34.084647 63.829406 
L 34.139006 65.247106 
L 34.193365 64.838511 
L 34.247724 63.630557 
L 34.410801 67.351124 
L 34.46516 60.638859 
L 34.519519 63.274088 
L 34.628236 66.461342 
L 34.682595 65.440909 
L 34.736954 66.946444 
L 34.791313 66.700805 
L 34.845672 59.23409 
L 34.900031 70.192296 
L 34.95439 66.249888 
L 35.008749 62.533081 
L 35.063108 68.865074 
L 35.117467 66.455647 
L 35.171826 63.626885 
L 35.226185 68.378307 
L 35.280544 64.065531 
L 35.334903 67.610733 
L 35.497979 60.942612 
L 35.552338 73.315993 
L 35.606697 65.399777 
L 35.769774 62.603062 
L 35.824133 66.715649 
L 35.878492 60.54886 
L 35.932851 62.851609 
L 35.98721 68.017129 
L 36.041569 63.828847 
L 36.095928 61.585553 
L 36.150286 70.573075 
L 36.204645 67.111309 
L 36.259004 66.056366 
L 36.313363 59.449958 
L 36.367722 63.376633 
L 36.422081 69.856943 
L 36.47644 68.239599 
L 36.585158 65.208845 
L 36.639517 66.101197 
L 36.693876 65.889957 
L 36.748235 60.663368 
L 36.802594 67.064569 
L 36.856953 62.44134 
L 36.911311 62.921648 
L 36.96567 68.049649 
L 37.020029 63.002127 
L 37.074388 65.529437 
L 37.128747 62.439359 
L 37.291824 67.091604 
L 37.346183 67.39194 
L 37.454901 63.507125 
L 37.617978 66.995233 
L 37.672336 66.492109 
L 37.726695 67.282501 
L 37.781054 67.067094 
L 37.99849 61.608596 
L 38.052849 66.361495 
L 38.107208 63.132468 
L 38.161567 64.539903 
L 38.215926 62.461568 
L 38.270285 63.297753 
L 38.324644 70.155521 
L 38.379003 67.756003 
L 38.433361 65.256249 
L 38.48772 71.369318 
L 38.542079 65.623705 
L 38.596438 65.138275 
L 38.650797 70.209302 
L 38.705156 63.0743 
L 38.759515 65.625079 
L 38.813874 69.999396 
L 38.922592 63.161538 
L 38.976951 68.355006 
L 39.085669 61.828293 
L 39.140028 67.362673 
L 39.194386 64.734438 
L 39.248745 63.674113 
L 39.411822 68.369019 
L 39.466181 61.48299 
L 39.52054 66.2021 
L 39.574899 62.620317 
L 39.629258 69.253987 
L 39.683617 67.038337 
L 39.792335 62.208217 
L 39.846694 63.952736 
L 39.901053 66.327928 
L 39.955411 62.929658 
L 40.00977 63.572615 
L 40.172847 72.501744 
L 40.227206 69.019519 
L 40.335924 61.254736 
L 40.390283 68.925988 
L 40.444642 66.009625 
L 40.55336 69.136439 
L 40.607719 67.398405 
L 40.770795 60.677153 
L 40.825154 61.324491 
L 40.879513 61.183287 
L 40.933872 67.83081 
L 40.988231 65.883402 
L 41.096949 59.330811 
L 41.260026 65.106786 
L 41.314385 68.965189 
L 41.368744 68.500304 
L 41.477461 64.956224 
L 41.53182 65.771842 
L 41.640538 72.957934 
L 41.749256 65.336112 
L 41.803615 67.238167 
L 41.857974 66.757558 
L 41.912333 66.778477 
L 42.021051 68.825588 
L 42.07541 64.821098 
L 42.129769 65.459714 
L 42.184128 66.261125 
L 42.238486 64.541084 
L 42.292845 72.668665 
L 42.347204 66.381851 
L 42.401563 64.669157 
L 42.455922 69.995838 
L 42.510281 68.627725 
L 42.618999 65.532637 
L 42.673358 58.800306 
L 42.727717 62.318274 
L 42.890794 63.311837 
L 42.945153 61.850523 
L 42.999511 63.269888 
L 43.05387 64.901805 
L 43.108229 64.32411 
L 43.162588 62.604326 
L 43.216947 63.990615 
L 43.271306 71.646866 
L 43.380024 60.794405 
L 43.434383 65.907315 
L 43.488742 64.497607 
L 43.543101 64.436508 
L 43.651819 71.406919 
L 43.706178 60.526539 
L 43.760536 62.831054 
L 43.814895 69.269979 
L 43.869254 65.425474 
L 43.923613 68.943854 
L 43.977972 63.05501 
L 44.032331 76.274457 
L 44.08669 66.84053 
L 44.141049 62.323177 
L 44.195408 64.175191 
L 44.249767 63.354645 
L 44.304126 66.048296 
L 44.358485 62.613752 
L 44.412844 66.409532 
L 44.467203 66.147876 
L 44.521561 59.661921 
L 44.57592 66.993413 
L 44.630279 66.307161 
L 44.684638 53.36536 
L 44.738997 63.975189 
L 44.793356 71.00118 
L 44.847715 63.710538 
L 44.902074 61.638968 
L 44.956433 65.537037 
L 45.065151 55.261869 
L 45.282586 66.474221 
L 45.445663 59.592447 
L 45.60874 74.675944 
L 45.717458 61.193511 
L 45.771817 69.133031 
L 45.826176 58.044109 
L 45.880535 66.902221 
L 45.989253 59.011232 
L 46.043611 73.202983 
L 46.09797 70.490553 
L 46.152329 70.026528 
L 46.261047 61.356635 
L 46.315406 61.604858 
L 46.369765 65.337825 
L 46.424124 61.170409 
L 46.478483 63.811505 
L 46.64156 69.228402 
L 46.858995 59.564554 
L 46.913354 73.30946 
L 46.967713 67.527219 
L 47.022072 67.254513 
L 47.076431 67.809697 
L 47.13079 66.979853 
L 47.185149 61.678064 
L 47.293867 74.836253 
L 47.348226 62.484502 
L 47.402585 67.310858 
L 47.511303 64.3141 
L 47.565662 69.038571 
L 47.674379 58.471963 
L 47.783097 70.629387 
L 47.837456 66.986687 
L 47.891815 68.583411 
L 47.946174 62.757528 
L 48.000533 76.286144 
L 48.054892 68.034376 
L 48.109251 57.409998 
L 48.16361 74.543427 
L 48.217969 68.093712 
L 48.326687 62.721164 
L 48.381045 64.955892 
L 48.435404 71.054589 
L 48.489763 65.138028 
L 48.598481 66.847528 
L 48.65284 64.172688 
L 48.707199 68.896334 
L 48.761558 62.496268 
L 48.815917 67.577225 
L 48.870276 70.353371 
L 49.087712 58.28826 
L 49.14207 61.836427 
L 49.196429 57.394309 
L 49.305147 68.286453 
L 49.359506 57.553835 
L 49.413865 72.662855 
L 49.468224 67.904695 
L 49.522583 66.757362 
L 49.576942 67.959627 
L 49.631301 66.443602 
L 49.68566 70.340493 
L 49.740019 63.132197 
L 49.794378 73.072797 
L 49.957454 59.377694 
L 50.011813 73.136388 
L 50.066172 62.015413 
L 50.17489 75.214076 
L 50.283608 64.636151 
L 50.337967 66.039635 
L 50.392326 70.852894 
L 50.555403 63.251627 
L 50.609762 62.039486 
L 50.772838 69.79679 
L 50.827197 73.742463 
L 50.935915 60.663306 
L 50.990274 68.780569 
L 51.044633 71.632556 
L 51.098992 65.976836 
L 51.153351 71.904714 
L 51.20771 71.371814 
L 51.262069 61.692122 
L 51.316428 66.588126 
L 51.370787 72.356359 
L 51.425145 52.086874 
L 51.479504 60.457237 
L 51.533863 64.505964 
L 51.588222 61.164697 
L 51.69694 51.962728 
L 51.751299 70.355473 
L 51.805658 64.448561 
L 51.968735 56.26631 
L 52.023094 69.182061 
L 52.077453 66.97937 
L 52.131812 65.171208 
L 52.18617 65.730349 
L 52.240529 66.887263 
L 52.294888 52.645192 
L 52.349247 70.378957 
L 52.403606 60.304889 
L 52.566683 68.926022 
L 52.621042 62.378353 
L 52.675401 64.479864 
L 52.72976 68.098717 
L 52.784119 65.666692 
L 52.838478 67.667759 
L 52.947195 62.551092 
L 53.055913 68.937202 
L 53.110272 61.547603 
L 53.164631 80.417804 
L 53.21899 69.607066 
L 53.273349 49.814056 
L 53.327708 68.500549 
L 53.436426 58.622499 
L 53.490785 61.470269 
L 53.599503 70.324317 
L 53.70822 62.614905 
L 53.816938 79.740626 
L 53.980015 64.647875 
L 54.034374 64.177489 
L 54.143092 56.25906 
L 54.197451 58.128481 
L 54.25181 79.895875 
L 54.306169 63.34638 
L 54.414887 57.921268 
L 54.469245 72.688747 
L 54.523604 61.113156 
L 54.577963 61.885149 
L 54.632322 58.493453 
L 54.686681 60.380288 
L 54.74104 72.9991 
L 54.849758 51.23606 
L 54.958476 72.977631 
L 55.012835 67.23204 
L 55.067194 71.487678 
L 55.175912 58.352205 
L 55.23027 61.72787 
L 55.284629 76.256876 
L 55.338988 62.614682 
L 55.393347 61.695192 
L 55.502065 69.911734 
L 55.556424 57.363737 
L 55.610783 64.439652 
L 55.665142 63.754331 
L 55.719501 49.90136 
L 55.77386 68.0474 
L 55.828219 66.006781 
L 55.882578 50.40945 
L 55.936937 71.344934 
L 55.991295 68.540365 
L 56.045654 69.050701 
L 56.100013 60.23242 
L 56.208731 74.319902 
L 56.26309 71.681604 
L 56.317449 67.834839 
L 56.371808 89.165485 
L 56.480526 54.365208 
L 56.534885 64.476596 
L 56.589244 58.37877 
L 56.697962 72.468298 
L 56.75232 72.433812 
L 56.806679 77.541221 
L 56.861038 73.465778 
L 56.915397 75.564267 
L 57.078474 57.150151 
L 57.241551 74.712931 
L 57.404628 60.348201 
L 57.458987 67.348794 
L 57.513345 55.123887 
L 57.567704 60.975567 
L 57.622063 69.927658 
L 57.676422 64.504282 
L 57.730781 64.350509 
L 57.78514 57.621595 
L 57.948217 66.815108 
L 58.002576 70.037782 
L 58.111294 52.959206 
L 58.27437 70.83323 
L 58.328729 62.220286 
L 58.383088 65.04486 
L 58.491806 73.598318 
L 58.600524 60.93285 
L 58.654883 65.712818 
L 58.763601 65.584913 
L 58.81796 68.482878 
L 58.872319 56.964123 
L 58.926678 63.3609 
L 58.981037 65.436623 
L 59.035395 64.447634 
L 59.089754 55.020656 
L 59.144113 69.097704 
L 59.198472 56.515475 
L 59.361549 73.930487 
L 59.524626 54.427167 
L 59.578985 57.062515 
L 59.633344 83.24131 
L 59.687703 67.057991 
L 59.742062 67.140069 
L 59.79642 62.711675 
L 59.850779 74.738292 
L 59.959497 58.208334 
L 60.013856 74.362115 
L 60.068215 68.427657 
L 60.122574 68.584872 
L 60.231292 61.778149 
L 60.34001 68.511947 
L 60.394369 62.232111 
L 60.448728 65.913378 
L 60.503087 75.558062 
L 60.557445 69.799098 
L 60.720522 62.492875 
L 60.774881 72.80578 
L 60.82924 51.742885 
L 60.883599 61.458921 
L 60.937958 77.07099 
L 60.992317 68.077061 
L 61.046676 70.754564 
L 61.101035 58.797729 
L 61.155394 59.403766 
L 61.209753 82.501337 
L 61.264112 59.370332 
L 61.481547 80.772142 
L 61.644624 53.787116 
L 61.753342 66.512444 
L 61.807701 60.838838 
L 61.86206 61.694776 
L 62.025137 71.523402 
L 62.133854 63.169201 
L 62.296931 73.888387 
L 62.35129 42.033471 
L 62.405649 64.93542 
L 62.460008 46.940621 
L 62.514367 56.611334 
L 62.786162 83.135211 
L 62.84052 70.644338 
L 62.894879 81.288133 
L 62.949238 80.624317 
L 63.003597 68.892381 
L 63.112315 69.369332 
L 63.166674 72.922836 
L 63.275392 52.898557 
L 63.329751 64.605979 
L 63.38411 52.95178 
L 63.438469 53.497555 
L 63.492828 71.653148 
L 63.547187 67.336462 
L 63.601545 48.22565 
L 63.655904 67.938053 
L 63.710263 60.372576 
L 63.764622 84.237307 
L 63.818981 53.959285 
L 63.87334 64.15473 
L 63.927699 64.206027 
L 63.982058 76.34416 
L 64.090776 52.90513 
L 64.145135 56.907662 
L 64.199494 75.599455 
L 64.253853 45.658536 
L 64.308212 63.858161 
L 64.362571 49.920634 
L 64.416929 71.548487 
L 64.471288 67.106675 
L 64.525647 54.416403 
L 64.580006 59.406383 
L 64.634365 60.061449 
L 64.688724 75.268172 
L 64.743083 65.105346 
L 64.797442 64.38077 
L 64.851801 60.072033 
L 64.90616 70.983449 
L 64.960519 69.291405 
L 65.069237 55.877266 
L 65.123596 63.426926 
L 65.177954 86.807427 
L 65.232313 75.61603 
L 65.341031 51.914006 
L 65.504108 69.267522 
L 65.558467 49.428749 
L 65.721544 84.326227 
L 65.775903 66.445501 
L 65.830262 78.122816 
L 65.884621 68.247933 
L 65.938979 86.537961 
L 65.993338 69.464667 
L 66.047697 48.957689 
L 66.102056 68.007562 
L 66.156415 72.615521 
L 66.265133 48.539824 
L 66.319492 52.841053 
L 66.42821 59.629418 
L 66.536928 51.237464 
L 66.591287 78.66294 
L 66.645646 60.503329 
L 66.700004 64.824597 
L 66.754363 55.729857 
L 66.808722 57.667306 
L 66.91744 78.822142 
L 66.971799 73.827193 
L 67.026158 72.817507 
L 67.189235 53.385476 
L 67.352312 76.846384 
L 67.406671 68.239466 
L 67.461029 56.357965 
L 67.515388 72.633579 
L 67.569747 56.320659 
L 67.624106 69.313809 
L 67.678465 66.920211 
L 67.732824 65.544029 
L 67.787183 60.83379 
L 67.895901 75.026789 
L 67.95026 50.298867 
L 68.004619 50.96946 
L 68.167696 71.394421 
L 68.222054 68.36068 
L 68.276413 68.652102 
L 68.330772 74.432675 
L 68.385131 53.943667 
L 68.43949 64.657068 
L 68.493849 73.277777 
L 68.548208 68.497299 
L 68.602567 68.698635 
L 68.656926 68.144542 
L 68.765644 80.114597 
L 68.874362 60.760076 
L 68.928721 62.559734 
L 68.983079 71.474324 
L 69.037438 60.713996 
L 69.091797 74.786217 
L 69.200515 54.90875 
L 69.254874 83.735312 
L 69.309233 72.85975 
L 69.363592 49.351988 
L 69.417951 77.673069 
L 69.47231 58.13878 
L 69.526669 50.087376 
L 69.635387 73.265649 
L 69.744104 68.865355 
L 69.798463 42.135228 
L 69.96154 82.863899 
L 70.015899 52.572734 
L 70.070258 72.582661 
L 70.178976 54.733819 
L 70.233335 89.032654 
L 70.287694 76.071895 
L 70.342053 61.491218 
L 70.396412 70.32677 
L 70.450771 65.228018 
L 70.505129 69.829144 
L 70.559488 78.183021 
L 70.613847 76.4664 
L 70.668206 59.694932 
L 70.722565 69.809827 
L 70.776924 63.172707 
L 70.885642 75.310383 
L 70.940001 63.660776 
L 70.99436 74.411316 
L 71.048719 75.00341 
L 71.103078 72.62278 
L 71.157437 48.988647 
L 71.211796 63.775964 
L 71.266154 73.866569 
L 71.374872 52.909151 
L 71.429231 60.752039 
L 71.48359 70.110268 
L 71.592308 69.882762 
L 71.701026 57.042241 
L 71.864103 77.365229 
L 71.918462 50.539516 
L 71.972821 78.695354 
L 72.027179 44.868943 
L 72.081538 56.146133 
L 72.190256 55.948167 
L 72.244615 89.765341 
L 72.298974 84.805397 
L 72.353333 60.47986 
L 72.407692 60.789937 
L 72.51641 60.447877 
L 72.570769 70.923621 
L 72.733846 44.303518 
L 72.896922 56.864177 
L 72.951281 65.348205 
L 73.00564 65.094091 
L 73.059999 51.690817 
L 73.223076 83.836572 
L 73.277435 61.252743 
L 73.331794 63.847757 
L 73.386153 64.25004 
L 73.549229 76.18962 
L 73.603588 84.769473 
L 73.657947 76.76396 
L 73.766665 65.074958 
L 73.875383 79.302231 
L 73.929742 48.969911 
L 73.984101 62.003875 
L 74.03846 72.901924 
L 74.201537 57.376885 
L 74.255896 59.046737 
L 74.310254 42.69779 
L 74.473331 84.023257 
L 74.636408 51.245601 
L 74.690767 82.38138 
L 74.745126 56.352375 
L 74.853844 72.328151 
L 75.016921 45.632766 
L 75.071279 69.865116 
L 75.179997 69.425635 
L 75.288715 68.13432 
L 75.343074 59.433851 
L 75.506151 82.992095 
L 75.669228 42.170401 
L 75.777946 72.015576 
L 75.832304 47.425927 
L 75.886663 72.732231 
L 75.941022 78.399452 
L 76.04974 63.955306 
L 76.104099 73.370324 
L 76.267176 39.899721 
L 76.430253 72.760181 
L 76.484612 65.706258 
L 76.538971 42.075759 
L 76.647688 77.453039 
L 76.702047 74.26346 
L 76.756406 55.292074 
L 76.810765 62.588069 
L 76.865124 71.549905 
L 76.919483 62.632946 
L 76.973842 51.147586 
L 77.028201 63.082617 
L 77.08256 62.365417 
L 77.136919 79.482819 
L 77.191278 50.991989 
L 77.245637 82.629883 
L 77.299996 66.266208 
L 77.408713 71.567245 
L 77.463072 52.29425 
L 77.517431 52.3505 
L 77.680508 82.000104 
L 77.734867 77.518921 
L 77.843585 58.045224 
L 77.897944 78.949491 
L 77.952303 44.872551 
L 78.006662 66.7403 
L 78.061021 66.555171 
L 78.115379 87.967376 
L 78.278456 60.793068 
L 78.332815 49.486502 
L 78.387174 58.393039 
L 78.441533 54.933763 
L 78.550251 80.280837 
L 78.60461 48.456135 
L 78.658969 84.708336 
L 78.713328 57.753227 
L 78.767687 64.820725 
L 78.822046 86.703842 
L 78.876404 42.751483 
L 78.985122 43.589991 
L 79.039481 74.44774 
L 79.09384 65.465465 
L 79.148199 54.111207 
L 79.256917 70.674871 
L 79.419994 39.501907 
L 79.474353 69.544514 
L 79.528712 54.654179 
L 79.583071 44.57013 
L 79.637429 71.918497 
L 79.691788 43.676463 
L 79.746147 67.256999 
L 79.800506 52.304305 
L 79.854865 48.658129 
L 79.909224 69.711282 
L 79.963583 57.347521 
L 80.072301 49.873926 
L 80.12666 78.746995 
L 80.181019 51.122084 
L 80.289737 79.46822 
L 80.452813 44.811155 
L 80.507172 81.222257 
L 80.561531 67.994428 
L 80.670249 78.887945 
L 80.724608 58.240272 
L 80.833326 58.637757 
L 80.887685 55.658424 
L 80.942044 88.587304 
L 80.996403 62.734066 
L 81.15948 94.782447 
L 81.268197 42.471836 
L 81.322556 87.028902 
L 81.376915 72.60223 
L 81.703069 54.148914 
L 81.757428 66.269947 
L 81.811787 54.064869 
L 81.866146 56.199928 
L 81.920505 77.006627 
L 81.974863 45.96238 
L 82.029222 62.004752 
L 82.246658 86.627511 
L 82.355376 50.540868 
L 82.409735 53.087225 
L 82.464094 81.038527 
L 82.518453 71.890163 
L 82.572812 76.118798 
L 82.735888 44.035378 
L 82.790247 48.990489 
L 82.953324 90.983622 
L 83.116401 44.243578 
L 83.17076 90.870275 
L 83.225119 72.005284 
L 83.279478 82.222371 
L 83.333837 73.153959 
L 83.388196 68.773637 
L 83.442555 52.233305 
L 83.496913 60.837802 
L 83.551272 69.589374 
L 83.605631 45.948498 
L 83.65999 50.724966 
L 83.714349 72.921576 
L 83.768708 41.350822 
L 83.823067 55.245695 
L 83.877426 68.540145 
L 83.931785 68.41428 
L 83.986144 59.33818 
L 84.040503 81.686254 
L 84.094862 68.778275 
L 84.20358 56.393759 
L 84.257938 62.937122 
L 84.312297 48.527841 
L 84.366656 81.080611 
L 84.421015 46.5369 
L 84.475374 92.377087 
L 84.529733 86.16032 
L 84.747169 28.187646 
L 84.910246 70.292895 
L 85.018963 45.924712 
L 85.073322 72.148822 
L 85.127681 71.237641 
L 85.18204 70.178066 
L 85.290758 73.9154 
L 85.345117 65.247852 
L 85.399476 80.191584 
L 85.453835 49.682636 
L 85.508194 85.610429 
L 85.562553 62.718205 
L 85.616912 61.482292 
L 85.671271 43.464348 
L 85.72563 93.325107 
L 85.779988 80.550677 
L 85.997424 27.403866 
L 86.051783 69.332046 
L 86.106142 54.164443 
L 86.160501 59.541439 
L 86.21486 82.480373 
L 86.269219 70.942232 
L 86.377937 52.410142 
L 86.432296 111.054385 
L 86.486655 67.82824 
L 86.541013 51.502064 
L 86.70409 77.837158 
L 86.921526 51.285132 
L 87.030244 89.834101 
L 87.138962 54.051359 
L 87.193321 85.857415 
L 87.24768 53.745677 
L 87.302038 70.953566 
L 87.356397 54.382054 
L 87.410756 54.167054 
L 87.465115 34.657243 
L 87.519474 82.85795 
L 87.573833 54.845509 
L 87.682551 69.411636 
L 87.73691 48.08862 
L 87.791269 55.708651 
L 87.845628 88.129646 
L 87.899987 52.234889 
L 87.954346 73.377959 
L 88.008705 71.156325 
L 88.063063 76.276725 
L 88.117422 59.612217 
L 88.171781 70.445317 
L 88.22614 71.255795 
L 88.280499 73.730271 
L 88.334858 60.486588 
L 88.389217 72.159708 
L 88.443576 93.346206 
L 88.606653 62.988588 
L 88.76973 75.339173 
L 88.824088 31.573055 
L 88.878447 98.863933 
L 88.932806 73.46821 
L 89.150242 46.297171 
L 89.313319 75.247622 
L 89.367678 59.065997 
L 89.422037 76.452292 
L 89.476396 62.483454 
L 89.530755 35.830069 
L 89.585113 47.124433 
L 89.639472 71.745304 
L 89.693831 70.318833 
L 89.74819 58.26531 
L 89.802549 64.026476 
L 89.856908 61.179963 
L 89.911267 62.862184 
L 90.019985 72.023748 
L 90.074344 60.644056 
L 90.128703 87.849283 
L 90.183062 41.109237 
L 90.237421 58.003749 
L 90.29178 75.11536 
L 90.346138 65.973129 
L 90.454856 82.610918 
L 90.563574 55.15743 
L 90.617933 70.627763 
L 90.672292 71.802424 
L 90.726651 69.769716 
L 90.78101 79.647025 
L 90.835369 42.419951 
L 90.889728 77.953282 
L 91.107163 43.742768 
L 91.161522 87.049274 
L 91.215881 64.152283 
L 91.27024 46.599483 
L 91.378958 89.745157 
L 91.433317 53.628409 
L 91.487676 104.366534 
L 91.542035 72.475322 
L 91.596394 87.808218 
L 91.650753 83.880179 
L 91.81383 49.82969 
L 91.868188 74.972328 
L 91.922547 62.815924 
L 91.976906 47.213827 
L 92.031265 62.780108 
L 92.085624 58.324147 
L 92.194342 74.62667 
L 92.248701 62.869003 
L 92.30306 91.27742 
L 92.357419 78.198353 
L 92.411778 86.008797 
L 92.574855 34.980022 
L 92.629213 68.576672 
L 92.683572 62.537907 
L 92.737931 39.170731 
L 92.79229 44.215338 
L 92.901008 83.430223 
L 93.009726 51.372448 
L 93.064085 67.033169 
L 93.118444 94.95142 
L 93.172803 62.366225 
L 93.227162 70.993119 
L 93.281521 82.422492 
L 93.444597 33.601132 
L 93.607674 83.0631 
L 93.716392 53.981571 
L 93.770751 83.668379 
L 93.82511 74.008504 
L 93.879469 71.69185 
L 93.933828 79.458392 
L 93.988187 46.173887 
L 94.042546 55.777033 
L 94.096905 99.861506 
L 94.259981 43.500501 
L 94.31434 97.262061 
L 94.368699 78.37727 
L 94.477417 44.381221 
L 94.586135 52.95121 
L 94.640494 65.352545 
L 94.694853 41.569399 
L 94.803571 98.700634 
L 94.85793 70.572493 
L 94.912288 63.086152 
L 94.966647 74.278785 
L 95.075365 54.39985 
L 95.129724 87.117251 
L 95.184083 47.688019 
L 95.238442 63.757718 
L 95.292801 67.642521 
L 95.34716 33.1538 
L 95.401519 48.456499 
L 95.455878 65.994388 
L 95.510237 51.630566 
L 95.618955 84.622109 
L 95.727672 80.212925 
L 95.782031 70.166496 
L 95.83639 78.862534 
L 95.890749 83.582088 
L 95.945108 58.533533 
L 95.999467 69.510479 
L 96.053826 64.574166 
L 96.108185 96.41544 
L 96.162544 52.348838 
L 96.216903 74.489105 
L 96.434338 32.107526 
L 96.597415 90.176376 
L 96.651774 56.061042 
L 96.706133 56.904236 
L 96.760492 91.111713 
L 96.814851 67.543821 
L 96.86921 21.373584 
L 96.923569 49.734923 
L 96.977928 88.448417 
L 97.032287 68.619182 
L 97.086646 52.539764 
L 97.141005 73.116167 
L 97.195364 50.63322 
L 97.249722 64.950383 
L 97.304081 74.516949 
L 97.35844 68.043804 
L 97.521517 36.840171 
L 97.630235 77.112735 
L 97.684594 66.721044 
L 97.738953 82.529477 
L 97.793312 67.049597 
L 97.847671 62.371744 
L 97.90203 89.203985 
L 97.956389 45.35093 
L 98.010747 49.292375 
L 98.065106 74.728153 
L 98.173824 73.876401 
L 98.228183 92.175772 
L 98.445619 45.864463 
L 98.499978 64.187018 
L 98.554337 42.690379 
L 98.608696 78.595102 
L 98.663055 24.341741 
L 98.717414 81.405148 
L 98.771772 47.717436 
L 98.826131 70.876586 
L 98.88049 54.063474 
L 98.934849 54.766251 
L 98.989208 86.246288 
L 99.043567 44.833163 
L 99.097926 70.083001 
L 99.206644 93.936789 
L 99.261003 30.910908 
L 99.315362 65.421309 
L 99.369721 55.324544 
L 99.42408 65.533603 
L 99.478439 64.706763 
L 99.587156 86.802308 
L 99.695874 45.06644 
L 99.750233 47.183504 
L 99.858951 41.315146 
L 99.91331 84.376698 
L 99.967669 67.367408 
L 100.130746 54.866726 
L 100.293822 83.454181 
L 100.348181 52.143457 
L 100.40254 76.136568 
L 100.456899 79.150751 
L 100.511258 35.954645 
L 100.565617 46.827581 
L 100.619976 87.050845 
L 100.674335 77.812992 
L 100.783053 45.263006 
L 100.94613 90.663378 
L 101.054847 48.573778 
L 101.109206 50.096728 
L 101.163565 55.421136 
L 101.272283 55.780677 
L 101.326642 28.840582 
L 101.489719 79.992528 
L 101.544078 78.427784 
L 101.652796 60.445273 
L 101.707155 66.692565 
L 101.92459 91.546374 
L 101.978949 35.365386 
L 102.033308 96.529103 
L 102.087667 59.373712 
L 102.142026 73.866086 
L 102.196385 69.095031 
L 102.46818 32.289781 
L 102.631256 86.876825 
L 102.685615 88.941283 
L 102.739974 78.516367 
L 102.794333 97.09382 
L 102.848692 79.913912 
L 102.903051 46.227395 
L 102.95741 72.934248 
L 103.011769 60.622998 
L 103.120487 94.819707 
L 103.229205 30.159258 
L 103.283564 53.433445 
L 103.337922 82.92983 
L 103.392281 58.427951 
L 103.44664 78.853491 
L 103.555358 52.367868 
L 103.609717 82.721285 
L 103.664076 53.577643 
L 103.718435 47.423377 
L 103.772794 69.625355 
L 103.935871 34.209679 
L 103.99023 95.897496 
L 104.044589 60.87529 
L 104.098947 36.88699 
L 104.153306 80.320937 
L 104.207665 73.758332 
L 104.316383 58.116747 
L 104.425101 95.740653 
L 104.47946 48.414948 
L 104.533819 55.056276 
L 104.588178 57.335743 
L 104.751255 93.266988 
L 104.859972 40.787132 
L 104.96869 78.289435 
L 105.023049 51.415867 
L 105.077408 61.079131 
L 105.131767 88.729528 
L 105.240485 49.013806 
L 105.349203 67.412628 
L 105.403562 51.113413 
L 105.457921 58.718021 
L 105.51228 88.290146 
L 105.566639 52.879902 
L 105.620997 79.864723 
L 105.675356 62.775353 
L 105.729715 65.989156 
L 105.784074 70.092248 
L 105.838433 61.882998 
L 105.892792 85.870049 
L 105.947151 63.461725 
L 106.055869 50.087621 
L 106.110228 68.753525 
L 106.164587 31.84457 
L 106.218946 54.412176 
L 106.382022 21.887597 
L 106.436381 82.955901 
L 106.49074 69.656096 
L 106.545099 76.965494 
L 106.599458 48.015064 
L 106.653817 60.989449 
L 106.708176 57.856588 
L 106.762535 79.422474 
L 106.816894 58.877197 
L 106.871253 71.914997 
L 106.925612 55.38171 
L 106.979971 58.380254 
L 107.03433 57.440639 
L 107.088689 60.041271 
L 107.197406 81.682048 
L 107.251765 57.150869 
L 107.306124 85.63723 
L 107.360483 79.559251 
L 107.469201 79.601066 
L 107.52356 39.462979 
L 107.632278 83.554103 
L 107.740996 53.625694 
L 107.904072 94.273153 
L 108.01279 32.228065 
L 108.067149 37.896663 
L 108.230226 85.15893 
L 108.284585 63.238451 
L 108.338944 68.020777 
L 108.393303 81.218954 
L 108.447662 73.475382 
L 108.610739 32.1279 
L 108.665097 78.550402 
L 108.719456 59.521225 
L 108.828174 80.81479 
L 108.936892 78.392445 
L 108.991251 47.970563 
L 109.04561 106.16494 
L 109.099969 42.637313 
L 109.154328 94.940292 
L 109.317405 50.1768 
L 109.371764 42.590992 
L 109.426122 45.074499 
L 109.480481 77.316621 
L 109.53484 20.260352 
L 109.589199 52.213158 
L 109.643558 57.823138 
L 109.752276 86.963704 
L 109.806635 79.957686 
L 109.860994 96.749989 
L 109.969712 44.574891 
L 110.132789 86.152972 
L 110.241506 47.104515 
L 110.350224 90.177116 
L 110.458942 41.246313 
L 110.513301 52.796325 
L 110.676378 70.077423 
L 110.730737 71.068317 
L 110.785096 86.524665 
L 110.893814 55.019027 
L 110.948172 66.110346 
L 111.002531 42.621671 
L 111.165608 69.553472 
L 111.219967 72.58931 
L 111.274326 32.697267 
L 111.328685 89.799121 
L 111.383044 37.507524 
L 111.546121 94.402875 
L 111.654839 17.768002 
L 111.709197 86.945777 
L 111.763556 49.961308 
L 111.817915 75.78782 
L 111.872274 63.702539 
L 111.926633 63.392691 
L 112.08971 43.235106 
L 112.144069 49.415125 
L 112.198428 73.605805 
L 112.252787 66.923678 
L 112.307146 68.7905 
L 112.361505 67.750426 
L 112.415864 88.872942 
L 112.470222 69.854718 
L 112.524581 52.621326 
L 112.57894 72.051471 
L 112.687658 38.35506 
L 112.796376 84.489648 
L 112.850735 17.689582 
L 112.905094 64.749829 
L 112.959453 117.856703 
L 113.068171 28.227387 
L 113.12253 54.143056 
L 113.176889 100.017428 
L 113.231248 67.984023 
L 113.339965 56.251587 
L 113.448683 72.410766 
L 113.503042 65.44473 
L 113.557401 70.85913 
L 113.61176 71.512627 
L 113.666119 55.835903 
L 113.720478 83.445022 
L 113.774837 79.354945 
L 113.937914 46.338385 
L 113.992273 41.304507 
L 114.046631 126.540953 
L 114.155349 35.193356 
L 114.264067 81.394936 
L 114.318426 62.638063 
L 114.372785 33.384224 
L 114.481503 112.081663 
L 114.535862 82.862776 
L 114.698939 32.919937 
L 114.807656 96.81121 
L 114.862015 18.869744 
L 114.916374 67.9955 
L 115.079451 91.60508 
L 115.242528 52.489464 
L 115.351246 46.989997 
L 115.405605 67.961228 
L 115.459964 60.872745 
L 115.568681 46.019897 
L 115.731758 106.08136 
L 115.949194 58.54215 
L 116.003553 80.786786 
L 116.057912 68.641396 
L 116.112271 76.548847 
L 116.16663 75.601421 
L 116.220989 55.662529 
L 116.329706 78.940599 
L 116.384065 38.102172 
L 116.438424 52.701464 
L 116.492783 84.298326 
L 116.547142 60.393031 
L 116.65586 72.524904 
L 116.710219 24.87092 
L 116.764578 67.795197 
L 116.818937 75.157511 
L 116.927655 38.961805 
L 116.982014 75.008856 
L 117.036373 69.65233 
L 117.090731 41.022127 
L 117.14509 59.503735 
L 117.199449 107.884477 
L 117.362526 51.65684 
L 117.416885 89.032765 
L 117.471244 59.887255 
L 117.579962 83.688444 
L 117.634321 48.600002 
L 117.68868 50.069656 
L 117.851756 75.184531 
L 117.906115 72.980932 
L 118.014833 28.004644 
L 118.069192 84.678559 
L 118.123551 71.644332 
L 118.17791 75.765483 
L 118.232269 29.968199 
L 118.286628 48.484721 
L 118.449705 67.225207 
L 118.66714 32.910962 
L 118.721499 88.924358 
L 118.775858 64.248599 
L 118.884576 81.285451 
L 118.938935 32.598382 
L 118.993294 85.642447 
L 119.047653 61.480526 
L 119.102012 70.365562 
L 119.265089 46.177163 
L 119.373806 93.040811 
L 119.428165 88.161793 
L 119.482524 86.513347 
L 119.591242 62.968108 
L 119.645601 80.714023 
L 119.69996 43.684906 
L 119.754319 90.059862 
L 119.808678 77.555138 
L 119.971755 69.693299 
L 120.026114 42.5415 
L 120.18919 75.63704 
L 120.243549 72.131816 
L 120.297908 39.04808 
L 120.352267 70.415913 
L 120.406626 80.493986 
L 120.460985 70.421222 
L 120.515344 67.085163 
L 120.569703 84.83999 
L 120.624062 69.820915 
L 120.73278 77.450584 
L 120.787139 75.395809 
L 120.841498 54.168172 
L 120.895856 70.228204 
L 120.950215 84.836782 
L 121.004574 39.461423 
L 121.058933 84.211254 
L 121.113292 53.837481 
L 121.167651 79.978554 
L 121.22201 75.624543 
L 121.276369 47.4933 
L 121.330728 69.270552 
L 121.385087 52.659965 
L 121.439446 73.934575 
L 121.493805 68.010371 
L 121.548164 72.280192 
L 121.602523 86.505183 
L 121.71124 44.011022 
L 121.765599 74.811218 
L 121.819958 55.493144 
L 121.874317 37.480556 
L 121.928676 74.601479 
L 121.983035 60.983304 
L 122.037394 58.022416 
L 122.091753 48.575463 
L 122.200471 69.21912 
L 122.25483 55.781509 
L 122.309189 68.460123 
L 122.363548 64.975119 
L 122.417906 19.01611 
L 122.472265 41.834348 
L 122.526624 62.139421 
L 122.635342 36.944437 
L 122.798419 89.235189 
L 122.907137 44.318672 
L 122.961496 55.560777 
L 123.070214 35.058644 
L 123.23329 83.057811 
L 123.396367 67.635846 
L 123.450726 75.592759 
L 123.505085 73.561743 
L 123.559444 44.561529 
L 123.613803 92.919944 
L 123.668162 51.618848 
L 123.77688 68.156371 
L 123.831239 47.433084 
L 123.885598 63.256527 
L 123.939956 69.450927 
L 123.994315 51.749159 
L 124.103033 91.501967 
L 124.157392 55.90582 
L 124.211751 57.505239 
L 124.26611 70.862802 
L 124.320469 62.242672 
L 124.374828 41.656221 
L 124.429187 59.909741 
L 124.483546 78.065171 
L 124.537905 59.996444 
L 124.592264 67.646065 
L 124.646623 42.663733 
L 124.700981 64.501626 
L 124.75534 49.296304 
L 124.918417 109.017262 
L 125.027135 51.873833 
L 125.081494 58.809392 
L 125.135853 72.090498 
L 125.190212 66.97644 
L 125.244571 48.570392 
L 125.29893 62.324776 
L 125.353289 66.908789 
L 125.462006 48.278272 
L 125.516365 67.564897 
L 125.570724 64.182078 
L 125.679442 42.990869 
L 125.78816 76.007453 
L 125.842519 41.056107 
L 125.896878 82.740423 
L 125.951237 52.539763 
L 126.005596 46.424764 
L 126.059955 50.148313 
L 126.114314 84.556361 
L 126.168673 33.960865 
L 126.223031 48.254769 
L 126.27739 97.324457 
L 126.331749 26.810701 
L 126.386108 58.157863 
L 126.440467 55.002505 
L 126.494826 40.647369 
L 126.657903 86.375665 
L 126.712262 39.329682 
L 126.766621 59.158288 
L 126.82098 57.386389 
L 126.875339 59.654295 
L 126.929698 70.74096 
L 126.984056 56.641375 
L 127.038415 10.860551 
L 127.147133 84.154684 
L 127.255851 40.369319 
L 127.31021 78.564489 
L 127.364569 46.816046 
L 127.418928 73.903858 
L 127.473287 26.910582 
L 127.527646 57.34063 
L 127.582005 89.187732 
L 127.636364 59.015545 
" clip-path="url(#p246b1ec416)" style="fill: none; stroke: #e78ac3; stroke-width: 1.5; stroke-linecap: square"/>
   </g>
   <g id="patch_3">
    <path d="M 10.8 133.2 
L 10.8 10.8 
" style="fill: none; stroke: #000000; stroke-width: 0.8; stroke-linejoin: miter; stroke-linecap: square"/>
   </g>
   <g id="patch_4">
    <path d="M 133.2 133.2 
L 133.2 10.8 
" style="fill: none; stroke: #000000; stroke-width: 0.8; stroke-linejoin: miter; stroke-linecap: square"/>
   </g>
   <g id="patch_5">
    <path d="M 10.8 133.2 
L 133.2 133.2 
" style="fill: none; stroke: #000000; stroke-width: 0.8; stroke-linejoin: miter; stroke-linecap: square"/>
   </g>
   <g id="patch_6">
    <path d="M 10.8 10.8 
L 133.2 10.8 
" style="fill: none; stroke: #000000; stroke-width: 0.8; stroke-linejoin: miter; stroke-linecap: square"/>
   </g>
  </g>
 </g>
 <defs>
  <clipPath id="p246b1ec416">
   <rect x="10.8" y="10.8" width="122.4" height="122.4"/>
  </clipPath>
 </defs>
</svg>
