<?xml version="1.0" encoding="utf-8" standalone="no"?>
<!DOCTYPE svg PUBLIC "-//W3C//DTD SVG 1.1//EN"
  "http://www.w3.org/Graphics/SVG/1.1/DTD/svg11.dtd">
<svg xmlns:xlink="http://www.w3.org/1999/xlink" width="144pt" height="144pt" viewBox="0 0 144 144" xmlns="http://www.w3.org/2000/svg" version="1.1">
 <metadata>
  <rdf:RDF xmlns:dc="http://purl.org/dc/elements/1.1/" xmlns:cc="http://creativecommons.org/ns#" xmlns:rdf="http://www.w3.org/1999/02/22-rdf-syntax-ns#">
   <cc:Work>
    <dc:type rdf:resource="http://purl.org/dc/dcmitype/StillImage"/>
    <dc:date>2025-02-11T14:44:00.750692</dc:date>
    <dc:format>image/svg+xml</dc:format>
    <dc:creator>
     <cc:Agent>
      <dc:title>Matplotlib v3.8.0, https://matplotlib.org/</dc:title>
     </cc:Agent>
    </dc:creator>
   </cc:Work>
  </rdf:RDF>
 </metadata>
 <defs>
  <style type="text/css">*{stroke-linejoin: round; stroke-linecap: butt}</style>
 </defs>
 <g id="figure_1">
  <g id="patch_1">
   <path d="M 0 144 
L 144 144 
L 144 0 
L 0 0 
L 0 144 
z
" style="fill: none"/>
  </g>
  <g id="axes_1">
   <g id="patch_2">
    <path d="M 10.8 133.2 
L 133.2 133.2 
L 133.2 10.8 
L 10.8 10.8 
L 10.8 133.2 
z
" style="fill: none"/>
   </g>
   <g id="matplotlib.axis_1"/>
   <g id="matplotlib.axis_2"/>
   <g id="line2d_1">
    <path d="M 16.363636 73.949204 
L 17.070302 73.967161 
L 17.124661 73.886472 
L 17.17902 73.957939 
L 17.287738 73.977981 
L 17.342097 73.899346 
L 17.396456 74.22308 
L 17.450815 73.999892 
L 17.559533 73.858679 
L 17.613892 73.990177 
L 17.668251 73.902017 
L 17.776969 73.93793 
L 17.831327 73.664722 
L 17.885686 73.845388 
L 18.157481 74.081106 
L 18.21184 74.146223 
L 18.320558 73.746483 
L 18.429276 74.074032 
L 18.483635 74.024132 
L 18.537994 74.019445 
L 18.592352 73.773733 
L 18.646711 73.982824 
L 18.70107 73.987037 
L 18.755429 74.13909 
L 18.809788 74.0429 
L 18.864147 73.819873 
L 18.918506 74.244099 
L 18.972865 74.086416 
L 19.027224 74.016734 
L 19.081583 73.699399 
L 19.135942 74.212154 
L 19.190301 74.193426 
L 19.24466 73.875073 
L 19.299019 74.037377 
L 19.353377 74.081349 
L 19.407736 73.797872 
L 19.462095 73.842897 
L 19.570813 74.234784 
L 19.625172 73.514264 
L 19.679531 73.783749 
L 19.73389 74.059642 
L 19.788249 73.813552 
L 19.842608 73.948355 
L 19.896967 73.869382 
L 20.114402 73.962118 
L 20.168761 74.241592 
L 20.277479 73.003719 
L 20.440556 74.20243 
L 20.494915 74.697636 
L 20.549274 74.374023 
L 20.712351 73.729629 
L 20.76671 74.015571 
L 20.821069 73.617147 
L 20.875427 73.794854 
L 20.984145 74.003571 
L 21.038504 73.539538 
L 21.092863 73.877874 
L 21.25594 74.598471 
L 21.419017 73.971001 
L 21.473376 74.321597 
L 21.527735 73.440018 
L 21.582094 73.903404 
L 21.690811 73.833319 
L 21.799529 74.017315 
L 21.853888 73.90338 
L 21.908247 73.485081 
L 21.962606 74.156975 
L 22.016965 73.538629 
L 22.071324 73.601542 
L 22.125683 74.210514 
L 22.180042 74.001136 
L 22.234401 73.346867 
L 22.343119 74.983117 
L 22.506195 73.381752 
L 22.560554 73.634957 
L 22.669272 75.253577 
L 22.723631 73.133501 
L 22.77799 75.156707 
L 22.995426 72.748667 
L 23.158502 74.156382 
L 23.26722 73.50066 
L 23.321579 74.236941 
L 23.375938 74.065509 
L 23.430297 73.371376 
L 23.484656 73.86506 
L 23.593374 74.94287 
L 23.756451 73.233608 
L 23.865169 73.55646 
L 23.919527 73.522191 
L 23.973886 74.624135 
L 24.028245 72.286704 
L 24.082604 74.654464 
L 24.136963 74.559567 
L 24.191322 72.656859 
L 24.245681 74.069674 
L 24.30004 74.259892 
L 24.517476 73.176778 
L 24.571835 74.196515 
L 24.626194 74.15845 
L 24.680552 73.195409 
L 24.734911 73.841859 
L 24.843629 73.297295 
L 25.061065 74.28689 
L 25.115424 73.155824 
L 25.169783 73.24376 
L 25.224142 73.401722 
L 25.278501 74.063674 
L 25.33286 73.669936 
L 25.441577 74.0566 
L 25.495936 73.153291 
L 25.550295 73.347621 
L 25.659013 74.088692 
L 25.713372 73.637967 
L 25.767731 72.801907 
L 25.930808 74.565953 
L 25.985167 73.250399 
L 26.039526 73.927244 
L 26.093885 73.425522 
L 26.256961 74.678755 
L 26.365679 73.134485 
L 26.420038 73.867735 
L 26.528756 73.806094 
L 26.583115 73.94475 
L 26.691833 74.841094 
L 26.746192 74.707095 
L 26.800551 73.755018 
L 26.85491 74.51899 
L 26.963627 73.207397 
L 27.017986 73.549118 
L 27.181063 74.937068 
L 27.235422 74.831104 
L 27.34414 73.888298 
L 27.398499 73.900941 
L 27.507217 75.094844 
L 27.670294 73.700249 
L 27.724652 74.678347 
L 27.83337 74.72134 
L 27.887729 73.257493 
L 27.942088 75.066835 
L 27.996447 73.59622 
L 28.159524 75.932231 
L 28.322601 72.837021 
L 28.37696 74.342273 
L 28.431319 74.288717 
L 28.485677 73.861567 
L 28.540036 74.128202 
L 28.594395 74.430008 
L 28.648754 72.822679 
L 28.703113 75.206997 
L 28.757472 73.885258 
L 28.811831 74.041609 
L 28.86619 74.799355 
L 28.920549 74.327333 
L 28.974908 74.320806 
L 29.029267 75.32187 
L 29.192344 72.930277 
L 29.409779 74.434219 
L 29.518497 72.526326 
L 29.627215 74.851704 
L 29.681574 72.774155 
L 29.735933 75.972172 
L 29.790292 72.966475 
L 29.89901 73.947769 
L 29.953369 72.919335 
L 30.007727 73.883134 
L 30.116445 73.011898 
L 30.225163 73.749599 
L 30.279522 72.10412 
L 30.38824 74.803326 
L 30.442599 74.256576 
L 30.496958 72.542833 
L 30.551317 74.357489 
L 30.605676 73.74261 
L 30.768752 73.336864 
L 30.87747 75.493758 
L 31.040547 73.108398 
L 31.149265 75.502884 
L 31.203624 74.97333 
L 31.257983 73.5784 
L 31.312342 74.127906 
L 31.366701 73.894544 
L 31.42106 74.702881 
L 31.475419 73.987343 
L 31.529778 73.079621 
L 31.584136 73.594042 
L 31.638495 75.018667 
L 31.747213 72.657298 
L 31.855931 76.025961 
L 31.964649 72.772838 
L 32.073367 74.804753 
L 32.127726 74.783955 
L 32.182085 73.321502 
L 32.236444 73.432242 
L 32.290803 74.222068 
L 32.345161 73.649825 
L 32.39952 72.901536 
L 32.453879 73.12407 
L 32.508238 75.429034 
L 32.562597 71.259813 
L 32.616956 73.869065 
L 32.671315 73.943215 
L 32.725674 73.228507 
L 32.834392 76.048805 
L 32.888751 72.952492 
L 32.997469 72.975088 
L 33.051828 73.656559 
L 33.106186 72.8323 
L 33.269263 75.330779 
L 33.323622 73.222716 
L 33.377981 73.54687 
L 33.43234 74.986497 
L 33.486699 74.464837 
L 33.649776 71.803031 
L 33.812853 74.731375 
L 33.867211 72.175004 
L 33.92157 73.770565 
L 33.975929 73.450794 
L 34.084647 74.526527 
L 34.139006 74.465977 
L 34.193365 73.255784 
L 34.247724 73.930735 
L 34.302083 74.622418 
L 34.356442 73.966232 
L 34.410801 73.488271 
L 34.46516 73.993086 
L 34.573878 73.786072 
L 34.628236 73.988607 
L 34.682595 72.506354 
L 34.736954 74.523592 
L 34.791313 72.284096 
L 34.845672 73.695846 
L 34.900031 72.398112 
L 34.95439 74.595057 
L 35.008749 73.280586 
L 35.063108 73.161877 
L 35.117467 72.593038 
L 35.280544 73.976449 
L 35.334903 74.588516 
L 35.389261 73.10246 
L 35.44362 73.451509 
L 35.497979 74.929275 
L 35.606697 71.594378 
L 35.661056 71.976298 
L 35.769774 76.257858 
L 35.878492 72.806012 
L 36.095928 76.096584 
L 36.259004 74.009319 
L 36.313363 74.269866 
L 36.367722 76.285667 
L 36.47644 72.851966 
L 36.639517 75.225359 
L 36.693876 74.557922 
L 36.802594 73.084579 
L 36.856953 74.254622 
L 36.911311 73.980525 
L 37.020029 72.964174 
L 37.128747 77.770354 
L 37.183106 76.089597 
L 37.346183 71.342318 
L 37.400542 74.284296 
L 37.454901 73.2269 
L 37.617978 73.791034 
L 37.672336 73.326545 
L 37.726695 71.592252 
L 37.781054 71.90164 
L 37.889772 76.107218 
L 37.944131 73.860763 
L 37.99849 74.205649 
L 38.107208 72.221288 
L 38.161567 74.34627 
L 38.215926 71.688368 
L 38.270285 74.86179 
L 38.324644 74.10255 
L 38.379003 73.759568 
L 38.48772 75.707567 
L 38.596438 72.774923 
L 38.650797 76.037936 
L 38.705156 73.923108 
L 38.759515 74.219884 
L 38.813874 73.275055 
L 38.868233 73.599229 
L 39.03131 75.249594 
L 39.194386 73.896651 
L 39.248745 75.929509 
L 39.303104 71.256715 
L 39.357463 72.899278 
L 39.411822 74.534048 
L 39.466181 72.45211 
L 39.52054 73.919884 
L 39.574899 73.336501 
L 39.629258 73.828312 
L 39.792335 73.201439 
L 39.846694 73.48789 
L 39.901053 74.519653 
L 39.955411 74.039661 
L 40.00977 73.696436 
L 40.064129 74.517659 
L 40.118488 73.751078 
L 40.227206 72.473315 
L 40.281565 74.651171 
L 40.335924 73.069452 
L 40.390283 73.473197 
L 40.55336 72.457939 
L 40.607719 74.772598 
L 40.662078 73.147375 
L 40.770795 73.11428 
L 40.825154 74.843339 
L 40.879513 74.748564 
L 41.04259 72.067291 
L 41.205667 76.645195 
L 41.260026 72.609528 
L 41.314385 72.734052 
L 41.423103 75.721862 
L 41.53182 72.400296 
L 41.586179 72.926438 
L 41.640538 71.69922 
L 41.803615 73.911893 
L 41.857974 73.688627 
L 41.966692 75.071266 
L 42.129769 72.634411 
L 42.238486 75.19951 
L 42.347204 72.809006 
L 42.401563 74.929566 
L 42.455922 73.48164 
L 42.510281 72.77366 
L 42.56464 74.111108 
L 42.618999 72.628747 
L 42.673358 75.143073 
L 42.727717 74.060693 
L 42.782076 73.026586 
L 42.836435 73.925745 
L 42.890794 74.825621 
L 42.945153 72.893988 
L 42.999511 73.934226 
L 43.05387 74.209226 
L 43.216947 72.970639 
L 43.271306 75.072382 
L 43.325665 74.114634 
L 43.434383 73.062769 
L 43.488742 73.378848 
L 43.543101 75.368384 
L 43.59746 74.38895 
L 43.651819 74.411601 
L 43.760536 73.553959 
L 43.814895 72.562796 
L 43.923613 74.666832 
L 43.977972 74.003638 
L 44.08669 72.577976 
L 44.249767 75.848629 
L 44.304126 73.038136 
L 44.358485 74.606595 
L 44.467203 73.472953 
L 44.521561 73.823608 
L 44.57592 71.600483 
L 44.738997 77.490618 
L 44.956433 73.979362 
L 45.010792 74.924595 
L 45.065151 72.775887 
L 45.11951 74.157133 
L 45.173869 74.397276 
L 45.282586 72.295246 
L 45.391304 74.225124 
L 45.445663 73.842438 
L 45.500022 74.422247 
L 45.554381 72.552128 
L 45.60874 74.764329 
L 45.663099 74.082822 
L 45.771817 72.914887 
L 45.826176 74.868086 
L 45.934894 72.424516 
L 45.989253 74.339578 
L 46.043611 73.322387 
L 46.09797 73.30912 
L 46.152329 73.87299 
L 46.206688 73.154903 
L 46.315406 75.471016 
L 46.369765 75.41067 
L 46.424124 71.301607 
L 46.478483 73.302197 
L 46.532842 72.669775 
L 46.64156 74.79594 
L 46.695919 74.67097 
L 46.750278 72.757694 
L 46.804636 73.794301 
L 46.858995 73.393299 
L 46.967713 75.172923 
L 47.13079 72.514956 
L 47.239508 75.422832 
L 47.402585 72.121619 
L 47.456944 74.650805 
L 47.511303 74.536121 
L 47.565662 74.444014 
L 47.62002 75.068543 
L 47.674379 73.369913 
L 47.728738 74.310934 
L 47.783097 74.580589 
L 47.837456 72.023719 
L 47.891815 73.207712 
L 47.946174 74.642222 
L 48.000533 71.558537 
L 48.054892 74.710915 
L 48.16361 72.382867 
L 48.272328 75.317548 
L 48.326687 72.206613 
L 48.381045 73.014652 
L 48.489763 74.984567 
L 48.544122 74.225993 
L 48.598481 74.106354 
L 48.65284 74.670611 
L 48.815917 72.757551 
L 48.924635 74.125504 
L 48.978994 76.147529 
L 49.087712 73.514837 
L 49.14207 76.348464 
L 49.196429 74.623984 
L 49.250788 75.984735 
L 49.305147 73.224725 
L 49.359506 75.395985 
L 49.413865 75.066092 
L 49.522583 72.503573 
L 49.576942 73.891585 
L 49.631301 72.266064 
L 49.68566 73.769401 
L 49.848737 72.6151 
L 49.957454 75.308287 
L 50.120531 73.4812 
L 50.17489 75.030935 
L 50.337967 72.653931 
L 50.392326 72.863159 
L 50.501044 74.80281 
L 50.609762 71.536904 
L 50.66412 74.573608 
L 50.718479 74.268589 
L 50.772838 74.301776 
L 50.827197 73.744362 
L 50.881556 71.327586 
L 50.935915 72.134411 
L 51.098992 74.933609 
L 51.153351 71.595494 
L 51.20771 74.743595 
L 51.262069 73.934302 
L 51.316428 75.549424 
L 51.370787 73.240921 
L 51.425145 76.391507 
L 51.479504 73.297922 
L 51.533863 72.714182 
L 51.588222 74.060003 
L 51.642581 72.933795 
L 51.69694 72.759182 
L 51.914376 76.112517 
L 52.023094 73.878726 
L 52.077453 76.836969 
L 52.18617 72.163938 
L 52.240529 74.154346 
L 52.294888 73.837786 
L 52.349247 73.206348 
L 52.457965 75.619292 
L 52.566683 72.884446 
L 52.621042 73.94697 
L 52.72976 72.051519 
L 52.838478 75.16713 
L 52.892837 72.895223 
L 52.947195 73.337459 
L 53.001554 73.249656 
L 53.055913 73.299401 
L 53.110272 74.95017 
L 53.164631 74.622081 
L 53.273349 72.393122 
L 53.327708 74.319855 
L 53.382067 74.282087 
L 53.490785 72.193476 
L 53.545144 76.1 
L 53.599503 73.933927 
L 53.653862 75.847745 
L 53.70822 73.904241 
L 53.762579 72.848707 
L 53.816938 73.361242 
L 53.871297 75.658854 
L 53.925656 73.240934 
L 53.980015 73.545763 
L 54.143092 76.465636 
L 54.25181 72.013817 
L 54.306169 75.036528 
L 54.414887 74.935769 
L 54.523604 73.164915 
L 54.577963 74.184197 
L 54.632322 72.673178 
L 54.686681 73.960181 
L 54.74104 72.93246 
L 54.795399 74.240403 
L 54.849758 73.970945 
L 54.904117 73.958559 
L 55.012835 72.25072 
L 55.121553 75.639676 
L 55.175912 72.011816 
L 55.23027 72.174111 
L 55.338988 75.559797 
L 55.502065 73.343756 
L 55.610783 74.209948 
L 55.665142 76.376999 
L 55.719501 74.613809 
L 55.828219 74.815537 
L 55.882578 74.439479 
L 55.991295 71.391282 
L 56.100013 74.588164 
L 56.154372 72.220814 
L 56.208731 73.96762 
L 56.26309 73.600009 
L 56.317449 74.043388 
L 56.371808 71.781228 
L 56.426167 72.432418 
L 56.480526 74.900546 
L 56.534885 73.886084 
L 56.589244 73.710636 
L 56.643603 73.888579 
L 56.697962 76.315137 
L 56.75232 74.769252 
L 56.806679 73.138117 
L 56.861038 75.093174 
L 56.915397 73.386357 
L 56.969756 74.229722 
L 57.024115 72.00247 
L 57.078474 75.057343 
L 57.132833 73.558466 
L 57.187192 73.782112 
L 57.241551 75.501816 
L 57.404628 72.754313 
L 57.458987 75.033149 
L 57.513345 73.093229 
L 57.622063 74.100125 
L 57.676422 72.917145 
L 57.730781 74.203005 
L 57.78514 72.494238 
L 57.839499 73.588101 
L 57.948217 73.016869 
L 58.056935 74.708813 
L 58.111294 73.958171 
L 58.165653 74.243102 
L 58.220012 75.015776 
L 58.27437 74.699853 
L 58.383088 72.535112 
L 58.491806 75.279737 
L 58.546165 74.202417 
L 58.600524 73.139054 
L 58.654883 73.973359 
L 58.709242 73.777498 
L 58.763601 75.718672 
L 58.81796 74.328048 
L 58.872319 74.622873 
L 58.981037 73.571018 
L 59.035395 73.728802 
L 59.089754 73.262735 
L 59.198472 74.966162 
L 59.252831 72.941008 
L 59.30719 74.116866 
L 59.361549 73.507663 
L 59.415908 73.937103 
L 59.470267 75.136271 
L 59.524626 72.93095 
L 59.578985 73.991314 
L 59.633344 73.471234 
L 59.687703 75.373785 
L 59.742062 72.3793 
L 59.79642 74.517803 
L 59.850779 74.437705 
L 59.905138 75.225754 
L 59.959497 71.342886 
L 60.013856 75.029019 
L 60.122574 73.412871 
L 60.285651 76.067224 
L 60.394369 74.772086 
L 60.448728 75.539115 
L 60.503087 73.180307 
L 60.557445 74.500724 
L 60.611804 75.779468 
L 60.774881 72.060133 
L 60.82924 72.421244 
L 60.937958 75.975244 
L 61.046676 73.264715 
L 61.209753 76.100135 
L 61.264112 73.302689 
L 61.31847 75.029355 
L 61.372829 74.632291 
L 61.427188 72.841081 
L 61.481547 75.145306 
L 61.535906 73.942537 
L 61.644624 73.302752 
L 61.753342 72.092073 
L 61.807701 75.59568 
L 61.86206 74.104168 
L 61.970778 72.601879 
L 62.025137 75.122779 
L 62.079495 74.561472 
L 62.242572 72.553321 
L 62.296931 73.123151 
L 62.35129 73.902016 
L 62.405649 72.632987 
L 62.460008 73.878307 
L 62.514367 74.404165 
L 62.568726 74.269468 
L 62.677444 73.12572 
L 62.786162 75.198238 
L 62.894879 73.809276 
L 62.949238 74.693846 
L 63.003597 73.830935 
L 63.057956 72.203369 
L 63.112315 73.385839 
L 63.166674 74.211392 
L 63.221033 71.742425 
L 63.38411 75.772807 
L 63.547187 73.36736 
L 63.601545 75.006442 
L 63.655904 74.561976 
L 63.710263 71.941856 
L 63.764622 73.983491 
L 63.818981 73.239643 
L 63.87334 74.238982 
L 63.927699 73.162336 
L 63.982058 73.625241 
L 64.036417 73.260743 
L 64.090776 74.599586 
L 64.145135 73.259932 
L 64.199494 73.465912 
L 64.253853 72.94646 
L 64.471288 75.265311 
L 64.688724 72.503078 
L 64.743083 73.420879 
L 64.90616 75.159793 
L 64.960519 74.883335 
L 65.014878 75.613386 
L 65.069237 75.14811 
L 65.232313 73.563461 
L 65.39539 75.325521 
L 65.449749 73.838656 
L 65.504108 75.283781 
L 65.612826 72.637071 
L 65.721544 75.204585 
L 65.775903 74.149555 
L 65.830262 74.766959 
L 65.938979 75.648034 
L 66.047697 72.216771 
L 66.102056 74.095343 
L 66.156415 73.071177 
L 66.210774 73.125707 
L 66.265133 73.426087 
L 66.373851 74.729585 
L 66.42821 74.500734 
L 66.591287 73.127314 
L 66.645646 74.059901 
L 66.700004 73.980835 
L 66.754363 73.601766 
L 66.808722 75.117242 
L 66.863081 73.874513 
L 66.91744 73.705116 
L 66.971799 74.354007 
L 67.026158 73.412672 
L 67.134876 74.84095 
L 67.297953 72.950088 
L 67.352312 75.531805 
L 67.406671 73.97135 
L 67.461029 73.835143 
L 67.624106 74.809906 
L 67.678465 74.594554 
L 67.732824 73.585416 
L 67.787183 74.929966 
L 67.841542 74.616683 
L 68.004619 73.07787 
L 68.113337 75.362192 
L 68.167696 74.383205 
L 68.222054 72.559102 
L 68.276413 73.619514 
L 68.43949 75.607051 
L 68.493849 75.398339 
L 68.656926 73.666821 
L 68.711285 74.004741 
L 68.765644 72.648802 
L 68.820003 73.120021 
L 68.928721 73.085478 
L 68.983079 74.458347 
L 69.037438 73.384375 
L 69.091797 74.498721 
L 69.146156 74.441525 
L 69.200515 73.124794 
L 69.309233 75.404069 
L 69.363592 72.659378 
L 69.417951 73.813277 
L 69.47231 74.459131 
L 69.526669 74.290462 
L 69.689746 73.64503 
L 69.744104 75.327193 
L 69.798463 74.510482 
L 69.96154 73.756413 
L 70.124617 74.322453 
L 70.178976 73.534341 
L 70.233335 74.787974 
L 70.287694 73.000128 
L 70.342053 74.632426 
L 70.450771 74.485933 
L 70.559488 73.683362 
L 70.613847 73.799171 
L 70.668206 73.80699 
L 70.722565 72.650803 
L 70.776924 74.961991 
L 70.831283 73.11228 
L 70.99436 74.939897 
L 71.157437 73.428872 
L 71.211796 74.688751 
L 71.266154 73.402374 
L 71.374872 74.464547 
L 71.429231 74.038745 
L 71.48359 73.561867 
L 71.537949 74.276967 
L 71.592308 73.423164 
L 71.646667 74.498469 
L 71.701026 74.364705 
L 71.755385 72.916876 
L 71.809744 74.965679 
L 71.864103 73.185427 
L 71.972821 74.470291 
L 72.027179 73.072721 
L 72.081538 73.64505 
L 72.135897 73.62172 
L 72.190256 74.174889 
L 72.298974 72.6858 
L 72.462051 74.468618 
L 72.570769 73.299128 
L 72.625128 73.634107 
L 72.679487 73.644098 
L 72.733846 74.63401 
L 72.896922 72.691672 
L 73.059999 74.537067 
L 73.114358 74.144814 
L 73.168717 74.020803 
L 73.223076 75.131991 
L 73.277435 73.401578 
L 73.331794 74.373961 
L 73.386153 73.636817 
L 73.440512 73.920379 
L 73.494871 75.121877 
L 73.549229 74.21023 
L 73.603588 74.072083 
L 73.657947 74.153831 
L 73.712306 73.267041 
L 73.766665 73.661231 
L 73.821024 73.529772 
L 73.875383 73.994321 
L 73.929742 73.58071 
L 74.03846 73.467642 
L 74.092819 73.527671 
L 74.147178 73.967326 
L 74.201537 75.33175 
L 74.255896 74.572451 
L 74.310254 74.430515 
L 74.364613 74.61731 
L 74.52769 72.708255 
L 74.582049 72.880167 
L 74.853844 75.42868 
L 75.071279 73.440125 
L 75.125638 74.22623 
L 75.179997 73.620645 
L 75.234356 74.173277 
L 75.288715 74.049566 
L 75.343074 73.578893 
L 75.451792 75.206121 
L 75.506151 73.795415 
L 75.56051 74.20739 
L 75.723587 74.803288 
L 75.832304 73.472103 
L 75.886663 74.719436 
L 75.941022 74.157454 
L 76.104099 73.390572 
L 76.212817 74.328013 
L 76.267176 71.571664 
L 76.321535 73.874134 
L 76.375894 72.808774 
L 76.430253 72.837125 
L 76.702047 74.853464 
L 76.810765 73.636261 
L 76.865124 74.147566 
L 76.919483 73.241643 
L 76.973842 73.500232 
L 77.028201 75.161485 
L 77.08256 74.777333 
L 77.136919 72.453414 
L 77.191278 73.982187 
L 77.245637 73.710763 
L 77.299996 74.823295 
L 77.354354 72.464622 
L 77.408713 74.331016 
L 77.463072 74.571299 
L 77.626149 73.427783 
L 77.680508 74.659362 
L 77.734867 73.787533 
L 77.789226 73.035561 
L 77.952303 74.672165 
L 78.006662 73.347097 
L 78.061021 73.860866 
L 78.115379 75.087987 
L 78.169738 74.266493 
L 78.224097 73.266546 
L 78.278456 73.563194 
L 78.332815 74.355898 
L 78.387174 73.483083 
L 78.495892 75.049132 
L 78.658969 73.40941 
L 78.822046 75.208025 
L 78.985122 73.130825 
L 79.148199 74.806526 
L 79.202558 73.841014 
L 79.256917 74.295054 
L 79.311276 74.043069 
L 79.365635 74.429397 
L 79.419994 73.247104 
L 79.474353 74.615001 
L 79.528712 73.78473 
L 79.583071 74.434466 
L 79.637429 73.401354 
L 79.691788 74.761674 
L 79.746147 74.074896 
L 79.800506 74.037463 
L 79.854865 72.901053 
L 79.909224 74.361736 
L 79.963583 73.710283 
L 80.072301 73.365644 
L 80.12666 75.098179 
L 80.181019 74.014596 
L 80.235378 73.775342 
L 80.289737 72.780592 
L 80.344096 73.693276 
L 80.561531 74.752937 
L 80.724608 73.16419 
L 80.833326 73.366821 
L 80.887685 74.434999 
L 80.942044 74.18121 
L 81.050762 73.53072 
L 81.213838 75.153594 
L 81.376915 73.423438 
L 81.485633 74.340921 
L 81.539992 73.357107 
L 81.594351 73.974028 
L 81.757428 74.271886 
L 81.811787 73.75327 
L 81.866146 73.963691 
L 81.920505 74.786407 
L 82.083581 73.666784 
L 82.13794 74.696932 
L 82.192299 73.835687 
L 82.246658 73.325591 
L 82.301017 74.244432 
L 82.355376 73.712328 
L 82.409735 73.722404 
L 82.518453 74.679873 
L 82.572812 74.381525 
L 82.627171 74.378068 
L 82.68153 73.861577 
L 82.735888 73.952455 
L 82.790247 74.109849 
L 83.007683 73.261838 
L 83.062042 73.947265 
L 83.116401 73.373289 
L 83.17076 72.899607 
L 83.225119 74.750788 
L 83.279478 74.381596 
L 83.442555 72.978455 
L 83.551272 74.402975 
L 83.605631 73.536548 
L 83.65999 74.109814 
L 83.714349 73.629341 
L 83.768708 74.0888 
L 83.823067 73.808504 
L 83.877426 73.98693 
L 83.931785 74.317199 
L 83.986144 74.140542 
L 84.040503 74.123987 
L 84.094862 74.54079 
L 84.149221 73.786206 
L 84.20358 74.213269 
L 84.257938 74.871144 
L 84.312297 74.04325 
L 84.366656 74.976088 
L 84.475374 73.72886 
L 84.638451 74.787465 
L 84.69281 73.288608 
L 84.747169 73.334212 
L 84.801528 74.359301 
L 84.855887 74.26076 
L 84.910246 73.320693 
L 84.964605 73.42509 
L 85.018963 74.701246 
L 85.073322 73.764751 
L 85.18204 74.353126 
L 85.236399 74.141869 
L 85.290758 73.199845 
L 85.345117 74.396001 
L 85.399476 74.381063 
L 85.453835 73.328327 
L 85.508194 73.461463 
L 85.671271 74.584858 
L 85.779988 73.86509 
L 85.834347 74.171239 
L 85.888706 73.989724 
L 85.997424 74.721086 
L 86.051783 74.558244 
L 86.323578 73.700523 
L 86.377937 74.255987 
L 86.432296 73.076025 
L 86.486655 74.217007 
L 86.649731 73.978572 
L 86.70409 74.004291 
L 86.758449 74.319331 
L 86.812808 72.91494 
L 86.867167 73.779888 
L 86.921526 74.551782 
L 86.975885 74.218348 
L 87.138962 73.31884 
L 87.193321 73.705156 
L 87.24768 72.931862 
L 87.302038 73.244643 
L 87.356397 73.366472 
L 87.519474 74.453801 
L 87.573833 73.576737 
L 87.628192 73.661176 
L 87.682551 74.157946 
L 87.73691 74.019997 
L 87.791269 73.767604 
L 87.845628 74.939873 
L 87.899987 74.355795 
L 88.008705 74.8091 
L 88.117422 73.733167 
L 88.22614 73.876724 
L 88.280499 73.849977 
L 88.334858 74.3082 
L 88.389217 73.748639 
L 88.443576 73.85466 
L 88.497935 73.930061 
L 88.552294 73.670945 
L 88.606653 74.407925 
L 88.661012 74.170123 
L 88.76973 74.062916 
L 88.932806 73.372116 
L 89.095883 74.181382 
L 89.150242 73.733197 
L 89.204601 74.437627 
L 89.25896 74.039197 
L 89.476396 73.553552 
L 89.585113 74.594 
L 89.639472 73.642958 
L 89.693831 74.979112 
L 89.74819 73.513508 
L 89.802549 73.808847 
L 89.856908 74.069603 
L 89.911267 73.823656 
L 89.965626 73.780486 
L 90.019985 74.309932 
L 90.074344 73.888876 
L 90.128703 73.342287 
L 90.183062 74.002651 
L 90.237421 73.462501 
L 90.400497 74.522856 
L 90.454856 74.275596 
L 90.509215 74.244815 
L 90.563574 73.878225 
L 90.617933 74.032009 
L 90.726651 74.022489 
L 90.78101 74.426286 
L 90.835369 73.411097 
L 90.889728 73.678946 
L 91.052805 74.757884 
L 91.107163 74.015725 
L 91.161522 74.368843 
L 91.433317 73.824674 
L 91.542035 74.209306 
L 91.596394 73.781374 
L 91.650753 75.269971 
L 91.705112 73.884393 
L 91.759471 73.647588 
L 91.81383 73.914989 
L 91.922547 73.363919 
L 92.031265 74.755603 
L 92.085624 74.084333 
L 92.139983 74.272209 
L 92.194342 74.22471 
L 92.248701 73.214074 
L 92.30306 74.176335 
L 92.357419 73.709303 
L 92.411778 74.331478 
L 92.466137 73.924649 
L 92.520496 74.015225 
L 92.629213 73.251745 
L 92.683572 74.066051 
L 92.737931 73.096905 
L 92.79229 74.699935 
L 92.846649 73.560552 
L 92.901008 73.385788 
L 92.955367 74.377075 
L 93.009726 73.295334 
L 93.064085 74.164771 
L 93.118444 74.061682 
L 93.172803 74.234077 
L 93.227162 74.112693 
L 93.281521 73.648256 
L 93.33588 73.915655 
L 93.390238 73.703162 
L 93.498956 74.915475 
L 93.553315 73.39809 
L 93.607674 74.185439 
L 93.662033 74.089578 
L 93.716392 74.229388 
L 93.879469 73.648243 
L 93.988187 74.351035 
L 94.042546 74.212038 
L 94.151263 73.37267 
L 94.205622 74.452889 
L 94.259981 73.716215 
L 94.31434 74.129639 
L 94.368699 73.985182 
L 94.423058 74.100975 
L 94.477417 74.516153 
L 94.640494 73.403716 
L 94.803571 74.310309 
L 94.912288 74.017951 
L 94.966647 74.086253 
L 95.021006 73.75694 
L 95.075365 73.861518 
L 95.184083 74.15797 
L 95.238442 73.324685 
L 95.292801 73.661264 
L 95.34716 73.564327 
L 95.510237 74.692645 
L 95.564596 74.582679 
L 95.618955 73.758233 
L 95.673313 73.784366 
L 95.727672 73.836236 
L 95.782031 73.402588 
L 95.945108 74.229768 
L 95.999467 74.371841 
L 96.162544 73.43879 
L 96.216903 73.5653 
L 96.37998 74.187605 
L 96.434338 74.281038 
L 96.488697 73.796474 
L 96.543056 74.212997 
L 96.597415 74.174685 
L 96.706133 73.602928 
L 96.86921 74.78127 
L 96.923569 73.325036 
L 96.977928 73.975417 
L 97.032287 73.780186 
L 97.086646 74.074762 
L 97.141005 73.789777 
L 97.195364 73.906269 
L 97.249722 73.744411 
L 97.304081 74.175324 
L 97.35844 74.113428 
L 97.412799 73.8926 
L 97.467158 74.37588 
L 97.521517 74.248208 
L 97.575876 73.996695 
L 97.630235 74.229397 
L 97.738953 73.553319 
L 97.793312 74.4844 
L 97.847671 73.526177 
L 97.90203 73.869404 
L 97.956389 73.843235 
L 98.010747 73.528095 
L 98.119465 74.394885 
L 98.173824 74.106616 
L 98.228183 74.273603 
L 98.445619 73.79129 
L 98.499978 74.101199 
L 98.554337 73.683393 
L 98.608696 73.765547 
L 98.663055 74.221068 
L 98.717414 74.143407 
L 98.771772 73.730737 
L 98.826131 73.738556 
L 98.88049 73.980734 
L 98.934849 73.643761 
L 98.989208 74.113774 
L 99.043567 73.930127 
L 99.097926 73.905655 
L 99.152285 74.20185 
L 99.315362 73.628111 
L 99.369721 74.203157 
L 99.42408 73.569155 
L 99.478439 73.67551 
L 99.532797 74.286031 
L 99.587156 73.496141 
L 99.641515 74.035054 
L 99.804592 73.439267 
L 99.967669 74.062169 
L 100.022028 73.638747 
L 100.076387 74.024622 
L 100.239464 73.81959 
L 100.348181 74.027481 
L 100.511258 74.131473 
L 100.565617 73.737916 
L 100.619976 74.201166 
L 100.674335 73.977879 
L 100.728694 73.876007 
L 100.783053 73.916522 
L 100.837412 74.349531 
L 100.94613 73.812769 
L 101.217924 74.230414 
L 101.272283 74.368633 
L 101.326642 73.393861 
L 101.381001 74.161457 
L 101.489719 73.871646 
L 101.544078 74.003071 
L 101.652796 73.692716 
L 101.870231 74.30143 
L 101.978949 73.838652 
L 102.142026 73.978789 
L 102.196385 74.02529 
L 102.250744 73.56503 
L 102.413821 74.140888 
L 102.46818 74.408569 
L 102.576897 73.859581 
L 102.631256 73.93723 
L 102.739974 73.589843 
L 102.794333 74.17837 
L 102.848692 73.806392 
L 102.903051 73.868456 
L 102.95741 74.111766 
L 103.011769 73.925669 
L 103.066128 73.731238 
L 103.174846 74.123311 
L 103.229205 74.01521 
L 103.283564 73.838499 
L 103.337922 74.316254 
L 103.392281 74.079424 
L 103.44664 74.200781 
L 103.555358 73.77819 
L 103.664076 73.866727 
L 103.827153 74.0673 
L 103.881512 73.828059 
L 103.935871 74.216836 
L 103.99023 74.02496 
L 104.044589 73.862791 
L 104.098947 73.896561 
L 104.153306 73.939978 
L 104.262024 73.78006 
L 104.425101 73.993115 
L 104.47946 73.908481 
L 104.642537 74.198401 
L 104.696896 74.17884 
L 104.805614 73.916008 
L 104.859972 74.00527 
L 105.077408 74.272463 
L 105.131767 73.704749 
L 105.186126 73.943731 
L 105.240485 74.006285 
L 105.349203 74.321564 
L 105.51228 73.527429 
L 105.566639 74.244864 
L 105.620997 73.739953 
L 105.729715 74.263501 
L 105.838433 74.134624 
L 105.947151 73.901945 
L 106.00151 74.151906 
L 106.055869 73.79367 
L 106.110228 73.903164 
L 106.164587 73.827395 
L 106.218946 73.932635 
L 106.327664 74.137337 
L 106.436381 74.046511 
L 106.49074 74.011653 
L 106.653817 73.523084 
L 106.708176 74.097449 
L 106.762535 73.746103 
L 106.871253 74.216072 
L 107.03433 73.815225 
L 107.088689 74.16642 
L 107.197406 74.149566 
L 107.306124 73.897157 
L 107.360483 74.031088 
L 107.414842 73.74312 
L 107.469201 73.872021 
L 107.52356 73.998013 
L 107.577919 73.768227 
L 107.632278 74.054052 
L 107.686637 73.91759 
L 107.740996 74.012152 
L 107.849714 73.837832 
L 107.958431 74.15802 
L 108.01279 74.062347 
L 108.067149 73.879985 
L 108.121508 74.110231 
L 108.175867 73.955362 
L 108.284585 73.880843 
L 108.338944 73.990683 
L 108.393303 73.917304 
L 108.55638 73.824828 
L 108.610739 74.308443 
L 108.665097 73.678604 
L 108.719456 74.077476 
L 108.773815 74.134887 
L 108.828174 74.04119 
L 108.936892 73.851561 
L 109.04561 74.139467 
L 109.154328 73.780894 
L 109.208687 74.243116 
L 109.263046 73.985208 
L 109.371764 73.87997 
L 109.426122 73.97083 
L 109.480481 73.874644 
L 109.643558 73.875769 
L 109.697917 73.738363 
L 109.806635 73.983893 
L 109.860994 73.779771 
L 109.915353 74.249989 
L 109.969712 73.991013 
L 110.024071 74.111826 
L 110.07843 74.038879 
L 110.132789 74.047076 
L 110.187147 74.238963 
L 110.350224 73.768763 
L 110.404583 73.991196 
L 110.458942 73.669745 
L 110.513301 73.919549 
L 110.56766 73.941336 
L 110.622019 74.189697 
L 110.676378 74.037263 
L 110.785096 73.88944 
L 111.002531 74.053739 
L 111.05689 73.956088 
L 111.111249 74.193241 
L 111.165608 74.017633 
L 111.274326 73.779028 
L 111.328685 74.175136 
L 111.383044 74.122085 
L 111.437403 73.827336 
L 111.491762 73.860746 
L 111.546121 74.055305 
L 111.60048 73.804823 
L 111.654839 73.997663 
L 111.709197 73.90716 
L 111.817915 74.117985 
L 111.872274 74.069097 
L 111.926633 74.110929 
L 112.08971 73.826641 
L 112.361505 74.001394 
L 112.415864 73.863765 
L 112.470222 73.9351 
L 112.57894 73.970079 
L 112.633299 74.095997 
L 112.687658 73.904777 
L 112.742017 74.004468 
L 113.12253 73.940423 
L 113.231248 73.87124 
L 113.285606 74.061135 
L 113.339965 73.999375 
L 113.394324 73.755422 
L 113.448683 73.908077 
L 113.557401 74.025233 
L 113.774837 73.864814 
L 113.937914 74.130024 
L 114.155349 73.939409 
L 114.209708 74.076436 
L 114.264067 73.943297 
L 114.318426 73.919915 
L 114.372785 73.755463 
L 114.427144 73.940555 
L 114.481503 73.860331 
L 114.535862 74.007753 
L 114.590221 73.966951 
L 114.753298 73.931082 
L 114.916374 73.936565 
L 115.079451 73.798145 
L 115.296887 74.072857 
L 115.351246 73.823016 
L 115.405605 74.01961 
L 115.514323 73.800909 
L 115.568681 74.09334 
L 115.62304 73.997438 
L 115.677399 73.934126 
L 115.731758 74.150925 
L 115.840476 73.801269 
L 115.894835 73.898226 
L 115.949194 73.975064 
L 116.003553 73.902696 
L 116.057912 73.726923 
L 116.16663 74.156152 
L 116.275348 73.860268 
L 116.329706 73.913772 
L 116.927655 73.922023 
L 117.308167 73.935545 
L 117.362526 74.023585 
L 117.416885 73.835213 
L 117.471244 73.959749 
L 118.232269 73.923036 
L 118.286628 73.807169 
L 118.340987 74.063825 
L 118.395346 73.951196 
L 118.449705 73.914151 
L 118.504064 74.043248 
L 118.558423 73.978262 
L 118.721499 73.902768 
L 118.775858 74.000501 
L 118.830217 73.922331 
L 120.026114 73.994668 
L 120.134831 73.961158 
L 120.406626 73.877327 
L 120.460985 74.045973 
L 120.515344 73.95277 
L 120.569703 73.868973 
L 120.624062 73.950756 
L 121.765599 73.936258 
L 121.874317 73.996179 
L 122.037394 73.928779 
L 122.635342 73.951196 
L 122.798419 73.955503 
L 122.907137 73.922236 
L 123.178931 73.90443 
L 123.396367 73.945481 
L 123.559444 73.923087 
L 123.939956 73.959653 
L 124.972776 73.951842 
L 125.842519 73.960138 
L 126.168673 73.95014 
L 127.636364 73.952492 
L 127.636364 73.952492 
" clip-path="url(#pc063781adb)" style="fill: none; stroke: #ffd92f; stroke-width: 1.5; stroke-linecap: square"/>
   </g>
   <g id="patch_3">
    <path d="M 10.8 133.2 
L 10.8 10.8 
" style="fill: none; stroke: #000000; stroke-width: 0.8; stroke-linejoin: miter; stroke-linecap: square"/>
   </g>
   <g id="patch_4">
    <path d="M 133.2 133.2 
L 133.2 10.8 
" style="fill: none; stroke: #000000; stroke-width: 0.8; stroke-linejoin: miter; stroke-linecap: square"/>
   </g>
   <g id="patch_5">
    <path d="M 10.8 133.2 
L 133.2 133.2 
" style="fill: none; stroke: #000000; stroke-width: 0.8; stroke-linejoin: miter; stroke-linecap: square"/>
   </g>
   <g id="patch_6">
    <path d="M 10.8 10.8 
L 133.2 10.8 
" style="fill: none; stroke: #000000; stroke-width: 0.8; stroke-linejoin: miter; stroke-linecap: square"/>
   </g>
  </g>
 </g>
 <defs>
  <clipPath id="pc063781adb">
   <rect x="10.8" y="10.8" width="122.4" height="122.4"/>
  </clipPath>
 </defs>
</svg>
