<?xml version="1.0" encoding="utf-8" standalone="no"?>
<!DOCTYPE svg PUBLIC "-//W3C//DTD SVG 1.1//EN"
  "http://www.w3.org/Graphics/SVG/1.1/DTD/svg11.dtd">
<svg xmlns:xlink="http://www.w3.org/1999/xlink" width="144pt" height="144pt" viewBox="0 0 144 144" xmlns="http://www.w3.org/2000/svg" version="1.1">
 <metadata>
  <rdf:RDF xmlns:dc="http://purl.org/dc/elements/1.1/" xmlns:cc="http://creativecommons.org/ns#" xmlns:rdf="http://www.w3.org/1999/02/22-rdf-syntax-ns#">
   <cc:Work>
    <dc:type rdf:resource="http://purl.org/dc/dcmitype/StillImage"/>
    <dc:date>2025-02-11T14:44:00.592240</dc:date>
    <dc:format>image/svg+xml</dc:format>
    <dc:creator>
     <cc:Agent>
      <dc:title>Matplotlib v3.8.0, https://matplotlib.org/</dc:title>
     </cc:Agent>
    </dc:creator>
   </cc:Work>
  </rdf:RDF>
 </metadata>
 <defs>
  <style type="text/css">*{stroke-linejoin: round; stroke-linecap: butt}</style>
 </defs>
 <g id="figure_1">
  <g id="patch_1">
   <path d="M 0 144 
L 144 144 
L 144 0 
L 0 0 
L 0 144 
z
" style="fill: none"/>
  </g>
  <g id="axes_1">
   <g id="patch_2">
    <path d="M 10.8 133.2 
L 133.2 133.2 
L 133.2 10.8 
L 10.8 10.8 
L 10.8 133.2 
z
" style="fill: none"/>
   </g>
   <g id="matplotlib.axis_1"/>
   <g id="matplotlib.axis_2"/>
   <g id="line2d_1">
    <path d="M 16.363636 77.485624 
L 16.852867 77.449954 
L 16.907226 77.454631 
L 17.015944 77.583165 
L 17.17902 77.410892 
L 17.342097 77.631633 
L 17.505174 77.389785 
L 17.668251 77.558444 
L 17.72261 77.246198 
L 17.776969 77.523685 
L 17.831327 77.585071 
L 17.885686 77.446262 
L 17.940045 77.552823 
L 18.266199 77.329648 
L 18.429276 77.678987 
L 18.483635 77.088771 
L 18.537994 77.318996 
L 18.592352 77.755506 
L 18.646711 77.582156 
L 18.70107 77.572003 
L 18.864147 77.16185 
L 18.918506 77.545764 
L 18.972865 77.492544 
L 19.081583 77.275151 
L 19.135942 77.371914 
L 19.190301 77.588269 
L 19.24466 77.279278 
L 19.299019 77.473997 
L 19.353377 77.402509 
L 19.516454 77.795926 
L 19.679531 77.192048 
L 19.788249 77.55421 
L 19.896967 77.521108 
L 19.951326 77.093279 
L 20.005685 77.458143 
L 20.060044 77.494806 
L 20.114402 77.387414 
L 20.22312 77.859303 
L 20.331838 77.24705 
L 20.386197 78.537392 
L 20.440556 77.289513 
L 20.494915 78.259874 
L 20.549274 77.562136 
L 20.712351 77.30334 
L 20.821069 78.109772 
L 20.875427 77.829579 
L 20.929786 77.542311 
L 21.038504 77.510605 
L 21.092863 78.435295 
L 21.201581 77.147134 
L 21.25594 78.14359 
L 21.310299 77.817121 
L 21.364658 77.891758 
L 21.419017 77.241466 
L 21.473376 78.297842 
L 21.527735 76.817823 
L 21.582094 77.785894 
L 21.636452 77.413145 
L 21.690811 78.503373 
L 21.799529 76.409185 
L 21.908247 77.345243 
L 21.962606 77.032374 
L 22.016965 77.242923 
L 22.071324 78.43494 
L 22.125683 77.495713 
L 22.234401 75.943676 
L 22.343119 78.251839 
L 22.451836 78.024592 
L 22.506195 77.469766 
L 22.560554 78.412437 
L 22.669272 76.272276 
L 22.832349 78.489645 
L 22.941067 78.12812 
L 22.995426 76.879526 
L 23.049785 77.069992 
L 23.104144 77.173828 
L 23.158502 77.773317 
L 23.26722 76.501532 
L 23.484656 78.750751 
L 23.702092 76.549148 
L 23.756451 76.821292 
L 23.81081 77.231617 
L 23.865169 76.150543 
L 23.919527 76.266788 
L 23.973886 79.02321 
L 24.028245 76.554179 
L 24.136963 78.506338 
L 24.191322 77.807257 
L 24.354399 77.18314 
L 24.408758 77.619348 
L 24.463117 76.014312 
L 24.517476 76.67597 
L 24.626194 77.253259 
L 24.680552 76.893939 
L 24.78927 77.232107 
L 24.843629 76.923851 
L 24.897988 76.98656 
L 24.952347 78.736689 
L 25.006706 77.057027 
L 25.061065 75.055379 
L 25.169783 78.659458 
L 25.224142 76.115917 
L 25.278501 78.058098 
L 25.33286 77.28536 
L 25.495936 79.33976 
L 25.659013 76.177909 
L 25.82209 77.954307 
L 25.876449 79.899534 
L 25.930808 78.910489 
L 25.985167 77.849695 
L 26.039526 78.969186 
L 26.093885 78.786275 
L 26.148244 78.008685 
L 26.202602 78.847005 
L 26.31132 75.198421 
L 26.365679 77.482607 
L 26.420038 77.129576 
L 26.474397 78.114606 
L 26.528756 75.486929 
L 26.583115 79.449473 
L 26.637474 78.323142 
L 26.691833 78.257426 
L 26.746192 74.704744 
L 26.800551 80.082108 
L 26.85491 78.273445 
L 26.909269 78.76404 
L 27.017986 76.737724 
L 27.072345 79.785954 
L 27.126704 79.377395 
L 27.289781 75.567268 
L 27.34414 78.959889 
L 27.398499 77.533092 
L 27.452858 77.823975 
L 27.507217 75.382423 
L 27.561576 76.442149 
L 27.670294 77.895129 
L 27.724652 76.180297 
L 27.779011 77.110383 
L 27.887729 79.378788 
L 28.050806 75.035061 
L 28.159524 76.763523 
L 28.213883 75.144796 
L 28.37696 79.165198 
L 28.431319 77.045701 
L 28.485677 78.50649 
L 28.540036 79.399737 
L 28.703113 77.430605 
L 28.757472 78.146379 
L 28.811831 77.568894 
L 28.86619 75.835937 
L 28.920549 75.845489 
L 28.974908 77.078654 
L 29.029267 75.672984 
L 29.083626 76.48623 
L 29.246702 79.181651 
L 29.301061 77.141572 
L 29.35542 80.602342 
L 29.464138 80.55459 
L 29.518497 74.423516 
L 29.572856 77.135024 
L 29.627215 78.928922 
L 29.681574 76.604791 
L 29.735933 76.883757 
L 29.790292 79.228198 
L 29.953369 75.299072 
L 30.007727 74.102848 
L 30.170804 80.209768 
L 30.225163 78.747476 
L 30.279522 76.444344 
L 30.333881 79.478126 
L 30.38824 76.65333 
L 30.442599 76.988211 
L 30.496958 76.298912 
L 30.660035 80.065395 
L 30.823111 76.402776 
L 30.87747 76.810858 
L 31.040547 82.594224 
L 31.094906 75.644744 
L 31.149265 77.239686 
L 31.257983 79.275599 
L 31.312342 77.119885 
L 31.366701 77.144829 
L 31.42106 77.858669 
L 31.475419 74.173534 
L 31.529778 79.334086 
L 31.638495 79.117627 
L 31.801572 75.324172 
L 31.855931 79.627147 
L 31.91029 79.428563 
L 32.073367 76.207174 
L 32.127726 77.601915 
L 32.182085 82.388429 
L 32.236444 79.357815 
L 32.39952 77.873833 
L 32.453879 73.862447 
L 32.508238 77.361463 
L 32.562597 79.871177 
L 32.671315 76.347105 
L 32.725674 76.473579 
L 32.780033 76.631577 
L 32.834392 75.233111 
L 32.888751 76.152093 
L 32.94311 79.301481 
L 32.997469 77.624966 
L 33.051828 77.229155 
L 33.106186 73.117859 
L 33.214904 79.951372 
L 33.377981 76.319811 
L 33.541058 80.555003 
L 33.595417 76.049828 
L 33.649776 77.19973 
L 33.704135 80.474913 
L 33.758494 73.982039 
L 33.812853 75.253061 
L 33.975929 77.794638 
L 34.030288 74.33855 
L 34.084647 79.821617 
L 34.139006 69.53067 
L 34.193365 74.138273 
L 34.410801 81.469279 
L 34.46516 82.022853 
L 34.573878 75.883196 
L 34.628236 79.943661 
L 34.682595 79.323472 
L 34.845672 77.710423 
L 34.95439 82.045332 
L 35.117467 75.175495 
L 35.171826 75.445983 
L 35.280544 79.881884 
L 35.334903 79.385202 
L 35.389261 69.965125 
L 35.44362 76.927532 
L 35.552338 79.662555 
L 35.606697 77.519155 
L 35.661056 82.340384 
L 35.715415 78.756283 
L 35.769774 70.082225 
L 35.824133 77.315215 
L 35.878492 74.230382 
L 35.932851 81.595393 
L 35.98721 78.927226 
L 36.041569 79.069605 
L 36.150286 72.138349 
L 36.204645 78.541024 
L 36.259004 77.376547 
L 36.422081 72.803357 
L 36.639517 81.083275 
L 36.693876 80.316068 
L 36.748235 74.248361 
L 36.802594 79.340186 
L 36.856953 79.485151 
L 36.911311 73.899079 
L 36.96567 75.1991 
L 37.020029 80.285225 
L 37.074388 76.106753 
L 37.183106 73.741401 
L 37.291824 75.772572 
L 37.346183 81.54708 
L 37.400542 76.028355 
L 37.454901 74.249032 
L 37.50926 80.910881 
L 37.563619 72.27334 
L 37.617978 74.105115 
L 37.781054 78.104761 
L 37.835413 77.691166 
L 37.889772 75.301326 
L 38.052849 79.51382 
L 38.215926 74.5306 
L 38.270285 76.93817 
L 38.324644 74.895608 
L 38.379003 71.20199 
L 38.433361 80.829416 
L 38.48772 77.161158 
L 38.542079 74.656717 
L 38.650797 79.368558 
L 38.705156 78.053853 
L 38.759515 74.289299 
L 38.813874 74.550217 
L 38.922592 79.667284 
L 38.976951 75.848729 
L 39.03131 77.316474 
L 39.140028 85.393588 
L 39.357463 72.224543 
L 39.52054 79.421692 
L 39.574899 76.515848 
L 39.629258 76.040258 
L 39.683617 77.076956 
L 39.737976 76.664699 
L 39.792335 83.910035 
L 39.846694 77.917768 
L 39.901053 80.458655 
L 40.00977 73.160773 
L 40.064129 79.602546 
L 40.118488 74.20858 
L 40.172847 72.948648 
L 40.227206 78.375317 
L 40.281565 72.908375 
L 40.335924 73.52987 
L 40.390283 82.428451 
L 40.444642 77.885356 
L 40.499001 77.404765 
L 40.607719 72.310969 
L 40.716436 77.562531 
L 40.770795 77.282896 
L 40.933872 70.666886 
L 41.151308 79.944506 
L 41.205667 75.698208 
L 41.260026 78.280672 
L 41.314385 80.589202 
L 41.477461 77.036034 
L 41.640538 86.3226 
L 41.749256 78.856051 
L 41.912333 85.484386 
L 41.966692 83.427173 
L 42.129769 71.491183 
L 42.184128 72.480278 
L 42.238486 77.482925 
L 42.292845 71.262677 
L 42.401563 80.126993 
L 42.455922 74.854545 
L 42.510281 78.569535 
L 42.56464 75.853089 
L 42.618999 77.353996 
L 42.727717 86.609768 
L 42.836435 70.343308 
L 42.945153 80.651832 
L 43.05387 72.995109 
L 43.108229 74.13259 
L 43.271306 84.677694 
L 43.380024 78.038566 
L 43.434383 82.037439 
L 43.59746 77.602031 
L 43.651819 76.093422 
L 43.814895 82.995245 
L 43.923613 74.926317 
L 43.977972 81.7649 
L 44.032331 70.941782 
L 44.08669 76.21533 
L 44.249767 79.007368 
L 44.304126 69.92904 
L 44.358485 81.138484 
L 44.412844 79.13542 
L 44.467203 68.787064 
L 44.521561 80.662078 
L 44.57592 75.493733 
L 44.630279 76.075912 
L 44.684638 79.087806 
L 44.738997 72.102824 
L 44.793356 76.674517 
L 44.847715 74.348811 
L 44.902074 75.575769 
L 45.010792 79.452433 
L 45.065151 72.770727 
L 45.11951 77.796694 
L 45.228228 76.959269 
L 45.282586 78.913709 
L 45.336945 75.280121 
L 45.445663 86.82435 
L 45.500022 74.404766 
L 45.554381 84.95669 
L 45.771817 66.318775 
L 45.934894 81.201284 
L 45.989253 78.715179 
L 46.043611 80.362663 
L 46.09797 83.89684 
L 46.152329 80.481624 
L 46.206688 81.820581 
L 46.315406 73.294489 
L 46.424124 73.661354 
L 46.478483 82.071902 
L 46.532842 80.157521 
L 46.587201 80.421918 
L 46.695919 75.319131 
L 46.750278 78.078124 
L 46.804636 89.934739 
L 46.858995 82.442184 
L 46.913354 75.170806 
L 46.967713 87.881837 
L 47.022072 76.615367 
L 47.076431 73.388591 
L 47.13079 73.753312 
L 47.239508 80.193635 
L 47.293867 70.905605 
L 47.348226 73.945318 
L 47.402585 72.816897 
L 47.62002 83.18569 
L 47.674379 71.207665 
L 47.728738 79.871945 
L 47.783097 72.180959 
L 47.837456 79.467615 
L 48.000533 77.403852 
L 48.054892 77.55934 
L 48.109251 90.465355 
L 48.16361 82.234603 
L 48.272328 63.823168 
L 48.326687 79.825861 
L 48.381045 75.205339 
L 48.435404 78.99781 
L 48.489763 76.545844 
L 48.65284 73.161823 
L 48.707199 78.208878 
L 48.761558 73.35411 
L 48.870276 84.560405 
L 48.924635 71.606362 
L 48.978994 78.715527 
L 49.033353 79.790025 
L 49.087712 75.175289 
L 49.14207 79.43488 
L 49.196429 81.983183 
L 49.250788 78.160665 
L 49.305147 81.384493 
L 49.413865 73.621392 
L 49.468224 81.40641 
L 49.522583 76.617336 
L 49.631301 69.590288 
L 49.740019 88.402436 
L 49.794378 86.209372 
L 49.903095 73.057401 
L 49.957454 81.004114 
L 50.011813 87.198264 
L 50.066172 71.386213 
L 50.17489 72.030238 
L 50.283608 84.098597 
L 50.337967 74.400992 
L 50.392326 79.177782 
L 50.501044 84.679673 
L 50.555403 76.397432 
L 50.609762 83.927459 
L 50.66412 79.340141 
L 50.718479 62.081684 
L 50.772838 85.474274 
L 50.827197 82.341034 
L 50.881556 73.542283 
L 50.935915 88.849738 
L 50.990274 81.600363 
L 51.044633 68.476231 
L 51.098992 69.34146 
L 51.20771 74.544142 
L 51.262069 83.508721 
L 51.316428 79.819851 
L 51.370787 81.106927 
L 51.479504 70.85745 
L 51.533863 84.661505 
L 51.588222 84.080674 
L 51.69694 74.142399 
L 51.751299 75.167399 
L 51.805658 74.58973 
L 51.860017 82.063103 
L 52.023094 65.844067 
L 52.18617 80.306006 
L 52.240529 78.041028 
L 52.349247 84.095292 
L 52.403606 68.069197 
L 52.457965 73.500182 
L 52.566683 87.47792 
L 52.72976 65.648627 
L 52.784119 82.638983 
L 52.838478 81.564685 
L 52.947195 71.732806 
L 53.001554 78.749952 
L 53.055913 75.187671 
L 53.110272 76.405237 
L 53.164631 73.834845 
L 53.21899 78.824925 
L 53.273349 72.271841 
L 53.327708 76.962021 
L 53.436426 81.493492 
L 53.545144 74.469044 
L 53.599503 74.477357 
L 53.70822 78.758489 
L 53.816938 69.263218 
L 53.980015 78.314143 
L 54.088733 67.581566 
L 54.143092 76.15838 
L 54.197451 71.039242 
L 54.25181 66.911038 
L 54.414887 86.211453 
L 54.469245 81.7439 
L 54.523604 88.22423 
L 54.686681 67.382718 
L 54.74104 77.369484 
L 54.795399 74.574438 
L 54.849758 67.972856 
L 54.904117 79.427467 
L 54.958476 67.281957 
L 55.012835 70.1756 
L 55.121553 83.359817 
L 55.175912 81.057868 
L 55.23027 71.126699 
L 55.284629 90.194481 
L 55.338988 68.322978 
L 55.393347 69.983943 
L 55.556424 89.810905 
L 55.719501 68.625128 
L 55.828219 83.728158 
L 55.882578 77.041661 
L 55.936937 78.171784 
L 55.991295 79.771449 
L 56.100013 76.970917 
L 56.208731 84.324375 
L 56.371808 75.284973 
L 56.426167 87.025949 
L 56.480526 78.100404 
L 56.534885 83.274962 
L 56.589244 63.654634 
L 56.643603 79.261099 
L 56.697962 71.372367 
L 56.75232 73.817332 
L 56.806679 83.703936 
L 56.861038 76.559202 
L 56.915397 83.13945 
L 57.024115 73.392381 
L 57.187192 80.083568 
L 57.404628 65.191319 
L 57.458987 78.561207 
L 57.513345 70.590631 
L 57.567704 70.569317 
L 57.78514 84.454264 
L 57.839499 66.989641 
L 57.893858 81.525334 
L 57.948217 84.715142 
L 58.056935 70.733998 
L 58.165653 81.433132 
L 58.220012 75.828876 
L 58.27437 81.232146 
L 58.328729 77.815712 
L 58.383088 80.935938 
L 58.437447 83.377224 
L 58.600524 68.09497 
L 58.763601 74.903646 
L 58.81796 71.140505 
L 58.872319 88.494549 
L 58.926678 69.94133 
L 58.981037 75.060232 
L 59.035395 75.66602 
L 59.198472 90.135967 
L 59.415908 65.663056 
L 59.470267 72.250793 
L 59.524626 68.470416 
L 59.578985 59.562185 
L 59.742062 79.076563 
L 59.79642 71.109647 
L 59.850779 82.240108 
L 59.905138 74.110274 
L 59.959497 79.858281 
L 60.013856 63.207014 
L 60.068215 76.607745 
L 60.122574 83.237924 
L 60.176933 74.541839 
L 60.231292 97.773326 
L 60.285651 80.218692 
L 60.34001 94.355498 
L 60.394369 81.631303 
L 60.448728 74.391468 
L 60.503087 75.366189 
L 60.557445 90.036464 
L 60.611804 59.434423 
L 60.666163 79.808008 
L 60.720522 81.636572 
L 60.937958 69.240621 
L 60.992317 87.799021 
L 61.046676 78.804543 
L 61.101035 70.518373 
L 61.155394 74.783143 
L 61.209753 86.228984 
L 61.264112 67.974059 
L 61.31847 88.987334 
L 61.372829 77.115902 
L 61.427188 66.245643 
L 61.481547 72.115069 
L 61.590265 75.920242 
L 61.644624 75.049263 
L 61.698983 88.246431 
L 61.753342 76.00808 
L 61.807701 69.393965 
L 61.86206 70.816598 
L 61.916419 74.032581 
L 61.970778 90.273082 
L 62.025137 69.294219 
L 62.079495 82.521978 
L 62.133854 90.95665 
L 62.242572 76.394023 
L 62.35129 80.990434 
L 62.405649 78.56066 
L 62.460008 68.603554 
L 62.514367 72.470753 
L 62.568726 86.670318 
L 62.623085 76.760558 
L 62.731803 71.543644 
L 62.894879 82.103423 
L 62.949238 72.97204 
L 63.003597 96.013687 
L 63.057956 83.344316 
L 63.221033 57.83668 
L 63.275392 91.86257 
L 63.329751 81.227875 
L 63.38411 71.312537 
L 63.438469 73.240353 
L 63.492828 88.260692 
L 63.547187 74.681876 
L 63.601545 65.814862 
L 63.655904 88.143202 
L 63.710263 71.148393 
L 63.764622 66.926874 
L 63.87334 75.93395 
L 63.927699 73.438532 
L 63.982058 91.362375 
L 64.036417 76.195041 
L 64.090776 74.293307 
L 64.199494 79.988149 
L 64.253853 78.151711 
L 64.308212 73.45887 
L 64.362571 75.630369 
L 64.471288 82.27269 
L 64.580006 67.987859 
L 64.688724 86.282744 
L 64.743083 71.714357 
L 64.797442 78.03473 
L 64.851801 79.117915 
L 64.90616 64.778366 
L 64.960519 65.223653 
L 65.014878 68.625689 
L 65.069237 79.246336 
L 65.177954 60.321841 
L 65.286672 92.759633 
L 65.341031 80.741268 
L 65.39539 79.292373 
L 65.504108 59.179713 
L 65.558467 89.034096 
L 65.612826 58.090304 
L 65.667185 88.758671 
L 65.830262 64.117808 
L 65.993338 88.065857 
L 66.047697 82.611294 
L 66.102056 57.746156 
L 66.156415 65.892354 
L 66.265133 65.491063 
L 66.319492 88.365983 
L 66.373851 72.641866 
L 66.42821 83.884424 
L 66.482569 82.607911 
L 66.591287 61.302719 
L 66.645646 88.766216 
L 66.700004 71.943265 
L 66.754363 71.999931 
L 66.863081 83.915564 
L 66.91744 80.472398 
L 67.026158 60.666321 
L 67.080517 68.898561 
L 67.134876 94.03451 
L 67.189235 82.408814 
L 67.243594 91.350469 
L 67.297953 87.256195 
L 67.461029 55.783946 
L 67.624106 80.460242 
L 67.678465 77.24319 
L 67.732824 79.898461 
L 67.787183 84.344264 
L 67.841542 72.906215 
L 67.895901 86.449085 
L 67.95026 63.403131 
L 68.004619 66.179681 
L 68.058978 79.91089 
L 68.113337 57.678725 
L 68.167696 74.059805 
L 68.276413 64.171472 
L 68.330772 67.263059 
L 68.493849 100.831276 
L 68.548208 68.145846 
L 68.602567 91.102657 
L 68.765644 69.812574 
L 68.874362 75.343725 
L 68.928721 67.826585 
L 68.983079 71.343029 
L 69.037438 72.295637 
L 69.091797 95.499795 
L 69.146156 71.691906 
L 69.200515 89.017198 
L 69.254874 68.089075 
L 69.309233 75.074373 
L 69.363592 76.499034 
L 69.47231 93.239378 
L 69.526669 61.485633 
L 69.581028 63.635172 
L 69.635387 78.402947 
L 69.689746 75.342456 
L 69.852822 79.200537 
L 69.907181 79.022301 
L 69.96154 75.256107 
L 70.015899 85.943984 
L 70.124617 67.200835 
L 70.178976 71.21876 
L 70.233335 76.494035 
L 70.287694 70.748735 
L 70.342053 98.976378 
L 70.396412 74.224022 
L 70.450771 80.027659 
L 70.505129 65.849829 
L 70.559488 91.73591 
L 70.613847 85.97513 
L 70.722565 82.176651 
L 70.776924 52.899241 
L 70.831283 74.162629 
L 70.940001 55.315621 
L 70.99436 85.624385 
L 71.048719 79.266909 
L 71.103078 71.118437 
L 71.157437 88.502895 
L 71.211796 78.06457 
L 71.266154 76.067096 
L 71.320513 67.13473 
L 71.48359 93.149722 
L 71.592308 76.804723 
L 71.646667 95.435495 
L 71.701026 79.41658 
L 71.809744 70.163153 
L 71.918462 81.558435 
L 71.972821 74.064909 
L 72.027179 92.79035 
L 72.081538 66.897385 
L 72.135897 87.311917 
L 72.298974 71.797121 
L 72.353333 102.446278 
L 72.407692 89.4055 
L 72.462051 100.057431 
L 72.51641 65.803933 
L 72.570769 79.224405 
L 72.679487 66.98195 
L 72.733846 99.877163 
L 72.788204 69.226531 
L 72.896922 76.411929 
L 72.951281 61.168631 
L 73.00564 73.046948 
L 73.059999 102.116283 
L 73.114358 82.820823 
L 73.277435 68.65171 
L 73.440512 86.432756 
L 73.494871 72.135251 
L 73.549229 78.159983 
L 73.657947 92.545842 
L 73.712306 92.063652 
L 73.766665 67.044368 
L 73.821024 78.332286 
L 73.875383 87.804689 
L 73.929742 74.861012 
L 73.984101 92.471527 
L 74.03846 75.283413 
L 74.092819 84.995881 
L 74.255896 68.491899 
L 74.310254 64.058662 
L 74.418972 91.074268 
L 74.582049 70.349504 
L 74.636408 93.886848 
L 74.690767 71.774449 
L 74.745126 61.847329 
L 74.799485 68.242 
L 74.908203 82.227282 
L 74.962562 78.086851 
L 75.016921 78.274228 
L 75.125638 66.033219 
L 75.234356 83.016499 
L 75.343074 62.116263 
L 75.451792 81.191101 
L 75.506151 71.725376 
L 75.56051 79.459512 
L 75.614869 79.290296 
L 75.777946 91.010192 
L 75.886663 76.539604 
L 75.995381 91.420846 
L 76.158458 58.191346 
L 76.212817 88.089183 
L 76.267176 46.367167 
L 76.321535 70.990845 
L 76.375894 64.086286 
L 76.430253 68.101708 
L 76.484612 86.249059 
L 76.593329 58.071438 
L 76.702047 81.867316 
L 76.810765 76.000166 
L 76.865124 82.87419 
L 77.08256 63.276191 
L 77.245637 92.191264 
L 77.299996 79.41901 
L 77.354354 80.505249 
L 77.408713 87.650523 
L 77.463072 81.100272 
L 77.517431 70.109425 
L 77.57179 86.786683 
L 77.626149 85.539572 
L 77.680508 74.69506 
L 77.734867 90.290274 
L 77.789226 81.12574 
L 77.897944 57.95612 
L 78.006662 88.517718 
L 78.115379 66.924135 
L 78.169738 71.129531 
L 78.224097 90.756941 
L 78.278456 85.809908 
L 78.387174 67.050771 
L 78.441533 68.84136 
L 78.495892 72.168404 
L 78.550251 87.103355 
L 78.60461 48.506031 
L 78.658969 64.667498 
L 78.713328 56.977855 
L 78.767687 64.576801 
L 78.876404 88.486691 
L 78.930763 59.1032 
L 78.985122 67.098159 
L 79.039481 83.229372 
L 79.09384 75.426751 
L 79.148199 78.310082 
L 79.202558 97.999152 
L 79.256917 84.008298 
L 79.311276 72.798018 
L 79.365635 86.685122 
L 79.419994 85.661208 
L 79.474353 75.511422 
L 79.528712 102.027737 
L 79.583071 75.073447 
L 79.637429 83.837768 
L 79.691788 75.192234 
L 79.746147 81.607973 
L 79.800506 65.889263 
L 79.854865 94.092615 
L 79.909224 66.850219 
L 79.963583 75.255944 
L 80.017942 71.91184 
L 80.072301 72.654515 
L 80.181019 72.624905 
L 80.235378 85.556759 
L 80.344096 66.332583 
L 80.452813 105.094041 
L 80.507172 93.97372 
L 80.670249 70.213227 
L 80.724608 98.75861 
L 80.778967 85.088786 
L 80.833326 63.874231 
L 80.887685 80.035525 
L 80.942044 74.979147 
L 80.996403 75.98251 
L 81.050762 90.976204 
L 81.105121 73.538383 
L 81.15948 82.754923 
L 81.213838 102.166354 
L 81.268197 88.045002 
L 81.322556 90.730731 
L 81.539992 53.646397 
L 81.703069 91.329078 
L 81.757428 50.508628 
L 81.811787 103.40155 
L 81.866146 94.473582 
L 81.974863 63.727019 
L 82.029222 102.599413 
L 82.083581 77.474298 
L 82.13794 71.979816 
L 82.192299 99.716435 
L 82.246658 67.209211 
L 82.301017 97.830662 
L 82.409735 70.623038 
L 82.464094 86.29176 
L 82.518453 52.274282 
L 82.572812 75.615247 
L 82.627171 58.837308 
L 82.68153 101.757998 
L 82.735888 58.540708 
L 82.790247 82.262117 
L 82.844606 55.862807 
L 82.898965 94.108023 
L 82.953324 37.625156 
L 83.007683 69.299364 
L 83.062042 81.65121 
L 83.225119 64.804773 
L 83.279478 78.825445 
L 83.333837 57.017251 
L 83.388196 72.517672 
L 83.442555 88.211539 
L 83.496913 86.28726 
L 83.714349 72.007197 
L 83.768708 79.317993 
L 83.877426 60.475519 
L 84.040503 90.377321 
L 84.094862 67.200545 
L 84.149221 69.589672 
L 84.312297 104.357448 
L 84.475374 54.702697 
L 84.584092 91.334048 
L 84.638451 90.785071 
L 84.69281 71.333985 
L 84.747169 84.613752 
L 84.801528 85.287386 
L 84.855887 62.87399 
L 84.910246 81.984502 
L 84.964605 85.929251 
L 85.018963 66.753953 
L 85.073322 103.387161 
L 85.127681 74.908509 
L 85.236399 91.714574 
L 85.345117 62.927457 
L 85.399476 66.668324 
L 85.508194 78.029968 
L 85.562553 49.46663 
L 85.616912 78.183687 
L 85.671271 78.099291 
L 85.834347 95.414645 
L 85.943065 67.116892 
L 86.051783 107.318998 
L 86.106142 67.567287 
L 86.160501 76.05376 
L 86.21486 96.911489 
L 86.269219 82.276996 
L 86.323578 54.446269 
L 86.377937 80.863422 
L 86.432296 78.342987 
L 86.486655 64.882687 
L 86.541013 105.629028 
L 86.595372 67.514411 
L 86.649731 88.366648 
L 86.70409 87.749136 
L 86.867167 74.870714 
L 86.921526 64.129828 
L 86.975885 75.153784 
L 87.030244 72.490791 
L 87.193321 92.790234 
L 87.24768 95.551533 
L 87.410756 71.170188 
L 87.465115 82.031517 
L 87.519474 77.841156 
L 87.573833 47.19434 
L 87.628192 75.721231 
L 87.682551 78.43799 
L 87.73691 88.763698 
L 87.791269 49.718876 
L 87.845628 53.349529 
L 88.063063 90.316784 
L 88.117422 87.10309 
L 88.171781 70.446066 
L 88.22614 71.612077 
L 88.280499 91.241626 
L 88.334858 67.48006 
L 88.389217 83.708729 
L 88.443576 106.114002 
L 88.552294 77.689147 
L 88.606653 112.181035 
L 88.661012 56.065145 
L 88.715371 66.698834 
L 88.76973 62.594267 
L 88.824088 96.826471 
L 88.878447 96.775819 
L 88.932806 68.19393 
L 88.987165 84.086618 
L 89.041524 85.030831 
L 89.095883 100.575297 
L 89.150242 52.917767 
L 89.204601 80.453344 
L 89.313319 69.274671 
L 89.422037 90.470464 
L 89.476396 68.599684 
L 89.530755 94.584599 
L 89.585113 48.120898 
L 89.639472 107.507301 
L 89.693831 94.663034 
L 89.74819 66.248789 
L 89.802549 89.593787 
L 89.911267 46.747487 
L 89.965626 53.230218 
L 90.128703 83.735171 
L 90.183062 57.425192 
L 90.237421 75.398387 
L 90.29178 77.545576 
L 90.346138 96.291788 
L 90.400497 80.947813 
L 90.454856 87.651321 
L 90.509215 61.310308 
L 90.563574 76.152657 
L 90.617933 72.707986 
L 90.672292 47.450408 
L 90.78101 89.779043 
L 90.889728 45.904387 
L 90.998446 89.28317 
L 91.107163 72.87083 
L 91.161522 77.43113 
L 91.215881 70.848053 
L 91.27024 92.739294 
L 91.324599 62.521256 
L 91.378958 72.085836 
L 91.487676 82.263527 
L 91.542035 62.760533 
L 91.596394 67.172732 
L 91.650753 66.866941 
L 91.705112 80.325294 
L 91.759471 69.040959 
L 91.81383 75.333907 
L 91.868188 106.075638 
L 91.922547 59.190251 
L 91.976906 83.281843 
L 92.139983 73.909672 
L 92.248701 111.129852 
L 92.30306 89.038688 
L 92.411778 65.805259 
L 92.466137 106.049056 
L 92.520496 90.760998 
L 92.574855 67.081265 
L 92.629213 74.896586 
L 92.683572 85.331267 
L 92.737931 52.613535 
L 92.79229 88.687028 
L 92.846649 81.600415 
L 92.901008 68.559514 
L 92.955367 73.961535 
L 93.009726 87.536294 
L 93.064085 83.099895 
L 93.227162 57.738916 
L 93.281521 64.190468 
L 93.390238 90.691795 
L 93.444597 79.678836 
L 93.498956 83.025599 
L 93.607674 47.326208 
L 93.662033 48.495905 
L 93.82511 89.560816 
L 93.933828 84.538148 
L 93.988187 61.737579 
L 94.042546 63.846642 
L 94.096905 72.602584 
L 94.151263 122.082912 
L 94.205622 62.691658 
L 94.259981 86.608575 
L 94.31434 101.124731 
L 94.368699 72.250384 
L 94.477417 72.488916 
L 94.640494 110.201562 
L 94.85793 67.876764 
L 94.912288 71.870935 
L 95.075365 57.655719 
L 95.129724 88.602027 
L 95.184083 52.611622 
L 95.238442 82.794517 
L 95.292801 100.14712 
L 95.34716 37.231308 
L 95.401519 77.436225 
L 95.455878 71.450476 
L 95.510237 113.782133 
L 95.564596 92.982954 
L 95.673313 71.200718 
L 95.83639 91.808994 
L 95.945108 53.781222 
L 96.162544 112.900145 
L 96.216903 52.120783 
L 96.271262 75.245478 
L 96.325621 82.845734 
L 96.488697 46.681257 
L 96.543056 91.969086 
L 96.597415 79.358069 
L 96.651774 51.081069 
L 96.814851 90.585825 
L 96.86921 76.048063 
L 96.923569 82.508991 
L 96.977928 84.469848 
L 97.032287 77.860756 
L 97.086646 55.39205 
L 97.141005 87.375081 
L 97.195364 77.461081 
L 97.249722 65.098263 
L 97.35844 94.728066 
L 97.467158 78.871276 
L 97.521517 92.670985 
L 97.575876 63.697606 
L 97.630235 72.812591 
L 97.738953 95.46952 
L 97.793312 83.719251 
L 97.847671 85.328987 
L 97.90203 101.959119 
L 97.956389 88.930109 
L 98.010747 54.407961 
L 98.065106 90.232159 
L 98.119465 98.578974 
L 98.228183 55.558818 
L 98.336901 76.132587 
L 98.39126 40.827051 
L 98.445619 76.113741 
L 98.499978 53.039904 
L 98.554337 55.66248 
L 98.663055 70.101657 
L 98.826131 103.018455 
L 98.88049 104.82433 
L 98.989208 49.313064 
L 99.043567 93.393757 
L 99.152285 92.482718 
L 99.206644 48.055644 
L 99.261003 51.543926 
L 99.369721 99.520105 
L 99.42408 65.662925 
L 99.478439 81.713332 
L 99.587156 64.822966 
L 99.641515 74.728305 
L 99.695874 55.854754 
L 99.858951 83.201108 
L 99.91331 48.086122 
L 99.967669 52.566646 
L 100.130746 94.234414 
L 100.239464 64.910642 
L 100.293822 83.469761 
L 100.348181 51.821886 
L 100.40254 63.246012 
L 100.456899 88.01702 
L 100.511258 54.094459 
L 100.565617 115.953352 
L 100.619976 54.217515 
L 100.728694 59.013556 
L 100.783053 95.248233 
L 100.837412 75.557555 
L 100.891771 65.780177 
L 100.94613 88.862365 
L 101.000489 81.235738 
L 101.217924 98.761355 
L 101.272283 43.406072 
L 101.326642 86.238876 
L 101.381001 82.39444 
L 101.43536 90.429937 
L 101.544078 36.115162 
L 101.761514 90.32274 
L 101.815872 87.546675 
L 101.870231 50.999389 
L 101.92459 63.959351 
L 101.978949 74.01276 
L 102.033308 57.519966 
L 102.087667 70.063245 
L 102.142026 70.770886 
L 102.196385 57.55412 
L 102.250744 74.693313 
L 102.305103 67.705351 
L 102.359462 57.120319 
L 102.413821 90.968151 
L 102.46818 74.891217 
L 102.576897 70.632687 
L 102.685615 96.753075 
L 102.794333 68.01477 
L 102.848692 75.93111 
L 102.95741 90.256728 
L 103.011769 27.576838 
L 103.066128 72.920907 
L 103.120487 69.691784 
L 103.174846 86.567844 
L 103.229205 73.320392 
L 103.283564 82.958113 
L 103.337922 80.801146 
L 103.392281 77.260243 
L 103.44664 103.129476 
L 103.609717 71.545158 
L 103.664076 68.995435 
L 103.718435 59.836766 
L 103.772794 87.527231 
L 103.827153 85.980117 
L 103.881512 52.206701 
L 103.935871 66.606648 
L 104.098947 89.143077 
L 104.153306 67.679106 
L 104.207665 84.335054 
L 104.262024 112.96782 
L 104.425101 67.858925 
L 104.47946 61.386719 
L 104.642537 103.614426 
L 104.696896 103.255758 
L 104.751255 55.714642 
L 104.805614 84.63056 
L 104.859972 92.29892 
L 104.914331 70.370649 
L 104.96869 88.07055 
L 105.131767 57.061161 
L 105.186126 74.361487 
L 105.240485 43.310833 
L 105.294844 72.661822 
L 105.349203 71.337303 
L 105.51228 97.897957 
L 105.566639 47.489034 
L 105.620997 98.54406 
L 105.675356 95.368154 
L 105.838433 38.373462 
L 105.892792 123.040848 
L 105.947151 92.221085 
L 106.00151 69.449569 
L 106.055869 90.936526 
L 106.110228 75.884467 
L 106.164587 87.287887 
L 106.273305 68.282457 
L 106.327664 105.302523 
L 106.382022 33.769958 
L 106.436381 95.162197 
L 106.49074 53.81057 
L 106.545099 89.787813 
L 106.599458 73.987618 
L 106.653817 74.221876 
L 106.708176 75.90914 
L 106.762535 72.467018 
L 106.816894 85.521256 
L 106.925612 59.173608 
L 106.979971 80.941706 
L 107.088689 80.723445 
L 107.143047 54.602614 
L 107.197406 75.865958 
L 107.251765 65.208831 
L 107.414842 91.114215 
L 107.577919 123.822456 
L 107.632278 65.747249 
L 107.686637 90.907592 
L 107.958431 59.293174 
L 108.01279 127.959209 
L 108.067149 85.049275 
L 108.121508 98.037214 
L 108.284585 58.612952 
L 108.338944 56.251255 
L 108.393303 78.939308 
L 108.447662 56.549746 
L 108.502021 66.141596 
L 108.55638 49.420017 
L 108.610739 93.185888 
L 108.665097 64.411332 
L 108.719456 69.601642 
L 108.773815 107.375681 
L 108.828174 70.961205 
L 108.882533 88.242781 
L 108.936892 69.065322 
L 109.099969 129.850994 
L 109.154328 58.590326 
L 109.208687 64.333389 
L 109.371764 85.625526 
L 109.426122 56.955241 
L 109.480481 70.958199 
L 109.53484 64.346933 
L 109.752276 90.467445 
L 109.860994 75.609801 
L 109.915353 122.29599 
L 109.969712 86.005728 
L 110.07843 44.966424 
L 110.241506 94.056552 
L 110.295865 72.740626 
L 110.350224 82.394913 
L 110.404583 80.389973 
L 110.458942 115.066851 
L 110.513301 49.485832 
L 110.56766 52.54734 
L 110.622019 90.847908 
L 110.676378 76.625956 
L 110.730737 48.315915 
L 110.893814 95.398428 
L 110.948172 49.99084 
L 111.002531 82.526954 
L 111.05689 53.559017 
L 111.165608 103.189864 
L 111.219967 100.92729 
L 111.274326 74.50338 
L 111.328685 95.364878 
L 111.546121 30.844276 
L 111.709197 94.409221 
L 111.872274 42.417516 
L 111.926633 103.340257 
L 111.980992 48.046635 
L 112.035351 79.834566 
L 112.08971 36.03337 
L 112.144069 92.128338 
L 112.198428 84.818946 
L 112.252787 81.160724 
L 112.361505 56.009952 
L 112.524581 106.767328 
L 112.687658 46.363408 
L 112.796376 91.227419 
L 112.850735 69.427391 
L 112.905094 76.29715 
L 112.959453 72.106544 
L 113.013812 85.727029 
L 113.068171 76.520592 
L 113.12253 76.271465 
L 113.176889 70.834532 
L 113.285606 97.051654 
L 113.503042 59.224723 
L 113.557401 121.132903 
L 113.61176 87.30148 
L 113.666119 86.831913 
L 113.829196 55.533908 
L 113.883555 94.872967 
L 113.937914 94.422719 
L 114.046631 50.744012 
L 114.10099 85.133524 
L 114.155349 79.558964 
L 114.209708 73.455117 
L 114.264067 96.740906 
L 114.318426 45.603464 
L 114.372785 95.128716 
L 114.481503 74.87834 
L 114.535862 91.895047 
L 114.698939 51.709195 
L 114.807656 92.482486 
L 114.916374 60.665812 
L 115.079451 110.305855 
L 115.13381 46.646018 
L 115.188169 82.098264 
L 115.242528 104.773414 
L 115.296887 68.650288 
L 115.351246 106.947069 
L 115.405605 93.66605 
L 115.459964 88.841153 
L 115.514323 52.807392 
L 115.568681 70.44104 
L 115.62304 105.667348 
L 115.677399 70.426777 
L 115.731758 89.413635 
L 115.786117 68.740096 
L 115.840476 74.313123 
L 115.894835 80.343958 
L 115.949194 20.031019 
L 116.003553 90.616777 
L 116.057912 83.824709 
L 116.112271 73.986555 
L 116.275348 87.219945 
L 116.384065 78.479443 
L 116.492783 93.462352 
L 116.601501 47.943486 
L 116.764578 81.133617 
L 116.927655 57.999465 
L 117.036373 101.863226 
L 117.090731 82.485008 
L 117.14509 98.760551 
L 117.199449 58.88923 
L 117.253808 70.343691 
L 117.308167 76.638496 
L 117.362526 58.792814 
L 117.416885 93.934132 
L 117.471244 60.30474 
L 117.525603 66.599059 
L 117.579962 90.725421 
L 117.634321 77.10065 
L 117.68868 75.13686 
L 117.743039 96.726091 
L 117.851756 50.797838 
L 117.906115 117.202187 
L 117.960474 51.949304 
L 118.014833 60.881192 
L 118.069192 98.328536 
L 118.123551 65.964386 
L 118.17791 45.50285 
L 118.232269 96.388621 
L 118.286628 69.544899 
L 118.340987 69.997937 
L 118.395346 62.301472 
L 118.449705 72.737652 
L 118.504064 66.470589 
L 118.558423 33.254582 
L 118.721499 92.391914 
L 118.775858 60.623331 
L 118.830217 75.250725 
L 118.938935 125.166222 
L 118.993294 93.33337 
L 119.047653 41.594045 
L 119.102012 72.867461 
L 119.156371 67.313075 
L 119.265089 103.265753 
L 119.319448 82.096283 
L 119.373806 80.015251 
L 119.482524 66.96474 
L 119.536883 90.477406 
L 119.591242 79.14129 
L 119.69996 104.813869 
L 119.754319 99.742001 
L 119.808678 55.864009 
L 119.863037 108.415793 
L 119.917396 85.564836 
L 120.080473 37.046957 
L 120.026114 86.015009 
L 120.134831 38.391286 
L 120.18919 39.812018 
L 120.243549 54.930099 
L 120.297908 33.664183 
L 120.352267 93.995545 
L 120.406626 66.395228 
L 120.460985 64.75005 
L 120.515344 86.600179 
L 120.569703 35.68498 
L 120.624062 94.982247 
L 120.73278 94.786183 
L 120.787139 54.283175 
L 120.841498 72.701594 
L 120.895856 71.42859 
L 120.950215 98.484731 
L 121.113292 59.483783 
L 121.167651 112.21382 
L 121.22201 78.994422 
L 121.276369 79.797946 
L 121.330728 39.80646 
L 121.385087 63.313122 
L 121.439446 42.573335 
L 121.493805 103.160859 
L 121.548164 81.065913 
L 121.602523 92.337607 
L 121.656881 72.266873 
L 121.765599 95.994245 
L 121.874317 56.656709 
L 121.928676 92.154366 
L 121.983035 54.144623 
L 122.037394 65.29259 
L 122.091753 102.615671 
L 122.146112 43.122804 
L 122.200471 85.13012 
L 122.25483 91.073599 
L 122.363548 45.751945 
L 122.417906 75.416703 
L 122.526624 70.742344 
L 122.689701 89.880624 
L 122.74406 59.754917 
L 122.798419 80.617823 
L 122.852778 87.587728 
L 122.961496 49.751043 
L 123.124573 70.871957 
L 123.178931 47.632749 
L 123.23329 74.053182 
L 123.287649 65.782529 
L 123.396367 57.242525 
L 123.450726 83.817795 
L 123.505085 65.300741 
L 123.559444 65.837787 
L 123.613803 45.119414 
L 123.722521 93.128627 
L 123.77688 68.295019 
L 123.831239 85.48507 
L 123.885598 126.972438 
L 123.939956 60.887079 
L 123.994315 93.352119 
L 124.211751 73.578685 
L 124.320469 91.394014 
L 124.374828 87.920659 
L 124.429187 87.203663 
L 124.483546 66.624463 
L 124.537905 73.987985 
L 124.700981 119.594718 
L 124.75534 62.166999 
L 124.809699 68.93749 
L 124.864058 72.129165 
L 124.918417 104.816212 
L 124.972776 48.536967 
L 125.027135 92.322102 
L 125.081494 80.354154 
L 125.135853 90.84499 
L 125.190212 86.83508 
L 125.244571 98.792239 
L 125.353289 73.665849 
L 125.407648 110.636239 
L 125.462006 107.744128 
L 125.570724 37.376693 
L 125.625083 80.360634 
L 125.679442 75.096716 
L 125.842519 108.67029 
L 125.896878 48.773886 
L 125.951237 62.233076 
L 126.005596 91.676835 
L 126.114314 90.601945 
L 126.168673 82.155189 
L 126.223031 86.665943 
L 126.27739 95.339901 
L 126.440467 57.096053 
L 126.494826 83.359351 
L 126.549185 64.651671 
L 126.603544 44.040103 
L 126.766621 102.524609 
L 126.82098 70.693916 
L 126.875339 125.224326 
L 126.929698 86.097253 
L 126.984056 81.394971 
L 127.092774 100.264289 
L 127.147133 67.880372 
L 127.201492 105.113397 
L 127.255851 79.6554 
L 127.31021 81.612128 
L 127.364569 41.387288 
L 127.418928 65.498269 
L 127.527646 84.295164 
L 127.582005 68.686452 
L 127.636364 121.049328 
L 127.636364 121.049328 
" clip-path="url(#pb09c923b0d)" style="fill: none; stroke: #8da0cb; stroke-width: 1.5; stroke-linecap: square"/>
   </g>
   <g id="patch_3">
    <path d="M 10.8 133.2 
L 10.8 10.8 
" style="fill: none; stroke: #000000; stroke-width: 0.8; stroke-linejoin: miter; stroke-linecap: square"/>
   </g>
   <g id="patch_4">
    <path d="M 133.2 133.2 
L 133.2 10.8 
" style="fill: none; stroke: #000000; stroke-width: 0.8; stroke-linejoin: miter; stroke-linecap: square"/>
   </g>
   <g id="patch_5">
    <path d="M 10.8 133.2 
L 133.2 133.2 
" style="fill: none; stroke: #000000; stroke-width: 0.8; stroke-linejoin: miter; stroke-linecap: square"/>
   </g>
   <g id="patch_6">
    <path d="M 10.8 10.8 
L 133.2 10.8 
" style="fill: none; stroke: #000000; stroke-width: 0.8; stroke-linejoin: miter; stroke-linecap: square"/>
   </g>
  </g>
 </g>
 <defs>
  <clipPath id="pb09c923b0d">
   <rect x="10.8" y="10.8" width="122.4" height="122.4"/>
  </clipPath>
 </defs>
</svg>
