<?xml version="1.0" encoding="utf-8" standalone="no"?>
<!DOCTYPE svg PUBLIC "-//W3C//DTD SVG 1.1//EN"
  "http://www.w3.org/Graphics/SVG/1.1/DTD/svg11.dtd">
<svg xmlns:xlink="http://www.w3.org/1999/xlink" width="144pt" height="144pt" viewBox="0 0 144 144" xmlns="http://www.w3.org/2000/svg" version="1.1">
 <metadata>
  <rdf:RDF xmlns:dc="http://purl.org/dc/elements/1.1/" xmlns:cc="http://creativecommons.org/ns#" xmlns:rdf="http://www.w3.org/1999/02/22-rdf-syntax-ns#">
   <cc:Work>
    <dc:type rdf:resource="http://purl.org/dc/dcmitype/StillImage"/>
    <dc:date>2025-02-11T14:44:00.616043</dc:date>
    <dc:format>image/svg+xml</dc:format>
    <dc:creator>
     <cc:Agent>
      <dc:title>Matplotlib v3.8.0, https://matplotlib.org/</dc:title>
     </cc:Agent>
    </dc:creator>
   </cc:Work>
  </rdf:RDF>
 </metadata>
 <defs>
  <style type="text/css">*{stroke-linejoin: round; stroke-linecap: butt}</style>
 </defs>
 <g id="figure_1">
  <g id="patch_1">
   <path d="M 0 144 
L 144 144 
L 144 0 
L 0 0 
L 0 144 
z
" style="fill: none"/>
  </g>
  <g id="axes_1">
   <g id="patch_2">
    <path d="M 10.8 133.2 
L 133.2 133.2 
L 133.2 10.8 
L 10.8 10.8 
L 10.8 133.2 
z
" style="fill: none"/>
   </g>
   <g id="matplotlib.axis_1"/>
   <g id="matplotlib.axis_2"/>
   <g id="line2d_1">
    <path d="M 16.363636 70.029318 
L 16.526713 26.368749 
L 16.581072 89.437507 
L 16.635431 85.962254 
L 16.68979 45.880111 
L 16.744149 97.859258 
L 16.798508 55.615541 
L 16.852867 76.142685 
L 16.907226 44.511046 
L 16.961585 96.787345 
L 17.015944 56.083192 
L 17.070302 57.004903 
L 17.124661 77.278694 
L 17.17902 74.774679 
L 17.287738 10.808775 
L 17.342097 100.654192 
L 17.396456 58.35882 
L 17.668251 96.803928 
L 17.776969 42.393359 
L 17.885686 87.666686 
L 18.048763 40.776078 
L 18.157481 74.826634 
L 18.21184 44.03448 
L 18.266199 46.725901 
L 18.374917 63.910658 
L 18.429276 25.76795 
L 18.483635 64.912331 
L 18.537994 109.870245 
L 18.592352 86.425303 
L 18.70107 78.851255 
L 18.755429 51.676249 
L 18.809788 70.627746 
L 18.864147 81.433674 
L 18.918506 74.919412 
L 18.972865 33.66048 
L 19.027224 42.579433 
L 19.190301 59.264541 
L 19.24466 38.911379 
L 19.407736 85.406176 
L 19.516454 76.552414 
L 19.570813 56.189832 
L 19.625172 95.314028 
L 19.679531 47.428217 
L 19.73389 84.468682 
L 19.842608 40.157548 
L 19.896967 68.461702 
L 19.951326 67.718003 
L 20.005685 93.528765 
L 20.060044 87.922291 
L 20.22312 37.50915 
L 20.331838 83.632833 
L 20.386197 44.295379 
L 20.440556 57.429932 
L 20.494915 49.547427 
L 20.603633 84.768275 
L 20.657992 36.492637 
L 20.712351 49.636992 
L 20.929786 90.741089 
L 21.092863 30.284683 
L 21.201581 105.414013 
L 21.25594 56.77004 
L 21.310299 69.210676 
L 21.364658 88.319749 
L 21.419017 67.392261 
L 21.582094 107.698083 
L 21.690811 52.029855 
L 21.74517 88.679271 
L 21.853888 35.724534 
L 21.908247 37.664936 
L 21.962606 92.1303 
L 22.016965 62.144517 
L 22.125683 51.361029 
L 22.234401 88.765041 
L 22.28876 75.706647 
L 22.343119 57.783905 
L 22.397477 65.157022 
L 22.451836 83.302749 
L 22.506195 58.989491 
L 22.560554 61.611711 
L 22.614913 89.870122 
L 22.669272 30.179695 
L 22.723631 56.847227 
L 22.77799 84.254894 
L 22.832349 82.616471 
L 22.886708 23.269672 
L 22.941067 68.392121 
L 22.995426 38.000121 
L 23.049785 86.99602 
L 23.104144 69.175064 
L 23.26722 56.723867 
L 23.321579 95.01567 
L 23.375938 72.966685 
L 23.430297 36.142583 
L 23.484656 48.613604 
L 23.593374 48.353328 
L 23.647733 93.790097 
L 23.756451 26.106308 
L 23.81081 77.593088 
L 23.865169 75.104215 
L 24.028245 54.446262 
L 24.082604 60.143868 
L 24.191322 38.795503 
L 24.463117 76.712131 
L 24.626194 23.161267 
L 24.680552 77.577692 
L 24.734911 58.764628 
L 24.843629 88.135409 
L 24.952347 65.007193 
L 25.006706 78.458869 
L 25.061065 74.090387 
L 25.115424 67.193079 
L 25.169783 40.247345 
L 25.224142 63.613417 
L 25.278501 57.274988 
L 25.33286 95.810469 
L 25.387219 90.284486 
L 25.441577 49.034941 
L 25.495936 76.229227 
L 25.550295 80.595508 
L 25.604654 65.256708 
L 25.659013 78.190971 
L 25.876449 101.533306 
L 25.985167 41.891324 
L 26.039526 75.034382 
L 26.093885 53.502748 
L 26.148244 73.453702 
L 26.202602 31.824651 
L 26.256961 71.903991 
L 26.31132 63.956584 
L 26.365679 83.413546 
L 26.474397 40.063334 
L 26.528756 47.445886 
L 26.637474 32.867491 
L 26.746192 79.325108 
L 26.800551 25.322464 
L 26.85491 63.004596 
L 27.072345 101.547876 
L 27.126704 97.587275 
L 27.235422 36.876151 
L 27.34414 83.038253 
L 27.398499 50.408247 
L 27.452858 92.754567 
L 27.507217 69.769615 
L 27.561576 41.164973 
L 27.615935 60.642044 
L 27.670294 62.112181 
L 27.724652 68.137993 
L 27.779011 65.783326 
L 27.83337 65.353922 
L 27.887729 59.871475 
L 27.942088 73.707309 
L 27.996447 60.390371 
L 28.050806 53.050918 
L 28.213883 88.239062 
L 28.268242 87.818785 
L 28.322601 69.307811 
L 28.37696 96.682447 
L 28.431319 91.17154 
L 28.540036 76.162413 
L 28.703113 97.880386 
L 28.811831 40.837654 
L 28.86619 76.665548 
L 28.920549 72.394579 
L 28.974908 71.765659 
L 29.137985 58.050896 
L 29.192344 47.425894 
L 29.301061 67.527958 
L 29.35542 28.681348 
L 29.409779 81.738717 
L 29.464138 51.313108 
L 29.518497 57.938045 
L 29.572856 80.195223 
L 29.627215 42.617636 
L 29.681574 86.182853 
L 29.735933 39.13547 
L 29.790292 72.301837 
L 29.844651 50.596646 
L 29.89901 53.316487 
L 29.953369 56.025452 
L 30.007727 37.331765 
L 30.116445 109.233727 
L 30.170804 96.533829 
L 30.225163 62.495184 
L 30.279522 73.694451 
L 30.496958 48.07394 
L 30.605676 72.403922 
L 30.714394 44.619203 
L 30.823111 85.012624 
L 30.931829 44.819964 
L 31.040547 87.635424 
L 31.094906 45.402643 
L 31.149265 48.257176 
L 31.203624 59.648871 
L 31.257983 51.52127 
L 31.312342 59.142301 
L 31.366701 91.057192 
L 31.42106 78.746058 
L 31.529778 29.2815 
L 31.584136 53.807672 
L 31.638495 55.418983 
L 31.801572 100.466295 
L 31.855931 58.551191 
L 31.91029 60.444029 
L 31.964649 64.279565 
L 32.019008 60.008087 
L 32.073367 60.428835 
L 32.127726 74.825675 
L 32.182085 55.651366 
L 32.236444 60.308794 
L 32.290803 58.525283 
L 32.39952 85.00896 
L 32.562597 62.811804 
L 32.671315 50.36699 
L 32.725674 91.102552 
L 32.780033 62.962983 
L 32.888751 87.257025 
L 33.051828 42.85374 
L 33.214904 86.89647 
L 33.269263 47.840676 
L 33.323622 76.352956 
L 33.377981 72.147617 
L 33.43234 91.889867 
L 33.486699 77.227513 
L 33.649776 53.247484 
L 33.704135 60.62997 
L 33.758494 45.945193 
L 33.812853 59.749586 
L 33.867211 119.128859 
L 33.92157 59.403302 
L 33.975929 60.65878 
L 34.030288 43.590982 
L 34.084647 54.944327 
L 34.139006 66.214392 
L 34.193365 62.987695 
L 34.247724 53.511487 
L 34.410801 82.50483 
L 34.46516 30.60621 
L 34.519519 51.012128 
L 34.628236 75.431534 
L 34.682595 67.640383 
L 34.736954 79.014131 
L 34.791313 77.106835 
L 34.845672 21.062867 
L 34.900031 103.083472 
L 34.95439 73.605324 
L 35.008749 46.039943 
L 35.063108 92.827144 
L 35.117467 75.012901 
L 35.171826 54.275762 
L 35.226185 88.942194 
L 35.280544 57.54703 
L 35.334903 83.201222 
L 35.497979 35.369779 
L 35.552338 123.484524 
L 35.606697 67.17889 
L 35.769774 47.581725 
L 35.824133 76.318163 
L 35.878492 33.45938 
L 35.932851 49.508887 
L 35.98721 85.149289 
L 36.041569 56.336514 
L 36.095928 41.041975 
L 36.150286 102.309466 
L 36.204645 78.693644 
L 36.259004 71.516269 
L 36.313363 27.053239 
L 36.367722 53.511527 
L 36.422081 96.806257 
L 36.47644 85.930609 
L 36.585158 65.777084 
L 36.639517 71.637899 
L 36.693876 70.229981 
L 36.748235 36.13287 
L 36.802594 77.819391 
L 36.856953 47.859002 
L 36.911311 51.020881 
L 36.96567 83.997711 
L 37.020029 51.643436 
L 37.074388 67.796752 
L 37.128747 48.174389 
L 37.291824 77.557997 
L 37.346183 79.388114 
L 37.454901 55.180413 
L 37.617978 76.68738 
L 37.672336 73.569449 
L 37.726695 78.349491 
L 37.781054 76.993477 
L 37.99849 44.202108 
L 38.052849 72.573403 
L 38.107208 53.394792 
L 38.161567 61.754559 
L 38.215926 49.531585 
L 38.270285 54.493578 
L 38.324644 94.607975 
L 38.379003 80.528801 
L 38.433361 65.971311 
L 38.48772 101.299612 
L 38.542079 68.08099 
L 38.596438 65.284984 
L 38.650797 94.273065 
L 38.705156 53.527873 
L 38.759515 68.045666 
L 38.813874 92.769114 
L 38.922592 54.184739 
L 38.976951 83.27236 
L 39.085669 46.899157 
L 39.140028 77.586141 
L 39.194386 63.051653 
L 39.248745 57.234353 
L 39.411822 82.833261 
L 39.466181 45.481008 
L 39.52054 71.014688 
L 39.574899 51.735515 
L 39.629258 87.323585 
L 39.683617 75.416323 
L 39.792335 49.739527 
L 39.846694 59.008653 
L 39.901053 71.532117 
L 39.955411 53.685475 
L 40.00977 57.0861 
L 40.172847 103.349964 
L 40.335924 45.39047 
L 40.390283 84.582665 
L 40.444642 69.693152 
L 40.55336 85.442691 
L 40.607719 76.630646 
L 40.770795 43.055363 
L 40.825154 46.342457 
L 40.879513 45.70895 
L 40.933872 78.524679 
L 40.988231 68.917634 
L 41.096949 36.940758 
L 41.260026 65.104795 
L 41.314385 83.663328 
L 41.368744 81.371813 
L 41.477461 64.387988 
L 41.53182 68.260507 
L 41.640538 102.106972 
L 41.749256 66.1784 
L 41.803615 75.04882 
L 41.857974 72.780672 
L 41.912333 72.851869 
L 42.021051 82.223387 
L 42.07541 63.794227 
L 42.129769 66.718695 
L 42.184128 70.365564 
L 42.238486 62.535474 
L 42.292845 99.337413 
L 42.347204 70.857972 
L 42.401563 63.136961 
L 42.455922 87.017985 
L 42.510281 80.833788 
L 42.618999 66.994812 
L 42.673358 37.210785 
L 42.727717 52.811771 
L 42.890794 57.269719 
L 42.945153 50.937414 
L 42.999511 57.139093 
L 43.05387 64.219036 
L 43.108229 61.733045 
L 43.162588 54.358863 
L 43.216947 60.327579 
L 43.271306 93.007144 
L 43.380024 46.826542 
L 43.434383 68.487236 
L 43.488742 62.539758 
L 43.543101 62.291606 
L 43.651819 91.379456 
L 43.706178 46.065146 
L 43.760536 55.675474 
L 43.814895 82.300127 
L 43.869254 66.417185 
L 43.923613 80.851435 
L 43.977972 56.712277 
L 44.032331 110.640674 
L 44.08669 72.151787 
L 44.141049 53.827741 
L 44.195408 61.343021 
L 44.249767 58.051895 
L 44.304126 68.88322 
L 44.358485 55.133278 
L 44.412844 70.299533 
L 44.467203 69.243074 
L 44.521561 43.533207 
L 44.57592 72.556179 
L 44.630279 69.830922 
L 44.684638 19.02762 
L 44.738997 60.67851 
L 44.793356 88.091066 
L 44.847715 59.677652 
L 44.902074 51.667336 
L 44.956433 66.767286 
L 45.065151 27.314659 
L 45.282586 70.288865 
L 45.445663 44.397395 
L 45.60874 100.705719 
L 45.717458 50.637039 
L 45.771817 79.94524 
L 45.826176 39.154578 
L 45.880535 71.682053 
L 45.989253 42.915299 
L 46.043611 94.487655 
L 46.09797 84.583624 
L 46.152329 82.849978 
L 46.261047 51.662464 
L 46.315406 52.590823 
L 46.369765 65.928568 
L 46.424124 51.124441 
L 46.478483 60.519044 
L 46.64156 79.566128 
L 46.858995 45.896586 
L 46.913354 93.448852 
L 46.967713 73.443619 
L 47.022072 72.481728 
L 47.076431 74.360326 
L 47.13079 71.499506 
L 47.185149 53.43654 
L 47.293867 98.01803 
L 47.348226 56.261761 
L 47.402585 72.516482 
L 47.511303 62.456286 
L 47.565662 78.20668 
L 47.674379 43.130306 
L 47.783097 83.287517 
L 47.837456 71.276214 
L 47.891815 76.48318 
L 47.946174 57.440429 
L 48.000533 101.472739 
L 48.054892 74.600817 
L 48.109251 40.216689 
L 48.16361 95.529755 
L 48.217969 74.706935 
L 48.326687 57.482734 
L 48.381045 64.624921 
L 48.435404 83.998325 
L 48.489763 65.2046 
L 48.598481 70.585984 
L 48.65284 62.173582 
L 48.707199 76.965739 
L 48.761558 56.959727 
L 48.815917 72.791789 
L 48.870276 81.3809 
L 49.087712 44.202075 
L 49.14207 55.109177 
L 49.196429 41.600081 
L 49.305147 74.73982 
L 49.359506 42.28799 
L 49.413865 87.866136 
L 49.468224 73.508977 
L 49.576942 73.624017 
L 49.631301 69.085701 
L 49.68566 80.642066 
L 49.740019 59.261245 
L 49.794378 88.615509 
L 49.957454 48.344673 
L 50.011813 88.529168 
L 50.066172 56.113996 
L 50.17489 94.33465 
L 50.283608 63.752658 
L 50.337967 67.780162 
L 50.392326 81.531587 
L 50.555403 59.848397 
L 50.609762 56.438256 
L 50.772838 78.24497 
L 50.827197 89.229441 
L 50.935915 52.764128 
L 50.990274 75.280559 
L 51.044633 83.127556 
L 51.098992 67.501751 
L 51.153351 83.772022 
L 51.20771 82.259648 
L 51.262069 55.783139 
L 51.316428 69.138726 
L 51.370787 84.786092 
L 51.425145 29.861749 
L 51.479504 52.555646 
L 51.533863 63.488753 
L 51.588222 54.525654 
L 51.69694 30.028269 
L 51.751299 79.073417 
L 51.805658 63.359259 
L 51.968735 41.845419 
L 52.023094 75.798252 
L 52.077453 70.005173 
L 52.131812 65.27402 
L 52.18617 66.728185 
L 52.240529 69.724903 
L 52.294888 32.868908 
L 52.349247 78.706215 
L 52.403606 52.753695 
L 52.566683 74.847906 
L 52.621042 58.165952 
L 52.675401 63.515821 
L 52.72976 72.673645 
L 52.784119 66.518227 
L 52.838478 71.547386 
L 52.947195 58.713794 
L 53.055913 74.633069 
L 53.110272 56.278271 
L 53.164631 102.975616 
L 53.21899 76.205797 
L 53.273349 27.492132 
L 53.327708 73.430071 
L 53.436426 49.290063 
L 53.490785 56.260773 
L 53.599503 77.726521 
L 53.70822 59.111925 
L 53.816938 100.112517 
L 53.980015 64.017367 
L 54.034374 62.907534 
L 54.143092 44.289413 
L 54.197451 48.733012 
L 54.25181 99.709828 
L 54.306169 60.998413 
L 54.414887 48.431791 
L 54.469245 82.651989 
L 54.523604 55.889599 
L 54.577963 57.691633 
L 54.632322 49.927561 
L 54.686681 54.28789 
L 54.74104 83.120869 
L 54.849758 33.618514 
L 54.958476 82.87587 
L 55.012835 69.891125 
L 55.067194 79.433387 
L 55.175912 50.022576 
L 55.23027 57.581327 
L 55.284629 89.869581 
L 55.338988 59.586485 
L 55.393347 57.570537 
L 55.502065 75.661741 
L 55.556424 48.142404 
L 55.610783 63.648561 
L 55.665142 62.159253 
L 55.719501 32.064453 
L 55.77386 71.478847 
L 55.828219 67.051286 
L 55.882578 33.427874 
L 55.936937 78.515299 
L 55.991295 72.466785 
L 56.045654 73.5379 
L 56.100013 54.713485 
L 56.208731 84.643495 
L 56.26309 79.011046 
L 56.317449 70.860079 
L 56.371808 115.712562 
L 56.480526 42.633593 
L 56.534885 63.791345 
L 56.589244 51.106229 
L 56.697962 80.342026 
L 56.75232 80.229839 
L 56.806679 90.702918 
L 56.861038 82.26722 
L 56.915397 86.517708 
L 57.078474 48.946099 
L 57.241551 84.460069 
L 57.404628 55.595811 
L 57.458987 69.575132 
L 57.513345 45.261163 
L 57.567704 56.915737 
L 57.622063 74.638579 
L 57.676422 63.918131 
L 57.730781 63.618874 
L 57.78514 50.424058 
L 57.948217 68.43044 
L 58.002576 74.675736 
L 58.111294 41.657209 
L 58.27437 76.072392 
L 58.328729 59.593383 
L 58.383088 64.988357 
L 58.491806 81.195461 
L 58.600524 57.239753 
L 58.654883 66.245481 
L 58.763601 66.00031 
L 58.81796 71.402058 
L 58.872319 49.962124 
L 58.926678 61.867828 
L 58.981037 65.716554 
L 59.035395 63.890116 
L 59.089754 46.545174 
L 59.144113 72.431306 
L 59.198472 49.379447 
L 59.361549 81.131153 
L 59.524626 45.863978 
L 59.578985 50.650487 
L 59.633344 97.609062 
L 59.687703 68.594337 
L 59.742062 68.7315 
L 59.79642 60.847388 
L 59.850779 82.188125 
L 59.959497 52.935998 
L 60.013856 81.391953 
L 60.068215 70.934417 
L 60.122574 71.194311 
L 60.231292 59.310597 
L 60.34001 71.004414 
L 60.394369 60.140285 
L 60.448728 66.496183 
L 60.503087 83.06701 
L 60.557445 73.149086 
L 60.720522 60.661206 
L 60.774881 78.165107 
L 60.82924 42.498403 
L 60.883599 58.951367 
L 60.937958 85.240989 
L 60.992317 70.092062 
L 61.046676 74.561541 
L 61.101035 54.571814 
L 61.155394 55.608584 
L 61.209753 93.999958 
L 61.264112 55.602638 
L 61.481547 90.790606 
L 61.644624 46.691717 
L 61.753342 67.381306 
L 61.807701 58.217391 
L 61.86206 59.6133 
L 62.025137 75.356681 
L 62.133854 62.027323 
L 62.296931 78.953733 
L 62.35129 28.817625 
L 62.405649 64.837669 
L 62.460008 36.683175 
L 62.514367 51.848661 
L 62.786162 92.879403 
L 62.84052 73.615097 
L 62.894879 89.905335 
L 62.949238 88.826587 
L 63.003597 70.878228 
L 63.112315 71.571914 
L 63.166674 76.931259 
L 63.275392 46.732084 
L 63.329751 64.35471 
L 63.38411 46.906381 
L 63.438469 47.768381 
L 63.492828 74.858202 
L 63.547187 68.419377 
L 63.601545 40.089189 
L 63.655904 69.291591 
L 63.710263 58.126648 
L 63.764622 93.239093 
L 63.818981 48.755656 
L 63.87334 63.713683 
L 63.927699 63.792121 
L 63.982058 81.462452 
L 64.090776 47.438295 
L 64.145135 53.264545 
L 64.199494 80.22222 
L 64.253853 37.161484 
L 64.308212 63.317023 
L 64.362571 43.39754 
L 64.416929 74.291525 
L 64.471288 67.950812 
L 64.525647 49.941678 
L 64.580006 57.040973 
L 64.634365 57.98614 
L 64.688724 79.410478 
L 64.743083 65.104554 
L 64.797442 64.089815 
L 64.851801 58.073629 
L 64.90616 73.294557 
L 64.960519 70.922099 
L 65.069237 52.345569 
L 65.123596 62.789906 
L 65.177954 94.95722 
L 65.232313 79.525757 
L 65.341031 47.097952 
L 65.504108 70.742725 
L 65.558467 43.923431 
L 65.721544 90.876238 
L 65.775903 66.896991 
L 65.830262 82.469649 
L 65.884621 69.286126 
L 65.938979 93.5495 
L 65.993338 70.875525 
L 66.047697 43.783183 
L 66.102056 68.927067 
L 66.156415 74.970729 
L 66.265133 43.453698 
L 66.319492 49.116242 
L 66.42821 58.002332 
L 66.536928 47.209271 
L 66.591287 82.555329 
L 66.645646 59.196425 
L 66.700004 64.74527 
L 66.754363 53.129157 
L 66.808722 55.628118 
L 66.91744 82.492348 
L 66.971799 76.132587 
L 67.026158 74.831158 
L 67.189235 50.436616 
L 67.352312 79.687825 
L 67.406671 68.987718 
L 67.461029 54.295349 
L 67.515388 74.384232 
L 67.569747 54.304349 
L 67.624106 70.265957 
L 67.678465 67.324918 
L 67.732824 65.640165 
L 67.787183 59.906298 
L 67.895901 77.118422 
L 67.95026 47.221857 
L 68.004619 48.075127 
L 68.058978 72.649513 
L 68.167696 72.624024 
L 68.222054 68.987092 
L 68.276413 69.323902 
L 68.330772 76.171859 
L 68.385131 51.895235 
L 68.43949 64.575804 
L 68.493849 74.728013 
L 68.548208 69.088893 
L 68.602567 69.314672 
L 68.656926 68.656514 
L 68.765644 82.555523 
L 68.874362 60.078584 
L 68.928721 62.167831 
L 68.983079 72.435176 
L 69.037438 60.063807 
L 69.091797 76.190506 
L 69.200515 53.488145 
L 69.254874 86.276351 
L 69.309233 73.89495 
L 69.363592 47.293367 
L 69.417951 79.278967 
L 69.47231 57.268102 
L 69.526669 48.253493 
L 69.635387 74.215471 
L 69.744104 69.281671 
L 69.798463 39.65496 
L 69.96154 84.632096 
L 70.015899 51.359414 
L 70.070258 73.285518 
L 70.178976 53.815814 
L 70.233335 91.084063 
L 70.287694 76.981911 
L 70.342053 61.201002 
L 70.396412 70.731408 
L 70.450771 65.237047 
L 70.505129 70.169503 
L 70.559488 79.090094 
L 70.613847 77.223675 
L 70.668206 59.348704 
L 70.722565 70.097995 
L 70.776924 63.059347 
L 70.885642 75.8537 
L 70.940001 63.587599 
L 70.99436 74.857274 
L 71.048719 75.451532 
L 71.103078 72.943242 
L 71.157437 48.343824 
L 71.211796 63.726204 
L 71.266154 74.170986 
L 71.374872 52.548947 
L 71.429231 60.634764 
L 71.48359 70.231999 
L 71.592308 69.974262 
L 71.701026 56.929207 
L 71.864103 77.443022 
L 71.918462 50.484115 
L 71.972821 78.712557 
L 72.027179 44.894533 
L 72.081538 56.180083 
L 72.190256 56.028929 
L 72.244615 89.486144 
L 72.298974 84.53314 
L 72.353333 60.555352 
L 72.407692 60.871104 
L 72.51641 60.558556 
L 72.570769 70.771111 
L 72.733846 45.002244 
L 72.896922 57.201292 
L 72.951281 65.337769 
L 73.00564 65.094695 
L 73.059999 52.336845 
L 73.223076 82.799854 
L 73.277435 61.47531 
L 73.331794 63.923486 
L 73.386153 64.30362 
L 73.549229 75.418355 
L 73.603588 83.354837 
L 73.657947 75.897938 
L 73.766665 65.077513 
L 73.875383 78.115188 
L 73.929742 50.356801 
L 73.984101 62.277768 
L 74.03846 72.19603 
L 74.201537 58.130196 
L 74.255896 59.651167 
L 74.310254 44.983781 
L 74.473331 81.96499 
L 74.636408 52.847493 
L 74.690767 80.346464 
L 74.745126 57.403279 
L 74.853844 71.42925 
L 75.016921 48.186324 
L 75.071279 69.230785 
L 75.179997 68.830956 
L 75.288715 67.704257 
L 75.343074 60.252245 
L 75.506151 80.296123 
L 75.669228 45.775744 
L 75.777946 70.9002 
L 75.832304 50.318291 
L 75.886663 71.468747 
L 75.941022 76.168745 
L 76.04974 64.153496 
L 76.104099 71.93139 
L 76.267176 44.447561 
L 76.430253 71.331816 
L 76.484612 65.59323 
L 76.538971 46.469527 
L 76.647688 75.047112 
L 76.702047 72.460379 
L 76.756406 57.244982 
L 76.810765 63.094445 
L 76.865124 70.241831 
L 76.919483 63.140343 
L 76.973842 54.038417 
L 77.028201 63.505981 
L 77.08256 62.944265 
L 77.136919 76.419107 
L 77.191278 54.028514 
L 77.245637 78.825375 
L 77.299996 66.012277 
L 77.408713 70.126131 
L 77.463072 55.178 
L 77.517431 55.246771 
L 77.680508 78.065252 
L 77.734867 74.603608 
L 77.843585 59.731523 
L 77.897944 75.617356 
L 77.952303 49.782712 
L 78.006662 66.340884 
L 78.061021 66.198245 
L 78.115379 82.287982 
L 78.278456 61.889672 
L 78.332815 53.486787 
L 78.387174 60.125233 
L 78.441533 57.577689 
L 78.550251 76.280185 
L 78.60461 52.87772 
L 78.658969 79.466637 
L 78.713328 59.733627 
L 78.767687 64.898435 
L 78.822046 80.807433 
L 78.876404 48.896777 
L 78.985122 49.584547 
L 79.039481 71.828319 
L 79.09384 65.364363 
L 79.148199 57.235412 
L 79.256917 69.072624 
L 79.419994 47.010556 
L 79.474353 68.235285 
L 79.528712 57.757346 
L 79.583071 50.703942 
L 79.637429 69.871951 
L 79.691788 50.154223 
L 79.746147 66.603376 
L 79.800506 56.219992 
L 79.854865 53.718291 
L 79.909224 68.286801 
L 79.963583 59.762186 
L 80.072301 54.668068 
L 80.12666 74.430377 
L 80.181019 55.572638 
L 80.289737 74.847799 
L 80.452813 51.447186 
L 80.507172 75.92538 
L 80.561531 67.040458 
L 80.670249 74.287016 
L 80.724608 60.544755 
L 80.833326 60.830991 
L 80.887685 58.87779 
L 80.942044 80.547394 
L 80.996403 63.550728 
L 81.15948 84.420451 
L 81.268197 50.451754 
L 81.322556 79.26396 
L 81.376915 69.934905 
L 81.703069 58.15775 
L 81.757428 65.842716 
L 81.811787 58.140697 
L 81.866146 59.502262 
L 81.920505 72.575639 
L 81.974863 53.122607 
L 82.029222 63.170151 
L 82.246658 78.404956 
L 82.355376 56.153216 
L 82.409735 57.737691 
L 82.464094 74.849471 
L 82.518453 69.244327 
L 82.572812 71.80599 
L 82.735888 52.388386 
L 82.790247 55.404617 
L 82.953324 80.563896 
L 83.116401 52.742188 
L 83.17076 80.336137 
L 83.225119 69.17414 
L 83.279478 75.171447 
L 83.333837 69.826595 
L 83.388196 67.251953 
L 83.442555 57.596267 
L 83.496913 62.622881 
L 83.551272 67.708595 
L 83.605631 54.017093 
L 83.65999 56.803794 
L 83.714349 69.606981 
L 83.768708 51.463519 
L 83.823067 59.458453 
L 83.877426 67.068521 
L 83.931785 66.991656 
L 83.986144 61.828626 
L 84.040503 74.504628 
L 84.094862 67.182628 
L 84.20358 60.207106 
L 84.257938 63.890079 
L 84.312297 55.832565 
L 84.366656 74.019439 
L 84.421015 54.773426 
L 84.475374 80.242166 
L 84.529733 76.761047 
L 84.747169 44.885419 
L 84.910246 67.925152 
L 85.018963 54.738527 
L 85.073322 68.903396 
L 85.127681 68.403433 
L 85.18204 67.82651 
L 85.290758 69.805678 
L 85.345117 65.182077 
L 85.399476 73.110895 
L 85.453835 56.944813 
L 85.508194 75.928452 
L 85.562553 63.849732 
L 85.616912 63.20424 
L 85.671271 53.775328 
L 85.72563 79.842528 
L 85.779988 73.150333 
L 85.997424 45.679263 
L 86.051783 67.278455 
L 86.106142 59.498616 
L 86.160501 62.262165 
L 86.21486 73.964322 
L 86.269219 68.074089 
L 86.377937 58.685835 
L 86.432296 88.282516 
L 86.486655 66.476047 
L 86.541013 58.281619 
L 86.70409 71.442664 
L 86.921526 58.301801 
L 87.030244 77.216544 
L 87.138962 59.722034 
L 87.193321 75.187357 
L 87.24768 59.602868 
L 87.302038 67.932056 
L 87.356397 59.939118 
L 87.410756 59.849719 
L 87.465115 50.513277 
L 87.519474 73.591848 
L 87.573833 60.215555 
L 87.682551 67.148096 
L 87.73691 57.060126 
L 87.791269 60.675224 
L 87.845628 75.934489 
L 87.899987 59.069914 
L 87.954346 68.975888 
L 88.008705 67.92906 
L 88.063063 70.303511 
L 88.117422 62.557828 
L 88.171781 67.57719 
L 88.22614 67.944475 
L 88.280499 69.075497 
L 88.334858 62.986681 
L 88.389217 68.335128 
L 88.443576 77.996853 
L 88.606653 64.148101 
L 88.76973 69.701784 
L 88.824088 50.090315 
L 88.878447 80.182601 
L 88.932806 68.830982 
L 89.150242 56.821183 
L 89.313319 69.537625 
L 89.367678 62.475093 
L 89.422037 70.036775 
L 89.476396 63.970358 
L 89.530755 52.455973 
L 89.585113 57.357884 
L 89.639472 67.959972 
L 89.693831 67.340783 
L 89.74819 62.183146 
L 89.802549 64.64665 
L 89.856908 63.438065 
L 89.911267 64.155693 
L 90.019985 68.022727 
L 90.074344 63.231156 
L 90.128703 74.640575 
L 90.183062 55.075331 
L 90.237421 62.14601 
L 90.29178 69.267857 
L 90.346138 65.466249 
L 90.454856 72.323531 
L 90.563574 61.028022 
L 90.617933 67.36431 
L 90.672292 67.836947 
L 90.726651 67.002908 
L 90.78101 71.002274 
L 90.835369 55.934606 
L 90.889728 70.286566 
L 90.998446 57.243417 
L 91.052805 58.180007 
L 91.107163 56.589347 
L 91.161522 73.831014 
L 91.215881 64.728671 
L 91.27024 57.790095 
L 91.378958 74.793535 
L 91.433317 60.607108 
L 91.487676 80.455322 
L 91.542035 67.979668 
L 91.596394 73.932196 
L 91.650753 72.384656 
L 91.81383 59.234806 
L 91.868188 68.888587 
L 91.922547 64.231494 
L 91.976906 58.287374 
L 92.031265 64.222824 
L 92.085624 62.536565 
L 92.194342 68.694644 
L 92.248701 64.2662 
L 92.30306 74.913594 
L 92.357419 69.998777 
L 92.411778 72.894977 
L 92.574855 53.977669 
L 92.629213 66.385313 
L 92.683572 64.163516 
L 92.737931 55.607456 
L 92.79229 57.476985 
L 92.901008 71.761174 
L 93.009726 60.148053 
L 93.064085 65.800689 
L 93.118444 75.821511 
L 93.172803 64.126064 
L 93.227162 67.208245 
L 93.281521 71.270211 
L 93.444597 53.989914 
L 93.607674 71.388653 
L 93.716392 61.237706 
L 93.770751 71.54431 
L 93.82511 68.185327 
L 93.879469 67.377643 
L 93.933828 70.041199 
L 93.988187 58.616876 
L 94.042546 61.918139 
L 94.096905 76.952113 
L 94.259981 57.807381 
L 94.31434 75.939262 
L 94.368699 69.564528 
L 94.477417 58.186216 
L 94.586135 61.071687 
L 94.640494 65.188484 
L 94.694853 57.338778 
L 94.803571 76.129673 
L 94.85793 66.895238 
L 94.912288 64.448029 
L 94.966647 68.090147 
L 95.075365 61.645382 
L 95.129724 72.202579 
L 95.184083 59.508463 
L 95.238442 64.674807 
L 95.292801 65.917363 
L 95.34716 54.927639 
L 95.401519 59.818423 
L 95.455878 65.388241 
L 95.510237 60.851934 
L 95.618955 71.232739 
L 95.727672 69.820623 
L 95.782031 66.6812 
L 95.83639 69.373761 
L 95.890749 70.820548 
L 95.945108 63.08046 
L 95.999467 66.460854 
L 96.053826 64.943908 
L 96.108185 74.674075 
L 96.162544 61.220392 
L 96.216903 67.956946 
L 96.434338 55.203713 
L 96.597415 72.563058 
L 96.651774 62.424986 
L 96.706133 62.682345 
L 96.760492 72.771407 
L 96.814851 65.823232 
L 96.86921 52.295842 
L 96.923569 60.617725 
L 96.977928 71.903524 
L 97.032287 66.126754 
L 97.086646 61.470211 
L 97.141005 67.418055 
L 97.195364 60.943895 
L 97.249722 65.062306 
L 97.304081 67.79748 
L 97.35844 65.944276 
L 97.521517 57.124198 
L 97.630235 68.47709 
L 97.684594 65.558874 
L 97.738953 69.967524 
L 97.793312 65.647477 
L 97.847671 64.348862 
L 97.90203 71.767619 
L 97.956389 59.66349 
L 98.010747 60.762995 
L 98.065106 67.741958 
L 98.173824 67.493871 
L 98.228183 72.451334 
L 98.445619 59.951037 
L 98.499978 64.861476 
L 98.554337 59.137884 
L 98.608696 68.687778 
L 98.663055 54.319475 
L 98.717414 69.406737 
L 98.771772 60.534151 
L 98.826131 66.619748 
L 98.88049 62.221197 
L 98.934849 62.413338 
L 98.989208 70.596961 
L 99.043567 59.858806 
L 99.097926 66.391342 
L 99.206644 72.500237 
L 99.261003 56.365801 
L 99.315362 65.18732 
L 99.369721 62.62237 
L 99.42408 65.215248 
L 99.478439 65.006208 
L 99.587156 70.548473 
L 99.695874 60.112954 
L 99.750233 60.654787 
L 99.858951 59.234698 
L 99.91331 69.848347 
L 99.967669 65.661601 
L 100.130746 62.619888 
L 100.293822 69.520817 
L 100.348181 61.998797 
L 100.40254 67.743391 
L 100.456899 68.452949 
L 100.511258 58.184609 
L 100.565617 60.780608 
L 100.619976 70.284351 
L 100.674335 68.095165 
L 100.783053 60.471066 
L 100.94613 71.019717 
L 101.054847 61.307269 
L 101.109206 61.668615 
L 101.163565 62.89564 
L 101.272283 62.99172 
L 101.326642 56.907924 
L 101.489719 68.439407 
L 101.544078 68.079262 
L 101.652796 64.07404 
L 101.707155 65.457487 
L 101.92459 70.87017 
L 101.978949 58.646201 
L 102.033308 71.910499 
L 102.087667 63.870076 
L 102.142026 66.990989 
L 102.196385 65.962034 
L 102.46818 58.191028 
L 102.631256 69.648724 
L 102.685615 70.062501 
L 102.739974 67.885626 
L 102.794333 71.712238 
L 102.848692 68.154308 
L 102.903051 61.235347 
L 102.95741 66.706993 
L 103.011769 64.193934 
L 103.120487 71.117715 
L 103.229205 58.086373 
L 103.283564 62.770158 
L 103.337922 68.663119 
L 103.392281 63.779301 
L 103.44664 67.830894 
L 103.555358 62.600674 
L 103.609717 68.561013 
L 103.664076 62.854469 
L 103.718435 61.664002 
L 103.772794 65.983962 
L 103.935871 59.174858 
L 103.99023 70.998373 
L 104.044589 64.300445 
L 104.098947 59.745856 
L 104.153306 67.987486 
L 104.207665 66.7393 
L 104.316383 63.797872 
L 104.425101 70.804734 
L 104.47946 62.013773 
L 104.533819 63.25122 
L 104.588178 63.677279 
L 104.751255 70.233499 
L 104.859972 60.711793 
L 104.96869 67.472654 
L 105.023049 62.659437 
L 105.077408 64.38972 
L 105.131767 69.300183 
L 105.240485 62.271449 
L 105.349203 65.510579 
L 105.403562 62.668272 
L 105.457921 63.997769 
L 105.51228 69.118413 
L 105.566639 62.999469 
L 105.620997 67.641945 
L 105.675356 64.708258 
L 105.729715 65.257655 
L 105.784074 65.954064 
L 105.838433 64.561639 
L 105.892792 68.608098 
L 105.947151 64.830875 
L 106.055869 62.602946 
L 106.110228 65.713008 
L 106.164587 59.602393 
L 106.218946 63.343898 
L 106.382022 58.061099 
L 106.436381 68.00626 
L 106.49074 65.843334 
L 106.545099 67.018807 
L 106.599458 62.36251 
L 106.653817 64.448535 
L 106.708176 63.951742 
L 106.762535 67.380083 
L 106.816894 64.121935 
L 106.871253 66.179925 
L 106.925612 63.580795 
L 106.979971 64.05548 
L 107.03433 63.913158 
L 107.088689 64.321257 
L 107.197406 67.659297 
L 107.251765 63.886992 
L 107.306124 68.243901 
L 107.360483 67.306747 
L 107.52356 61.249824 
L 107.632278 67.860497 
L 107.740996 63.407075 
L 107.904072 69.375477 
L 108.01279 60.333689 
L 108.067149 61.172358 
L 108.230226 67.9725 
L 108.284585 64.841331 
L 108.338944 65.520292 
L 108.393303 67.381979 
L 108.447662 66.28398 
L 108.610739 60.525812 
L 108.665097 66.967258 
L 108.719456 64.337567 
L 108.828174 67.254156 
L 108.936892 66.908272 
L 108.991251 62.793728 
L 109.04561 70.627614 
L 109.099969 62.098586 
L 109.154328 69.085462 
L 109.317405 63.14098 
L 109.371764 62.154265 
L 109.426122 62.490921 
L 109.480481 66.69525 
L 109.53484 59.298904 
L 109.589199 63.444305 
L 109.643558 64.171788 
L 109.752276 67.890761 
L 109.806635 66.990539 
L 109.860994 69.103039 
L 109.969712 62.536527 
L 110.132789 67.708724 
L 110.241506 62.901088 
L 110.350224 68.153129 
L 110.458942 62.233417 
L 110.513301 63.630982 
L 110.676378 65.695545 
L 110.730737 65.809727 
L 110.785096 67.619939 
L 110.893814 63.934196 
L 110.948172 65.223428 
L 111.002531 62.515707 
L 111.165608 65.612929 
L 111.219967 65.954355 
L 111.274326 61.4546 
L 111.328685 67.877619 
L 111.383044 62.024706 
L 111.546121 68.335001 
L 111.654839 59.939092 
L 111.709197 67.48058 
L 111.763556 63.468887 
L 111.817915 66.257356 
L 111.872274 64.956743 
L 111.926633 64.924383 
L 112.08971 62.806263 
L 112.144069 63.464139 
L 112.198428 65.993037 
L 112.252787 65.295724 
L 112.307146 65.487575 
L 112.361505 65.378905 
L 112.415864 67.537828 
L 112.470222 65.590522 
L 112.524581 63.842468 
L 112.57894 65.8074 
L 112.687658 62.435989 
L 112.796376 67.024115 
L 112.850735 60.440628 
L 112.905094 65.072296 
L 112.959453 70.24842 
L 113.068171 61.547891 
L 113.12253 64.054295 
L 113.176889 68.443609 
L 113.231248 65.380874 
L 113.339965 64.273471 
L 113.448683 65.788153 
L 113.503042 65.138605 
L 113.557401 65.638149 
L 113.61176 65.695487 
L 113.666119 64.260238 
L 113.720478 66.77423 
L 113.774837 66.395864 
L 113.937914 63.435707 
L 113.992273 62.998267 
L 114.046631 70.522578 
L 114.155349 62.497662 
L 114.264067 66.513456 
L 114.318426 64.895246 
L 114.372785 62.397201 
L 114.481503 69.078129 
L 114.535862 66.600257 
L 114.698939 62.44392 
L 114.807656 67.702567 
L 114.862015 61.342773 
L 114.916374 65.341181 
L 115.079451 67.218073 
L 115.242528 64.118714 
L 115.351246 63.703569 
L 115.405605 65.327195 
L 115.459964 64.782872 
L 115.568681 63.661343 
L 115.731758 68.158657 
L 115.949194 64.629559 
L 116.003553 66.241678 
L 116.057912 65.361499 
L 116.112271 65.925431 
L 116.16663 65.853278 
L 116.220989 64.439886 
L 116.329706 66.073285 
L 116.384065 63.232787 
L 116.438424 64.25133 
L 116.492783 66.423488 
L 116.547142 64.785938 
L 116.65586 65.606841 
L 116.710219 62.414154 
L 116.764578 65.286113 
L 116.818937 65.771762 
L 116.927655 63.400073 
L 116.982014 65.749825 
L 117.036373 65.400391 
L 117.090731 63.563936 
L 117.14509 64.750497 
L 117.199449 67.813913 
L 117.362526 64.27247 
L 117.416885 66.582733 
L 117.471244 64.787482 
L 117.579962 66.230967 
L 117.634321 64.115602 
L 117.68868 64.209843 
L 117.851756 65.696819 
L 117.906115 65.564821 
L 118.014833 62.980384 
L 118.069192 66.221609 
L 118.123551 65.476955 
L 118.17791 65.705857 
L 118.232269 63.147541 
L 118.286628 64.18666 
L 118.449705 65.222163 
L 118.66714 63.410428 
L 118.721499 66.353518 
L 118.775858 65.062701 
L 118.884576 65.935467 
L 118.938935 63.455413 
L 118.993294 66.143056 
L 119.047653 64.925739 
L 119.102012 65.368584 
L 119.265089 64.187837 
L 119.373806 66.443391 
L 119.428165 66.201511 
L 119.482524 66.115387 
L 119.591242 65.008136 
L 119.645601 65.825103 
L 119.69996 64.129856 
L 119.754319 66.236736 
L 119.808678 65.666207 
L 119.971755 65.308234 
L 120.026114 64.126763 
L 120.18919 65.553512 
L 120.243549 65.402465 
L 120.297908 64.021635 
L 120.352267 65.326583 
L 120.406626 65.737404 
L 120.460985 65.323033 
L 120.515344 65.186902 
L 120.569703 65.894447 
L 120.624062 65.293674 
L 120.73278 65.586676 
L 120.787139 65.503278 
L 120.841498 64.690112 
L 120.895856 65.300824 
L 120.950215 65.846022 
L 121.004574 64.155959 
L 121.058933 65.80937 
L 121.113292 64.697035 
L 121.167651 65.643565 
L 121.22201 65.482945 
L 121.276369 64.484238 
L 121.330728 65.253151 
L 121.385087 64.67551 
L 121.439446 65.410517 
L 121.493805 65.206038 
L 121.548164 65.348819 
L 121.602523 65.820534 
L 121.71124 64.418365 
L 121.765599 65.420945 
L 121.819958 64.799795 
L 121.874317 64.232904 
L 121.928676 65.404632 
L 121.983035 64.979532 
L 122.091753 64.60608 
L 122.200471 65.229253 
L 122.25483 64.833802 
L 122.309189 65.204535 
L 122.363548 65.103517 
L 122.417906 63.800937 
L 122.472265 64.455283 
L 122.526624 65.025125 
L 122.580983 64.439223 
L 122.635342 64.345772 
L 122.798419 65.736341 
L 122.907137 64.578693 
L 122.961496 64.867616 
L 123.070214 64.372043 
L 123.23329 65.52944 
L 123.396367 65.164377 
L 123.450726 65.340673 
L 123.505085 65.292821 
L 123.559444 64.662898 
L 123.613803 65.700223 
L 123.668162 64.823956 
L 123.77688 65.169467 
L 123.831239 64.752457 
L 123.885598 65.070719 
L 123.939956 65.191838 
L 123.994315 64.851448 
L 124.103033 65.596703 
L 124.157392 64.939505 
L 124.211751 64.970987 
L 124.26611 65.208766 
L 124.320469 65.057677 
L 124.374828 64.708106 
L 124.429187 65.020399 
L 124.483546 65.320074 
L 124.537905 65.024922 
L 124.592264 65.147469 
L 124.646623 64.758967 
L 124.700981 65.098087 
L 124.75534 64.871334 
L 124.918417 65.723601 
L 125.027135 64.929371 
L 125.081494 65.024476 
L 125.135853 65.197104 
L 125.190212 65.130796 
L 125.244571 64.904319 
L 125.29893 65.073962 
L 125.353289 65.128372 
L 125.462006 64.920266 
L 125.516365 65.133912 
L 125.570724 65.097557 
L 125.679442 64.886941 
L 125.78816 65.209688 
L 125.842519 64.88825 
L 125.896878 65.2629 
L 125.951237 64.999973 
L 126.059955 64.987999 
L 126.114314 65.256951 
L 126.168673 64.876408 
L 126.223031 64.987096 
L 126.27739 65.328108 
L 126.331749 64.855523 
L 126.386108 65.063551 
L 126.494826 64.966871 
L 126.657903 65.21182 
L 126.712262 64.987713 
L 126.766621 65.081336 
L 127.092774 65.135446 
L 127.201492 65.092424 
L 127.364569 65.081831 
L 127.582005 65.115256 
L 127.636364 65.106905 
L 127.636364 65.106905 
" clip-path="url(#pd84b82a31c)" style="fill: none; stroke: #e78ac3; stroke-width: 1.5; stroke-linecap: square"/>
   </g>
   <g id="patch_3">
    <path d="M 10.8 133.2 
L 10.8 10.8 
" style="fill: none; stroke: #000000; stroke-width: 0.8; stroke-linejoin: miter; stroke-linecap: square"/>
   </g>
   <g id="patch_4">
    <path d="M 133.2 133.2 
L 133.2 10.8 
" style="fill: none; stroke: #000000; stroke-width: 0.8; stroke-linejoin: miter; stroke-linecap: square"/>
   </g>
   <g id="patch_5">
    <path d="M 10.8 133.2 
L 133.2 133.2 
" style="fill: none; stroke: #000000; stroke-width: 0.8; stroke-linejoin: miter; stroke-linecap: square"/>
   </g>
   <g id="patch_6">
    <path d="M 10.8 10.8 
L 133.2 10.8 
" style="fill: none; stroke: #000000; stroke-width: 0.8; stroke-linejoin: miter; stroke-linecap: square"/>
   </g>
  </g>
 </g>
 <defs>
  <clipPath id="pd84b82a31c">
   <rect x="10.8" y="10.8" width="122.4" height="122.4"/>
  </clipPath>
 </defs>
</svg>
