<?xml version="1.0" encoding="utf-8" standalone="no"?>
<!DOCTYPE svg PUBLIC "-//W3C//DTD SVG 1.1//EN"
  "http://www.w3.org/Graphics/SVG/1.1/DTD/svg11.dtd">
<svg xmlns:xlink="http://www.w3.org/1999/xlink" width="144pt" height="144pt" viewBox="0 0 144 144" xmlns="http://www.w3.org/2000/svg" version="1.1">
 <metadata>
  <rdf:RDF xmlns:dc="http://purl.org/dc/elements/1.1/" xmlns:cc="http://creativecommons.org/ns#" xmlns:rdf="http://www.w3.org/1999/02/22-rdf-syntax-ns#">
   <cc:Work>
    <dc:type rdf:resource="http://purl.org/dc/dcmitype/StillImage"/>
    <dc:date>2025-02-07T11:27:54.675751</dc:date>
    <dc:format>image/svg+xml</dc:format>
    <dc:creator>
     <cc:Agent>
      <dc:title>Matplotlib v3.8.0, https://matplotlib.org/</dc:title>
     </cc:Agent>
    </dc:creator>
   </cc:Work>
  </rdf:RDF>
 </metadata>
 <defs>
  <style type="text/css">*{stroke-linejoin: round; stroke-linecap: butt}</style>
 </defs>
 <g id="figure_1">
  <g id="patch_1">
   <path d="M 0 144 
L 144 144 
L 144 0 
L 0 0 
L 0 144 
z
" style="fill: none"/>
  </g>
  <g id="axes_1">
   <g id="patch_2">
    <path d="M 10.8 133.2 
L 133.2 133.2 
L 133.2 10.8 
L 10.8 10.8 
L 10.8 133.2 
z
" style="fill: none"/>
   </g>
   <g id="matplotlib.axis_1"/>
   <g id="matplotlib.axis_2"/>
   <g id="line2d_1">
    <path d="M 16.363636 73.652479 
L 24.463117 73.638489 
L 24.517476 73.754163 
L 24.571835 73.678925 
L 24.680552 73.684142 
L 24.78927 73.795261 
L 24.843629 73.731701 
L 25.006706 73.671519 
L 25.061065 73.578905 
L 25.115424 73.649669 
L 25.169783 73.70899 
L 25.33286 73.545592 
L 25.604654 73.578692 
L 25.713372 73.746898 
L 25.767731 73.668553 
L 25.82209 73.607213 
L 25.930808 73.733178 
L 26.039526 73.693321 
L 26.093885 73.826638 
L 26.148244 73.67601 
L 26.365679 73.666683 
L 26.420038 73.741671 
L 26.528756 73.577656 
L 26.637474 73.78653 
L 26.800551 73.647228 
L 26.963627 73.701412 
L 27.017986 73.548182 
L 27.072345 73.818942 
L 27.126704 73.75765 
L 27.181063 73.773768 
L 27.289781 73.576687 
L 27.34414 73.744782 
L 27.398499 73.585512 
L 27.561576 73.777437 
L 27.615935 73.732361 
L 27.83337 73.509092 
L 27.887729 73.706795 
L 27.942088 73.588978 
L 28.159524 73.58356 
L 28.213883 73.859882 
L 28.268242 73.749087 
L 28.322601 73.508975 
L 28.37696 73.571412 
L 28.485677 73.536471 
L 28.594395 73.724127 
L 28.648754 73.570396 
L 28.811831 73.817946 
L 28.920549 73.665578 
L 28.974908 73.769067 
L 29.083626 73.516978 
L 29.137985 73.625464 
L 29.246702 73.631839 
L 29.301061 73.695435 
L 29.35542 73.558786 
L 29.409779 73.876108 
L 29.464138 73.656974 
L 29.518497 73.46712 
L 29.572856 73.751946 
L 29.627215 73.428746 
L 29.681574 73.601482 
L 29.735933 73.683178 
L 29.790292 73.453503 
L 29.844651 73.770664 
L 29.953369 73.750672 
L 30.062086 73.3947 
L 30.116445 73.729968 
L 30.170804 73.473146 
L 30.333881 73.575045 
L 30.38824 73.559083 
L 30.442599 73.706566 
L 30.496958 73.630957 
L 30.605676 73.52893 
L 30.823111 73.84487 
L 30.87747 73.290645 
L 30.931829 73.807718 
L 31.149265 73.492024 
L 31.257983 73.864916 
L 31.312342 73.576184 
L 31.366701 73.596259 
L 31.584136 73.690204 
L 31.855931 73.694073 
L 31.91029 73.5206 
L 31.964649 73.586015 
L 32.019008 73.564714 
L 32.073367 73.984821 
L 32.127726 73.604333 
L 32.182085 73.578993 
L 32.236444 73.844514 
L 32.290803 73.638526 
L 32.39952 73.752734 
L 32.453879 73.413635 
L 32.508238 73.614355 
L 32.562597 73.744397 
L 32.616956 73.646293 
L 32.834392 73.835248 
L 32.888751 73.304355 
L 32.94311 73.838225 
L 33.106186 73.564344 
L 33.214904 73.87926 
L 33.377981 73.476204 
L 33.486699 73.801557 
L 33.595417 73.755473 
L 33.704135 73.406766 
L 33.758494 73.87544 
L 33.812853 73.718726 
L 33.867211 73.657373 
L 33.92157 73.947733 
L 33.975929 73.640008 
L 34.030288 73.462212 
L 34.084647 74.015697 
L 34.139006 73.93706 
L 34.193365 73.577262 
L 34.247724 73.633523 
L 34.519519 73.842317 
L 34.736954 73.569385 
L 34.845672 73.864624 
L 34.900031 73.559274 
L 34.95439 73.765015 
L 35.063108 73.431082 
L 35.117467 73.58218 
L 35.171826 73.67693 
L 35.226185 73.494392 
L 35.280544 73.914391 
L 35.334903 73.801958 
L 35.389261 73.514938 
L 35.44362 73.874722 
L 35.497979 73.847104 
L 35.552338 73.58247 
L 35.606697 73.703645 
L 35.878492 73.706994 
L 35.932851 73.411664 
L 35.98721 73.877094 
L 36.041569 73.677517 
L 36.150286 73.752177 
L 36.204645 73.438162 
L 36.259004 73.683189 
L 36.313363 73.876205 
L 36.47644 73.304602 
L 36.530799 73.382525 
L 36.585158 73.950864 
L 36.639517 73.7719 
L 36.693876 73.897708 
L 36.748235 73.800529 
L 36.802594 73.140691 
L 36.856953 73.551671 
L 37.020029 73.871022 
L 37.074388 73.696656 
L 37.237465 73.736872 
L 37.291824 73.475729 
L 37.346183 73.830727 
L 37.400542 73.597272 
L 37.50926 73.492939 
L 37.563619 73.848492 
L 37.617978 73.439542 
L 37.781054 73.997208 
L 37.835413 73.946049 
L 37.889772 73.355172 
L 37.944131 73.628926 
L 37.99849 73.540302 
L 38.052849 74.035309 
L 38.107208 73.806863 
L 38.161567 73.945174 
L 38.215926 73.891141 
L 38.433361 73.890553 
L 38.542079 73.557315 
L 38.596438 73.566183 
L 38.650797 73.306537 
L 38.705156 73.820398 
L 38.759515 73.705345 
L 38.868233 73.222225 
L 39.03131 73.811652 
L 39.194386 73.404979 
L 39.248745 73.392073 
L 39.357463 73.909352 
L 39.411822 73.801157 
L 39.466181 73.843361 
L 39.52054 73.404736 
L 39.574899 73.725133 
L 39.629258 73.527241 
L 39.683617 73.914963 
L 39.737976 73.734356 
L 39.792335 73.305287 
L 39.846694 73.319207 
L 39.955411 73.877141 
L 40.00977 73.488638 
L 40.064129 73.545239 
L 40.118488 73.565452 
L 40.172847 73.806978 
L 40.227206 73.565635 
L 40.281565 73.322808 
L 40.444642 74.075773 
L 40.55336 73.806198 
L 40.607719 73.329328 
L 40.662078 73.382497 
L 40.716436 73.645294 
L 40.770795 73.379601 
L 40.825154 73.311959 
L 40.879513 73.690159 
L 40.933872 73.432102 
L 40.988231 73.659164 
L 41.04259 73.615873 
L 41.096949 73.585692 
L 41.151308 74.071891 
L 41.205667 73.675065 
L 41.260026 73.687589 
L 41.368744 74.172923 
L 41.477461 73.226289 
L 41.53182 73.366178 
L 41.749256 74.23837 
L 41.803615 73.169545 
L 41.857974 73.946526 
L 41.912333 73.299713 
L 41.966692 73.67934 
L 42.021051 73.8566 
L 42.07541 73.723906 
L 42.129769 73.329565 
L 42.184128 73.638161 
L 42.238486 73.675577 
L 42.292845 73.961447 
L 42.401563 73.463548 
L 42.56464 74.000793 
L 42.673358 73.32173 
L 42.727717 73.605876 
L 42.836435 73.878606 
L 42.890794 73.737809 
L 42.999511 73.11658 
L 43.108229 74.00801 
L 43.162588 73.782808 
L 43.271306 73.343472 
L 43.488742 73.697446 
L 43.543101 73.51586 
L 43.59746 73.798482 
L 43.651819 73.366326 
L 43.706178 73.834923 
L 43.760536 73.638693 
L 44.032331 73.518257 
L 44.08669 73.526358 
L 44.141049 73.951055 
L 44.249767 73.28494 
L 44.358485 73.864803 
L 44.412844 73.233481 
L 44.467203 73.800258 
L 44.57592 73.615921 
L 44.684638 74.0661 
L 44.738997 73.750143 
L 44.793356 74.092933 
L 44.902074 73.112321 
L 45.010792 73.83302 
L 45.173869 73.092905 
L 45.228228 73.68222 
L 45.282586 73.661577 
L 45.336945 73.558326 
L 45.391304 73.667942 
L 45.445663 74.260972 
L 45.500022 73.948145 
L 45.554381 73.955772 
L 45.60874 74.332162 
L 45.771817 73.260854 
L 45.934894 73.773728 
L 45.989253 73.672818 
L 46.043611 74.170509 
L 46.09797 73.682417 
L 46.152329 73.20734 
L 46.206688 74.079022 
L 46.261047 73.287091 
L 46.315406 73.828407 
L 46.369765 72.999572 
L 46.424124 73.908083 
L 46.478483 73.853923 
L 46.532842 73.084645 
L 46.587201 73.415747 
L 46.804636 74.431569 
L 47.022072 73.73032 
L 47.13079 72.963158 
L 47.185149 73.664647 
L 47.239508 73.533091 
L 47.293867 73.358793 
L 47.402585 74.142943 
L 47.456944 72.934188 
L 47.511303 73.926249 
L 47.565662 74.173603 
L 47.62002 73.014139 
L 47.674379 73.105634 
L 47.783097 73.537022 
L 47.837456 74.251513 
L 47.891815 73.566087 
L 48.054892 74.385208 
L 48.217969 72.78457 
L 48.272328 73.554357 
L 48.326687 73.529643 
L 48.381045 73.271542 
L 48.544122 74.00918 
L 48.598481 73.524601 
L 48.65284 73.812367 
L 48.707199 73.753456 
L 48.761558 74.069166 
L 48.815917 73.35192 
L 48.924635 73.384791 
L 48.978994 74.07784 
L 49.033353 73.66933 
L 49.087712 73.166905 
L 49.250788 73.853346 
L 49.305147 73.993872 
L 49.468224 73.359145 
L 49.631301 74.171278 
L 49.68566 73.292445 
L 49.740019 73.760922 
L 49.903095 74.293989 
L 49.957454 73.236156 
L 50.011813 73.509503 
L 50.120531 74.077401 
L 50.229249 73.023368 
L 50.283608 74.386572 
L 50.337967 73.936471 
L 50.501044 73.446759 
L 50.66412 73.977658 
L 50.772838 73.439049 
L 50.827197 73.883558 
L 50.881556 73.154151 
L 50.935915 73.71783 
L 50.990274 74.183203 
L 51.044633 73.898098 
L 51.153351 73.819215 
L 51.316428 73.526779 
L 51.370787 73.583313 
L 51.425145 74.283378 
L 51.479504 73.811694 
L 51.588222 73.290158 
L 51.642581 73.409441 
L 51.69694 74.297131 
L 51.751299 74.222017 
L 51.860017 73.626552 
L 51.914376 73.763324 
L 51.968735 73.876967 
L 52.023094 73.63786 
L 52.077453 72.829263 
L 52.131812 73.702076 
L 52.18617 73.234276 
L 52.240529 73.429131 
L 52.294888 74.150147 
L 52.349247 73.457379 
L 52.512324 73.713209 
L 52.566683 74.571196 
L 52.621042 73.799134 
L 52.675401 73.923834 
L 52.72976 73.725412 
L 52.784119 73.988722 
L 52.892837 72.911309 
L 53.055913 74.353335 
L 53.110272 74.181025 
L 53.164631 73.371196 
L 53.21899 74.005318 
L 53.327708 73.133844 
L 53.382067 73.453933 
L 53.436426 73.576324 
L 53.490785 72.836895 
L 53.545144 73.988637 
L 53.599503 73.594793 
L 53.70822 73.633808 
L 53.762579 73.2638 
L 53.816938 73.335285 
L 53.871297 73.842409 
L 53.925656 73.090497 
L 53.980015 73.552292 
L 54.034374 74.23271 
L 54.088733 73.049326 
L 54.143092 73.899057 
L 54.197451 73.55853 
L 54.25181 74.156792 
L 54.306169 73.555437 
L 54.469245 73.164349 
L 54.523604 74.21883 
L 54.577963 73.439164 
L 54.632322 73.560879 
L 54.686681 72.667288 
L 54.74104 73.010277 
L 54.904117 74.022328 
L 54.958476 73.143954 
L 55.012835 74.12194 
L 55.067194 73.069433 
L 55.121553 74.422456 
L 55.175912 73.096546 
L 55.338988 73.714392 
L 55.502065 73.377698 
L 55.665142 73.872127 
L 55.77386 73.001945 
L 55.828219 73.023367 
L 55.882578 72.868227 
L 55.936937 73.879489 
L 55.991295 73.490973 
L 56.100013 73.350913 
L 56.154372 73.949697 
L 56.208731 73.552295 
L 56.26309 73.592082 
L 56.371808 74.986189 
L 56.426167 74.81557 
L 56.589244 73.673139 
L 56.643603 73.02254 
L 56.697962 74.450805 
L 56.75232 73.795374 
L 56.915397 72.989946 
L 56.969756 74.297184 
L 57.024115 73.393466 
L 57.132833 73.851035 
L 57.187192 73.400671 
L 57.241551 74.033127 
L 57.29591 74.024829 
L 57.350269 73.909423 
L 57.404628 74.008557 
L 57.458987 74.093853 
L 57.513345 74.413343 
L 57.676422 72.869081 
L 57.839499 74.676954 
L 57.893858 74.519924 
L 57.948217 73.663956 
L 58.002576 74.081271 
L 58.056935 74.836557 
L 58.165653 73.18449 
L 58.220012 73.694242 
L 58.27437 72.754588 
L 58.328729 73.060653 
L 58.383088 73.517818 
L 58.437447 72.866032 
L 58.491806 73.471002 
L 58.546165 73.858441 
L 58.600524 73.769298 
L 58.654883 73.225384 
L 58.709242 73.959856 
L 58.872319 72.469886 
L 58.926678 73.373662 
L 58.981037 72.981334 
L 59.035395 72.890034 
L 59.089754 74.625538 
L 59.144113 74.276747 
L 59.198472 73.451765 
L 59.252831 73.491308 
L 59.30719 73.648828 
L 59.361549 74.601233 
L 59.415908 74.176841 
L 59.470267 73.014684 
L 59.524626 73.814328 
L 59.578985 73.435005 
L 59.633344 74.161777 
L 59.687703 73.043618 
L 59.742062 73.114836 
L 59.79642 74.066736 
L 59.850779 73.866846 
L 60.013856 72.815102 
L 60.122574 73.981886 
L 60.176933 72.809127 
L 60.231292 72.915866 
L 60.34001 74.378479 
L 60.503087 72.620251 
L 60.611804 73.395621 
L 60.666163 72.165501 
L 60.720522 74.461766 
L 60.774881 72.462113 
L 60.883599 74.498385 
L 60.937958 73.802244 
L 60.992317 72.919252 
L 61.046676 74.117766 
L 61.101035 73.398661 
L 61.155394 73.742287 
L 61.209753 72.999881 
L 61.264112 73.38089 
L 61.31847 73.745074 
L 61.372829 73.165301 
L 61.535906 74.855996 
L 61.590265 74.633968 
L 61.753342 72.471404 
L 62.025137 74.643265 
L 62.079495 72.495523 
L 62.133854 72.727686 
L 62.242572 74.267319 
L 62.296931 72.294213 
L 62.35129 73.253425 
L 62.405649 74.29838 
L 62.460008 74.194556 
L 62.514367 74.010351 
L 62.568726 73.162521 
L 62.623085 73.72479 
L 62.677444 75.183899 
L 62.84052 72.502106 
L 62.894879 73.886878 
L 62.949238 72.715575 
L 63.112315 74.318046 
L 63.221033 73.208499 
L 63.275392 74.104132 
L 63.329751 73.701301 
L 63.38411 73.103371 
L 63.438469 74.562521 
L 63.492828 73.302611 
L 63.547187 73.820213 
L 63.710263 73.102394 
L 63.818981 73.73906 
L 63.87334 73.472179 
L 63.927699 73.211417 
L 63.982058 74.287741 
L 64.090776 72.80002 
L 64.199494 74.008758 
L 64.253853 73.772138 
L 64.308212 73.915662 
L 64.362571 73.357441 
L 64.416929 73.947282 
L 64.471288 72.560118 
L 64.525647 72.637116 
L 64.580006 75.135168 
L 64.634365 73.210887 
L 64.743083 73.674121 
L 64.797442 72.589307 
L 64.851801 73.632289 
L 64.960519 72.562847 
L 65.069237 74.226409 
L 65.177954 73.231741 
L 65.232313 73.250316 
L 65.341031 74.686402 
L 65.39539 73.33339 
L 65.449749 73.844966 
L 65.504108 75.051439 
L 65.558467 74.784883 
L 65.775903 72.737231 
L 65.830262 73.956887 
L 65.884621 73.712729 
L 65.938979 73.45017 
L 66.047697 74.328608 
L 66.156415 73.088943 
L 66.210774 74.71023 
L 66.265133 72.726357 
L 66.319492 74.788327 
L 66.42821 72.891866 
L 66.482569 74.715305 
L 66.536928 74.14817 
L 66.591287 72.414254 
L 66.645646 73.607026 
L 66.700004 73.620398 
L 66.754363 73.323269 
L 66.808722 73.782954 
L 66.863081 72.694795 
L 66.91744 73.698889 
L 67.189235 73.313016 
L 67.243594 72.817488 
L 67.297953 73.021636 
L 67.352312 73.643896 
L 67.406671 72.74104 
L 67.515388 72.731521 
L 67.569747 74.600286 
L 67.678465 72.187929 
L 67.732824 72.706021 
L 67.787183 74.199688 
L 67.841542 73.428838 
L 67.895901 73.804079 
L 67.95026 73.403804 
L 68.004619 74.045389 
L 68.058978 72.857815 
L 68.113337 73.955046 
L 68.276413 72.839615 
L 68.493849 75.083008 
L 68.656926 73.519174 
L 68.711285 73.444109 
L 68.820003 74.853669 
L 68.874362 72.79179 
L 68.928721 73.968589 
L 68.983079 74.784392 
L 69.037438 73.151964 
L 69.091797 74.316426 
L 69.146156 73.786992 
L 69.200515 75.029242 
L 69.363592 71.480026 
L 69.417951 75.35256 
L 69.47231 74.583221 
L 69.635387 72.988301 
L 69.744104 75.11635 
L 69.798463 74.401084 
L 69.907181 73.700039 
L 70.070258 72.321197 
L 70.178976 75.726213 
L 70.342053 71.198748 
L 70.396412 75.717595 
L 70.450771 73.723747 
L 70.505129 73.663639 
L 70.613847 72.564791 
L 70.722565 74.059689 
L 70.776924 73.201258 
L 70.831283 73.435872 
L 70.885642 75.134992 
L 70.940001 72.261961 
L 70.99436 74.487548 
L 71.048719 74.537399 
L 71.103078 72.582636 
L 71.157437 73.865986 
L 71.211796 73.92347 
L 71.266154 72.233047 
L 71.320513 73.639312 
L 71.374872 73.540066 
L 71.429231 72.247405 
L 71.48359 74.352036 
L 71.537949 72.477787 
L 71.646667 73.427502 
L 71.809744 75.43874 
L 71.972821 73.029033 
L 72.027179 74.112789 
L 72.081538 72.850678 
L 72.135897 73.83501 
L 72.190256 73.743786 
L 72.244615 74.768856 
L 72.353333 71.420277 
L 72.407692 75.118818 
L 72.462051 74.404364 
L 72.51641 74.31657 
L 72.570769 74.407841 
L 72.733846 72.94148 
L 72.788204 73.096545 
L 72.842563 75.349705 
L 72.896922 74.210215 
L 72.951281 73.31812 
L 73.00564 73.697379 
L 73.059999 73.813383 
L 73.114358 72.543048 
L 73.223076 75.059974 
L 73.277435 71.289093 
L 73.331794 72.750857 
L 73.494871 74.897505 
L 73.712306 72.856977 
L 73.766665 75.219053 
L 73.821024 73.721816 
L 73.929742 75.249768 
L 73.984101 73.310438 
L 74.03846 73.762548 
L 74.092819 76.069393 
L 74.255896 71.938327 
L 74.473331 74.128231 
L 74.52769 71.881373 
L 74.582049 73.738223 
L 74.636408 72.175072 
L 74.745126 74.998329 
L 74.799485 73.035554 
L 74.853844 73.60965 
L 74.908203 74.209151 
L 74.962562 74.049851 
L 75.016921 73.988405 
L 75.071279 73.104009 
L 75.125638 75.070039 
L 75.179997 72.630985 
L 75.234356 75.416483 
L 75.288715 73.410238 
L 75.343074 73.654291 
L 75.397433 74.744597 
L 75.56051 71.814448 
L 75.723587 74.332203 
L 75.832304 72.55365 
L 75.941022 74.240446 
L 75.995381 71.896817 
L 76.04974 74.756558 
L 76.104099 73.443685 
L 76.212817 74.331401 
L 76.267176 73.077866 
L 76.321535 73.491749 
L 76.375894 73.28189 
L 76.430253 73.825553 
L 76.484612 75.836467 
L 76.647688 71.78643 
L 76.810765 73.717167 
L 76.919483 74.410094 
L 76.973842 72.269537 
L 77.028201 74.647249 
L 77.08256 73.990829 
L 77.136919 71.991653 
L 77.191278 72.042852 
L 77.245637 72.729032 
L 77.299996 75.203172 
L 77.354354 74.083404 
L 77.408713 74.522752 
L 77.463072 73.774541 
L 77.517431 75.425138 
L 77.57179 72.223026 
L 77.626149 73.166316 
L 77.680508 73.390015 
L 77.897944 75.171377 
L 77.952303 72.045842 
L 78.006662 73.426716 
L 78.061021 74.321472 
L 78.115379 73.853684 
L 78.169738 71.967683 
L 78.224097 72.603723 
L 78.332815 72.768306 
L 78.495892 73.756783 
L 78.550251 71.888485 
L 78.60461 74.691899 
L 78.658969 72.807568 
L 78.767687 74.916641 
L 78.876404 72.761006 
L 78.930763 74.681939 
L 78.985122 73.910566 
L 79.039481 71.353174 
L 79.09384 72.758397 
L 79.148199 74.112277 
L 79.202558 73.856073 
L 79.256917 73.392391 
L 79.311276 74.944634 
L 79.365635 74.018372 
L 79.419994 74.331814 
L 79.474353 74.133464 
L 79.528712 72.678217 
L 79.583071 75.73449 
L 79.637429 73.996559 
L 79.691788 75.197193 
L 79.800506 71.87055 
L 79.909224 74.495445 
L 79.963583 72.527204 
L 80.017942 73.753281 
L 80.072301 74.196744 
L 80.235378 72.396823 
L 80.289737 73.170822 
L 80.344096 76.145831 
L 80.398455 71.757393 
L 80.452813 74.707119 
L 80.561531 71.844023 
L 80.61589 73.77877 
L 80.670249 73.775302 
L 80.833326 72.596199 
L 80.996403 74.60506 
L 81.105121 73.591452 
L 81.15948 74.006029 
L 81.213838 73.570572 
L 81.268197 71.77074 
L 81.322556 74.303757 
L 81.376915 73.728228 
L 81.485633 73.195642 
L 81.594351 76.595399 
L 81.757428 72.276955 
L 81.811787 72.371444 
L 81.974863 75.644196 
L 82.13794 73.096727 
L 82.192299 74.436691 
L 82.246658 71.736081 
L 82.301017 73.325294 
L 82.355376 74.820628 
L 82.409735 74.45654 
L 82.464094 74.455786 
L 82.627171 72.151887 
L 82.790247 75.426777 
L 82.844606 73.356939 
L 82.898965 73.84774 
L 82.953324 74.341315 
L 83.007683 73.079881 
L 83.062042 74.155802 
L 83.116401 75.348579 
L 83.279478 71.411296 
L 83.333837 71.519215 
L 83.551272 74.38628 
L 83.65999 71.544093 
L 83.714349 74.730236 
L 83.768708 71.57388 
L 84.040503 74.958629 
L 84.20358 72.835097 
L 84.257938 75.105167 
L 84.312297 73.418542 
L 84.366656 74.93929 
L 84.529733 70.588934 
L 84.638451 73.372374 
L 84.69281 73.06228 
L 84.855887 71.640727 
L 85.018963 74.903281 
L 85.18204 72.474071 
L 85.399476 75.104439 
L 85.453835 72.583348 
L 85.508194 75.398545 
L 85.562553 72.208542 
L 85.616912 75.520318 
L 85.72563 73.575175 
L 85.779988 74.306414 
L 85.888706 72.572554 
L 85.943065 73.925537 
L 85.997424 73.127655 
L 86.051783 72.828071 
L 86.160501 74.525846 
L 86.269219 74.059625 
L 86.377937 70.992085 
L 86.432296 73.549802 
L 86.486655 71.195967 
L 86.595372 74.611277 
L 86.649731 73.175285 
L 86.70409 71.36468 
L 86.758449 74.094881 
L 86.867167 74.001613 
L 86.921526 73.249955 
L 86.975885 75.328762 
L 87.030244 74.205528 
L 87.084603 73.738257 
L 87.138962 74.40448 
L 87.356397 70.011799 
L 87.410756 74.440077 
L 87.465115 74.312593 
L 87.573833 72.29889 
L 87.628192 74.503888 
L 87.682551 72.98038 
L 87.73691 73.583923 
L 87.845628 76.47362 
L 87.954346 72.217727 
L 88.008705 74.141437 
L 88.117422 72.452377 
L 88.22614 74.276215 
L 88.280499 72.720815 
L 88.334858 74.724257 
L 88.443576 71.460468 
L 88.661012 75.460971 
L 88.715371 71.978076 
L 88.76973 73.658147 
L 88.824088 73.966257 
L 88.932806 72.422211 
L 89.041524 74.222326 
L 89.150242 71.772686 
L 89.204601 75.005149 
L 89.25896 73.799662 
L 89.313319 73.752509 
L 89.367678 72.218383 
L 89.422037 74.696601 
L 89.476396 73.395131 
L 89.530755 73.137752 
L 89.585113 73.573586 
L 89.639472 75.338118 
L 89.693831 71.370951 
L 89.74819 73.3612 
L 89.856908 72.825522 
L 90.019985 75.547175 
L 90.183062 73.02773 
L 90.29178 74.494657 
L 90.346138 72.350498 
L 90.454856 75.338973 
L 90.509215 71.608249 
L 90.563574 73.221055 
L 90.617933 73.707662 
L 90.672292 72.548176 
L 90.78101 75.299921 
L 90.944087 71.766109 
L 90.998446 72.559088 
L 91.107163 73.737696 
L 91.161522 70.954017 
L 91.27024 75.191578 
L 91.324599 74.569696 
L 91.378958 72.109628 
L 91.433317 73.616541 
L 91.487676 73.635838 
L 91.542035 71.947436 
L 91.596394 75.424208 
L 91.650753 73.007636 
L 91.705112 74.591097 
L 91.759471 74.114158 
L 91.81383 73.886329 
L 91.868188 75.406686 
L 92.031265 71.220124 
L 92.248701 75.437836 
L 92.411778 70.66165 
L 92.574855 73.101523 
L 92.629213 75.223726 
L 92.683572 73.641796 
L 92.737931 73.072222 
L 92.79229 73.331483 
L 92.846649 73.291839 
L 92.901008 72.680834 
L 92.955367 75.022245 
L 93.009726 71.341202 
L 93.064085 72.177001 
L 93.33588 77.621306 
L 93.390238 76.518774 
L 93.444597 71.584729 
L 93.498956 74.480729 
L 93.553315 72.40787 
L 93.607674 75.551008 
L 93.662033 74.522356 
L 93.770751 72.269499 
L 93.82511 74.582443 
L 93.879469 74.546314 
L 93.988187 73.1431 
L 94.042546 74.888827 
L 94.096905 72.912619 
L 94.151263 73.768576 
L 94.259981 72.857938 
L 94.423058 77.770437 
L 94.531776 72.340593 
L 94.586135 75.955986 
L 94.640494 74.867399 
L 94.749212 72.481585 
L 94.803571 74.65023 
L 94.85793 73.612942 
L 94.912288 73.420899 
L 94.966647 71.888212 
L 95.021006 72.266388 
L 95.075365 72.18866 
L 95.129724 74.092162 
L 95.184083 73.825845 
L 95.34716 72.049038 
L 95.401519 73.955272 
L 95.455878 71.883163 
L 95.510237 72.792002 
L 95.564596 75.031623 
L 95.618955 73.764775 
L 95.673313 73.972844 
L 95.727672 70.864863 
L 95.782031 73.718312 
L 95.83639 72.968818 
L 95.890749 76.418116 
L 95.945108 72.916215 
L 95.999467 74.668753 
L 96.053826 73.37158 
L 96.108185 72.55558 
L 96.162544 73.138088 
L 96.216903 74.560904 
L 96.271262 73.382765 
L 96.37998 71.834687 
L 96.488697 75.767237 
L 96.597415 73.416103 
L 96.651774 73.818991 
L 96.706133 75.455207 
L 96.760492 75.100409 
L 96.814851 72.220145 
L 96.86921 77.139212 
L 96.923569 75.067661 
L 97.141005 72.182705 
L 97.249722 75.749602 
L 97.304081 72.940288 
L 97.35844 77.443632 
L 97.412799 73.405048 
L 97.467158 72.807671 
L 97.521517 73.192401 
L 97.575876 77.796793 
L 97.630235 75.382343 
L 97.684594 71.799379 
L 97.738953 73.237766 
L 97.793312 74.547434 
L 97.90203 71.118067 
L 98.065106 75.41807 
L 98.119465 75.65372 
L 98.228183 72.577298 
L 98.336901 72.796309 
L 98.445619 75.839855 
L 98.499978 71.028874 
L 98.554337 72.055625 
L 98.608696 72.407733 
L 98.717414 73.818966 
L 98.771772 71.05214 
L 98.826131 72.48037 
L 98.88049 74.14581 
L 98.934849 73.448411 
L 98.989208 72.218143 
L 99.043567 74.478791 
L 99.097926 71.781145 
L 99.152285 73.48632 
L 99.206644 74.540399 
L 99.261003 73.054436 
L 99.315362 73.169706 
L 99.369721 73.348481 
L 99.42408 72.398461 
L 99.478439 74.41624 
L 99.532797 72.374362 
L 99.641515 74.363474 
L 99.695874 72.521689 
L 99.750233 73.698975 
L 99.804592 77.246567 
L 99.858951 72.631507 
L 99.91331 75.736171 
L 100.076387 73.023132 
L 100.130746 75.44295 
L 100.185105 74.91929 
L 100.293822 73.455014 
L 100.456899 75.055932 
L 100.565617 70.826088 
L 100.619976 72.604601 
L 100.674335 73.449236 
L 100.728694 72.3095 
L 100.783053 74.09331 
L 100.837412 73.490694 
L 100.891771 73.413289 
L 100.94613 74.827501 
L 101.000489 71.902464 
L 101.054847 73.063558 
L 101.109206 74.413627 
L 101.163565 73.275385 
L 101.217924 72.879929 
L 101.381001 76.624231 
L 101.43536 71.915643 
L 101.489719 73.086809 
L 101.544078 73.751006 
L 101.598437 70.78261 
L 101.707155 75.574717 
L 101.761514 71.754061 
L 101.815872 76.195864 
L 101.870231 73.704195 
L 101.92459 73.981478 
L 101.978949 76.69248 
L 102.142026 70.839365 
L 102.305103 76.206331 
L 102.359462 73.710628 
L 102.413821 73.712915 
L 102.46818 73.99626 
L 102.522539 73.255866 
L 102.576897 75.333076 
L 102.739974 72.428784 
L 102.903051 75.717087 
L 103.011769 72.056823 
L 103.066128 72.657974 
L 103.120487 73.566865 
L 103.174846 73.157519 
L 103.337922 71.495335 
L 103.392281 73.380894 
L 103.44664 72.354527 
L 103.500999 71.608099 
L 103.555358 74.879611 
L 103.609717 72.345304 
L 103.718435 74.177507 
L 103.772794 72.338783 
L 103.827153 73.930046 
L 103.99023 71.441582 
L 104.098947 74.145256 
L 104.153306 72.294001 
L 104.207665 72.750399 
L 104.262024 72.688809 
L 104.316383 75.693772 
L 104.370742 72.653427 
L 104.425101 71.176658 
L 104.47946 74.447898 
L 104.533819 72.736268 
L 104.696896 74.451986 
L 104.805614 72.902204 
L 104.859972 73.330656 
L 105.023049 75.659772 
L 105.186126 70.38806 
L 105.294844 72.929373 
L 105.349203 72.041423 
L 105.403562 74.763379 
L 105.457921 74.170893 
L 105.566639 72.773988 
L 105.620997 74.686042 
L 105.675356 74.142168 
L 105.784074 73.682475 
L 105.838433 71.774598 
L 105.892792 73.574649 
L 106.00151 72.810075 
L 106.055869 75.203784 
L 106.110228 73.575731 
L 106.273305 72.108889 
L 106.327664 70.775507 
L 106.382022 74.822488 
L 106.49074 74.75885 
L 106.599458 72.471889 
L 106.762535 74.41381 
L 106.816894 74.658487 
L 106.925612 73.219927 
L 106.979971 74.578089 
L 107.03433 73.595824 
L 107.088689 71.500277 
L 107.143047 72.063236 
L 107.251765 73.203509 
L 107.306124 75.55022 
L 107.360483 74.294329 
L 107.414842 75.117013 
L 107.577919 73.102282 
L 107.686637 72.079726 
L 107.795355 73.55653 
L 107.849714 72.106459 
L 107.904072 74.03897 
L 107.958431 72.5823 
L 108.01279 71.458161 
L 108.067149 73.188516 
L 108.121508 71.728208 
L 108.338944 74.546344 
L 108.393303 74.223574 
L 108.447662 74.629338 
L 108.610739 73.452279 
L 108.665097 72.875159 
L 108.719456 75.068532 
L 108.773815 73.530837 
L 108.828174 74.80899 
L 108.882533 73.187919 
L 108.936892 73.532878 
L 108.991251 76.100908 
L 109.04561 71.789333 
L 109.099969 73.907392 
L 109.154328 72.804802 
L 109.208687 73.074168 
L 109.317405 75.98917 
L 109.426122 71.945474 
L 109.480481 72.406213 
L 109.53484 72.756401 
L 109.589199 74.762061 
L 109.643558 74.089885 
L 109.697917 71.501782 
L 109.752276 72.933082 
L 109.860994 73.642373 
L 109.915353 72.617934 
L 109.969712 74.245018 
L 110.024071 74.045744 
L 110.07843 71.388927 
L 110.132789 74.413734 
L 110.187147 74.386762 
L 110.295865 72.358457 
L 110.404583 76.224831 
L 110.458942 72.221733 
L 110.513301 73.602324 
L 110.676378 74.732151 
L 110.730737 72.947608 
L 110.785096 73.750541 
L 110.839455 73.421836 
L 110.893814 71.665885 
L 111.05689 74.544472 
L 111.111249 71.293045 
L 111.165608 74.599217 
L 111.219967 74.183224 
L 111.274326 72.491011 
L 111.328685 72.853494 
L 111.437403 74.162395 
L 111.60048 73.257938 
L 111.709197 74.835456 
L 111.763556 72.797595 
L 111.817915 73.017914 
L 111.980992 74.245879 
L 112.035351 74.529905 
L 112.08971 73.702311 
L 112.144069 76.204732 
L 112.198428 71.968996 
L 112.252787 73.487498 
L 112.307146 73.165493 
L 112.361505 73.313884 
L 112.415864 74.754678 
L 112.470222 74.305799 
L 112.524581 73.608091 
L 112.57894 74.182306 
L 112.633299 74.04809 
L 112.687658 74.523126 
L 112.742017 73.435312 
L 112.796376 75.257865 
L 112.850735 74.05804 
L 112.959453 72.838494 
L 113.12253 74.652412 
L 113.285606 75.005002 
L 113.394324 72.720528 
L 113.448683 73.362604 
L 113.503042 74.078186 
L 113.557401 72.411637 
L 113.61176 73.438214 
L 113.720478 73.965239 
L 113.883555 72.617369 
L 113.937914 75.570467 
L 113.992273 73.36169 
L 114.046631 73.578026 
L 114.10099 72.13391 
L 114.155349 73.891233 
L 114.209708 72.040998 
L 114.264067 73.475841 
L 114.318426 73.419643 
L 114.372785 72.611096 
L 114.427144 73.161246 
L 114.535862 74.529785 
L 114.590221 73.700896 
L 114.64458 72.743026 
L 114.698939 73.128559 
L 114.807656 74.643779 
L 114.916374 74.296631 
L 114.970733 72.903837 
L 115.025092 74.010865 
L 115.079451 73.939507 
L 115.13381 71.416204 
L 115.188169 75.591915 
L 115.242528 74.658286 
L 115.296887 74.347318 
L 115.351246 72.678256 
L 115.405605 74.167213 
L 115.459964 73.769316 
L 115.568681 71.567145 
L 115.677399 73.977947 
L 115.731758 73.084924 
L 115.786117 73.957124 
L 115.840476 73.477262 
L 115.894835 71.853337 
L 116.057912 74.704498 
L 116.16663 71.36365 
L 116.220989 72.98085 
L 116.275348 74.870018 
L 116.329706 73.79787 
L 116.438424 74.455082 
L 116.492783 73.623865 
L 116.547142 74.590666 
L 116.601501 74.003183 
L 116.65586 73.999557 
L 116.710219 74.168879 
L 116.764578 72.727018 
L 116.818937 73.925217 
L 116.873296 72.910597 
L 116.927655 74.132026 
L 116.982014 73.031267 
L 117.036373 73.563316 
L 117.090731 72.492749 
L 117.14509 74.590421 
L 117.199449 73.331198 
L 117.253808 74.221029 
L 117.308167 73.943216 
L 117.362526 73.411526 
L 117.416885 73.534868 
L 117.471244 73.605392 
L 117.634321 72.984844 
L 117.851756 74.553143 
L 117.906115 72.578937 
L 117.960474 73.909911 
L 118.014833 73.559403 
L 118.069192 74.575711 
L 118.123551 73.098161 
L 118.17791 73.559632 
L 118.232269 74.000924 
L 118.286628 73.024656 
L 118.340987 73.925854 
L 118.395346 74.069312 
L 118.558423 72.997363 
L 118.612781 74.3862 
L 118.66714 73.273503 
L 118.721499 73.304896 
L 118.775858 71.858205 
L 118.830217 73.066702 
L 118.884576 74.449457 
L 118.938935 73.526916 
L 118.993294 72.542444 
L 119.047653 73.266837 
L 119.102012 73.517323 
L 119.156371 73.029196 
L 119.265089 74.787008 
L 119.428165 72.954443 
L 119.536883 74.405373 
L 119.591242 73.132183 
L 119.645601 73.617256 
L 119.69996 74.223206 
L 119.754319 73.473287 
L 119.863037 75.127435 
L 119.917396 73.263835 
L 119.971755 74.363327 
L 120.080473 73.341233 
L 120.134831 72.818542 
L 120.18919 73.138106 
L 120.352267 74.01925 
L 120.406626 73.329153 
L 120.460985 73.537031 
L 120.569703 73.704931 
L 120.624062 72.181448 
L 120.787139 74.176817 
L 120.841498 74.10381 
L 120.895856 74.471738 
L 120.950215 73.106789 
L 121.004574 73.708699 
L 121.058933 73.426247 
L 121.22201 74.03973 
L 121.276369 73.049729 
L 121.330728 74.424456 
L 121.439446 74.397116 
L 121.602523 73.47758 
L 121.656881 73.044442 
L 121.71124 73.126719 
L 121.765599 74.565359 
L 121.819958 72.508884 
L 121.874317 73.306831 
L 121.928676 73.126138 
L 122.091753 73.901638 
L 122.146112 73.109628 
L 122.309189 74.172791 
L 122.417906 73.696636 
L 122.472265 74.281019 
L 122.526624 73.44734 
L 122.580983 73.666938 
L 122.689701 73.363405 
L 122.798419 74.069571 
L 122.852778 73.552078 
L 122.907137 73.770571 
L 123.015855 73.878281 
L 123.070214 73.750506 
L 123.124573 73.88675 
L 123.178931 73.946047 
L 123.287649 73.503364 
L 123.342008 74.123727 
L 123.505085 73.068338 
L 123.559444 73.502139 
L 123.613803 73.419784 
L 123.668162 72.802824 
L 123.77688 72.815196 
L 123.831239 73.73679 
L 123.885598 73.465443 
L 123.939956 73.688065 
L 123.994315 73.531902 
L 124.048674 73.574104 
L 124.103033 74.357718 
L 124.157392 73.412138 
L 124.211751 73.59225 
L 124.320469 74.115872 
L 124.374828 73.238405 
L 124.429187 73.65615 
L 124.483546 73.658626 
L 124.646623 73.405136 
L 124.75534 73.795881 
L 124.809699 73.659147 
L 124.972776 73.259144 
L 125.027135 73.99482 
L 125.081494 73.591053 
L 125.135853 73.624691 
L 125.190212 73.346894 
L 125.244571 73.598051 
L 125.353289 73.351894 
L 125.407648 73.87875 
L 125.462006 73.528102 
L 125.516365 73.823391 
L 125.679442 73.284371 
L 125.842519 73.707737 
L 125.896878 73.511142 
L 125.951237 73.50251 
L 126.059955 73.804395 
L 126.114314 73.731601 
L 126.168673 73.578864 
L 126.223031 73.719684 
L 126.440467 73.641736 
L 126.603544 73.648272 
L 126.766621 73.673652 
L 126.875339 73.511239 
L 126.929698 73.775096 
L 126.984056 73.692907 
L 127.092774 73.615731 
L 127.255851 73.642184 
L 127.636364 73.651705 
L 127.636364 73.651705 
" clip-path="url(#p937b441afd)" style="fill: none; stroke: #fc8d62; stroke-width: 1.5; stroke-linecap: square"/>
   </g>
   <g id="patch_3">
    <path d="M 10.8 133.2 
L 10.8 10.8 
" style="fill: none; stroke: #000000; stroke-width: 0.8; stroke-linejoin: miter; stroke-linecap: square"/>
   </g>
   <g id="patch_4">
    <path d="M 133.2 133.2 
L 133.2 10.8 
" style="fill: none; stroke: #000000; stroke-width: 0.8; stroke-linejoin: miter; stroke-linecap: square"/>
   </g>
   <g id="patch_5">
    <path d="M 10.8 133.2 
L 133.2 133.2 
" style="fill: none; stroke: #000000; stroke-width: 0.8; stroke-linejoin: miter; stroke-linecap: square"/>
   </g>
   <g id="patch_6">
    <path d="M 10.8 10.8 
L 133.2 10.8 
" style="fill: none; stroke: #000000; stroke-width: 0.8; stroke-linejoin: miter; stroke-linecap: square"/>
   </g>
  </g>
 </g>
 <defs>
  <clipPath id="p937b441afd">
   <rect x="10.8" y="10.8" width="122.4" height="122.4"/>
  </clipPath>
 </defs>
</svg>
