<?xml version="1.0" encoding="utf-8" standalone="no"?>
<!DOCTYPE svg PUBLIC "-//W3C//DTD SVG 1.1//EN"
  "http://www.w3.org/Graphics/SVG/1.1/DTD/svg11.dtd">
<svg xmlns:xlink="http://www.w3.org/1999/xlink" width="144pt" height="144pt" viewBox="0 0 144 144" xmlns="http://www.w3.org/2000/svg" version="1.1">
 <metadata>
  <rdf:RDF xmlns:dc="http://purl.org/dc/elements/1.1/" xmlns:cc="http://creativecommons.org/ns#" xmlns:rdf="http://www.w3.org/1999/02/22-rdf-syntax-ns#">
   <cc:Work>
    <dc:type rdf:resource="http://purl.org/dc/dcmitype/StillImage"/>
    <dc:date>2025-02-11T14:44:00.683780</dc:date>
    <dc:format>image/svg+xml</dc:format>
    <dc:creator>
     <cc:Agent>
      <dc:title>Matplotlib v3.8.0, https://matplotlib.org/</dc:title>
     </cc:Agent>
    </dc:creator>
   </cc:Work>
  </rdf:RDF>
 </metadata>
 <defs>
  <style type="text/css">*{stroke-linejoin: round; stroke-linecap: butt}</style>
 </defs>
 <g id="figure_1">
  <g id="patch_1">
   <path d="M 0 144 
L 144 144 
L 144 0 
L 0 0 
L 0 144 
z
" style="fill: none"/>
  </g>
  <g id="axes_1">
   <g id="patch_2">
    <path d="M 10.8 133.2 
L 133.2 133.2 
L 133.2 10.8 
L 10.8 10.8 
L 10.8 133.2 
z
" style="fill: none"/>
   </g>
   <g id="matplotlib.axis_1"/>
   <g id="matplotlib.axis_2"/>
   <g id="line2d_1">
    <path d="M 16.363636 77.485042 
L 21.74517 77.520241 
L 21.853888 77.508545 
L 22.125683 77.48431 
L 22.234401 77.590585 
L 22.28876 77.532012 
L 22.451836 77.448169 
L 22.669272 77.567765 
L 22.886708 77.432918 
L 23.430297 77.483228 
L 23.484656 77.399284 
L 23.539015 77.439022 
L 23.756451 77.529921 
L 23.973886 77.381207 
L 24.028245 77.547855 
L 24.082604 77.469906 
L 24.191322 77.463324 
L 24.897988 77.518481 
L 24.952347 77.401108 
L 25.006706 77.513734 
L 25.061065 77.647862 
L 25.169783 77.406392 
L 25.224142 77.576701 
L 25.278501 77.44669 
L 25.33286 77.498401 
L 25.387219 77.430674 
L 25.495936 77.361072 
L 25.659013 77.572331 
L 25.82209 77.453733 
L 25.876449 77.323996 
L 25.930808 77.389992 
L 25.985167 77.460734 
L 26.039526 77.386135 
L 26.256961 77.462143 
L 26.31132 77.637219 
L 26.365679 77.485204 
L 26.528756 77.61788 
L 26.583115 77.354476 
L 26.637474 77.429352 
L 26.691833 77.433731 
L 26.746192 77.669696 
L 26.800551 77.312599 
L 26.85491 77.432705 
L 26.909269 77.400158 
L 27.017986 77.534617 
L 27.072345 77.332441 
L 27.126704 77.359566 
L 27.289781 77.61212 
L 27.34414 77.387335 
L 27.398499 77.481859 
L 27.452858 77.462597 
L 27.507217 77.624251 
L 27.561576 77.554075 
L 27.670294 77.457907 
L 27.724652 77.571357 
L 27.779011 77.509823 
L 27.887729 77.359832 
L 28.050806 77.646941 
L 28.159524 77.532705 
L 28.213883 77.63961 
L 28.37696 77.374126 
L 28.431319 77.514041 
L 28.485677 77.417632 
L 28.540036 77.358701 
L 28.703113 77.488632 
L 28.811831 77.479513 
L 28.920549 77.59312 
L 28.974908 77.511827 
L 29.029267 77.60446 
L 29.246702 77.373287 
L 29.301061 77.507664 
L 29.464138 77.282942 
L 29.518497 77.686593 
L 29.572856 77.508082 
L 29.627215 77.390005 
L 29.735933 77.524611 
L 29.790292 77.37034 
L 29.844651 77.545599 
L 29.89901 77.400015 
L 30.007727 77.707518 
L 30.170804 77.305854 
L 30.225163 77.402026 
L 30.279522 77.553472 
L 30.333881 77.353997 
L 30.38824 77.539723 
L 30.768752 77.384598 
L 30.823111 77.556166 
L 30.87747 77.529346 
L 31.040547 77.149331 
L 31.094906 77.605959 
L 31.149265 77.501163 
L 31.257983 77.367403 
L 31.312342 77.509032 
L 31.42106 77.460496 
L 31.475419 77.70259 
L 31.638495 77.377793 
L 31.801572 77.626993 
L 31.855931 77.344324 
L 31.91029 77.357369 
L 32.073367 77.568989 
L 32.127726 77.477364 
L 32.182085 77.162915 
L 32.236444 77.362008 
L 32.39952 77.459498 
L 32.453879 77.723052 
L 32.508238 77.493161 
L 32.562597 77.32826 
L 32.725674 77.551507 
L 32.888751 77.572643 
L 32.94311 77.36566 
L 32.997469 77.475845 
L 33.051828 77.501861 
L 33.106186 77.772109 
L 33.214904 77.322905 
L 33.377981 77.561658 
L 33.541058 77.283146 
L 33.595417 77.579435 
L 33.649776 77.503808 
L 33.704135 77.28837 
L 33.758494 77.715485 
L 33.812853 77.631883 
L 33.975929 77.464669 
L 34.030288 77.692118 
L 34.084647 77.331254 
L 34.139006 78.008627 
L 34.193365 77.705359 
L 34.410801 77.222658 
L 34.46516 77.186171 
L 34.573878 77.590565 
L 34.628236 77.323059 
L 34.682595 77.363906 
L 34.845672 77.470186 
L 34.95439 77.184385 
L 35.117467 77.637365 
L 35.171826 77.619543 
L 35.280544 77.326899 
L 35.334903 77.359653 
L 35.389261 77.981336 
L 35.44362 77.521841 
L 35.552338 77.341272 
L 35.606697 77.482789 
L 35.661056 77.164376 
L 35.715415 77.401072 
L 35.769774 77.974097 
L 35.824133 77.496263 
L 35.878492 77.700121 
L 35.932851 77.213374 
L 35.98721 77.389708 
L 36.041569 77.38028 
L 36.150286 77.838647 
L 36.204645 77.415193 
L 36.259004 77.49222 
L 36.422081 77.794924 
L 36.639517 77.246708 
L 36.693876 77.297492 
L 36.748235 77.699504 
L 36.802594 77.362098 
L 36.856953 77.352466 
L 36.911311 77.722778 
L 36.96567 77.63662 
L 37.020029 77.29933 
L 37.074388 77.576469 
L 37.183106 77.733467 
L 37.237465 77.645429 
L 37.291824 77.598724 
L 37.346183 77.215329 
L 37.400542 77.581783 
L 37.454901 77.699993 
L 37.50926 77.257435 
L 37.563619 77.831369 
L 37.617978 77.709691 
L 37.781054 77.443826 
L 37.835413 77.47133 
L 37.889772 77.630336 
L 38.052849 77.349968 
L 38.215926 77.681875 
L 38.270285 77.521484 
L 38.324644 77.657635 
L 38.379003 77.90392 
L 38.433361 77.262028 
L 38.48772 77.506644 
L 38.542079 77.67373 
L 38.650797 77.359326 
L 38.705156 77.447068 
L 38.759515 77.698443 
L 38.813874 77.681066 
L 38.922592 77.339214 
L 38.976951 77.594414 
L 39.03131 77.496312 
L 39.140028 76.956038 
L 39.357463 77.83727 
L 39.52054 77.35527 
L 39.574899 77.550003 
L 39.737976 77.540069 
L 39.792335 77.053953 
L 39.846694 77.456 
L 39.901053 77.285419 
L 40.00977 77.775491 
L 40.064129 77.342777 
L 40.118488 77.705231 
L 40.172847 77.789986 
L 40.227206 77.42518 
L 40.281565 77.792862 
L 40.335924 77.751134 
L 40.390283 77.152372 
L 40.444642 77.458095 
L 40.55336 77.637502 
L 40.607719 77.833625 
L 40.716436 77.479818 
L 40.770795 77.498672 
L 40.933872 77.945177 
L 41.151308 77.318867 
L 41.205667 77.605806 
L 41.260026 77.431253 
L 41.314385 77.275122 
L 41.477461 77.515433 
L 41.640538 76.886319 
L 41.749256 77.392103 
L 41.912333 76.942275 
L 41.966692 77.081735 
L 42.129769 77.892241 
L 42.184128 77.825152 
L 42.238486 77.485186 
L 42.292845 77.908164 
L 42.401563 77.305275 
L 42.455922 77.664087 
L 42.510281 77.411202 
L 42.56464 77.596192 
L 42.618999 77.49397 
L 42.727717 76.862966 
L 42.836435 77.972244 
L 42.945153 77.268865 
L 43.05387 77.791743 
L 43.108229 77.714119 
L 43.271306 76.993069 
L 43.380024 77.447156 
L 43.434383 77.173348 
L 43.488742 77.464705 
L 43.543101 77.298178 
L 43.59746 77.477024 
L 43.651819 77.580452 
L 43.814895 77.106872 
L 43.923613 77.66077 
L 43.977972 77.191009 
L 44.032331 77.934729 
L 44.08669 77.572333 
L 44.249767 77.380274 
L 44.304126 78.005233 
L 44.358485 77.233433 
L 44.412844 77.371342 
L 44.467203 78.084483 
L 44.521561 77.266012 
L 44.57592 77.622374 
L 44.630279 77.582258 
L 44.684638 77.374427 
L 44.738997 77.856626 
L 44.793356 77.54102 
L 44.847715 77.701719 
L 44.902074 77.616998 
L 45.010792 77.348972 
L 45.065151 77.811214 
L 45.11951 77.463472 
L 45.228228 77.521458 
L 45.282586 77.386053 
L 45.336945 77.637871 
L 45.445663 76.837236 
L 45.500022 77.698778 
L 45.554381 76.966405 
L 45.771817 78.261277 
L 45.934894 77.226416 
L 45.989253 77.399401 
L 46.043611 77.28463 
L 46.09797 77.038326 
L 46.152329 77.27619 
L 46.206688 77.182756 
L 46.315406 77.777438 
L 46.424124 77.75204 
L 46.478483 77.164633 
L 46.532842 77.298289 
L 46.587201 77.279735 
L 46.695919 77.636567 
L 46.750278 77.443535 
L 46.804636 76.613409 
L 46.858995 77.137849 
L 46.913354 77.64719 
L 46.967713 76.756306 
L 47.022072 77.546023 
L 47.076431 77.772391 
L 47.13079 77.746908 
L 47.239508 77.294826 
L 47.293867 77.947271 
L 47.348226 77.733816 
L 47.402585 77.813248 
L 47.62002 77.083622 
L 47.674379 77.927244 
L 47.728738 77.316834 
L 47.783097 77.858971 
L 47.837456 77.345219 
L 48.000533 77.490775 
L 48.054892 77.479794 
L 48.109251 76.567806 
L 48.16361 77.149289 
L 48.272328 78.451574 
L 48.326687 77.319372 
L 48.381045 77.64645 
L 48.435404 77.377892 
L 48.489763 77.551592 
L 48.65284 77.79174 
L 48.707199 77.433671 
L 48.761558 77.77833 
L 48.870276 76.982306 
L 48.924635 77.902914 
L 48.978994 77.397541 
L 49.033353 77.321067 
L 49.087712 77.649421 
L 49.14207 77.346222 
L 49.196429 77.164666 
L 49.250788 77.436902 
L 49.305147 77.207085 
L 49.413865 77.760666 
L 49.468224 77.205188 
L 49.522583 77.546992 
L 49.631301 78.04914 
L 49.740019 76.704343 
L 49.794378 76.860918 
L 49.903095 77.802043 
L 49.957454 77.232989 
L 50.011813 76.789055 
L 50.066172 77.922221 
L 50.17489 77.876371 
L 50.283608 77.0102 
L 50.337967 77.706561 
L 50.392326 77.363408 
L 50.501044 76.967644 
L 50.555403 77.563288 
L 50.609762 77.021363 
L 50.66412 77.351471 
L 50.718479 78.594564 
L 50.772838 76.909334 
L 50.827197 77.134975 
L 50.881556 77.76939 
L 50.935915 76.665099 
L 50.990274 77.188008 
L 51.044633 78.135541 
L 51.098992 78.073305 
L 51.20771 77.697655 
L 51.262069 77.049381 
L 51.316428 77.316109 
L 51.370787 77.222877 
L 51.479504 77.965163 
L 51.533863 76.964947 
L 51.588222 77.006846 
L 51.69694 77.727588 
L 51.751299 77.653281 
L 51.805658 77.695301 
L 51.860017 77.152445 
L 52.023094 78.331798 
L 52.18617 77.279595 
L 52.240529 77.444534 
L 52.349247 77.003034 
L 52.403606 78.171909 
L 52.457965 77.775849 
L 52.566683 76.755184 
L 52.72976 78.350611 
L 52.784119 77.107992 
L 52.838478 77.186462 
L 52.947195 77.90638 
L 53.001554 77.392352 
L 53.055913 77.653457 
L 53.110272 77.564232 
L 53.164631 77.752849 
L 53.21899 77.386697 
L 53.273349 77.867837 
L 53.327708 77.523462 
L 53.436426 77.190347 
L 53.599503 77.706435 
L 53.70822 77.391228 
L 53.816938 78.091235 
L 53.980015 77.423837 
L 54.088733 78.216721 
L 54.143092 77.583097 
L 54.197451 77.961655 
L 54.25181 78.267221 
L 54.414887 76.83874 
L 54.469245 77.16949 
L 54.523604 76.689017 
L 54.686681 78.23478 
L 54.74104 77.493621 
L 54.795399 77.701227 
L 54.849758 78.191849 
L 54.904117 77.34065 
L 54.958476 78.243806 
L 55.012835 78.028839 
L 55.121553 77.047622 
L 55.175912 77.218911 
L 55.23027 77.958853 
L 55.284629 76.537574 
L 55.338988 78.168337 
L 55.393347 78.044692 
L 55.556424 76.564297 
L 55.719501 78.147687 
L 55.828219 77.017731 
L 55.882578 77.518243 
L 55.936937 77.433596 
L 55.991295 77.313691 
L 56.045654 77.461006 
L 56.100013 77.523603 
L 56.208731 76.971649 
L 56.371808 77.65039 
L 56.426167 76.767697 
L 56.480526 77.438756 
L 56.534885 77.049368 
L 56.589244 78.526157 
L 56.643603 77.351291 
L 56.697962 77.945558 
L 56.75232 77.761471 
L 56.806679 77.016146 
L 56.861038 77.554877 
L 56.915397 77.058365 
L 57.024115 77.794119 
L 57.187192 77.288566 
L 57.404628 78.416066 
L 57.458987 77.40351 
L 57.513345 78.007584 
L 57.567704 78.009408 
L 57.78514 76.955777 
L 57.839499 78.282412 
L 57.893858 77.177966 
L 57.948217 76.935311 
L 58.056935 77.998755 
L 58.165653 77.184379 
L 58.220012 77.611215 
L 58.27437 77.199459 
L 58.328729 77.45983 
L 58.383088 77.221827 
L 58.437447 77.035443 
L 58.600524 78.202391 
L 58.763601 77.682478 
L 58.81796 77.970489 
L 58.872319 76.642329 
L 58.926678 78.062694 
L 58.981037 77.670792 
L 59.035395 77.62444 
L 59.198472 76.514422 
L 59.415908 78.393471 
L 59.470267 77.887409 
L 59.524626 78.178283 
L 59.578985 78.863874 
L 59.742062 77.362462 
L 59.79642 77.976266 
L 59.850779 77.118523 
L 59.905138 77.745267 
L 59.959497 77.301973 
L 60.013856 78.586852 
L 60.068215 77.552767 
L 60.122574 77.040763 
L 60.176933 77.712424 
L 60.231292 75.917039 
L 60.285651 77.273688 
L 60.34001 76.180197 
L 60.394369 77.164228 
L 60.448728 77.724496 
L 60.503087 77.649111 
L 60.557445 76.51278 
L 60.611804 78.883812 
L 60.666163 77.304964 
L 60.720522 77.163091 
L 60.937958 78.125359 
L 60.992317 76.683689 
L 61.046676 77.382484 
L 61.101035 78.026728 
L 61.155394 77.695203 
L 61.209753 76.804659 
L 61.264112 78.225385 
L 61.31847 76.58936 
L 61.372829 77.513797 
L 61.427188 78.360901 
L 61.481547 77.903666 
L 61.590265 77.607118 
L 61.644624 77.675137 
L 61.698983 76.644883 
L 61.753342 77.600393 
L 61.807701 78.117189 
L 61.86206 78.006231 
L 61.916419 77.754977 
L 61.970778 76.484828 
L 62.025137 78.12592 
L 62.079495 77.090791 
L 62.133854 76.43021 
L 62.242572 77.570531 
L 62.35129 77.21017 
L 62.405649 77.400668 
L 62.460008 78.181978 
L 62.514367 77.878658 
L 62.568726 76.763748 
L 62.623085 77.541954 
L 62.731803 77.952105 
L 62.894879 77.121594 
L 62.949238 77.840323 
L 63.003597 76.025878 
L 63.057956 77.02345 
L 63.221033 79.034576 
L 63.275392 76.350784 
L 63.329751 77.189662 
L 63.38411 77.972339 
L 63.438469 77.820262 
L 63.492828 76.633747 
L 63.547187 77.706574 
L 63.601545 78.40765 
L 63.655904 76.642148 
L 63.710263 77.986346 
L 63.764622 78.320608 
L 63.87334 77.607879 
L 63.927699 77.805612 
L 63.982058 76.385282 
L 64.036417 77.587308 
L 64.090776 77.738156 
L 64.199494 77.286402 
L 64.253853 77.432119 
L 64.308212 77.804766 
L 64.362571 77.632374 
L 64.471288 77.104461 
L 64.580006 78.240503 
L 64.688724 76.784751 
L 64.743083 77.944538 
L 64.797442 77.441258 
L 64.851801 77.354936 
L 64.90616 78.497837 
L 64.960519 78.46267 
L 65.014878 78.191653 
L 65.069237 77.344517 
L 65.177954 78.855315 
L 65.286672 76.26475 
L 65.341031 77.224816 
L 65.39539 77.340559 
L 65.504108 78.949372 
L 65.558467 76.560878 
L 65.612826 79.037527 
L 65.667185 76.582333 
L 65.830262 78.556426 
L 65.993338 76.636175 
L 66.047697 77.073647 
L 66.102056 79.06964 
L 66.156415 78.415974 
L 66.265133 78.448808 
L 66.319492 76.610438 
L 66.373851 77.874456 
L 66.42821 76.97034 
L 66.482569 77.072881 
L 66.591287 78.787802 
L 66.645646 76.576567 
L 66.700004 77.93146 
L 66.754363 77.927032 
L 66.863081 76.966552 
L 66.91744 77.244099 
L 67.026158 78.842372 
L 67.080517 78.178212 
L 67.134876 76.14863 
L 67.189235 77.087314 
L 67.243594 76.364696 
L 67.297953 76.695282 
L 67.461029 79.240624 
L 67.624106 77.244139 
L 67.678465 77.504631 
L 67.732824 77.289511 
L 67.787183 76.929156 
L 67.841542 77.856228 
L 67.895901 76.758152 
L 67.95026 78.62727 
L 68.004619 78.402322 
L 68.058978 77.288159 
L 68.113337 79.092992 
L 68.167696 77.763195 
L 68.276413 78.566819 
L 68.330772 78.315853 
L 68.493849 75.585915 
L 68.548208 78.244964 
L 68.602567 76.376676 
L 68.765644 78.110044 
L 68.874362 77.659571 
L 68.928721 78.272478 
L 68.983079 77.985927 
L 69.037438 77.908357 
L 69.091797 76.015122 
L 69.146156 77.957864 
L 69.200515 76.543559 
L 69.254874 78.252335 
L 69.309233 77.681955 
L 69.417951 77.194732 
L 69.47231 76.197127 
L 69.526669 78.79334 
L 69.581028 78.61787 
L 69.635387 77.409943 
L 69.689746 77.660384 
L 69.907181 77.359106 
L 69.96154 77.667689 
L 70.015899 76.791705 
L 70.124617 78.32842 
L 70.178976 77.999053 
L 70.233335 77.566353 
L 70.287694 78.03789 
L 70.342053 75.720805 
L 70.396412 77.752808 
L 70.450771 77.276212 
L 70.505129 78.440904 
L 70.559488 76.314005 
L 70.613847 76.787212 
L 70.722565 77.099232 
L 70.776924 79.507329 
L 70.831283 77.758391 
L 70.940001 79.309906 
L 70.99436 76.814894 
L 71.048719 77.338298 
L 71.103078 78.009484 
L 71.157437 76.577241 
L 71.211796 77.437281 
L 71.266154 77.601927 
L 71.320513 78.338449 
L 71.48359 76.192546 
L 71.592308 77.541201 
L 71.646667 76.002918 
L 71.701026 77.325523 
L 71.809744 78.090006 
L 71.918462 77.14833 
L 71.972821 77.767818 
L 72.027179 76.219318 
L 72.081538 78.360818 
L 72.135897 76.672015 
L 72.298974 77.955942 
L 72.353333 75.418065 
L 72.407692 76.497726 
L 72.462051 75.615073 
L 72.51641 78.452949 
L 72.570769 77.340886 
L 72.679487 78.355892 
L 72.733846 75.628039 
L 72.788204 78.170072 
L 72.896922 77.574092 
L 72.951281 78.839303 
L 73.00564 77.853479 
L 73.059999 75.439815 
L 73.114358 77.041902 
L 73.277435 78.219098 
L 73.440512 76.74104 
L 73.494871 77.929963 
L 73.549229 77.428899 
L 73.657947 76.231767 
L 73.712306 76.27166 
L 73.766665 78.354187 
L 73.821024 77.414499 
L 73.875383 76.625648 
L 73.929742 77.703605 
L 73.984101 76.236541 
L 74.03846 77.66849 
L 74.092819 76.859095 
L 74.255896 78.23493 
L 74.310254 78.604793 
L 74.418972 76.351308 
L 74.582049 78.080664 
L 74.636408 76.115705 
L 74.690767 77.961884 
L 74.745126 78.791032 
L 74.799485 78.257109 
L 74.908203 77.088792 
L 74.962562 77.434748 
L 75.016921 77.419078 
L 75.125638 78.442554 
L 75.234356 77.022396 
L 75.343074 78.770878 
L 75.451792 77.174876 
L 75.506151 77.967151 
L 75.56051 77.319745 
L 75.614869 77.333888 
L 75.777946 76.352076 
L 75.886663 77.564262 
L 75.995381 76.316998 
L 76.158458 79.102846 
L 76.212817 76.595746 
L 76.267176 80.09504 
L 76.321535 78.029814 
L 76.375894 78.609161 
L 76.430253 78.272383 
L 76.484612 76.749569 
L 76.593329 79.11465 
L 76.702047 77.117093 
L 76.810765 77.609748 
L 76.865124 77.032382 
L 77.08256 78.679085 
L 77.245637 76.24877 
L 77.299996 77.322445 
L 77.354354 77.231092 
L 77.408713 76.630197 
L 77.463072 77.180993 
L 77.517431 78.105415 
L 77.57179 76.702584 
L 77.626149 76.807419 
L 77.680508 77.719786 
L 77.734867 76.407521 
L 77.789226 77.178657 
L 77.897944 79.128839 
L 78.006662 76.556212 
L 78.115379 78.374323 
L 78.169738 78.020258 
L 78.224097 76.367274 
L 78.278456 76.783853 
L 78.387174 78.364058 
L 78.441533 78.213277 
L 78.495892 77.93301 
L 78.550251 76.674556 
L 78.60461 79.927156 
L 78.658969 78.565288 
L 78.713328 79.213499 
L 78.767687 78.573104 
L 78.876404 76.557547 
L 78.930763 79.03484 
L 78.985122 78.360838 
L 79.039481 77.000659 
L 79.09384 77.658617 
L 79.148199 77.415462 
L 79.202558 75.754857 
L 79.256917 76.934826 
L 79.311276 77.880403 
L 79.365635 76.708944 
L 79.419994 76.795276 
L 79.474353 77.651553 
L 79.528712 75.414296 
L 79.583071 77.688528 
L 79.637429 76.94898 
L 79.691788 77.678526 
L 79.746147 77.137098 
L 79.800506 78.463687 
L 79.854865 76.083345 
L 79.909224 78.382677 
L 79.963583 77.673199 
L 80.017942 77.955495 
L 80.072301 77.892822 
L 80.235378 76.803562 
L 80.344096 78.426697 
L 80.452813 75.153711 
L 80.507172 76.092674 
L 80.670249 78.09916 
L 80.724608 75.688397 
L 80.778967 76.842855 
L 80.833326 78.634595 
L 80.887685 77.269626 
L 80.942044 77.696697 
L 80.996403 77.611953 
L 81.050762 76.345494 
L 81.105121 77.818408 
L 81.15948 77.039899 
L 81.213838 75.400197 
L 81.268197 76.593023 
L 81.322556 76.366141 
L 81.539992 79.498831 
L 81.703069 76.315543 
L 81.757428 79.763922 
L 81.811787 75.295702 
L 81.866146 76.04991 
L 81.974863 78.64726 
L 82.029222 75.363504 
L 82.083581 77.485949 
L 82.13794 77.950087 
L 82.192299 75.607101 
L 82.246658 78.353055 
L 82.301017 75.766445 
L 82.409735 78.064656 
L 82.464094 76.741177 
L 82.518453 79.614438 
L 82.572812 77.642968 
L 82.627171 79.060027 
L 82.68153 75.435004 
L 82.735888 79.084993 
L 82.790247 77.081604 
L 82.844606 79.311047 
L 82.898965 76.08127 
L 82.953324 80.851003 
L 83.007683 78.176256 
L 83.062042 77.133256 
L 83.225119 78.555619 
L 83.279478 77.371878 
L 83.333837 79.212956 
L 83.388196 77.904373 
L 83.442555 76.579584 
L 83.496913 76.742056 
L 83.714349 77.947321 
L 83.768708 77.330367 
L 83.877426 78.920232 
L 84.040503 76.397458 
L 84.094862 78.352576 
L 84.149221 78.150999 
L 84.312297 75.218911 
L 84.475374 79.405811 
L 84.584092 76.317631 
L 84.638451 76.364002 
L 84.69281 78.00346 
L 84.747169 76.884278 
L 84.801528 76.827568 
L 84.855887 78.716147 
L 84.910246 77.10596 
L 84.964605 76.77368 
L 85.018963 78.388969 
L 85.073322 75.303407 
L 85.127681 77.702031 
L 85.236399 76.286911 
L 85.345117 78.710533 
L 85.399476 78.395519 
L 85.508194 77.439184 
L 85.562553 79.842642 
L 85.616912 77.426261 
L 85.671271 77.433368 
L 85.834347 75.977266 
L 85.943065 78.356723 
L 86.051783 74.977463 
L 86.106142 78.31853 
L 86.160501 77.605311 
L 86.21486 75.852885 
L 86.269219 77.082491 
L 86.323578 79.420158 
L 86.377937 77.201319 
L 86.432296 77.413 
L 86.486655 78.543107 
L 86.541013 75.122486 
L 86.595372 78.321905 
L 86.649731 76.571856 
L 86.70409 76.62381 
L 86.867167 77.7043 
L 86.921526 78.604935 
L 86.975885 77.680496 
L 87.030244 77.903695 
L 87.193321 76.202701 
L 87.24768 75.971607 
L 87.410756 78.01376 
L 87.465115 77.104452 
L 87.519474 77.455237 
L 87.573833 80.019781 
L 87.628192 77.632611 
L 87.682551 77.405328 
L 87.73691 76.54177 
L 87.791269 79.806775 
L 87.845628 79.502799 
L 88.063063 76.413144 
L 88.117422 76.681763 
L 88.171781 78.072801 
L 88.22614 77.975337 
L 88.280499 76.336836 
L 88.334858 78.31994 
L 88.389217 76.965797 
L 88.443576 75.097031 
L 88.552294 77.468024 
L 88.606653 74.592871 
L 88.661012 79.270151 
L 88.715371 78.383749 
L 88.76973 78.725459 
L 88.824088 75.874251 
L 88.878447 75.878843 
L 88.932806 78.258462 
L 88.987165 76.935636 
L 89.041524 76.857205 
L 89.095883 75.564312 
L 89.150242 79.52814 
L 89.204601 77.238248 
L 89.313319 78.167339 
L 89.422037 76.406473 
L 89.476396 78.222871 
L 89.530755 76.065481 
L 89.585113 79.922145 
L 89.639472 74.99397 
L 89.693831 76.060088 
L 89.74819 78.416867 
L 89.802549 76.48113 
L 89.911267 80.032047 
L 89.965626 79.494317 
L 90.128703 76.967713 
L 90.183062 79.144942 
L 90.237421 77.657658 
L 90.29178 77.480036 
L 90.346138 75.930176 
L 90.400497 77.198838 
L 90.454856 76.645028 
L 90.509215 78.821122 
L 90.563574 77.595068 
L 90.617933 77.879403 
L 90.672292 79.963746 
L 90.78101 76.471063 
L 90.889728 80.088113 
L 90.998446 76.513183 
L 91.107163 77.864889 
L 91.161522 77.489479 
L 91.215881 78.031051 
L 91.27024 76.230525 
L 91.324599 78.715263 
L 91.378958 77.92878 
L 91.487676 77.092583 
L 91.542035 78.693959 
L 91.596394 78.331416 
L 91.650753 78.356213 
L 91.705112 77.252092 
L 91.759471 78.17736 
L 91.81383 77.661348 
L 91.868188 75.142599 
L 91.922547 78.983408 
L 91.976906 77.010448 
L 92.139983 77.777443 
L 92.248701 74.735538 
L 92.30306 76.541215 
L 92.411778 78.438451 
L 92.466137 75.15428 
L 92.520496 76.402169 
L 92.574855 78.333313 
L 92.629213 77.696009 
L 92.683572 76.845801 
L 92.737931 79.510552 
L 92.79229 76.573126 
L 92.846649 77.150157 
L 92.901008 78.211056 
L 92.955367 77.771533 
L 93.009726 76.668123 
L 93.064085 77.02888 
L 93.227162 79.087259 
L 93.281521 78.563321 
L 93.390238 76.414794 
L 93.444597 77.307337 
L 93.498956 77.036432 
L 93.607674 79.92483 
L 93.662033 79.829175 
L 93.82511 76.509865 
L 93.933828 76.915983 
L 93.988187 78.755 
L 94.042546 78.584411 
L 94.096905 77.878428 
L 94.151263 73.893398 
L 94.205622 78.675857 
L 94.259981 76.750974 
L 94.31434 75.583918 
L 94.368699 77.905818 
L 94.477417 77.88626 
L 94.640494 74.861534 
L 94.85793 78.253996 
L 94.912288 77.934116 
L 95.075365 79.068779 
L 95.129724 76.597601 
L 95.184083 79.469598 
L 95.238442 77.061639 
L 95.292801 75.678803 
L 95.34716 80.691706 
L 95.401519 77.488929 
L 95.455878 77.965254 
L 95.510237 74.598173 
L 95.564596 76.253086 
L 95.673313 77.984053 
L 95.83639 76.34951 
L 95.945108 79.362072 
L 96.162544 74.686971 
L 96.216903 79.487869 
L 96.271262 77.661782 
L 96.325621 77.062237 
L 96.488697 79.910312 
L 96.543056 76.345346 
L 96.597415 77.337748 
L 96.651774 79.560194 
L 96.814851 76.457286 
L 96.86921 77.597704 
L 96.923569 77.091396 
L 96.977928 76.938093 
L 97.032287 77.45564 
L 97.086646 79.212894 
L 97.141005 76.712045 
L 97.195364 77.486913 
L 97.249722 78.451958 
L 97.35844 76.140764 
L 97.467158 77.377109 
L 97.521517 76.303431 
L 97.575876 78.557135 
L 97.630235 77.848127 
L 97.738953 76.08936 
L 97.793312 77.00156 
L 97.847671 76.877128 
L 97.90203 75.589553 
L 97.956389 76.599235 
L 98.010747 79.269909 
L 98.065106 76.499807 
L 98.119465 75.855796 
L 98.228183 79.176226 
L 98.336901 77.589212 
L 98.39126 80.306551 
L 98.445619 77.590514 
L 98.499978 79.363875 
L 98.554337 79.161105 
L 98.663055 78.051299 
L 98.826131 75.531082 
L 98.88049 75.394429 
L 98.989208 79.636131 
L 99.043567 76.271231 
L 99.152285 76.342466 
L 99.206644 79.725374 
L 99.261003 79.458319 
L 99.369721 75.811465 
L 99.42408 78.382244 
L 99.478439 77.164399 
L 99.587156 78.443737 
L 99.641515 77.6936 
L 99.695874 79.120164 
L 99.858951 77.053979 
L 99.91331 79.700295 
L 99.967669 79.361155 
L 100.130746 76.22708 
L 100.239464 78.427874 
L 100.293822 77.036681 
L 100.348181 79.406047 
L 100.40254 78.549998 
L 100.456899 76.69801 
L 100.511258 79.231479 
L 100.565617 74.615301 
L 100.619976 79.219308 
L 100.728694 78.859443 
L 100.783053 76.164497 
L 100.837412 77.628209 
L 100.891771 78.353671 
L 100.94613 76.641468 
L 101.000489 77.207193 
L 101.217924 75.914582 
L 101.272283 79.998206 
L 101.326642 76.840079 
L 101.381001 77.123661 
L 101.43536 76.53305 
L 101.544078 80.521798 
L 101.761514 76.546245 
L 101.815872 76.749957 
L 101.870231 79.41818 
L 101.92459 78.471304 
L 101.978949 77.737987 
L 102.033308 78.938023 
L 102.087667 78.024643 
L 102.142026 77.972714 
L 102.196385 78.931265 
L 102.250744 77.687414 
L 102.305103 78.193263 
L 102.359462 78.958329 
L 102.413821 76.510587 
L 102.46818 77.672314 
L 102.576897 77.97877 
L 102.685615 76.099585 
L 102.794333 78.164585 
L 102.848692 77.596428 
L 102.95741 76.571486 
L 103.011769 81.051187 
L 103.066128 77.810821 
L 103.120487 78.040715 
L 103.174846 76.838117 
L 103.229205 77.78135 
L 103.283564 77.096063 
L 103.337922 77.249618 
L 103.392281 77.500984 
L 103.44664 75.668431 
L 103.609717 77.904415 
L 103.664076 78.083763 
L 103.718435 78.728269 
L 103.772794 76.778422 
L 103.827153 76.887963 
L 103.881512 79.259711 
L 103.935871 78.247886 
L 104.098947 76.670358 
L 104.153306 78.169499 
L 104.207665 77.00747 
L 104.262024 75.014152 
L 104.425101 78.152982 
L 104.47946 78.600738 
L 104.642537 75.680712 
L 104.696896 75.707654 
L 104.751255 78.984688 
L 104.805614 76.993432 
L 104.859972 76.467114 
L 104.914331 77.973295 
L 104.96869 76.759478 
L 105.131767 78.879665 
L 105.186126 77.698059 
L 105.240485 79.812636 
L 105.294844 77.813127 
L 105.349203 77.902684 
L 105.51228 76.103721 
L 105.566639 79.51217 
L 105.620997 76.063756 
L 105.675356 76.279702 
L 105.838433 80.110617 
L 105.892792 74.430999 
L 105.947151 76.498486 
L 106.00151 78.02227 
L 106.055869 76.586948 
L 106.110228 77.591758 
L 106.164587 76.832358 
L 106.273305 78.096053 
L 106.327664 75.640676 
L 106.382022 80.37937 
L 106.436381 76.316315 
L 106.49074 79.048054 
L 106.545099 76.673962 
L 106.599458 77.715284 
L 106.653817 77.699552 
L 106.708176 77.588486 
L 106.762535 77.813953 
L 106.816894 76.959072 
L 106.925612 78.679994 
L 106.979971 77.259805 
L 107.088689 77.274657 
L 107.143047 78.969377 
L 107.197406 77.58991 
L 107.251765 78.278962 
L 107.414842 76.607673 
L 107.577919 74.515999 
L 107.632278 78.235953 
L 107.686637 76.627705 
L 107.958431 78.637744 
L 108.01279 74.292005 
L 108.067149 77.007302 
L 108.121508 76.18914 
L 108.284585 78.669114 
L 108.338944 78.815068 
L 108.393303 77.394103 
L 108.447662 78.791966 
L 108.502021 78.191978 
L 108.55638 79.23111 
L 108.610739 76.509882 
L 108.665097 78.295639 
L 108.719456 77.972985 
L 108.773815 75.638166 
L 108.828174 77.887433 
L 108.882533 76.822665 
L 108.936892 78.00255 
L 109.099969 74.283548 
L 109.154328 78.638136 
L 109.208687 78.286206 
L 109.371764 76.991846 
L 109.426122 78.726566 
L 109.480481 77.879019 
L 109.53484 78.276622 
L 109.752276 76.7087 
L 109.860994 77.596754 
L 109.915353 74.820687 
L 109.969712 76.979399 
L 110.07843 79.407306 
L 110.241506 76.511221 
L 110.295865 77.763293 
L 110.350224 77.197662 
L 110.404583 77.315354 
L 110.458942 75.294175 
L 110.513301 79.113977 
L 110.56766 78.932912 
L 110.622019 76.710788 
L 110.676378 77.534716 
L 110.730737 79.168165 
L 110.893814 76.457856 
L 110.948172 79.058286 
L 111.002531 77.19715 
L 111.05689 78.848304 
L 111.165608 76.026702 
L 111.219967 76.157941 
L 111.274326 77.653472 
L 111.328685 76.47724 
L 111.546121 80.090793 
L 111.709197 76.545881 
L 111.872274 79.417708 
L 111.926633 76.06338 
L 111.980992 79.099971 
L 112.035351 77.356452 
L 112.08971 79.748371 
L 112.144069 76.687378 
L 112.198428 77.086489 
L 112.252787 77.285767 
L 112.361505 78.643722 
L 112.524581 75.916623 
L 112.687658 79.139658 
L 112.796376 76.758066 
L 112.850735 77.910219 
L 112.905094 77.547564 
L 112.959453 77.767407 
L 113.013812 77.053456 
L 113.068171 77.535414 
L 113.12253 77.548262 
L 113.176889 77.830591 
L 113.285606 76.473725 
L 113.503042 78.418806 
L 113.557401 75.259091 
L 113.61176 76.985785 
L 113.666119 77.010967 
L 113.829196 78.589196 
L 113.883555 76.612865 
L 113.937914 76.637838 
L 114.046631 78.815027 
L 114.10099 77.105726 
L 114.155349 77.382484 
L 114.209708 77.68375 
L 114.264067 76.538332 
L 114.318426 79.047909 
L 114.372785 76.622674 
L 114.481503 77.611695 
L 114.535862 76.786989 
L 114.698939 78.722386 
L 114.807656 76.769515 
L 114.916374 78.282513 
L 115.079451 75.943523 
L 115.13381 78.928866 
L 115.188169 77.269752 
L 115.242528 76.215652 
L 115.296887 77.894681 
L 115.351246 76.123438 
L 115.405605 76.739682 
L 115.459964 76.963662 
L 115.514323 78.614276 
L 115.568681 77.806294 
L 115.62304 76.204064 
L 115.677399 77.804779 
L 115.731758 76.946519 
L 115.786117 77.878486 
L 115.840476 77.627259 
L 115.894835 77.357303 
L 115.949194 80.043192 
L 116.003553 76.902399 
L 116.057912 77.204749 
L 116.112271 77.63917 
L 116.275348 77.060773 
L 116.384065 77.442019 
L 116.492783 76.79889 
L 116.601501 78.744234 
L 116.764578 77.331291 
L 116.927655 78.296645 
L 117.036373 76.477642 
L 117.090731 77.279247 
L 117.14509 76.612865 
L 117.199449 78.244292 
L 117.253808 77.775433 
L 117.308167 77.519325 
L 117.362526 78.238909 
L 117.416885 76.824389 
L 117.471244 78.172185 
L 117.525603 77.91861 
L 117.579962 76.959932 
L 117.634321 77.500222 
L 117.68868 77.577376 
L 117.743039 76.731714 
L 117.851756 78.520813 
L 117.906115 75.950348 
L 117.960474 78.467381 
L 118.014833 78.120926 
L 118.069192 76.690381 
L 118.123551 77.922278 
L 118.17791 78.693306 
L 118.232269 76.77416 
L 118.286628 77.782255 
L 118.340987 77.76399 
L 118.395346 78.048083 
L 118.449705 77.660253 
L 118.504064 77.889615 
L 118.558423 79.101881 
L 118.721499 76.948045 
L 118.775858 78.089457 
L 118.830217 77.564733 
L 118.938935 75.801485 
L 118.993294 76.928309 
L 119.047653 78.739378 
L 119.102012 77.645585 
L 119.156371 77.836855 
L 119.265089 76.602754 
L 119.319448 77.328074 
L 119.373806 77.399376 
L 119.482524 77.837364 
L 119.536883 77.052327 
L 119.591242 77.430186 
L 119.69996 76.59004 
L 119.754319 76.760286 
L 119.808678 78.185053 
L 119.863037 76.489405 
L 119.917396 77.226476 
L 120.080473 78.756247 
L 120.026114 77.215283 
L 120.134831 78.706578 
L 120.18919 78.655028 
L 120.243549 78.18122 
L 120.297908 78.829244 
L 120.352267 76.981743 
L 120.406626 77.820971 
L 120.460985 77.868356 
L 120.515344 77.21244 
L 120.569703 78.727055 
L 120.624062 76.968534 
L 120.73278 76.981052 
L 120.787139 78.156393 
L 120.841498 77.622516 
L 120.895856 77.657913 
L 120.950215 76.88977 
L 121.113292 77.984646 
L 121.167651 76.528081 
L 121.22201 77.443751 
L 121.276369 77.422231 
L 121.330728 78.500728 
L 121.385087 77.864226 
L 121.439446 78.412123 
L 121.493805 76.808394 
L 121.548164 77.391397 
L 121.602523 77.099633 
L 121.656881 77.619389 
L 121.765599 77.016046 
L 121.874317 78.004273 
L 121.928676 77.122363 
L 121.983035 78.057294 
L 122.037394 77.781455 
L 122.091753 76.879287 
L 122.146112 78.306188 
L 122.200471 77.303939 
L 122.25483 77.165978 
L 122.363548 78.216867 
L 122.417906 77.532307 
L 122.526624 77.636283 
L 122.689701 77.214888 
L 122.74406 77.867681 
L 122.798419 77.418101 
L 122.852778 77.271332 
L 122.961496 78.059803 
L 123.124573 77.617804 
L 123.178931 78.077866 
L 123.23329 77.552447 
L 123.287649 77.712336 
L 123.396367 77.869341 
L 123.450726 77.366208 
L 123.505085 77.710996 
L 123.559444 77.698465 
L 123.613803 78.070944 
L 123.722521 77.208802 
L 123.77688 77.645274 
L 123.831239 77.347345 
L 123.885598 76.644348 
L 123.939956 77.763282 
L 123.994315 77.222624 
L 124.211751 77.54611 
L 124.320469 77.273944 
L 124.374828 77.329047 
L 124.429187 77.341994 
L 124.483546 77.642402 
L 124.537905 77.534905 
L 124.700981 76.913857 
L 124.75534 77.689256 
L 124.809699 77.597002 
L 124.864058 77.553944 
L 124.918417 77.139833 
L 124.972776 77.843877 
L 125.027135 77.304616 
L 125.081494 77.450829 
L 125.135853 77.328888 
L 125.190212 77.377973 
L 125.244571 77.24611 
L 125.353289 77.526048 
L 125.407648 77.13703 
L 125.462006 77.174646 
L 125.570724 77.877171 
L 125.625083 77.457622 
L 125.679442 77.507237 
L 125.842519 77.217975 
L 125.896878 77.723907 
L 125.951237 77.608198 
L 126.114314 77.388805 
L 126.223031 77.422226 
L 126.27739 77.367311 
L 126.440467 77.604226 
L 126.494826 77.452175 
L 126.549185 77.553621 
L 126.603544 77.655346 
L 126.766621 77.376535 
L 126.82098 77.512745 
L 126.875339 77.302454 
L 126.929698 77.454301 
L 127.147133 77.509463 
L 127.201492 77.421926 
L 127.255851 77.480645 
L 127.636364 77.476433 
L 127.636364 77.476433 
" clip-path="url(#pb8d0dc6989)" style="fill: none; stroke: #8da0cb; stroke-width: 1.5; stroke-linecap: square"/>
   </g>
   <g id="patch_3">
    <path d="M 10.8 133.2 
L 10.8 10.8 
" style="fill: none; stroke: #000000; stroke-width: 0.8; stroke-linejoin: miter; stroke-linecap: square"/>
   </g>
   <g id="patch_4">
    <path d="M 133.2 133.2 
L 133.2 10.8 
" style="fill: none; stroke: #000000; stroke-width: 0.8; stroke-linejoin: miter; stroke-linecap: square"/>
   </g>
   <g id="patch_5">
    <path d="M 10.8 133.2 
L 133.2 133.2 
" style="fill: none; stroke: #000000; stroke-width: 0.8; stroke-linejoin: miter; stroke-linecap: square"/>
   </g>
   <g id="patch_6">
    <path d="M 10.8 10.8 
L 133.2 10.8 
" style="fill: none; stroke: #000000; stroke-width: 0.8; stroke-linejoin: miter; stroke-linecap: square"/>
   </g>
  </g>
 </g>
 <defs>
  <clipPath id="pb8d0dc6989">
   <rect x="10.8" y="10.8" width="122.4" height="122.4"/>
  </clipPath>
 </defs>
</svg>
