<?xml version="1.0" encoding="utf-8" standalone="no"?>
<!DOCTYPE svg PUBLIC "-//W3C//DTD SVG 1.1//EN"
  "http://www.w3.org/Graphics/SVG/1.1/DTD/svg11.dtd">
<svg xmlns:xlink="http://www.w3.org/1999/xlink" width="144pt" height="144pt" viewBox="0 0 144 144" xmlns="http://www.w3.org/2000/svg" version="1.1">
 <metadata>
  <rdf:RDF xmlns:dc="http://purl.org/dc/elements/1.1/" xmlns:cc="http://creativecommons.org/ns#" xmlns:rdf="http://www.w3.org/1999/02/22-rdf-syntax-ns#">
   <cc:Work>
    <dc:type rdf:resource="http://purl.org/dc/dcmitype/StillImage"/>
    <dc:date>2025-02-07T11:27:54.632568</dc:date>
    <dc:format>image/svg+xml</dc:format>
    <dc:creator>
     <cc:Agent>
      <dc:title>Matplotlib v3.8.0, https://matplotlib.org/</dc:title>
     </cc:Agent>
    </dc:creator>
   </cc:Work>
  </rdf:RDF>
 </metadata>
 <defs>
  <style type="text/css">*{stroke-linejoin: round; stroke-linecap: butt}</style>
 </defs>
 <g id="figure_1">
  <g id="patch_1">
   <path d="M 0 144 
L 144 144 
L 144 0 
L 0 0 
L 0 144 
z
" style="fill: none"/>
  </g>
  <g id="axes_1">
   <g id="patch_2">
    <path d="M 10.8 133.2 
L 133.2 133.2 
L 133.2 10.8 
L 10.8 10.8 
L 10.8 133.2 
z
" style="fill: none"/>
   </g>
   <g id="matplotlib.axis_1"/>
   <g id="matplotlib.axis_2"/>
   <g id="line2d_1">
    <path d="M 16.363636 71.51713 
L 16.798508 71.52534 
L 16.852867 71.63059 
L 16.907226 71.512601 
L 17.015944 71.461511 
L 17.233379 71.664199 
L 17.287738 71.36989 
L 17.342097 71.496442 
L 17.559533 71.655691 
L 17.613892 71.347694 
L 17.668251 71.405955 
L 17.831327 71.642256 
L 17.940045 71.406368 
L 17.994404 71.624004 
L 18.048763 71.606979 
L 18.103122 71.110949 
L 18.157481 71.662567 
L 18.21184 71.47693 
L 18.266199 71.383618 
L 18.320558 71.575953 
L 18.374917 71.402043 
L 18.592352 71.884173 
L 18.646711 71.452198 
L 18.70107 72.038672 
L 18.755429 71.471615 
L 18.809788 71.680811 
L 18.864147 71.619827 
L 18.972865 71.56672 
L 19.027224 71.888547 
L 19.190301 71.105209 
L 19.24466 71.836304 
L 19.299019 71.339752 
L 19.462095 72.107827 
L 19.570813 71.250864 
L 19.625172 71.542084 
L 19.679531 71.368852 
L 19.788249 71.518906 
L 19.951326 71.056528 
L 20.060044 71.397089 
L 20.114402 71.081653 
L 20.168761 71.326417 
L 20.22312 71.609212 
L 20.331838 71.147868 
L 20.386197 71.220591 
L 20.549274 71.768136 
L 20.603633 72.109736 
L 20.657992 70.734878 
L 20.712351 70.940921 
L 20.821069 71.974264 
L 20.875427 71.108006 
L 20.929786 71.224472 
L 20.984145 71.422043 
L 21.038504 71.123992 
L 21.092863 71.850653 
L 21.147222 71.618308 
L 21.201581 71.810108 
L 21.25594 71.280617 
L 21.310299 71.863645 
L 21.364658 71.631091 
L 21.527735 70.794822 
L 21.582094 72.197749 
L 21.636452 71.722009 
L 21.74517 72.21676 
L 21.908247 71.22645 
L 21.962606 71.969181 
L 22.016965 71.860719 
L 22.071324 71.822077 
L 22.125683 70.761403 
L 22.180042 72.08702 
L 22.234401 72.020518 
L 22.28876 71.97976 
L 22.343119 72.448551 
L 22.506195 71.124864 
L 22.614913 72.197459 
L 22.723631 71.513934 
L 22.77799 71.669441 
L 22.832349 72.448748 
L 22.886708 70.891382 
L 22.941067 71.350416 
L 22.995426 71.92871 
L 23.158502 71.09879 
L 23.26722 72.290146 
L 23.321579 70.938875 
L 23.375938 71.390476 
L 23.430297 71.559616 
L 23.484656 72.681537 
L 23.539015 71.720746 
L 23.593374 71.555607 
L 23.647733 70.266368 
L 23.702092 71.80228 
L 23.756451 71.506413 
L 23.919527 71.334589 
L 24.028245 72.166457 
L 24.191322 70.849691 
L 24.30004 72.152957 
L 24.354399 70.740854 
L 24.408758 72.719176 
L 24.463117 71.531181 
L 24.517476 72.006004 
L 24.571835 71.81443 
L 24.626194 70.009893 
L 24.78927 72.563751 
L 24.897988 71.029811 
L 24.952347 71.960988 
L 25.006706 70.94611 
L 25.115424 72.413497 
L 25.169783 70.279913 
L 25.224142 71.040994 
L 25.278501 71.152508 
L 25.33286 70.632572 
L 25.387219 71.179062 
L 25.495936 72.203824 
L 25.550295 69.628009 
L 25.604654 70.82574 
L 25.82209 72.026721 
L 25.876449 71.31647 
L 25.930808 71.824133 
L 25.985167 71.455267 
L 26.039526 72.323129 
L 26.093885 71.650735 
L 26.148244 72.052633 
L 26.202602 71.948094 
L 26.31132 70.865889 
L 26.365679 71.318735 
L 26.474397 71.616706 
L 26.528756 70.731073 
L 26.637474 72.7877 
L 26.691833 70.066248 
L 26.746192 71.422811 
L 26.800551 72.902778 
L 26.85491 71.399619 
L 26.909269 70.889587 
L 27.072345 72.268098 
L 27.126704 71.950948 
L 27.181063 70.598899 
L 27.235422 71.692245 
L 27.289781 72.900917 
L 27.34414 71.70016 
L 27.398499 70.921214 
L 27.452858 72.282606 
L 27.507217 71.426293 
L 27.561576 71.999878 
L 27.615935 71.428704 
L 27.670294 71.090233 
L 27.724652 72.155736 
L 27.779011 71.696729 
L 27.83337 70.764399 
L 27.887729 72.080396 
L 27.942088 71.152525 
L 27.996447 71.732001 
L 28.050806 70.911588 
L 28.105165 71.876196 
L 28.159524 71.138707 
L 28.213883 71.455807 
L 28.268242 72.97494 
L 28.322601 70.27438 
L 28.37696 72.778125 
L 28.485677 71.730486 
L 28.540036 71.790077 
L 28.594395 69.804494 
L 28.648754 70.949052 
L 28.703113 70.227075 
L 28.757472 71.663502 
L 28.811831 70.753088 
L 28.86619 71.153157 
L 28.920549 71.140032 
L 29.029267 70.797646 
L 29.083626 70.105956 
L 29.137985 71.185239 
L 29.192344 69.762184 
L 29.246702 72.077044 
L 29.301061 69.927782 
L 29.35542 69.625142 
L 29.518497 72.51512 
L 29.572856 70.601585 
L 29.627215 71.20337 
L 29.681574 71.354223 
L 29.735933 73.523123 
L 29.790292 70.370137 
L 29.844651 70.37577 
L 30.007727 72.295812 
L 30.116445 69.156305 
L 30.279522 72.488738 
L 30.333881 71.036188 
L 30.38824 72.105278 
L 30.442599 72.743816 
L 30.496958 71.797298 
L 30.551317 71.857794 
L 30.605676 71.892767 
L 30.660035 70.55732 
L 30.714394 71.911756 
L 30.768752 71.679021 
L 30.823111 70.517026 
L 30.87747 71.549529 
L 30.931829 74.571961 
L 30.986188 72.595212 
L 31.094906 70.275649 
L 31.149265 72.428016 
L 31.203624 71.749716 
L 31.257983 72.147556 
L 31.312342 71.543394 
L 31.366701 72.377381 
L 31.529778 69.802384 
L 31.747213 73.218464 
L 31.855931 71.545515 
L 31.91029 72.724982 
L 31.964649 71.279445 
L 32.019008 73.197799 
L 32.073367 73.138627 
L 32.127726 70.635441 
L 32.182085 71.676976 
L 32.236444 73.379698 
L 32.290803 72.544282 
L 32.345161 70.643624 
L 32.39952 72.169886 
L 32.562597 70.311068 
L 32.616956 72.114744 
L 32.671315 68.591373 
L 32.725674 71.42492 
L 32.780033 71.280335 
L 32.834392 71.565518 
L 32.888751 70.736915 
L 32.94311 72.498987 
L 33.051828 69.716245 
L 33.106186 71.911049 
L 33.160545 70.824314 
L 33.214904 70.663133 
L 33.269263 70.703548 
L 33.323622 69.782591 
L 33.43234 72.919519 
L 33.486699 72.771088 
L 33.649776 70.514052 
L 33.704135 70.791651 
L 33.867211 72.671343 
L 33.92157 73.352451 
L 33.975929 70.902922 
L 34.030288 71.44097 
L 34.193365 70.356414 
L 34.247724 73.469828 
L 34.302083 71.145423 
L 34.356442 71.403662 
L 34.410801 71.11476 
L 34.46516 72.778149 
L 34.519519 70.40368 
L 34.573878 72.22687 
L 34.628236 72.290148 
L 34.682595 71.790928 
L 34.791313 73.424439 
L 34.95439 70.436309 
L 35.063108 73.137183 
L 35.226185 70.129434 
L 35.334903 73.031996 
L 35.389261 70.636644 
L 35.44362 71.062263 
L 35.552338 71.325885 
L 35.606697 71.181398 
L 35.661056 71.460211 
L 35.715415 71.037535 
L 35.769774 72.630484 
L 35.824133 71.22437 
L 35.878492 72.169251 
L 35.932851 70.812424 
L 35.98721 72.668839 
L 36.095928 70.604005 
L 36.150286 70.939789 
L 36.204645 73.144187 
L 36.259004 72.031281 
L 36.313363 71.491706 
L 36.367722 72.858131 
L 36.530799 70.073709 
L 36.585158 73.196984 
L 36.639517 71.906989 
L 36.693876 69.437791 
L 36.748235 72.59972 
L 36.802594 71.164987 
L 36.856953 70.940952 
L 37.020029 73.016408 
L 37.074388 72.845116 
L 37.128747 71.359786 
L 37.183106 71.652147 
L 37.237465 73.243722 
L 37.291824 72.184059 
L 37.346183 70.717238 
L 37.400542 72.132387 
L 37.454901 70.936295 
L 37.50926 71.128271 
L 37.672336 72.681711 
L 37.889772 69.720217 
L 37.944131 72.179329 
L 37.99849 70.887728 
L 38.052849 70.002571 
L 38.161567 72.950882 
L 38.270285 68.948645 
L 38.324644 70.990156 
L 38.379003 70.925542 
L 38.433361 72.604436 
L 38.48772 71.523627 
L 38.542079 71.628164 
L 38.596438 71.489935 
L 38.650797 71.670258 
L 38.705156 72.529409 
L 38.759515 70.100159 
L 38.813874 71.077603 
L 38.868233 71.054462 
L 38.922592 71.280982 
L 38.976951 69.156072 
L 39.03131 70.23521 
L 39.085669 71.863585 
L 39.140028 70.199607 
L 39.248745 72.094876 
L 39.303104 71.240494 
L 39.357463 72.113375 
L 39.411822 69.712102 
L 39.466181 70.614618 
L 39.52054 72.044477 
L 39.574899 70.658734 
L 39.629258 70.095796 
L 39.846694 72.75992 
L 40.064129 70.306012 
L 40.172847 72.781163 
L 40.335924 70.980035 
L 40.390283 71.634118 
L 40.444642 70.331183 
L 40.607719 73.730112 
L 40.716436 72.564203 
L 40.770795 72.970718 
L 40.825154 72.485896 
L 40.933872 69.452612 
L 40.988231 72.153383 
L 41.04259 70.875475 
L 41.096949 70.816308 
L 41.151308 73.490253 
L 41.260026 70.003115 
L 41.423103 74.154609 
L 41.477461 73.988149 
L 41.586179 70.258043 
L 41.640538 72.182865 
L 41.694897 72.035535 
L 41.749256 70.936326 
L 41.857974 73.125421 
L 42.021051 70.918295 
L 42.07541 71.410766 
L 42.129769 70.706556 
L 42.238486 71.840567 
L 42.292845 70.026816 
L 42.347204 70.891471 
L 42.401563 74.218078 
L 42.455922 72.509962 
L 42.618999 70.12698 
L 42.673358 72.55565 
L 42.727717 70.690154 
L 42.836435 71.891925 
L 42.890794 69.593775 
L 42.945153 70.780611 
L 42.999511 70.684444 
L 43.05387 70.204091 
L 43.108229 73.390143 
L 43.162588 70.748604 
L 43.271306 73.685491 
L 43.543101 69.167892 
L 43.59746 73.234061 
L 43.651819 72.487158 
L 43.760536 69.20981 
L 43.814895 72.06716 
L 43.923613 72.049548 
L 43.977972 72.947895 
L 44.141049 70.247989 
L 44.358485 72.971693 
L 44.521561 70.25669 
L 44.57592 73.334693 
L 44.630279 71.307284 
L 44.684638 71.18847 
L 44.738997 71.98936 
L 44.793356 68.317191 
L 44.847715 72.695382 
L 44.902074 71.487939 
L 44.956433 69.750035 
L 45.010792 71.531518 
L 45.065151 71.240549 
L 45.11951 69.444298 
L 45.173869 71.709972 
L 45.228228 71.441306 
L 45.282586 71.217174 
L 45.336945 70.310425 
L 45.391304 72.571332 
L 45.445663 70.292319 
L 45.500022 72.42905 
L 45.554381 70.864305 
L 45.60874 72.015453 
L 45.663099 71.493029 
L 45.717458 70.98113 
L 45.771817 71.617862 
L 45.826176 69.810567 
L 45.880535 72.583275 
L 45.934894 69.773231 
L 45.989253 70.276051 
L 46.043611 73.200888 
L 46.09797 69.664326 
L 46.152329 73.365064 
L 46.206688 71.736059 
L 46.315406 73.282815 
L 46.369765 67.906567 
L 46.424124 71.978373 
L 46.478483 71.484218 
L 46.532842 73.180095 
L 46.695919 69.201075 
L 46.804636 72.226854 
L 46.858995 69.715067 
L 46.967713 73.705495 
L 47.022072 69.657774 
L 47.076431 71.290661 
L 47.13079 70.790612 
L 47.239508 72.727555 
L 47.293867 69.945194 
L 47.348226 70.368237 
L 47.402585 70.16049 
L 47.511303 73.192287 
L 47.565662 71.826954 
L 47.62002 74.485044 
L 47.783097 70.459775 
L 47.837456 70.891573 
L 47.891815 72.297165 
L 47.946174 70.599169 
L 48.000533 71.811594 
L 48.16361 69.793456 
L 48.217969 71.989908 
L 48.272328 69.313569 
L 48.326687 71.789528 
L 48.381045 70.573504 
L 48.435404 72.385029 
L 48.489763 71.679626 
L 48.544122 71.587453 
L 48.598481 69.98558 
L 48.65284 73.773221 
L 48.707199 69.878644 
L 48.870276 72.280675 
L 49.033353 70.854383 
L 49.087712 70.53539 
L 49.196429 73.029454 
L 49.250788 69.89131 
L 49.305147 72.347854 
L 49.359506 71.206223 
L 49.413865 72.192272 
L 49.468224 71.461613 
L 49.522583 71.527142 
L 49.576942 71.717131 
L 49.68566 69.775726 
L 49.740019 72.888749 
L 49.794378 70.743508 
L 49.957454 71.527777 
L 50.011813 71.350863 
L 50.120531 72.215485 
L 50.17489 70.261606 
L 50.229249 73.013764 
L 50.283608 70.145095 
L 50.337967 72.865762 
L 50.392326 72.239632 
L 50.446685 71.034726 
L 50.501044 71.202736 
L 50.555403 71.839755 
L 50.609762 71.831959 
L 50.66412 69.59389 
L 50.718479 71.81823 
L 50.772838 72.689259 
L 50.827197 72.160439 
L 50.935915 71.724064 
L 50.990274 72.894349 
L 51.098992 68.917479 
L 51.153351 69.636639 
L 51.370787 73.944542 
L 51.425145 72.037797 
L 51.479504 73.364403 
L 51.533863 72.666928 
L 51.588222 72.717654 
L 51.642581 72.896588 
L 51.69694 72.216103 
L 51.751299 73.115444 
L 51.860017 69.616098 
L 51.914376 72.92188 
L 51.968735 70.62756 
L 52.023094 71.577589 
L 52.077453 71.189347 
L 52.131812 71.346858 
L 52.240529 67.756162 
L 52.403606 71.711741 
L 52.457965 70.42576 
L 52.621042 73.124262 
L 52.675401 72.66683 
L 52.72976 70.184736 
L 52.784119 70.712774 
L 52.838478 71.297871 
L 52.892837 69.828489 
L 52.947195 70.38592 
L 53.001554 70.43904 
L 53.055913 69.945836 
L 53.110272 73.260963 
L 53.164631 70.155622 
L 53.21899 72.972786 
L 53.273349 70.51416 
L 53.382067 72.147061 
L 53.436426 69.51689 
L 53.599503 73.233716 
L 53.70822 69.850499 
L 53.762579 74.432525 
L 53.816938 71.251381 
L 53.925656 70.387783 
L 54.034374 72.186333 
L 54.088733 70.972317 
L 54.143092 72.734587 
L 54.197451 71.348221 
L 54.360528 69.671394 
L 54.414887 72.028617 
L 54.469245 71.615728 
L 54.523604 70.789153 
L 54.577963 72.541416 
L 54.632322 71.084435 
L 54.686681 71.268048 
L 54.74104 71.06869 
L 54.849758 70.59414 
L 54.958476 71.523812 
L 55.012835 70.33505 
L 55.121553 73.877738 
L 55.175912 72.746156 
L 55.23027 72.830178 
L 55.338988 70.102606 
L 55.393347 70.285553 
L 55.447706 70.84723 
L 55.502065 69.869955 
L 55.719501 72.785745 
L 55.77386 70.154427 
L 55.828219 71.656605 
L 55.991295 70.046417 
L 56.045654 74.419822 
L 56.100013 70.390869 
L 56.154372 73.97487 
L 56.208731 70.795392 
L 56.26309 73.328998 
L 56.317449 71.331401 
L 56.371808 71.588361 
L 56.426167 70.719303 
L 56.480526 72.610027 
L 56.534885 71.529428 
L 56.589244 71.579149 
L 56.643603 69.96447 
L 56.697962 72.025967 
L 56.75232 70.829997 
L 56.806679 71.574422 
L 56.861038 69.263629 
L 56.915397 72.545478 
L 56.969756 72.085597 
L 57.132833 69.498269 
L 57.241551 72.29571 
L 57.29591 70.662088 
L 57.404628 71.383554 
L 57.458987 71.897581 
L 57.513345 71.817518 
L 57.567704 70.451162 
L 57.622063 72.663714 
L 57.676422 69.979153 
L 57.730781 70.624602 
L 57.893858 71.564283 
L 57.948217 71.531997 
L 58.002576 71.755374 
L 58.056935 71.609378 
L 58.165653 70.415554 
L 58.27437 74.160283 
L 58.383088 70.469358 
L 58.437447 72.396856 
L 58.491806 71.645254 
L 58.546165 70.785401 
L 58.654883 72.452325 
L 58.763601 70.82963 
L 58.81796 73.21301 
L 58.872319 71.191834 
L 58.926678 71.530376 
L 58.981037 70.627592 
L 59.035395 72.184721 
L 59.089754 68.22084 
L 59.144113 71.323147 
L 59.198472 70.462922 
L 59.415908 72.737562 
L 59.470267 71.448248 
L 59.524626 73.239511 
L 59.578985 72.480724 
L 59.687703 71.72525 
L 59.742062 72.446416 
L 59.79642 70.927061 
L 59.850779 73.582666 
L 59.905138 73.460776 
L 59.959497 69.499315 
L 60.013856 71.066464 
L 60.122574 72.315052 
L 60.176933 70.907192 
L 60.231292 73.098321 
L 60.285651 72.594496 
L 60.34001 70.695913 
L 60.394369 71.002446 
L 60.448728 73.08874 
L 60.611804 70.17476 
L 60.720522 71.437705 
L 60.774881 70.159523 
L 60.82924 70.491514 
L 60.937958 71.385633 
L 60.992317 71.27375 
L 61.046676 71.067509 
L 61.101035 69.912128 
L 61.155394 70.981727 
L 61.31847 69.153601 
L 61.427188 71.45566 
L 61.535906 71.059037 
L 61.644624 73.014142 
L 61.698983 72.862265 
L 61.753342 73.121848 
L 61.916419 71.154167 
L 61.970778 71.146543 
L 62.025137 74.176457 
L 62.079495 72.287391 
L 62.133854 72.876822 
L 62.242572 70.806168 
L 62.296931 71.392171 
L 62.35129 72.911445 
L 62.405649 72.572668 
L 62.460008 72.57621 
L 62.514367 69.872067 
L 62.568726 72.104116 
L 62.623085 72.00604 
L 62.731803 70.850239 
L 62.786162 71.693265 
L 62.84052 70.464259 
L 62.894879 74.254097 
L 62.949238 72.897877 
L 63.057956 70.160229 
L 63.112315 70.641737 
L 63.166674 72.049846 
L 63.221033 71.696791 
L 63.275392 71.332556 
L 63.329751 72.791015 
L 63.38411 70.489866 
L 63.438469 72.537992 
L 63.601545 71.374047 
L 63.655904 72.353312 
L 63.710263 70.8781 
L 63.764622 71.909093 
L 63.818981 71.70971 
L 63.87334 71.928006 
L 63.927699 72.029329 
L 64.036417 69.894273 
L 64.090776 70.621997 
L 64.199494 71.960784 
L 64.253853 70.825255 
L 64.308212 70.984118 
L 64.362571 72.175952 
L 64.416929 72.041727 
L 64.471288 70.777689 
L 64.525647 73.121434 
L 64.580006 69.596465 
L 64.634365 71.743978 
L 64.797442 70.341116 
L 64.960519 71.440531 
L 65.014878 70.859378 
L 65.069237 68.963315 
L 65.123596 72.548739 
L 65.177954 71.719772 
L 65.232313 71.071988 
L 65.286672 71.976751 
L 65.341031 71.575357 
L 65.39539 70.67591 
L 65.449749 72.111232 
L 65.504108 68.228584 
L 65.558467 70.55121 
L 65.721544 72.057408 
L 65.830262 70.50718 
L 65.938979 72.024145 
L 65.993338 71.783238 
L 66.047697 71.034576 
L 66.210774 72.942054 
L 66.265133 69.689363 
L 66.319492 71.294424 
L 66.373851 71.466691 
L 66.42821 72.77056 
L 66.591287 70.095383 
L 66.645646 69.835872 
L 66.754363 73.327576 
L 66.808722 71.877568 
L 66.863081 72.252293 
L 66.971799 69.983735 
L 67.134876 72.112369 
L 67.189235 73.274559 
L 67.406671 69.368589 
L 67.515388 72.313235 
L 67.569747 71.94323 
L 67.624106 71.899366 
L 67.678465 70.930977 
L 67.732824 73.424827 
L 67.787183 71.486692 
L 67.841542 71.864607 
L 67.895901 70.885645 
L 67.95026 71.208492 
L 68.113337 73.101963 
L 68.276413 70.152084 
L 68.43949 72.966532 
L 68.493849 69.893097 
L 68.548208 71.648494 
L 68.602567 71.716486 
L 68.765644 71.28168 
L 68.874362 71.760552 
L 68.928721 73.347906 
L 68.983079 72.842008 
L 69.091797 71.453339 
L 69.146156 71.728045 
L 69.200515 71.067474 
L 69.254874 71.675024 
L 69.363592 72.107182 
L 69.526669 71.086402 
L 69.581028 72.623834 
L 69.635387 70.40584 
L 69.689746 71.488178 
L 69.744104 72.907401 
L 69.798463 71.827776 
L 69.852822 72.066279 
L 69.96154 70.316129 
L 70.070258 71.697173 
L 70.124617 71.529155 
L 70.178976 71.0713 
L 70.233335 72.383756 
L 70.287694 71.722513 
L 70.342053 71.703534 
L 70.396412 70.333582 
L 70.450771 70.675917 
L 70.559488 71.806765 
L 70.613847 70.786183 
L 70.668206 71.030143 
L 70.722565 71.691706 
L 70.885642 69.707216 
L 70.99436 71.60485 
L 71.048719 71.24306 
L 71.103078 72.330328 
L 71.157437 71.286178 
L 71.211796 71.660795 
L 71.266154 70.995246 
L 71.374872 73.880402 
L 71.48359 71.68474 
L 71.537949 71.938974 
L 71.592308 70.333806 
L 71.646667 70.68659 
L 71.864103 72.269686 
L 71.918462 71.761764 
L 71.972821 69.599923 
L 72.027179 70.464398 
L 72.081538 71.908971 
L 72.135897 70.427462 
L 72.190256 70.656208 
L 72.244615 72.639445 
L 72.298974 71.95336 
L 72.353333 70.767868 
L 72.407692 71.222548 
L 72.462051 72.060589 
L 72.51641 70.815489 
L 72.570769 71.691202 
L 72.733846 72.445473 
L 72.788204 72.29008 
L 72.842563 72.07419 
L 73.00564 70.348551 
L 73.168717 72.065985 
L 73.331794 71.19268 
L 73.386153 73.295051 
L 73.440512 71.138351 
L 73.494871 71.767287 
L 73.549229 71.756381 
L 73.657947 71.181288 
L 73.712306 71.522017 
L 73.821024 71.874467 
L 73.875383 70.281023 
L 73.929742 70.518341 
L 73.984101 72.694386 
L 74.03846 72.011625 
L 74.092819 71.203351 
L 74.147178 71.779997 
L 74.310254 70.547577 
L 74.473331 71.668255 
L 74.52769 70.589457 
L 74.582049 71.224438 
L 74.690767 72.717204 
L 74.745126 70.289346 
L 74.799485 70.97325 
L 74.908203 71.994174 
L 74.962562 70.974214 
L 75.016921 71.176789 
L 75.125638 72.190591 
L 75.179997 71.185323 
L 75.234356 72.740396 
L 75.288715 71.414371 
L 75.343074 71.410029 
L 75.397433 71.559256 
L 75.451792 70.801731 
L 75.506151 71.409653 
L 75.56051 71.441298 
L 75.614869 71.292878 
L 75.669228 72.269651 
L 75.723587 70.896341 
L 75.777946 71.067673 
L 75.832304 72.043456 
L 75.941022 70.480841 
L 76.104099 73.376415 
L 76.212817 71.117008 
L 76.267176 71.484297 
L 76.321535 70.817596 
L 76.375894 71.156279 
L 76.430253 70.906941 
L 76.484612 69.889099 
L 76.538971 71.901069 
L 76.593329 71.434682 
L 76.647688 70.889215 
L 76.756406 71.588517 
L 76.810765 71.496188 
L 76.919483 71.091368 
L 76.973842 71.408567 
L 77.08256 70.082942 
L 77.191278 71.662559 
L 77.245637 70.686838 
L 77.299996 70.721446 
L 77.354354 73.103819 
L 77.408713 71.203697 
L 77.463072 70.649694 
L 77.57179 72.878608 
L 77.680508 71.253666 
L 77.734867 71.57286 
L 77.789226 72.455388 
L 77.843585 71.913911 
L 77.897944 71.19289 
L 77.952303 71.49436 
L 78.006662 71.73129 
L 78.061021 72.573541 
L 78.115379 70.975014 
L 78.169738 72.820015 
L 78.224097 71.452238 
L 78.278456 71.574795 
L 78.332815 71.147982 
L 78.495892 72.419967 
L 78.550251 70.563607 
L 78.60461 71.403735 
L 78.713328 71.855817 
L 78.767687 69.991854 
L 78.822046 71.248207 
L 78.876404 72.271586 
L 78.930763 71.401115 
L 78.985122 71.538311 
L 79.09384 70.512692 
L 79.148199 70.722578 
L 79.256917 72.513394 
L 79.311276 71.897137 
L 79.365635 71.71219 
L 79.419994 72.106147 
L 79.583071 70.659933 
L 79.637429 72.015867 
L 79.691788 71.483511 
L 79.746147 71.81946 
L 79.800506 73.065255 
L 79.909224 70.275514 
L 79.963583 72.769177 
L 80.017942 71.358124 
L 80.072301 69.933211 
L 80.235378 71.896795 
L 80.398455 70.3566 
L 80.61589 72.639001 
L 80.724608 70.965341 
L 80.887685 73.33553 
L 80.942044 71.129654 
L 80.996403 71.968073 
L 81.050762 71.882643 
L 81.105121 72.645204 
L 81.15948 71.443491 
L 81.268197 71.491109 
L 81.322556 70.859772 
L 81.376915 73.385066 
L 81.431274 71.906828 
L 81.485633 71.326087 
L 81.539992 71.621167 
L 81.594351 72.408323 
L 81.757428 71.066039 
L 81.920505 70.527971 
L 81.974863 70.59917 
L 82.246658 72.059292 
L 82.301017 71.582822 
L 82.355376 71.695702 
L 82.409735 71.859388 
L 82.627171 70.962413 
L 82.68153 71.886518 
L 82.735888 71.501565 
L 82.844606 71.335902 
L 82.953324 72.477033 
L 83.007683 71.52518 
L 83.062042 72.495872 
L 83.225119 71.38557 
L 83.333837 71.748071 
L 83.388196 71.119052 
L 83.442555 71.830102 
L 83.496913 70.770507 
L 83.551272 72.046844 
L 83.605631 71.164605 
L 83.65999 71.358298 
L 83.714349 70.832116 
L 83.823067 72.68828 
L 84.040503 70.641135 
L 84.094862 70.652431 
L 84.20358 72.067076 
L 84.257938 72.032597 
L 84.312297 71.48182 
L 84.366656 71.811652 
L 84.421015 71.948351 
L 84.475374 71.714956 
L 84.529733 72.086051 
L 84.584092 71.026453 
L 84.638451 71.427632 
L 84.69281 71.549695 
L 84.801528 71.266502 
L 84.910246 71.743186 
L 84.964605 71.059221 
L 85.018963 71.835773 
L 85.073322 71.686376 
L 85.127681 71.461791 
L 85.18204 70.680491 
L 85.290758 73.166053 
L 85.345117 70.539083 
L 85.399476 70.971638 
L 85.453835 71.177105 
L 85.508194 70.921126 
L 85.671271 71.819247 
L 85.72563 72.01099 
L 85.779988 71.830773 
L 85.834347 71.961062 
L 85.943065 71.379532 
L 85.997424 71.6299 
L 86.051783 71.198188 
L 86.106142 71.478574 
L 86.160501 71.95264 
L 86.21486 70.568246 
L 86.269219 71.705532 
L 86.377937 72.017033 
L 86.432296 71.295144 
L 86.486655 71.574299 
L 86.541013 71.463081 
L 86.70409 71.754818 
L 86.758449 71.696465 
L 86.812808 72.165521 
L 86.921526 71.328279 
L 86.975885 72.119646 
L 87.030244 71.944861 
L 87.138962 71.249948 
L 87.193321 71.666945 
L 87.24768 72.619695 
L 87.302038 71.852631 
L 87.356397 71.197635 
L 87.410756 71.509122 
L 87.465115 71.861822 
L 87.519474 70.834585 
L 87.573833 71.741188 
L 87.791269 70.827141 
L 87.845628 71.960759 
L 87.899987 71.888041 
L 87.954346 71.515215 
L 88.008705 71.68087 
L 88.063063 71.744773 
L 88.117422 71.490344 
L 88.171781 72.450956 
L 88.22614 72.15502 
L 88.280499 70.891671 
L 88.334858 72.009576 
L 88.389217 71.115186 
L 88.443576 72.03277 
L 88.497935 72.191724 
L 88.552294 70.681973 
L 88.606653 70.713385 
L 88.715371 71.633706 
L 88.76973 71.145226 
L 88.824088 72.102045 
L 88.878447 71.788808 
L 88.932806 71.883356 
L 89.095883 70.819678 
L 89.25896 71.958784 
L 89.313319 72.519883 
L 89.476396 71.309656 
L 89.530755 71.837828 
L 89.585113 71.394678 
L 89.693831 70.864778 
L 89.74819 71.922929 
L 89.802549 71.699204 
L 89.856908 71.327575 
L 89.911267 72.714391 
L 89.965626 71.684078 
L 90.019985 70.933793 
L 90.074344 71.49946 
L 90.128703 72.027778 
L 90.183062 71.548242 
L 90.346138 70.673814 
L 90.400497 71.826174 
L 90.454856 71.592577 
L 90.563574 70.949956 
L 90.672292 71.550343 
L 90.726651 71.535043 
L 90.78101 70.532734 
L 90.889728 71.86361 
L 90.944087 70.691694 
L 90.998446 71.74113 
L 91.052805 71.368501 
L 91.107163 71.88397 
L 91.161522 71.602672 
L 91.324599 71.142249 
L 91.433317 72.163756 
L 91.542035 70.631463 
L 91.596394 71.811097 
L 91.650753 71.747276 
L 91.81383 71.067392 
L 91.976906 71.793427 
L 92.031265 71.756518 
L 92.085624 71.922845 
L 92.139983 71.496675 
L 92.194342 71.701832 
L 92.357419 71.465533 
L 92.466137 71.234214 
L 92.520496 71.316145 
L 92.629213 71.839325 
L 92.683572 71.631721 
L 92.737931 71.337142 
L 92.846649 71.869182 
L 92.955367 71.465033 
L 93.009726 70.88267 
L 93.118444 71.595626 
L 93.281521 70.85402 
L 93.390238 72.114566 
L 93.444597 71.759982 
L 93.607674 71.16352 
L 93.716392 71.755122 
L 93.82511 71.639506 
L 93.879469 71.494687 
L 93.933828 72.308414 
L 93.988187 71.80717 
L 94.042546 71.007331 
L 94.096905 71.654278 
L 94.259981 71.383249 
L 94.31434 72.021114 
L 94.368699 71.267583 
L 94.423058 71.665511 
L 94.477417 72.283814 
L 94.531776 71.660969 
L 94.586135 71.448557 
L 94.640494 71.933062 
L 94.694853 70.651952 
L 94.749212 71.592734 
L 94.803571 71.919806 
L 94.85793 71.579878 
L 94.912288 71.78456 
L 95.021006 71.29067 
L 95.129724 71.919685 
L 95.184083 71.459712 
L 95.238442 71.658832 
L 95.292801 71.55199 
L 95.34716 71.967191 
L 95.401519 70.615782 
L 95.455878 71.329965 
L 95.510237 71.654446 
L 95.564596 71.360684 
L 95.727672 71.587463 
L 95.782031 72.324548 
L 95.83639 71.309634 
L 95.890749 71.686318 
L 95.945108 71.783351 
L 95.999467 71.458833 
L 96.053826 71.563065 
L 96.108185 71.713745 
L 96.162544 70.480413 
L 96.216903 72.217135 
L 96.271262 71.11516 
L 96.325621 71.235139 
L 96.37998 70.852621 
L 96.434338 71.471236 
L 96.488697 71.432843 
L 96.543056 71.135185 
L 96.651774 71.85516 
L 96.706133 71.587751 
L 96.760492 71.753762 
L 96.923569 71.446067 
L 96.977928 71.74116 
L 97.032287 71.528801 
L 97.086646 71.374297 
L 97.141005 71.818227 
L 97.195364 71.401342 
L 97.249722 71.535853 
L 97.304081 71.034076 
L 97.35844 71.367518 
L 97.521517 71.008152 
L 97.575876 71.555554 
L 97.630235 71.336626 
L 97.684594 71.148505 
L 97.793312 71.75176 
L 97.847671 71.610038 
L 97.90203 71.600605 
L 97.956389 71.162106 
L 98.010747 71.516799 
L 98.065106 71.333943 
L 98.119465 71.709647 
L 98.173824 71.57581 
L 98.228183 71.268487 
L 98.282542 71.529852 
L 98.336901 71.471521 
L 98.445619 71.748125 
L 98.608696 71.077395 
L 98.717414 71.886168 
L 98.771772 71.778662 
L 98.826131 71.440033 
L 98.88049 71.748342 
L 98.934849 71.960901 
L 99.097926 71.472523 
L 99.315362 71.84415 
L 99.369721 71.005666 
L 99.42408 72.012376 
L 99.478439 71.248651 
L 99.532797 71.864371 
L 99.587156 71.643431 
L 99.641515 71.659386 
L 99.695874 71.383324 
L 99.858951 71.904601 
L 99.91331 71.17204 
L 99.967669 72.260271 
L 100.022028 71.680249 
L 100.185105 71.359111 
L 100.293822 71.81086 
L 100.348181 71.604545 
L 100.40254 71.639238 
L 100.565617 71.374645 
L 100.674335 71.775723 
L 100.728694 71.388422 
L 100.783053 71.525099 
L 100.891771 71.435836 
L 100.94613 71.86512 
L 101.000489 71.457492 
L 101.054847 71.740305 
L 101.109206 71.223511 
L 101.163565 71.744531 
L 101.381001 71.425412 
L 101.652796 71.199937 
L 101.707155 71.893839 
L 101.761514 70.982241 
L 101.815872 71.527424 
L 101.870231 71.631222 
L 101.92459 71.480811 
L 101.978949 71.817073 
L 102.142026 71.296448 
L 102.250744 71.422585 
L 102.305103 71.735635 
L 102.359462 71.366297 
L 102.413821 71.564946 
L 102.522539 71.501668 
L 102.631256 71.466347 
L 102.685615 71.634197 
L 102.739974 71.290152 
L 102.794333 71.664432 
L 102.848692 71.240132 
L 102.903051 71.620716 
L 102.95741 71.448551 
L 103.011769 71.813769 
L 103.066128 71.284752 
L 103.120487 71.810162 
L 103.174846 71.636361 
L 103.229205 71.034331 
L 103.283564 71.423395 
L 103.337922 71.439057 
L 103.392281 70.842655 
L 103.44664 71.438905 
L 103.555358 71.801988 
L 103.609717 71.347784 
L 103.664076 71.380608 
L 103.718435 71.380425 
L 103.827153 71.682615 
L 103.99023 71.298166 
L 104.044589 71.921887 
L 104.098947 71.324878 
L 104.316383 71.356777 
L 104.370742 71.326452 
L 104.47946 71.889807 
L 104.588178 71.906584 
L 104.642537 71.342009 
L 104.805614 71.892537 
L 104.96869 71.298088 
L 105.023049 71.480547 
L 105.077408 71.357649 
L 105.131767 71.319553 
L 105.294844 71.699489 
L 105.349203 71.285108 
L 105.403562 71.533263 
L 105.457921 71.515154 
L 105.51228 71.226164 
L 105.566639 71.52899 
L 105.620997 71.384936 
L 105.675356 71.424495 
L 105.784074 71.851992 
L 105.838433 71.744087 
L 105.892792 71.686924 
L 105.947151 71.229059 
L 106.00151 71.74981 
L 106.055869 71.453726 
L 106.110228 71.403879 
L 106.164587 71.620676 
L 106.218946 71.597983 
L 106.273305 71.344141 
L 106.327664 71.607527 
L 106.382022 72.022242 
L 106.436381 71.632424 
L 106.49074 71.99007 
L 106.545099 71.613036 
L 106.599458 71.199201 
L 106.653817 71.422935 
L 106.708176 71.739513 
L 106.762535 71.711568 
L 106.871253 71.188308 
L 106.925612 71.634616 
L 106.979971 71.424278 
L 107.03433 71.410648 
L 107.088689 71.152197 
L 107.251765 71.686018 
L 107.360483 71.289671 
L 107.414842 71.397729 
L 107.469201 71.636002 
L 107.52356 71.351561 
L 107.577919 71.554629 
L 107.632278 71.679181 
L 107.686637 71.551961 
L 107.740996 71.395523 
L 107.795355 71.895839 
L 107.849714 71.456036 
L 107.904072 71.694641 
L 107.958431 71.447291 
L 108.01279 71.594124 
L 108.067149 71.468764 
L 108.121508 71.236933 
L 108.175867 71.639866 
L 108.230226 71.381594 
L 108.284585 71.299763 
L 108.338944 71.397144 
L 108.55638 71.636938 
L 108.610739 71.445874 
L 108.665097 71.523031 
L 108.773815 71.585817 
L 108.828174 71.8114 
L 108.882533 71.63336 
L 108.936892 71.378961 
L 108.991251 71.525521 
L 109.154328 71.334653 
L 109.263046 71.615483 
L 109.426122 71.237265 
L 109.480481 71.729014 
L 109.53484 71.691445 
L 109.752276 71.28878 
L 109.806635 71.87896 
L 109.860994 71.395082 
L 110.024071 71.89445 
L 110.132789 71.431037 
L 110.295865 71.723697 
L 110.350224 71.274159 
L 110.404583 71.593624 
L 110.622019 71.37402 
L 110.676378 71.419608 
L 110.730737 71.276825 
L 110.839455 71.641657 
L 111.002531 71.358189 
L 111.328685 71.673924 
L 111.383044 71.474552 
L 111.437403 71.615314 
L 111.491762 71.644813 
L 111.546121 71.443949 
L 111.60048 71.578779 
L 111.654839 71.566782 
L 111.709197 71.340008 
L 111.763556 71.507526 
L 111.817915 71.576754 
L 111.926633 71.375696 
L 112.08971 71.559515 
L 112.144069 71.392423 
L 112.198428 71.628744 
L 112.252787 71.499397 
L 112.361505 71.305681 
L 112.415864 71.534756 
L 112.470222 71.288812 
L 112.524581 71.496861 
L 112.57894 71.258638 
L 112.687658 71.605097 
L 112.850735 71.334498 
L 113.013812 71.582546 
L 113.068171 71.474157 
L 113.12253 71.575924 
L 113.231248 71.582545 
L 113.285606 71.46398 
L 113.339965 71.640104 
L 113.503042 71.243401 
L 113.557401 71.534311 
L 113.61176 71.366633 
L 113.774837 71.671798 
L 113.829196 71.489555 
L 113.883555 71.467095 
L 113.937914 71.572194 
L 113.992273 71.528114 
L 114.046631 71.393365 
L 114.209708 71.62266 
L 114.264067 71.464799 
L 114.318426 71.562186 
L 114.372785 71.701338 
L 114.427144 71.655571 
L 114.481503 71.458214 
L 114.535862 71.541265 
L 115.025092 71.437373 
L 115.079451 71.655713 
L 115.13381 71.475331 
L 115.296887 71.569089 
L 115.459964 71.716247 
L 115.677399 71.47993 
L 115.894835 71.539413 
L 115.949194 71.488862 
L 116.003553 71.604622 
L 116.057912 71.422327 
L 116.112271 71.548006 
L 116.220989 71.525204 
L 116.275348 71.423204 
L 116.329706 71.519766 
L 116.384065 71.583095 
L 116.438424 71.445296 
L 116.492783 71.65986 
L 116.547142 71.562731 
L 116.710219 71.564698 
L 116.764578 71.428862 
L 116.818937 71.54739 
L 116.982014 71.653887 
L 117.14509 71.45348 
L 117.362526 71.567553 
L 117.416885 71.436065 
L 117.471244 71.622757 
L 117.525603 71.519204 
L 117.579962 71.406207 
L 117.634321 71.651449 
L 117.68868 71.502547 
L 117.743039 71.49428 
L 117.797398 71.680548 
L 117.851756 71.65818 
L 117.906115 71.469306 
L 117.960474 71.488136 
L 118.014833 71.522842 
L 118.069192 71.43442 
L 118.123551 71.458974 
L 118.232269 71.620056 
L 118.395346 71.502146 
L 118.449705 71.571937 
L 118.504064 71.305681 
L 118.558423 71.52849 
L 118.66714 71.461596 
L 118.721499 71.582801 
L 118.775858 71.416616 
L 118.830217 71.561335 
L 118.993294 71.45313 
L 119.21073 71.590685 
L 119.265089 71.462558 
L 119.319448 71.613342 
L 119.482524 71.432207 
L 119.645601 71.546164 
L 119.754319 71.534946 
L 119.917396 71.430589 
L 120.080473 71.559535 
L 120.243549 71.44553 
L 120.406626 71.569025 
L 120.515344 71.407099 
L 120.569703 71.591085 
L 120.624062 71.545642 
L 120.787139 71.478761 
L 120.841498 71.609599 
L 120.895856 71.577662 
L 121.058933 71.527468 
L 121.71124 71.469654 
L 121.874317 71.583105 
L 122.091753 71.463248 
L 122.146112 71.588589 
L 122.200471 71.481807 
L 122.526624 71.564457 
L 122.74406 71.550702 
L 122.798419 71.590562 
L 122.852778 71.470643 
L 122.907137 71.515871 
L 123.124573 71.554683 
L 123.287649 71.532915 
L 123.505085 71.516596 
L 123.668162 71.51238 
L 126.27739 71.517299 
L 126.712262 71.529187 
L 127.364569 71.515935 
L 127.636364 71.519517 
L 127.636364 71.519517 
" clip-path="url(#p628f79ff57)" style="fill: none; stroke: #e78ac3; stroke-width: 1.5; stroke-linecap: square"/>
   </g>
   <g id="patch_3">
    <path d="M 10.8 133.2 
L 10.8 10.8 
" style="fill: none; stroke: #000000; stroke-width: 0.8; stroke-linejoin: miter; stroke-linecap: square"/>
   </g>
   <g id="patch_4">
    <path d="M 133.2 133.2 
L 133.2 10.8 
" style="fill: none; stroke: #000000; stroke-width: 0.8; stroke-linejoin: miter; stroke-linecap: square"/>
   </g>
   <g id="patch_5">
    <path d="M 10.8 133.2 
L 133.2 133.2 
" style="fill: none; stroke: #000000; stroke-width: 0.8; stroke-linejoin: miter; stroke-linecap: square"/>
   </g>
   <g id="patch_6">
    <path d="M 10.8 10.8 
L 133.2 10.8 
" style="fill: none; stroke: #000000; stroke-width: 0.8; stroke-linejoin: miter; stroke-linecap: square"/>
   </g>
  </g>
 </g>
 <defs>
  <clipPath id="p628f79ff57">
   <rect x="10.8" y="10.8" width="122.4" height="122.4"/>
  </clipPath>
 </defs>
</svg>
