<?xml version="1.0" encoding="utf-8" standalone="no"?>
<!DOCTYPE svg PUBLIC "-//W3C//DTD SVG 1.1//EN"
  "http://www.w3.org/Graphics/SVG/1.1/DTD/svg11.dtd">
<svg xmlns:xlink="http://www.w3.org/1999/xlink" width="144pt" height="144pt" viewBox="0 0 144 144" xmlns="http://www.w3.org/2000/svg" version="1.1">
 <metadata>
  <rdf:RDF xmlns:dc="http://purl.org/dc/elements/1.1/" xmlns:cc="http://creativecommons.org/ns#" xmlns:rdf="http://www.w3.org/1999/02/22-rdf-syntax-ns#">
   <cc:Work>
    <dc:type rdf:resource="http://purl.org/dc/dcmitype/StillImage"/>
    <dc:date>2025-02-07T11:27:54.508360</dc:date>
    <dc:format>image/svg+xml</dc:format>
    <dc:creator>
     <cc:Agent>
      <dc:title>Matplotlib v3.8.0, https://matplotlib.org/</dc:title>
     </cc:Agent>
    </dc:creator>
   </cc:Work>
  </rdf:RDF>
 </metadata>
 <defs>
  <style type="text/css">*{stroke-linejoin: round; stroke-linecap: butt}</style>
 </defs>
 <g id="figure_1">
  <g id="patch_1">
   <path d="M 0 144 
L 144 144 
L 144 0 
L 0 0 
L 0 144 
z
" style="fill: none"/>
  </g>
  <g id="axes_1">
   <g id="patch_2">
    <path d="M 10.8 133.2 
L 133.2 133.2 
L 133.2 10.8 
L 10.8 10.8 
L 10.8 133.2 
z
" style="fill: none"/>
   </g>
   <g id="matplotlib.axis_1"/>
   <g id="matplotlib.axis_2"/>
   <g id="line2d_1">
    <path d="M 16.363636 64.729911 
L 24.952347 64.701122 
L 25.006706 64.824979 
L 25.061065 64.650938 
L 25.115424 64.712929 
L 25.169783 64.742777 
L 25.224142 64.637085 
L 25.387219 64.885639 
L 25.604654 64.733964 
L 25.659013 64.767053 
L 25.713372 64.657777 
L 25.767731 64.739544 
L 26.039526 64.67634 
L 26.093885 64.578537 
L 26.148244 64.825037 
L 26.202602 64.635634 
L 26.365679 64.755415 
L 26.420038 64.715224 
L 26.528756 64.810313 
L 26.691833 64.616101 
L 26.85491 64.815267 
L 26.909269 64.861796 
L 26.963627 64.767741 
L 27.235422 64.616792 
L 27.398499 64.805193 
L 27.452858 64.905107 
L 27.507217 64.748486 
L 27.561576 64.786357 
L 27.670294 64.827422 
L 27.779011 64.537883 
L 27.83337 64.825734 
L 27.887729 64.674706 
L 27.996447 64.762336 
L 28.159524 64.54062 
L 28.268242 64.803205 
L 28.322601 64.743446 
L 28.37696 64.682931 
L 28.485677 64.824671 
L 28.540036 64.606801 
L 28.594395 64.636548 
L 28.703113 64.762491 
L 28.757472 64.725592 
L 28.86619 64.78672 
L 28.920549 64.689462 
L 28.974908 64.793212 
L 29.137985 64.728551 
L 29.192344 64.827364 
L 29.246702 64.578579 
L 29.301061 64.664907 
L 29.464138 64.906147 
L 29.572856 64.638145 
L 29.627215 64.956825 
L 29.681574 64.647728 
L 29.735933 64.871148 
L 29.790292 64.577184 
L 29.844651 64.884744 
L 29.89901 64.849273 
L 29.953369 64.60114 
L 30.007727 64.720288 
L 30.116445 64.871434 
L 30.38824 64.537754 
L 30.496958 64.938165 
L 30.605676 64.605842 
L 30.660035 64.775669 
L 30.714394 64.90692 
L 30.768752 64.317676 
L 30.823111 64.884489 
L 30.986188 64.638905 
L 31.094906 64.75203 
L 31.149265 64.981128 
L 31.203624 64.734936 
L 31.257983 64.773934 
L 31.312342 64.645001 
L 31.366701 64.736302 
L 31.42106 64.712607 
L 31.475419 64.871825 
L 31.638495 64.523215 
L 31.692854 64.562361 
L 31.855931 64.901843 
L 32.073367 64.59483 
L 32.127726 64.773375 
L 32.182085 64.517918 
L 32.236444 64.826865 
L 32.290803 64.735702 
L 32.345161 64.503174 
L 32.453879 64.776823 
L 32.508238 64.474485 
L 32.562597 64.543844 
L 32.725674 64.820263 
L 32.780033 64.888042 
L 32.94311 64.606637 
L 33.106186 64.78552 
L 33.160545 64.835839 
L 33.214904 64.573495 
L 33.269263 65.025184 
L 33.323622 64.636091 
L 33.377981 64.858769 
L 33.43234 64.676761 
L 33.486699 64.633228 
L 33.541058 64.82478 
L 33.595417 64.590434 
L 33.649776 64.771704 
L 33.758494 64.694948 
L 33.812853 64.935773 
L 33.867211 64.623924 
L 33.92157 64.758394 
L 34.030288 64.646606 
L 34.193365 64.470069 
L 34.356442 64.978067 
L 34.46516 64.52512 
L 34.628236 64.95602 
L 34.736954 64.485025 
L 34.791313 64.873589 
L 34.845672 64.796187 
L 34.900031 64.454616 
L 34.95439 65.072729 
L 35.008749 64.824293 
L 35.117467 64.826807 
L 35.171826 64.866466 
L 35.334903 64.646981 
L 35.497979 64.650559 
L 35.552338 64.345424 
L 35.606697 64.621683 
L 35.661056 64.874393 
L 35.824133 64.517736 
L 35.98721 64.933142 
L 36.041569 64.577615 
L 36.095928 64.609942 
L 36.204645 64.996679 
L 36.259004 64.838275 
L 36.313363 64.891693 
L 36.367722 64.708732 
L 36.422081 65.144878 
L 36.47644 64.716299 
L 36.585158 64.906095 
L 36.748235 64.557085 
L 36.856953 64.805554 
L 37.074388 64.278563 
L 37.237465 64.757804 
L 37.291824 65.059673 
L 37.346183 64.982067 
L 37.454901 64.583494 
L 37.617978 64.880514 
L 37.672336 64.703703 
L 37.726695 64.919176 
L 37.781054 64.65125 
L 37.835413 64.910874 
L 37.944131 64.980774 
L 37.99849 65.272024 
L 38.215926 64.525306 
L 38.270285 64.85366 
L 38.324644 64.354284 
L 38.379003 64.629095 
L 38.433361 64.447089 
L 38.596438 65.096551 
L 38.705156 64.538774 
L 38.759515 64.573496 
L 38.813874 64.595997 
L 38.868233 64.336421 
L 38.922592 64.532836 
L 39.085669 64.634073 
L 39.194386 65.008427 
L 39.248745 64.867147 
L 39.357463 64.332807 
L 39.411822 64.658084 
L 39.52054 65.148254 
L 39.574899 64.803653 
L 39.629258 64.69871 
L 39.683617 65.225181 
L 39.737976 65.007506 
L 39.792335 64.622426 
L 39.846694 64.788516 
L 39.955411 64.684766 
L 40.00977 64.955587 
L 40.064129 64.219748 
L 40.118488 64.59728 
L 40.172847 64.496816 
L 40.227206 64.858501 
L 40.281565 64.775892 
L 40.335924 64.793806 
L 40.390283 64.549394 
L 40.444642 65.043432 
L 40.607719 64.44859 
L 40.662078 64.452017 
L 40.770795 64.747826 
L 40.825154 64.719909 
L 40.879513 64.881407 
L 40.933872 64.632775 
L 40.988231 64.957978 
L 41.096949 64.290014 
L 41.151308 64.77217 
L 41.205667 64.719176 
L 41.260026 64.706546 
L 41.423103 64.412755 
L 41.477461 64.920748 
L 41.53182 64.634327 
L 41.640538 64.973643 
L 41.694897 64.197226 
L 41.749256 64.976829 
L 41.803615 64.997302 
L 41.857974 64.869652 
L 41.912333 65.110659 
L 41.966692 64.414243 
L 42.021051 64.972467 
L 42.184128 64.143861 
L 42.238486 64.239713 
L 42.292845 64.992337 
L 42.347204 64.620162 
L 42.510281 64.910239 
L 42.56464 64.537239 
L 42.618999 65.000571 
L 42.673358 64.793901 
L 42.836435 65.032058 
L 42.890794 64.443869 
L 42.945153 64.972734 
L 42.999511 65.000186 
L 43.108229 64.499353 
L 43.162588 64.652126 
L 43.216947 64.448234 
L 43.271306 65.032086 
L 43.325665 64.768835 
L 43.380024 64.967176 
L 43.543101 64.480807 
L 43.651819 65.144035 
L 43.706178 64.895508 
L 43.760536 64.947083 
L 43.869254 64.497574 
L 44.032331 65.145187 
L 44.08669 64.847473 
L 44.141049 65.369045 
L 44.195408 64.913435 
L 44.304126 64.579702 
L 44.358485 64.639484 
L 44.412844 64.862716 
L 44.467203 64.816037 
L 44.521561 64.523788 
L 44.57592 64.718133 
L 44.630279 64.768655 
L 44.684638 64.636679 
L 44.738997 64.679961 
L 44.847715 64.75193 
L 44.956433 64.327495 
L 45.010792 64.558047 
L 45.065151 65.230276 
L 45.11951 64.857719 
L 45.173869 64.933832 
L 45.336945 64.607113 
L 45.391304 64.381481 
L 45.445663 65.308296 
L 45.500022 64.952276 
L 45.554381 65.029976 
L 45.60874 64.564294 
L 45.663099 65.000801 
L 45.717458 65.09546 
L 45.771817 64.734822 
L 45.826176 64.77169 
L 45.880535 64.785609 
L 45.934894 65.337958 
L 46.043611 64.042399 
L 46.09797 65.386257 
L 46.152329 64.572977 
L 46.206688 64.649035 
L 46.261047 64.577413 
L 46.315406 64.28184 
L 46.369765 64.451675 
L 46.478483 65.25539 
L 46.532842 64.945256 
L 46.587201 64.714289 
L 46.64156 65.099557 
L 46.804636 64.615625 
L 46.967713 64.843961 
L 47.022072 64.259214 
L 47.076431 64.577845 
L 47.13079 64.393867 
L 47.185149 64.754716 
L 47.239508 64.58566 
L 47.348226 64.846488 
L 47.402585 65.007229 
L 47.456944 64.958191 
L 47.565662 64.468107 
L 47.62002 64.994361 
L 47.674379 64.765305 
L 47.728738 64.810272 
L 47.783097 64.692174 
L 47.837456 64.865973 
L 47.891815 64.468082 
L 47.946174 64.763545 
L 48.109251 64.534242 
L 48.272328 65.232141 
L 48.326687 63.991553 
L 48.381045 64.813457 
L 48.544122 64.327703 
L 48.598481 64.998599 
L 48.65284 64.21635 
L 48.707199 64.69757 
L 48.815917 65.348331 
L 48.870276 64.347619 
L 48.924635 64.615221 
L 48.978994 64.837303 
L 49.033353 64.742007 
L 49.087712 64.370333 
L 49.14207 64.938233 
L 49.196429 64.377217 
L 49.359506 65.325684 
L 49.522583 64.377515 
L 49.576942 64.930505 
L 49.631301 63.885772 
L 49.68566 64.82246 
L 49.740019 65.008355 
L 49.848737 64.153294 
L 50.011813 65.238264 
L 50.17489 64.709107 
L 50.229249 64.808129 
L 50.283608 64.68703 
L 50.446685 64.604715 
L 50.501044 65.349455 
L 50.555403 65.196589 
L 50.718479 64.384604 
L 50.772838 64.87907 
L 50.827197 64.479566 
L 50.990274 65.254496 
L 51.044633 64.197167 
L 51.098992 64.883871 
L 51.153351 64.572282 
L 51.20771 65.513156 
L 51.262069 64.813276 
L 51.316428 64.767995 
L 51.425145 65.106301 
L 51.588222 64.100764 
L 51.69694 65.179879 
L 51.751299 64.240673 
L 51.805658 64.597779 
L 51.860017 64.556728 
L 51.914376 64.359423 
L 51.968735 65.171957 
L 52.023094 64.040856 
L 52.077453 65.694433 
L 52.131812 65.342261 
L 52.240529 64.366257 
L 52.403606 64.842522 
L 52.457965 64.762601 
L 52.512324 64.387883 
L 52.621042 65.324903 
L 52.675401 64.5496 
L 52.72976 64.935117 
L 52.892837 64.414252 
L 52.947195 65.36493 
L 53.001554 65.262842 
L 53.110272 64.260052 
L 53.164631 64.938562 
L 53.21899 64.156062 
L 53.327708 64.193724 
L 53.382067 64.259494 
L 53.436426 65.482928 
L 53.599503 63.573073 
L 53.762579 65.15699 
L 53.816938 64.948324 
L 53.871297 65.649711 
L 53.925656 64.68312 
L 53.980015 65.024705 
L 54.034374 65.07616 
L 54.088733 64.399897 
L 54.143092 65.380533 
L 54.197451 64.661124 
L 54.25181 65.051243 
L 54.306169 63.954831 
L 54.360528 64.385237 
L 54.577963 65.576017 
L 54.632322 65.253464 
L 54.795399 64.355087 
L 54.958476 64.877872 
L 55.012835 64.716862 
L 55.067194 64.208208 
L 55.121553 64.470986 
L 55.175912 64.728018 
L 55.23027 64.608066 
L 55.284629 64.613639 
L 55.338988 64.339287 
L 55.447706 65.111784 
L 55.502065 64.444879 
L 55.556424 64.615187 
L 55.610783 64.493523 
L 55.719501 64.765527 
L 55.77386 64.181002 
L 55.828219 64.63617 
L 55.882578 64.35329 
L 55.936937 65.358294 
L 55.991295 64.714306 
L 56.100013 64.280596 
L 56.154372 64.85892 
L 56.208731 63.958599 
L 56.26309 64.412735 
L 56.317449 64.42542 
L 56.371808 65.334902 
L 56.426167 63.900117 
L 56.480526 64.362547 
L 56.534885 64.695942 
L 56.589244 64.07009 
L 56.643603 64.264463 
L 56.806679 65.308559 
L 56.861038 64.040836 
L 56.915397 64.741721 
L 56.969756 64.38291 
L 57.132833 65.495398 
L 57.241551 64.185619 
L 57.29591 64.512074 
L 57.404628 64.491553 
L 57.458987 65.450011 
L 57.513345 65.183662 
L 57.622063 64.199531 
L 57.676422 64.598906 
L 57.730781 64.196539 
L 57.78514 64.081866 
L 57.893858 65.171383 
L 57.948217 65.1371 
L 58.002576 64.270535 
L 58.056935 64.572495 
L 58.111294 65.135927 
L 58.165653 64.516997 
L 58.220012 64.611127 
L 58.27437 64.692926 
L 58.328729 65.681714 
L 58.383088 64.351219 
L 58.437447 64.81102 
L 58.491806 64.923978 
L 58.546165 65.414911 
L 58.709242 63.439072 
L 58.81796 65.562021 
L 58.926678 64.21246 
L 58.981037 65.680228 
L 59.035395 64.760483 
L 59.089754 64.211224 
L 59.144113 64.69553 
L 59.198472 64.492979 
L 59.252831 66.273445 
L 59.30719 63.903898 
L 59.361549 64.188126 
L 59.415908 64.241863 
L 59.470267 64.591563 
L 59.524626 63.667685 
L 59.578985 64.724744 
L 59.633344 64.690738 
L 59.687703 64.083766 
L 59.742062 64.205908 
L 59.850779 65.542614 
L 59.959497 63.846748 
L 60.013856 65.029831 
L 60.068215 64.244284 
L 60.122574 63.984936 
L 60.231292 65.25973 
L 60.285651 64.56418 
L 60.34001 64.585145 
L 60.394369 64.756577 
L 60.503087 64.541244 
L 60.611804 65.10506 
L 60.666163 64.034318 
L 60.720522 64.672385 
L 60.774881 64.110094 
L 60.82924 65.247345 
L 60.883599 64.902721 
L 60.937958 64.88509 
L 60.992317 64.464877 
L 61.046676 64.498805 
L 61.101035 65.639145 
L 61.155394 64.317616 
L 61.209753 65.015681 
L 61.31847 64.447643 
L 61.372829 64.67446 
L 61.427188 65.965528 
L 61.481547 63.580664 
L 61.535906 65.924277 
L 61.590265 64.428312 
L 61.644624 65.921941 
L 61.807701 63.977073 
L 61.916419 66.395093 
L 61.970778 65.432341 
L 62.079495 64.332468 
L 62.133854 65.492725 
L 62.188213 64.319445 
L 62.405649 65.404644 
L 62.460008 63.883674 
L 62.514367 64.692584 
L 62.568726 64.375455 
L 62.623085 65.325587 
L 62.677444 64.679003 
L 62.731803 63.606342 
L 62.786162 64.357723 
L 62.84052 64.484513 
L 62.894879 64.177708 
L 63.112315 66.284616 
L 63.166674 64.098052 
L 63.275392 64.138069 
L 63.329751 65.002544 
L 63.38411 63.501661 
L 63.547187 65.421773 
L 63.601545 65.357177 
L 63.710263 64.509901 
L 63.764622 64.853406 
L 63.818981 64.493251 
L 63.87334 64.652249 
L 63.927699 65.820866 
L 63.982058 64.010415 
L 64.036417 66.107723 
L 64.090776 64.9846 
L 64.145135 65.666344 
L 64.253853 64.651671 
L 64.362571 66.574393 
L 64.416929 64.506026 
L 64.471288 65.6136 
L 64.525647 65.31411 
L 64.580006 63.872398 
L 64.634365 65.191209 
L 64.688724 65.196718 
L 64.743083 63.161099 
L 64.797442 64.027706 
L 64.851801 65.099463 
L 64.90616 63.631069 
L 64.960519 64.927386 
L 65.014878 64.784694 
L 65.069237 65.593994 
L 65.123596 63.865457 
L 65.177954 65.983131 
L 65.232313 64.304213 
L 65.286672 64.161534 
L 65.449749 66.060372 
L 65.558467 64.467073 
L 65.612826 64.610725 
L 65.667185 65.435103 
L 65.721544 64.680126 
L 65.775903 63.096747 
L 65.938979 65.800038 
L 65.993338 65.667162 
L 66.047697 64.464443 
L 66.102056 64.642302 
L 66.210774 65.740929 
L 66.265133 65.004483 
L 66.319492 65.130319 
L 66.373851 65.163281 
L 66.591287 64.496294 
L 66.645646 65.228688 
L 66.700004 64.03609 
L 66.808722 65.643776 
L 66.863081 64.504531 
L 66.91744 64.683032 
L 66.971799 65.657849 
L 67.026158 64.898736 
L 67.189235 63.65654 
L 67.297953 64.86028 
L 67.352312 64.729015 
L 67.406671 64.561657 
L 67.461029 64.658284 
L 67.678465 65.847374 
L 67.732824 63.601077 
L 67.787183 65.678047 
L 67.841542 64.176619 
L 67.895901 65.575339 
L 68.058978 64.612295 
L 68.113337 65.521836 
L 68.167696 64.99008 
L 68.222054 64.29758 
L 68.276413 65.172982 
L 68.330772 63.475944 
L 68.385131 64.480419 
L 68.43949 64.63977 
L 68.493849 65.43038 
L 68.548208 65.181771 
L 68.602567 64.845924 
L 68.765644 66.7559 
L 68.874362 63.595358 
L 68.928721 64.572399 
L 68.983079 65.616272 
L 69.037438 64.976821 
L 69.091797 64.896971 
L 69.146156 64.131974 
L 69.200515 64.297486 
L 69.254874 65.827383 
L 69.309233 64.270156 
L 69.47231 64.785262 
L 69.526669 64.512835 
L 69.581028 64.754134 
L 69.635387 64.753825 
L 69.689746 65.427415 
L 69.798463 63.11935 
L 69.852822 65.00268 
L 69.907181 64.230388 
L 69.96154 64.780613 
L 70.070258 63.196086 
L 70.124617 65.085741 
L 70.178976 64.349931 
L 70.233335 63.851595 
L 70.287694 65.830625 
L 70.342053 64.035036 
L 70.396412 63.467689 
L 70.450771 64.554405 
L 70.505129 64.232973 
L 70.559488 63.978891 
L 70.613847 65.59932 
L 70.668206 63.868985 
L 70.722565 63.908855 
L 70.776924 65.725723 
L 70.831283 64.376738 
L 70.940001 65.669456 
L 70.99436 64.626596 
L 71.048719 64.887164 
L 71.103078 65.865167 
L 71.157437 63.868741 
L 71.211796 65.206813 
L 71.266154 66.711895 
L 71.320513 64.141813 
L 71.374872 64.248157 
L 71.429231 64.927728 
L 71.48359 64.882591 
L 71.537949 64.72495 
L 71.592308 64.754288 
L 71.646667 65.114682 
L 71.701026 64.534261 
L 71.755385 66.714048 
L 71.809744 64.792409 
L 71.864103 64.321182 
L 71.918462 64.783994 
L 71.972821 65.021481 
L 72.027179 63.824387 
L 72.081538 64.002953 
L 72.135897 63.924702 
L 72.190256 64.244932 
L 72.244615 65.727718 
L 72.298974 65.335642 
L 72.353333 63.835269 
L 72.407692 65.32133 
L 72.51641 63.97808 
L 72.570769 64.020934 
L 72.625128 65.664195 
L 72.679487 65.63726 
L 72.733846 65.174558 
L 72.788204 65.970289 
L 72.951281 63.353583 
L 73.00564 63.377029 
L 73.059999 65.396101 
L 73.114358 63.021255 
L 73.168717 66.169046 
L 73.223076 64.374368 
L 73.277435 64.065991 
L 73.331794 64.292049 
L 73.386153 65.332906 
L 73.440512 62.10963 
L 73.494871 65.468642 
L 73.549229 64.046231 
L 73.603588 65.442774 
L 73.712306 62.854634 
L 73.766665 64.064214 
L 73.821024 65.506375 
L 73.875383 64.41606 
L 73.929742 65.170033 
L 73.984101 63.556892 
L 74.03846 66.625054 
L 74.092819 63.996204 
L 74.147178 65.819154 
L 74.201537 64.506874 
L 74.255896 64.035053 
L 74.310254 64.24793 
L 74.364613 65.193718 
L 74.418972 63.708998 
L 74.473331 65.729579 
L 74.52769 63.632509 
L 74.582049 65.170214 
L 74.636408 64.771656 
L 74.690767 63.359856 
L 74.745126 65.816977 
L 74.799485 65.332486 
L 74.853844 64.979837 
L 74.908203 65.673268 
L 75.071279 63.912352 
L 75.125638 66.448754 
L 75.179997 64.778703 
L 75.234356 65.977376 
L 75.288715 65.038411 
L 75.343074 65.328383 
L 75.397433 64.743473 
L 75.451792 66.501362 
L 75.56051 63.381918 
L 75.614869 65.731738 
L 75.669228 64.762751 
L 75.723587 65.400732 
L 75.777946 64.191431 
L 75.832304 66.036108 
L 75.886663 65.272096 
L 75.941022 64.194321 
L 76.04974 65.976621 
L 76.212817 63.955001 
L 76.267176 64.402764 
L 76.321535 66.420392 
L 76.375894 64.519356 
L 76.430253 64.188111 
L 76.484612 65.406357 
L 76.538971 63.706508 
L 76.593329 65.86153 
L 76.647688 65.768733 
L 76.702047 64.6093 
L 76.756406 65.498643 
L 76.810765 66.26823 
L 76.865124 65.485454 
L 76.973842 64.157274 
L 77.08256 65.16554 
L 77.136919 64.509452 
L 77.245637 65.904079 
L 77.354354 63.404104 
L 77.408713 63.582081 
L 77.463072 65.541577 
L 77.517431 65.156438 
L 77.626149 64.353623 
L 77.680508 64.503563 
L 77.734867 65.788132 
L 77.789226 63.889834 
L 77.843585 64.348778 
L 77.897944 65.760639 
L 77.952303 63.81205 
L 78.006662 64.614187 
L 78.061021 64.297797 
L 78.115379 64.806595 
L 78.169738 62.942248 
L 78.224097 64.137013 
L 78.278456 63.555131 
L 78.387174 66.256095 
L 78.441533 66.04717 
L 78.495892 64.111078 
L 78.550251 65.42023 
L 78.658969 65.6501 
L 78.713328 64.910409 
L 78.767687 66.918491 
L 78.822046 63.685228 
L 78.876404 66.309008 
L 78.985122 63.914672 
L 79.148199 66.386548 
L 79.419994 64.606618 
L 79.528712 62.81373 
L 79.637429 66.372101 
L 79.691788 63.566123 
L 79.746147 63.798424 
L 79.800506 63.88273 
L 79.854865 65.745338 
L 79.909224 64.138348 
L 79.963583 64.194297 
L 80.017942 66.385091 
L 80.072301 65.740996 
L 80.181019 63.947382 
L 80.235378 65.477935 
L 80.289737 65.179085 
L 80.344096 65.302812 
L 80.452813 64.01066 
L 80.561531 64.371963 
L 80.61589 64.502612 
L 80.724608 65.366854 
L 80.833326 64.304547 
L 80.887685 64.737516 
L 80.942044 65.569132 
L 81.050762 64.11326 
L 81.105121 65.020203 
L 81.15948 64.523107 
L 81.213838 63.113186 
L 81.376915 66.139661 
L 81.431274 62.983228 
L 81.485633 65.101035 
L 81.539992 64.214951 
L 81.64871 64.235138 
L 81.703069 63.598665 
L 81.757428 65.08028 
L 81.811787 63.080905 
L 81.920505 66.350551 
L 81.974863 65.585134 
L 82.029222 62.574719 
L 82.083581 64.970357 
L 82.192299 62.523746 
L 82.301017 64.768908 
L 82.355376 63.615211 
L 82.409735 64.971392 
L 82.464094 64.754495 
L 82.518453 63.432289 
L 82.68153 66.932775 
L 82.735888 63.660788 
L 82.790247 65.065768 
L 82.898965 64.109909 
L 82.953324 64.624524 
L 83.062042 64.697484 
L 83.116401 67.184723 
L 83.17076 66.026961 
L 83.225119 63.973832 
L 83.279478 64.144815 
L 83.333837 64.825497 
L 83.388196 64.239075 
L 83.496913 63.46262 
L 83.551272 65.532745 
L 83.605631 62.826873 
L 83.65999 63.465405 
L 83.823067 65.351641 
L 84.040503 63.039052 
L 84.20358 65.885133 
L 84.312297 63.143773 
L 84.475374 65.209669 
L 84.529733 63.084174 
L 84.584092 64.601291 
L 84.638451 63.653586 
L 84.69281 64.303756 
L 84.747169 65.473821 
L 84.855887 62.023944 
L 84.964605 67.436981 
L 85.018963 66.251626 
L 85.073322 64.017502 
L 85.127681 64.40891 
L 85.290758 65.620759 
L 85.508194 62.614184 
L 85.671271 67.881882 
L 85.834347 64.247884 
L 85.888706 65.930584 
L 85.943065 65.655692 
L 86.051783 64.608584 
L 86.106142 64.672837 
L 86.21486 65.748047 
L 86.269219 64.18106 
L 86.323578 64.412354 
L 86.377937 64.65594 
L 86.432296 65.766941 
L 86.486655 64.018081 
L 86.541013 65.664661 
L 86.595372 65.627585 
L 86.649731 66.073319 
L 86.70409 64.370419 
L 86.812808 64.446056 
L 86.921526 65.676386 
L 86.975885 61.84066 
L 87.030244 65.66223 
L 87.193321 63.769476 
L 87.302038 67.439745 
L 87.356397 63.596178 
L 87.410756 64.946894 
L 87.519474 65.692753 
L 87.573833 63.792546 
L 87.628192 65.006816 
L 87.682551 64.070793 
L 87.791269 66.624816 
L 87.845628 64.28602 
L 87.899987 65.253225 
L 87.954346 66.223193 
L 88.008705 62.81971 
L 88.063063 65.096947 
L 88.117422 66.340742 
L 88.22614 61.747822 
L 88.334858 65.944551 
L 88.389217 65.096754 
L 88.443576 66.547641 
L 88.552294 62.331014 
L 88.606653 66.305507 
L 88.661012 64.894274 
L 88.715371 63.421488 
L 88.76973 64.690322 
L 88.824088 65.544681 
L 88.878447 62.715528 
L 88.932806 67.418816 
L 88.987165 65.54484 
L 89.095883 64.535519 
L 89.150242 64.981125 
L 89.204601 67.637107 
L 89.25896 65.589309 
L 89.313319 64.79189 
L 89.367678 65.351277 
L 89.422037 66.864074 
L 89.530755 63.571184 
L 89.693831 65.878231 
L 89.74819 66.128046 
L 89.856908 64.138202 
L 89.911267 64.848525 
L 89.965626 64.806522 
L 90.019985 64.07187 
L 90.074344 65.124572 
L 90.128703 64.914583 
L 90.183062 64.790908 
L 90.237421 66.408839 
L 90.29178 64.624992 
L 90.346138 64.748448 
L 90.400497 67.278503 
L 90.509215 67.290061 
L 90.563574 63.948237 
L 90.726651 66.206354 
L 90.78101 65.603082 
L 90.835369 66.222845 
L 90.889728 67.199207 
L 91.052805 64.446995 
L 91.107163 66.021826 
L 91.215881 62.826586 
L 91.27024 64.085655 
L 91.378958 64.963477 
L 91.433317 62.265346 
L 91.487676 63.007771 
L 91.596394 66.468252 
L 91.650753 66.215076 
L 91.705112 65.722234 
L 91.759471 62.898061 
L 91.81383 65.887993 
L 91.868188 62.126825 
L 91.922547 66.177978 
L 91.976906 63.763892 
L 92.031265 65.564135 
L 92.139983 65.5345 
L 92.194342 67.071542 
L 92.248701 64.387134 
L 92.30306 66.249246 
L 92.357419 65.032155 
L 92.411778 66.831094 
L 92.466137 66.157156 
L 92.520496 63.896519 
L 92.574855 66.960351 
L 92.629213 65.839031 
L 92.683572 65.61491 
L 92.737931 66.309652 
L 92.79229 64.139002 
L 92.846649 65.35776 
L 92.901008 64.779419 
L 92.955367 65.488091 
L 93.064085 62.728784 
L 93.118444 65.02339 
L 93.172803 64.275986 
L 93.227162 64.85974 
L 93.281521 63.181062 
L 93.444597 66.928426 
L 93.662033 63.360593 
L 93.770751 65.525732 
L 93.82511 61.414288 
L 93.879469 64.062708 
L 93.933828 65.268474 
L 93.988187 62.788437 
L 94.042546 64.344006 
L 94.096905 66.45697 
L 94.151263 64.518475 
L 94.205622 66.326307 
L 94.259981 65.377581 
L 94.31434 66.064835 
L 94.423058 63.414341 
L 94.477417 64.538351 
L 94.531776 67.549614 
L 94.586135 63.942214 
L 94.640494 65.502911 
L 94.803571 63.944997 
L 94.912288 66.047886 
L 94.966647 63.618718 
L 95.075365 63.667357 
L 95.129724 62.48733 
L 95.34716 68.214122 
L 95.401519 63.193843 
L 95.455878 64.762138 
L 95.510237 65.378642 
L 95.564596 65.242957 
L 95.618955 63.202305 
L 95.673313 63.447685 
L 95.782031 67.187294 
L 95.945108 62.947643 
L 95.999467 62.13521 
L 96.053826 65.183838 
L 96.108185 64.905967 
L 96.162544 63.709735 
L 96.216903 64.174951 
L 96.271262 64.19698 
L 96.325621 64.816985 
L 96.37998 63.706033 
L 96.434338 64.763319 
L 96.488697 66.365373 
L 96.543056 64.116044 
L 96.597415 68.286328 
L 96.651774 66.696636 
L 96.706133 63.813511 
L 96.760492 64.453322 
L 96.86921 66.051908 
L 96.977928 64.3782 
L 97.032287 64.617289 
L 97.086646 67.479266 
L 97.141005 63.327922 
L 97.195364 64.815375 
L 97.249722 64.083858 
L 97.304081 64.307773 
L 97.412799 63.81512 
L 97.467158 64.219728 
L 97.521517 66.012709 
L 97.575876 64.547918 
L 97.630235 65.719164 
L 97.684594 63.791243 
L 97.738953 64.324495 
L 97.793312 65.00966 
L 97.90203 62.950568 
L 97.956389 64.166242 
L 98.010747 63.501702 
L 98.065106 62.397447 
L 98.282542 65.588761 
L 98.336901 63.476568 
L 98.39126 64.68318 
L 98.499978 66.40316 
L 98.663055 64.399631 
L 98.717414 64.884528 
L 98.771772 64.30428 
L 98.88049 65.785745 
L 98.989208 64.035114 
L 99.097926 65.627877 
L 99.152285 60.710672 
L 99.206644 64.173186 
L 99.261003 65.641794 
L 99.315362 64.297202 
L 99.369721 64.049162 
L 99.478439 65.97623 
L 99.532797 64.731027 
L 99.587156 63.575573 
L 99.641515 65.239387 
L 99.695874 63.390173 
L 99.750233 65.68702 
L 99.804592 63.645304 
L 99.967669 64.10188 
L 100.022028 65.582816 
L 100.076387 64.118639 
L 100.239464 65.653187 
L 100.293822 65.230725 
L 100.348181 65.15997 
L 100.40254 63.468238 
L 100.511258 66.751651 
L 100.674335 63.062609 
L 100.783053 66.084235 
L 100.837412 64.180821 
L 100.891771 65.952104 
L 101.054847 64.003344 
L 101.272283 66.782317 
L 101.381001 64.309522 
L 101.43536 66.706418 
L 101.489719 61.920115 
L 101.544078 65.916216 
L 101.598437 67.232986 
L 101.761514 63.775887 
L 101.815872 65.227023 
L 101.870231 63.558201 
L 101.92459 63.81415 
L 101.978949 64.947366 
L 102.033308 61.844578 
L 102.087667 63.432983 
L 102.142026 63.507779 
L 102.250744 65.66838 
L 102.305103 63.76539 
L 102.359462 64.027693 
L 102.413821 65.774879 
L 102.46818 62.799258 
L 102.522539 63.691053 
L 102.576897 64.046981 
L 102.631256 65.980735 
L 102.685615 65.55134 
L 102.794333 63.695129 
L 103.011769 66.818746 
L 103.174846 63.15967 
L 103.229205 65.602519 
L 103.283564 62.994598 
L 103.337922 66.337471 
L 103.392281 63.952548 
L 103.44664 63.884134 
L 103.500999 65.156709 
L 103.555358 64.471827 
L 103.609717 63.731769 
L 103.664076 64.674937 
L 103.718435 62.499313 
L 103.881512 65.308168 
L 103.935871 64.568793 
L 103.99023 65.420831 
L 104.098947 63.717083 
L 104.153306 66.466 
L 104.207665 63.885642 
L 104.316383 65.468561 
L 104.47946 63.60359 
L 104.533819 65.918582 
L 104.588178 63.711489 
L 104.642537 64.088869 
L 104.805614 65.934866 
L 104.96869 63.363729 
L 105.023049 67.139721 
L 105.077408 65.016249 
L 105.131767 66.525069 
L 105.186126 65.001474 
L 105.240485 63.457645 
L 105.294844 64.864838 
L 105.403562 66.049445 
L 105.51228 62.893439 
L 105.566639 65.790365 
L 105.620997 64.944909 
L 105.675356 63.388591 
L 105.838433 66.514914 
L 105.892792 62.781168 
L 105.947151 64.338164 
L 106.110228 63.086585 
L 106.164587 64.669764 
L 106.218946 64.21056 
L 106.273305 62.083138 
L 106.327664 63.378189 
L 106.49074 66.984858 
L 106.545099 65.876541 
L 106.653817 65.314171 
L 106.708176 66.089044 
L 106.816894 61.580292 
L 106.871253 62.123463 
L 106.925612 64.854274 
L 106.979971 63.520657 
L 107.03433 64.402778 
L 107.088689 63.294197 
L 107.251765 65.413521 
L 107.306124 64.716482 
L 107.360483 64.74206 
L 107.414842 65.733932 
L 107.469201 64.58503 
L 107.52356 65.876365 
L 107.577919 65.16931 
L 107.632278 63.762303 
L 107.686637 64.345242 
L 107.795355 66.859815 
L 107.904072 64.643516 
L 107.958431 65.688134 
L 108.01279 64.818805 
L 108.067149 64.416899 
L 108.175867 65.06105 
L 108.338944 64.095547 
L 108.393303 64.392093 
L 108.447662 65.968473 
L 108.502021 65.962619 
L 108.55638 63.174931 
L 108.610739 66.377014 
L 108.665097 63.630337 
L 108.773815 65.497962 
L 108.828174 63.457908 
L 108.882533 65.263651 
L 108.936892 65.113571 
L 109.154328 62.438187 
L 109.317405 64.717426 
L 109.426122 64.024831 
L 109.480481 64.325096 
L 109.53484 64.147175 
L 109.643558 63.281764 
L 109.697917 64.085116 
L 109.752276 62.511196 
L 109.806635 63.960837 
L 109.860994 64.745801 
L 109.915353 64.21062 
L 109.969712 63.821819 
L 110.024071 65.279999 
L 110.07843 65.257923 
L 110.241506 63.461887 
L 110.350224 62.805085 
L 110.513301 65.141465 
L 110.56766 64.746181 
L 110.622019 63.060444 
L 110.676378 65.882612 
L 110.730737 65.293743 
L 110.785096 65.037504 
L 110.839455 62.88222 
L 110.893814 65.121877 
L 111.002531 64.689768 
L 111.05689 63.795461 
L 111.219967 65.743387 
L 111.328685 65.073032 
L 111.383044 66.672399 
L 111.491762 63.50649 
L 111.546121 65.193721 
L 111.60048 63.755605 
L 111.654839 63.808508 
L 111.817915 65.729259 
L 111.926633 64.472062 
L 111.980992 65.434439 
L 112.035351 65.100108 
L 112.08971 63.505471 
L 112.144069 64.386009 
L 112.198428 63.880486 
L 112.252787 65.745999 
L 112.307146 64.507157 
L 112.415864 65.130911 
L 112.524581 63.985105 
L 112.57894 64.346464 
L 112.633299 67.149086 
L 112.687658 65.18886 
L 112.742017 63.928567 
L 112.905094 66.723226 
L 112.959453 66.231593 
L 113.013812 64.425737 
L 113.12253 64.466387 
L 113.176889 64.815555 
L 113.231248 63.89806 
L 113.285606 64.175295 
L 113.339965 65.937247 
L 113.394324 65.760004 
L 113.503042 64.530622 
L 113.557401 64.729356 
L 113.61176 63.586807 
L 113.666119 64.058527 
L 113.774837 65.475719 
L 113.829196 63.375226 
L 113.883555 63.992386 
L 113.937914 65.144196 
L 113.992273 62.951276 
L 114.046631 63.452988 
L 114.10099 63.529209 
L 114.155349 64.746322 
L 114.209708 64.165244 
L 114.264067 64.16648 
L 114.318426 64.734157 
L 114.372785 63.696805 
L 114.427144 65.884495 
L 114.481503 64.756758 
L 114.535862 63.240879 
L 114.590221 65.312566 
L 114.64458 65.10816 
L 114.698939 65.121072 
L 114.753298 63.643089 
L 114.807656 64.310113 
L 114.862015 63.723242 
L 114.916374 65.795556 
L 114.970733 63.63879 
L 115.13381 65.518552 
L 115.188169 64.213017 
L 115.242528 65.441186 
L 115.296887 65.515268 
L 115.351246 64.962428 
L 115.405605 65.659344 
L 115.459964 64.591564 
L 115.514323 65.454396 
L 115.62304 63.913004 
L 115.731758 64.995843 
L 115.786117 63.167965 
L 115.894835 65.175484 
L 116.003553 63.591409 
L 116.16663 65.180723 
L 116.220989 65.978951 
L 116.329706 63.884127 
L 116.384065 64.170598 
L 116.438424 63.629943 
L 116.601501 66.366021 
L 116.710219 64.31923 
L 116.764578 64.561441 
L 116.818937 64.346794 
L 116.873296 64.396146 
L 116.927655 65.917666 
L 116.982014 65.437191 
L 117.036373 65.490104 
L 117.090731 63.885156 
L 117.14509 65.532026 
L 117.199449 65.334172 
L 117.253808 63.901035 
L 117.308167 64.841852 
L 117.416885 64.832572 
L 117.471244 65.222012 
L 117.525603 64.065159 
L 117.579962 64.865354 
L 117.634321 65.333593 
L 117.68868 64.445344 
L 117.743039 65.644716 
L 117.797398 64.977197 
L 117.851756 64.48172 
L 117.906115 65.525829 
L 117.960474 64.760848 
L 118.014833 64.616084 
L 118.069192 64.671357 
L 118.123551 64.840182 
L 118.286628 66.175071 
L 118.340987 64.222821 
L 118.395346 65.561195 
L 118.449705 65.95691 
L 118.504064 64.183845 
L 118.558423 64.722 
L 118.612781 64.990128 
L 118.66714 63.963208 
L 118.721499 64.201273 
L 118.775858 65.359913 
L 118.830217 64.107492 
L 118.884576 65.708218 
L 118.938935 64.975591 
L 119.047653 64.033175 
L 119.156371 65.456326 
L 119.265089 64.081622 
L 119.319448 65.53641 
L 119.373806 65.230773 
L 119.428165 64.634228 
L 119.482524 64.701716 
L 119.591242 64.595811 
L 119.645601 64.318951 
L 119.69996 64.344057 
L 119.754319 65.454678 
L 119.808678 63.593887 
L 119.863037 64.407054 
L 119.917396 64.910767 
L 119.971755 63.512237 
L 120.134831 65.324009 
L 120.297908 63.28748 
L 120.406626 64.861138 
L 120.460985 64.621915 
L 120.515344 65.162015 
L 120.569703 64.973362 
L 120.678421 64.154076 
L 120.787139 65.51096 
L 120.841498 65.389943 
L 121.004574 64.163763 
L 121.113292 65.132894 
L 121.167651 64.56249 
L 121.22201 65.428614 
L 121.385087 63.750226 
L 121.493805 65.449775 
L 121.548164 64.744943 
L 121.602523 64.546044 
L 121.71124 65.547476 
L 121.765599 64.44184 
L 121.819958 65.235529 
L 121.874317 64.643909 
L 121.928676 65.382623 
L 121.983035 63.909532 
L 122.037394 64.968544 
L 122.146112 65.591272 
L 122.25483 63.863812 
L 122.309189 64.433795 
L 122.363548 65.320173 
L 122.417906 64.720756 
L 122.526624 65.459082 
L 122.635342 64.462174 
L 122.74406 65.034364 
L 122.798419 64.61868 
L 122.852778 64.727255 
L 122.907137 64.651998 
L 123.015855 65.214217 
L 123.178931 64.584593 
L 123.23329 65.16623 
L 123.287649 64.905782 
L 123.342008 64.460191 
L 123.396367 64.647664 
L 123.450726 64.680018 
L 123.505085 64.34021 
L 123.559444 64.946517 
L 123.613803 64.639526 
L 123.722521 64.74091 
L 123.77688 64.298156 
L 123.831239 65.004546 
L 123.885598 64.943646 
L 123.939956 64.894936 
L 123.994315 64.447176 
L 124.048674 64.572604 
L 124.103033 64.47626 
L 124.211751 65.425105 
L 124.26611 64.527536 
L 124.320469 64.694222 
L 124.374828 64.822648 
L 124.429187 64.502113 
L 124.483546 65.05089 
L 124.537905 64.975222 
L 124.700981 64.705917 
L 124.75534 64.964852 
L 124.809699 64.761176 
L 124.918417 64.710246 
L 125.027135 64.561634 
L 125.244571 64.66661 
L 125.29893 65.232542 
L 125.353289 64.665559 
L 125.407648 64.394757 
L 125.462006 65.14246 
L 125.516365 64.840732 
L 125.733801 64.429644 
L 125.896878 64.990565 
L 126.059955 64.542392 
L 126.168673 64.991833 
L 126.223031 64.748289 
L 126.494826 64.661387 
L 126.549185 64.806349 
L 126.603544 64.765739 
L 126.657903 64.586715 
L 126.712262 64.609062 
L 126.875339 64.80022 
L 126.984056 64.700274 
L 127.038415 64.767794 
L 127.092774 64.818394 
L 127.147133 64.747265 
L 127.255851 64.730205 
L 127.31021 64.670848 
L 127.364569 64.722984 
L 127.636364 64.72421 
L 127.636364 64.72421 
" clip-path="url(#p8a08ca111b)" style="fill: none; stroke: #66c2a5; stroke-width: 1.5; stroke-linecap: square"/>
   </g>
   <g id="patch_3">
    <path d="M 10.8 133.2 
L 10.8 10.8 
" style="fill: none; stroke: #000000; stroke-width: 0.8; stroke-linejoin: miter; stroke-linecap: square"/>
   </g>
   <g id="patch_4">
    <path d="M 133.2 133.2 
L 133.2 10.8 
" style="fill: none; stroke: #000000; stroke-width: 0.8; stroke-linejoin: miter; stroke-linecap: square"/>
   </g>
   <g id="patch_5">
    <path d="M 10.8 133.2 
L 133.2 133.2 
" style="fill: none; stroke: #000000; stroke-width: 0.8; stroke-linejoin: miter; stroke-linecap: square"/>
   </g>
   <g id="patch_6">
    <path d="M 10.8 10.8 
L 133.2 10.8 
" style="fill: none; stroke: #000000; stroke-width: 0.8; stroke-linejoin: miter; stroke-linecap: square"/>
   </g>
  </g>
 </g>
 <defs>
  <clipPath id="p8a08ca111b">
   <rect x="10.8" y="10.8" width="122.4" height="122.4"/>
  </clipPath>
 </defs>
</svg>
