<?xml version="1.0" encoding="utf-8" standalone="no"?>
<!DOCTYPE svg PUBLIC "-//W3C//DTD SVG 1.1//EN"
  "http://www.w3.org/Graphics/SVG/1.1/DTD/svg11.dtd">
<svg xmlns:xlink="http://www.w3.org/1999/xlink" width="144pt" height="144pt" viewBox="0 0 144 144" xmlns="http://www.w3.org/2000/svg" version="1.1">
 <metadata>
  <rdf:RDF xmlns:dc="http://purl.org/dc/elements/1.1/" xmlns:cc="http://creativecommons.org/ns#" xmlns:rdf="http://www.w3.org/1999/02/22-rdf-syntax-ns#">
   <cc:Work>
    <dc:type rdf:resource="http://purl.org/dc/dcmitype/StillImage"/>
    <dc:date>2025-02-11T14:44:00.728101</dc:date>
    <dc:format>image/svg+xml</dc:format>
    <dc:creator>
     <cc:Agent>
      <dc:title>Matplotlib v3.8.0, https://matplotlib.org/</dc:title>
     </cc:Agent>
    </dc:creator>
   </cc:Work>
  </rdf:RDF>
 </metadata>
 <defs>
  <style type="text/css">*{stroke-linejoin: round; stroke-linecap: butt}</style>
 </defs>
 <g id="figure_1">
  <g id="patch_1">
   <path d="M 0 144 
L 144 144 
L 144 0 
L 0 0 
L 0 144 
z
" style="fill: none"/>
  </g>
  <g id="axes_1">
   <g id="patch_2">
    <path d="M 10.8 133.2 
L 133.2 133.2 
L 133.2 10.8 
L 10.8 10.8 
L 10.8 133.2 
z
" style="fill: none"/>
   </g>
   <g id="matplotlib.axis_1"/>
   <g id="matplotlib.axis_2"/>
   <g id="line2d_1">
    <path d="M 16.363636 59.375188 
L 16.417995 94.257988 
L 16.472354 86.376116 
L 16.526713 60.148849 
L 16.581072 79.098053 
L 16.635431 97.860506 
L 16.68979 86.692363 
L 16.744149 91.518783 
L 16.798508 61.51086 
L 16.852867 74.230373 
L 16.907226 73.782506 
L 16.961585 103.886279 
L 17.015944 83.650779 
L 17.070302 74.582996 
L 17.124661 90.669795 
L 17.17902 82.255966 
L 17.233379 60.632166 
L 17.287738 63.492749 
L 17.342097 84.571142 
L 17.396456 79.731232 
L 17.505174 81.976362 
L 17.559533 94.706268 
L 17.613892 62.253487 
L 17.668251 73.196489 
L 17.776969 72.714933 
L 17.831327 106.549505 
L 17.994404 80.320271 
L 18.048763 94.62356 
L 18.103122 66.794051 
L 18.157481 94.635123 
L 18.320558 66.239843 
L 18.266199 94.877971 
L 18.374917 72.984404 
L 18.429276 104.412577 
L 18.483635 70.704386 
L 18.537994 79.32285 
L 18.70107 99.626624 
L 18.809788 76.605294 
L 18.918506 103.501083 
L 18.972865 54.678106 
L 19.027224 72.750626 
L 19.081583 116.645858 
L 19.135942 91.029888 
L 19.190301 43.443878 
L 19.24466 76.372834 
L 19.516454 126.677244 
L 19.625172 48.534383 
L 19.73389 95.26902 
L 19.788249 81.002228 
L 19.842608 86.755407 
L 19.896967 103.238556 
L 19.951326 96.668563 
L 20.168761 77.45124 
L 20.277479 76.814465 
L 20.331838 100.578544 
L 20.386197 85.53814 
L 20.440556 99.445671 
L 20.494915 86.619159 
L 20.549274 95.000539 
L 20.603633 100.531528 
L 20.657992 64.099942 
L 20.712351 93.958215 
L 20.76671 72.0823 
L 20.821069 90.215953 
L 20.875427 111.243716 
L 20.929786 93.145139 
L 21.038504 67.689401 
L 21.25594 111.062281 
L 21.310299 89.69519 
L 21.364658 91.062362 
L 21.419017 105.445796 
L 21.527735 67.037843 
L 21.582094 75.349281 
L 21.690811 85.118174 
L 21.853888 60.16171 
L 21.962606 94.54053 
L 22.016965 63.020883 
L 22.125683 118.523087 
L 22.180042 83.073356 
L 22.234401 103.31678 
L 22.28876 92.069811 
L 22.343119 104.904397 
L 22.397477 88.562675 
L 22.451836 98.598883 
L 22.506195 113.993138 
L 22.560554 61.628238 
L 22.614913 63.761749 
L 22.669272 100.281926 
L 22.723631 83.655551 
L 22.77799 91.287877 
L 22.832349 90.364172 
L 23.049785 63.832529 
L 23.158502 99.293468 
L 23.321579 64.07988 
L 23.430297 108.408611 
L 23.484656 48.008735 
L 23.539015 74.530075 
L 23.593374 93.548004 
L 23.647733 82.099161 
L 23.756451 62.302284 
L 23.81081 115.288263 
L 23.865169 92.14762 
L 23.919527 100.619645 
L 23.973886 48.345526 
L 24.028245 82.13177 
L 24.082604 72.866641 
L 24.136963 112.415071 
L 24.245681 112.113533 
L 24.30004 56.198804 
L 24.354399 71.351645 
L 24.517476 104.591262 
L 24.571835 46.242049 
L 24.626194 61.732926 
L 24.680552 77.226068 
L 24.734911 70.709377 
L 24.952347 96.148014 
L 25.006706 75.513905 
L 25.061065 89.124175 
L 25.115424 88.224202 
L 25.169783 109.184952 
L 25.278501 68.051297 
L 25.33286 77.55973 
L 25.387219 126.827922 
L 25.441577 109.398443 
L 25.495936 77.689135 
L 25.550295 83.858439 
L 25.604654 89.906854 
L 25.659013 67.384582 
L 25.713372 80.998861 
L 25.767731 101.763754 
L 25.82209 76.420601 
L 25.876449 98.363571 
L 26.039526 77.263172 
L 26.093885 101.596202 
L 26.148244 65.03402 
L 26.202602 107.779087 
L 26.256961 99.276948 
L 26.365679 91.396804 
L 26.420038 93.203838 
L 26.528756 75.396982 
L 26.583115 89.684466 
L 26.637474 77.81802 
L 26.691833 64.810823 
L 26.746192 69.970994 
L 26.800551 112.616242 
L 26.85491 98.89555 
L 27.017986 63.146799 
L 27.072345 99.460341 
L 27.126704 76.798217 
L 27.181063 84.177692 
L 27.235422 70.60562 
L 27.398499 103.979466 
L 27.452858 65.870711 
L 27.507217 94.720111 
L 27.670294 71.830195 
L 27.724652 102.477962 
L 27.779011 98.468619 
L 27.83337 95.036718 
L 27.887729 77.285878 
L 28.050806 122.817255 
L 28.213883 57.66073 
L 28.268242 81.34444 
L 28.322601 65.942147 
L 28.431319 92.301515 
L 28.485677 88.850078 
L 28.540036 64.482288 
L 28.594395 65.043278 
L 28.648754 90.363665 
L 28.703113 78.128914 
L 28.811831 67.926007 
L 28.86619 99.028932 
L 28.920549 82.795062 
L 28.974908 61.149977 
L 29.029267 61.980239 
L 29.192344 99.538737 
L 29.246702 94.787878 
L 29.35542 60.956725 
L 29.518497 113.513796 
L 29.572856 76.048537 
L 29.627215 99.855693 
L 29.681574 104.448738 
L 29.735933 71.431337 
L 29.790292 95.157151 
L 30.007727 65.134038 
L 30.062086 109.190925 
L 30.116445 85.140691 
L 30.279522 55.064962 
L 30.442599 97.85027 
L 30.605676 70.30875 
L 30.660035 79.135599 
L 30.768752 59.337907 
L 30.823111 86.910598 
L 30.87747 16.321558 
L 30.986188 107.516317 
L 31.149265 83.003708 
L 31.203624 80.099027 
L 31.257983 64.81175 
L 31.312342 90.084153 
L 31.366701 77.418405 
L 31.42106 69.641193 
L 31.475419 75.218779 
L 31.584136 83.043212 
L 31.638495 119.897646 
L 31.692854 93.024728 
L 31.747213 101.595474 
L 31.91029 61.675356 
L 31.964649 98.772016 
L 32.073367 97.900466 
L 32.127726 110.511305 
L 32.236444 93.694659 
L 32.345161 126.778277 
L 32.508238 69.293451 
L 32.562597 76.792084 
L 32.616956 61.355313 
L 32.671315 102.230405 
L 32.725674 68.492917 
L 32.834392 114.065205 
L 32.997469 66.662321 
L 33.051828 99.173132 
L 33.106186 92.547722 
L 33.160545 93.812303 
L 33.214904 69.3964 
L 33.269263 84.288331 
L 33.323622 71.053575 
L 33.377981 80.079873 
L 33.486699 108.312608 
L 33.541058 73.749084 
L 33.595417 81.160068 
L 33.649776 80.388708 
L 33.758494 108.787291 
L 33.812853 58.521282 
L 33.867211 93.503327 
L 33.92157 109.683442 
L 34.030288 63.675648 
L 34.084647 73.928084 
L 34.139006 108.500275 
L 34.193365 79.360255 
L 34.247724 69.331757 
L 34.302083 106.964915 
L 34.356442 66.833514 
L 34.410801 75.921667 
L 34.46516 100.849806 
L 34.519519 82.787595 
L 34.682595 106.009661 
L 34.736954 47.343048 
L 34.791313 71.627965 
L 34.95439 96.759382 
L 35.008749 96.748746 
L 35.063108 52.036191 
L 35.117467 100.363007 
L 35.171826 71.004581 
L 35.280544 121.817575 
L 35.389261 50.49837 
L 35.552338 110.028284 
L 35.769774 72.864565 
L 35.824133 62.513267 
L 35.878492 114.369382 
L 35.932851 111.684934 
L 36.204645 47.586498 
L 36.313363 92.352 
L 36.367722 62.101374 
L 36.47644 62.474734 
L 36.585158 111.250454 
L 36.639517 109.697025 
L 36.693876 90.884247 
L 36.748235 118.56773 
L 36.802594 75.585516 
L 36.856953 101.178126 
L 36.911311 96.635526 
L 36.96567 103.728027 
L 37.020029 78.372231 
L 37.074388 110.070541 
L 37.128747 94.122116 
L 37.183106 62.671606 
L 37.237465 84.258031 
L 37.346183 100.790118 
L 37.400542 86.851026 
L 37.454901 109.796745 
L 37.50926 100.969301 
L 37.617978 73.398601 
L 37.672336 84.755294 
L 37.726695 102.593842 
L 37.781054 72.0558 
L 37.835413 97.546116 
L 37.944131 71.628002 
L 37.99849 73.324689 
L 38.052849 106.471442 
L 38.107208 91.840001 
L 38.161567 93.954192 
L 38.215926 77.031838 
L 38.324644 97.972856 
L 38.48772 55.280522 
L 38.542079 65.912599 
L 38.596438 113.944762 
L 38.650797 88.694774 
L 38.705156 90.602125 
L 38.868233 62.983798 
L 38.922592 79.875895 
L 38.976951 65.601937 
L 39.085669 82.32484 
L 39.140028 66.075949 
L 39.194386 71.40369 
L 39.248745 109.674867 
L 39.303104 74.674295 
L 39.411822 98.808046 
L 39.466181 78.302109 
L 39.52054 98.044713 
L 39.574899 108.338639 
L 39.629258 62.818652 
L 39.683617 75.679989 
L 39.792335 66.43096 
L 39.846694 92.116995 
L 39.901053 68.936868 
L 40.118488 87.406789 
L 40.172847 80.210729 
L 40.227206 84.162631 
L 40.281565 86.38539 
L 40.335924 60.808929 
L 40.499001 104.664508 
L 40.607719 82.382235 
L 40.662078 95.856783 
L 40.825154 68.499118 
L 40.933872 100.473245 
L 41.04259 88.049269 
L 41.151308 109.300842 
L 41.314385 64.735293 
L 41.423103 83.492823 
L 41.586179 106.567576 
L 41.640538 76.294203 
L 41.694897 84.20439 
L 41.749256 94.583223 
L 41.803615 89.087765 
L 41.912333 95.815511 
L 42.129769 67.744478 
L 42.184128 94.123402 
L 42.238486 59.529552 
L 42.292845 99.195374 
L 42.347204 55.138282 
L 42.401563 90.94639 
L 42.455922 73.460471 
L 42.510281 119.770463 
L 42.56464 99.857305 
L 42.618999 70.089625 
L 42.727717 118.694414 
L 42.836435 82.661362 
L 42.890794 100.214275 
L 42.945153 66.719303 
L 42.999511 107.198007 
L 43.05387 85.712518 
L 43.108229 75.059019 
L 43.216947 123.96519 
L 43.271306 64.918749 
L 43.325665 90.459757 
L 43.380024 97.640304 
L 43.543101 46.192583 
L 43.706178 108.809534 
L 43.869254 86.838978 
L 43.923613 101.337529 
L 43.977972 93.098182 
L 44.032331 70.413623 
L 44.08669 98.293785 
L 44.141049 61.099682 
L 44.249767 61.546619 
L 44.412844 94.431437 
L 44.467203 74.94148 
L 44.521561 86.456581 
L 44.684638 69.548169 
L 44.847715 86.010483 
L 44.956433 80.727932 
L 45.065151 98.058258 
L 45.11951 72.937707 
L 45.173869 86.30443 
L 45.228228 75.022086 
L 45.336945 94.847216 
L 45.554381 21.543697 
L 45.60874 92.736688 
L 45.663099 73.450701 
L 45.826176 95.56977 
L 45.880535 85.479115 
L 45.934894 98.672664 
L 45.989253 65.395012 
L 46.043611 75.57906 
L 46.152329 99.942899 
L 46.206688 92.511276 
L 46.369765 68.525229 
L 46.424124 90.876375 
L 46.478483 71.578395 
L 46.532842 72.255274 
L 46.64156 102.785411 
L 46.695919 91.588667 
L 46.858995 76.131744 
L 46.967713 114.892419 
L 47.022072 91.10163 
L 47.076431 94.996505 
L 47.13079 93.093384 
L 47.239508 52.556463 
L 47.293867 93.859083 
L 47.348226 84.138863 
L 47.402585 83.976358 
L 47.456944 65.143644 
L 47.62002 100.50399 
L 47.674379 68.082971 
L 47.728738 70.782924 
L 47.837456 103.701717 
L 47.891815 82.68783 
L 47.946174 96.448025 
L 48.000533 87.133835 
L 48.054892 93.983762 
L 48.109251 89.803309 
L 48.16361 91.622845 
L 48.217969 103.400684 
L 48.326687 80.002504 
L 48.381045 98.278178 
L 48.489763 71.217318 
L 48.598481 85.898307 
L 48.65284 73.288899 
L 48.707199 103.827422 
L 48.761558 95.717072 
L 48.870276 78.330101 
L 48.924635 97.719389 
L 49.087712 72.389862 
L 49.196429 102.034559 
L 49.250788 74.783629 
L 49.305147 97.431714 
L 49.413865 63.391702 
L 49.468224 103.019244 
L 49.522583 87.445518 
L 49.576942 99.336124 
L 49.68566 68.704933 
L 49.740019 77.12262 
L 49.903095 107.953603 
L 49.957454 59.470211 
L 50.011813 83.087723 
L 50.066172 93.045304 
L 50.120531 85.591491 
L 50.229249 68.894782 
L 50.283608 93.538221 
L 50.337967 81.533716 
L 50.392326 87.720454 
L 50.446685 75.565681 
L 50.501044 86.322214 
L 50.609762 78.730806 
L 50.66412 82.289174 
L 50.718479 87.713841 
L 50.772838 60.795659 
L 50.827197 88.328862 
L 50.881556 79.393684 
L 51.044633 103.48031 
L 51.098992 77.695772 
L 51.153351 88.403716 
L 51.20771 94.042099 
L 51.262069 85.298574 
L 51.370787 97.843749 
L 51.425145 70.065191 
L 51.479504 76.919356 
L 51.588222 86.266141 
L 51.642581 117.435023 
L 51.69694 62.629874 
L 51.751299 73.621486 
L 51.860017 82.551321 
L 51.968735 68.142504 
L 52.023094 69.259628 
L 52.18617 97.268877 
L 52.294888 72.017014 
L 52.349247 84.477941 
L 52.457965 90.796403 
L 52.512324 79.33938 
L 52.566683 79.596409 
L 52.72976 91.38243 
L 52.838478 74.636537 
L 52.947195 89.162585 
L 53.001554 76.734085 
L 53.055913 95.927755 
L 53.110272 79.081453 
L 53.164631 63.308396 
L 53.21899 69.471362 
L 53.273349 68.42023 
L 53.327708 89.128193 
L 53.382067 72.433136 
L 53.436426 66.727033 
L 53.490785 100.159356 
L 53.545144 85.782936 
L 53.599503 85.000461 
L 53.653862 66.475258 
L 53.70822 76.709428 
L 53.816938 83.727398 
L 53.871297 77.93204 
L 53.980015 106.029015 
L 54.034374 64.684659 
L 54.088733 78.484356 
L 54.143092 89.513016 
L 54.197451 86.079131 
L 54.25181 69.604801 
L 54.306169 71.937737 
L 54.414887 95.429382 
L 54.469245 75.184595 
L 54.523604 92.754097 
L 54.577963 80.165029 
L 54.632322 102.480783 
L 54.686681 70.705283 
L 54.74104 100.104789 
L 54.795399 104.913714 
L 54.849758 82.426446 
L 54.904117 92.457126 
L 54.958476 95.40204 
L 55.012835 67.933409 
L 55.067194 87.206349 
L 55.121553 85.656758 
L 55.175912 106.98952 
L 55.23027 90.343522 
L 55.393347 81.063332 
L 55.447706 74.631142 
L 55.502065 95.862791 
L 55.556424 74.511161 
L 55.610783 78.461371 
L 55.665142 71.466428 
L 55.77386 92.136407 
L 55.828219 67.189068 
L 55.882578 78.100961 
L 55.936937 84.282592 
L 55.991295 76.838505 
L 56.045654 117.822483 
L 56.100013 94.738864 
L 56.154372 74.996089 
L 56.208731 80.104232 
L 56.26309 90.720811 
L 56.317449 88.819514 
L 56.426167 73.490552 
L 56.589244 95.205052 
L 56.643603 89.473674 
L 56.697962 102.507433 
L 56.75232 69.315393 
L 56.806679 88.34513 
L 56.861038 85.389114 
L 56.915397 98.387026 
L 56.969756 89.492994 
L 57.078474 50.554583 
L 57.132833 76.395456 
L 57.187192 95.956783 
L 57.241551 88.124543 
L 57.350269 70.26089 
L 57.404628 117.120075 
L 57.458987 110.841646 
L 57.513345 88.169548 
L 57.622063 89.097264 
L 57.730781 56.599723 
L 57.893858 102.373799 
L 57.948217 78.221855 
L 58.002576 83.380059 
L 58.056935 83.232029 
L 58.111294 80.543553 
L 58.165653 105.230126 
L 58.328729 75.805223 
L 58.383088 75.645101 
L 58.437447 50.119339 
L 58.491806 75.368295 
L 58.546165 78.765977 
L 58.709242 95.772529 
L 58.81796 107.319668 
L 58.872319 78.558836 
L 58.926678 89.387135 
L 58.981037 91.008547 
L 59.035395 82.074789 
L 59.089754 93.610292 
L 59.144113 91.988223 
L 59.198472 82.478101 
L 59.252831 88.941034 
L 59.361549 110.745529 
L 59.415908 79.021614 
L 59.470267 95.56758 
L 59.578985 96.125586 
L 59.633344 68.69146 
L 59.687703 84.423063 
L 59.742062 76.119415 
L 59.79642 65.509378 
L 59.905138 88.528103 
L 59.959497 71.875105 
L 60.013856 75.210681 
L 60.176933 93.530521 
L 60.231292 93.463608 
L 60.394369 77.745733 
L 60.448728 90.78778 
L 60.503087 78.36527 
L 60.557445 74.331659 
L 60.720522 98.111034 
L 60.774881 98.066394 
L 60.82924 78.054484 
L 60.883599 88.214138 
L 61.046676 72.724665 
L 61.101035 74.347453 
L 61.209753 94.724755 
L 61.372829 78.676006 
L 61.481547 70.919041 
L 61.644624 91.958044 
L 61.698983 89.080573 
L 61.807701 107.385869 
L 61.970778 70.173533 
L 62.025137 99.797521 
L 62.079495 92.190486 
L 62.133854 94.134762 
L 62.188213 73.767269 
L 62.242572 100.141432 
L 62.296931 92.768746 
L 62.35129 79.117643 
L 62.405649 104.695293 
L 62.460008 80.799622 
L 62.514367 70.620428 
L 62.623085 103.847817 
L 62.677444 97.965388 
L 62.84052 71.311552 
L 62.894879 93.243615 
L 63.112315 43.840963 
L 63.221033 97.810216 
L 63.275392 71.392363 
L 63.329751 72.342196 
L 63.492828 74.036695 
L 63.547187 93.99845 
L 63.601545 77.51894 
L 63.764622 97.964173 
L 63.87334 66.055564 
L 63.927699 66.097929 
L 63.982058 70.185313 
L 64.036417 93.035357 
L 64.090776 85.372581 
L 64.145135 83.907699 
L 64.199494 85.821196 
L 64.253853 92.330331 
L 64.308212 73.196365 
L 64.362571 95.657235 
L 64.416929 81.238619 
L 64.471288 66.998926 
L 64.525647 69.574513 
L 64.580006 101.745124 
L 64.634365 83.509117 
L 64.743083 103.991523 
L 64.797442 95.117455 
L 64.851801 98.382504 
L 64.90616 97.553068 
L 65.014878 84.703623 
L 65.069237 78.042545 
L 65.177954 103.150311 
L 65.286672 85.606394 
L 65.341031 89.744531 
L 65.449749 72.334259 
L 65.558467 75.476267 
L 65.775903 101.388905 
L 65.884621 84.25685 
L 66.047697 102.834677 
L 66.156415 80.338478 
L 66.210774 84.423377 
L 66.265133 89.244609 
L 66.319492 80.120851 
L 66.373851 100.41732 
L 66.42821 82.884354 
L 66.482569 79.158749 
L 66.536928 85.528914 
L 66.591287 76.240058 
L 66.645646 92.38248 
L 66.700004 83.025849 
L 66.808722 95.465985 
L 66.863081 94.437004 
L 67.026158 82.96054 
L 67.080517 99.062695 
L 67.134876 73.651323 
L 67.189235 112.592304 
L 67.243594 80.081072 
L 67.297953 95.43145 
L 67.352312 84.121104 
L 67.406671 88.210286 
L 67.461029 87.069528 
L 67.515388 84.800379 
L 67.569747 90.236465 
L 67.624106 84.177937 
L 67.678465 96.55024 
L 67.732824 91.28777 
L 67.841542 79.71318 
L 67.95026 83.848338 
L 68.004619 94.115492 
L 68.058978 88.282496 
L 68.167696 81.641616 
L 68.276413 106.399863 
L 68.43949 79.066774 
L 68.493849 91.997927 
L 68.548208 74.661861 
L 68.602567 86.239453 
L 68.765644 74.202296 
L 68.820003 83.889291 
L 68.874362 71.578262 
L 68.928721 79.472786 
L 68.983079 82.805481 
L 69.037438 105.713526 
L 69.091797 86.047991 
L 69.200515 83.26726 
L 69.254874 85.499188 
L 69.309233 99.705905 
L 69.417951 82.788192 
L 69.47231 83.519604 
L 69.526669 90.487692 
L 69.581028 80.672792 
L 69.635387 97.817339 
L 69.689746 67.700162 
L 69.744104 92.000204 
L 69.907181 75.042296 
L 70.015899 97.959408 
L 70.070258 74.871068 
L 70.124617 75.851036 
L 70.178976 95.129218 
L 70.287694 94.927804 
L 70.342053 81.296796 
L 70.396412 95.659277 
L 70.450771 81.173372 
L 70.505129 84.609369 
L 70.613847 66.176645 
L 70.668206 95.64372 
L 70.722565 95.512181 
L 70.776924 93.226208 
L 70.831283 72.389187 
L 70.885642 83.449304 
L 71.048719 95.874708 
L 71.157437 78.065718 
L 71.211796 83.023644 
L 71.266154 97.136147 
L 71.320513 81.120137 
L 71.374872 93.411829 
L 71.537949 72.414272 
L 71.592308 80.386526 
L 71.755385 96.59393 
L 71.809744 80.890785 
L 71.864103 85.219484 
L 71.918462 102.446765 
L 71.972821 84.743825 
L 72.027179 92.210381 
L 72.081538 87.947989 
L 72.135897 81.78259 
L 72.190256 98.425187 
L 72.244615 91.05027 
L 72.298974 67.689249 
L 72.353333 91.629148 
L 72.407692 99.720094 
L 72.570769 74.330218 
L 72.733846 105.219808 
L 72.788204 78.777347 
L 72.842563 93.406171 
L 73.00564 79.379315 
L 73.059999 80.770094 
L 73.114358 87.182388 
L 73.168717 87.086587 
L 73.223076 79.678833 
L 73.277435 84.369603 
L 73.386153 77.407853 
L 73.440512 91.330097 
L 73.494871 75.36895 
L 73.549229 82.128045 
L 73.603588 91.102546 
L 73.657947 77.681181 
L 73.712306 88.066648 
L 73.766665 87.835878 
L 73.821024 84.702295 
L 73.875383 85.953835 
L 73.929742 91.515044 
L 73.984101 87.353641 
L 74.03846 71.98321 
L 74.092819 85.571414 
L 74.147178 92.067352 
L 74.310254 61.880343 
L 74.364613 92.92301 
L 74.418972 76.582907 
L 74.473331 74.063582 
L 74.636408 88.181425 
L 74.799485 78.602666 
L 74.853844 89.223312 
L 74.908203 83.469677 
L 74.962562 86.421155 
L 75.016921 71.754409 
L 75.125638 91.379568 
L 75.179997 83.62438 
L 75.234356 100.18037 
L 75.288715 73.190697 
L 75.343074 91.603902 
L 75.397433 84.561647 
L 75.451792 95.431946 
L 75.506151 89.142909 
L 75.56051 68.560188 
L 75.614869 72.170381 
L 75.669228 98.851178 
L 75.723587 79.033001 
L 75.777946 87.368074 
L 75.832304 74.104794 
L 75.886663 87.722621 
L 75.941022 87.770143 
L 75.995381 85.03258 
L 76.04974 98.041696 
L 76.104099 81.029675 
L 76.158458 97.719697 
L 76.267176 76.984849 
L 76.321535 78.352857 
L 76.375894 98.929519 
L 76.430253 88.161854 
L 76.484612 94.781476 
L 76.538971 79.007176 
L 76.593329 90.434531 
L 76.647688 90.625336 
L 76.702047 90.117065 
L 76.756406 87.504508 
L 76.810765 90.880713 
L 76.973842 74.413613 
L 77.191278 98.462921 
L 77.299996 78.946094 
L 77.354354 94.944067 
L 77.517431 74.207931 
L 77.626149 99.186223 
L 77.789226 80.688013 
L 77.843585 82.751767 
L 77.897944 90.517841 
L 77.952303 89.240102 
L 78.006662 81.111856 
L 78.061021 81.202346 
L 78.115379 86.825507 
L 78.169738 84.695405 
L 78.224097 84.195244 
L 78.332815 96.624995 
L 78.387174 78.36328 
L 78.441533 81.074994 
L 78.495892 96.236712 
L 78.550251 72.302789 
L 78.60461 94.233909 
L 78.658969 79.751916 
L 78.713328 85.243193 
L 78.767687 85.526569 
L 78.876404 90.480965 
L 79.09384 80.106013 
L 79.148199 92.068588 
L 79.202558 92.057101 
L 79.256917 81.866319 
L 79.311276 83.65125 
L 79.365635 97.269864 
L 79.419994 82.954434 
L 79.474353 96.860445 
L 79.528712 92.725085 
L 79.691788 71.725815 
L 79.746147 88.656893 
L 79.800506 82.063343 
L 79.963583 90.378663 
L 80.017942 85.710793 
L 80.072301 90.926554 
L 80.235378 70.66071 
L 80.289737 72.060441 
L 80.398455 100.970397 
L 80.507172 80.232523 
L 80.61589 101.480104 
L 80.670249 86.952996 
L 80.724608 94.76552 
L 80.833326 88.520445 
L 80.887685 94.600945 
L 80.942044 91.339408 
L 80.996403 76.751363 
L 81.050762 81.454305 
L 81.105121 88.813355 
L 81.15948 82.013369 
L 81.213838 85.874595 
L 81.268197 82.358626 
L 81.485633 92.440263 
L 81.539992 78.90999 
L 81.594351 80.175707 
L 81.64871 95.29906 
L 81.703069 92.492842 
L 81.757428 91.001053 
L 81.920505 77.991416 
L 82.029222 96.87775 
L 82.13794 77.855304 
L 82.192299 88.424115 
L 82.246658 76.285931 
L 82.301017 81.239403 
L 82.355376 85.112477 
L 82.409735 103.342385 
L 82.464094 89.242697 
L 82.518453 97.583593 
L 82.572812 89.9502 
L 82.627171 91.065667 
L 82.735888 79.054097 
L 82.844606 91.49096 
L 82.898965 79.952067 
L 82.953324 82.106421 
L 83.007683 88.809635 
L 83.17076 72.273275 
L 83.225119 91.432374 
L 83.279478 82.725448 
L 83.388196 87.850386 
L 83.442555 82.307495 
L 83.496913 93.448546 
L 83.551272 92.813471 
L 83.605631 79.822074 
L 83.65999 94.200797 
L 83.714349 88.00799 
L 83.768708 73.685931 
L 83.823067 85.375449 
L 83.931785 83.025107 
L 83.986144 90.04539 
L 84.040503 86.71421 
L 84.094862 78.852289 
L 84.20358 93.559527 
L 84.257938 81.848084 
L 84.312297 84.622952 
L 84.366656 90.91066 
L 84.421015 74.517124 
L 84.475374 98.546221 
L 84.529733 76.610944 
L 84.638451 91.680214 
L 84.69281 89.135869 
L 84.747169 92.412266 
L 84.855887 77.913866 
L 84.910246 90.833084 
L 84.964605 88.49316 
L 85.127681 83.655384 
L 85.18204 95.854854 
L 85.236399 84.089604 
L 85.345117 94.001058 
L 85.562553 78.295747 
L 85.616912 81.577033 
L 85.72563 92.436775 
L 85.779988 77.364455 
L 85.834347 93.529872 
L 85.888706 89.591466 
L 86.051783 70.045555 
L 86.160501 90.250838 
L 86.21486 88.669861 
L 86.269219 77.365778 
L 86.323578 93.823473 
L 86.377937 86.546564 
L 86.432296 86.224444 
L 86.486655 90.011117 
L 86.595372 78.08468 
L 86.70409 90.322014 
L 86.758449 70.327119 
L 86.812808 84.127503 
L 86.867167 97.296999 
L 86.921526 93.050265 
L 87.030244 77.564481 
L 87.084603 82.033195 
L 87.138962 84.994935 
L 87.193321 79.785912 
L 87.24768 80.622186 
L 87.465115 96.459142 
L 87.628192 83.158349 
L 87.682551 93.63646 
L 87.73691 87.142981 
L 87.791269 89.375639 
L 87.899987 74.957937 
L 87.954346 81.313486 
L 88.117422 97.129336 
L 88.171781 80.948047 
L 88.22614 86.568574 
L 88.280499 89.966962 
L 88.334858 81.863348 
L 88.497935 94.735305 
L 88.552294 78.786904 
L 88.606653 91.801321 
L 88.661012 86.531071 
L 88.715371 93.829412 
L 88.76973 89.063396 
L 88.824088 83.915432 
L 88.932806 96.775632 
L 88.987165 78.676068 
L 89.041524 79.195636 
L 89.204601 90.643862 
L 89.367678 76.14025 
L 89.422037 86.428607 
L 89.476396 73.507857 
L 89.530755 80.029232 
L 89.585113 81.811982 
L 89.639472 81.006847 
L 89.693831 79.392178 
L 89.802549 89.866174 
L 89.856908 73.485353 
L 89.911267 81.558859 
L 89.965626 79.704473 
L 90.019985 89.470869 
L 90.074344 83.920468 
L 90.183062 89.246191 
L 90.29178 77.422381 
L 90.346138 84.62504 
L 90.509215 92.213722 
L 90.672292 80.033417 
L 90.835369 92.765895 
L 90.998446 82.873051 
L 91.052805 94.396763 
L 91.107163 87.895866 
L 91.161522 84.663618 
L 91.215881 88.602711 
L 91.27024 81.968617 
L 91.324599 87.550961 
L 91.378958 87.124037 
L 91.433317 88.099765 
L 91.487676 87.133583 
L 91.542035 72.539913 
L 91.596394 76.991315 
L 91.650753 95.476066 
L 91.705112 84.764967 
L 91.759471 89.282336 
L 91.81383 86.47485 
L 91.922547 88.577018 
L 91.976906 83.747035 
L 92.031265 90.105127 
L 92.139983 90.071689 
L 92.194342 90.36109 
L 92.248701 80.559206 
L 92.30306 90.718256 
L 92.357419 82.831958 
L 92.411778 83.401808 
L 92.466137 87.195493 
L 92.520496 87.049526 
L 92.574855 77.464035 
L 92.629213 78.234934 
L 92.79229 83.097494 
L 92.901008 78.228654 
L 92.955367 91.730062 
L 93.009726 86.189007 
L 93.064085 82.035092 
L 93.118444 92.025322 
L 93.172803 88.188556 
L 93.227162 82.467406 
L 93.281521 94.246975 
L 93.33588 88.229648 
L 93.444597 89.885189 
L 93.498956 79.248908 
L 93.553315 87.719619 
L 93.607674 88.30501 
L 93.662033 79.608629 
L 93.716392 87.768248 
L 93.770751 88.481727 
L 93.82511 87.911315 
L 93.879469 85.357151 
L 93.933828 90.488589 
L 93.988187 81.584485 
L 94.042546 87.599785 
L 94.096905 88.307004 
L 94.151263 87.178275 
L 94.205622 91.852494 
L 94.259981 90.396476 
L 94.31434 87.133774 
L 94.368699 77.07126 
L 94.423058 83.476094 
L 94.477417 88.70996 
L 94.531776 87.574387 
L 94.694853 83.453219 
L 94.749212 90.975849 
L 94.85793 79.435186 
L 94.912288 89.670981 
L 94.966647 88.79553 
L 95.021006 86.289947 
L 95.075365 89.200512 
L 95.129724 82.150954 
L 95.184083 93.53282 
L 95.238442 89.377403 
L 95.292801 91.440952 
L 95.34716 85.949324 
L 95.401519 89.165603 
L 95.455878 88.442278 
L 95.510237 76.895792 
L 95.564596 88.118641 
L 95.727672 90.377074 
L 95.782031 80.491613 
L 95.83639 97.59986 
L 95.890749 82.136126 
L 95.945108 82.498547 
L 95.999467 87.980305 
L 96.053826 84.636318 
L 96.108185 86.044981 
L 96.162544 84.898183 
L 96.216903 78.888836 
L 96.271262 88.327317 
L 96.325621 88.320098 
L 96.37998 85.839241 
L 96.434338 88.84946 
L 96.543056 80.335145 
L 96.597415 84.341819 
L 96.651774 89.537908 
L 96.706133 86.245747 
L 96.760492 80.214347 
L 96.814851 82.35575 
L 96.923569 87.193872 
L 96.977928 82.063868 
L 97.032287 87.001763 
L 97.141005 84.367381 
L 97.195364 89.095109 
L 97.35844 81.054902 
L 97.521517 91.848005 
L 97.575876 86.917054 
L 97.684594 87.133844 
L 97.738953 89.072688 
L 97.793312 84.410486 
L 97.847671 93.063352 
L 97.90203 85.040858 
L 98.010747 92.934524 
L 98.065106 88.556212 
L 98.119465 84.730429 
L 98.173824 84.848201 
L 98.228183 89.087549 
L 98.282542 82.20617 
L 98.336901 87.241653 
L 98.445619 84.621233 
L 98.554337 94.036104 
L 98.608696 76.975328 
L 98.663055 89.760217 
L 98.717414 80.495707 
L 98.771772 81.513193 
L 98.826131 88.430035 
L 98.88049 87.642112 
L 99.043567 75.580782 
L 99.206644 85.972334 
L 99.261003 82.590881 
L 99.369721 91.013142 
L 99.478439 83.18642 
L 99.532797 84.004427 
L 99.587156 86.383855 
L 99.641515 82.398812 
L 99.804592 90.142692 
L 99.858951 91.605406 
L 99.91331 85.516418 
L 99.967669 89.588121 
L 100.022028 86.028865 
L 100.076387 90.110685 
L 100.130746 81.110041 
L 100.185105 81.746514 
L 100.239464 91.773352 
L 100.293822 84.06058 
L 100.348181 87.151619 
L 100.40254 77.79093 
L 100.456899 79.88862 
L 100.619976 85.430413 
L 100.783053 82.488409 
L 100.837412 92.745714 
L 101.000489 78.34085 
L 101.109206 86.739094 
L 101.217924 83.129245 
L 101.272283 83.622802 
L 101.326642 86.492593 
L 101.381001 83.98821 
L 101.43536 85.519684 
L 101.489719 80.344599 
L 101.544078 84.922347 
L 101.598437 83.666178 
L 101.652796 85.192117 
L 101.707155 83.34578 
L 101.761514 84.706336 
L 101.92459 88.807026 
L 101.978949 87.157241 
L 102.033308 90.453169 
L 102.087667 89.758682 
L 102.250744 83.496049 
L 102.305103 85.251757 
L 102.359462 87.66359 
L 102.413821 81.993937 
L 102.46818 85.482939 
L 102.522539 86.424481 
L 102.685615 82.761005 
L 102.848692 88.176556 
L 102.95741 83.36212 
L 103.011769 85.43878 
L 103.066128 85.03858 
L 103.120487 91.17646 
L 103.174846 86.657862 
L 103.229205 89.746806 
L 103.283564 82.025894 
L 103.337922 85.571686 
L 103.392281 87.70915 
L 103.500999 81.254408 
L 103.555358 87.234568 
L 103.609717 81.544997 
L 103.664076 86.20885 
L 103.718435 83.268684 
L 103.772794 81.206254 
L 103.827153 86.346557 
L 103.881512 84.854316 
L 104.044589 88.523113 
L 104.098947 81.748589 
L 104.153306 83.253951 
L 104.262024 88.735565 
L 104.316383 84.64508 
L 104.370742 86.394671 
L 104.47946 87.672463 
L 104.588178 83.581959 
L 104.642537 89.809943 
L 104.696896 84.921622 
L 104.859972 89.097263 
L 104.914331 88.095078 
L 104.96869 89.285457 
L 105.023049 82.61066 
L 105.077408 86.522553 
L 105.131767 84.844895 
L 105.186126 86.136996 
L 105.240485 85.881162 
L 105.349203 84.800328 
L 105.403562 85.719031 
L 105.620997 78.658361 
L 105.729715 86.615147 
L 105.784074 84.458003 
L 105.947151 88.694716 
L 106.00151 82.652417 
L 106.055869 89.096588 
L 106.110228 87.491226 
L 106.164587 87.377089 
L 106.273305 85.395088 
L 106.327664 88.04247 
L 106.382022 85.944411 
L 106.436381 84.728841 
L 106.49074 87.56697 
L 106.545099 79.829513 
L 106.599458 85.380171 
L 106.653817 85.290132 
L 106.816894 86.938989 
L 106.871253 85.68094 
L 106.925612 86.59095 
L 106.979971 89.209006 
L 107.143047 79.813958 
L 107.197406 85.002804 
L 107.251765 83.399356 
L 107.306124 83.12017 
L 107.360483 85.712907 
L 107.469201 82.62752 
L 107.52356 90.579984 
L 107.577919 84.542152 
L 107.632278 84.960827 
L 107.686637 87.244223 
L 107.740996 86.964918 
L 107.849714 84.318626 
L 107.904072 89.528204 
L 107.958431 83.507732 
L 108.01279 85.570398 
L 108.067149 83.961383 
L 108.121508 84.626412 
L 108.175867 86.242613 
L 108.230226 83.93698 
L 108.284585 86.223153 
L 108.393303 87.602714 
L 108.447662 86.174644 
L 108.502021 87.197881 
L 108.55638 87.727212 
L 108.719456 83.317334 
L 108.773815 84.148072 
L 108.828174 89.280857 
L 108.882533 82.892572 
L 108.936892 83.900836 
L 108.991251 86.370706 
L 109.04561 83.921694 
L 109.099969 86.215777 
L 109.154328 84.74732 
L 109.208687 83.294595 
L 109.263046 88.012259 
L 109.317405 87.108443 
L 109.371764 85.162372 
L 109.426122 86.724259 
L 109.480481 85.421032 
L 109.53484 89.004317 
L 109.589199 83.110349 
L 109.643558 85.76912 
L 109.752276 79.855135 
L 109.806635 87.913719 
L 109.860994 86.093376 
L 110.024071 83.82425 
L 110.07843 88.07556 
L 110.132789 86.751209 
L 110.187147 87.697774 
L 110.241506 83.975105 
L 110.295865 86.28285 
L 110.350224 86.337115 
L 110.404583 86.993346 
L 110.458942 82.838286 
L 110.513301 86.240817 
L 110.56766 85.062356 
L 110.622019 86.489943 
L 110.676378 84.250608 
L 110.730737 85.069375 
L 110.785096 85.615105 
L 110.839455 87.315127 
L 110.893814 85.799836 
L 111.002531 87.500173 
L 111.165608 83.526515 
L 111.219967 85.07793 
L 111.328685 85.009094 
L 111.491762 87.130221 
L 111.546121 83.46077 
L 111.60048 85.21457 
L 111.654839 83.882533 
L 111.709197 84.665694 
L 111.763556 89.26178 
L 111.817915 89.241255 
L 111.980992 81.412163 
L 112.035351 84.741023 
L 112.08971 84.230624 
L 112.198428 87.26574 
L 112.252787 83.509324 
L 112.307146 83.547306 
L 112.361505 89.049437 
L 112.415864 86.347365 
L 112.470222 86.05912 
L 112.524581 85.081498 
L 112.57894 85.903607 
L 112.633299 87.017334 
L 112.687658 86.596768 
L 112.742017 86.028834 
L 112.796376 87.272677 
L 112.850735 83.902306 
L 112.905094 87.099762 
L 112.959453 84.956312 
L 113.013812 87.529685 
L 113.12253 87.470257 
L 113.231248 83.325709 
L 113.285606 85.31441 
L 113.339965 87.195374 
L 113.503042 81.69357 
L 113.720478 87.75721 
L 113.829196 82.359193 
L 113.937914 83.464432 
L 113.992273 84.125067 
L 114.046631 83.487038 
L 114.10099 87.575159 
L 114.155349 85.002729 
L 114.264067 86.911232 
L 114.372785 83.565071 
L 114.427144 84.380231 
L 114.481503 85.103034 
L 114.535862 84.652528 
L 114.590221 84.331415 
L 114.64458 87.850029 
L 114.698939 83.215612 
L 114.753298 83.49836 
L 114.807656 86.463461 
L 114.862015 85.071525 
L 114.916374 85.328046 
L 114.970733 83.430778 
L 115.025092 87.234532 
L 115.079451 84.760189 
L 115.13381 84.715301 
L 115.188169 85.837981 
L 115.242528 84.512897 
L 115.296887 86.402052 
L 115.405605 86.360255 
L 115.459964 84.79752 
L 115.514323 86.420213 
L 115.568681 86.771004 
L 115.731758 83.597978 
L 115.840476 86.863117 
L 115.894835 84.523239 
L 115.949194 85.535322 
L 116.003553 87.92835 
L 116.057912 85.623044 
L 116.112271 85.522379 
L 116.220989 84.594354 
L 116.329706 85.853146 
L 116.492783 82.790907 
L 116.601501 83.952729 
L 116.65586 86.271226 
L 116.710219 85.775007 
L 116.873296 83.579746 
L 117.090731 86.013122 
L 117.199449 84.047125 
L 117.253808 85.740129 
L 117.308167 85.677431 
L 117.471244 84.331265 
L 117.525603 85.088547 
L 117.579962 83.032636 
L 117.634321 84.742382 
L 117.68868 86.634602 
L 117.743039 83.603204 
L 117.797398 85.790298 
L 117.906115 84.465601 
L 117.960474 86.801112 
L 118.014833 84.879206 
L 118.069192 85.308051 
L 118.232269 84.506699 
L 118.504064 86.692656 
L 118.612781 83.936226 
L 118.66714 84.5996 
L 118.721499 84.750326 
L 118.884576 85.88805 
L 118.938935 85.821784 
L 118.993294 84.74843 
L 119.047653 84.790322 
L 119.102012 85.5343 
L 119.156371 85.509465 
L 119.21073 85.270791 
L 119.265089 86.729938 
L 119.319448 85.577675 
L 119.428165 84.376204 
L 119.482524 87.47131 
L 119.536883 85.564451 
L 119.591242 85.429399 
L 119.69996 85.763539 
L 119.754319 83.150569 
L 119.808678 83.943038 
L 119.863037 86.403908 
L 119.917396 85.687137 
L 119.971755 85.911581 
L 120.026114 85.256468 
L 120.080473 85.306304 
L 120.134831 86.179001 
L 120.18919 85.874065 
L 120.243549 85.336398 
L 120.406626 86.176135 
L 120.569703 84.86006 
L 120.624062 84.747853 
L 120.678421 84.938263 
L 120.73278 86.588512 
L 120.787139 85.907495 
L 120.841498 85.327869 
L 120.895856 86.772247 
L 121.004574 84.64449 
L 121.058933 85.79934 
L 121.113292 84.644675 
L 121.167651 85.388759 
L 121.22201 84.470408 
L 121.385087 86.151188 
L 121.548164 84.892253 
L 121.656881 85.818531 
L 121.71124 85.812105 
L 121.765599 86.041653 
L 121.819958 85.349613 
L 121.874317 86.158599 
L 121.928676 86.065526 
L 122.037394 85.374435 
L 122.091753 86.130372 
L 122.146112 85.548673 
L 122.25483 84.936235 
L 122.309189 85.852906 
L 122.363548 85.79027 
L 122.417906 84.743133 
L 122.472265 85.754249 
L 122.526624 85.653911 
L 122.580983 84.436687 
L 122.635342 85.432465 
L 122.74406 85.411831 
L 122.798419 85.699276 
L 122.852778 85.64759 
L 122.961496 85.143886 
L 123.015855 85.650206 
L 123.070214 85.019239 
L 123.124573 85.199419 
L 123.178931 85.92358 
L 123.23329 85.387948 
L 123.287649 85.184303 
L 123.342008 85.957238 
L 123.396367 85.610016 
L 123.668162 84.816299 
L 123.722521 85.151691 
L 123.77688 86.448566 
L 123.831239 86.061116 
L 123.885598 85.438615 
L 123.939956 85.516334 
L 123.994315 85.522243 
L 124.048674 85.254899 
L 124.103033 85.784995 
L 124.157392 85.546089 
L 124.211751 85.552016 
L 124.26611 84.658108 
L 124.320469 85.587159 
L 124.483546 85.223892 
L 124.646623 85.729555 
L 124.700981 85.194322 
L 124.75534 85.601852 
L 124.809699 85.540528 
L 124.864058 85.990159 
L 124.918417 85.772724 
L 125.081494 85.06437 
L 125.244571 85.572491 
L 125.407648 85.201863 
L 125.625083 85.849264 
L 125.733801 85.375199 
L 125.842519 85.565739 
L 125.896878 85.207093 
L 125.951237 85.489859 
L 126.005596 85.71941 
L 126.059955 85.571829 
L 126.168673 85.173981 
L 126.223031 85.37912 
L 126.386108 85.461264 
L 126.603544 85.433891 
L 126.657903 85.384096 
L 126.82098 85.488849 
L 126.875339 85.555889 
L 126.929698 85.418473 
L 126.984056 85.450982 
L 127.147133 85.483014 
L 127.364569 85.434814 
L 127.527646 85.470117 
L 127.636364 85.478177 
L 127.636364 85.478177 
" clip-path="url(#p3f719571e9)" style="fill: none; stroke: #a6d854; stroke-width: 1.5; stroke-linecap: square"/>
   </g>
   <g id="patch_3">
    <path d="M 10.8 133.2 
L 10.8 10.8 
" style="fill: none; stroke: #000000; stroke-width: 0.8; stroke-linejoin: miter; stroke-linecap: square"/>
   </g>
   <g id="patch_4">
    <path d="M 133.2 133.2 
L 133.2 10.8 
" style="fill: none; stroke: #000000; stroke-width: 0.8; stroke-linejoin: miter; stroke-linecap: square"/>
   </g>
   <g id="patch_5">
    <path d="M 10.8 133.2 
L 133.2 133.2 
" style="fill: none; stroke: #000000; stroke-width: 0.8; stroke-linejoin: miter; stroke-linecap: square"/>
   </g>
   <g id="patch_6">
    <path d="M 10.8 10.8 
L 133.2 10.8 
" style="fill: none; stroke: #000000; stroke-width: 0.8; stroke-linejoin: miter; stroke-linecap: square"/>
   </g>
  </g>
 </g>
 <defs>
  <clipPath id="p3f719571e9">
   <rect x="10.8" y="10.8" width="122.4" height="122.4"/>
  </clipPath>
 </defs>
</svg>
