<?xml version="1.0" encoding="utf-8" standalone="no"?>
<!DOCTYPE svg PUBLIC "-//W3C//DTD SVG 1.1//EN"
  "http://www.w3.org/Graphics/SVG/1.1/DTD/svg11.dtd">
<svg xmlns:xlink="http://www.w3.org/1999/xlink" width="144pt" height="144pt" viewBox="0 0 144 144" xmlns="http://www.w3.org/2000/svg" version="1.1">
 <metadata>
  <rdf:RDF xmlns:dc="http://purl.org/dc/elements/1.1/" xmlns:cc="http://creativecommons.org/ns#" xmlns:rdf="http://www.w3.org/1999/02/22-rdf-syntax-ns#">
   <cc:Work>
    <dc:type rdf:resource="http://purl.org/dc/dcmitype/StillImage"/>
    <dc:date>2025-02-11T14:44:00.570201</dc:date>
    <dc:format>image/svg+xml</dc:format>
    <dc:creator>
     <cc:Agent>
      <dc:title>Matplotlib v3.8.0, https://matplotlib.org/</dc:title>
     </cc:Agent>
    </dc:creator>
   </cc:Work>
  </rdf:RDF>
 </metadata>
 <defs>
  <style type="text/css">*{stroke-linejoin: round; stroke-linecap: butt}</style>
 </defs>
 <g id="figure_1">
  <g id="patch_1">
   <path d="M 0 144 
L 144 144 
L 144 0 
L 0 0 
L 0 144 
z
" style="fill: none"/>
  </g>
  <g id="axes_1">
   <g id="patch_2">
    <path d="M 10.8 133.2 
L 133.2 133.2 
L 133.2 10.8 
L 10.8 10.8 
L 10.8 133.2 
z
" style="fill: none"/>
   </g>
   <g id="matplotlib.axis_1"/>
   <g id="matplotlib.axis_2"/>
   <g id="line2d_1">
    <path d="M 16.363636 75.5557 
L 23.647733 75.591683 
L 23.81081 75.602903 
L 24.191322 75.610606 
L 24.245681 75.648891 
L 24.30004 75.493898 
L 24.354399 75.51583 
L 24.897988 75.554866 
L 24.952347 75.457587 
L 25.006706 75.657691 
L 25.061065 75.581564 
L 25.224142 75.473383 
L 25.441577 75.694106 
L 25.495936 75.616852 
L 25.604654 75.565561 
L 25.713372 75.641264 
L 25.767731 75.463262 
L 25.82209 75.526908 
L 25.876449 75.636466 
L 25.930808 75.566828 
L 25.985167 75.514607 
L 26.148244 75.609397 
L 26.31132 75.47869 
L 26.365679 75.677834 
L 26.420038 75.523677 
L 26.800551 75.508583 
L 26.909269 75.667841 
L 27.072345 75.462955 
L 27.561576 75.628711 
L 27.724652 75.441005 
L 27.83337 75.640474 
L 27.887729 75.404514 
L 27.942088 75.53219 
L 28.105165 75.529628 
L 28.159524 75.748569 
L 28.213883 75.554677 
L 28.485677 75.496268 
L 28.594395 75.372194 
L 28.648754 75.648925 
L 28.703113 75.605484 
L 28.757472 75.541507 
L 28.811831 75.698086 
L 28.86619 75.488434 
L 28.920549 75.540994 
L 28.974908 75.532643 
L 29.083626 75.689676 
L 29.301061 75.525155 
L 29.409779 75.596562 
L 29.464138 75.473527 
L 29.518497 75.656841 
L 29.572856 75.61627 
L 29.627215 75.48517 
L 29.681574 75.542013 
L 29.790292 75.529107 
L 29.953369 75.615858 
L 30.007727 75.449999 
L 30.062086 75.656978 
L 30.116445 75.617503 
L 30.333881 75.391597 
L 30.38824 75.488091 
L 30.496958 75.536902 
L 30.551317 75.493556 
L 30.605676 75.723467 
L 30.660035 75.697883 
L 30.714394 75.375572 
L 30.768752 75.467818 
L 30.87747 75.657436 
L 30.931829 75.601404 
L 31.040547 75.504937 
L 31.149265 75.703508 
L 31.42106 75.424379 
L 31.475419 75.703927 
L 31.529778 75.545899 
L 31.692854 75.651202 
L 31.801572 75.464693 
L 31.855931 75.62938 
L 31.91029 75.527633 
L 31.964649 75.595094 
L 32.019008 75.483547 
L 32.073367 75.586436 
L 32.182085 75.552122 
L 32.236444 75.399724 
L 32.290803 75.557505 
L 32.345161 75.430054 
L 32.562597 75.787172 
L 32.725674 75.531529 
L 32.780033 75.637725 
L 32.888751 75.454363 
L 33.051828 75.558367 
L 33.106186 75.278768 
L 33.160545 75.512196 
L 33.486699 75.54299 
L 33.541058 75.37929 
L 33.595417 75.517485 
L 33.649776 75.709822 
L 33.704135 75.345935 
L 33.758494 75.519606 
L 33.867211 75.614476 
L 33.92157 75.480223 
L 33.975929 75.542641 
L 34.030288 75.678336 
L 34.084647 75.462569 
L 34.139006 75.795192 
L 34.193365 75.32196 
L 34.247724 75.631818 
L 34.302083 75.638589 
L 34.356442 75.403117 
L 34.410801 75.80085 
L 34.46516 75.630361 
L 34.682595 75.819762 
L 34.791313 75.315794 
L 34.95439 75.628705 
L 35.008749 75.54094 
L 35.226185 75.790119 
L 35.334903 75.516059 
L 35.389261 75.550333 
L 35.606697 75.588476 
L 35.661056 75.414369 
L 35.715415 75.769188 
L 35.769774 75.528269 
L 35.878492 75.459228 
L 36.041569 75.653453 
L 36.204645 75.49145 
L 36.259004 75.763007 
L 36.313363 75.596524 
L 36.422081 75.519618 
L 36.47644 75.79124 
L 36.530799 75.30522 
L 36.585158 75.60466 
L 36.639517 75.874496 
L 36.693876 75.64368 
L 36.802594 75.700972 
L 36.856953 75.757719 
L 37.020029 75.398709 
L 37.183106 75.643503 
L 37.237465 75.544517 
L 37.291824 75.831618 
L 37.346183 75.562223 
L 37.400542 75.573495 
L 37.454901 75.759549 
L 37.617978 75.333355 
L 37.726695 75.722589 
L 37.889772 75.286599 
L 37.99849 75.806495 
L 38.052849 75.501165 
L 38.270285 75.724 
L 38.433361 75.266337 
L 38.542079 75.792802 
L 38.596438 75.237748 
L 38.650797 75.810865 
L 38.705156 75.686653 
L 38.759515 75.926604 
L 38.813874 75.722463 
L 38.922592 76.000151 
L 39.03131 75.489779 
L 39.085669 75.580557 
L 39.140028 75.976487 
L 39.194386 75.58417 
L 39.248745 75.5616 
L 39.303104 75.373432 
L 39.411822 75.695417 
L 39.466181 75.251811 
L 39.52054 75.433507 
L 39.629258 75.402921 
L 39.792335 75.878375 
L 39.955411 75.29043 
L 40.00977 75.369489 
L 40.064129 75.958321 
L 40.118488 75.472058 
L 40.172847 75.878192 
L 40.227206 75.678668 
L 40.281565 75.439488 
L 40.335924 75.488672 
L 40.390283 75.608027 
L 40.499001 75.34182 
L 40.662078 75.91083 
L 40.770795 75.10937 
L 40.933872 75.941384 
L 41.04259 75.246215 
L 41.096949 75.792933 
L 41.151308 75.54232 
L 41.205667 75.335933 
L 41.260026 75.519682 
L 41.314385 75.411037 
L 41.423103 75.63949 
L 41.477461 74.930956 
L 41.586179 75.998859 
L 41.749256 75.534929 
L 41.803615 75.993249 
L 41.857974 75.547055 
L 41.966692 75.498145 
L 42.021051 75.590162 
L 42.07541 75.920472 
L 42.129769 75.588629 
L 42.184128 75.259455 
L 42.238486 75.525503 
L 42.401563 75.685395 
L 42.455922 75.602337 
L 42.510281 75.67371 
L 42.56464 75.0668 
L 42.618999 75.489793 
L 42.673358 75.107709 
L 42.727717 76.10422 
L 42.782076 75.476223 
L 42.836435 75.709101 
L 42.890794 75.636073 
L 42.945153 75.569195 
L 42.999511 75.986004 
L 43.108229 75.124447 
L 43.162588 75.613663 
L 43.216947 75.32488 
L 43.325665 75.687916 
L 43.380024 75.495565 
L 43.434383 75.110741 
L 43.59746 75.779082 
L 43.760536 75.461563 
L 43.869254 75.815812 
L 43.923613 75.718345 
L 43.977972 75.597388 
L 44.08669 75.857884 
L 44.141049 75.567141 
L 44.195408 76.100121 
L 44.249767 75.595791 
L 44.304126 75.52567 
L 44.412844 75.773913 
L 44.467203 75.44321 
L 44.521561 75.692984 
L 44.57592 75.584474 
L 44.738997 76.298629 
L 44.847715 75.414839 
L 44.956433 75.659858 
L 45.010792 75.19107 
L 45.065151 75.617065 
L 45.11951 75.605906 
L 45.173869 76.211588 
L 45.228228 75.877909 
L 45.391304 75.219947 
L 45.445663 75.21554 
L 45.500022 75.710765 
L 45.554381 75.412608 
L 45.663099 75.755179 
L 45.717458 75.448591 
L 45.771817 76.086698 
L 45.826176 75.092593 
L 45.880535 75.662874 
L 45.934894 75.191626 
L 45.989253 75.933091 
L 46.043611 75.829278 
L 46.09797 75.705836 
L 46.152329 75.219423 
L 46.315406 76.110587 
L 46.478483 75.127657 
L 46.64156 75.919233 
L 46.750278 75.256772 
L 46.804636 75.378141 
L 46.858995 75.150566 
L 46.913354 75.170106 
L 47.022072 75.816186 
L 47.076431 75.39917 
L 47.13079 76.115522 
L 47.185149 75.323338 
L 47.239508 76.238348 
L 47.293867 75.641961 
L 47.348226 76.069091 
L 47.402585 75.514653 
L 47.456944 76.240088 
L 47.511303 75.228348 
L 47.565662 76.262198 
L 47.62002 75.748945 
L 47.674379 75.791681 
L 47.728738 75.788069 
L 47.783097 75.966452 
L 47.837456 75.07678 
L 47.891815 75.132298 
L 47.946174 75.680017 
L 48.000533 75.234094 
L 48.054892 75.225213 
L 48.16361 75.555708 
L 48.217969 75.421358 
L 48.326687 76.123612 
L 48.435404 75.092562 
L 48.489763 75.849295 
L 48.544122 75.599262 
L 48.598481 75.714489 
L 48.65284 75.173754 
L 48.707199 75.706375 
L 48.761558 75.702534 
L 48.815917 75.155238 
L 48.978994 76.003228 
L 49.033353 75.054888 
L 49.087712 75.654107 
L 49.196429 75.487004 
L 49.250788 75.951459 
L 49.305147 75.332674 
L 49.359506 76.136029 
L 49.413865 76.012435 
L 49.522583 74.491838 
L 49.68566 75.86292 
L 49.848737 75.199845 
L 49.903095 75.596896 
L 49.957454 75.02237 
L 50.066172 76.241707 
L 50.229249 75.290541 
L 50.446685 76.027765 
L 50.555403 75.004431 
L 50.609762 75.313065 
L 50.66412 76.057425 
L 50.718479 75.970849 
L 50.772838 75.912249 
L 50.827197 75.433803 
L 50.881556 75.894149 
L 51.044633 76.0302 
L 51.153351 75.280044 
L 51.262069 76.10085 
L 51.316428 75.262004 
L 51.370787 76.302438 
L 51.425145 75.356615 
L 51.479504 75.318181 
L 51.533863 76.169273 
L 51.588222 75.926329 
L 51.642581 76.083982 
L 51.69694 75.971797 
L 51.751299 75.102369 
L 51.805658 75.44815 
L 51.860017 75.526774 
L 51.914376 76.288512 
L 51.968735 75.536615 
L 52.023094 75.510398 
L 52.077453 76.18234 
L 52.131812 74.649989 
L 52.18617 75.973297 
L 52.240529 76.031987 
L 52.403606 75.388492 
L 52.457965 75.445174 
L 52.512324 75.10971 
L 52.566683 75.158599 
L 52.621042 75.916367 
L 52.675401 75.824568 
L 52.72976 75.870724 
L 52.892837 75.003728 
L 53.055913 75.834121 
L 53.110272 75.202285 
L 53.164631 75.770612 
L 53.21899 75.553635 
L 53.273349 75.865426 
L 53.327708 75.823641 
L 53.382067 75.836402 
L 53.545144 75.485578 
L 53.599503 75.384815 
L 53.653862 75.663898 
L 53.70822 76.567831 
L 53.816938 74.994197 
L 53.871297 75.715707 
L 53.925656 75.393959 
L 53.980015 75.376562 
L 54.034374 74.963536 
L 54.143092 75.685913 
L 54.306169 75.148118 
L 54.360528 75.236248 
L 54.414887 76.155402 
L 54.469245 75.451241 
L 54.577963 75.127972 
L 54.74104 76.648445 
L 54.904117 74.957076 
L 54.958476 76.410435 
L 55.012835 75.786419 
L 55.067194 75.583604 
L 55.121553 74.585528 
L 55.175912 75.951428 
L 55.23027 75.670794 
L 55.284629 74.640214 
L 55.338988 75.258816 
L 55.393347 76.187806 
L 55.447706 74.716999 
L 55.502065 75.320312 
L 55.556424 74.924861 
L 55.610783 76.085533 
L 55.665142 75.010665 
L 55.719501 75.318597 
L 55.77386 74.863823 
L 55.882578 76.175468 
L 55.936937 75.789784 
L 55.991295 75.707712 
L 56.045654 74.840935 
L 56.100013 75.557085 
L 56.154372 75.947166 
L 56.208731 74.899191 
L 56.26309 76.022771 
L 56.317449 75.748281 
L 56.371808 74.634391 
L 56.426167 75.454021 
L 56.480526 75.035144 
L 56.534885 76.340079 
L 56.589244 75.655549 
L 56.75232 76.643574 
L 56.806679 75.69244 
L 56.861038 76.208606 
L 56.915397 76.266783 
L 56.969756 76.852463 
L 57.078474 74.898292 
L 57.132833 75.309514 
L 57.187192 75.469384 
L 57.241551 75.366456 
L 57.29591 75.360179 
L 57.404628 75.980638 
L 57.567704 74.968133 
L 57.622063 75.337887 
L 57.676422 74.636861 
L 57.893858 76.493223 
L 58.056935 75.308272 
L 58.111294 76.097224 
L 58.165653 75.47899 
L 58.220012 74.547125 
L 58.27437 74.760373 
L 58.437447 76.199302 
L 58.546165 74.826078 
L 58.600524 76.367586 
L 58.654883 75.103632 
L 58.709242 75.282188 
L 58.81796 76.537446 
L 58.926678 75.296115 
L 58.981037 75.673845 
L 59.035395 75.419533 
L 59.089754 75.477789 
L 59.198472 75.894105 
L 59.252831 75.750687 
L 59.415908 75.129713 
L 59.470267 75.239309 
L 59.578985 76.377352 
L 59.633344 75.258683 
L 59.687703 75.70914 
L 59.742062 76.016554 
L 59.79642 75.293335 
L 59.850779 76.444774 
L 59.905138 75.433815 
L 59.959497 74.742935 
L 60.013856 75.648997 
L 60.068215 74.790844 
L 60.176933 76.042732 
L 60.285651 76.005735 
L 60.503087 74.908109 
L 60.557445 75.49988 
L 60.611804 74.700682 
L 60.666163 75.411581 
L 60.720522 75.390175 
L 60.774881 76.926764 
L 60.82924 75.733256 
L 60.883599 74.995205 
L 60.937958 75.345996 
L 60.992317 76.191075 
L 61.046676 75.585993 
L 61.101035 75.301265 
L 61.264112 76.275234 
L 61.31847 75.475627 
L 61.372829 76.572735 
L 61.427188 75.832568 
L 61.590265 75.085637 
L 61.753342 75.876921 
L 61.916419 75.105886 
L 61.970778 76.172099 
L 62.025137 75.631543 
L 62.079495 76.028883 
L 62.133854 74.358665 
L 62.188213 74.946802 
L 62.242572 75.888901 
L 62.296931 75.394112 
L 62.35129 75.478511 
L 62.405649 74.372942 
L 62.514367 75.698299 
L 62.623085 74.750656 
L 62.677444 75.432095 
L 62.731803 75.212982 
L 62.786162 74.959154 
L 62.949238 76.356145 
L 63.057956 75.374087 
L 63.166674 76.930351 
L 63.221033 75.336535 
L 63.275392 75.449857 
L 63.38411 75.717714 
L 63.438469 75.645203 
L 63.492828 76.820019 
L 63.547187 75.931604 
L 63.655904 75.209581 
L 63.764622 75.860988 
L 63.927699 75.178225 
L 63.982058 75.647333 
L 64.036417 75.564497 
L 64.145135 75.438845 
L 64.199494 76.455652 
L 64.253853 76.028565 
L 64.416929 74.706645 
L 64.471288 75.178213 
L 64.580006 75.544944 
L 64.634365 75.061306 
L 64.688724 75.655868 
L 64.743083 74.439205 
L 64.797442 76.219324 
L 64.851801 75.435905 
L 64.90616 75.437233 
L 64.960519 75.687945 
L 65.014878 74.647795 
L 65.069237 75.722239 
L 65.123596 76.554777 
L 65.177954 74.912682 
L 65.232313 75.431435 
L 65.286672 75.253217 
L 65.341031 74.070276 
L 65.449749 76.580192 
L 65.504108 74.391709 
L 65.558467 75.455708 
L 65.612826 75.57774 
L 65.667185 76.445133 
L 65.721544 75.863297 
L 65.830262 75.13081 
L 65.938979 76.338851 
L 65.993338 75.923174 
L 66.102056 75.115905 
L 66.156415 76.168191 
L 66.210774 74.797452 
L 66.265133 76.555328 
L 66.319492 75.478821 
L 66.373851 75.238617 
L 66.42821 76.925346 
L 66.482569 75.783532 
L 66.536928 74.360265 
L 66.591287 76.182903 
L 66.645646 74.253498 
L 66.700004 74.95245 
L 66.754363 74.994481 
L 66.808722 75.352621 
L 66.863081 76.459524 
L 66.91744 76.016179 
L 66.971799 74.311935 
L 67.026158 74.851264 
L 67.134876 75.436533 
L 67.243594 76.404937 
L 67.352312 74.877143 
L 67.406671 75.896574 
L 67.461029 75.245884 
L 67.624106 74.346787 
L 67.732824 76.883304 
L 67.787183 75.539516 
L 67.841542 74.40252 
L 67.895901 75.933508 
L 67.95026 74.785779 
L 68.113337 76.320583 
L 68.167696 75.161478 
L 68.222054 76.237097 
L 68.276413 76.241691 
L 68.330772 75.966281 
L 68.385131 74.352339 
L 68.548208 76.782092 
L 68.711285 75.212593 
L 68.874362 76.293341 
L 69.091797 74.256388 
L 69.309233 75.883327 
L 69.363592 74.553479 
L 69.417951 76.457502 
L 69.47231 74.021492 
L 69.526669 76.013815 
L 69.689746 74.043101 
L 69.852822 76.548732 
L 69.96154 73.865639 
L 70.015899 74.129232 
L 70.124617 76.025749 
L 70.287694 75.074279 
L 70.342053 75.643527 
L 70.396412 74.823738 
L 70.450771 74.874459 
L 70.559488 76.704142 
L 70.668206 75.863476 
L 70.722565 76.902059 
L 70.776924 74.458344 
L 70.831283 76.276805 
L 70.99436 74.185558 
L 71.048719 72.999031 
L 71.157437 76.339908 
L 71.211796 75.039497 
L 71.266154 76.081089 
L 71.320513 74.935267 
L 71.374872 75.085021 
L 71.429231 76.501373 
L 71.537949 76.45204 
L 71.592308 74.622396 
L 71.646667 76.094236 
L 71.755385 74.882599 
L 71.809744 75.460013 
L 71.864103 75.585439 
L 71.918462 73.991556 
L 71.972821 74.664935 
L 72.027179 75.602662 
L 72.081538 75.559295 
L 72.135897 74.678858 
L 72.298974 77.189132 
L 72.462051 75.506178 
L 72.51641 76.100247 
L 72.570769 74.740097 
L 72.625128 75.781368 
L 72.679487 75.818243 
L 72.733846 75.468386 
L 72.788204 76.163158 
L 72.842563 75.248186 
L 72.896922 75.371988 
L 73.059999 76.253721 
L 73.114358 76.02524 
L 73.168717 74.22408 
L 73.223076 76.584307 
L 73.277435 76.248998 
L 73.331794 75.361801 
L 73.386153 78.172368 
L 73.440512 76.516955 
L 73.494871 76.292865 
L 73.603588 76.898674 
L 73.712306 74.815182 
L 73.766665 75.501743 
L 73.875383 76.31567 
L 73.929742 75.659037 
L 73.984101 76.66125 
L 74.03846 74.930928 
L 74.092819 75.972394 
L 74.147178 76.379615 
L 74.201537 74.158793 
L 74.255896 75.729522 
L 74.473331 74.62075 
L 74.582049 75.747625 
L 74.745126 73.862569 
L 74.799485 76.450118 
L 74.853844 74.772205 
L 74.908203 74.904364 
L 74.962562 74.43286 
L 75.016921 76.190395 
L 75.071279 76.162617 
L 75.234356 74.827882 
L 75.451792 77.32711 
L 75.506151 76.651745 
L 75.56051 74.90358 
L 75.614869 76.293885 
L 75.723587 74.853222 
L 75.886663 76.035531 
L 76.04974 74.765754 
L 76.104099 76.223389 
L 76.158458 75.482204 
L 76.212817 75.398741 
L 76.267176 76.146385 
L 76.321535 75.088978 
L 76.484612 76.555178 
L 76.538971 76.169112 
L 76.593329 78.155012 
L 76.756406 74.422528 
L 76.865124 76.486894 
L 76.919483 74.767045 
L 76.973842 75.805088 
L 77.028201 75.733655 
L 77.08256 74.632015 
L 77.136919 76.737988 
L 77.191278 75.302477 
L 77.245637 74.230331 
L 77.354354 75.974023 
L 77.408713 75.948418 
L 77.463072 75.267185 
L 77.517431 75.579502 
L 77.57179 77.272615 
L 77.626149 75.997343 
L 77.680508 74.411545 
L 77.734867 74.786125 
L 77.789226 76.298808 
L 77.843585 75.612326 
L 78.006662 74.896958 
L 78.061021 76.773249 
L 78.115379 76.555716 
L 78.169738 74.81106 
L 78.278456 74.823745 
L 78.332815 75.960492 
L 78.387174 75.546171 
L 78.441533 75.833651 
L 78.495892 75.010721 
L 78.550251 76.534059 
L 78.60461 74.780753 
L 78.658969 75.977886 
L 78.767687 74.718196 
L 78.985122 77.314729 
L 79.09384 73.281722 
L 79.148199 75.22985 
L 79.256917 75.598462 
L 79.311276 74.160347 
L 79.365635 77.169671 
L 79.419994 72.9586 
L 79.474353 76.386534 
L 79.528712 76.150274 
L 79.583071 74.566821 
L 79.637429 75.598563 
L 79.746147 74.107793 
L 79.854865 76.616283 
L 79.909224 75.263662 
L 79.963583 76.632351 
L 80.017942 76.555926 
L 80.181019 74.541503 
L 80.235378 76.007248 
L 80.289737 75.766398 
L 80.344096 74.320371 
L 80.398455 74.747188 
L 80.561531 75.976856 
L 80.61589 74.575621 
L 80.670249 77.082634 
L 80.724608 74.781061 
L 80.833326 75.712704 
L 80.887685 75.271832 
L 80.942044 75.129196 
L 80.996403 76.592366 
L 81.050762 75.554275 
L 81.105121 75.276962 
L 81.15948 76.784308 
L 81.322556 74.308302 
L 81.376915 75.96954 
L 81.431274 75.275151 
L 81.485633 73.7974 
L 81.539992 74.854185 
L 81.594351 77.062374 
L 81.64871 75.420102 
L 81.703069 76.077283 
L 81.811787 74.25379 
L 81.866146 75.943509 
L 81.920505 75.213806 
L 81.974863 75.008455 
L 82.029222 74.368488 
L 82.13794 77.432473 
L 82.246658 76.952528 
L 82.301017 74.538508 
L 82.355376 76.099416 
L 82.409735 76.715613 
L 82.464094 74.533336 
L 82.518453 76.901775 
L 82.572812 73.541866 
L 82.627171 74.962296 
L 82.68153 73.908613 
L 82.735888 78.777876 
L 82.790247 76.033292 
L 82.844606 74.019071 
L 82.898965 74.86347 
L 83.007683 75.986214 
L 83.116401 75.821395 
L 83.17076 74.502909 
L 83.225119 77.321113 
L 83.279478 73.966915 
L 83.333837 76.579612 
L 83.388196 77.101508 
L 83.442555 75.363065 
L 83.496913 76.768298 
L 83.551272 76.40028 
L 83.605631 76.971115 
L 83.65999 75.003477 
L 83.714349 77.453951 
L 83.768708 75.084843 
L 83.931785 76.57993 
L 84.149221 74.95037 
L 84.312297 76.242432 
L 84.475374 73.451711 
L 84.584092 76.180217 
L 84.69281 74.534481 
L 84.747169 75.26597 
L 84.801528 74.504741 
L 84.855887 74.704212 
L 84.964605 77.587447 
L 85.018963 75.848614 
L 85.073322 76.076978 
L 85.127681 76.11919 
L 85.18204 76.771671 
L 85.290758 75.005446 
L 85.345117 75.313487 
L 85.508194 76.973417 
L 85.562553 74.042666 
L 85.616912 75.511801 
L 85.671271 74.809729 
L 85.72563 76.495486 
L 85.779988 74.548014 
L 85.834347 74.951603 
L 85.888706 77.296051 
L 85.943065 75.320675 
L 85.997424 75.033901 
L 86.051783 77.074806 
L 86.106142 75.749555 
L 86.160501 75.137231 
L 86.323578 77.51385 
L 86.377937 73.155434 
L 86.432296 74.09444 
L 86.486655 76.237291 
L 86.541013 75.689404 
L 86.595372 75.075393 
L 86.649731 76.370319 
L 86.70409 75.236343 
L 86.758449 74.70507 
L 86.812808 76.670202 
L 86.867167 74.104134 
L 86.921526 75.881117 
L 86.975885 75.276893 
L 87.030244 76.503183 
L 87.084603 74.959584 
L 87.138962 77.213695 
L 87.193321 76.323922 
L 87.24768 73.972186 
L 87.302038 74.828268 
L 87.356397 75.127458 
L 87.410756 74.065413 
L 87.465115 76.862759 
L 87.519474 76.041876 
L 87.573833 74.931249 
L 87.628192 76.868476 
L 87.682551 74.784368 
L 87.73691 76.056018 
L 87.791269 76.096855 
L 87.845628 72.809183 
L 87.899987 75.748827 
L 87.954346 75.111433 
L 88.008705 76.187971 
L 88.063063 75.765305 
L 88.117422 74.502048 
L 88.22614 77.33716 
L 88.280499 74.151516 
L 88.334858 76.497817 
L 88.389217 75.877204 
L 88.443576 76.825646 
L 88.497935 75.608307 
L 88.552294 76.369356 
L 88.606653 78.495848 
L 88.715371 75.350252 
L 88.76973 75.525004 
L 88.824088 74.257528 
L 88.878447 76.361119 
L 88.932806 74.865452 
L 89.041524 75.580568 
L 89.095883 76.627979 
L 89.150242 75.667923 
L 89.204601 76.241562 
L 89.25896 75.279566 
L 89.313319 76.778782 
L 89.367678 74.338406 
L 89.422037 76.168202 
L 89.476396 74.488144 
L 89.530755 75.603767 
L 89.585113 75.03044 
L 89.639472 75.430761 
L 89.693831 75.064794 
L 89.74819 76.396168 
L 89.911267 74.321379 
L 89.965626 75.378565 
L 90.019985 73.106438 
L 90.074344 76.978901 
L 90.128703 75.756176 
L 90.183062 75.925155 
L 90.237421 76.905535 
L 90.400497 73.340975 
L 90.454856 75.667729 
L 90.509215 74.334652 
L 90.563574 74.817852 
L 90.617933 74.28075 
L 90.726651 79.711449 
L 90.835369 74.520146 
L 90.889728 75.197957 
L 90.998446 74.041469 
L 91.052805 76.433795 
L 91.107163 76.179552 
L 91.161522 73.400919 
L 91.215881 75.989791 
L 91.27024 75.461896 
L 91.324599 77.507212 
L 91.378958 74.183299 
L 91.433317 75.170972 
L 91.487676 74.561483 
L 91.542035 77.689235 
L 91.596394 75.234092 
L 91.650753 73.393626 
L 91.705112 76.256979 
L 91.81383 76.185688 
L 91.976906 75.112301 
L 92.031265 75.94521 
L 92.139983 74.669215 
L 92.194342 75.105452 
L 92.248701 76.584333 
L 92.30306 74.763172 
L 92.411778 77.036881 
L 92.520496 74.537495 
L 92.574855 75.563517 
L 92.629213 75.34439 
L 92.683572 75.290837 
L 92.737931 76.741827 
L 92.79229 75.432178 
L 92.846649 74.38299 
L 93.009726 77.563135 
L 93.172803 75.095631 
L 93.33588 75.786074 
L 93.390238 73.892241 
L 93.498956 77.526619 
L 93.553315 76.934928 
L 93.607674 75.030091 
L 93.662033 76.669558 
L 93.770751 74.155496 
L 93.82511 76.331572 
L 93.879469 76.141138 
L 93.933828 75.39944 
L 93.988187 75.890635 
L 94.042546 75.847251 
L 94.151263 75.194428 
L 94.259981 77.038855 
L 94.423058 75.050137 
L 94.477417 73.831324 
L 94.531776 77.313442 
L 94.586135 76.218897 
L 94.694853 76.489601 
L 94.803571 74.363397 
L 94.85793 76.366383 
L 94.912288 74.309862 
L 94.966647 72.7016 
L 95.021006 76.275514 
L 95.129724 76.210215 
L 95.184083 73.666521 
L 95.292801 76.50688 
L 95.34716 75.967182 
L 95.455878 77.192541 
L 95.510237 76.860329 
L 95.564596 74.965127 
L 95.618955 75.205992 
L 95.727672 76.609199 
L 95.782031 76.593018 
L 95.83639 75.460175 
L 95.890749 75.482034 
L 95.999467 78.249678 
L 96.162544 74.686667 
L 96.216903 76.787011 
L 96.325621 74.172341 
L 96.37998 74.612644 
L 96.434338 73.801481 
L 96.488697 74.192232 
L 96.597415 77.175009 
L 96.760492 75.084783 
L 96.814851 76.773525 
L 96.977928 74.4292 
L 97.032287 75.880937 
L 97.086646 75.721996 
L 97.141005 75.371237 
L 97.195364 76.416606 
L 97.249722 75.766979 
L 97.304081 75.187415 
L 97.35844 76.62207 
L 97.521517 74.327969 
L 97.575876 74.539005 
L 97.630235 73.704132 
L 97.793312 76.832074 
L 97.847671 74.376616 
L 97.90203 75.383508 
L 97.956389 76.72608 
L 98.010747 72.939302 
L 98.065106 76.393101 
L 98.173824 75.352003 
L 98.282542 76.383023 
L 98.39126 74.55906 
L 98.499978 76.632073 
L 98.554337 76.481138 
L 98.608696 76.482154 
L 98.663055 74.275014 
L 98.717414 75.312181 
L 98.771772 77.161567 
L 98.826131 75.264208 
L 98.88049 76.142509 
L 98.934849 74.343238 
L 98.989208 74.978233 
L 99.043567 75.347723 
L 99.097926 74.396794 
L 99.152285 77.050787 
L 99.206644 76.165387 
L 99.261003 75.901957 
L 99.315362 76.856218 
L 99.369721 75.558107 
L 99.42408 76.460516 
L 99.478439 76.818415 
L 99.532797 76.260136 
L 99.587156 77.219099 
L 99.641515 73.400757 
L 99.695874 76.754245 
L 99.804592 75.842663 
L 99.91331 76.600696 
L 99.967669 76.451541 
L 100.022028 74.985738 
L 100.076387 76.123983 
L 100.130746 75.884483 
L 100.185105 77.00456 
L 100.239464 76.160677 
L 100.293822 76.112654 
L 100.456899 74.183849 
L 100.511258 74.80034 
L 100.619976 77.598602 
L 100.783053 74.831628 
L 100.891771 76.687793 
L 101.000489 74.252529 
L 101.054847 75.306296 
L 101.109206 74.215764 
L 101.163565 74.856367 
L 101.217924 77.013144 
L 101.272283 74.505201 
L 101.326642 75.729893 
L 101.381001 75.272176 
L 101.43536 75.433748 
L 101.544078 76.304944 
L 101.598437 76.212525 
L 101.652796 74.657306 
L 101.707155 75.894113 
L 101.815872 77.919005 
L 101.978949 75.54991 
L 102.033308 75.853598 
L 102.196385 75.023579 
L 102.305103 76.430748 
L 102.359462 77.414052 
L 102.413821 75.7073 
L 102.46818 76.974816 
L 102.522539 77.597493 
L 102.576897 72.280479 
L 102.631256 78.092804 
L 102.685615 76.795786 
L 102.739974 76.322639 
L 102.794333 76.898129 
L 102.95741 73.911894 
L 103.120487 76.406314 
L 103.174846 73.930913 
L 103.229205 76.120292 
L 103.283564 77.399629 
L 103.337922 76.247905 
L 103.500999 75.147033 
L 103.555358 76.514816 
L 103.609717 73.59712 
L 103.664076 76.74933 
L 103.718435 75.619457 
L 103.772794 74.815534 
L 103.827153 76.733084 
L 103.881512 76.23197 
L 103.99023 73.960692 
L 104.044589 75.968438 
L 104.098947 75.208174 
L 104.153306 75.306366 
L 104.207665 76.449625 
L 104.370742 74.453159 
L 104.425101 76.237318 
L 104.47946 74.040108 
L 104.588178 77.867816 
L 104.751255 74.717569 
L 104.805614 75.044219 
L 104.859972 76.183857 
L 104.914331 74.157433 
L 104.96869 75.152276 
L 105.186126 76.57061 
L 105.240485 73.879399 
L 105.294844 75.09755 
L 105.349203 74.112796 
L 105.457921 76.0555 
L 105.51228 75.720175 
L 105.566639 75.094279 
L 105.620997 77.415984 
L 105.675356 76.375178 
L 105.729715 75.532687 
L 105.784074 75.614248 
L 105.838433 76.190605 
L 105.892792 75.78869 
L 106.110228 74.002863 
L 106.218946 75.616863 
L 106.273305 75.458678 
L 106.327664 75.76605 
L 106.382022 74.458748 
L 106.436381 74.514682 
L 106.599458 76.531046 
L 106.871253 73.517014 
L 106.925612 74.660298 
L 106.979971 76.10301 
L 107.03433 74.460964 
L 107.088689 75.241727 
L 107.143047 75.24298 
L 107.306124 77.241513 
L 107.360483 77.116006 
L 107.469201 75.645034 
L 107.52356 75.884855 
L 107.577919 77.371303 
L 107.686637 73.192862 
L 107.740996 77.138791 
L 107.849714 76.965379 
L 107.904072 76.906735 
L 108.01279 74.022201 
L 108.067149 75.876428 
L 108.121508 75.340388 
L 108.175867 75.522392 
L 108.230226 74.770058 
L 108.284585 75.054248 
L 108.338944 76.698329 
L 108.393303 75.218266 
L 108.447662 75.719628 
L 108.502021 75.491193 
L 108.55638 74.938721 
L 108.665097 76.328106 
L 108.719456 74.457751 
L 108.773815 75.370581 
L 108.828174 74.977695 
L 108.882533 76.426559 
L 108.936892 74.509832 
L 108.991251 76.23766 
L 109.04561 77.335136 
L 109.099969 76.815498 
L 109.154328 75.525493 
L 109.208687 75.67457 
L 109.317405 76.412126 
L 109.371764 75.071528 
L 109.426122 75.678501 
L 109.480481 75.89429 
L 109.53484 76.594095 
L 109.589199 75.862241 
L 109.643558 76.542886 
L 109.806635 74.142979 
L 109.860994 77.939767 
L 109.915353 74.318042 
L 109.969712 74.963267 
L 110.024071 77.179609 
L 110.07843 77.057086 
L 110.187147 74.810857 
L 110.241506 75.287171 
L 110.295865 74.582892 
L 110.458942 77.89886 
L 110.56766 75.664275 
L 110.622019 75.798995 
L 110.730737 75.30186 
L 110.785096 75.503596 
L 110.839455 75.401111 
L 110.893814 74.765961 
L 110.948172 75.060051 
L 111.002531 75.567794 
L 111.05689 74.235397 
L 111.111249 74.393098 
L 111.165608 76.090392 
L 111.328685 73.917618 
L 111.546121 77.469327 
L 111.60048 73.873579 
L 111.654839 74.675845 
L 111.709197 76.116591 
L 111.763556 74.590932 
L 111.817915 75.559736 
L 111.872274 75.870204 
L 111.926633 78.629093 
L 111.980992 76.744044 
L 112.035351 76.677854 
L 112.08971 74.34415 
L 112.144069 76.453123 
L 112.198428 75.721031 
L 112.252787 76.016157 
L 112.307146 76.984966 
L 112.361505 75.466452 
L 112.415864 76.299329 
L 112.470222 76.534483 
L 112.57894 73.697559 
L 112.742017 76.429344 
L 112.905094 74.915865 
L 112.959453 75.49735 
L 113.013812 74.96871 
L 113.12253 75.299646 
L 113.176889 75.019485 
L 113.231248 75.205808 
L 113.285606 75.077813 
L 113.339965 76.015975 
L 113.448683 73.81607 
L 113.557401 76.153006 
L 113.61176 75.766175 
L 113.720478 77.224136 
L 113.774837 75.675701 
L 113.829196 76.671115 
L 113.937914 76.025115 
L 113.992273 75.466606 
L 114.046631 76.043756 
L 114.10099 75.566304 
L 114.155349 77.125335 
L 114.209708 75.315676 
L 114.264067 76.762041 
L 114.372785 74.876407 
L 114.427144 76.01876 
L 114.481503 74.871707 
L 114.535862 74.127249 
L 114.590221 74.771331 
L 114.64458 76.311179 
L 114.698939 74.225841 
L 114.753298 75.930256 
L 114.807656 76.312079 
L 114.862015 76.28548 
L 115.025092 74.763259 
L 115.079451 74.953597 
L 115.188169 74.181717 
L 115.242528 76.459639 
L 115.296887 74.089199 
L 115.351246 76.203939 
L 115.405605 75.710677 
L 115.514323 74.806258 
L 115.568681 74.844224 
L 115.62304 74.446273 
L 115.731758 76.373553 
L 115.949194 74.797919 
L 116.003553 76.199058 
L 116.057912 76.175443 
L 116.112271 74.831791 
L 116.16663 75.645927 
L 116.220989 75.587862 
L 116.275348 76.177663 
L 116.329706 76.083899 
L 116.384065 74.718485 
L 116.438424 76.005054 
L 116.492783 76.469548 
L 116.547142 76.102429 
L 116.65586 75.220883 
L 116.818937 76.164594 
L 116.982014 74.937259 
L 117.090731 74.751913 
L 117.14509 76.426345 
L 117.199449 75.464962 
L 117.253808 75.632242 
L 117.308167 75.169635 
L 117.362526 75.361995 
L 117.416885 75.433602 
L 117.471244 74.991578 
L 117.579962 76.392823 
L 117.634321 76.224296 
L 117.797398 75.033014 
L 117.851756 77.019708 
L 117.906115 76.299871 
L 117.960474 75.623223 
L 118.014833 75.762527 
L 118.069192 75.787341 
L 118.232269 75.390227 
L 118.286628 75.99704 
L 118.340987 75.400098 
L 118.395346 74.722214 
L 118.504064 75.993429 
L 118.612781 75.242403 
L 118.66714 75.250849 
L 118.775858 75.691348 
L 118.830217 74.99981 
L 118.884576 76.67789 
L 118.938935 75.922396 
L 118.993294 75.875597 
L 119.047653 75.490293 
L 119.102012 75.702487 
L 119.21073 76.025693 
L 119.319448 75.065515 
L 119.373806 75.35524 
L 119.482524 74.640547 
L 119.536883 75.056845 
L 119.591242 73.98116 
L 119.645601 74.926379 
L 119.69996 76.464658 
L 119.754319 75.743548 
L 119.917396 74.374097 
L 119.971755 76.381867 
L 120.026114 75.942612 
L 120.134831 74.276905 
L 120.297908 75.974713 
L 120.460985 74.71744 
L 120.515344 76.024979 
L 120.569703 75.142301 
L 120.624062 75.808135 
L 120.678421 75.248351 
L 120.73278 75.739956 
L 120.787139 75.240611 
L 120.841498 75.491848 
L 120.895856 75.108319 
L 121.004574 76.118654 
L 121.113292 75.22767 
L 121.167651 75.890742 
L 121.22201 75.415864 
L 121.276369 75.495605 
L 121.330728 75.333914 
L 121.493805 75.885171 
L 121.548164 75.201234 
L 121.602523 75.837695 
L 121.765599 74.925409 
L 121.819958 75.676885 
L 121.874317 75.151728 
L 121.928676 75.319562 
L 122.037394 74.659681 
L 122.146112 75.669532 
L 122.309189 75.126783 
L 122.363548 74.975372 
L 122.417906 76.053567 
L 122.472265 75.472393 
L 122.526624 75.144037 
L 122.580983 76.172654 
L 122.635342 75.401759 
L 122.689701 75.495406 
L 122.74406 75.341655 
L 122.798419 75.493297 
L 122.852778 75.451057 
L 123.015855 75.873056 
L 123.070214 75.527797 
L 123.124573 75.814984 
L 123.178931 75.95224 
L 123.23329 75.255542 
L 123.287649 75.503554 
L 123.342008 75.938231 
L 123.396367 75.488548 
L 123.450726 75.491116 
L 123.505085 75.309767 
L 123.668162 76.063334 
L 123.722521 75.121134 
L 123.77688 75.643567 
L 123.831239 75.60748 
L 123.885598 75.25725 
L 123.939956 75.44958 
L 123.994315 75.787983 
L 124.048674 75.761704 
L 124.157392 75.633403 
L 124.211751 74.930236 
L 124.26611 75.667415 
L 124.320469 75.15445 
L 124.374828 75.546033 
L 124.537905 75.291635 
L 124.592264 75.320938 
L 124.646623 75.351653 
L 124.75534 75.215836 
L 124.918417 75.723117 
L 125.027135 75.360993 
L 125.081494 75.398412 
L 125.135853 75.432787 
L 125.190212 75.847919 
L 125.244571 75.383987 
L 125.29893 75.774226 
L 125.462006 75.447894 
L 125.570724 75.814965 
L 125.625083 75.440613 
L 125.679442 75.665461 
L 125.733801 75.614479 
L 125.78816 75.774951 
L 125.842519 75.622558 
L 125.951237 75.464898 
L 126.005596 75.613794 
L 126.059955 75.40805 
L 126.223031 75.741081 
L 126.27739 75.390536 
L 126.331749 75.546843 
L 126.386108 75.520328 
L 126.440467 75.712983 
L 126.494826 75.600731 
L 126.549185 75.419081 
L 126.603544 75.613798 
L 126.657903 75.645552 
L 126.82098 75.525746 
L 127.636364 75.554562 
L 127.636364 75.554562 
" clip-path="url(#pbc2a8d3a66)" style="fill: none; stroke: #fc8d62; stroke-width: 1.5; stroke-linecap: square"/>
   </g>
   <g id="patch_3">
    <path d="M 10.8 133.2 
L 10.8 10.8 
" style="fill: none; stroke: #000000; stroke-width: 0.8; stroke-linejoin: miter; stroke-linecap: square"/>
   </g>
   <g id="patch_4">
    <path d="M 133.2 133.2 
L 133.2 10.8 
" style="fill: none; stroke: #000000; stroke-width: 0.8; stroke-linejoin: miter; stroke-linecap: square"/>
   </g>
   <g id="patch_5">
    <path d="M 10.8 133.2 
L 133.2 133.2 
" style="fill: none; stroke: #000000; stroke-width: 0.8; stroke-linejoin: miter; stroke-linecap: square"/>
   </g>
   <g id="patch_6">
    <path d="M 10.8 10.8 
L 133.2 10.8 
" style="fill: none; stroke: #000000; stroke-width: 0.8; stroke-linejoin: miter; stroke-linecap: square"/>
   </g>
  </g>
 </g>
 <defs>
  <clipPath id="pbc2a8d3a66">
   <rect x="10.8" y="10.8" width="122.4" height="122.4"/>
  </clipPath>
 </defs>
</svg>
