<?xml version="1.0" encoding="utf-8" standalone="no"?>
<!DOCTYPE svg PUBLIC "-//W3C//DTD SVG 1.1//EN"
  "http://www.w3.org/Graphics/SVG/1.1/DTD/svg11.dtd">
<svg xmlns:xlink="http://www.w3.org/1999/xlink" width="144pt" height="144pt" viewBox="0 0 144 144" xmlns="http://www.w3.org/2000/svg" version="1.1">
 <metadata>
  <rdf:RDF xmlns:dc="http://purl.org/dc/elements/1.1/" xmlns:cc="http://creativecommons.org/ns#" xmlns:rdf="http://www.w3.org/1999/02/22-rdf-syntax-ns#">
   <cc:Work>
    <dc:type rdf:resource="http://purl.org/dc/dcmitype/StillImage"/>
    <dc:date>2025-02-07T11:27:54.787191</dc:date>
    <dc:format>image/svg+xml</dc:format>
    <dc:creator>
     <cc:Agent>
      <dc:title>Matplotlib v3.8.0, https://matplotlib.org/</dc:title>
     </cc:Agent>
    </dc:creator>
   </cc:Work>
  </rdf:RDF>
 </metadata>
 <defs>
  <style type="text/css">*{stroke-linejoin: round; stroke-linecap: butt}</style>
 </defs>
 <g id="figure_1">
  <g id="patch_1">
   <path d="M 0 144 
L 144 144 
L 144 0 
L 0 0 
L 0 144 
z
" style="fill: none"/>
  </g>
  <g id="axes_1">
   <g id="patch_2">
    <path d="M 10.8 133.2 
L 133.2 133.2 
L 133.2 10.8 
L 10.8 10.8 
L 10.8 133.2 
z
" style="fill: none"/>
   </g>
   <g id="matplotlib.axis_1"/>
   <g id="matplotlib.axis_2"/>
   <g id="line2d_1">
    <path d="M 16.363636 75.442537 
L 25.876449 75.411773 
L 25.930808 75.226842 
L 25.985167 75.385876 
L 26.093885 75.457799 
L 26.202602 75.376549 
L 26.256961 75.479724 
L 26.31132 75.406911 
L 26.800551 75.454756 
L 26.85491 75.356916 
L 26.909269 75.441258 
L 26.963627 75.544256 
L 27.017986 75.444465 
L 27.452858 75.513134 
L 27.507217 75.261981 
L 27.561576 75.406864 
L 27.724652 75.551697 
L 27.779011 75.382085 
L 27.83337 75.472853 
L 28.050806 75.503697 
L 28.213883 75.391726 
L 28.37696 75.56189 
L 28.431319 75.384402 
L 28.485677 75.430389 
L 28.648754 75.45709 
L 28.703113 75.316086 
L 28.757472 75.416405 
L 28.811831 75.47542 
L 28.974908 75.333682 
L 29.137985 75.497804 
L 29.192344 75.489929 
L 29.246702 75.365773 
L 29.301061 75.554472 
L 29.35542 75.381645 
L 29.409779 75.478892 
L 29.464138 75.38744 
L 29.518497 75.394717 
L 29.572856 75.613695 
L 29.627215 75.346494 
L 29.681574 75.400127 
L 29.735933 75.402751 
L 29.790292 75.554171 
L 29.844651 75.410602 
L 29.953369 75.466336 
L 30.062086 75.608702 
L 30.170804 75.324126 
L 30.225163 75.365781 
L 30.279522 75.477171 
L 30.333881 75.392496 
L 30.38824 75.315717 
L 30.551317 75.617325 
L 30.605676 75.309867 
L 30.660035 75.488901 
L 30.714394 75.592751 
L 30.768752 75.513081 
L 30.87747 75.396314 
L 30.931829 75.450036 
L 30.986188 75.58354 
L 31.149265 75.260852 
L 31.366701 75.526558 
L 31.584136 75.372646 
L 31.638495 75.488925 
L 31.692854 75.437646 
L 31.747213 75.453822 
L 31.801572 75.628665 
L 31.964649 75.332663 
L 32.073367 75.660116 
L 32.236444 75.365042 
L 32.290803 75.714686 
L 32.345161 75.697518 
L 32.508238 75.388591 
L 32.671315 75.531784 
L 32.780033 75.467978 
L 32.834392 75.531918 
L 32.997469 75.285949 
L 33.106186 75.541569 
L 33.160545 75.429118 
L 33.377981 75.677854 
L 33.43234 75.283451 
L 33.486699 75.341733 
L 33.649776 75.607683 
L 33.758494 75.230192 
L 33.812853 75.276464 
L 33.92157 75.612762 
L 34.030288 75.212335 
L 34.193365 75.647457 
L 34.247724 75.228141 
L 34.302083 75.615959 
L 34.356442 75.467833 
L 34.410801 75.771387 
L 34.46516 75.555942 
L 34.519519 75.608646 
L 34.628236 75.218559 
L 34.682595 75.278731 
L 34.845672 75.579905 
L 34.900031 75.528714 
L 35.063108 75.30068 
L 35.171826 75.407068 
L 35.389261 75.338481 
L 35.44362 75.536819 
L 35.497979 75.397004 
L 35.552338 75.457077 
L 35.606697 75.348742 
L 35.661056 75.478494 
L 35.715415 75.703745 
L 35.878492 75.304821 
L 36.041569 75.353315 
L 36.095928 75.597899 
L 36.150286 75.251879 
L 36.259004 75.27496 
L 36.367722 75.526734 
L 36.422081 75.303125 
L 36.47644 75.535929 
L 36.693876 75.246579 
L 36.748235 75.386257 
L 36.911311 75.393862 
L 36.96567 75.16028 
L 37.020029 75.329084 
L 37.128747 75.477662 
L 37.237465 75.264309 
L 37.346183 75.7082 
L 37.454901 75.376621 
L 37.617978 75.617332 
L 37.672336 75.331613 
L 37.726695 75.415841 
L 37.781054 75.674268 
L 37.835413 75.642518 
L 37.889772 75.285453 
L 37.944131 75.336823 
L 38.052849 75.57006 
L 38.107208 75.358782 
L 38.161567 75.616752 
L 38.215926 75.291271 
L 38.270285 75.303888 
L 38.324644 75.516797 
L 38.48772 75.150895 
L 38.542079 75.717086 
L 38.596438 75.562578 
L 38.650797 75.501059 
L 38.705156 75.208731 
L 38.759515 75.523944 
L 39.03131 75.129488 
L 39.085669 75.215242 
L 39.248745 75.362399 
L 39.303104 75.346616 
L 39.357463 75.676909 
L 39.411822 75.277434 
L 39.466181 75.532402 
L 39.683617 75.346369 
L 39.737976 75.562014 
L 39.792335 75.485803 
L 39.846694 75.14003 
L 39.901053 75.428901 
L 40.00977 75.574406 
L 40.064129 75.150133 
L 40.118488 75.554506 
L 40.172847 75.530637 
L 40.281565 75.190296 
L 40.335924 75.665957 
L 40.390283 75.380813 
L 40.444642 75.3407 
L 40.499001 75.444213 
L 40.55336 75.126919 
L 40.607719 75.629222 
L 40.662078 75.498098 
L 40.716436 75.15311 
L 40.770795 75.709079 
L 40.825154 75.398607 
L 40.988231 74.839501 
L 41.096949 75.578599 
L 41.151308 75.547888 
L 41.205667 75.569282 
L 41.260026 74.845866 
L 41.314385 75.150424 
L 41.423103 75.707239 
L 41.586179 75.248102 
L 41.694897 75.723493 
L 41.857974 75.203257 
L 41.966692 76.028513 
L 42.129769 75.183752 
L 42.292845 75.633194 
L 42.455922 75.184702 
L 42.56464 75.607237 
L 42.618999 75.286192 
L 42.673358 75.806363 
L 42.727717 75.478426 
L 42.782076 75.114942 
L 42.836435 75.372869 
L 42.945153 75.484697 
L 42.999511 74.76111 
L 43.05387 75.535389 
L 43.108229 75.41169 
L 43.216947 74.909769 
L 43.271306 74.989958 
L 43.434383 75.32084 
L 43.488742 75.520855 
L 43.543101 75.005787 
L 43.59746 75.39372 
L 43.651819 75.788847 
L 43.706178 75.416533 
L 43.814895 75.785093 
L 43.923613 75.171066 
L 44.032331 75.656045 
L 44.08669 75.149353 
L 44.141049 75.203422 
L 44.304126 75.745268 
L 44.467203 75.203007 
L 44.521561 75.704197 
L 44.57592 75.238923 
L 44.738997 75.746375 
L 44.847715 75.074288 
L 44.902074 75.438402 
L 45.065151 74.910036 
L 45.228228 75.555844 
L 45.282586 75.540768 
L 45.336945 75.790924 
L 45.391304 75.35644 
L 45.445663 75.486613 
L 45.60874 75.547128 
L 45.663099 75.111359 
L 45.717458 75.230937 
L 45.771817 76.061103 
L 45.826176 75.745268 
L 45.934894 75.194227 
L 46.152329 75.735445 
L 46.206688 75.057039 
L 46.261047 75.933201 
L 46.315406 75.828669 
L 46.369765 75.072718 
L 46.424124 75.31206 
L 46.478483 75.386442 
L 46.532842 75.173206 
L 46.587201 75.388955 
L 46.64156 75.387822 
L 46.695919 75.179218 
L 46.750278 75.542549 
L 46.804636 75.210387 
L 47.022072 75.089327 
L 47.185149 75.803675 
L 47.293867 75.308006 
L 47.348226 75.334702 
L 47.402585 75.495651 
L 47.456944 75.020975 
L 47.511303 75.288819 
L 47.565662 75.288489 
L 47.62002 75.636396 
L 47.674379 75.504201 
L 47.728738 75.577977 
L 47.837456 75.303158 
L 47.891815 76.188538 
L 47.946174 75.26785 
L 48.000533 75.20647 
L 48.054892 75.342046 
L 48.109251 75.072769 
L 48.272328 75.64374 
L 48.326687 74.744092 
L 48.381045 74.874573 
L 48.489763 75.423371 
L 48.544122 75.118182 
L 48.598481 75.209185 
L 48.65284 75.51081 
L 48.707199 75.476626 
L 48.870276 75.008724 
L 48.924635 75.918766 
L 48.978994 75.42254 
L 49.033353 74.930214 
L 49.196429 75.890852 
L 49.359506 74.74866 
L 49.522583 75.399911 
L 49.576942 74.98987 
L 49.740019 76.355693 
L 49.903095 75.161834 
L 49.957454 74.916055 
L 50.120531 75.6467 
L 50.17489 74.926608 
L 50.229249 76.258505 
L 50.283608 75.601953 
L 50.337967 75.81794 
L 50.501044 75.205098 
L 50.609762 75.420458 
L 50.66412 75.403809 
L 50.718479 75.365735 
L 50.772838 75.588343 
L 50.827197 75.1509 
L 50.935915 75.841918 
L 51.098992 74.829003 
L 51.20771 75.074423 
L 51.262069 75.114516 
L 51.316428 74.760219 
L 51.425145 75.640872 
L 51.479504 75.07096 
L 51.533863 75.639366 
L 51.588222 75.515663 
L 51.642581 75.759944 
L 51.751299 75.020813 
L 51.914376 75.931655 
L 51.968735 74.803778 
L 52.023094 75.4251 
L 52.077453 75.844624 
L 52.18617 74.348127 
L 52.240529 75.750857 
L 52.294888 75.220539 
L 52.349247 75.439828 
L 52.457965 74.191486 
L 52.512324 75.016986 
L 52.675401 75.927629 
L 52.838478 75.252889 
L 52.947195 76.147341 
L 53.055913 74.874653 
L 53.110272 75.921879 
L 53.164631 75.609356 
L 53.21899 75.277939 
L 53.273349 76.137805 
L 53.327708 75.16572 
L 53.382067 75.348647 
L 53.436426 75.76411 
L 53.490785 74.935755 
L 53.545144 75.744202 
L 53.653862 75.036195 
L 53.70822 75.715524 
L 53.762579 75.241687 
L 53.816938 74.876986 
L 53.871297 75.910781 
L 53.925656 74.993302 
L 53.980015 75.200657 
L 54.034374 76.244739 
L 54.088733 75.737714 
L 54.25181 75.069395 
L 54.306169 75.45118 
L 54.360528 75.795449 
L 54.414887 75.074984 
L 54.469245 75.669656 
L 54.523604 75.407382 
L 54.577963 75.715876 
L 54.632322 75.623614 
L 54.686681 75.582551 
L 54.74104 75.994835 
L 54.795399 75.708939 
L 54.849758 75.920353 
L 54.904117 75.053554 
L 54.958476 75.996021 
L 55.067194 74.749825 
L 55.121553 75.946359 
L 55.175912 75.365705 
L 55.23027 75.480449 
L 55.284629 74.945248 
L 55.338988 75.258216 
L 55.502065 75.749744 
L 55.610783 75.423698 
L 55.665142 76.207896 
L 55.719501 74.562179 
L 55.77386 75.386881 
L 55.882578 75.433344 
L 55.936937 76.055592 
L 55.991295 75.145776 
L 56.045654 75.575547 
L 56.154372 75.21265 
L 56.317449 75.901703 
L 56.371808 75.344901 
L 56.426167 75.817603 
L 56.480526 75.472642 
L 56.589244 76.02568 
L 56.697962 75.469429 
L 56.75232 75.885569 
L 56.806679 75.541642 
L 56.915397 74.959745 
L 56.969756 75.765602 
L 57.024115 75.306468 
L 57.078474 75.570984 
L 57.132833 75.393803 
L 57.187192 75.074743 
L 57.241551 76.050852 
L 57.29591 75.552359 
L 57.350269 74.846747 
L 57.404628 75.249131 
L 57.458987 75.133061 
L 57.513345 75.917313 
L 57.567704 75.102092 
L 57.730781 75.985884 
L 57.839499 74.901095 
L 57.893858 75.495304 
L 58.002576 75.143444 
L 58.056935 75.416364 
L 58.111294 76.515883 
L 58.165653 75.405304 
L 58.220012 74.503461 
L 58.27437 75.617236 
L 58.328729 75.571941 
L 58.383088 74.504755 
L 58.437447 75.902519 
L 58.491806 75.611834 
L 58.600524 75.066803 
L 58.709242 76.152026 
L 58.763601 75.936105 
L 58.81796 75.863065 
L 58.872319 75.209678 
L 58.926678 75.397894 
L 58.981037 75.824104 
L 59.035395 75.475475 
L 59.089754 75.466676 
L 59.144113 75.706967 
L 59.198472 75.234725 
L 59.252831 75.374283 
L 59.30719 76.184123 
L 59.361549 75.721127 
L 59.415908 76.004274 
L 59.470267 75.733265 
L 59.633344 74.576004 
L 59.850779 75.745604 
L 59.905138 75.6568 
L 59.959497 76.074227 
L 60.013856 75.09012 
L 60.068215 76.284849 
L 60.122574 74.940837 
L 60.176933 75.248658 
L 60.231292 75.390816 
L 60.394369 74.665912 
L 60.448728 74.677015 
L 60.557445 75.455051 
L 60.611804 74.441367 
L 60.774881 76.966007 
L 60.937958 74.586247 
L 60.992317 75.482887 
L 61.046676 76.024452 
L 61.101035 75.604268 
L 61.209753 75.755527 
L 61.31847 75.187134 
L 61.372829 75.467027 
L 61.427188 75.047601 
L 61.481547 75.378711 
L 61.590265 76.468471 
L 61.644624 76.07194 
L 61.698983 76.021926 
L 61.86206 74.39795 
L 61.970778 75.949453 
L 62.079495 74.505543 
L 62.133854 74.999258 
L 62.188213 75.440712 
L 62.242572 74.867147 
L 62.296931 76.209058 
L 62.35129 75.132865 
L 62.405649 75.728946 
L 62.460008 74.811455 
L 62.514367 75.074513 
L 62.623085 75.565179 
L 62.731803 75.163587 
L 62.84052 75.61149 
L 62.894879 75.025969 
L 63.003597 76.29668 
L 63.112315 74.882876 
L 63.166674 75.068512 
L 63.275392 75.560621 
L 63.329751 74.701439 
L 63.38411 76.932485 
L 63.438469 75.904007 
L 63.492828 75.084315 
L 63.547187 75.428249 
L 63.601545 76.30058 
L 63.710263 75.154469 
L 63.764622 75.1929 
L 63.927699 75.48312 
L 63.982058 75.3371 
L 64.036417 76.377852 
L 64.090776 75.63557 
L 64.145135 76.221436 
L 64.199494 75.392306 
L 64.253853 75.787992 
L 64.308212 75.93312 
L 64.416929 75.469735 
L 64.471288 76.084526 
L 64.525647 75.59556 
L 64.634365 75.954123 
L 64.688724 74.556289 
L 64.743083 76.073021 
L 64.797442 74.760046 
L 64.960519 75.41643 
L 65.014878 74.30779 
L 65.069237 75.215138 
L 65.123596 76.009359 
L 65.177954 75.269029 
L 65.286672 74.911177 
L 65.341031 76.439839 
L 65.39539 73.753836 
L 65.449749 75.677792 
L 65.558467 76.301436 
L 65.612826 74.761696 
L 65.667185 74.830877 
L 65.775903 76.51486 
L 65.830262 75.311034 
L 65.884621 75.516721 
L 65.993338 75.56397 
L 66.156415 76.575417 
L 66.210774 75.246744 
L 66.265133 76.843184 
L 66.319492 74.734734 
L 66.373851 75.839213 
L 66.482569 74.560316 
L 66.591287 75.868778 
L 66.645646 74.571813 
L 66.700004 75.814984 
L 66.754363 75.937199 
L 66.808722 75.479989 
L 66.863081 76.135782 
L 66.91744 75.528029 
L 67.026158 74.702878 
L 67.080517 75.072255 
L 67.134876 75.100274 
L 67.297953 77.120823 
L 67.352312 75.166796 
L 67.406671 76.220959 
L 67.515388 75.417302 
L 67.569747 75.688416 
L 67.624106 75.581675 
L 67.678465 75.111774 
L 67.732824 75.328294 
L 67.787183 76.1261 
L 67.841542 75.934977 
L 67.895901 75.521388 
L 67.95026 76.793302 
L 68.004619 74.965412 
L 68.058978 75.616411 
L 68.113337 75.342522 
L 68.167696 76.555406 
L 68.330772 74.884524 
L 68.43949 76.607684 
L 68.548208 76.051417 
L 68.602567 74.327643 
L 68.656926 76.399426 
L 68.711285 76.066633 
L 68.765644 75.430276 
L 68.820003 76.903727 
L 68.983079 74.783525 
L 69.037438 75.010093 
L 69.091797 75.729238 
L 69.146156 75.674738 
L 69.309233 74.300313 
L 69.526669 76.221794 
L 69.635387 75.680437 
L 69.689746 75.956174 
L 69.852822 75.115647 
L 69.907181 75.100513 
L 69.96154 73.848793 
L 70.015899 74.329433 
L 70.070258 75.566039 
L 70.124617 74.88145 
L 70.396412 75.500608 
L 70.450771 75.462593 
L 70.505129 76.439504 
L 70.668206 75.172475 
L 70.722565 74.959478 
L 70.831283 76.340322 
L 70.885642 73.817823 
L 70.940001 75.029562 
L 70.99436 74.862651 
L 71.048719 77.610272 
L 71.103078 74.96197 
L 71.157437 75.766488 
L 71.211796 75.323682 
L 71.266154 74.654584 
L 71.374872 76.268873 
L 71.537949 75.143556 
L 71.701026 76.993094 
L 71.755385 74.758619 
L 71.809744 74.88115 
L 71.864103 76.068989 
L 72.027179 73.995459 
L 72.135897 76.303659 
L 72.190256 75.930311 
L 72.353333 75.215282 
L 72.407692 76.821389 
L 72.462051 74.984291 
L 72.51641 75.612254 
L 72.679487 75.11613 
L 72.788204 76.374147 
L 72.842563 75.166389 
L 72.896922 76.585291 
L 72.951281 75.103134 
L 73.059999 76.057739 
L 73.114358 75.526067 
L 73.168717 74.499548 
L 73.223076 74.734192 
L 73.331794 76.621423 
L 73.440512 74.732908 
L 73.494871 75.670595 
L 73.549229 75.104181 
L 73.603588 75.201847 
L 73.657947 74.770214 
L 73.712306 74.850028 
L 73.929742 75.939625 
L 73.984101 75.04156 
L 74.03846 75.574768 
L 74.092819 75.329796 
L 74.147178 74.264951 
L 74.310254 76.418252 
L 74.582049 74.585025 
L 74.636408 74.631901 
L 74.690767 76.463872 
L 74.745126 76.203949 
L 74.853844 75.464561 
L 74.908203 77.020518 
L 74.962562 75.802142 
L 75.016921 74.820274 
L 75.179997 76.323719 
L 75.234356 76.864053 
L 75.343074 74.64014 
L 75.397433 74.765132 
L 75.451792 75.785641 
L 75.506151 75.049682 
L 75.669228 76.52461 
L 75.723587 75.759421 
L 75.777946 76.046104 
L 75.832304 76.425812 
L 75.886663 75.463794 
L 75.941022 76.506111 
L 76.04974 75.167998 
L 76.158458 75.846728 
L 76.212817 75.125166 
L 76.267176 75.741187 
L 76.321535 75.188293 
L 76.375894 75.538046 
L 76.430253 75.776434 
L 76.484612 74.408941 
L 76.538971 75.065724 
L 76.593329 76.321985 
L 76.647688 74.796978 
L 76.702047 75.825841 
L 76.756406 75.502544 
L 76.865124 76.724317 
L 76.919483 74.582952 
L 76.973842 75.118205 
L 77.08256 75.941888 
L 77.136919 74.529814 
L 77.191278 76.633025 
L 77.245637 75.980731 
L 77.408713 75.310863 
L 77.463072 75.370376 
L 77.57179 75.979738 
L 77.626149 75.349327 
L 77.680508 75.921317 
L 77.734867 77.144703 
L 77.789226 76.588566 
L 77.897944 74.697651 
L 77.952303 75.925844 
L 78.006662 73.858564 
L 78.061021 74.682099 
L 78.169738 76.131478 
L 78.224097 74.540274 
L 78.278456 76.148682 
L 78.332815 76.422546 
L 78.495892 74.829958 
L 78.60461 74.627441 
L 78.658969 74.726386 
L 78.713328 75.208275 
L 78.767687 73.774658 
L 78.822046 74.239915 
L 78.876404 75.911111 
L 78.930763 73.962176 
L 78.985122 75.123138 
L 79.039481 75.099335 
L 79.148199 73.199291 
L 79.311276 75.807793 
L 79.474353 74.813241 
L 79.528712 75.754209 
L 79.583071 74.299426 
L 79.637429 75.161602 
L 79.691788 76.909046 
L 79.854865 73.57973 
L 79.909224 76.317703 
L 79.963583 75.81028 
L 80.017942 74.314941 
L 80.072301 75.361471 
L 80.12666 76.548392 
L 80.181019 72.401333 
L 80.235378 76.176276 
L 80.289737 76.74186 
L 80.344096 74.182664 
L 80.398455 76.227056 
L 80.452813 75.328636 
L 80.507172 77.209407 
L 80.561531 77.127966 
L 80.724608 73.832455 
L 80.887685 76.999572 
L 81.050762 74.093258 
L 81.105121 74.133898 
L 81.15948 76.237733 
L 81.213838 75.834628 
L 81.268197 75.751378 
L 81.322556 76.770334 
L 81.376915 76.268503 
L 81.539992 74.544327 
L 81.594351 74.670904 
L 81.64871 74.542525 
L 81.811787 76.849056 
L 81.866146 76.558554 
L 81.974863 76.607858 
L 82.029222 74.588174 
L 82.083581 73.8659 
L 82.13794 74.39375 
L 82.355376 76.056961 
L 82.409735 75.637521 
L 82.518453 73.972141 
L 82.627171 75.83846 
L 82.68153 74.940761 
L 82.735888 75.137044 
L 82.790247 76.06342 
L 82.844606 75.724106 
L 82.898965 75.65923 
L 82.953324 75.811887 
L 83.062042 73.006697 
L 83.17076 75.502541 
L 83.225119 75.420946 
L 83.279478 75.445641 
L 83.388196 77.94915 
L 83.551272 74.591316 
L 83.605631 76.933545 
L 83.65999 73.927763 
L 83.714349 76.531537 
L 83.768708 75.289627 
L 83.823067 75.426349 
L 83.877426 75.518621 
L 83.931785 76.619909 
L 84.040503 74.020479 
L 84.094862 74.168745 
L 84.149221 74.368385 
L 84.257938 76.221228 
L 84.312297 75.081119 
L 84.366656 75.826087 
L 84.421015 76.946497 
L 84.475374 76.115482 
L 84.638451 74.395072 
L 84.747169 76.253519 
L 84.855887 76.082277 
L 84.910246 72.935541 
L 84.964605 74.410514 
L 85.018963 75.414041 
L 85.073322 73.391535 
L 85.127681 76.84064 
L 85.18204 76.01483 
L 85.290758 75.116581 
L 85.453835 75.984783 
L 85.508194 73.923698 
L 85.562553 75.912884 
L 85.616912 76.115988 
L 85.72563 73.275983 
L 85.779988 74.150434 
L 85.834347 76.403826 
L 85.888706 74.225841 
L 85.943065 75.164477 
L 85.997424 75.068771 
L 86.051783 72.993932 
L 86.106142 75.106677 
L 86.160501 74.864312 
L 86.21486 76.681292 
L 86.269219 75.711833 
L 86.323578 75.331813 
L 86.377937 75.384188 
L 86.432296 76.484836 
L 86.541013 73.698996 
L 86.595372 74.661897 
L 86.70409 77.77168 
L 86.758449 74.937026 
L 86.812808 75.035789 
L 86.921526 77.429564 
L 86.975885 72.622793 
L 87.030244 74.124399 
L 87.084603 77.077866 
L 87.138962 75.781173 
L 87.193321 74.902671 
L 87.24768 76.868831 
L 87.302038 75.828405 
L 87.356397 73.622732 
L 87.410756 75.599036 
L 87.465115 77.17127 
L 87.519474 76.330599 
L 87.628192 74.51157 
L 87.682551 75.581188 
L 87.73691 75.269792 
L 87.791269 73.577748 
L 87.845628 75.694799 
L 87.899987 75.279379 
L 87.954346 75.022458 
L 88.008705 77.891721 
L 88.063063 75.589592 
L 88.117422 74.909379 
L 88.22614 76.608732 
L 88.280499 73.702068 
L 88.334858 74.171101 
L 88.389217 77.242824 
L 88.443576 76.416349 
L 88.497935 76.298167 
L 88.552294 76.750088 
L 88.606653 72.339892 
L 88.661012 74.292312 
L 88.715371 73.681497 
L 88.824088 76.526331 
L 88.878447 74.355698 
L 88.987165 74.41413 
L 89.041524 75.343606 
L 89.095883 74.352687 
L 89.204601 76.597554 
L 89.25896 75.540029 
L 89.313319 77.020679 
L 89.367678 75.572074 
L 89.422037 75.424244 
L 89.476396 74.315837 
L 89.530755 74.439796 
L 89.585113 74.631682 
L 89.639472 75.496226 
L 89.693831 75.003701 
L 89.74819 74.281202 
L 89.802549 76.789102 
L 89.856908 75.726585 
L 90.074344 77.401024 
L 90.128703 74.855945 
L 90.183062 75.243807 
L 90.237421 75.112489 
L 90.29178 75.23813 
L 90.454856 75.634401 
L 90.509215 74.37615 
L 90.563574 76.166487 
L 90.617933 74.133447 
L 90.672292 74.662747 
L 90.726651 76.008125 
L 90.78101 75.256749 
L 90.889728 75.803044 
L 91.052805 74.471069 
L 91.161522 76.641287 
L 91.215881 74.775223 
L 91.27024 75.972915 
L 91.378958 74.46702 
L 91.542035 76.321662 
L 91.596394 76.555705 
L 91.705112 73.719046 
L 91.759471 76.182834 
L 91.81383 73.701342 
L 91.922547 76.10416 
L 91.976906 74.489695 
L 92.031265 75.568148 
L 92.194342 74.265528 
L 92.411778 76.378102 
L 92.466137 74.974775 
L 92.520496 75.331941 
L 92.574855 76.69632 
L 92.629213 74.461378 
L 92.683572 75.798315 
L 92.846649 78.213594 
L 92.901008 73.355383 
L 92.955367 75.705888 
L 93.009726 75.550586 
L 93.064085 75.642713 
L 93.118444 74.329011 
L 93.172803 75.095173 
L 93.227162 74.48391 
L 93.33588 75.224651 
L 93.390238 74.415701 
L 93.444597 76.002647 
L 93.498956 72.37047 
L 93.553315 74.864544 
L 93.607674 74.613734 
L 93.662033 73.517462 
L 93.770751 76.24257 
L 93.82511 74.875085 
L 93.879469 77.20317 
L 93.933828 74.303452 
L 93.988187 75.925789 
L 94.042546 77.058595 
L 94.096905 74.018491 
L 94.151263 77.144892 
L 94.205622 76.916694 
L 94.368699 74.230156 
L 94.477417 75.400651 
L 94.531776 75.180952 
L 94.586135 74.881683 
L 94.640494 75.119123 
L 94.694853 76.22144 
L 94.749212 74.53213 
L 94.803571 75.768852 
L 94.85793 75.339233 
L 94.912288 76.573818 
L 95.021006 73.940486 
L 95.075365 76.922563 
L 95.129724 75.220917 
L 95.238442 79.228242 
L 95.292801 74.896244 
L 95.34716 75.561469 
L 95.401519 75.662781 
L 95.455878 75.297871 
L 95.510237 76.394562 
L 95.564596 74.032492 
L 95.618955 74.459464 
L 95.673313 74.955024 
L 95.727672 73.460847 
L 95.782031 76.929979 
L 95.83639 76.136501 
L 95.890749 76.296131 
L 95.945108 74.91503 
L 95.999467 75.46356 
L 96.053826 75.703395 
L 96.216903 75.23525 
L 96.271262 76.63269 
L 96.325621 74.784656 
L 96.37998 75.464235 
L 96.543056 76.547067 
L 96.651774 75.396825 
L 96.706133 76.931863 
L 96.760492 75.678452 
L 96.814851 75.549649 
L 96.86921 77.068411 
L 96.977928 73.713151 
L 97.032287 74.734706 
L 97.086646 75.353739 
L 97.141005 74.386209 
L 97.195364 75.861076 
L 97.249722 75.037634 
L 97.304081 73.113574 
L 97.35844 74.464277 
L 97.521517 76.738879 
L 97.575876 75.917084 
L 97.630235 76.196893 
L 97.684594 76.585952 
L 97.738953 73.224186 
L 97.793312 76.218774 
L 97.90203 74.229364 
L 98.065106 76.410288 
L 98.119465 74.14106 
L 98.173824 75.102771 
L 98.228183 75.94144 
L 98.336901 74.121665 
L 98.39126 75.842727 
L 98.445619 75.194734 
L 98.499978 74.950548 
L 98.554337 75.403783 
L 98.663055 73.782119 
L 98.771772 76.873804 
L 98.826131 76.357521 
L 98.88049 76.106453 
L 98.934849 75.318157 
L 98.989208 75.375337 
L 99.043567 75.684431 
L 99.097926 75.308501 
L 99.152285 73.690462 
L 99.206644 75.353563 
L 99.315362 75.907827 
L 99.369721 74.838372 
L 99.42408 75.943788 
L 99.478439 76.770243 
L 99.587156 74.39334 
L 99.750233 76.976876 
L 99.804592 75.042442 
L 99.858951 75.148518 
L 99.91331 76.370708 
L 99.967669 74.546776 
L 100.022028 75.435028 
L 100.076387 77.474176 
L 100.130746 75.645294 
L 100.185105 75.382277 
L 100.239464 76.108232 
L 100.293822 74.133235 
L 100.348181 76.539833 
L 100.40254 75.44147 
L 100.456899 76.239542 
L 100.511258 76.190827 
L 100.619976 73.806479 
L 100.674335 74.531626 
L 100.837412 76.786868 
L 100.891771 74.38629 
L 101.054847 77.720803 
L 101.163565 74.774648 
L 101.217924 75.979734 
L 101.272283 75.390166 
L 101.326642 75.667509 
L 101.43536 74.465366 
L 101.489719 75.151142 
L 101.544078 74.202981 
L 101.598437 75.167285 
L 101.761514 76.52511 
L 101.92459 75.370875 
L 101.978949 77.57441 
L 102.033308 76.051821 
L 102.087667 76.247805 
L 102.142026 76.061161 
L 102.250744 74.358778 
L 102.305103 76.454834 
L 102.359462 75.60068 
L 102.413821 76.345434 
L 102.46818 74.063543 
L 102.522539 76.057729 
L 102.631256 75.095335 
L 102.794333 76.219759 
L 103.011769 75.110873 
L 103.066128 75.746416 
L 103.120487 78.186815 
L 103.174846 76.139314 
L 103.283564 74.247355 
L 103.337922 77.106605 
L 103.392281 76.14996 
L 103.609717 73.204084 
L 103.664076 75.877945 
L 103.718435 73.007474 
L 103.772794 75.82809 
L 103.827153 74.67629 
L 103.935871 76.725415 
L 103.99023 74.065825 
L 104.044589 77.005809 
L 104.098947 76.581618 
L 104.153306 76.25114 
L 104.207665 76.636392 
L 104.262024 75.202603 
L 104.316383 75.315028 
L 104.425101 76.449575 
L 104.588178 73.772849 
L 104.751255 76.845286 
L 104.805614 74.268167 
L 104.859972 76.905598 
L 105.023049 73.541379 
L 105.131767 76.248942 
L 105.186126 76.10104 
L 105.240485 74.401044 
L 105.294844 75.979706 
L 105.349203 76.544193 
L 105.457921 74.93947 
L 105.51228 75.655836 
L 105.566639 78.000689 
L 105.620997 75.715448 
L 105.675356 76.640124 
L 105.729715 76.591221 
L 105.784074 75.221873 
L 105.838433 76.781629 
L 105.892792 73.841514 
L 105.947151 73.958426 
L 106.055869 76.879635 
L 106.164587 75.066238 
L 106.218946 76.713905 
L 106.273305 73.435074 
L 106.327664 75.222477 
L 106.382022 76.792819 
L 106.49074 74.260043 
L 106.545099 76.823207 
L 106.599458 75.383959 
L 106.708176 76.854271 
L 106.762535 76.456401 
L 106.816894 75.516691 
L 106.871253 76.490936 
L 106.925612 76.066377 
L 107.088689 73.975894 
L 107.143047 74.475096 
L 107.306124 77.138011 
L 107.360483 75.955105 
L 107.414842 76.085624 
L 107.469201 76.68708 
L 107.52356 75.318572 
L 107.577919 76.213094 
L 107.632278 75.479013 
L 107.686637 76.26473 
L 107.740996 74.65182 
L 107.795355 74.981972 
L 107.849714 75.05945 
L 107.904072 74.866342 
L 107.958431 76.319025 
L 108.01279 75.164369 
L 108.067149 75.217444 
L 108.121508 74.991015 
L 108.230226 76.488069 
L 108.284585 74.366083 
L 108.338944 76.020903 
L 108.447662 76.530552 
L 108.502021 75.307661 
L 108.55638 76.029965 
L 108.610739 75.441477 
L 108.665097 76.362882 
L 108.719456 75.967592 
L 108.773815 73.493508 
L 108.828174 74.942985 
L 108.882533 75.907008 
L 109.04561 74.372893 
L 109.099969 76.192398 
L 109.154328 74.535558 
L 109.317405 76.598919 
L 109.371764 76.429207 
L 109.480481 74.288884 
L 109.53484 75.115881 
L 109.589199 75.168369 
L 109.643558 75.020947 
L 109.752276 75.87744 
L 109.860994 75.161322 
L 109.915353 75.377874 
L 109.969712 75.103113 
L 110.07843 76.58554 
L 110.132789 76.168136 
L 110.187147 74.667044 
L 110.241506 74.783439 
L 110.295865 74.816784 
L 110.404583 76.998321 
L 110.458942 74.838846 
L 110.513301 76.151133 
L 110.676378 75.214219 
L 110.839455 76.154558 
L 110.948172 75.672282 
L 111.002531 76.018681 
L 111.111249 75.368681 
L 111.219967 76.234677 
L 111.274326 75.84363 
L 111.383044 75.049723 
L 111.546121 76.682574 
L 111.60048 73.997239 
L 111.654839 75.11498 
L 111.709197 76.835247 
L 111.763556 74.296606 
L 111.817915 76.257027 
L 111.980992 75.468373 
L 112.035351 76.965349 
L 112.08971 73.556671 
L 112.144069 76.907534 
L 112.198428 74.693832 
L 112.252787 75.649263 
L 112.307146 75.753432 
L 112.361505 74.81385 
L 112.415864 74.947735 
L 112.470222 75.271012 
L 112.524581 76.904247 
L 112.57894 76.458859 
L 112.633299 76.420212 
L 112.687658 75.401954 
L 112.742017 77.475564 
L 112.796376 74.541698 
L 112.850735 74.614494 
L 113.013812 76.330041 
L 113.12253 74.298879 
L 113.176889 76.124942 
L 113.231248 74.550659 
L 113.285606 74.902513 
L 113.394324 76.504841 
L 113.448683 76.225089 
L 113.503042 75.294357 
L 113.557401 75.863166 
L 113.61176 76.35273 
L 113.666119 74.95663 
L 113.720478 75.980264 
L 113.774837 75.359052 
L 113.829196 75.831592 
L 113.883555 76.001497 
L 114.046631 74.803554 
L 114.10099 77.100148 
L 114.155349 75.120991 
L 114.209708 74.46282 
L 114.264067 76.245384 
L 114.372785 76.196621 
L 114.427144 75.129276 
L 114.481503 76.604038 
L 114.535862 76.278966 
L 114.590221 74.207489 
L 114.64458 75.520859 
L 114.698939 74.381526 
L 114.753298 74.406316 
L 114.916374 76.088138 
L 115.079451 74.618886 
L 115.13381 74.51757 
L 115.188169 75.753384 
L 115.242528 75.480191 
L 115.351246 75.973171 
L 115.405605 74.406638 
L 115.459964 75.538259 
L 115.514323 74.495918 
L 115.568681 75.402628 
L 115.62304 75.325232 
L 115.677399 74.56423 
L 115.731758 75.568191 
L 115.786117 75.531695 
L 115.894835 74.560932 
L 116.057912 76.680318 
L 116.16663 74.726021 
L 116.220989 75.434836 
L 116.275348 75.488214 
L 116.329706 74.691531 
L 116.384065 76.170595 
L 116.438424 73.340569 
L 116.492783 75.653587 
L 116.547142 75.519253 
L 116.65586 75.871487 
L 116.710219 75.377398 
L 116.764578 76.75102 
L 116.818937 75.740981 
L 116.873296 75.909099 
L 117.090731 74.292745 
L 117.14509 74.651847 
L 117.253808 75.497295 
L 117.362526 74.380354 
L 117.416885 76.343101 
L 117.471244 75.023915 
L 117.525603 75.770338 
L 117.579962 74.681999 
L 117.634321 75.351631 
L 117.68868 76.268402 
L 117.743039 75.988416 
L 117.851756 75.471646 
L 117.960474 76.76263 
L 118.069192 74.595351 
L 118.123551 76.530298 
L 118.17791 75.474289 
L 118.232269 75.763856 
L 118.286628 74.870566 
L 118.340987 75.239039 
L 118.395346 75.727119 
L 118.449705 75.06315 
L 118.504064 76.405414 
L 118.558423 75.570567 
L 118.612781 75.645996 
L 118.66714 75.544104 
L 118.721499 74.280976 
L 118.775858 75.188867 
L 118.830217 74.674653 
L 118.993294 75.594166 
L 119.156371 74.503528 
L 119.265089 75.863109 
L 119.319448 75.712263 
L 119.428165 75.873737 
L 119.536883 74.690338 
L 119.754319 76.439934 
L 119.808678 75.599098 
L 119.863037 76.84062 
L 119.917396 75.801394 
L 119.971755 74.346967 
L 120.026114 75.863886 
L 120.080473 76.630805 
L 120.243549 74.547111 
L 120.297908 74.551464 
L 120.406626 76.072053 
L 120.460985 74.980732 
L 120.515344 75.865511 
L 120.569703 75.693686 
L 120.624062 75.844055 
L 120.678421 74.790547 
L 120.73278 75.214014 
L 120.787139 75.541753 
L 120.841498 75.338648 
L 120.895856 74.73018 
L 121.058933 75.832434 
L 121.113292 75.892758 
L 121.22201 74.767574 
L 121.276369 75.291441 
L 121.385087 75.69242 
L 121.439446 74.914362 
L 121.602523 76.060575 
L 121.71124 75.073152 
L 121.765599 76.567215 
L 121.819958 75.080271 
L 122.037394 76.179683 
L 122.200471 75.146489 
L 122.25483 75.422019 
L 122.309189 75.386087 
L 122.363548 75.085874 
L 122.417906 75.945598 
L 122.472265 75.608439 
L 122.526624 75.115574 
L 122.580983 75.711586 
L 122.635342 75.564327 
L 122.689701 75.278186 
L 122.798419 75.968186 
L 122.852778 75.620438 
L 122.907137 75.742105 
L 123.070214 75.285296 
L 123.124573 75.321048 
L 123.178931 75.534926 
L 123.342008 75.111341 
L 123.396367 74.991272 
L 123.505085 75.734018 
L 123.559444 75.463413 
L 123.613803 75.17354 
L 123.668162 75.469965 
L 123.722521 75.404037 
L 123.77688 75.581537 
L 123.831239 75.365102 
L 123.885598 75.727925 
L 123.939956 75.53591 
L 123.994315 74.912169 
L 124.048674 75.490227 
L 124.103033 75.4524 
L 124.211751 75.234174 
L 124.26611 75.258095 
L 124.320469 75.380368 
L 124.374828 75.913293 
L 124.429187 75.402603 
L 124.483546 75.292478 
L 124.592264 75.861062 
L 124.646623 75.407484 
L 124.700981 75.509349 
L 124.864058 75.423375 
L 124.918417 75.553532 
L 124.972776 75.46704 
L 125.027135 75.45918 
L 125.190212 75.848031 
L 125.244571 75.08166 
L 125.29893 75.652676 
L 125.462006 75.288216 
L 125.516365 75.542742 
L 125.570724 75.362032 
L 125.679442 75.674702 
L 125.733801 75.45717 
L 125.78816 75.302495 
L 125.842519 75.371376 
L 125.896878 75.564672 
L 125.951237 75.283401 
L 126.005596 75.397312 
L 126.114314 75.657598 
L 126.223031 75.374849 
L 126.331749 75.452614 
L 126.494826 75.336353 
L 126.657903 75.467766 
L 126.712262 75.557628 
L 126.766621 75.417171 
L 126.82098 75.468122 
L 126.875339 75.486988 
L 126.929698 75.369591 
L 126.984056 75.460462 
L 127.038415 75.465883 
L 127.092774 75.623541 
L 127.147133 75.380606 
L 127.201492 75.518435 
L 127.636364 75.437151 
L 127.636364 75.437151 
" clip-path="url(#p1d1aef49c7)" style="fill: none; stroke: #8da0cb; stroke-width: 1.5; stroke-linecap: square"/>
   </g>
   <g id="patch_3">
    <path d="M 10.8 133.2 
L 10.8 10.8 
" style="fill: none; stroke: #000000; stroke-width: 0.8; stroke-linejoin: miter; stroke-linecap: square"/>
   </g>
   <g id="patch_4">
    <path d="M 133.2 133.2 
L 133.2 10.8 
" style="fill: none; stroke: #000000; stroke-width: 0.8; stroke-linejoin: miter; stroke-linecap: square"/>
   </g>
   <g id="patch_5">
    <path d="M 10.8 133.2 
L 133.2 133.2 
" style="fill: none; stroke: #000000; stroke-width: 0.8; stroke-linejoin: miter; stroke-linecap: square"/>
   </g>
   <g id="patch_6">
    <path d="M 10.8 10.8 
L 133.2 10.8 
" style="fill: none; stroke: #000000; stroke-width: 0.8; stroke-linejoin: miter; stroke-linecap: square"/>
   </g>
  </g>
 </g>
 <defs>
  <clipPath id="p1d1aef49c7">
   <rect x="10.8" y="10.8" width="122.4" height="122.4"/>
  </clipPath>
 </defs>
</svg>
