<?xml version="1.0" encoding="utf-8" standalone="no"?>
<!DOCTYPE svg PUBLIC "-//W3C//DTD SVG 1.1//EN"
  "http://www.w3.org/Graphics/SVG/1.1/DTD/svg11.dtd">
<svg xmlns:xlink="http://www.w3.org/1999/xlink" width="144pt" height="144pt" viewBox="0 0 144 144" xmlns="http://www.w3.org/2000/svg" version="1.1">
 <metadata>
  <rdf:RDF xmlns:dc="http://purl.org/dc/elements/1.1/" xmlns:cc="http://creativecommons.org/ns#" xmlns:rdf="http://www.w3.org/1999/02/22-rdf-syntax-ns#">
   <cc:Work>
    <dc:type rdf:resource="http://purl.org/dc/dcmitype/StillImage"/>
    <dc:date>2025-02-07T11:27:54.718637</dc:date>
    <dc:format>image/svg+xml</dc:format>
    <dc:creator>
     <cc:Agent>
      <dc:title>Matplotlib v3.8.0, https://matplotlib.org/</dc:title>
     </cc:Agent>
    </dc:creator>
   </cc:Work>
  </rdf:RDF>
 </metadata>
 <defs>
  <style type="text/css">*{stroke-linejoin: round; stroke-linecap: butt}</style>
 </defs>
 <g id="figure_1">
  <g id="patch_1">
   <path d="M 0 144 
L 144 144 
L 144 0 
L 0 0 
L 0 144 
z
" style="fill: none"/>
  </g>
  <g id="axes_1">
   <g id="patch_2">
    <path d="M 10.8 133.2 
L 133.2 133.2 
L 133.2 10.8 
L 10.8 10.8 
L 10.8 133.2 
z
" style="fill: none"/>
   </g>
   <g id="matplotlib.axis_1"/>
   <g id="matplotlib.axis_2"/>
   <g id="line2d_1">
    <path d="M 16.363636 83.602008 
L 16.417995 80.623532 
L 16.635431 54.656953 
L 16.68979 70.818814 
L 16.744149 62.173227 
L 16.798508 68.97089 
L 16.852867 27.835568 
L 16.961585 95.151547 
L 17.015944 89.024854 
L 17.233379 38.131918 
L 17.287738 104.140244 
L 17.342097 76.287308 
L 17.396456 72.832482 
L 17.559533 48.224065 
L 17.613892 99.707931 
L 17.668251 89.417704 
L 17.831327 54.207352 
L 17.940045 86.440203 
L 17.994404 58.174003 
L 18.048763 60.687988 
L 18.103122 120.628557 
L 18.157481 54.815701 
L 18.21184 76.354765 
L 18.266199 86.534848 
L 18.320558 65.446726 
L 18.374917 83.839452 
L 18.592352 36.782823 
L 18.646711 77.789428 
L 18.70107 24.218608 
L 18.755429 75.791279 
L 18.809788 57.43419 
L 18.864147 62.937334 
L 18.972865 67.637878 
L 19.027224 41.748983 
L 19.190301 103.149744 
L 19.24466 47.757476 
L 19.299019 84.772415 
L 19.462095 30.259762 
L 19.570813 89.771743 
L 19.625172 70.009877 
L 19.679531 81.446694 
L 19.788249 71.558604 
L 19.951326 99.901238 
L 20.005685 78.732261 
L 20.060044 78.822791 
L 20.114402 97.294401 
L 20.168761 82.738423 
L 20.22312 66.37515 
L 20.331838 92.304429 
L 20.386197 88.032444 
L 20.549274 58.270442 
L 20.603633 40.430455 
L 20.657992 112.377642 
L 20.712351 101.309204 
L 20.821069 48.620231 
L 20.875427 92.017467 
L 20.929786 86.05926 
L 20.984145 76.272399 
L 21.038504 90.604819 
L 21.092863 55.705339 
L 21.147222 66.849407 
L 21.201581 57.920018 
L 21.25594 82.589288 
L 21.310299 55.729745 
L 21.364658 66.449553 
L 21.527735 103.527057 
L 21.582094 41.840048 
L 21.636452 62.739131 
L 21.74517 41.824766 
L 21.908247 83.677835 
L 21.962606 53.023349 
L 22.016965 57.602944 
L 22.071324 59.281849 
L 22.125683 101.930334 
L 22.180042 48.940494 
L 22.234401 51.747255 
L 22.28876 53.50082 
L 22.343119 35.434933 
L 22.506195 86.494891 
L 22.614913 46.181626 
L 22.723631 71.725108 
L 22.77799 66.039092 
L 22.832349 37.797083 
L 22.886708 94.151886 
L 22.941067 77.569236 
L 22.995426 56.983139 
L 23.158502 86.158832 
L 23.26722 45.065108 
L 23.321579 91.319637 
L 23.375938 75.89093 
L 23.430297 70.16999 
L 23.484656 32.664412 
L 23.539015 64.834024 
L 23.593374 70.328115 
L 23.647733 112.628576 
L 23.702092 62.301479 
L 23.756451 71.944059 
L 23.919527 77.402232 
L 24.028245 51.184109 
L 24.191322 92.208224 
L 24.30004 52.177487 
L 24.354399 95.161825 
L 24.408758 35.298469 
L 24.463117 71.169323 
L 24.517476 56.993067 
L 24.571835 62.761567 
L 24.626194 116.107528 
L 24.78927 41.168204 
L 24.897988 85.604593 
L 24.952347 58.887486 
L 25.006706 87.842519 
L 25.115424 46.328476 
L 25.169783 106.274521 
L 25.224142 84.869152 
L 25.278501 81.70758 
L 25.33286 96.020045 
L 25.495936 52.889368 
L 25.550295 122.770272 
L 25.604654 90.228649 
L 25.82209 58.094071 
L 25.876449 76.869556 
L 25.930808 63.52962 
L 25.985167 73.197195 
L 26.039526 50.629773 
L 26.093885 68.123666 
L 26.148244 57.783516 
L 26.202602 60.525321 
L 26.31132 88.142073 
L 26.365679 76.603781 
L 26.474397 69.079322 
L 26.528756 91.232611 
L 26.637474 40.074774 
L 26.691833 107.405244 
L 26.746192 73.897738 
L 26.800551 37.64022 
L 26.85491 74.444272 
L 26.909269 86.824204 
L 27.072345 53.54704 
L 27.126704 61.20184 
L 27.181063 93.450743 
L 27.235422 67.420606 
L 27.289781 38.863711 
L 27.34414 67.265433 
L 27.398499 85.556135 
L 27.452858 53.684136 
L 27.507217 73.690281 
L 27.561576 60.375608 
L 27.615935 73.618539 
L 27.670294 81.405476 
L 27.724652 56.921397 
L 27.779011 67.468072 
L 27.83337 88.721096 
L 27.887729 58.788364 
L 27.942088 79.820161 
L 27.996447 66.730502 
L 28.050806 85.173135 
L 28.105165 63.536704 
L 28.159524 80.012895 
L 28.213883 72.935574 
L 28.268242 39.281061 
L 28.322601 99.006234 
L 28.37696 43.829388 
L 28.485677 66.909119 
L 28.540036 65.626493 
L 28.594395 108.750924 
L 28.648754 83.863099 
L 28.703113 99.39383 
L 28.757472 68.42424 
L 28.811831 87.942519 
L 28.86619 79.34471 
L 28.920549 79.599211 
L 28.974908 81.305537 
L 29.083626 101.33254 
L 29.137985 78.547733 
L 29.192344 108.353212 
L 29.246702 59.869717 
L 29.301061 104.677883 
L 29.35542 110.862325 
L 29.518497 51.0286 
L 29.572856 90.355686 
L 29.627215 77.987752 
L 29.681574 74.891416 
L 29.735933 30.766617 
L 29.790292 94.829712 
L 29.844651 94.648406 
L 30.007727 55.955487 
L 30.116445 118.633065 
L 30.279522 52.357637 
L 30.333881 81.048856 
L 30.38824 60.00223 
L 30.442599 47.512686 
L 30.496958 66.087344 
L 30.551317 64.922108 
L 30.605676 64.259511 
L 30.660035 90.185208 
L 30.714394 63.930614 
L 30.768752 68.44161 
L 30.823111 90.813646 
L 30.87747 70.94341 
L 30.931829 13.07643 
L 30.986188 50.976985 
L 31.094906 95.152363 
L 31.149265 54.302303 
L 31.203624 67.167955 
L 31.257983 59.677192 
L 31.312342 71.070427 
L 31.366701 55.424045 
L 31.529778 103.499949 
L 31.747213 40.182041 
L 31.855931 71.042251 
L 31.91029 49.442069 
L 31.964649 75.906006 
L 32.019008 40.926257 
L 32.073367 42.073382 
L 32.127726 87.56075 
L 32.182085 68.669043 
L 32.236444 37.921681 
L 32.290803 53.0527 
L 32.345161 87.267886 
L 32.39952 59.852341 
L 32.562597 93.053737 
L 32.616956 60.936136 
L 32.671315 123.468962 
L 32.725674 73.194136 
L 32.780033 75.744502 
L 32.834392 70.708712 
L 32.888751 85.284069 
L 32.94311 54.329273 
L 33.051828 103.033709 
L 33.106186 64.691478 
L 33.160545 83.617955 
L 33.214904 86.391848 
L 33.269263 85.660562 
L 33.323622 101.558901 
L 33.43234 47.40629 
L 33.486699 50.006697 
L 33.649776 88.697841 
L 33.704135 83.930273 
L 33.867211 51.996079 
L 33.92157 40.512082 
L 33.975929 81.930038 
L 34.030288 72.843126 
L 34.193365 91.006572 
L 34.247724 38.905376 
L 34.302083 77.763485 
L 34.356442 73.449609 
L 34.410801 78.249943 
L 34.46516 50.629599 
L 34.519519 90.005087 
L 34.573878 59.82276 
L 34.628236 58.799805 
L 34.682595 67.047906 
L 34.791313 40.248925 
L 34.95439 89.205647 
L 35.063108 45.200521 
L 35.226185 94.017241 
L 35.334903 47.125517 
L 35.389261 85.73448 
L 35.44362 78.869087 
L 35.552338 74.621269 
L 35.606697 76.926635 
L 35.661056 72.466341 
L 35.715415 79.201489 
L 35.769774 53.84202 
L 35.824133 76.208078 
L 35.878492 61.215151 
L 35.932851 82.715201 
L 35.98721 53.351527 
L 36.095928 85.944731 
L 36.150286 80.639288 
L 36.204645 46.00253 
L 36.259004 63.494581 
L 36.313363 71.954929 
L 36.367722 50.595121 
L 36.530799 94.013745 
L 36.585158 45.4615 
L 36.639517 65.509749 
L 36.693876 103.758022 
L 36.748235 54.81657 
L 36.802594 76.993219 
L 36.856953 80.438655 
L 37.020029 48.547084 
L 37.074388 51.206067 
L 37.128747 73.963617 
L 37.183106 69.493087 
L 37.237465 45.214213 
L 37.291824 61.395714 
L 37.346183 83.723916 
L 37.400542 62.209902 
L 37.454901 80.366054 
L 37.50926 77.445607 
L 37.672336 53.990835 
L 37.889772 98.506302 
L 37.944131 61.636974 
L 37.99849 80.96937 
L 38.052849 94.177933 
L 38.161567 50.197355 
L 38.270285 109.713402 
L 38.324644 79.373419 
L 38.379003 80.320379 
L 38.433361 55.465654 
L 38.48772 71.458785 
L 38.542079 69.916052 
L 38.596438 71.95554 
L 38.650797 69.300591 
L 38.705156 56.672996 
L 38.759515 92.358824 
L 38.813874 77.999492 
L 38.868233 78.330136 
L 38.922592 75.008382 
L 38.976951 106.044033 
L 39.03131 90.25674 
L 39.085669 66.506068 
L 39.140028 90.728148 
L 39.248745 63.167022 
L 39.303104 75.565136 
L 39.357463 62.919573 
L 39.411822 97.661746 
L 39.466181 84.59202 
L 39.52054 63.944901 
L 39.574899 83.924824 
L 39.629258 92.013194 
L 39.846694 53.74877 
L 40.064129 88.824476 
L 40.172847 53.569152 
L 40.335924 79.169139 
L 40.390283 69.896345 
L 40.444642 88.331974 
L 40.607719 40.347648 
L 40.716436 56.820399 
L 40.770795 51.122718 
L 40.825154 57.951601 
L 40.933872 100.476656 
L 40.988231 62.64856 
L 41.04259 80.523352 
L 41.096949 81.340148 
L 41.151308 44.02617 
L 41.260026 92.630497 
L 41.423103 34.947622 
L 41.477461 37.292827 
L 41.586179 88.973984 
L 41.640538 62.350292 
L 41.694897 64.393924 
L 41.749256 79.564668 
L 41.857974 49.409829 
L 42.021051 79.772731 
L 42.07541 73.01094 
L 42.129769 82.65779 
L 42.238486 67.12928 
L 42.292845 91.912238 
L 42.347204 80.091522 
L 42.401563 34.722383 
L 42.455922 58.026641 
L 42.618999 90.437299 
L 42.673358 57.456487 
L 42.727717 82.765836 
L 42.836435 66.478781 
L 42.890794 97.561934 
L 42.945153 81.502993 
L 42.999511 82.792236 
L 43.05387 89.260748 
L 43.108229 46.312633 
L 43.162588 81.89849 
L 43.271306 42.409573 
L 43.543101 102.988712 
L 43.59746 48.595156 
L 43.651819 58.59257 
L 43.760536 102.323701 
L 43.814895 64.221777 
L 43.923613 64.468139 
L 43.977972 52.532394 
L 44.141049 88.380483 
L 44.358485 52.324582 
L 44.521561 88.172315 
L 44.57592 47.601575 
L 44.630279 74.313881 
L 44.684638 75.874872 
L 44.738997 65.34286 
L 44.793356 113.585848 
L 44.847715 56.084881 
L 44.902074 71.933709 
L 44.956433 94.711096 
L 45.010792 71.362352 
L 45.065151 75.170333 
L 45.11951 98.6575 
L 45.173869 69.030744 
L 45.228228 72.540799 
L 45.282586 75.464611 
L 45.336945 87.284777 
L 45.391304 57.8149 
L 45.445663 87.497794 
L 45.500022 59.685761 
L 45.554381 80.038288 
L 45.60874 65.07615 
L 45.663099 71.863425 
L 45.717458 78.504596 
L 45.771817 70.244471 
L 45.826176 93.660687 
L 45.880535 57.746985 
L 45.934894 94.113235 
L 45.989253 87.596663 
L 46.043611 49.795358 
L 46.09797 95.473283 
L 46.152329 47.706333 
L 46.206688 68.727338 
L 46.315406 48.813091 
L 46.369765 118.013681 
L 46.424124 65.618493 
L 46.478483 71.973178 
L 46.532842 50.191822 
L 46.695919 101.239086 
L 46.804636 62.463847 
L 46.858995 94.606405 
L 46.967713 43.586182 
L 47.022072 95.294891 
L 47.076431 74.440316 
L 47.13079 80.81653 
L 47.239508 56.130051 
L 47.293867 91.56306 
L 47.348226 86.168266 
L 47.402585 88.801267 
L 47.511303 50.273369 
L 47.565662 67.617004 
L 47.62002 33.898052 
L 47.783097 84.940336 
L 47.837456 79.467387 
L 47.891815 61.682464 
L 47.946174 83.1551 
L 48.000533 67.828997 
L 48.16361 93.292603 
L 48.217969 65.589137 
L 48.272328 99.315425 
L 48.326687 68.119117 
L 48.381045 83.426719 
L 48.435404 60.631447 
L 48.489763 69.506437 
L 48.544122 70.665811 
L 48.598481 90.785433 
L 48.65284 43.228434 
L 48.707199 92.106824 
L 48.870276 61.984483 
L 49.033353 79.838911 
L 49.087712 83.822603 
L 49.196429 52.661906 
L 49.250788 91.844123 
L 49.305147 61.184649 
L 49.359506 75.426463 
L 49.413865 63.134003 
L 49.468224 72.240909 
L 49.522583 71.424577 
L 49.576942 69.059935 
L 49.68566 93.202836 
L 49.740019 54.501711 
L 49.794378 81.15981 
L 49.957454 71.417051 
L 50.011813 73.610829 
L 50.120531 62.897357 
L 50.17489 87.096439 
L 50.229249 53.024276 
L 50.283608 88.524061 
L 50.337967 54.870944 
L 50.392326 62.618002 
L 50.446685 77.509529 
L 50.501044 75.431931 
L 50.555403 67.566117 
L 50.609762 67.664022 
L 50.66412 95.271456 
L 50.718479 67.836565 
L 50.772838 57.103328 
L 50.827197 63.623937 
L 50.935915 69.001772 
L 50.990274 54.603775 
L 51.098992 103.508631 
L 51.153351 94.65806 
L 51.370787 41.765745 
L 51.425145 65.162977 
L 51.479504 48.901329 
L 51.533863 57.457742 
L 51.588222 56.841691 
L 51.642581 54.656055 
L 51.69694 62.992427 
L 51.751299 51.990668 
L 51.860017 94.79378 
L 51.914376 54.378277 
L 51.968735 82.418042 
L 52.023094 70.810213 
L 52.077453 75.550836 
L 52.131812 73.6269 
L 52.240529 117.420505 
L 52.403606 69.177441 
L 52.457965 84.841391 
L 52.621042 51.993698 
L 52.675401 57.564186 
L 52.72976 87.749739 
L 52.784119 81.325852 
L 52.838478 74.212847 
L 52.892837 92.061369 
L 52.947195 85.285507 
L 53.001554 84.636239 
L 53.055913 90.617554 
L 53.110272 50.392168 
L 53.164631 88.061221 
L 53.21899 53.899345 
L 53.273349 83.70523 
L 53.382067 63.917837 
L 53.436426 95.770807 
L 53.599503 50.779511 
L 53.70822 91.701129 
L 53.762579 36.305847 
L 53.816938 74.759933 
L 53.925656 85.188772 
L 54.034374 63.470095 
L 54.088733 78.123195 
L 54.143092 56.859914 
L 54.197451 73.585617 
L 54.360528 93.793001 
L 54.414887 65.385479 
L 54.469245 70.360593 
L 54.523604 80.314982 
L 54.577963 59.216372 
L 54.632322 76.756356 
L 54.686681 74.545557 
L 54.849758 82.646735 
L 54.958476 71.467905 
L 55.012835 85.751896 
L 55.121553 43.196814 
L 55.175912 56.790761 
L 55.23027 55.785494 
L 55.338988 88.521337 
L 55.393347 86.322803 
L 55.447706 79.582841 
L 55.502065 91.299803 
L 55.719501 56.34892 
L 55.77386 87.871158 
L 55.828219 69.877761 
L 55.991295 89.15053 
L 56.045654 36.81373 
L 56.100013 85.022549 
L 56.154372 42.149688 
L 56.208731 80.179507 
L 56.26309 49.883645 
L 56.317449 73.768382 
L 56.371808 70.69667 
L 56.426167 81.082257 
L 56.480526 58.490078 
L 56.534885 71.401122 
L 56.589244 70.807292 
L 56.643603 90.089248 
L 56.697962 65.47277 
L 56.75232 79.750606 
L 56.806679 70.864206 
L 56.861038 98.439764 
L 56.915397 59.278457 
L 56.969756 64.766565 
L 57.132833 95.619925 
L 57.241551 62.267486 
L 57.29591 81.73829 
L 57.404628 73.139426 
L 57.458987 67.015831 
L 57.513345 67.970103 
L 57.567704 84.24259 
L 57.622063 57.895205 
L 57.676422 89.858515 
L 57.730781 82.172551 
L 57.893858 70.986844 
L 57.948217 71.371043 
L 58.002576 68.713773 
L 58.056935 70.450671 
L 58.165653 84.647217 
L 58.27437 40.12476 
L 58.383088 84.001366 
L 58.437447 61.092964 
L 58.491806 70.025391 
L 58.546165 80.24199 
L 58.654883 60.438714 
L 58.763601 79.712929 
L 58.81796 51.408934 
L 58.872319 75.410432 
L 58.926678 71.390599 
L 58.981037 82.108126 
L 59.035395 63.623232 
L 59.089754 110.672679 
L 59.144113 73.850086 
L 59.198472 84.058301 
L 59.415908 57.069851 
L 59.470267 72.364916 
L 59.524626 51.118583 
L 59.578985 60.119509 
L 59.687703 69.079887 
L 59.742062 60.528911 
L 59.79642 78.543989 
L 59.850779 47.059479 
L 59.905138 48.50618 
L 59.959497 95.467104 
L 60.013856 76.889673 
L 60.122574 62.091032 
L 60.176933 78.776202 
L 60.231292 52.810182 
L 60.285651 58.781407 
L 60.34001 81.27838 
L 60.394369 77.645943 
L 60.448728 52.927848 
L 60.611804 87.449412 
L 60.720522 72.488566 
L 60.774881 87.627737 
L 60.82924 83.69502 
L 60.937958 73.105101 
L 60.992317 74.430005 
L 61.046676 76.87222 
L 61.101035 90.553672 
L 61.155394 77.887644 
L 61.31847 99.53256 
L 61.427188 72.27557 
L 61.535906 76.971212 
L 61.644624 53.825102 
L 61.698983 55.62339 
L 61.753342 52.550595 
L 61.916419 75.844508 
L 61.970778 75.93472 
L 62.025137 40.067382 
L 62.079495 62.429685 
L 62.133854 55.452263 
L 62.242572 79.963847 
L 62.296931 73.026995 
L 62.35129 55.042428 
L 62.405649 59.052687 
L 62.460008 59.010699 
L 62.514367 91.02168 
L 62.568726 64.599103 
L 62.623085 65.760065 
L 62.731803 79.44262 
L 62.786162 69.46261 
L 62.84052 84.012321 
L 62.894879 39.14531 
L 62.949238 55.201061 
L 63.057956 87.612851 
L 63.112315 81.91226 
L 63.166674 65.240378 
L 63.221033 69.420529 
L 63.275392 73.733279 
L 63.329751 56.463638 
L 63.38411 83.712047 
L 63.438469 59.458957 
L 63.601545 73.242326 
L 63.655904 61.644501 
L 63.710263 79.116406 
L 63.764622 66.905227 
L 63.818981 69.266711 
L 63.927699 65.480329 
L 64.036417 90.77383 
L 64.090776 82.152983 
L 64.199494 66.291035 
L 64.253853 79.746133 
L 64.308212 77.864041 
L 64.362571 63.740279 
L 64.416929 65.33059 
L 64.471288 80.311748 
L 64.525647 52.532301 
L 64.580006 94.314495 
L 64.634365 68.858692 
L 64.797442 85.491356 
L 64.960519 72.456224 
L 65.014878 79.348719 
L 65.069237 101.838123 
L 65.123596 59.311215 
L 65.177954 69.143976 
L 65.232313 76.828789 
L 65.286672 66.09469 
L 65.341031 70.856955 
L 65.39539 81.530063 
L 65.449749 64.497431 
L 65.504108 110.577452 
L 65.558467 83.012709 
L 65.721544 65.133409 
L 65.830262 83.540689 
L 65.938979 65.526104 
L 65.993338 68.387031 
L 66.047697 77.280234 
L 66.210774 54.615856 
L 66.265133 93.269034 
L 66.319492 74.1948 
L 66.373851 72.147436 
L 66.42821 56.647469 
L 66.591287 88.454754 
L 66.645646 91.542991 
L 66.754363 50.011533 
L 66.808722 67.259786 
L 66.863081 62.800671 
L 66.971799 89.797163 
L 67.134876 64.461308 
L 67.189235 50.622232 
L 67.406671 97.143638 
L 67.515388 62.061446 
L 67.569747 66.46982 
L 67.624106 66.99197 
L 67.678465 78.535474 
L 67.732824 48.803342 
L 67.787183 71.910936 
L 67.841542 67.404032 
L 67.895901 79.080036 
L 67.95026 75.229797 
L 68.113337 52.634084 
L 68.276413 87.846104 
L 68.43949 54.234959 
L 68.493849 90.950042 
L 68.548208 69.978415 
L 68.602567 69.165646 
L 68.765644 74.363138 
L 68.874362 68.636743 
L 68.928721 49.648491 
L 68.983079 55.697419 
L 69.091797 72.311522 
L 69.146156 69.023483 
L 69.200515 76.931296 
L 69.254874 69.657506 
L 69.363592 64.480523 
L 69.526669 76.710031 
L 69.581028 58.282895 
L 69.635387 84.870698 
L 69.689746 71.895288 
L 69.744104 54.875109 
L 69.798463 67.822012 
L 69.852822 64.960025 
L 69.96154 85.961833 
L 70.070258 69.386612 
L 70.124617 71.403787 
L 70.178976 76.902744 
L 70.233335 61.137779 
L 70.287694 69.080554 
L 70.342053 69.308155 
L 70.396412 85.773826 
L 70.450771 81.661102 
L 70.559488 68.064946 
L 70.613847 80.340672 
L 70.668206 77.407276 
L 70.722565 69.447474 
L 70.885642 93.341148 
L 70.99436 70.491621 
L 71.048719 74.850326 
L 71.103078 61.748699 
L 71.157437 74.331994 
L 71.211796 69.816318 
L 71.266154 77.841287 
L 71.374872 43.039496 
L 71.48359 69.52554 
L 71.537949 66.456252 
L 71.592308 85.835319 
L 71.646667 81.57812 
L 71.864103 62.452391 
L 71.918462 68.590889 
L 71.972821 94.731527 
L 72.027179 84.281015 
L 72.081538 66.808076 
L 72.135897 84.733688 
L 72.190256 81.968167 
L 72.244615 57.961929 
L 72.298974 66.266314 
L 72.353333 80.622975 
L 72.407692 75.117031 
L 72.462051 64.963412 
L 72.51641 80.052138 
L 72.570769 69.438265 
L 72.733846 60.286669 
L 72.788204 62.169531 
L 72.842563 64.787537 
L 73.00564 85.741599 
L 73.168717 64.877509 
L 73.331794 75.49497 
L 73.386153 49.91763 
L 73.440512 76.158098 
L 73.494871 68.503547 
L 73.549229 68.635577 
L 73.657947 75.639711 
L 73.712306 71.489057 
L 73.766665 67.177772 
L 73.821024 67.192348 
L 73.875383 86.621802 
L 73.929742 83.731065 
L 73.984101 57.185718 
L 74.03846 65.514082 
L 74.092819 75.378857 
L 74.147178 68.339104 
L 74.310254 83.396105 
L 74.418972 69.679647 
L 74.473331 69.700581 
L 74.52769 82.896421 
L 74.582049 75.130028 
L 74.690767 56.857083 
L 74.745126 86.583704 
L 74.799485 78.210702 
L 74.908203 65.702318 
L 74.962562 78.204363 
L 75.016921 75.722162 
L 75.125638 63.286056 
L 75.179997 75.62091 
L 75.234356 56.532133 
L 75.288715 72.810638 
L 75.343074 72.864331 
L 75.397433 71.031279 
L 75.451792 80.340875 
L 75.506151 72.870092 
L 75.56051 72.481355 
L 75.614869 74.30721 
L 75.669228 62.290157 
L 75.723587 79.189033 
L 75.777946 77.082019 
L 75.832304 65.06763 
L 75.941022 84.317368 
L 76.104099 48.620162 
L 76.212817 76.486193 
L 76.267176 71.954243 
L 76.321535 80.185807 
L 76.375894 76.005576 
L 76.430253 79.087188 
L 76.484612 91.667435 
L 76.538971 66.803079 
L 76.593329 72.568492 
L 76.647688 79.315462 
L 76.756406 70.665581 
L 76.810765 71.808324 
L 76.919483 76.823115 
L 76.973842 72.894307 
L 77.08256 89.331041 
L 77.191278 69.744916 
L 77.245637 81.853092 
L 77.299996 81.426662 
L 77.354354 51.846114 
L 77.408713 75.442498 
L 77.463072 82.327448 
L 77.57179 54.621688 
L 77.680508 74.826968 
L 77.734867 70.855678 
L 77.789226 59.869027 
L 77.843585 66.608221 
L 77.897944 75.588221 
L 77.952303 71.83299 
L 78.006662 68.879847 
L 78.061021 58.377303 
L 78.115379 78.31089 
L 78.169738 55.293713 
L 78.224097 72.359209 
L 78.278456 70.829392 
L 78.332815 76.159501 
L 78.495892 60.263159 
L 78.550251 83.473064 
L 78.60461 72.967833 
L 78.713328 67.31 
L 78.767687 90.647805 
L 78.822046 74.917781 
L 78.876404 62.096456 
L 78.930763 73.003532 
L 78.985122 71.283892 
L 79.09384 84.151292 
L 79.148199 81.521359 
L 79.256917 59.037708 
L 79.311276 66.775509 
L 79.365635 69.098171 
L 79.419994 64.144779 
L 79.583071 82.336618 
L 79.637429 65.271279 
L 79.691788 71.972932 
L 79.746147 67.741152 
L 79.800506 52.041308 
L 79.909224 87.206218 
L 79.963583 55.756074 
L 80.017942 73.556063 
L 80.072301 91.543239 
L 80.235378 66.752261 
L 80.398455 86.229398 
L 80.61589 57.339233 
L 80.724608 78.5441 
L 80.887685 48.475891 
L 80.942044 76.468296 
L 80.996403 65.823707 
L 81.050762 66.906866 
L 81.105121 57.215248 
L 81.15948 72.485935 
L 81.268197 71.88089 
L 81.322556 79.914979 
L 81.376915 47.771313 
L 81.431274 66.587337 
L 81.485633 73.983631 
L 81.539992 70.224127 
L 81.594351 60.188835 
L 81.757428 77.306838 
L 81.920505 84.187493 
L 81.974863 83.282142 
L 82.246658 64.608216 
L 82.301017 70.708668 
L 82.355376 69.261978 
L 82.409735 67.162986 
L 82.627171 78.671165 
L 82.68153 66.806517 
L 82.735888 71.750148 
L 82.844606 73.880129 
L 82.953324 59.200223 
L 83.007683 71.44663 
L 83.062042 58.948431 
L 83.225119 73.246101 
L 83.333837 68.571228 
L 83.388196 76.687377 
L 83.442555 67.510025 
L 83.496913 81.192532 
L 83.551272 64.706834 
L 83.605631 76.106468 
L 83.65999 73.603936 
L 83.714349 80.410373 
L 83.823067 56.391219 
L 84.040503 82.906565 
L 84.094862 82.764428 
L 84.20358 64.412984 
L 84.257938 64.857913 
L 84.312297 72.009153 
L 84.366656 67.723646 
L 84.421015 65.945287 
L 84.475374 68.978117 
L 84.529733 64.149693 
L 84.584092 77.936086 
L 84.638451 72.715738 
L 84.69281 71.126496 
L 84.801528 74.817287 
L 84.910246 68.601977 
L 84.964605 77.525954 
L 85.018963 67.391066 
L 85.073322 69.340471 
L 85.127681 72.273674 
L 85.18204 82.485148 
L 85.290758 49.98331 
L 85.345117 84.348337 
L 85.399476 78.691237 
L 85.453835 76.003443 
L 85.508194 79.358596 
L 85.671271 67.588339 
L 85.72563 65.070944 
L 85.779988 67.43395 
L 85.834347 65.721478 
L 85.943065 73.35916 
L 85.997424 70.068329 
L 86.051783 75.74567 
L 86.106142 72.058224 
L 86.160501 65.818528 
L 86.21486 84.04562 
L 86.269219 69.069145 
L 86.377937 64.960536 
L 86.432296 74.478718 
L 86.486655 70.796728 
L 86.541013 72.264431 
L 86.70409 68.409998 
L 86.758449 69.180205 
L 86.812808 62.975703 
L 86.921526 74.050793 
L 86.975885 63.572878 
L 87.030244 65.885036 
L 87.138962 75.093341 
L 87.193321 69.56421 
L 87.24768 56.92215 
L 87.302038 67.097916 
L 87.356397 75.793751 
L 87.410756 71.657607 
L 87.465115 66.970434 
L 87.519474 80.625656 
L 87.573833 68.571229 
L 87.791269 80.743243 
L 87.845628 65.638995 
L 87.899987 66.606127 
L 87.954346 71.576902 
L 88.008705 69.366524 
L 88.063063 68.512621 
L 88.117422 71.90911 
L 88.171781 59.0758 
L 88.22614 63.025963 
L 88.280499 79.914158 
L 88.334858 64.964507 
L 88.389217 76.930037 
L 88.443576 64.648679 
L 88.497935 62.517134 
L 88.552294 82.740722 
L 88.606653 82.32427 
L 88.715371 69.987777 
L 88.76973 76.542346 
L 88.824088 63.699046 
L 88.878447 67.902803 
L 88.932806 66.630971 
L 89.095883 80.934086 
L 89.25896 65.603041 
L 89.313319 58.040112 
L 89.476396 74.350762 
L 89.530755 67.22343 
L 89.585113 73.2051 
L 89.693831 80.367088 
L 89.74819 66.065935 
L 89.802549 69.089394 
L 89.856908 74.11644 
L 89.911267 55.346573 
L 89.965626 69.291234 
L 90.019985 79.453957 
L 90.074344 71.791332 
L 90.128703 64.628789 
L 90.183062 71.129926 
L 90.346138 83.003938 
L 90.400497 67.353502 
L 90.454856 70.526572 
L 90.563574 79.266697 
L 90.672292 71.099876 
L 90.726651 71.308072 
L 90.78101 84.963798 
L 90.889728 66.827635 
L 90.944087 82.811956 
L 90.998446 68.495226 
L 91.052805 73.581235 
L 91.107163 66.541857 
L 91.161522 70.383331 
L 91.324599 76.680677 
L 91.433317 62.698889 
L 91.542035 83.688319 
L 91.596394 67.522435 
L 91.650753 68.396032 
L 91.705112 72.72885 
L 91.759471 68.162714 
L 91.81383 77.727585 
L 91.868188 72.192423 
L 91.922547 73.600365 
L 92.085624 65.970139 
L 92.139983 71.83393 
L 92.194342 69.008996 
L 92.357419 72.263807 
L 92.466137 75.456234 
L 92.574855 70.900112 
L 92.629213 67.101288 
L 92.683572 69.968754 
L 92.737931 74.041135 
L 92.846649 66.680924 
L 92.955367 72.274081 
L 93.009726 80.342849 
L 93.064085 70.445135 
L 93.118444 70.464192 
L 93.281521 80.758532 
L 93.390238 63.251825 
L 93.444597 68.177109 
L 93.607674 76.47381 
L 93.716392 68.238041 
L 93.82511 69.846977 
L 93.879469 71.865769 
L 93.933828 60.514083 
L 93.988187 67.505027 
L 94.042546 78.670496 
L 94.096905 69.637281 
L 94.151263 73.529798 
L 94.259981 73.425109 
L 94.31434 64.5023 
L 94.368699 75.045423 
L 94.423058 69.475468 
L 94.477417 60.814331 
L 94.531776 69.537473 
L 94.586135 72.514228 
L 94.640494 65.720214 
L 94.694853 83.690594 
L 94.749212 70.49195 
L 94.803571 65.89939 
L 94.85793 70.6717 
L 94.912288 67.795296 
L 95.021006 74.737693 
L 95.129724 65.887665 
L 95.184083 72.361537 
L 95.238442 69.557281 
L 95.292801 71.06196 
L 95.34716 65.2091 
L 95.401519 84.263623 
L 95.455878 74.193562 
L 95.510237 69.615304 
L 95.564596 73.761974 
L 95.727672 70.559107 
L 95.782031 60.136 
L 95.83639 74.488528 
L 95.890749 69.15902 
L 95.945108 67.784398 
L 95.999467 72.378971 
L 96.053826 70.902523 
L 96.108185 68.766593 
L 96.162544 86.25318 
L 96.216903 61.624009 
L 96.271262 77.25744 
L 96.325621 75.556472 
L 96.37998 80.990266 
L 96.434338 72.205441 
L 96.488697 72.751356 
L 96.543056 76.983845 
L 96.651774 66.743767 
L 96.706133 70.548266 
L 96.760492 68.183959 
L 96.814851 69.701605 
L 96.86921 67.978535 
L 96.923569 72.566625 
L 96.977928 68.358574 
L 97.086646 73.592147 
L 97.141005 67.254609 
L 97.195364 73.207433 
L 97.249722 71.286097 
L 97.304081 78.458422 
L 97.35844 73.693016 
L 97.521517 78.840036 
L 97.575876 71.003437 
L 97.630235 74.139688 
L 97.684594 76.836787 
L 97.793312 68.188574 
L 97.847671 70.220746 
L 97.90203 70.355652 
L 97.956389 76.651428 
L 98.010747 71.55856 
L 98.065106 74.186071 
L 98.119465 68.786496 
L 98.173824 70.710041 
L 98.228183 75.130628 
L 98.282542 71.370803 
L 98.336901 72.210463 
L 98.445619 68.226122 
L 98.608696 77.895852 
L 98.717414 66.227804 
L 98.771772 67.778036 
L 98.826131 72.667516 
L 98.88049 68.213407 
L 98.934849 65.139996 
L 99.097926 72.199486 
L 99.315362 66.815705 
L 99.369721 78.967687 
L 99.42408 64.373105 
L 99.478439 75.448438 
L 99.532797 66.515643 
L 99.587156 69.720873 
L 99.641515 69.488581 
L 99.695874 73.497779 
L 99.858951 65.920171 
L 99.91331 76.573796 
L 99.967669 60.74104 
L 100.022028 69.179947 
L 100.185105 73.856749 
L 100.293822 67.271546 
L 100.348181 70.279328 
L 100.40254 69.772719 
L 100.456899 71.677855 
L 100.511258 69.395735 
L 100.565617 73.635425 
L 100.619976 69.698534 
L 100.674335 67.77503 
L 100.728694 73.436138 
L 100.783053 71.437887 
L 100.837412 71.33633 
L 100.891771 72.744154 
L 100.94613 66.460087 
L 101.000489 72.427831 
L 101.054847 68.285186 
L 101.109206 75.857161 
L 101.163565 68.221114 
L 101.326642 72.952554 
L 101.381001 72.900765 
L 101.43536 73.498619 
L 101.598437 75.887185 
L 101.652796 76.217723 
L 101.707155 66.014806 
L 101.761514 79.423113 
L 101.815872 71.403173 
L 101.870231 69.875254 
L 101.92459 72.089446 
L 101.978949 67.136838 
L 102.142026 74.808145 
L 102.196385 74.359597 
L 102.250744 72.94943 
L 102.305103 68.330446 
L 102.359462 73.781157 
L 102.413821 70.848758 
L 102.46818 70.550533 
L 102.576897 72.575434 
L 102.631256 72.305532 
L 102.685615 69.823703 
L 102.739974 74.912227 
L 102.794333 69.375341 
L 102.848692 75.654552 
L 102.903051 70.021287 
L 102.95741 72.570462 
L 103.011769 67.160637 
L 103.066128 74.998211 
L 103.120487 67.211583 
L 103.174846 69.787162 
L 103.229205 78.715081 
L 103.283564 72.945475 
L 103.337922 72.713465 
L 103.392281 81.5663 
L 103.44664 72.716403 
L 103.555358 67.323234 
L 103.609717 74.071445 
L 103.664076 73.584247 
L 103.718435 73.587543 
L 103.827153 69.093249 
L 103.99023 74.815042 
L 104.044589 65.527341 
L 104.098947 74.418905 
L 104.153306 73.906216 
L 104.207665 74.383106 
L 104.262024 74.501604 
L 104.316383 73.946282 
L 104.370742 74.399233 
L 104.47946 65.993506 
L 104.588178 65.740173 
L 104.642537 74.170592 
L 104.805614 65.944296 
L 104.96869 74.831493 
L 105.023049 72.102545 
L 105.077408 73.941799 
L 105.131767 74.512608 
L 105.294844 68.823744 
L 105.349203 75.031533 
L 105.403562 71.313519 
L 105.457921 71.584913 
L 105.51228 75.917721 
L 105.566639 71.377468 
L 105.620997 73.538195 
L 105.675356 72.945156 
L 105.784074 66.52912 
L 105.892792 69.005651 
L 105.947151 75.882153 
L 106.00151 68.059808 
L 106.055869 72.508113 
L 106.110228 73.257507 
L 106.164587 69.998815 
L 106.218946 70.339705 
L 106.273305 74.157027 
L 106.327664 70.195659 
L 106.382022 63.955828 
L 106.436381 69.820445 
L 106.49074 64.436963 
L 106.599458 76.342725 
L 106.653817 72.974104 
L 106.708176 68.205593 
L 106.762535 68.625968 
L 106.871253 76.511641 
L 106.925612 69.784376 
L 106.979971 72.955555 
L 107.03433 73.161378 
L 107.088689 77.060094 
L 107.251765 69.006671 
L 107.360483 74.989621 
L 107.469201 69.760282 
L 107.52356 74.05656 
L 107.577919 70.989045 
L 107.632278 69.106919 
L 107.686637 71.029187 
L 107.740996 73.393766 
L 107.795355 65.830257 
L 107.849714 72.479393 
L 107.904072 68.871137 
L 107.958431 72.611968 
L 108.01279 70.390886 
L 108.067149 72.287414 
L 108.121508 75.795697 
L 108.175867 69.698076 
L 108.230226 73.607268 
L 108.284585 74.846432 
L 108.55638 69.740591 
L 108.610739 72.635369 
L 108.665097 71.466267 
L 108.773815 70.514539 
L 108.828174 67.094516 
L 108.882533 69.793419 
L 108.936892 73.650923 
L 108.991251 71.428469 
L 109.154328 74.32417 
L 109.263046 70.063251 
L 109.426122 75.804097 
L 109.480481 68.339016 
L 109.53484 68.909111 
L 109.752276 75.024244 
L 109.806635 66.059326 
L 109.860994 73.409949 
L 110.024071 65.821965 
L 110.132789 72.864301 
L 110.295865 68.415505 
L 110.350224 75.249817 
L 110.404583 70.392759 
L 110.622019 73.732341 
L 110.676378 73.039098 
L 110.730737 75.211004 
L 110.839455 69.661497 
L 111.002531 73.974069 
L 111.05689 72.755145 
L 111.111249 73.406594 
L 111.165608 72.914607 
L 111.328685 69.169683 
L 111.383044 72.203841 
L 111.437403 70.061543 
L 111.491762 69.612533 
L 111.546121 72.669691 
L 111.60048 70.617515 
L 111.654839 70.800102 
L 111.709197 74.251897 
L 111.763556 71.702046 
L 111.817915 70.648261 
L 111.926633 73.708809 
L 112.08971 70.910649 
L 112.144069 73.45423 
L 112.198428 69.856797 
L 112.252787 71.825797 
L 112.361505 74.774628 
L 112.415864 71.287542 
L 112.57894 75.490549 
L 112.633299 70.160032 
L 112.687658 70.216897 
L 112.850735 74.335506 
L 113.013812 70.560323 
L 113.068171 72.209811 
L 113.12253 70.661156 
L 113.176889 70.027828 
L 113.231248 70.560494 
L 113.285606 72.364525 
L 113.339965 69.684854 
L 113.503042 75.719801 
L 113.557401 71.294493 
L 113.61176 73.844914 
L 113.774837 69.203773 
L 113.829196 71.97513 
L 113.883555 72.316584 
L 113.937914 70.718645 
L 113.992273 71.38882 
L 114.046631 73.437185 
L 114.209708 69.952035 
L 114.264067 72.351009 
L 114.318426 70.871189 
L 114.372785 68.757132 
L 114.427144 69.452665 
L 114.481503 72.450703 
L 114.535862 71.189214 
L 114.590221 71.185838 
L 114.64458 71.673515 
L 114.698939 70.613549 
L 114.753298 70.72582 
L 114.807656 71.955957 
L 114.862015 70.014285 
L 115.025092 72.765826 
L 115.079451 69.453418 
L 115.13381 72.18974 
L 115.242528 70.494791 
L 115.296887 70.767923 
L 115.459964 68.538074 
L 115.677399 72.119094 
L 115.731758 71.43167 
L 115.786117 72.585051 
L 115.840476 70.64341 
L 115.894835 71.218387 
L 115.949194 71.983409 
L 116.003553 70.231877 
L 116.057912 72.989743 
L 116.112271 71.088637 
L 116.16663 70.983691 
L 116.220989 71.433534 
L 116.275348 72.975383 
L 116.329706 71.515761 
L 116.384065 70.55886 
L 116.438424 72.64079 
L 116.492783 69.399777 
L 116.547142 70.866946 
L 116.601501 70.647158 
L 116.764578 72.887334 
L 116.927655 70.105332 
L 116.982014 69.493952 
L 117.14509 72.514306 
L 117.253808 72.015961 
L 117.308167 69.639024 
L 117.362526 70.796619 
L 117.416885 72.775099 
L 117.471244 69.966608 
L 117.525603 71.524231 
L 117.579962 73.223019 
L 117.634321 69.536583 
L 117.68868 71.77451 
L 117.743039 71.898637 
L 117.797398 69.10117 
L 117.851756 69.437665 
L 117.906115 72.273176 
L 117.960474 71.990408 
L 118.014833 71.469643 
L 118.069192 72.795714 
L 118.123551 72.427216 
L 118.232269 70.013066 
L 118.286628 71.967627 
L 118.340987 70.769974 
L 118.449705 70.735018 
L 118.504064 74.718723 
L 118.558423 71.385322 
L 118.612781 72.688852 
L 118.66714 72.385257 
L 118.721499 70.573927 
L 118.775858 73.056569 
L 118.830217 70.895083 
L 118.993294 72.509843 
L 119.21073 70.459344 
L 119.265089 72.367725 
L 119.319448 70.122813 
L 119.373806 70.926172 
L 119.482524 72.817833 
L 119.536883 70.963167 
L 119.591242 71.93737 
L 119.69996 70.426299 
L 119.917396 72.837906 
L 119.971755 70.548051 
L 120.026114 71.523756 
L 120.080473 70.926949 
L 120.243549 72.613778 
L 120.406626 70.788207 
L 120.515344 73.178703 
L 120.569703 70.463697 
L 120.624062 71.134276 
L 120.678421 71.36691 
L 120.73278 70.856617 
L 120.787139 72.119752 
L 120.841498 70.193445 
L 120.895856 70.66396 
L 120.950215 71.495951 
L 121.004574 71.402077 
L 121.113292 71.510341 
L 121.167651 71.167268 
L 121.22201 71.65617 
L 121.276369 71.385305 
L 121.330728 71.617157 
L 121.385087 70.764723 
L 121.439446 73.085595 
L 121.493805 71.503268 
L 121.602523 72.076407 
L 121.656881 71.733881 
L 121.71124 72.248086 
L 121.874317 70.591797 
L 122.091753 72.338817 
L 122.146112 70.514338 
L 122.200471 72.068019 
L 122.363548 70.842462 
L 122.417906 71.688012 
L 122.472265 70.7518 
L 122.526624 70.867915 
L 122.580983 71.363691 
L 122.635342 71.187131 
L 122.689701 71.241137 
L 122.74406 71.068332 
L 122.798419 70.492196 
L 122.852778 72.225862 
L 122.907137 71.572179 
L 122.961496 71.259978 
L 123.015855 72.197167 
L 123.070214 71.607644 
L 123.124573 71.012703 
L 123.178931 71.758944 
L 123.23329 71.466037 
L 123.287649 71.326757 
L 123.450726 72.345734 
L 123.559444 70.9085 
L 123.613803 71.578695 
L 123.722521 71.64994 
L 123.885598 70.873257 
L 123.939956 71.036167 
L 124.103033 72.250691 
L 124.157392 72.017677 
L 124.26611 71.015146 
L 124.320469 71.615037 
L 124.374828 71.823999 
L 124.537905 71.163455 
L 124.592264 71.892806 
L 124.646623 71.645464 
L 124.75534 70.875616 
L 124.809699 71.666183 
L 124.864058 71.154308 
L 124.972776 71.806786 
L 125.027135 71.583225 
L 125.190212 71.330374 
L 125.29893 71.547842 
L 125.407648 71.771337 
L 125.462006 71.211358 
L 125.516365 71.593789 
L 125.625083 71.316812 
L 125.679442 71.508633 
L 125.842519 71.614249 
L 126.005596 71.415985 
L 126.223031 71.641142 
L 126.331749 71.349333 
L 126.440467 71.631408 
L 126.494826 71.345155 
L 126.549185 71.570929 
L 126.712262 71.385046 
L 126.875339 71.602994 
L 127.038415 71.529091 
L 127.255851 71.532056 
L 127.527646 71.501148 
L 127.636364 71.518419 
L 127.636364 71.518419 
" clip-path="url(#p8fb18e3c7b)" style="fill: none; stroke: #e78ac3; stroke-width: 1.5; stroke-linecap: square"/>
   </g>
   <g id="patch_3">
    <path d="M 10.8 133.2 
L 10.8 10.8 
" style="fill: none; stroke: #000000; stroke-width: 0.8; stroke-linejoin: miter; stroke-linecap: square"/>
   </g>
   <g id="patch_4">
    <path d="M 133.2 133.2 
L 133.2 10.8 
" style="fill: none; stroke: #000000; stroke-width: 0.8; stroke-linejoin: miter; stroke-linecap: square"/>
   </g>
   <g id="patch_5">
    <path d="M 10.8 133.2 
L 133.2 133.2 
" style="fill: none; stroke: #000000; stroke-width: 0.8; stroke-linejoin: miter; stroke-linecap: square"/>
   </g>
   <g id="patch_6">
    <path d="M 10.8 10.8 
L 133.2 10.8 
" style="fill: none; stroke: #000000; stroke-width: 0.8; stroke-linejoin: miter; stroke-linecap: square"/>
   </g>
  </g>
 </g>
 <defs>
  <clipPath id="p8fb18e3c7b">
   <rect x="10.8" y="10.8" width="122.4" height="122.4"/>
  </clipPath>
 </defs>
</svg>
