<?xml version="1.0" encoding="utf-8" standalone="no"?>
<!DOCTYPE svg PUBLIC "-//W3C//DTD SVG 1.1//EN"
  "http://www.w3.org/Graphics/SVG/1.1/DTD/svg11.dtd">
<svg xmlns:xlink="http://www.w3.org/1999/xlink" width="144pt" height="144pt" viewBox="0 0 144 144" xmlns="http://www.w3.org/2000/svg" version="1.1">
 <metadata>
  <rdf:RDF xmlns:dc="http://purl.org/dc/elements/1.1/" xmlns:cc="http://creativecommons.org/ns#" xmlns:rdf="http://www.w3.org/1999/02/22-rdf-syntax-ns#">
   <cc:Work>
    <dc:type rdf:resource="http://purl.org/dc/dcmitype/StillImage"/>
    <dc:date>2025-02-11T14:44:00.476664</dc:date>
    <dc:format>image/svg+xml</dc:format>
    <dc:creator>
     <cc:Agent>
      <dc:title>Matplotlib v3.8.0, https://matplotlib.org/</dc:title>
     </cc:Agent>
    </dc:creator>
   </cc:Work>
  </rdf:RDF>
 </metadata>
 <defs>
  <style type="text/css">*{stroke-linejoin: round; stroke-linecap: butt}</style>
 </defs>
 <g id="figure_1">
  <g id="patch_1">
   <path d="M 0 144 
L 144 144 
L 144 0 
L 0 0 
L 0 144 
z
" style="fill: none"/>
  </g>
  <g id="axes_1">
   <g id="patch_2">
    <path d="M 10.8 133.2 
L 133.2 133.2 
L 133.2 10.8 
L 10.8 10.8 
L 10.8 133.2 
z
" style="fill: none"/>
   </g>
   <g id="matplotlib.axis_1"/>
   <g id="matplotlib.axis_2"/>
   <g id="line2d_1">
    <path d="M 16.363636 75.556356 
L 16.961585 75.548674 
L 17.070302 75.500712 
L 17.233379 75.661567 
L 17.342097 75.587503 
L 17.396456 75.390897 
L 17.450815 75.579275 
L 17.505174 75.469703 
L 17.559533 75.601867 
L 17.613892 75.578436 
L 17.668251 75.679205 
L 17.72261 75.350115 
L 17.776969 75.590602 
L 17.831327 75.54502 
L 17.885686 75.733992 
L 17.940045 75.536091 
L 17.994404 75.401901 
L 18.048763 75.919977 
L 18.103122 75.639224 
L 18.157481 75.562582 
L 18.266199 75.87733 
L 18.429276 75.12005 
L 18.592352 75.739828 
L 18.755429 75.098839 
L 18.809788 75.263393 
L 18.972865 75.922943 
L 19.081583 75.342783 
L 19.135942 75.375881 
L 19.24466 75.919879 
L 19.299019 75.38557 
L 19.353377 75.641003 
L 19.407736 75.727799 
L 19.462095 75.323087 
L 19.516454 75.50818 
L 19.570813 75.927677 
L 19.625172 75.392369 
L 19.679531 75.560456 
L 19.73389 75.44706 
L 19.788249 76.002886 
L 19.842608 75.894552 
L 19.896967 75.85192 
L 20.005685 75.338254 
L 20.060044 75.788886 
L 20.114402 75.523491 
L 20.168761 75.119582 
L 20.22312 75.146542 
L 20.277479 75.631078 
L 20.331838 75.330527 
L 20.386197 75.137569 
L 20.440556 75.80994 
L 20.494915 75.678968 
L 20.603633 75.228939 
L 20.657992 75.477034 
L 20.712351 76.092391 
L 20.76671 75.985515 
L 20.821069 75.416919 
L 20.875427 75.60185 
L 20.984145 75.861423 
L 21.038504 76.002856 
L 21.092863 75.282166 
L 21.147222 75.34172 
L 21.25594 75.722736 
L 21.310299 76.016568 
L 21.364658 75.455405 
L 21.419017 75.479048 
L 21.473376 76.342391 
L 21.527735 75.398042 
L 21.582094 75.485043 
L 21.636452 75.51051 
L 21.799529 74.596918 
L 21.853888 74.695366 
L 22.016965 75.8005 
L 22.071324 75.397049 
L 22.125683 75.419505 
L 22.180042 74.798635 
L 22.234401 74.908733 
L 22.343119 76.034847 
L 22.397477 74.704726 
L 22.451836 75.31343 
L 22.560554 76.351136 
L 22.669272 76.119701 
L 22.723631 74.668966 
L 22.77799 75.361931 
L 22.832349 75.409897 
L 22.941067 74.946129 
L 22.995426 75.250631 
L 23.104144 75.501966 
L 23.158502 74.575802 
L 23.212861 75.515683 
L 23.321579 76.826804 
L 23.484656 75.245638 
L 23.539015 76.071211 
L 23.702092 74.346403 
L 23.756451 75.641701 
L 23.81081 74.857293 
L 23.865169 75.043506 
L 23.919527 76.03715 
L 23.973886 75.899341 
L 24.028245 74.747187 
L 24.082604 74.75205 
L 24.136963 75.682671 
L 24.191322 74.741081 
L 24.245681 74.172526 
L 24.30004 76.473348 
L 24.354399 76.147924 
L 24.408758 75.996282 
L 24.571835 74.737355 
L 24.626194 76.18506 
L 24.680552 75.837753 
L 24.734911 75.921112 
L 24.78927 75.60187 
L 24.843629 74.436605 
L 24.897988 75.568143 
L 24.952347 77.0188 
L 25.006706 74.034268 
L 25.061065 75.169756 
L 25.169783 76.825619 
L 25.224142 76.785294 
L 25.441577 73.485657 
L 25.550295 75.791522 
L 25.604654 75.40808 
L 25.713372 74.274019 
L 25.767731 76.940771 
L 25.82209 75.987238 
L 25.876449 74.344823 
L 25.930808 75.388814 
L 25.985167 76.172153 
L 26.039526 74.371547 
L 26.093885 75.389835 
L 26.148244 74.749512 
L 26.202602 75.616769 
L 26.256961 74.700422 
L 26.31132 76.712867 
L 26.365679 73.720028 
L 26.420038 76.037144 
L 26.474397 76.130788 
L 26.528756 75.454273 
L 26.637474 77.593674 
L 26.691833 76.524375 
L 26.800551 76.265309 
L 26.85491 73.830937 
L 26.909269 73.866008 
L 27.072345 76.954119 
L 27.126704 76.57541 
L 27.181063 77.453986 
L 27.235422 74.614516 
L 27.289781 75.475659 
L 27.34414 76.19924 
L 27.398499 75.528576 
L 27.561576 74.45273 
L 27.724652 77.289431 
L 27.83337 74.273782 
L 27.887729 77.842318 
L 27.942088 75.911348 
L 27.996447 75.859613 
L 28.050806 75.005603 
L 28.105165 75.950315 
L 28.159524 72.636061 
L 28.213883 75.571192 
L 28.268242 75.440647 
L 28.431319 75.990083 
L 28.594395 78.337169 
L 28.648754 74.142458 
L 28.703113 74.800894 
L 28.757472 75.770925 
L 28.811831 73.396274 
L 28.86619 76.576006 
L 28.920549 75.778792 
L 28.974908 75.905527 
L 29.083626 73.522488 
L 29.192344 76.733205 
L 29.246702 74.516041 
L 29.35542 74.557592 
L 29.409779 74.935146 
L 29.464138 76.803775 
L 29.518497 74.019385 
L 29.572856 74.635557 
L 29.627215 76.62727 
L 29.681574 75.763665 
L 29.735933 76.110038 
L 29.790292 75.959851 
L 29.844651 74.288595 
L 29.89901 75.201796 
L 29.953369 74.641232 
L 30.007727 77.16262 
L 30.062086 74.015909 
L 30.116445 74.615993 
L 30.225163 75.492263 
L 30.279522 74.870397 
L 30.333881 78.05158 
L 30.38824 76.584041 
L 30.442599 75.755195 
L 30.496958 75.841662 
L 30.551317 76.501094 
L 30.605676 73.003357 
L 30.660035 73.392463 
L 30.714394 78.296389 
L 30.768752 76.892911 
L 30.87747 74.007554 
L 30.931829 74.86019 
L 30.986188 76.696662 
L 31.040547 76.328266 
L 31.149265 73.306072 
L 31.42106 77.554635 
L 31.475419 73.299408 
L 31.529778 75.704896 
L 31.692854 74.101917 
L 31.801572 76.94107 
L 31.855931 74.434104 
L 31.91029 75.982964 
L 31.964649 74.956021 
L 32.019008 76.654048 
L 32.073367 75.087836 
L 32.182085 75.610165 
L 32.236444 77.929914 
L 32.290803 75.528225 
L 32.345161 77.468172 
L 32.562597 72.032822 
L 32.725674 75.923541 
L 32.780033 74.307506 
L 32.834392 77.243576 
L 32.888751 77.097656 
L 33.051828 75.515134 
L 33.106186 79.76869 
L 33.160545 76.217503 
L 33.214904 75.831888 
L 33.269263 76.39248 
L 33.323622 76.200271 
L 33.377981 76.206017 
L 33.43234 75.296541 
L 33.486699 75.74898 
L 33.541058 78.238131 
L 33.595417 76.136744 
L 33.649776 73.212522 
L 33.704135 78.744628 
L 33.758494 76.104373 
L 33.867211 74.662383 
L 33.92157 76.702759 
L 33.975929 75.754153 
L 34.030288 73.692267 
L 34.084647 76.97069 
L 34.139006 71.917313 
L 34.193365 79.106378 
L 34.247724 74.399529 
L 34.302083 74.29681 
L 34.356442 77.872876 
L 34.410801 71.833163 
L 34.46516 74.422116 
L 34.682595 71.548138 
L 34.791313 79.195838 
L 34.95439 74.448377 
L 35.008749 75.779552 
L 35.117467 73.335915 
L 35.171826 73.742685 
L 35.226185 72.002334 
L 35.334903 76.156427 
L 35.389261 75.637024 
L 35.44362 75.28993 
L 35.497979 76.485991 
L 35.552338 73.601742 
L 35.606697 75.059362 
L 35.661056 77.695656 
L 35.715415 72.323655 
L 35.769774 75.970928 
L 35.878492 77.015557 
L 36.041569 74.077155 
L 36.204645 76.527046 
L 36.259004 72.422145 
L 36.313363 74.938725 
L 36.422081 76.100837 
L 36.47644 71.99779 
L 36.530799 79.338655 
L 36.585158 74.816404 
L 36.639517 70.742692 
L 36.693876 74.227671 
L 36.748235 74.477082 
L 36.856953 72.507924 
L 37.020029 77.922834 
L 37.183106 74.232557 
L 37.237465 75.724196 
L 37.291824 71.399386 
L 37.346183 75.457459 
L 37.400542 75.28776 
L 37.454901 72.486845 
L 37.617978 78.90097 
L 37.726695 73.045847 
L 37.835413 72.937873 
L 37.889772 79.600174 
L 37.99849 71.787985 
L 38.052849 76.374811 
L 38.270285 73.030118 
L 38.433361 79.895085 
L 38.542079 72.001687 
L 38.596438 80.320495 
L 38.650797 71.732733 
L 38.705156 73.594179 
L 38.759515 70.001303 
L 38.813874 73.058968 
L 38.868233 72.165805 
L 38.922592 68.904714 
L 39.03131 76.541708 
L 39.085669 75.184008 
L 39.140028 69.264984 
L 39.194386 75.130185 
L 39.248745 75.46754 
L 39.303104 78.278554 
L 39.411822 73.469578 
L 39.466181 80.091959 
L 39.52054 77.379258 
L 39.574899 77.96797 
L 39.629258 77.834524 
L 39.792335 70.746533 
L 39.955411 79.506161 
L 40.00977 78.328059 
L 40.064129 69.563008 
L 40.118488 76.80031 
L 40.172847 70.758259 
L 40.227206 73.726917 
L 40.281565 77.283543 
L 40.335924 76.552001 
L 40.390283 74.778133 
L 40.499001 78.732145 
L 40.662078 70.285936 
L 40.770795 82.17501 
L 40.933872 69.840746 
L 41.04259 80.13891 
L 41.096949 72.043511 
L 41.151308 75.753739 
L 41.205667 78.807397 
L 41.260026 76.08848 
L 41.314385 77.694889 
L 41.423103 74.317418 
L 41.477461 84.785728 
L 41.586179 69.012393 
L 41.749256 75.862114 
L 41.803615 69.103101 
L 41.857974 75.683159 
L 41.966692 76.403693 
L 42.021051 75.048121 
L 42.07541 70.184674 
L 42.129769 75.071002 
L 42.184128 79.914989 
L 42.238486 75.999921 
L 42.401563 73.649646 
L 42.455922 74.870518 
L 42.510281 73.822475 
L 42.56464 82.733938 
L 42.618999 76.523072 
L 42.673358 82.129056 
L 42.727717 67.509902 
L 42.782076 76.721113 
L 42.836435 73.307051 
L 42.890794 74.377927 
L 42.945153 75.358015 
L 42.999511 69.254227 
L 43.108229 81.866927 
L 43.162588 74.707721 
L 43.216947 78.931423 
L 43.325665 73.623355 
L 43.380024 76.434294 
L 43.434383 82.054493 
L 43.59746 72.296435 
L 43.706178 77.021023 
L 43.760536 76.927812 
L 43.869254 71.766989 
L 43.923613 73.187483 
L 43.977972 74.948906 
L 44.08669 71.160234 
L 44.141049 75.389351 
L 44.195408 67.642238 
L 44.249767 74.973164 
L 44.304126 75.991908 
L 44.358485 72.223403 
L 44.412844 72.388281 
L 44.467203 77.187949 
L 44.521561 73.564395 
L 44.57592 75.138488 
L 44.738997 64.794735 
L 44.847715 77.594559 
L 44.956433 74.049175 
L 45.010792 80.82777 
L 45.065151 74.668773 
L 45.11951 74.830321 
L 45.173869 66.082695 
L 45.228228 70.903718 
L 45.391304 80.397963 
L 45.445663 80.459734 
L 45.500022 73.320977 
L 45.554381 77.617132 
L 45.663099 72.68406 
L 45.717458 77.097052 
L 45.771817 67.917219 
L 45.826176 82.215112 
L 45.880535 74.015124 
L 45.934894 80.787166 
L 45.989253 70.134908 
L 46.043611 71.627525 
L 46.09797 73.400769 
L 46.152329 80.380566 
L 46.315406 67.603196 
L 46.478483 81.683418 
L 46.64156 70.357394 
L 46.750278 79.826972 
L 46.804636 78.091812 
L 46.858995 81.340105 
L 46.913354 81.059024 
L 47.022072 71.840793 
L 47.076431 77.787201 
L 47.13079 67.577934 
L 47.185149 78.865716 
L 47.239508 65.835065 
L 47.293867 74.327854 
L 47.348226 68.250831 
L 47.402585 76.139523 
L 47.456944 65.825275 
L 47.511303 80.208101 
L 47.565662 65.518679 
L 47.62002 72.811388 
L 47.674379 72.205787 
L 47.728738 72.258334 
L 47.783097 69.729311 
L 47.837456 82.346411 
L 47.891815 81.556874 
L 47.946174 73.794369 
L 48.000533 80.110485 
L 48.054892 80.234437 
L 48.16361 75.555592 
L 48.217969 77.455369 
L 48.326687 67.531449 
L 48.435404 82.094412 
L 48.489763 71.412279 
L 48.544122 74.941171 
L 48.598481 73.316531 
L 48.65284 80.939621 
L 48.707199 73.432631 
L 48.761558 73.487562 
L 48.815917 81.193932 
L 48.978994 69.262323 
L 49.033353 82.595611 
L 49.087712 74.172948 
L 49.14207 76.526147 
L 49.196429 76.520207 
L 49.250788 70.001393 
L 49.305147 78.684536 
L 49.359506 67.417516 
L 49.413865 69.153282 
L 49.522583 90.456771 
L 49.68566 71.257781 
L 49.848737 80.528028 
L 49.903095 74.980306 
L 49.957454 83.001885 
L 50.066172 65.985626 
L 50.229249 79.250303 
L 50.446685 68.9888 
L 50.555403 83.218221 
L 50.609762 78.926904 
L 50.66412 68.587492 
L 50.718479 69.792242 
L 50.772838 70.60779 
L 50.827197 77.246608 
L 50.881556 70.862777 
L 50.990274 70.239002 
L 51.044633 68.984322 
L 51.153351 79.370184 
L 51.262069 68.018159 
L 51.316428 79.61485 
L 51.370787 65.239312 
L 51.425145 78.304993 
L 51.479504 78.834424 
L 51.533863 67.089388 
L 51.588222 70.443714 
L 51.642581 68.272214 
L 51.69694 69.821275 
L 51.751299 81.800729 
L 51.805658 77.036694 
L 51.860017 75.953858 
L 51.914376 65.47296 
L 51.968735 75.818189 
L 52.023094 76.178511 
L 52.077453 66.944356 
L 52.131812 87.99699 
L 52.18617 69.821744 
L 52.240529 69.018558 
L 52.403606 77.847854 
L 52.457965 77.070224 
L 52.512324 81.664496 
L 52.566683 80.992636 
L 52.621042 70.619644 
L 52.675401 71.877505 
L 52.72976 71.247842 
L 52.892837 83.09449 
L 53.055913 71.757736 
L 53.110272 80.374711 
L 53.164631 72.626467 
L 53.21899 75.583839 
L 53.273349 71.337623 
L 53.327708 71.908176 
L 53.382067 71.736025 
L 53.436426 76.511578 
L 53.545144 76.50873 
L 53.599503 77.877228 
L 53.653862 74.086401 
L 53.70822 61.816872 
L 53.816938 83.171394 
L 53.871297 73.38642 
L 53.925656 77.747607 
L 53.980015 77.98238 
L 54.034374 83.574096 
L 54.143092 73.793959 
L 54.306169 81.063403 
L 54.360528 79.870734 
L 54.414887 67.458489 
L 54.469245 76.965544 
L 54.577963 81.323834 
L 54.74104 60.837549 
L 54.904117 83.608684 
L 54.958476 64.062094 
L 55.012835 72.454498 
L 55.067194 75.18079 
L 55.121553 88.585633 
L 55.175912 70.243028 
L 55.23027 74.011186 
L 55.284629 87.836139 
L 55.338988 79.53652 
L 55.393347 67.083465 
L 55.447706 86.792396 
L 55.502065 78.708089 
L 55.556424 84.000649 
L 55.610783 68.465803 
L 55.665142 82.846067 
L 55.719501 78.725903 
L 55.77386 84.802705 
L 55.882578 67.27916 
L 55.936937 72.430961 
L 55.991295 73.527339 
L 56.045654 85.08925 
L 56.100013 75.537243 
L 56.154372 70.33855 
L 56.208731 84.301608 
L 56.26309 69.335975 
L 56.317449 72.992249 
L 56.371808 87.814351 
L 56.426167 76.908066 
L 56.480526 82.476473 
L 56.534885 65.131629 
L 56.589244 74.229292 
L 56.75232 61.121579 
L 56.806679 73.742143 
L 56.861038 66.899791 
L 56.915397 66.132298 
L 56.969756 58.377645 
L 57.078474 84.257324 
L 57.132833 78.812983 
L 57.187192 76.697288 
L 57.241551 78.057577 
L 57.29591 78.139534 
L 57.404628 69.944609 
L 57.567704 83.30496 
L 57.622063 78.427243 
L 57.676422 87.664377 
L 57.893858 63.220429 
L 58.056935 78.807316 
L 58.111294 68.441994 
L 58.165653 76.563007 
L 58.220012 88.794352 
L 58.27437 85.991122 
L 58.437447 67.121041 
L 58.546165 85.110191 
L 58.600524 64.928138 
L 58.654883 81.470942 
L 58.709242 79.133167 
L 58.81796 62.724802 
L 58.926678 78.945698 
L 58.981037 74.013423 
L 59.035395 77.332553 
L 59.089754 76.571977 
L 59.198472 71.144986 
L 59.252831 73.015259 
L 59.415908 81.099351 
L 59.470267 79.671523 
L 59.578985 64.875396 
L 59.633344 79.415014 
L 59.687703 73.562744 
L 59.742062 69.572171 
L 59.79642 78.96083 
L 59.850779 64.021215 
L 59.905138 77.13638 
L 59.959497 86.092107 
L 60.013856 74.346697 
L 60.068215 85.46345 
L 60.176933 69.251635 
L 60.285651 69.734944 
L 60.503087 83.918946 
L 60.557445 76.276314 
L 60.611804 86.589394 
L 60.666163 77.4148 
L 60.720522 77.690138 
L 60.774881 57.882629 
L 60.82924 73.267865 
L 60.883599 82.775089 
L 60.937958 78.255752 
L 60.992317 67.377973 
L 61.046676 75.165961 
L 61.101035 78.828013 
L 61.264112 66.312053 
L 61.31847 76.583996 
L 61.372829 62.499848 
L 61.427188 72.002812 
L 61.590265 81.581062 
L 61.753342 71.442777 
L 61.916419 81.308814 
L 61.970778 67.674863 
L 62.025137 74.586383 
L 62.079495 69.510326 
L 62.133854 90.843433 
L 62.188213 83.329318 
L 62.242572 71.30338 
L 62.296931 77.617156 
L 62.35129 76.540082 
L 62.405649 90.633758 
L 62.514367 73.739135 
L 62.623085 85.803816 
L 62.677444 77.128619 
L 62.731803 79.915337 
L 62.786162 83.141514 
L 62.949238 65.387953 
L 63.057956 77.861028 
L 63.166674 58.118739 
L 63.221033 78.334754 
L 63.275392 76.897345 
L 63.38411 73.503507 
L 63.438469 74.422384 
L 63.492828 59.552024 
L 63.547187 70.79919 
L 63.655904 79.932281 
L 63.764622 71.698098 
L 63.927699 80.32052 
L 63.982058 74.399433 
L 64.036417 75.444739 
L 64.145135 77.028728 
L 64.199494 64.215196 
L 64.253853 69.599056 
L 64.416929 86.240304 
L 64.471288 80.304438 
L 64.580006 75.690916 
L 64.634365 81.768824 
L 64.688724 74.297306 
L 64.743083 89.577439 
L 64.797442 67.224231 
L 64.851801 77.059172 
L 64.90616 77.042013 
L 64.960519 73.897093 
L 65.014878 86.938847 
L 65.069237 73.468359 
L 65.123596 63.037754 
L 65.177954 83.609752 
L 65.232313 77.11166 
L 65.286672 79.341929 
L 65.341031 94.142894 
L 65.449749 62.74455 
L 65.504108 90.106539 
L 65.558467 76.805282 
L 65.612826 75.28036 
L 65.667185 64.447869 
L 65.721544 71.715466 
L 65.830262 80.856893 
L 65.938979 65.790887 
L 65.993338 70.975272 
L 66.102056 81.034108 
L 66.156415 67.928492 
L 66.210774 84.995001 
L 66.265133 63.115424 
L 66.319492 76.512153 
L 66.373851 79.499287 
L 66.42821 58.526644 
L 66.482569 72.723909 
L 66.536928 90.409492 
L 66.591287 67.764859 
L 66.645646 91.726069 
L 66.700004 83.044375 
L 66.754363 82.520448 
L 66.808722 78.07514 
L 66.863081 64.34612 
L 66.91744 69.846406 
L 66.971799 90.971941 
L 67.026158 84.284394 
L 67.134876 77.031404 
L 67.243594 65.045523 
L 67.352312 83.948501 
L 67.406671 71.340838 
L 67.461029 79.385404 
L 67.624106 90.485997 
L 67.732824 59.169232 
L 67.787183 75.755408 
L 67.841542 89.780931 
L 67.895901 70.89656 
L 67.95026 85.047647 
L 68.113337 66.134077 
L 68.167696 80.410232 
L 68.222054 67.167255 
L 68.276413 67.113119 
L 68.330772 70.504068 
L 68.385131 90.357182 
L 68.548208 60.483751 
L 68.711285 79.768823 
L 68.874362 66.505527 
L 69.091797 91.479547 
L 69.309233 71.5448 
L 69.363592 87.821888 
L 69.417951 64.521516 
L 69.47231 94.322802 
L 69.526669 69.953335 
L 69.689746 94.038842 
L 69.852822 63.430933 
L 69.96154 96.180365 
L 70.015899 92.959101 
L 70.124617 69.823891 
L 70.287694 81.4217 
L 70.342053 74.485825 
L 70.396412 84.469971 
L 70.450771 83.85017 
L 70.559488 61.579804 
L 70.668206 71.8121 
L 70.722565 59.183424 
L 70.776924 88.896727 
L 70.831283 66.791074 
L 70.99436 92.196895 
L 71.048719 106.600494 
L 71.157437 66.037887 
L 71.211796 81.819301 
L 71.266154 69.182166 
L 71.320513 83.080456 
L 71.374872 81.262861 
L 71.429231 64.091753 
L 71.537949 64.694847 
L 71.592308 86.861838 
L 71.646667 69.033327 
L 71.755385 83.704109 
L 71.809744 76.713811 
L 71.864103 75.195852 
L 71.918462 94.478017 
L 71.972821 86.329364 
L 72.027179 74.987836 
L 72.081538 75.512238 
L 72.135897 86.153898 
L 72.298974 55.825753 
L 72.462051 76.153479 
L 72.51641 68.98388 
L 72.570769 85.396643 
L 72.625128 72.833403 
L 72.679487 72.389247 
L 72.733846 76.60855 
L 72.788204 68.23238 
L 72.842563 79.262219 
L 72.896922 77.769562 
L 73.059999 67.149238 
L 73.114358 69.902053 
L 73.168717 91.586289 
L 73.223076 63.175397 
L 73.277435 67.212838 
L 73.331794 77.888546 
L 73.386153 44.080246 
L 73.440512 63.995198 
L 73.494871 66.691945 
L 73.603588 59.413882 
L 73.712306 84.452925 
L 73.766665 76.203862 
L 73.875383 66.429939 
L 73.929742 74.315059 
L 73.984101 62.285141 
L 74.03846 83.053825 
L 74.092819 70.555727 
L 74.147178 65.671209 
L 74.201537 92.311334 
L 74.255896 73.47112 
L 74.473331 86.76029 
L 74.582049 73.256444 
L 74.745126 95.828974 
L 74.799485 64.847902 
L 74.853844 84.93399 
L 74.908203 83.350772 
L 74.962562 88.991413 
L 75.016921 67.9623 
L 75.071279 68.295818 
L 75.234356 84.257597 
L 75.451792 54.389763 
L 75.506151 62.461469 
L 75.56051 83.345267 
L 75.614869 66.739439 
L 75.723587 83.942999 
L 75.886663 69.829245 
L 76.04974 84.979133 
L 76.104099 67.591836 
L 76.158458 76.432212 
L 76.212817 77.427318 
L 76.267176 68.51322 
L 76.321535 81.119466 
L 76.484612 63.64576 
L 76.538971 68.247143 
L 76.593329 44.58997 
L 76.756406 89.050072 
L 76.865124 64.469349 
L 76.919483 84.943907 
L 76.973842 72.587335 
L 77.028201 73.437829 
L 77.08256 86.547347 
L 77.136919 61.488391 
L 77.191278 78.5683 
L 77.245637 91.32179 
L 77.354354 70.580616 
L 77.408713 70.885656 
L 77.463072 78.986231 
L 77.517431 75.27272 
L 77.57179 55.145491 
L 77.626149 70.306129 
L 77.680508 89.154224 
L 77.734867 84.70132 
L 77.789226 66.725531 
L 77.843585 74.882897 
L 78.006662 83.380268 
L 78.061021 61.094994 
L 78.115379 63.679728 
L 78.169738 84.398061 
L 78.278456 84.245836 
L 78.332815 70.75024 
L 78.387174 75.668815 
L 78.441533 72.256608 
L 78.495892 82.02371 
L 78.550251 63.945181 
L 78.60461 84.751508 
L 78.658969 70.546297 
L 78.767687 85.491442 
L 78.985122 54.693743 
L 79.09384 102.521071 
L 79.148199 79.41944 
L 79.256917 75.048724 
L 79.311276 92.097664 
L 79.365635 56.423241 
L 79.419994 106.340529 
L 79.474353 65.707984 
L 79.528712 68.508753 
L 79.583071 87.275315 
L 79.637429 75.047752 
L 79.746147 92.71258 
L 79.854865 62.989715 
L 79.909224 79.015653 
L 79.963583 62.800589 
L 80.017942 63.706558 
L 80.181019 87.568748 
L 80.235378 70.207389 
L 80.289737 73.060218 
L 80.344096 90.186266 
L 80.398455 85.130925 
L 80.561531 70.568469 
L 80.61589 87.161227 
L 80.670249 57.475187 
L 80.724608 84.727993 
L 80.833326 73.696759 
L 80.887685 78.916644 
L 80.942044 80.605308 
L 80.996403 63.282332 
L 81.050762 75.57258 
L 81.105121 78.855636 
L 81.15948 61.010673 
L 81.322556 90.322563 
L 81.376915 70.656672 
L 81.431274 78.87681 
L 81.485633 96.37009 
L 81.539992 83.860038 
L 81.594351 57.720221 
L 81.64871 77.160863 
L 81.703069 69.38142 
L 81.811787 90.967183 
L 81.866146 70.964971 
L 81.920505 79.602928 
L 81.974863 82.03384 
L 82.029222 89.609699 
L 82.13794 53.338392 
L 82.246658 59.019596 
L 82.301017 87.597741 
L 82.355376 69.118809 
L 82.409735 61.823592 
L 82.464094 87.659618 
L 82.518453 59.618999 
L 82.572812 99.398817 
L 82.627171 82.581571 
L 82.68153 95.057622 
L 82.735888 37.4033 
L 82.790247 69.900579 
L 82.844606 93.751351 
L 82.898965 83.752858 
L 83.007683 70.457359 
L 83.116401 72.408982 
L 83.17076 88.024788 
L 83.225119 54.645574 
L 83.279478 94.374606 
L 83.333837 63.427087 
L 83.388196 57.244185 
L 83.442555 77.837751 
L 83.496913 61.18995 
L 83.551272 65.549384 
L 83.605631 58.78541 
L 83.65999 82.098977 
L 83.714349 53.062121 
L 83.768708 81.135513 
L 83.931785 63.416014 
L 84.149221 82.7323 
L 84.312297 67.41225 
L 84.475374 100.511226 
L 84.584092 68.147061 
L 84.69281 87.672512 
L 84.747169 78.993661 
L 84.801528 88.027593 
L 84.855887 85.661375 
L 84.964605 51.437892 
L 85.018963 72.078337 
L 85.073322 69.366676 
L 85.127681 68.864828 
L 85.18204 61.115797 
L 85.290758 82.091461 
L 85.345117 78.43295 
L 85.508194 58.709071 
L 85.562553 93.537042 
L 85.616912 76.077472 
L 85.671271 84.423127 
L 85.72563 64.383057 
L 85.779988 87.53704 
L 85.834347 82.739272 
L 85.888706 54.857861 
L 85.943065 78.351194 
L 85.997424 81.763009 
L 86.051783 57.482121 
L 86.106142 73.24901 
L 86.160501 80.535771 
L 86.323578 52.242697 
L 86.377937 104.136425 
L 86.432296 92.957884 
L 86.486655 67.437438 
L 86.541013 73.962958 
L 86.595372 81.278217 
L 86.649731 65.848629 
L 86.70409 79.36178 
L 86.758449 85.695009 
L 86.812808 62.269016 
L 86.867167 92.863486 
L 86.921526 71.674962 
L 86.975885 78.881146 
L 87.030244 64.252863 
L 87.084603 82.668154 
L 87.138962 55.770311 
L 87.193321 66.386703 
L 87.24768 94.458759 
L 87.302038 84.240869 
L 87.356397 80.669595 
L 87.410756 93.355265 
L 87.465115 59.941764 
L 87.519474 69.746858 
L 87.573833 83.018038 
L 87.628192 59.864823 
L 87.682551 84.776731 
L 87.73691 69.573429 
L 87.791269 69.0839 
L 87.845628 108.408311 
L 87.899987 73.245152 
L 87.954346 80.871912 
L 88.008705 67.988283 
L 88.063063 73.046509 
L 88.117422 88.171592 
L 88.22614 54.216599 
L 88.280499 92.379156 
L 88.334858 64.26586 
L 88.389217 71.702143 
L 88.443576 60.330804 
L 88.497935 74.924885 
L 88.552294 65.796819 
L 88.606653 40.284145 
L 88.715371 78.021471 
L 88.76973 75.924198 
L 88.824088 91.1434 
L 88.878447 65.882454 
L 88.932806 83.847668 
L 89.041524 75.256826 
L 89.095883 62.665188 
L 89.150242 74.206276 
L 89.204601 67.30652 
L 89.25896 78.877717 
L 89.313319 60.837843 
L 89.367678 90.207597 
L 89.422037 68.181494 
L 89.476396 88.41182 
L 89.530755 74.976701 
L 89.585113 81.884447 
L 89.639472 77.061462 
L 89.693831 81.473642 
L 89.74819 65.421067 
L 89.911267 90.451638 
L 89.965626 77.693979 
L 90.019985 105.13 
L 90.074344 58.36607 
L 90.128703 73.13365 
L 90.183062 71.090849 
L 90.237421 59.23832 
L 90.400497 102.351563 
L 90.454856 74.199877 
L 90.509215 90.337846 
L 90.563574 84.490851 
L 90.617933 90.999674 
L 90.726651 25.184798 
L 90.835369 88.115189 
L 90.889728 79.895874 
L 90.998446 93.938094 
L 91.052805 64.892436 
L 91.107163 67.977434 
L 91.161522 101.739502 
L 91.215881 70.279123 
L 91.27024 76.69631 
L 91.324599 51.818502 
L 91.378958 92.254464 
L 91.433317 80.238477 
L 91.487676 87.661053 
L 91.542035 49.569432 
L 91.596394 79.474212 
L 91.650753 101.907731 
L 91.705112 67.00532 
L 91.81383 67.869144 
L 91.976906 80.97148 
L 92.031265 70.79641 
L 92.139983 86.395298 
L 92.194342 81.063195 
L 92.248701 62.968644 
L 92.30306 85.257253 
L 92.411778 57.410432 
L 92.520496 88.038836 
L 92.574855 75.459825 
L 92.629213 78.148367 
L 92.683572 78.806706 
L 92.737931 60.991101 
L 92.79229 77.073045 
L 92.846649 89.967049 
L 93.009726 50.856502 
L 93.172803 81.223338 
L 93.33588 72.714123 
L 93.390238 96.082618 
L 93.498956 51.213856 
L 93.553315 58.514157 
L 93.607674 82.052892 
L 93.662033 61.780978 
L 93.770751 92.886927 
L 93.82511 65.947953 
L 93.879469 68.302869 
L 93.933828 77.492449 
L 93.988187 71.402512 
L 94.042546 71.938821 
L 94.151263 80.041664 
L 94.259981 57.12198 
L 94.423058 81.848152 
L 94.477417 97.028307 
L 94.531776 53.65706 
L 94.586135 67.289322 
L 94.694853 63.903753 
L 94.803571 90.446391 
L 94.85793 65.426023 
L 94.912288 91.130584 
L 94.966647 111.254327 
L 95.021006 66.547809 
L 95.129724 67.356583 
L 95.184083 99.233719 
L 95.292801 63.621673 
L 95.34716 70.390314 
L 95.455878 54.986416 
L 95.510237 59.152387 
L 95.564596 82.985064 
L 95.618955 79.957387 
L 95.727672 62.281163 
L 95.782031 62.477874 
L 95.83639 76.760689 
L 95.890749 76.485464 
L 95.999467 41.516069 
L 96.162544 86.555026 
L 96.216903 59.962097 
L 96.325621 93.095139 
L 96.37998 87.519562 
L 96.434338 97.823236 
L 96.488697 92.873357 
L 96.597415 54.96415 
L 96.760492 81.554822 
L 96.814851 60.032112 
L 96.977928 89.941658 
L 97.032287 71.399691 
L 97.086646 73.429374 
L 97.141005 77.915806 
L 97.195364 64.533973 
L 97.249722 72.84909 
L 97.304081 80.27666 
L 97.35844 61.877405 
L 97.521517 91.334379 
L 97.575876 88.63071 
L 97.630235 99.383069 
L 97.793312 59.097623 
L 97.847671 90.769484 
L 97.90203 77.779002 
L 97.956389 60.433808 
L 98.010747 109.383906 
L 98.065106 64.721283 
L 98.173824 78.194799 
L 98.282542 64.821962 
L 98.39126 88.504384 
L 98.499978 61.551213 
L 98.554337 63.506379 
L 98.608696 63.484473 
L 98.663055 92.254468 
L 98.717414 78.733238 
L 98.771772 54.586397 
L 98.826131 79.364782 
L 98.88049 67.881906 
L 98.934849 91.423021 
L 98.989208 83.118564 
L 99.043567 78.28154 
L 99.097926 90.756247 
L 99.152285 55.930887 
L 99.206644 67.546751 
L 99.261003 71.00374 
L 99.315362 58.445697 
L 99.369721 75.524012 
L 99.42408 63.63326 
L 99.478439 58.904391 
L 99.532797 66.259102 
L 99.587156 53.586181 
L 99.641515 104.039853 
L 99.695874 59.700698 
L 99.804592 71.753531 
L 99.91331 61.687425 
L 99.967669 63.657214 
L 100.022028 83.132091 
L 100.076387 67.995433 
L 100.130746 71.178066 
L 100.185105 56.24859 
L 100.239464 67.48722 
L 100.293822 68.121481 
L 100.456899 93.913665 
L 100.511258 85.672482 
L 100.619976 48.147405 
L 100.783053 85.295492 
L 100.891771 60.300632 
L 101.000489 93.147303 
L 101.054847 78.925442 
L 101.109206 93.67608 
L 101.163565 85.021556 
L 101.217924 55.810501 
L 101.272283 89.800671 
L 101.326642 73.191451 
L 101.381001 79.407408 
L 101.43536 77.21397 
L 101.544078 65.34872 
L 101.598437 66.599344 
L 101.652796 87.817604 
L 101.707155 70.932431 
L 101.815872 43.207479 
L 101.978949 75.635184 
L 102.033308 71.462363 
L 102.196385 82.889062 
L 102.305103 63.472345 
L 102.359462 49.868365 
L 102.413821 73.458078 
L 102.46818 55.900147 
L 102.522539 47.246981 
L 102.576897 121.011827 
L 102.631256 40.30764 
L 102.685615 58.309385 
L 102.739974 64.878566 
L 102.794333 56.84729 
L 102.95741 98.536419 
L 103.120487 63.625935 
L 103.174846 98.367653 
L 103.229205 67.620293 
L 103.283564 49.610942 
L 103.337922 65.805509 
L 103.500999 81.331077 
L 103.555358 61.986202 
L 103.609717 103.296448 
L 103.664076 58.63054 
L 103.718435 74.650646 
L 103.772794 86.074646 
L 103.827153 58.804196 
L 103.881512 65.92293 
L 103.99023 98.327212 
L 104.044589 69.656329 
L 104.098947 80.528759 
L 104.153306 79.127814 
L 104.207665 62.733766 
L 104.370742 91.426168 
L 104.425101 65.73247 
L 104.47946 97.424119 
L 104.588178 42.113544 
L 104.751255 87.722872 
L 104.805614 82.990058 
L 104.859972 66.414153 
L 104.914331 95.93002 
L 104.96869 81.441407 
L 105.186126 60.673663 
L 105.240485 100.167494 
L 105.294844 82.29101 
L 105.349203 96.795412 
L 105.457921 68.179419 
L 105.51228 73.125117 
L 105.566639 82.383479 
L 105.620997 47.992116 
L 105.675356 63.397453 
L 105.729715 75.897594 
L 105.784074 74.684719 
L 105.838433 66.097924 
L 105.892792 72.080293 
L 106.110228 98.845912 
L 106.218946 74.635804 
L 106.273305 77.016978 
L 106.327664 72.383114 
L 106.382022 92.123741 
L 106.436381 91.301241 
L 106.599458 60.739989 
L 106.871253 106.750348 
L 106.925612 89.276835 
L 106.979971 67.156274 
L 107.03433 92.38145 
L 107.088689 80.388615 
L 107.143047 80.376587 
L 107.306124 49.448487 
L 107.360483 51.355031 
L 107.469201 74.165834 
L 107.52356 70.426662 
L 107.577919 47.219858 
L 107.686637 112.548517 
L 107.740996 50.731354 
L 107.849714 53.379881 
L 107.904072 54.268201 
L 108.01279 99.7966 
L 108.067149 70.4775 
L 108.121508 78.970412 
L 108.175867 76.084815 
L 108.230226 88.056698 
L 108.284585 83.547995 
L 108.338944 57.313699 
L 108.393303 80.951869 
L 108.447662 72.929788 
L 108.502021 76.590774 
L 108.55638 85.472585 
L 108.665097 63.097959 
L 108.719456 93.294583 
L 108.773815 78.551756 
L 108.828174 84.926721 
L 108.882533 61.411989 
L 108.936892 92.571704 
L 108.991251 64.440755 
L 109.04561 46.501906 
L 109.099969 54.949543 
L 109.154328 76.050688 
L 109.208687 73.604382 
L 109.317405 61.44572 
L 109.371764 83.547252 
L 109.426122 73.525081 
L 109.480481 69.946441 
L 109.53484 58.321139 
L 109.589199 70.458451 
L 109.643558 59.109673 
L 109.806635 99.224949 
L 109.860994 35.535765 
L 109.915353 96.371491 
L 109.969712 85.538906 
L 110.024071 48.137796 
L 110.07843 50.157017 
L 110.187147 88.205662 
L 110.241506 80.125266 
L 110.295865 92.142929 
L 110.458942 35.361484 
L 110.56766 73.685643 
L 110.622019 71.356679 
L 110.730737 79.954851 
L 110.785096 76.460558 
L 110.839455 78.245968 
L 110.893814 89.328195 
L 110.948172 84.217718 
L 111.002531 75.343894 
L 111.05689 98.727764 
L 111.111249 96.003773 
L 111.165608 66.131184 
L 111.328685 104.617611 
L 111.546121 41.303392 
L 111.60048 105.731818 
L 111.654839 91.375303 
L 111.709197 65.448144 
L 111.763556 92.980954 
L 111.817915 75.48265 
L 111.872274 69.849146 
L 111.926633 19.661083 
L 111.980992 53.893494 
L 112.035351 55.052236 
L 112.08971 97.744604 
L 112.144069 59.081056 
L 112.198428 72.513405 
L 112.252787 67.062471 
L 112.307146 49.129287 
L 112.361505 77.209834 
L 112.415864 61.739797 
L 112.470222 57.326542 
L 112.57894 110.332542 
L 112.742017 59.08224 
L 112.905094 87.712228 
L 112.959453 76.667156 
L 113.013812 86.765454 
L 113.12253 80.470934 
L 113.176889 85.87581 
L 113.231248 82.307483 
L 113.285606 84.801702 
L 113.339965 66.626822 
L 113.448683 109.483662 
L 113.557401 63.843361 
L 113.61176 71.417328 
L 113.720478 42.570043 
L 113.774837 73.176657 
L 113.829196 53.380691 
L 113.937914 66.170958 
L 113.992273 77.341969 
L 114.046631 65.742726 
L 114.10099 75.341884 
L 114.155349 43.8145 
L 114.209708 80.423557 
L 114.264067 51.018992 
L 114.372785 89.453733 
L 114.427144 66.053618 
L 114.481503 89.633244 
L 114.535862 105.04343 
L 114.590221 91.796385 
L 114.64458 59.865748 
L 114.698939 103.258782 
L 114.753298 67.729164 
L 114.807656 59.702001 
L 114.862015 60.212045 
L 115.025092 92.3743 
L 115.079451 88.375207 
L 115.188169 104.99732 
L 115.242528 56.123514 
L 115.296887 107.183978 
L 115.351246 61.529279 
L 115.62304 99.963787 
L 115.731758 57.439787 
L 115.949194 92.574876 
L 116.003553 61.055562 
L 116.057912 61.538349 
L 116.112271 91.987433 
L 116.16663 73.500339 
L 116.220989 74.820407 
L 116.275348 61.284687 
L 116.329706 63.391865 
L 116.384065 94.906734 
L 116.438424 65.131123 
L 116.492783 54.276387 
L 116.547142 62.777231 
L 116.65586 83.440568 
L 116.818937 61.050458 
L 116.982014 90.462255 
L 117.090731 95.084367 
L 117.14509 54.317579 
L 117.199449 77.778089 
L 117.253808 73.673378 
L 117.308167 85.08885 
L 117.362526 80.358649 
L 117.416885 78.595724 
L 117.471244 89.660162 
L 117.579962 54.448089 
L 117.634321 58.625353 
L 117.797398 88.96408 
L 117.851756 37.834744 
L 117.906115 56.296912 
L 117.960474 73.800473 
L 118.014833 70.155162 
L 118.069192 69.479906 
L 118.232269 79.955913 
L 118.286628 63.765143 
L 118.340987 79.732131 
L 118.395346 98.032372 
L 118.504064 63.6386 
L 118.612781 84.167938 
L 118.66714 83.976769 
L 118.775858 71.771465 
L 118.830217 91.141284 
L 118.884576 43.934045 
L 118.938935 65.170269 
L 118.993294 66.449294 
L 119.047653 77.427232 
L 119.102012 71.333772 
L 119.21073 61.895061 
L 119.319448 89.955881 
L 119.373806 81.476467 
L 119.482524 102.882074 
L 119.536883 90.533921 
L 119.591242 123.095487 
L 119.645601 94.6636 
L 119.69996 47.800725 
L 119.754319 69.786967 
L 119.917396 112.478984 
L 119.971755 49.586623 
L 120.026114 63.3213 
L 120.134831 116.481973 
L 120.297908 61.895921 
L 120.460985 103.405497 
L 120.515344 59.864166 
L 120.569703 89.468701 
L 120.624062 67.00421 
L 120.678421 86.036453 
L 120.73278 69.230523 
L 120.787139 86.445186 
L 120.841498 77.777451 
L 120.895856 91.229452 
L 121.004574 55.557043 
L 121.113292 87.374965 
L 121.167651 63.396799 
L 121.22201 80.667391 
L 121.276369 77.768631 
L 121.330728 83.783227 
L 121.493805 63.053738 
L 121.548164 89.110046 
L 121.602523 64.688446 
L 121.765599 100.430496 
L 121.819958 70.734158 
L 121.874317 91.760535 
L 121.928676 85.106808 
L 122.037394 112.411934 
L 122.146112 70.792228 
L 122.309189 93.986817 
L 122.363548 100.719663 
L 122.417906 53.769042 
L 122.472265 79.235107 
L 122.526624 93.908629 
L 122.580983 47.788632 
L 122.635342 82.550846 
L 122.689701 78.322193 
L 122.74406 85.473761 
L 122.798419 78.476136 
L 122.852778 80.502506 
L 123.015855 60.081352 
L 123.070214 76.930771 
L 123.124573 62.64043 
L 123.178931 55.587513 
L 123.23329 90.837999 
L 123.287649 78.24051 
L 123.342008 55.63639 
L 123.396367 79.092886 
L 123.450726 78.997448 
L 123.505085 88.817314 
L 123.668162 47.165741 
L 123.722521 100.165399 
L 123.77688 70.516134 
L 123.831239 72.54737 
L 123.885598 93.12395 
L 123.939956 81.886145 
L 123.994315 61.510713 
L 124.048674 62.927443 
L 124.103033 71.173383 
L 124.157392 70.656469 
L 124.211751 115.564887 
L 124.26611 68.303987 
L 124.320469 101.993622 
L 124.483546 75.422722 
L 124.537905 94.075319 
L 124.592264 92.291253 
L 124.646623 90.345775 
L 124.700981 101.546293 
L 124.75534 101.048792 
L 124.918417 62.300816 
L 125.027135 91.567181 
L 125.081494 88.745889 
L 125.135853 86.071698 
L 125.190212 50.03713 
L 125.244571 90.868564 
L 125.29893 55.645554 
L 125.462006 86.065253 
L 125.570724 49.037218 
L 125.625083 87.625286 
L 125.679442 63.744908 
L 125.733801 69.061287 
L 125.78816 50.662317 
L 125.842519 67.748719 
L 125.951237 86.800857 
L 126.005596 68.135757 
L 126.059955 95.025984 
L 126.223031 48.46131 
L 126.27739 100.60428 
L 126.331749 76.951633 
L 126.386108 81.358638 
L 126.440467 48.649131 
L 126.494826 67.507317 
L 126.549185 101.121557 
L 126.657903 56.990498 
L 126.82098 82.898597 
L 126.875339 81.774193 
L 126.929698 65.840611 
L 126.984056 78.389804 
L 127.038415 71.032918 
L 127.201492 91.748885 
L 127.31021 47.530419 
L 127.364569 71.276517 
L 127.418928 73.4189 
L 127.473287 92.432407 
L 127.527646 73.878949 
L 127.636364 81.314615 
L 127.636364 81.314615 
" clip-path="url(#p827b4a6c3e)" style="fill: none; stroke: #fc8d62; stroke-width: 1.5; stroke-linecap: square"/>
   </g>
   <g id="patch_3">
    <path d="M 10.8 133.2 
L 10.8 10.8 
" style="fill: none; stroke: #000000; stroke-width: 0.8; stroke-linejoin: miter; stroke-linecap: square"/>
   </g>
   <g id="patch_4">
    <path d="M 133.2 133.2 
L 133.2 10.8 
" style="fill: none; stroke: #000000; stroke-width: 0.8; stroke-linejoin: miter; stroke-linecap: square"/>
   </g>
   <g id="patch_5">
    <path d="M 10.8 133.2 
L 133.2 133.2 
" style="fill: none; stroke: #000000; stroke-width: 0.8; stroke-linejoin: miter; stroke-linecap: square"/>
   </g>
   <g id="patch_6">
    <path d="M 10.8 10.8 
L 133.2 10.8 
" style="fill: none; stroke: #000000; stroke-width: 0.8; stroke-linejoin: miter; stroke-linecap: square"/>
   </g>
  </g>
 </g>
 <defs>
  <clipPath id="p827b4a6c3e">
   <rect x="10.8" y="10.8" width="122.4" height="122.4"/>
  </clipPath>
 </defs>
</svg>
