<?xml version="1.0" encoding="utf-8" standalone="no"?>
<!DOCTYPE svg PUBLIC "-//W3C//DTD SVG 1.1//EN"
  "http://www.w3.org/Graphics/SVG/1.1/DTD/svg11.dtd">
<svg xmlns:xlink="http://www.w3.org/1999/xlink" width="144pt" height="144pt" viewBox="0 0 144 144" xmlns="http://www.w3.org/2000/svg" version="1.1">
 <metadata>
  <rdf:RDF xmlns:dc="http://purl.org/dc/elements/1.1/" xmlns:cc="http://creativecommons.org/ns#" xmlns:rdf="http://www.w3.org/1999/02/22-rdf-syntax-ns#">
   <cc:Work>
    <dc:type rdf:resource="http://purl.org/dc/dcmitype/StillImage"/>
    <dc:date>2025-02-07T11:27:54.695887</dc:date>
    <dc:format>image/svg+xml</dc:format>
    <dc:creator>
     <cc:Agent>
      <dc:title>Matplotlib v3.8.0, https://matplotlib.org/</dc:title>
     </cc:Agent>
    </dc:creator>
   </cc:Work>
  </rdf:RDF>
 </metadata>
 <defs>
  <style type="text/css">*{stroke-linejoin: round; stroke-linecap: butt}</style>
 </defs>
 <g id="figure_1">
  <g id="patch_1">
   <path d="M 0 144 
L 144 144 
L 144 0 
L 0 0 
L 0 144 
z
" style="fill: none"/>
  </g>
  <g id="axes_1">
   <g id="patch_2">
    <path d="M 10.8 133.2 
L 133.2 133.2 
L 133.2 10.8 
L 10.8 10.8 
L 10.8 133.2 
z
" style="fill: none"/>
   </g>
   <g id="matplotlib.axis_1"/>
   <g id="matplotlib.axis_2"/>
   <g id="line2d_1">
    <path d="M 16.363636 75.443331 
L 17.070302 75.427876 
L 17.124661 75.568143 
L 17.17902 75.450198 
L 17.287738 75.258219 
L 17.342097 75.314281 
L 17.72261 75.59199 
L 17.776969 75.228647 
L 17.831327 75.571528 
L 18.048763 75.506175 
L 18.103122 75.663434 
L 18.266199 75.262957 
L 18.374917 75.6385 
L 18.429276 75.267611 
L 18.483635 75.377679 
L 18.592352 75.609501 
L 18.70107 75.219689 
L 18.755429 75.524859 
L 18.809788 75.48565 
L 18.864147 75.266668 
L 18.972865 75.607094 
L 19.027224 75.234958 
L 19.081583 75.292095 
L 19.190301 75.597808 
L 19.24466 75.519281 
L 19.353377 75.189555 
L 19.407736 75.22498 
L 19.462095 75.157015 
L 19.516454 75.386232 
L 19.570813 75.181675 
L 19.625172 75.081004 
L 19.73389 75.494976 
L 19.788249 75.253638 
L 19.842608 76.093584 
L 19.896967 75.556843 
L 19.951326 75.744218 
L 20.005685 75.210203 
L 20.060044 75.666981 
L 20.114402 76.19652 
L 20.22312 75.403094 
L 20.331838 75.861237 
L 20.386197 75.05283 
L 20.440556 75.337535 
L 20.494915 75.797977 
L 20.549274 75.023972 
L 20.603633 75.085214 
L 20.76671 75.821002 
L 20.821069 75.961188 
L 20.875427 74.844716 
L 20.929786 75.675868 
L 20.984145 76.097706 
L 21.147222 75.390572 
L 21.201581 75.677123 
L 21.25594 74.711426 
L 21.310299 76.295361 
L 21.364658 75.827758 
L 21.419017 75.368226 
L 21.473376 76.447814 
L 21.527735 75.615333 
L 21.582094 75.740657 
L 21.74517 75.250862 
L 21.908247 76.093372 
L 22.071324 74.848513 
L 22.125683 75.699299 
L 22.180042 75.199586 
L 22.234401 75.200818 
L 22.28876 74.745143 
L 22.343119 75.07192 
L 22.397477 76.025696 
L 22.451836 75.956853 
L 22.506195 75.941258 
L 22.560554 75.494539 
L 22.614913 75.63259 
L 22.669272 75.675629 
L 22.723631 74.991955 
L 22.77799 75.704241 
L 22.832349 75.695448 
L 22.941067 74.530941 
L 23.104144 75.571273 
L 23.158502 75.495885 
L 23.212861 74.933388 
L 23.26722 75.819766 
L 23.321579 75.224682 
L 23.430297 75.688887 
L 23.539015 74.177086 
L 23.593374 76.12573 
L 23.647733 75.744847 
L 23.756451 74.965271 
L 23.81081 75.754388 
L 23.865169 74.634071 
L 23.919527 75.671073 
L 24.028245 76.6431 
L 24.136963 74.941975 
L 24.191322 75.781176 
L 24.463117 74.613864 
L 24.626194 76.151767 
L 24.734911 74.910221 
L 24.78927 75.160576 
L 24.843629 75.606885 
L 24.897988 74.154461 
L 25.006706 76.060447 
L 25.061065 75.991607 
L 25.115424 74.200276 
L 25.169783 74.682619 
L 25.224142 76.018189 
L 25.278501 75.28462 
L 25.33286 74.478772 
L 25.550295 76.499388 
L 25.659013 75.256126 
L 25.713372 76.760228 
L 25.767731 76.037522 
L 25.82209 75.266798 
L 25.876449 75.903756 
L 25.930808 78.677283 
L 25.985167 76.292508 
L 26.093885 75.213457 
L 26.148244 76.484095 
L 26.202602 76.433537 
L 26.256961 74.883915 
L 26.31132 75.977853 
L 26.420038 75.64481 
L 26.528756 76.314248 
L 26.637474 74.45857 
L 26.691833 75.325857 
L 26.746192 74.139726 
L 26.800551 75.258507 
L 26.85491 76.732328 
L 26.909269 75.461809 
L 26.963627 73.909511 
L 27.017986 75.413473 
L 27.072345 75.33243 
L 27.181063 74.076681 
L 27.34414 76.594107 
L 27.398499 76.497922 
L 27.452858 74.376447 
L 27.507217 78.169653 
L 27.561576 75.981445 
L 27.615935 73.773009 
L 27.724652 73.792471 
L 27.779011 76.356496 
L 27.83337 74.984099 
L 27.887729 74.693858 
L 27.942088 75.683539 
L 28.050806 74.517021 
L 28.213883 76.211833 
L 28.37696 73.634577 
L 28.431319 76.323304 
L 28.485677 75.626611 
L 28.540036 75.482826 
L 28.594395 74.263809 
L 28.648754 75.221915 
L 28.703113 77.359747 
L 28.757472 75.83879 
L 28.811831 74.943828 
L 28.974908 77.094095 
L 29.029267 74.954836 
L 29.083626 77.253918 
L 29.137985 74.603697 
L 29.192344 74.723132 
L 29.246702 76.607916 
L 29.301061 73.742995 
L 29.35542 76.367175 
L 29.409779 74.890421 
L 29.464138 76.279357 
L 29.518497 76.168904 
L 29.572856 72.842401 
L 29.627215 76.901704 
L 29.681574 76.086932 
L 29.735933 76.047114 
L 29.790292 73.745998 
L 29.844651 75.927898 
L 29.89901 76.008489 
L 30.062086 72.916213 
L 30.170804 77.243087 
L 30.225163 76.609762 
L 30.279522 74.91581 
L 30.333881 76.203606 
L 30.38824 77.371483 
L 30.551317 72.783508 
L 30.605676 77.460936 
L 30.660035 74.737124 
L 30.714394 73.156984 
L 30.768752 74.369138 
L 30.87747 76.145924 
L 30.986188 73.296687 
L 31.149265 78.207774 
L 31.312342 75.548244 
L 31.366701 74.163613 
L 31.42106 75.046007 
L 31.584136 76.506434 
L 31.638495 74.736397 
L 31.692854 75.516993 
L 31.747213 75.270745 
L 31.801572 72.609166 
L 31.964649 77.115096 
L 32.073367 72.130488 
L 32.236444 76.622141 
L 32.290803 71.300055 
L 32.345161 71.561448 
L 32.453879 76.373373 
L 32.508238 76.263579 
L 32.562597 75.270509 
L 32.616956 76.351087 
L 32.671315 74.084326 
L 32.725674 75.403126 
L 32.834392 74.082449 
L 32.997469 77.824955 
L 33.106186 73.935953 
L 33.160545 75.64667 
L 33.214904 74.019942 
L 33.269263 75.575902 
L 33.377981 71.863667 
L 33.43234 77.86186 
L 33.486699 76.975424 
L 33.649776 72.931744 
L 33.758494 78.670419 
L 33.812853 77.966838 
L 33.92157 72.855543 
L 34.030288 78.940415 
L 34.193365 72.329652 
L 34.247724 78.699052 
L 34.302083 72.808633 
L 34.356442 75.058374 
L 34.410801 70.449024 
L 34.46516 73.72068 
L 34.519519 72.920737 
L 34.628236 78.842143 
L 34.682595 77.928555 
L 34.791313 73.156237 
L 34.845672 73.358469 
L 34.900031 74.135268 
L 35.063108 77.593662 
L 35.117467 75.643473 
L 35.171826 75.980255 
L 35.226185 76.286584 
L 35.280544 75.686988 
L 35.334903 78.046727 
L 35.389261 77.019201 
L 35.44362 74.014161 
L 35.497979 76.132259 
L 35.552338 75.222314 
L 35.606697 76.862935 
L 35.715415 71.488046 
L 35.878492 77.526505 
L 35.932851 77.495985 
L 35.98721 78.356107 
L 36.095928 73.093006 
L 36.150286 78.325374 
L 36.204645 75.836405 
L 36.259004 77.975548 
L 36.313363 76.088329 
L 36.367722 74.170267 
L 36.422081 77.548765 
L 36.47644 74.031817 
L 36.585158 75.192736 
L 36.639517 74.077708 
L 36.693876 78.400475 
L 36.748235 76.29191 
L 36.856953 75.185531 
L 36.911311 76.176733 
L 36.96567 79.69925 
L 37.020029 77.153186 
L 37.128747 74.91311 
L 37.237465 78.127818 
L 37.346183 71.441484 
L 37.454901 76.434876 
L 37.617978 72.812673 
L 37.672336 77.111085 
L 37.726695 75.844018 
L 37.781054 71.958235 
L 37.835413 72.436257 
L 37.889772 77.803435 
L 37.944131 77.031025 
L 38.052849 73.527166 
L 38.107208 76.700239 
L 38.161567 72.827012 
L 38.215926 77.71302 
L 38.270285 77.523166 
L 38.324644 74.328401 
L 38.379003 79.859072 
L 38.48772 79.815074 
L 38.542079 71.327209 
L 38.596438 73.643609 
L 38.650797 74.565732 
L 38.705156 78.944684 
L 38.868233 73.704216 
L 39.03131 80.124876 
L 39.248745 76.639988 
L 39.303104 76.875465 
L 39.357463 71.942206 
L 39.411822 77.907707 
L 39.466181 74.101084 
L 39.683617 76.876582 
L 39.737976 73.661368 
L 39.792335 74.797684 
L 39.846694 79.949938 
L 39.901053 75.645659 
L 40.00977 73.479236 
L 40.064129 79.794743 
L 40.118488 73.776414 
L 40.172847 74.131939 
L 40.227206 79.27972 
L 40.281565 79.192849 
L 40.335924 72.121638 
L 40.390283 76.359743 
L 40.444642 76.955389 
L 40.499001 75.417645 
L 40.55336 80.128618 
L 40.607719 72.671533 
L 40.662078 74.618062 
L 40.716436 79.736114 
L 40.770795 71.489575 
L 40.825154 76.093851 
L 40.988231 84.375571 
L 41.096949 73.428167 
L 41.151308 73.883294 
L 41.205667 73.567199 
L 41.260026 84.268329 
L 41.314385 79.76211 
L 41.423103 71.530636 
L 41.586179 78.313396 
L 41.694897 71.296696 
L 41.857974 78.970155 
L 41.966692 66.809048 
L 42.129769 79.251772 
L 42.292845 72.638757 
L 42.401563 72.622614 
L 42.455922 79.230594 
L 42.56464 73.024343 
L 42.618999 77.737321 
L 42.673358 70.104133 
L 42.727717 74.916101 
L 42.782076 80.246203 
L 42.836435 76.463779 
L 42.945153 74.824925 
L 42.999511 85.42153 
L 43.05387 74.08323 
L 43.108229 75.893971 
L 43.216947 83.234209 
L 43.271306 82.059256 
L 43.325665 77.201779 
L 43.434383 77.219961 
L 43.488742 74.299053 
L 43.543101 81.817115 
L 43.59746 76.154793 
L 43.651819 70.391381 
L 43.706178 75.821695 
L 43.814895 70.45124 
L 43.923613 79.395339 
L 44.032331 72.335851 
L 44.08669 79.707083 
L 44.141049 78.919405 
L 44.304126 71.045232 
L 44.412844 79.099041 
L 44.467203 78.918152 
L 44.521561 71.647147 
L 44.57592 78.394926 
L 44.738997 71.041583 
L 44.847715 80.772637 
L 44.902074 75.502362 
L 45.065151 83.13901 
L 45.228228 73.806633 
L 45.282586 74.024802 
L 45.336945 70.41624 
L 45.391304 76.68423 
L 45.445663 74.8071 
L 45.500022 74.13418 
L 45.554381 74.868725 
L 45.60874 73.936308 
L 45.663099 80.210085 
L 45.717458 78.487551 
L 45.771817 66.544366 
L 45.826176 71.089308 
L 45.934894 79.010546 
L 46.09797 71.211941 
L 46.152329 71.239932 
L 46.206688 80.971542 
L 46.261047 68.40782 
L 46.315406 69.908581 
L 46.369765 80.740702 
L 46.424124 77.311093 
L 46.478483 76.245575 
L 46.532842 79.296724 
L 46.587201 76.209019 
L 46.64156 76.224926 
L 46.695919 79.206418 
L 46.750278 74.013495 
L 46.804636 78.758373 
L 46.858995 79.188929 
L 46.913354 78.269333 
L 47.022072 80.47982 
L 47.185149 70.298099 
L 47.293867 77.357467 
L 47.348226 76.976877 
L 47.402585 74.687077 
L 47.456944 81.436179 
L 47.511303 77.627208 
L 47.565662 77.631055 
L 47.62002 72.689502 
L 47.674379 74.567162 
L 47.728738 73.520604 
L 47.837456 77.418808 
L 47.891815 64.868954 
L 47.946174 77.917527 
L 48.000533 78.785868 
L 48.054892 76.865188 
L 48.109251 80.675333 
L 48.272328 72.598537 
L 48.326687 85.311131 
L 48.381045 83.464358 
L 48.489763 75.71301 
L 48.544122 80.018254 
L 48.598481 78.73317 
L 48.65284 74.480149 
L 48.707199 74.962202 
L 48.870276 81.547895 
L 48.924635 68.742877 
L 48.978994 75.723734 
L 49.033353 82.644236 
L 49.196429 69.148099 
L 49.359506 85.173044 
L 49.522583 76.039579 
L 49.576942 81.780316 
L 49.740019 62.672842 
L 49.903095 79.363185 
L 49.957454 82.793095 
L 50.120531 72.595515 
L 50.17489 82.634158 
L 50.229249 64.073201 
L 50.283608 73.222198 
L 50.337967 70.216066 
L 50.501044 78.744222 
L 50.609762 75.749304 
L 50.66412 75.980401 
L 50.718479 76.50877 
L 50.772838 73.419148 
L 50.827197 79.488007 
L 50.935915 69.906968 
L 51.098992 83.935959 
L 51.20771 80.534344 
L 51.262069 79.977927 
L 51.316428 84.872782 
L 51.425145 72.703602 
L 51.479504 80.571781 
L 51.533863 72.726611 
L 51.588222 74.433923 
L 51.642581 71.066407 
L 51.751299 81.252137 
L 51.914376 68.712775 
L 51.968735 84.227603 
L 52.023094 75.682253 
L 52.077453 69.917015 
L 52.18617 90.469726 
L 52.240529 71.210767 
L 52.294888 78.488255 
L 52.349247 75.479683 
L 52.457965 92.585404 
L 52.512324 81.271373 
L 52.675401 68.80632 
L 52.784119 78.095545 
L 52.838478 78.033791 
L 52.947195 65.82033 
L 53.055913 83.189106 
L 53.110272 68.906453 
L 53.164631 73.168799 
L 53.21899 77.685076 
L 53.273349 65.973848 
L 53.327708 79.210895 
L 53.382067 76.720149 
L 53.436426 71.068489 
L 53.490785 82.332962 
L 53.545144 71.342645 
L 53.599503 73.715323 
L 53.653862 80.960548 
L 53.70822 71.736967 
L 53.762579 78.167783 
L 53.816938 83.113113 
L 53.871297 69.094326 
L 53.925656 81.530531 
L 53.980015 78.719134 
L 54.034374 64.580068 
L 54.088733 71.447232 
L 54.143092 73.236719 
L 54.197451 72.671179 
L 54.25181 80.486911 
L 54.306169 75.325736 
L 54.360528 70.675538 
L 54.414887 80.405262 
L 54.469245 72.377216 
L 54.523604 75.91681 
L 54.577963 71.756413 
L 54.632322 73.001611 
L 54.686681 73.555918 
L 54.74104 68.003645 
L 54.795399 71.855836 
L 54.849758 69.012097 
L 54.904117 80.67531 
L 54.958476 67.999843 
L 55.067194 84.749815 
L 55.121553 68.675931 
L 55.175912 76.474003 
L 55.23027 74.933774 
L 55.284629 82.113227 
L 55.338988 77.914031 
L 55.502065 71.328321 
L 55.610783 75.694622 
L 55.665142 65.205122 
L 55.719501 87.213382 
L 55.77386 76.186375 
L 55.828219 76.331038 
L 55.882578 75.565301 
L 55.936937 67.258965 
L 55.991295 79.402339 
L 56.045654 73.668438 
L 56.154372 78.506285 
L 56.317449 69.330548 
L 56.371808 76.741646 
L 56.426167 70.454034 
L 56.480526 75.042283 
L 56.589244 67.69593 
L 56.697962 75.085575 
L 56.75232 69.564295 
L 56.806679 74.128112 
L 56.861038 75.979475 
L 56.915397 81.840593 
L 56.969756 71.162928 
L 57.024115 77.244294 
L 57.078474 73.742374 
L 57.132833 76.087333 
L 57.187192 80.306854 
L 57.241551 67.400388 
L 57.29591 73.991223 
L 57.350269 83.312788 
L 57.404628 77.996365 
L 57.458987 79.527381 
L 57.513345 69.178341 
L 57.567704 79.932564 
L 57.730781 68.285035 
L 57.839499 82.569277 
L 57.893858 74.74826 
L 58.002576 79.374671 
L 58.056935 75.786494 
L 58.111294 61.342555 
L 58.165653 75.931452 
L 58.220012 87.768931 
L 58.27437 73.150327 
L 58.328729 73.745309 
L 58.383088 87.737393 
L 58.437447 69.414279 
L 58.491806 73.224693 
L 58.600524 80.360878 
L 58.709242 66.162629 
L 58.763601 68.989341 
L 58.81796 69.946453 
L 58.872319 78.484691 
L 58.926678 76.025543 
L 58.981037 70.461494 
L 59.035395 75.012719 
L 59.089754 75.127658 
L 59.144113 71.994652 
L 59.198472 78.151122 
L 59.252831 76.331802 
L 59.30719 65.784308 
L 59.361549 71.815659 
L 59.415908 68.132284 
L 59.470267 71.660565 
L 59.633344 86.701895 
L 59.850779 71.51066 
L 59.905138 72.663832 
L 59.959497 67.253515 
L 60.013856 80.009402 
L 60.068215 64.531434 
L 60.122574 81.938939 
L 60.176933 77.952074 
L 60.231292 76.11175 
L 60.394369 85.479776 
L 60.448728 85.332536 
L 60.557445 75.280986 
L 60.611804 88.362263 
L 60.774881 55.80493 
L 60.937958 86.467717 
L 60.992317 74.923206 
L 61.046676 67.955672 
L 61.101035 73.362497 
L 61.209753 71.420147 
L 61.31847 78.722402 
L 61.372829 75.128148 
L 61.427188 80.510522 
L 61.481547 76.261271 
L 61.590265 62.291907 
L 61.644624 67.377692 
L 61.698983 68.021275 
L 61.86206 88.807664 
L 61.970778 68.961464 
L 62.079495 87.413552 
L 62.133854 81.103788 
L 62.188213 75.465831 
L 62.242572 82.785691 
L 62.296931 65.663698 
L 62.35129 79.391717 
L 62.405649 71.791336 
L 62.460008 83.4848 
L 62.514367 80.130804 
L 62.623085 73.88131 
L 62.731803 78.990984 
L 62.84052 73.294862 
L 62.894879 80.735928 
L 63.003597 64.596515 
L 63.112315 82.544147 
L 63.166674 80.186912 
L 63.275392 73.945737 
L 63.329751 84.833172 
L 63.38411 56.569645 
L 63.438469 69.599232 
L 63.492828 79.976892 
L 63.547187 75.62332 
L 63.601545 64.589041 
L 63.710263 79.083802 
L 63.764622 78.596929 
L 63.927699 74.930259 
L 63.982058 76.772989 
L 64.036417 63.644302 
L 64.090776 73.008411 
L 64.145135 65.62409 
L 64.199494 76.075506 
L 64.253853 71.090856 
L 64.308212 69.26479 
L 64.416929 75.100273 
L 64.471288 67.366404 
L 64.525647 73.518171 
L 64.634365 69.013365 
L 64.688724 86.576398 
L 64.743083 67.524468 
L 64.797442 84.010871 
L 64.960519 75.769964 
L 65.014878 89.669771 
L 65.069237 78.292674 
L 65.123596 68.340529 
L 65.177954 77.615782 
L 65.286672 82.09365 
L 65.341031 62.963239 
L 65.39539 96.566437 
L 65.449749 72.500692 
L 65.558467 64.709083 
L 65.612826 83.948076 
L 65.667185 83.081347 
L 65.775903 62.059284 
L 65.830262 77.083247 
L 65.884621 74.517264 
L 65.938979 73.665552 
L 65.993338 73.92892 
L 66.156415 61.335044 
L 66.210774 77.879921 
L 66.265133 58.011612 
L 66.319492 84.248306 
L 66.373851 70.509036 
L 66.482569 86.407923 
L 66.591287 70.147959 
L 66.645646 86.254935 
L 66.700004 70.819025 
L 66.754363 69.303761 
L 66.808722 74.977896 
L 66.863081 66.844633 
L 66.91744 74.382551 
L 67.026158 84.607669 
L 67.080517 80.029319 
L 67.134876 79.680952 
L 67.297953 54.678272 
L 67.352312 78.853055 
L 67.406671 65.817432 
L 67.515388 75.754375 
L 67.569747 72.404983 
L 67.624106 73.724156 
L 67.678465 79.526306 
L 67.732824 76.852625 
L 67.787183 67.007869 
L 67.841542 69.367963 
L 67.895901 74.470139 
L 67.95026 58.789684 
L 68.004619 81.323043 
L 68.058978 73.300177 
L 68.113337 76.674492 
L 68.167696 61.73845 
L 68.330772 82.308106 
L 68.43949 61.115158 
L 68.493849 73.30928 
L 68.548208 67.959595 
L 68.602567 89.140354 
L 68.656926 63.689289 
L 68.711285 67.779049 
L 68.765644 75.593053 
L 68.820003 57.510092 
L 68.983079 83.523555 
L 69.037438 80.74385 
L 69.091797 71.92884 
L 69.146156 72.597546 
L 69.309233 89.425969 
L 69.526669 65.912865 
L 69.635387 72.534754 
L 69.689746 69.166166 
L 69.852822 79.433811 
L 69.907181 79.617507 
L 69.96154 94.891787 
L 70.015899 89.022787 
L 70.070258 73.93616 
L 70.124617 82.284463 
L 70.396412 74.735312 
L 70.450771 75.198339 
L 70.505129 63.306976 
L 70.668206 78.727405 
L 70.722565 81.316726 
L 70.831283 64.530453 
L 70.885642 95.185217 
L 70.940001 80.459569 
L 70.99436 82.485592 
L 71.048719 49.120438 
L 71.103078 81.276499 
L 71.157437 71.51079 
L 71.211796 76.884713 
L 71.266154 85.001258 
L 71.374872 65.422897 
L 71.537949 79.065258 
L 71.701026 56.667567 
L 71.755385 83.721892 
L 71.809744 82.237015 
L 71.864103 67.862293 
L 72.027179 92.940799 
L 72.135897 65.034343 
L 72.190256 69.548214 
L 72.353333 78.186915 
L 72.407692 58.794836 
L 72.462051 80.974022 
L 72.51641 73.394319 
L 72.679487 79.37924 
L 72.788204 64.211338 
L 72.842563 78.770998 
L 72.896922 61.671561 
L 72.951281 79.531728 
L 73.00564 75.308645 
L 73.059999 68.033488 
L 73.114358 74.436757 
L 73.168717 86.794621 
L 73.223076 83.968175 
L 73.331794 61.25911 
L 73.440512 83.976858 
L 73.494871 72.700335 
L 73.549229 79.510178 
L 73.603588 78.335502 
L 73.657947 83.52194 
L 73.712306 82.56144 
L 73.929742 69.474585 
L 73.984101 80.255698 
L 74.03846 73.855579 
L 74.092819 76.795329 
L 74.147178 89.570007 
L 74.310254 63.743221 
L 74.582049 85.715506 
L 74.636408 85.152269 
L 74.690767 63.211162 
L 74.745126 66.32551 
L 74.853844 75.178914 
L 74.908203 56.557553 
L 74.962562 71.139565 
L 75.016921 82.887206 
L 75.179997 64.905322 
L 75.234356 58.446695 
L 75.343074 85.033073 
L 75.397433 83.537862 
L 75.451792 71.342907 
L 75.506151 80.135889 
L 75.669228 62.521093 
L 75.723587 71.659074 
L 75.777946 68.237253 
L 75.832304 63.7061 
L 75.886663 75.188841 
L 75.941022 62.751327 
L 76.04974 78.717565 
L 76.158458 70.622211 
L 76.212817 79.226927 
L 76.267176 71.881857 
L 76.321535 78.473361 
L 76.375894 74.304127 
L 76.430253 71.463235 
L 76.484612 87.759037 
L 76.538971 79.932107 
L 76.593329 64.965621 
L 76.647688 83.132115 
L 76.702047 70.877384 
L 76.756406 74.727935 
L 76.865124 60.182272 
L 76.919483 85.675088 
L 76.973842 79.302929 
L 77.08256 69.500364 
L 77.136919 86.302461 
L 77.191278 61.279305 
L 77.245637 69.040385 
L 77.408713 77.008348 
L 77.463072 76.300544 
L 77.57179 69.056439 
L 77.626149 76.550473 
L 77.680508 69.752128 
L 77.734867 55.214034 
L 77.789226 61.824543 
L 77.897944 84.292055 
L 77.952303 69.701231 
L 78.006662 94.257031 
L 78.061021 84.474185 
L 78.169738 67.261585 
L 78.224097 86.15562 
L 78.278456 67.058822 
L 78.332815 63.808413 
L 78.495892 82.712833 
L 78.60461 85.114755 
L 78.658969 83.939948 
L 78.713328 78.221923 
L 78.767687 95.229433 
L 78.822046 89.708742 
L 78.876404 69.884452 
L 78.930763 93.0008 
L 78.985122 79.230581 
L 79.039481 79.512587 
L 79.148199 102.041621 
L 79.311276 71.11241 
L 79.474353 82.901465 
L 79.528712 71.748563 
L 79.583071 88.990012 
L 79.637429 78.771814 
L 79.691788 58.064297 
L 79.854865 97.513431 
L 79.909224 65.073913 
L 79.963583 71.085876 
L 80.017942 88.80056 
L 80.072301 76.40283 
L 80.12666 62.343243 
L 80.181019 111.46525 
L 80.235378 66.751845 
L 80.289737 60.053459 
L 80.344096 90.363785 
L 80.398455 66.151463 
L 80.452813 76.791417 
L 80.507172 54.518936 
L 80.561531 55.484039 
L 80.724608 94.50706 
L 80.887685 57.007545 
L 81.050762 91.416711 
L 81.105121 90.935281 
L 81.15948 66.028506 
L 81.213838 70.800788 
L 81.268197 71.786383 
L 81.322556 59.723907 
L 81.376915 65.664751 
L 81.539992 86.075284 
L 81.594351 84.576856 
L 81.64871 86.096517 
L 81.811787 58.792735 
L 81.866146 62.23155 
L 81.974863 61.647777 
L 82.029222 85.556322 
L 82.083581 94.106631 
L 82.13794 87.858117 
L 82.355376 68.168548 
L 82.409735 73.134129 
L 82.518453 92.851124 
L 82.627171 70.754823 
L 82.68153 81.383684 
L 82.735888 79.05974 
L 82.790247 68.090709 
L 82.844606 72.108394 
L 82.898965 72.876534 
L 82.953324 71.068668 
L 83.062042 104.289958 
L 83.17076 74.731857 
L 83.225119 75.698263 
L 83.279478 75.405766 
L 83.388196 45.749388 
L 83.551272 85.527543 
L 83.605631 57.776597 
L 83.65999 93.391043 
L 83.714349 62.538283 
L 83.768708 77.254563 
L 83.823067 75.634376 
L 83.877426 74.5408 
L 83.931785 61.487732 
L 84.040503 92.299683 
L 84.094862 90.54315 
L 84.149221 88.177335 
L 84.257938 66.209284 
L 84.312297 79.728323 
L 84.366656 70.893939 
L 84.421015 57.60541 
L 84.475374 67.460702 
L 84.638451 87.869664 
L 84.747169 65.819353 
L 84.855887 67.849947 
L 84.910246 105.198951 
L 84.964605 87.693148 
L 85.018963 75.780823 
L 85.073322 99.793676 
L 85.127681 58.841466 
L 85.18204 68.646439 
L 85.290758 79.314145 
L 85.453835 68.999784 
L 85.508194 93.490789 
L 85.562553 69.852789 
L 85.616912 67.438115 
L 85.72563 101.199623 
L 85.779988 90.805575 
L 85.834347 64.01144 
L 85.888706 89.912598 
L 85.943065 78.749899 
L 85.997424 79.888839 
L 86.051783 104.574856 
L 86.106142 79.438965 
L 86.160501 82.323815 
L 86.21486 60.698479 
L 86.269219 72.236841 
L 86.323578 76.760771 
L 86.377937 76.137316 
L 86.432296 63.029764 
L 86.541013 96.212489 
L 86.595372 84.743308 
L 86.70409 47.683998 
L 86.758449 81.468103 
L 86.812808 80.291629 
L 86.921526 51.74636 
L 86.975885 109.074676 
L 87.030244 91.167041 
L 87.084603 55.930901 
L 87.138962 71.401485 
L 87.193321 81.886022 
L 87.24768 58.41628 
L 87.302038 70.835469 
L 87.356397 97.173891 
L 87.410756 73.573356 
L 87.465115 54.791332 
L 87.519474 64.831945 
L 87.628192 86.569858 
L 87.682551 73.785 
L 87.73691 77.508032 
L 87.791269 97.743992 
L 87.845628 72.425082 
L 87.899987 77.394535 
L 87.954346 80.469307 
L 88.008705 46.129129 
L 88.063063 73.682126 
L 88.117422 81.826298 
L 88.22614 61.473341 
L 88.280499 96.294998 
L 88.334858 90.678753 
L 88.389217 53.864227 
L 88.443576 63.767875 
L 88.497935 65.182477 
L 88.552294 59.759946 
L 88.606653 112.663494 
L 88.661012 89.244324 
L 88.715371 96.578398 
L 88.824088 62.428969 
L 88.878447 88.495691 
L 88.987165 87.799716 
L 89.041524 76.631555 
L 89.095883 88.544279 
L 89.204601 61.550614 
L 89.25896 74.269658 
L 89.313319 56.452083 
L 89.367678 73.88337 
L 89.422037 75.662767 
L 89.476396 89.010885 
L 89.530755 87.521218 
L 89.585113 85.212355 
L 89.639472 74.795481 
L 89.693831 80.73275 
L 89.74819 89.446301 
L 89.802549 59.200849 
L 89.856908 72.015549 
L 90.074344 51.787641 
L 90.128703 82.52947 
L 90.183062 77.844179 
L 90.237421 79.432297 
L 90.29178 77.914198 
L 90.454856 73.120495 
L 90.509215 88.352334 
L 90.563574 66.675692 
L 90.617933 91.300049 
L 90.672292 84.891302 
L 90.726651 68.587167 
L 90.78101 77.695118 
L 90.889728 71.068831 
L 91.052805 87.239685 
L 91.161522 60.875941 
L 91.215881 83.554045 
L 91.27024 68.993427 
L 91.378958 87.312184 
L 91.542035 64.734865 
L 91.596394 61.879592 
L 91.705112 96.456287 
L 91.759471 66.413265 
L 91.81383 96.687079 
L 91.922547 67.364233 
L 91.976906 87.080756 
L 92.031265 73.907738 
L 92.194342 89.839867 
L 92.30306 63.939767 
L 92.411778 63.981349 
L 92.466137 81.175067 
L 92.520496 76.798438 
L 92.574855 60.065279 
L 92.629213 87.480832 
L 92.683572 71.075614 
L 92.846649 41.389224 
L 92.901008 101.10173 
L 92.955367 72.20362 
L 93.009726 74.113108 
L 93.064085 72.978584 
L 93.118444 89.154475 
L 93.172803 79.721742 
L 93.227162 87.25689 
L 93.33588 78.130084 
L 93.390238 88.113593 
L 93.444597 68.527866 
L 93.498956 113.384114 
L 93.553315 82.584136 
L 93.607674 85.687581 
L 93.662033 99.249311 
L 93.770751 65.54001 
L 93.82511 82.469385 
L 93.879469 53.630514 
L 93.933828 89.560746 
L 93.988187 69.450213 
L 94.042546 55.39427 
L 94.096905 93.116892 
L 94.151263 54.304194 
L 94.205622 57.129219 
L 94.368699 90.525141 
L 94.477417 75.964109 
L 94.531776 78.701461 
L 94.586135 82.433265 
L 94.640494 79.47567 
L 94.694853 65.724434 
L 94.749212 86.806971 
L 94.803571 71.367186 
L 94.85793 76.73334 
L 94.912288 61.299794 
L 95.021006 94.239487 
L 95.075365 56.91174 
L 95.129724 78.218769 
L 95.238442 27.96977 
L 95.292801 82.296633 
L 95.34716 73.949563 
L 95.401519 72.676314 
L 95.455878 77.260467 
L 95.510237 63.472567 
L 95.564596 93.180794 
L 95.618955 87.816201 
L 95.673313 81.582058 
L 95.727672 100.412683 
L 95.782031 56.689829 
L 95.83639 66.688654 
L 95.890749 64.669046 
L 95.945108 82.104082 
L 95.999467 75.1769 
L 96.053826 72.14461 
L 96.216903 78.067668 
L 96.271262 60.361467 
L 96.325621 83.783723 
L 96.37998 75.16727 
L 96.543056 61.405393 
L 96.651774 76.024169 
L 96.706133 56.48113 
L 96.760492 72.437153 
L 96.814851 74.077178 
L 96.86921 54.704882 
L 96.977928 97.527642 
L 97.032287 84.487498 
L 97.086646 76.577944 
L 97.141005 88.957631 
L 97.195364 70.084187 
L 97.249722 80.629586 
L 97.304081 105.296966 
L 97.35844 87.990647 
L 97.521517 58.782083 
L 97.575876 69.339716 
L 97.630235 65.734908 
L 97.684594 60.718492 
L 97.738953 104.027765 
L 97.793312 65.433418 
L 97.90203 91.106716 
L 98.065106 62.921619 
L 98.119465 92.292823 
L 98.173824 79.844543 
L 98.228183 68.974245 
L 98.336901 92.591643 
L 98.39126 70.243132 
L 98.445619 78.66435 
L 98.499978 81.843709 
L 98.554337 75.947117 
L 98.663055 97.092598 
L 98.771772 56.75314 
L 98.826131 63.485955 
L 98.88049 66.760392 
L 98.934849 77.070279 
L 98.989208 76.322622 
L 99.043567 72.272173 
L 99.097926 77.200581 
L 99.152285 98.440619 
L 99.206644 76.611311 
L 99.315362 69.321034 
L 99.369721 83.397238 
L 99.42408 68.837725 
L 99.478439 57.934185 
L 99.587156 89.299917 
L 99.750233 55.129265 
L 99.804592 80.743677 
L 99.858951 79.341341 
L 99.91331 63.12465 
L 99.967669 87.339968 
L 100.022028 75.542354 
L 100.076387 48.414202 
L 100.130746 72.742883 
L 100.185105 76.245544 
L 100.239464 66.564271 
L 100.293822 92.919097 
L 100.348181 60.783492 
L 100.40254 75.456797 
L 100.456899 64.777104 
L 100.511258 65.420454 
L 100.619976 97.392464 
L 100.674335 87.674219 
L 100.837412 57.3435 
L 100.891771 89.675567 
L 101.054847 44.660524 
L 101.163565 84.482768 
L 101.217924 68.164677 
L 101.272283 76.152698 
L 101.326642 72.389069 
L 101.43536 88.729805 
L 101.489719 79.40852 
L 101.544078 92.329064 
L 101.598437 79.195827 
L 101.761514 60.638748 
L 101.92459 76.425316 
L 101.978949 46.177472 
L 102.033308 67.070503 
L 102.087667 64.366691 
L 102.142026 66.925464 
L 102.250744 90.393032 
L 102.305103 61.463925 
L 102.359462 73.256574 
L 102.413821 62.949545 
L 102.46818 94.542371 
L 102.522539 66.913111 
L 102.631256 80.266225 
L 102.794333 64.610982 
L 103.011769 80.084164 
L 103.066128 71.185214 
L 103.120487 36.954327 
L 103.174846 65.659804 
L 103.283564 92.259191 
L 103.337922 52.002971 
L 103.392281 65.467068 
L 103.609717 107.147312 
L 103.664076 69.268637 
L 103.718435 110.00956 
L 103.772794 69.963218 
L 103.827153 86.344486 
L 103.935871 57.148291 
L 103.99023 95.097494 
L 104.044589 53.098277 
L 104.098947 59.142419 
L 104.153306 63.858003 
L 104.207665 58.318576 
L 104.262024 78.888057 
L 104.316383 77.275769 
L 104.425101 60.929455 
L 104.588178 99.59269 
L 104.751255 55.078784 
L 104.805614 92.51194 
L 104.859972 54.150638 
L 105.023049 103.214094 
L 105.131767 63.63294 
L 105.186126 65.786629 
L 105.240485 90.733935 
L 105.294844 67.545557 
L 105.349203 59.226038 
L 105.457921 82.86703 
L 105.51228 72.29043 
L 105.566639 37.588815 
L 105.620997 71.398842 
L 105.675356 57.67445 
L 105.729715 58.377229 
L 105.784074 78.725199 
L 105.838433 55.494903 
L 105.892792 99.324284 
L 105.947151 97.61048 
L 106.055869 53.917944 
L 106.164587 81.094267 
L 106.218946 56.320918 
L 106.273305 105.677413 
L 106.327664 78.761572 
L 106.382022 55.048272 
L 106.49074 93.353401 
L 106.545099 54.500001 
L 106.599458 76.332345 
L 106.708176 53.935819 
L 106.762535 59.974535 
L 106.816894 74.309545 
L 106.871253 59.400611 
L 106.925612 65.882818 
L 107.088689 98.018192 
L 107.143047 90.356543 
L 107.306124 49.185693 
L 107.360483 67.492493 
L 107.414842 65.45273 
L 107.469201 56.079649 
L 107.52356 77.374216 
L 107.577919 63.416568 
L 107.632278 74.872356 
L 107.686637 62.570199 
L 107.740996 87.841717 
L 107.795355 82.676146 
L 107.849714 81.468914 
L 107.904072 84.521309 
L 107.958431 61.609865 
L 108.01279 79.839688 
L 108.067149 79.006511 
L 108.121508 82.603382 
L 108.230226 58.806211 
L 108.284585 92.599374 
L 108.338944 66.208958 
L 108.447662 58.013875 
L 108.502021 77.606746 
L 108.55638 66.000642 
L 108.610739 75.459599 
L 108.665097 60.598745 
L 108.719456 66.959547 
L 108.773815 106.986467 
L 108.828174 83.54161 
L 108.882533 67.899 
L 109.04561 92.907184 
L 109.099969 63.177262 
L 109.154328 90.304388 
L 109.317405 56.390651 
L 109.371764 59.156953 
L 109.480481 94.554562 
L 109.53484 80.86415 
L 109.589199 80.001485 
L 109.643558 82.466021 
L 109.752276 68.169855 
L 109.860994 80.163125 
L 109.915353 76.530077 
L 109.969712 81.162227 
L 110.07843 56.106544 
L 110.132789 63.143628 
L 110.187147 88.61302 
L 110.241506 86.65841 
L 110.295865 86.112167 
L 110.404583 48.808627 
L 110.458942 85.798163 
L 110.513301 63.262717 
L 110.622019 63.145668 
L 110.676378 79.391184 
L 110.839455 63.051425 
L 110.948172 71.427487 
L 111.002531 65.352401 
L 111.111249 76.741525 
L 111.219967 61.449964 
L 111.274326 68.342104 
L 111.383044 82.426935 
L 111.546121 53.246912 
L 111.60048 101.370205 
L 111.654839 81.331927 
L 111.709197 50.345152 
L 111.763556 96.139868 
L 111.817915 60.697846 
L 111.872274 75.061747 
L 111.980992 74.971563 
L 112.035351 47.618432 
L 112.08971 109.981157 
L 112.144069 48.548506 
L 112.198428 89.219699 
L 112.252787 71.629425 
L 112.307146 69.694232 
L 112.361505 87.094677 
L 112.415864 84.635475 
L 112.470222 78.63707 
L 112.524581 48.152487 
L 112.57894 56.421121 
L 112.633299 57.099136 
L 112.687658 76.205855 
L 112.742017 37.107687 
L 112.796376 92.471521 
L 112.850735 91.135016 
L 113.013812 58.493887 
L 113.12253 97.396248 
L 113.176889 62.308838 
L 113.231248 92.65286 
L 113.285606 85.890732 
L 113.394324 54.779885 
L 113.448683 60.18043 
L 113.503042 78.340287 
L 113.557401 67.19456 
L 113.61176 57.546202 
L 113.666119 85.022693 
L 113.720478 64.811458 
L 113.774837 77.097638 
L 113.829196 67.707916 
L 113.883555 64.298975 
L 114.046631 88.290086 
L 114.10099 42.018617 
L 114.155349 81.944844 
L 114.209708 95.311833 
L 114.264067 59.112808 
L 114.372785 60.014299 
L 114.427144 81.870712 
L 114.481503 51.537191 
L 114.535862 58.176009 
L 114.590221 101.014692 
L 114.64458 73.815927 
L 114.698939 97.545065 
L 114.753298 97.094904 
L 114.916374 61.826335 
L 115.079451 92.979058 
L 115.13381 95.199152 
L 115.188169 68.781711 
L 115.242528 74.633078 
L 115.351246 63.96081 
L 115.405605 97.930834 
L 115.459964 73.357627 
L 115.514323 96.129401 
L 115.568681 76.317593 
L 115.62304 78.023308 
L 115.677399 94.831374 
L 115.731758 72.659222 
L 115.786117 73.460848 
L 115.894835 95.173683 
L 116.057912 47.446366 
L 116.16663 91.764733 
L 116.220989 75.618599 
L 116.275348 74.394454 
L 116.329706 92.737378 
L 116.384065 58.61452 
L 116.438424 124.206181 
L 116.492783 70.528151 
L 116.547142 73.649484 
L 116.65586 65.340865 
L 116.710219 76.982384 
L 116.764578 44.391575 
L 116.818937 68.332913 
L 116.873296 64.284692 
L 117.090731 103.377669 
L 117.14509 94.730262 
L 117.253808 74.095918 
L 117.362526 101.779481 
L 117.416885 53.02007 
L 117.471244 85.90912 
L 117.525603 67.212131 
L 117.579962 94.619106 
L 117.634321 77.744481 
L 117.68868 54.43979 
L 117.743039 61.500026 
L 117.851756 74.69252 
L 117.960474 41.126947 
L 118.069192 97.663735 
L 118.123551 46.78135 
L 118.17791 74.602064 
L 118.232269 66.898112 
L 118.286628 90.722923 
L 118.340987 80.904512 
L 118.395346 67.768184 
L 118.449705 85.722094 
L 118.504064 49.228344 
L 118.558423 71.940127 
L 118.612781 69.849653 
L 118.66714 72.636901 
L 118.721499 107.687107 
L 118.775858 82.519314 
L 118.830217 96.971815 
L 118.993294 71.126162 
L 119.156371 102.592072 
L 119.265089 63.153281 
L 119.319448 67.518786 
L 119.428165 62.637268 
L 119.536883 98.027474 
L 119.754319 44.812867 
L 119.808678 70.60689 
L 119.863037 32.009262 
L 119.917396 64.228794 
L 119.971755 109.879843 
L 120.080473 37.642723 
L 120.243549 104.452752 
L 120.297908 104.491403 
L 120.406626 54.660695 
L 120.460985 90.785233 
L 120.515344 61.299323 
L 120.569703 66.990097 
L 120.624062 61.840693 
L 120.678421 97.675648 
L 120.73278 83.287332 
L 120.787139 72.013611 
L 120.841498 79.057363 
L 120.895856 100.399543 
L 121.058933 61.493683 
L 121.113292 59.22061 
L 121.22201 100.115661 
L 121.276369 81.006404 
L 121.385087 66.103201 
L 121.439446 95.33236 
L 121.602523 51.625115 
L 121.71124 89.904081 
L 121.765599 31.056472 
L 121.819958 89.855856 
L 122.037394 45.121285 
L 122.200471 87.939891 
L 122.25483 76.316347 
L 122.309189 77.86826 
L 122.363548 90.908016 
L 122.417906 53.428561 
L 122.472265 68.115134 
L 122.526624 90.019311 
L 122.580983 63.333485 
L 122.635342 69.908364 
L 122.689701 82.98351 
L 122.798419 50.842448 
L 122.852778 67.032606 
L 122.907137 61.135923 
L 123.070214 83.191278 
L 123.124573 81.494055 
L 123.178931 70.790152 
L 123.342008 92.6887 
L 123.396367 99.212386 
L 123.505085 59.724774 
L 123.559444 74.30325 
L 123.613803 90.302083 
L 123.668162 73.908568 
L 123.722521 77.62279 
L 123.77688 67.47028 
L 123.831239 79.94142 
L 123.885598 58.643144 
L 123.939956 69.872539 
L 123.994315 107.511219 
L 124.048674 72.519069 
L 124.103033 74.829427 
L 124.211751 88.77091 
L 124.26611 87.415117 
L 124.320469 79.538742 
L 124.374828 43.950194 
L 124.429187 78.155647 
L 124.483546 85.799223 
L 124.592264 45.606974 
L 124.646623 77.983243 
L 124.700981 70.516896 
L 124.75534 72.668298 
L 124.809699 83.27463 
L 124.864058 76.931972 
L 124.918417 66.654762 
L 124.972776 73.465757 
L 125.027135 74.073861 
L 125.190212 40.031895 
L 125.244571 107.624415 
L 125.29893 56.296412 
L 125.462006 90.486576 
L 125.516365 65.4396 
L 125.570724 83.676836 
L 125.679442 50.46052 
L 125.78816 91.342718 
L 125.842519 83.751997 
L 125.896878 60.762121 
L 125.951237 95.150358 
L 126.005596 81.218786 
L 126.114314 46.130044 
L 126.223031 85.335444 
L 126.27739 71.047988 
L 126.331749 73.854302 
L 126.494826 94.421033 
L 126.549185 66.400983 
L 126.603544 72.114228 
L 126.657903 70.229691 
L 126.712262 50.351006 
L 126.766621 81.296025 
L 126.82098 69.170598 
L 126.875339 63.820416 
L 126.929698 95.878554 
L 126.984056 70.032907 
L 127.038415 67.806207 
L 127.092774 10.80376 
L 127.147133 99.799188 
L 127.201492 42.219179 
L 127.255851 49.66857 
L 127.31021 93.791932 
L 127.364569 68.479861 
L 127.473287 78.561392 
L 127.527646 53.115974 
L 127.636364 102.69802 
L 127.636364 102.69802 
" clip-path="url(#p9c9441cc01)" style="fill: none; stroke: #8da0cb; stroke-width: 1.5; stroke-linecap: square"/>
   </g>
   <g id="patch_3">
    <path d="M 10.8 133.2 
L 10.8 10.8 
" style="fill: none; stroke: #000000; stroke-width: 0.8; stroke-linejoin: miter; stroke-linecap: square"/>
   </g>
   <g id="patch_4">
    <path d="M 133.2 133.2 
L 133.2 10.8 
" style="fill: none; stroke: #000000; stroke-width: 0.8; stroke-linejoin: miter; stroke-linecap: square"/>
   </g>
   <g id="patch_5">
    <path d="M 10.8 133.2 
L 133.2 133.2 
" style="fill: none; stroke: #000000; stroke-width: 0.8; stroke-linejoin: miter; stroke-linecap: square"/>
   </g>
   <g id="patch_6">
    <path d="M 10.8 10.8 
L 133.2 10.8 
" style="fill: none; stroke: #000000; stroke-width: 0.8; stroke-linejoin: miter; stroke-linecap: square"/>
   </g>
  </g>
 </g>
 <defs>
  <clipPath id="p9c9441cc01">
   <rect x="10.8" y="10.8" width="122.4" height="122.4"/>
  </clipPath>
 </defs>
</svg>
