<?xml version="1.0" encoding="utf-8" standalone="no"?>
<!DOCTYPE svg PUBLIC "-//W3C//DTD SVG 1.1//EN"
  "http://www.w3.org/Graphics/SVG/1.1/DTD/svg11.dtd">
<svg xmlns:xlink="http://www.w3.org/1999/xlink" width="144pt" height="144pt" viewBox="0 0 144 144" xmlns="http://www.w3.org/2000/svg" version="1.1">
 <metadata>
  <rdf:RDF xmlns:dc="http://purl.org/dc/elements/1.1/" xmlns:cc="http://creativecommons.org/ns#" xmlns:rdf="http://www.w3.org/1999/02/22-rdf-syntax-ns#">
   <cc:Work>
    <dc:type rdf:resource="http://purl.org/dc/dcmitype/StillImage"/>
    <dc:date>2025-02-07T11:27:54.851604</dc:date>
    <dc:format>image/svg+xml</dc:format>
    <dc:creator>
     <cc:Agent>
      <dc:title>Matplotlib v3.8.0, https://matplotlib.org/</dc:title>
     </cc:Agent>
    </dc:creator>
   </cc:Work>
  </rdf:RDF>
 </metadata>
 <defs>
  <style type="text/css">*{stroke-linejoin: round; stroke-linecap: butt}</style>
 </defs>
 <g id="figure_1">
  <g id="patch_1">
   <path d="M 0 144 
L 144 144 
L 144 0 
L 0 0 
L 0 144 
z
" style="fill: none"/>
  </g>
  <g id="axes_1">
   <g id="patch_2">
    <path d="M 10.8 133.2 
L 133.2 133.2 
L 133.2 10.8 
L 10.8 10.8 
L 10.8 133.2 
z
" style="fill: none"/>
   </g>
   <g id="matplotlib.axis_1"/>
   <g id="matplotlib.axis_2"/>
   <g id="line2d_1">
    <path d="M 16.363636 76.367315 
L 16.852867 76.368191 
L 16.961585 76.353812 
L 17.015944 76.508736 
L 17.070302 76.382131 
L 17.124661 76.26204 
L 17.17902 76.28929 
L 17.287738 76.455486 
L 17.342097 76.170558 
L 17.396456 76.553201 
L 17.450815 76.348372 
L 17.505174 76.404603 
L 17.559533 76.284857 
L 17.613892 76.581114 
L 17.668251 76.324856 
L 17.72261 76.200495 
L 17.776969 76.468795 
L 17.831327 76.105308 
L 17.885686 76.487546 
L 17.940045 76.196005 
L 18.048763 76.55784 
L 18.103122 76.087769 
L 18.157481 76.307954 
L 18.21184 76.465791 
L 18.320558 76.161648 
L 18.374917 76.258337 
L 18.429276 76.234127 
L 18.483635 76.810672 
L 18.537994 76.52926 
L 18.646711 76.532733 
L 18.809788 75.972983 
L 19.081583 76.552284 
L 19.135942 76.403788 
L 19.190301 76.602499 
L 19.24466 76.331545 
L 19.299019 76.401358 
L 19.353377 76.46102 
L 19.407736 76.036419 
L 19.462095 76.292181 
L 19.570813 76.543891 
L 19.625172 76.458563 
L 19.679531 76.109236 
L 19.73389 76.409861 
L 19.788249 76.574527 
L 19.842608 75.91927 
L 19.896967 76.450084 
L 19.951326 76.386763 
L 20.005685 76.066579 
L 20.060044 76.09959 
L 20.114402 76.889133 
L 20.168761 76.335844 
L 20.22312 76.647408 
L 20.331838 75.8693 
L 20.386197 76.61902 
L 20.440556 76.284032 
L 20.549274 76.631159 
L 20.712351 75.697519 
L 20.875427 76.66706 
L 21.038504 75.667923 
L 21.092863 75.695585 
L 21.310299 76.93664 
L 21.364658 76.881455 
L 21.473376 75.799291 
L 21.527735 76.375546 
L 21.582094 76.991667 
L 21.636452 76.438777 
L 21.74517 76.523011 
L 21.799529 75.735842 
L 21.853888 76.019334 
L 21.908247 75.778948 
L 22.071324 76.639569 
L 22.234401 76.373533 
L 22.28876 76.8712 
L 22.343119 75.974579 
L 22.397477 76.778336 
L 22.451836 76.029016 
L 22.506195 76.606681 
L 22.560554 76.392371 
L 22.669272 76.954237 
L 22.723631 75.663856 
L 22.77799 75.810652 
L 22.941067 76.769297 
L 22.995426 76.654343 
L 23.158502 74.968205 
L 23.26722 76.778395 
L 23.321579 76.302104 
L 23.375938 76.20453 
L 23.430297 77.195376 
L 23.484656 76.462155 
L 23.539015 75.813248 
L 23.593374 77.829784 
L 23.647733 76.794552 
L 23.702092 75.454625 
L 23.756451 77.661772 
L 23.81081 76.005022 
L 23.865169 77.31348 
L 23.919527 77.109363 
L 23.973886 75.433744 
L 24.028245 76.006183 
L 24.082604 76.765828 
L 24.136963 76.504 
L 24.245681 75.618765 
L 24.354399 77.403691 
L 24.408758 76.785079 
L 24.463117 76.052096 
L 24.517476 77.704128 
L 24.571835 75.980648 
L 24.626194 76.9434 
L 24.680552 76.35757 
L 24.734911 76.362691 
L 24.78927 77.039603 
L 24.843629 75.534126 
L 24.897988 76.030072 
L 24.952347 75.837453 
L 25.006706 75.98323 
L 25.061065 76.190559 
L 25.169783 75.434929 
L 25.278501 77.68413 
L 25.33286 76.190038 
L 25.387219 77.222753 
L 25.441577 76.350354 
L 25.495936 77.051426 
L 25.604654 75.942429 
L 25.659013 76.74827 
L 25.713372 76.139326 
L 25.82209 76.7649 
L 25.876449 76.21984 
L 25.930808 76.537705 
L 25.985167 76.824804 
L 26.148244 75.629578 
L 26.202602 76.991074 
L 26.256961 75.894253 
L 26.365679 76.678368 
L 26.528756 75.448057 
L 26.583115 76.968389 
L 26.637474 76.120569 
L 26.691833 76.687843 
L 26.746192 75.168671 
L 26.800551 77.016751 
L 26.85491 75.827475 
L 26.909269 75.556012 
L 26.963627 77.351319 
L 27.017986 76.337671 
L 27.072345 76.396197 
L 27.126704 76.669555 
L 27.181063 76.610476 
L 27.235422 76.366571 
L 27.289781 76.884479 
L 27.34414 76.701836 
L 27.398499 74.506571 
L 27.452858 77.753891 
L 27.507217 77.011886 
L 27.561576 74.946234 
L 27.615935 76.943069 
L 27.724652 76.050833 
L 27.779011 77.905285 
L 27.83337 76.394023 
L 27.887729 76.817917 
L 27.996447 75.039217 
L 28.050806 76.136875 
L 28.105165 76.563834 
L 28.159524 76.014822 
L 28.213883 76.405766 
L 28.268242 76.405109 
L 28.322601 76.725665 
L 28.37696 75.617299 
L 28.431319 77.3769 
L 28.485677 76.172037 
L 28.594395 76.271092 
L 28.648754 76.451237 
L 28.703113 76.259591 
L 28.757472 75.799457 
L 28.86619 78.195933 
L 28.920549 74.645695 
L 28.974908 76.13409 
L 29.137985 75.571535 
L 29.192344 76.851584 
L 29.246702 76.026351 
L 29.301061 75.657142 
L 29.35542 76.739622 
L 29.464138 75.329041 
L 29.518497 77.341912 
L 29.572856 76.493165 
L 29.627215 76.397056 
L 29.844651 73.781197 
L 29.953369 77.046802 
L 30.007727 76.353386 
L 30.116445 77.803067 
L 30.225163 75.059736 
L 30.38824 77.127482 
L 30.551317 74.638613 
L 30.660035 77.583315 
L 30.714394 77.110007 
L 30.768752 76.479983 
L 30.823111 78.233699 
L 30.87747 77.627372 
L 30.931829 75.686334 
L 30.986188 77.177607 
L 31.149265 75.233986 
L 31.203624 78.068204 
L 31.257983 76.636639 
L 31.312342 76.273693 
L 31.475419 77.791654 
L 31.529778 75.249991 
L 31.584136 75.968867 
L 31.638495 76.066969 
L 31.692854 75.458787 
L 31.747213 75.869171 
L 31.801572 77.931405 
L 31.855931 75.863386 
L 32.073367 76.839686 
L 32.236444 75.466497 
L 32.39952 76.891409 
L 32.508238 75.904788 
L 32.562597 76.577489 
L 32.616956 74.513805 
L 32.671315 77.915217 
L 32.725674 75.746907 
L 32.780033 77.687913 
L 32.834392 75.934882 
L 32.888751 76.779701 
L 32.94311 76.705751 
L 32.997469 75.177527 
L 33.051828 75.476977 
L 33.160545 77.299622 
L 33.214904 76.179785 
L 33.269263 76.713858 
L 33.323622 75.342361 
L 33.377981 76.852784 
L 33.43234 76.528342 
L 33.486699 75.899628 
L 33.541058 77.270608 
L 33.649776 75.623309 
L 33.704135 77.031609 
L 33.758494 74.381224 
L 33.812853 74.565021 
L 33.92157 77.06714 
L 33.975929 76.838781 
L 34.139006 75.369886 
L 34.247724 77.523893 
L 34.302083 77.500719 
L 34.356442 76.400008 
L 34.410801 77.65915 
L 34.519519 75.063392 
L 34.573878 76.169351 
L 34.628236 75.429864 
L 34.682595 75.775897 
L 34.736954 78.227933 
L 34.791313 75.418376 
L 34.845672 77.606902 
L 34.900031 76.150924 
L 34.95439 76.508893 
L 35.008749 76.498784 
L 35.063108 76.16294 
L 35.117467 76.911978 
L 35.171826 76.895741 
L 35.280544 76.700074 
L 35.334903 77.381386 
L 35.497979 75.716915 
L 35.552338 76.40343 
L 35.606697 75.570705 
L 35.661056 77.398699 
L 35.769774 75.115435 
L 35.824133 76.740363 
L 35.878492 75.737337 
L 35.932851 74.627356 
L 36.095928 77.146099 
L 36.150286 74.677104 
L 36.204645 74.775245 
L 36.259004 77.562684 
L 36.313363 75.286146 
L 36.367722 75.109189 
L 36.47644 75.061633 
L 36.530799 77.428619 
L 36.585158 77.339524 
L 36.639517 74.661947 
L 36.693876 75.842968 
L 36.748235 76.428802 
L 36.911311 74.515665 
L 36.96567 76.44382 
L 37.020029 75.648002 
L 37.074388 75.770842 
L 37.128747 76.408813 
L 37.183106 73.823236 
L 37.237465 76.329889 
L 37.291824 77.040477 
L 37.346183 74.609484 
L 37.400542 74.899981 
L 37.454901 76.807923 
L 37.50926 75.668708 
L 37.563619 74.190077 
L 37.617978 77.885242 
L 37.672336 77.116578 
L 37.726695 75.070966 
L 37.781054 79.715387 
L 37.835413 75.114417 
L 37.889772 75.925944 
L 37.944131 75.45167 
L 37.99849 74.902531 
L 38.107208 77.612738 
L 38.161567 76.672038 
L 38.215926 76.220329 
L 38.270285 74.689211 
L 38.324644 75.067314 
L 38.433361 77.835964 
L 38.48772 75.624655 
L 38.542079 77.692982 
L 38.596438 77.069175 
L 38.650797 77.319626 
L 38.705156 77.356011 
L 38.759515 76.319133 
L 38.813874 77.384307 
L 39.085669 73.596166 
L 39.140028 74.24917 
L 39.194386 74.769292 
L 39.248745 76.80895 
L 39.303104 74.621626 
L 39.357463 76.763412 
L 39.411822 76.250405 
L 39.466181 78.677742 
L 39.574899 75.496415 
L 39.629258 77.859781 
L 39.683617 77.137116 
L 39.737976 75.717118 
L 39.792335 77.510327 
L 39.846694 76.540292 
L 39.901053 76.248352 
L 39.955411 76.279195 
L 40.064129 79.264857 
L 40.227206 75.99368 
L 40.281565 76.168998 
L 40.335924 75.217723 
L 40.390283 75.529995 
L 40.444642 77.3319 
L 40.499001 75.774279 
L 40.55336 75.914071 
L 40.662078 78.39037 
L 40.716436 75.286296 
L 40.770795 76.717913 
L 40.879513 76.870188 
L 40.933872 76.610323 
L 40.988231 75.277576 
L 41.04259 78.44759 
L 41.096949 77.642838 
L 41.151308 75.062799 
L 41.205667 78.935529 
L 41.260026 77.149676 
L 41.314385 76.330768 
L 41.368744 78.066627 
L 41.423103 76.949306 
L 41.53182 74.756415 
L 41.640538 76.659721 
L 41.694897 75.814972 
L 41.749256 75.843687 
L 41.966692 78.258829 
L 42.07541 74.508965 
L 42.129769 77.171257 
L 42.184128 76.906265 
L 42.238486 76.871947 
L 42.347204 74.183219 
L 42.401563 75.257789 
L 42.455922 76.898813 
L 42.510281 74.01107 
L 42.56464 75.840991 
L 42.618999 75.798263 
L 42.673358 74.75609 
L 42.727717 77.176163 
L 42.782076 75.622716 
L 42.836435 76.678578 
L 42.890794 76.638199 
L 42.945153 75.924317 
L 42.999511 78.764102 
L 43.05387 74.910375 
L 43.108229 79.169397 
L 43.162588 77.247994 
L 43.216947 77.043846 
L 43.325665 75.094235 
L 43.380024 78.065011 
L 43.434383 75.252721 
L 43.488742 77.842474 
L 43.543101 77.028887 
L 43.651819 74.545237 
L 43.760536 78.057875 
L 43.869254 75.311251 
L 43.923613 78.822237 
L 43.977972 76.710771 
L 44.08669 74.573827 
L 44.141049 77.342187 
L 44.195408 76.709991 
L 44.249767 76.854328 
L 44.358485 75.04329 
L 44.521561 77.927766 
L 44.684638 75.394383 
L 44.738997 75.638705 
L 44.793356 75.279063 
L 44.847715 78.132546 
L 44.902074 75.620144 
L 44.956433 77.868417 
L 45.010792 76.725571 
L 45.173869 77.881262 
L 45.228228 77.186753 
L 45.282586 78.535459 
L 45.336945 77.992638 
L 45.391304 77.253256 
L 45.445663 78.978961 
L 45.500022 75.809941 
L 45.554381 77.135289 
L 45.60874 79.119505 
L 45.663099 75.214756 
L 45.717458 76.043354 
L 45.771817 78.284554 
L 45.826176 75.204426 
L 45.880535 78.117738 
L 45.934894 76.107547 
L 45.989253 78.236885 
L 46.043611 74.893705 
L 46.09797 76.601377 
L 46.152329 76.768982 
L 46.206688 75.942853 
L 46.261047 77.037875 
L 46.315406 76.361819 
L 46.369765 74.556102 
L 46.424124 76.595597 
L 46.478483 75.557101 
L 46.532842 75.169697 
L 46.587201 77.421166 
L 46.64156 74.551305 
L 46.695919 77.01975 
L 46.750278 74.924399 
L 46.804636 75.665233 
L 46.858995 77.181713 
L 46.913354 76.325565 
L 46.967713 74.06166 
L 47.185149 79.816816 
L 47.239508 74.471511 
L 47.293867 75.926156 
L 47.348226 77.544714 
L 47.456944 75.341813 
L 47.511303 78.51479 
L 47.565662 76.89063 
L 47.62002 74.446245 
L 47.728738 77.643225 
L 48.000533 74.590683 
L 48.054892 74.62731 
L 48.217969 78.290814 
L 48.326687 75.595496 
L 48.489763 76.853087 
L 48.544122 76.40371 
L 48.598481 76.846743 
L 48.65284 77.258637 
L 48.707199 75.661979 
L 48.761558 76.574507 
L 48.815917 78.727506 
L 48.978994 73.493807 
L 49.033353 73.815024 
L 49.087712 80.057044 
L 49.14207 75.424817 
L 49.250788 77.070137 
L 49.305147 75.533466 
L 49.359506 76.592524 
L 49.413865 75.654077 
L 49.522583 78.347164 
L 49.576942 75.775846 
L 49.68566 75.797603 
L 49.740019 73.774133 
L 49.794378 76.238384 
L 49.848737 74.235814 
L 49.903095 74.696635 
L 49.957454 77.962808 
L 50.011813 77.839413 
L 50.066172 75.55885 
L 50.120531 76.766609 
L 50.17489 77.402485 
L 50.392326 74.072548 
L 50.555403 78.2303 
L 50.66412 75.565312 
L 50.718479 77.919297 
L 50.772838 75.807577 
L 50.827197 76.074174 
L 50.881556 75.643348 
L 51.044633 77.926776 
L 51.153351 75.741862 
L 51.20771 77.360493 
L 51.262069 75.623689 
L 51.316428 77.557694 
L 51.370787 77.167899 
L 51.479504 75.111142 
L 51.588222 75.179009 
L 51.69694 75.868929 
L 51.751299 75.490146 
L 51.805658 77.169329 
L 51.860017 76.473075 
L 51.968735 76.107504 
L 52.023094 76.355695 
L 52.131812 77.528551 
L 52.18617 77.303186 
L 52.240529 74.529679 
L 52.294888 77.189667 
L 52.349247 77.823259 
L 52.403606 77.596052 
L 52.512324 75.479781 
L 52.566683 75.997278 
L 52.621042 75.456702 
L 52.675401 72.718153 
L 52.838478 78.405918 
L 52.892837 77.534466 
L 52.947195 73.570547 
L 53.001554 76.399909 
L 53.110272 78.200398 
L 53.164631 75.104669 
L 53.21899 76.52677 
L 53.273349 77.008193 
L 53.382067 72.953244 
L 53.436426 78.102428 
L 53.490785 76.970856 
L 53.545144 77.309819 
L 53.599503 75.997924 
L 53.653862 76.664613 
L 53.70822 77.945724 
L 53.762579 76.168493 
L 53.816938 77.822298 
L 53.871297 78.45661 
L 53.980015 75.314929 
L 54.034374 76.868753 
L 54.088733 75.888002 
L 54.143092 78.230555 
L 54.197451 76.547068 
L 54.306169 77.581415 
L 54.360528 77.536642 
L 54.414887 76.956138 
L 54.469245 78.415279 
L 54.632322 75.403019 
L 54.795399 78.179481 
L 54.849758 78.502273 
L 54.904117 73.463574 
L 54.958476 76.997789 
L 55.067194 75.561178 
L 55.175912 77.667034 
L 55.23027 75.767085 
L 55.284629 79.03865 
L 55.338988 77.643615 
L 55.447706 74.621519 
L 55.502065 74.857271 
L 55.610783 78.908721 
L 55.665142 75.87721 
L 55.719501 73.933431 
L 55.77386 74.407434 
L 55.936937 77.29417 
L 55.991295 76.607973 
L 56.045654 78.391472 
L 56.100013 74.195646 
L 56.154372 77.911777 
L 56.317449 75.571476 
L 56.371808 80.171463 
L 56.426167 74.706064 
L 56.480526 76.38378 
L 56.534885 78.550375 
L 56.589244 78.495499 
L 56.75232 74.661411 
L 56.806679 76.016929 
L 56.861038 74.299864 
L 56.969756 78.657509 
L 57.024115 77.127972 
L 57.078474 75.983411 
L 57.241551 78.9375 
L 57.29591 79.092575 
L 57.350269 75.484831 
L 57.404628 76.346938 
L 57.458987 77.187694 
L 57.567704 74.356151 
L 57.622063 76.385974 
L 57.676422 73.127301 
L 57.730781 78.058065 
L 57.78514 77.600734 
L 57.948217 74.535752 
L 58.111294 78.129081 
L 58.220012 75.606554 
L 58.27437 77.442826 
L 58.328729 76.736472 
L 58.383088 76.479965 
L 58.546165 78.649046 
L 58.872319 73.735598 
L 59.089754 79.001488 
L 59.144113 76.046152 
L 59.198472 78.504379 
L 59.30719 76.183814 
L 59.361549 76.842639 
L 59.415908 75.695623 
L 59.524626 78.374835 
L 59.633344 75.024659 
L 59.742062 76.543753 
L 59.79642 76.123429 
L 59.850779 78.085184 
L 59.959497 74.49052 
L 60.176933 77.976983 
L 60.34001 74.731575 
L 60.448728 77.061042 
L 60.611804 74.786203 
L 60.666163 77.585825 
L 60.720522 76.993505 
L 60.774881 74.550633 
L 60.82924 76.353113 
L 60.883599 77.000825 
L 60.937958 76.453532 
L 60.992317 75.356766 
L 61.046676 78.390717 
L 61.101035 74.860746 
L 61.155394 76.452179 
L 61.209753 76.366071 
L 61.264112 77.874414 
L 61.31847 75.393392 
L 61.372829 75.514997 
L 61.535906 77.493856 
L 61.590265 77.565044 
L 61.644624 75.882077 
L 61.698983 77.444838 
L 61.753342 77.398076 
L 61.807701 75.091802 
L 61.86206 76.281057 
L 61.916419 76.370939 
L 61.970778 77.57603 
L 62.079495 74.692301 
L 62.242572 76.757953 
L 62.296931 74.332541 
L 62.35129 75.260072 
L 62.405649 75.995784 
L 62.514367 74.318383 
L 62.568726 77.482852 
L 62.623085 76.818742 
L 62.677444 76.576455 
L 62.731803 76.894419 
L 62.894879 74.435664 
L 63.003597 77.666475 
L 63.057956 75.536052 
L 63.112315 75.813994 
L 63.166674 76.019075 
L 63.221033 75.28672 
L 63.329751 77.777425 
L 63.438469 74.373831 
L 63.492828 77.385614 
L 63.547187 76.862546 
L 63.601545 73.885796 
L 63.655904 76.821109 
L 63.764622 75.329301 
L 63.87334 77.968947 
L 63.927699 74.973762 
L 63.982058 76.120394 
L 64.036417 75.218793 
L 64.199494 77.778187 
L 64.308212 75.223563 
L 64.362571 75.630598 
L 64.416929 74.411015 
L 64.471288 76.796111 
L 64.525647 75.957145 
L 64.580006 75.885721 
L 64.634365 77.957601 
L 64.688724 75.528306 
L 64.743083 75.777698 
L 64.797442 75.710019 
L 64.90616 77.756819 
L 64.960519 74.21339 
L 65.014878 78.907686 
L 65.069237 76.981615 
L 65.177954 77.157369 
L 65.232313 76.972108 
L 65.286672 75.712493 
L 65.341031 77.429614 
L 65.504108 74.335537 
L 65.558467 78.915069 
L 65.612826 78.776541 
L 65.775903 76.245437 
L 65.830262 77.413268 
L 65.884621 75.822461 
L 65.938979 76.381673 
L 65.993338 76.854934 
L 66.047697 76.762749 
L 66.156415 76.485511 
L 66.210774 76.024731 
L 66.265133 77.296762 
L 66.319492 76.478006 
L 66.373851 74.350987 
L 66.42821 76.150103 
L 66.482569 78.162212 
L 66.536928 77.290263 
L 66.591287 75.249973 
L 66.645646 76.634784 
L 66.700004 76.702414 
L 66.754363 75.556787 
L 66.808722 76.198795 
L 66.863081 77.566235 
L 66.91744 75.989323 
L 66.971799 78.260844 
L 67.026158 77.621421 
L 67.189235 75.263405 
L 67.243594 76.255291 
L 67.297953 75.449281 
L 67.352312 75.90926 
L 67.406671 79.205338 
L 67.461029 77.784259 
L 67.732824 75.912928 
L 67.787183 76.038631 
L 67.841542 74.724985 
L 68.004619 77.431326 
L 68.058978 76.710071 
L 68.113337 78.658874 
L 68.167696 78.127934 
L 68.222054 75.351073 
L 68.276413 76.580407 
L 68.330772 75.933794 
L 68.385131 77.071507 
L 68.43949 74.478775 
L 68.493849 77.522246 
L 68.548208 76.994829 
L 68.602567 77.313134 
L 68.656926 76.709239 
L 68.711285 77.730486 
L 68.765644 75.599999 
L 68.874362 75.634343 
L 68.928721 75.514244 
L 68.983079 76.920144 
L 69.037438 76.345576 
L 69.091797 75.171451 
L 69.146156 76.816145 
L 69.254874 74.696416 
L 69.309233 77.494795 
L 69.417951 77.39622 
L 69.47231 75.569266 
L 69.526669 77.591304 
L 69.581028 76.093908 
L 69.689746 75.475781 
L 69.744104 77.920628 
L 69.798463 76.110234 
L 69.852822 76.32145 
L 69.907181 75.247524 
L 69.96154 76.30901 
L 70.015899 78.679674 
L 70.070258 78.367223 
L 70.233335 75.726541 
L 70.287694 77.616624 
L 70.342053 76.117001 
L 70.396412 76.093139 
L 70.450771 74.668146 
L 70.559488 77.2045 
L 70.613847 76.935112 
L 70.722565 74.959435 
L 70.776924 76.087978 
L 70.831283 76.246921 
L 70.885642 77.585334 
L 70.940001 76.342791 
L 70.99436 76.183354 
L 71.048719 73.951667 
L 71.103078 74.575512 
L 71.157437 75.998548 
L 71.211796 75.936711 
L 71.266154 75.406961 
L 71.320513 77.638603 
L 71.374872 77.502694 
L 71.537949 74.553255 
L 71.592308 75.70309 
L 71.646667 77.675948 
L 71.701026 76.751982 
L 71.755385 75.847958 
L 71.809744 77.861778 
L 71.864103 74.567516 
L 71.918462 77.35342 
L 71.972821 77.556697 
L 72.027179 76.947092 
L 72.081538 74.166406 
L 72.135897 76.881325 
L 72.190256 75.73803 
L 72.244615 76.752892 
L 72.298974 76.48061 
L 72.353333 77.280509 
L 72.407692 75.235326 
L 72.462051 77.261343 
L 72.51641 76.890839 
L 72.570769 75.613942 
L 72.625128 77.444182 
L 72.679487 77.11977 
L 72.896922 75.569347 
L 73.00564 76.700957 
L 73.059999 75.784837 
L 73.114358 77.910616 
L 73.168717 76.083764 
L 73.277435 75.451357 
L 73.440512 77.101898 
L 73.494871 76.58334 
L 73.549229 76.711125 
L 73.603588 77.79691 
L 73.657947 76.639441 
L 73.712306 76.799921 
L 73.766665 77.817742 
L 73.821024 75.466426 
L 73.875383 76.602843 
L 73.929742 77.692845 
L 73.984101 75.623031 
L 74.03846 76.405046 
L 74.147178 77.524647 
L 74.310254 75.622348 
L 74.364613 77.169051 
L 74.418972 76.280738 
L 74.473331 75.680903 
L 74.52769 77.135049 
L 74.582049 76.561786 
L 74.636408 75.939443 
L 74.690767 77.625329 
L 74.745126 76.372681 
L 74.853844 76.79293 
L 74.908203 76.183046 
L 74.962562 76.587129 
L 75.016921 76.552168 
L 75.071279 74.992635 
L 75.125638 76.390816 
L 75.234356 77.735321 
L 75.288715 75.190082 
L 75.343074 76.197912 
L 75.397433 77.247569 
L 75.451792 76.207915 
L 75.56051 74.649354 
L 75.614869 76.645672 
L 75.669228 76.541531 
L 75.777946 76.3509 
L 75.832304 77.616657 
L 75.886663 75.925994 
L 75.941022 77.2249 
L 75.995381 77.845375 
L 76.04974 77.565142 
L 76.104099 76.221895 
L 76.158458 76.686922 
L 76.212817 77.389358 
L 76.375894 76.620933 
L 76.484612 78.249031 
L 76.647688 75.866757 
L 76.702047 78.169153 
L 76.756406 75.354794 
L 76.810765 76.065212 
L 76.865124 76.365969 
L 76.919483 76.148732 
L 76.973842 76.096032 
L 77.028201 76.572846 
L 77.08256 75.955517 
L 77.191278 77.143994 
L 77.245637 74.956321 
L 77.299996 77.604897 
L 77.354354 76.06218 
L 77.517431 77.235832 
L 77.680508 75.155092 
L 77.734867 77.262475 
L 77.789226 75.457381 
L 77.843585 76.342491 
L 77.897944 76.067609 
L 77.952303 76.021867 
L 78.006662 75.585366 
L 78.115379 78.851349 
L 78.278456 75.72661 
L 78.332815 76.024763 
L 78.441533 77.31067 
L 78.495892 76.373569 
L 78.550251 77.074852 
L 78.60461 76.634587 
L 78.658969 77.257644 
L 78.713328 75.586415 
L 78.767687 76.23629 
L 78.822046 76.634071 
L 78.985122 74.493279 
L 79.039481 77.650104 
L 79.09384 76.486786 
L 79.202558 77.157517 
L 79.256917 75.450817 
L 79.311276 76.527001 
L 79.365635 76.272215 
L 79.474353 77.090479 
L 79.528712 76.777629 
L 79.583071 76.352944 
L 79.637429 76.501493 
L 79.746147 77.225906 
L 79.854865 75.56679 
L 79.909224 76.150312 
L 79.963583 76.448666 
L 80.12666 75.199616 
L 80.289737 76.86959 
L 80.344096 76.37748 
L 80.398455 77.012643 
L 80.452813 76.419742 
L 80.561531 76.081321 
L 80.724608 77.582904 
L 80.778967 76.127994 
L 80.833326 77.612238 
L 80.887685 77.340573 
L 81.050762 75.582524 
L 81.105121 75.407976 
L 81.15948 76.619686 
L 81.213838 76.346104 
L 81.322556 75.846375 
L 81.485633 76.954647 
L 81.64871 75.568231 
L 81.757428 77.488357 
L 81.920505 75.823466 
L 81.974863 76.685727 
L 82.029222 76.107377 
L 82.083581 76.443933 
L 82.13794 75.658346 
L 82.192299 75.7109 
L 82.301017 76.537739 
L 82.355376 76.070981 
L 82.518453 78.185078 
L 82.572812 75.321552 
L 82.627171 75.804178 
L 82.68153 75.853697 
L 82.790247 77.633725 
L 82.953324 75.186044 
L 83.007683 76.039217 
L 83.062042 75.399058 
L 83.17076 76.112812 
L 83.225119 75.912036 
L 83.279478 75.027425 
L 83.333837 76.679892 
L 83.388196 75.933653 
L 83.442555 76.105665 
L 83.496913 75.362387 
L 83.551272 76.150702 
L 83.605631 75.078269 
L 83.65999 76.480779 
L 83.714349 75.13542 
L 83.877426 76.722598 
L 83.931785 75.934717 
L 83.986144 76.823796 
L 84.040503 76.652567 
L 84.094862 75.925999 
L 84.149221 76.015172 
L 84.257938 77.00038 
L 84.312297 76.073018 
L 84.366656 76.467892 
L 84.421015 76.230398 
L 84.475374 76.886749 
L 84.584092 74.993989 
L 84.638451 77.052747 
L 84.69281 76.660455 
L 84.801528 75.917469 
L 84.855887 76.32137 
L 84.910246 75.777306 
L 84.964605 76.345531 
L 85.018963 76.348985 
L 85.18204 77.545697 
L 85.290758 76.090776 
L 85.345117 76.382977 
L 85.399476 77.176696 
L 85.453835 76.52471 
L 85.508194 76.388334 
L 85.562553 75.662243 
L 85.72563 77.383057 
L 85.834347 75.768549 
L 85.888706 76.997455 
L 86.051783 75.021732 
L 86.21486 76.971967 
L 86.323578 75.555758 
L 86.377937 75.888831 
L 86.432296 75.801982 
L 86.486655 75.74488 
L 86.541013 76.421085 
L 86.595372 76.091644 
L 86.70409 76.401824 
L 86.758449 76.268544 
L 86.812808 76.312419 
L 86.867167 76.223693 
L 86.921526 75.080401 
L 87.084603 76.723347 
L 87.138962 76.58909 
L 87.193321 76.727681 
L 87.24768 76.969736 
L 87.410756 76.249305 
L 87.465115 76.907535 
L 87.519474 76.329641 
L 87.573833 76.311913 
L 87.628192 75.378341 
L 87.682551 75.966586 
L 87.73691 76.336378 
L 87.791269 75.659464 
L 87.845628 76.257882 
L 87.899987 76.0113 
L 87.954346 76.095871 
L 88.008705 77.13359 
L 88.063063 76.599893 
L 88.117422 77.072649 
L 88.22614 76.279132 
L 88.280499 76.916115 
L 88.334858 75.886637 
L 88.389217 77.118846 
L 88.443576 76.294656 
L 88.497935 76.432198 
L 88.552294 76.886527 
L 88.606653 76.595401 
L 88.661012 76.51719 
L 88.715371 75.677641 
L 88.76973 75.769781 
L 88.878447 76.051452 
L 88.987165 76.685446 
L 89.041524 76.487287 
L 89.095883 75.575918 
L 89.150242 76.486593 
L 89.204601 76.76609 
L 89.25896 76.135501 
L 89.367678 76.976548 
L 89.530755 76.224778 
L 89.639472 76.937848 
L 89.74819 75.8264 
L 89.911267 77.27484 
L 89.965626 76.244954 
L 90.019985 77.642017 
L 90.074344 76.663483 
L 90.128703 76.469578 
L 90.237421 75.580623 
L 90.29178 77.42083 
L 90.346138 76.216133 
L 90.400497 76.344947 
L 90.454856 76.230941 
L 90.509215 75.889157 
L 90.672292 77.496328 
L 90.835369 75.946289 
L 90.889728 76.395204 
L 90.944087 76.286019 
L 90.998446 75.963888 
L 91.052805 76.775797 
L 91.107163 76.138222 
L 91.161522 76.423855 
L 91.215881 76.046773 
L 91.324599 76.709944 
L 91.378958 75.897411 
L 91.433317 76.748615 
L 91.596394 75.617967 
L 91.650753 76.703302 
L 91.705112 76.272435 
L 91.759471 75.658369 
L 91.81383 75.98366 
L 91.868188 75.904267 
L 91.922547 76.080107 
L 92.031265 77.309347 
L 92.139983 75.997133 
L 92.194342 76.036249 
L 92.248701 75.654715 
L 92.411778 76.810358 
L 92.466137 76.927234 
L 92.520496 76.280951 
L 92.574855 76.492659 
L 92.629213 76.546923 
L 92.683572 76.107907 
L 92.737931 76.404265 
L 92.79229 76.349874 
L 92.955367 75.461911 
L 93.009726 76.138568 
L 93.064085 75.809858 
L 93.172803 76.460177 
L 93.227162 75.660832 
L 93.281521 76.482313 
L 93.390238 76.69302 
L 93.444597 76.15211 
L 93.498956 76.573049 
L 93.662033 76.132097 
L 93.716392 76.216452 
L 93.770751 76.055469 
L 93.82511 76.92441 
L 93.879469 75.777517 
L 93.933828 76.446363 
L 93.988187 76.043051 
L 94.042546 76.255715 
L 94.096905 76.641521 
L 94.205622 76.09268 
L 94.31434 76.680859 
L 94.368699 75.893251 
L 94.531776 77.025274 
L 94.694853 75.833672 
L 94.803571 76.039423 
L 94.85793 76.391065 
L 94.912288 75.976811 
L 94.966647 76.197044 
L 95.075365 76.881547 
L 95.129724 76.015113 
L 95.184083 76.563099 
L 95.292801 76.027666 
L 95.455878 76.537927 
L 95.510237 75.992486 
L 95.564596 76.41783 
L 95.673313 76.153663 
L 95.727672 76.567294 
L 95.782031 75.909986 
L 95.83639 76.672519 
L 95.890749 76.050351 
L 95.945108 75.714769 
L 96.108185 76.919842 
L 96.216903 76.216499 
L 96.271262 76.776646 
L 96.325621 75.859969 
L 96.37998 76.17376 
L 96.434338 76.20645 
L 96.488697 76.730689 
L 96.543056 76.646102 
L 96.597415 76.206868 
L 96.651774 76.512161 
L 96.814851 76.185434 
L 96.86921 76.218929 
L 96.977928 76.702819 
L 97.032287 75.960401 
L 97.086646 76.495033 
L 97.249722 77.191942 
L 97.35844 75.993961 
L 97.412799 76.311012 
L 97.467158 76.273464 
L 97.521517 75.789009 
L 97.575876 76.167075 
L 97.630235 76.531053 
L 97.684594 76.377305 
L 97.738953 76.454436 
L 97.90203 77.147847 
L 97.956389 76.205306 
L 98.010747 76.620108 
L 98.065106 76.916943 
L 98.119465 76.004169 
L 98.173824 76.581161 
L 98.282542 76.643579 
L 98.336901 76.30009 
L 98.39126 76.474468 
L 98.499978 76.749568 
L 98.554337 76.188705 
L 98.608696 76.377593 
L 98.826131 76.240362 
L 98.934849 76.634402 
L 98.989208 76.543894 
L 99.043567 76.019481 
L 99.097926 76.665903 
L 99.152285 76.367409 
L 99.206644 76.462665 
L 99.261003 76.285394 
L 99.315362 76.525533 
L 99.369721 76.301877 
L 99.42408 76.314896 
L 99.478439 75.86497 
L 99.587156 76.649081 
L 99.695874 76.146786 
L 99.750233 76.566826 
L 99.858951 76.544866 
L 99.91331 76.493228 
L 99.967669 76.194032 
L 100.076387 76.831467 
L 100.130746 76.68364 
L 100.185105 75.940923 
L 100.239464 76.318495 
L 100.348181 76.561217 
L 100.40254 76.295025 
L 100.511258 76.946164 
L 100.674335 75.733992 
L 100.783053 76.49615 
L 100.837412 76.434912 
L 100.94613 76.246242 
L 101.000489 76.342692 
L 101.163565 76.480659 
L 101.217924 76.394756 
L 101.272283 75.928964 
L 101.326642 76.257297 
L 101.381001 76.071509 
L 101.43536 76.174369 
L 101.489719 77.078895 
L 101.544078 76.513512 
L 101.598437 76.836111 
L 101.652796 76.809856 
L 101.815872 76.10295 
L 101.92459 76.550526 
L 102.087667 76.083627 
L 102.142026 76.791565 
L 102.196385 76.039468 
L 102.250744 76.667577 
L 102.359462 75.955299 
L 102.413821 76.411388 
L 102.46818 76.61503 
L 102.522539 76.12701 
L 102.576897 76.798815 
L 102.631256 76.527611 
L 102.685615 76.441167 
L 102.739974 76.477417 
L 102.794333 76.573656 
L 102.903051 76.59853 
L 102.95741 76.081909 
L 103.011769 76.041079 
L 103.174846 76.42243 
L 103.229205 76.49013 
L 103.392281 75.694619 
L 103.44664 76.522534 
L 103.500999 76.516293 
L 103.664076 76.370454 
L 103.718435 76.045389 
L 103.772794 76.387186 
L 103.827153 76.5282 
L 103.881512 76.170344 
L 103.935871 76.568369 
L 103.99023 76.089309 
L 104.044589 76.266666 
L 104.098947 76.611081 
L 104.153306 76.463481 
L 104.425101 76.334319 
L 104.47946 76.057242 
L 104.533819 76.276884 
L 104.588178 76.584209 
L 104.642537 76.21699 
L 104.696896 76.346734 
L 104.805614 76.558514 
L 104.914331 76.028811 
L 104.96869 76.264387 
L 105.023049 76.249418 
L 105.077408 76.676967 
L 105.131767 76.507104 
L 105.186126 76.120814 
L 105.240485 76.371303 
L 105.294844 76.297808 
L 105.349203 76.483715 
L 105.403562 76.368988 
L 105.457921 76.237701 
L 105.620997 76.756526 
L 105.784074 76.24296 
L 105.892792 76.924075 
L 105.947151 76.450379 
L 106.00151 76.511704 
L 106.055869 76.321139 
L 106.110228 76.405072 
L 106.164587 76.673367 
L 106.218946 76.455536 
L 106.273305 76.16897 
L 106.327664 76.354717 
L 106.382022 76.4889 
L 106.436381 76.405596 
L 106.49074 75.849682 
L 106.653817 76.588783 
L 106.708176 75.947993 
L 106.762535 76.409864 
L 106.816894 76.272199 
L 106.871253 76.76041 
L 106.925612 75.985652 
L 106.979971 76.210288 
L 107.03433 76.508645 
L 107.088689 76.281612 
L 107.143047 76.176077 
L 107.197406 76.620284 
L 107.251765 76.290673 
L 107.414842 76.582425 
L 107.577919 76.318059 
L 107.795355 76.387897 
L 107.958431 76.618281 
L 108.067149 76.276081 
L 108.121508 76.708078 
L 108.175867 75.988505 
L 108.230226 76.558238 
L 108.284585 76.154103 
L 108.338944 76.54044 
L 108.393303 76.531611 
L 108.447662 76.393307 
L 108.502021 76.705171 
L 108.55638 76.581591 
L 108.610739 76.241709 
L 108.665097 76.285165 
L 108.773815 76.710398 
L 108.936892 76.127321 
L 109.099969 76.575718 
L 109.426122 76.152622 
L 109.480481 76.217068 
L 109.53484 76.730729 
L 109.589199 76.40627 
L 109.752276 76.600929 
L 109.915353 76.11838 
L 110.132789 76.617227 
L 110.187147 76.21328 
L 110.241506 76.280368 
L 110.295865 76.267899 
L 110.404583 76.522626 
L 110.458942 76.312422 
L 110.513301 76.768884 
L 110.56766 76.216629 
L 110.622019 76.419804 
L 110.676378 76.401476 
L 110.785096 76.589801 
L 110.839455 76.352917 
L 110.893814 76.557527 
L 110.948172 76.566154 
L 111.111249 76.366032 
L 111.165608 76.616007 
L 111.328685 76.195913 
L 111.437403 76.505446 
L 111.491762 76.328152 
L 111.546121 76.554213 
L 111.60048 76.115822 
L 111.654839 76.670504 
L 111.709197 76.578193 
L 111.763556 76.312367 
L 111.817915 76.676702 
L 111.872274 76.197466 
L 111.926633 76.295258 
L 112.035351 76.673454 
L 112.08971 76.170693 
L 112.144069 76.288621 
L 112.252787 76.571675 
L 112.361505 76.507377 
L 112.415864 76.271252 
L 112.470222 76.450881 
L 112.524581 76.49958 
L 112.57894 76.26848 
L 112.633299 76.316628 
L 112.796376 76.385707 
L 112.850735 76.238708 
L 112.905094 76.340044 
L 113.013812 76.278116 
L 113.176889 76.416959 
L 113.231248 76.172171 
L 113.285606 76.263533 
L 113.448683 76.564426 
L 113.557401 76.371382 
L 113.61176 76.453024 
L 113.666119 76.359023 
L 113.883555 76.517405 
L 113.937914 76.325759 
L 113.992273 76.480555 
L 114.155349 76.226479 
L 114.318426 76.404299 
L 114.427144 76.060242 
L 114.590221 76.489394 
L 114.753298 76.221477 
L 114.807656 76.316389 
L 114.916374 76.530423 
L 114.970733 76.212067 
L 115.025092 76.404284 
L 115.296887 76.423097 
L 115.351246 76.324741 
L 115.405605 76.448166 
L 115.568681 76.393774 
L 115.731758 76.377866 
L 115.786117 76.414165 
L 115.840476 76.179037 
L 115.894835 76.454466 
L 115.949194 76.404915 
L 116.003553 76.177852 
L 116.057912 76.33438 
L 116.275348 76.452508 
L 116.329706 76.26301 
L 116.384065 76.315792 
L 117.14509 76.431916 
L 117.199449 76.288015 
L 117.253808 76.362752 
L 117.308167 76.443856 
L 117.362526 76.393406 
L 117.416885 76.210584 
L 117.471244 76.379519 
L 117.634321 76.465998 
L 117.797398 76.263334 
L 117.960474 76.45582 
L 118.17791 76.417586 
L 118.232269 76.515392 
L 118.286628 76.392758 
L 118.66714 76.392022 
L 118.721499 76.260758 
L 118.775858 76.375168 
L 118.938935 76.282085 
L 119.047653 76.461826 
L 119.102012 76.33745 
L 119.156371 76.446031 
L 119.319448 76.333243 
L 119.373806 76.444007 
L 119.428165 76.365968 
L 119.536883 76.355276 
L 119.591242 76.284736 
L 119.645601 76.457872 
L 119.69996 76.377615 
L 119.863037 76.319184 
L 119.917396 76.242142 
L 119.971755 76.446417 
L 120.026114 76.316849 
L 120.080473 76.305919 
L 120.243549 76.393284 
L 120.460985 76.369466 
L 120.515344 76.278744 
L 120.569703 76.400334 
L 120.624062 76.316 
L 120.73278 76.444797 
L 120.787139 76.350715 
L 120.841498 76.394974 
L 120.895856 76.490415 
L 120.950215 76.419064 
L 121.330728 76.334386 
L 121.819958 76.360469 
L 121.874317 76.318053 
L 121.928676 76.433032 
L 121.983035 76.392207 
L 122.091753 76.374053 
L 122.309189 76.358525 
L 122.526624 76.349638 
L 122.635342 76.350996 
L 122.74406 76.375585 
L 122.852778 76.408518 
L 122.907137 76.330983 
L 122.961496 76.403566 
L 124.592264 76.358038 
L 124.809699 76.358453 
L 125.407648 76.364558 
L 125.679442 76.383107 
L 125.896878 76.359016 
L 127.636364 76.368329 
L 127.636364 76.368329 
" clip-path="url(#p4fef6bf1c1)" style="fill: none; stroke: #ffd92f; stroke-width: 1.5; stroke-linecap: square"/>
   </g>
   <g id="patch_3">
    <path d="M 10.8 133.2 
L 10.8 10.8 
" style="fill: none; stroke: #000000; stroke-width: 0.8; stroke-linejoin: miter; stroke-linecap: square"/>
   </g>
   <g id="patch_4">
    <path d="M 133.2 133.2 
L 133.2 10.8 
" style="fill: none; stroke: #000000; stroke-width: 0.8; stroke-linejoin: miter; stroke-linecap: square"/>
   </g>
   <g id="patch_5">
    <path d="M 10.8 133.2 
L 133.2 133.2 
" style="fill: none; stroke: #000000; stroke-width: 0.8; stroke-linejoin: miter; stroke-linecap: square"/>
   </g>
   <g id="patch_6">
    <path d="M 10.8 10.8 
L 133.2 10.8 
" style="fill: none; stroke: #000000; stroke-width: 0.8; stroke-linejoin: miter; stroke-linecap: square"/>
   </g>
  </g>
 </g>
 <defs>
  <clipPath id="p4fef6bf1c1">
   <rect x="10.8" y="10.8" width="122.4" height="122.4"/>
  </clipPath>
 </defs>
</svg>
