<?xml version="1.0" encoding="utf-8" standalone="no"?>
<!DOCTYPE svg PUBLIC "-//W3C//DTD SVG 1.1//EN"
  "http://www.w3.org/Graphics/SVG/1.1/DTD/svg11.dtd">
<svg xmlns:xlink="http://www.w3.org/1999/xlink" width="144pt" height="144pt" viewBox="0 0 144 144" xmlns="http://www.w3.org/2000/svg" version="1.1">
 <metadata>
  <rdf:RDF xmlns:dc="http://purl.org/dc/elements/1.1/" xmlns:cc="http://creativecommons.org/ns#" xmlns:rdf="http://www.w3.org/1999/02/22-rdf-syntax-ns#">
   <cc:Work>
    <dc:type rdf:resource="http://purl.org/dc/dcmitype/StillImage"/>
    <dc:date>2025-02-11T14:44:00.500754</dc:date>
    <dc:format>image/svg+xml</dc:format>
    <dc:creator>
     <cc:Agent>
      <dc:title>Matplotlib v3.8.0, https://matplotlib.org/</dc:title>
     </cc:Agent>
    </dc:creator>
   </cc:Work>
  </rdf:RDF>
 </metadata>
 <defs>
  <style type="text/css">*{stroke-linejoin: round; stroke-linecap: butt}</style>
 </defs>
 <g id="figure_1">
  <g id="patch_1">
   <path d="M 0 144 
L 144 144 
L 144 0 
L 0 0 
L 0 144 
z
" style="fill: none"/>
  </g>
  <g id="axes_1">
   <g id="patch_2">
    <path d="M 10.8 133.2 
L 133.2 133.2 
L 133.2 10.8 
L 10.8 10.8 
L 10.8 133.2 
z
" style="fill: none"/>
   </g>
   <g id="matplotlib.axis_1"/>
   <g id="matplotlib.axis_2"/>
   <g id="line2d_1">
    <path d="M 16.363636 86.310384 
L 16.417995 104.34168 
L 16.472354 58.855893 
L 16.526713 58.919593 
L 16.68979 101.718819 
L 16.744149 63.221891 
L 16.852867 63.251837 
L 16.907226 66.365165 
L 17.015944 107.438018 
L 17.17902 59.365118 
L 17.342097 107.316281 
L 17.505174 60.894117 
L 17.668251 88.649587 
L 17.72261 42.635273 
L 17.776969 82.902418 
L 17.831327 90.978191 
L 17.885686 72.444933 
L 17.940045 85.983491 
L 17.994404 82.801703 
L 18.048763 70.375396 
L 18.103122 86.148664 
L 18.266199 61.428573 
L 18.320558 96.237123 
L 18.429276 95.889823 
L 18.483635 40.880168 
L 18.537994 62.545065 
L 18.592352 101.203014 
L 18.646711 85.790225 
L 18.70107 84.74171 
L 18.864147 52.351636 
L 18.918506 82.101961 
L 18.972865 78.042986 
L 19.081583 62.530631 
L 19.190301 84.542116 
L 19.24466 63.698119 
L 19.299019 76.759469 
L 19.353377 72.167476 
L 19.516454 96.418429 
L 19.679531 60.57352 
L 19.788249 81.342311 
L 19.842608 78.126631 
L 19.896967 79.430191 
L 19.951326 56.698878 
L 20.005685 76.080657 
L 20.060044 77.986759 
L 20.114402 72.546553 
L 20.22312 95.843359 
L 20.331838 66.155828 
L 20.386197 126.848929 
L 20.440556 68.445406 
L 20.494915 112.79645 
L 20.549274 80.948975 
L 20.712351 69.653188 
L 20.821069 103.697487 
L 20.875427 91.751089 
L 20.929786 79.825497 
L 21.038504 78.50318 
L 21.092863 114.855352 
L 21.201581 64.523908 
L 21.25594 102.43635 
L 21.310299 89.914779 
L 21.364658 92.526095 
L 21.419017 68.584055 
L 21.473376 106.838232 
L 21.527735 53.669735 
L 21.582094 88.099678 
L 21.636452 74.977369 
L 21.690811 112.601316 
L 21.799529 41.208871 
L 21.908247 72.874083 
L 21.962606 62.716448 
L 22.016965 69.670532 
L 22.071324 107.817193 
L 22.125683 77.822185 
L 22.234401 29.795473 
L 22.343119 100.725535 
L 22.451836 93.509641 
L 22.506195 77.035863 
L 22.560554 104.484048 
L 22.669272 42.865559 
L 22.832349 105.344224 
L 22.941067 94.983946 
L 22.995426 61.161892 
L 23.049785 66.399959 
L 23.104144 69.249622 
L 23.158502 85.043809 
L 23.26722 52.160657 
L 23.484656 108.936738 
L 23.702092 55.020928 
L 23.756451 61.688385 
L 23.81081 71.504613 
L 23.865169 46.256963 
L 23.919527 49.214625 
L 23.973886 112.883784 
L 24.028245 56.238848 
L 24.136963 100.416686 
L 24.191322 84.661427 
L 24.354399 70.920922 
L 24.408758 80.382154 
L 24.463117 46.00916 
L 24.517476 60.304837 
L 24.626194 72.63917 
L 24.680552 65.22172 
L 24.78927 72.317125 
L 24.843629 66.105496 
L 24.897988 67.453007 
L 24.952347 102.486453 
L 25.006706 68.999064 
L 25.061065 29.669792 
L 25.169783 100.25947 
L 25.224142 51.128047 
L 25.278501 88.437036 
L 25.33286 73.696304 
L 25.495936 111.928486 
L 25.659013 53.718892 
L 25.82209 85.841077 
L 25.876449 120.184039 
L 25.930808 102.521136 
L 25.985167 83.846149 
L 26.039526 103.199697 
L 26.093885 99.87869 
L 26.148244 86.436286 
L 26.202602 100.611305 
L 26.31132 39.171074 
L 26.365679 77.444506 
L 26.420038 71.606964 
L 26.474397 87.827728 
L 26.528756 44.872702 
L 26.583115 109.340193 
L 26.637474 90.98809 
L 26.691833 89.849477 
L 26.746192 33.261914 
L 26.800551 118.530958 
L 26.85491 89.866621 
L 26.909269 97.44453 
L 27.017986 65.968462 
L 27.072345 112.722449 
L 27.126704 106.285758 
L 27.289781 48.833021 
L 27.34414 99.385097 
L 27.398499 78.194202 
L 27.452858 82.456975 
L 27.507217 46.827115 
L 27.561576 62.370195 
L 27.670294 83.357701 
L 27.724652 58.911442 
L 27.779011 72.183185 
L 27.887729 103.969253 
L 28.050806 43.817705 
L 28.159524 67.684252 
L 28.213883 45.878864 
L 28.37696 99.790239 
L 28.431319 71.685539 
L 28.485677 90.89253 
L 28.540036 102.475906 
L 28.703113 76.786363 
L 28.757472 85.925982 
L 28.811831 78.549367 
L 28.86619 56.668484 
L 28.920549 56.902706 
L 28.974908 72.411323 
L 29.029267 54.985031 
L 29.083626 65.150393 
L 29.246702 98.09939 
L 29.301061 73.334161 
L 29.35542 114.956531 
L 29.464138 113.9908 
L 29.518497 41.267551 
L 29.572856 73.366232 
L 29.627215 94.386353 
L 29.681574 67.235357 
L 29.735933 70.520265 
L 29.790292 97.570986 
L 29.953369 52.68627 
L 30.007727 39.313329 
L 30.170804 107.766583 
L 30.225163 91.443834 
L 30.279522 66.036392 
L 30.333881 99.299899 
L 30.38824 68.42765 
L 30.442599 72.101736 
L 30.496958 64.697441 
L 30.660035 104.889589 
L 30.823111 66.160521 
L 30.87747 70.465253 
L 31.040547 129.906815 
L 31.094906 58.694827 
L 31.149265 74.991999 
L 31.257983 95.50345 
L 31.312342 73.828135 
L 31.366701 74.094282 
L 31.42106 81.191019 
L 31.475419 44.795178 
L 31.529778 95.651205 
L 31.584136 64.774803 
L 31.638495 93.372908 
L 31.692854 80.97868 
L 31.801572 56.751706 
L 31.855931 97.942051 
L 31.91029 95.958871 
L 32.073367 65.507074 
L 32.127726 78.57547 
L 32.182085 123.022831 
L 32.236444 94.797463 
L 32.39952 81.02999 
L 32.453879 44.605226 
L 32.508238 76.368501 
L 32.562597 98.946165 
L 32.671315 67.342605 
L 32.725674 68.510447 
L 32.780033 69.946356 
L 32.834392 57.682773 
L 32.888751 65.816197 
L 32.94311 93.315537 
L 32.997469 78.699073 
L 33.051828 75.274733 
L 33.106186 39.929024 
L 33.214904 98.507731 
L 33.377981 67.682916 
L 33.541058 102.973951 
L 33.595417 65.620607 
L 33.649776 75.136676 
L 33.704135 101.988038 
L 33.758494 48.900464 
L 33.812853 59.35034 
L 33.975929 79.968323 
L 34.030288 52.354504 
L 34.084647 96.067524 
L 34.139006 14.493417 
L 34.193365 51.093822 
L 34.410801 108.376981 
L 34.46516 112.521703 
L 34.573878 65.220236 
L 34.628236 96.231484 
L 34.682595 91.444421 
L 34.845672 79.175219 
L 34.95439 111.402487 
L 35.117467 60.517933 
L 35.171826 62.56621 
L 35.280544 94.879177 
L 35.334903 91.218757 
L 35.389261 23.35371 
L 35.44362 73.488087 
L 35.552338 92.970729 
L 35.606697 77.726666 
L 35.661056 111.737822 
L 35.715415 86.417316 
L 35.769774 25.677543 
L 35.824133 76.301275 
L 35.878492 54.888915 
L 35.932851 105.908609 
L 35.98721 87.418375 
L 36.041569 88.355842 
L 36.150286 41.093355 
L 36.204645 84.64418 
L 36.259004 76.75238 
L 36.422081 46.239597 
L 36.639517 101.128082 
L 36.693876 96.014932 
L 36.748235 56.38192 
L 36.802594 89.533886 
L 36.856953 90.425369 
L 36.911311 54.373755 
L 36.96567 62.808852 
L 37.020029 95.393869 
L 37.074388 68.703791 
L 37.183106 53.815496 
L 37.291824 66.739966 
L 37.346183 102.876076 
L 37.400542 68.414044 
L 37.454901 57.410116 
L 37.50926 98.65739 
L 37.563619 45.397058 
L 37.617978 56.753398 
L 37.781054 81.24366 
L 37.835413 78.730521 
L 37.889772 64.339439 
L 38.052849 89.562223 
L 38.215926 60.091958 
L 38.270285 74.277426 
L 38.324644 62.352952 
L 38.379003 40.903248 
L 38.433361 96.885498 
L 38.48772 75.613103 
L 38.542079 61.198104 
L 38.650797 88.252239 
L 38.705156 80.724827 
L 38.759515 59.349194 
L 38.813874 60.890381 
L 38.922592 89.735054 
L 38.976951 68.332807 
L 39.03131 76.545612 
L 39.140028 121.24266 
L 39.357463 48.794094 
L 39.52054 87.93499 
L 39.574899 72.273977 
L 39.629258 69.744462 
L 39.683617 75.306432 
L 39.737976 73.12106 
L 39.792335 111.543272 
L 39.846694 79.770782 
L 39.901053 93.136834 
L 40.00977 54.883864 
L 40.064129 88.513514 
L 40.118488 60.480261 
L 40.172847 54.023656 
L 40.227206 82.073282 
L 40.281565 53.980458 
L 40.335924 57.243107 
L 40.390283 102.696541 
L 40.444642 79.519554 
L 40.499001 77.078469 
L 40.607719 51.461456 
L 40.716436 77.872092 
L 40.770795 76.478823 
L 40.933872 43.895306 
L 41.151308 89.436568 
L 41.205667 68.831722 
L 41.260026 81.325008 
L 41.314385 92.415735 
L 41.477461 75.347275 
L 41.640538 119.136073 
L 41.749256 83.903068 
L 41.912333 114.555725 
L 41.966692 104.929868 
L 42.129769 50.07802 
L 42.184128 54.67699 
L 42.238486 77.475427 
L 42.292845 49.316529 
L 42.401563 89.365799 
L 42.455922 65.695003 
L 42.510281 82.32971 
L 42.56464 70.218855 
L 42.618999 76.903495 
L 42.727717 117.711678 
L 42.836435 46.207254 
L 42.945153 91.263383 
L 43.05387 58.07755 
L 43.108229 63.041604 
L 43.271306 108.171183 
L 43.380024 79.831224 
L 43.434383 96.718314 
L 43.59746 77.974521 
L 43.651819 71.681377 
L 43.814895 100.243485 
L 43.923613 66.984743 
L 43.977972 94.992027 
L 44.032331 50.805304 
L 44.08669 72.324449 
L 44.249767 83.613228 
L 44.304126 47.165033 
L 44.358485 92.098532 
L 44.412844 84.065426 
L 44.467203 42.914722 
L 44.521561 90.072156 
L 44.57592 69.62069 
L 44.630279 71.937544 
L 44.684638 83.774875 
L 44.738997 56.430036 
L 44.793356 74.324318 
L 44.847715 65.293577 
L 44.902074 70.086523 
L 45.010792 85.060865 
L 45.065151 59.388696 
L 45.11951 78.677592 
L 45.228228 75.48574 
L 45.282586 82.900687 
L 45.336945 69.152982 
L 45.445663 112.556874 
L 45.500022 65.953758 
L 45.554381 105.368718 
L 45.771817 36.328643 
L 45.934894 91.055487 
L 45.989253 81.963203 
L 46.043611 87.928333 
L 46.09797 100.682608 
L 46.152329 88.293127 
L 46.206688 93.074361 
L 46.315406 62.509523 
L 46.424124 63.904267 
L 46.478483 93.726508 
L 46.532842 86.918979 
L 46.587201 87.820613 
L 46.695919 69.909156 
L 46.750278 79.553188 
L 46.804636 120.766373 
L 46.858995 94.666082 
L 46.913354 69.488482 
L 46.967713 113.300773 
L 47.022072 74.498208 
L 47.076431 63.458741 
L 47.13079 64.746263 
L 47.239508 86.67534 
L 47.293867 55.228362 
L 47.348226 65.54714 
L 47.402585 61.788963 
L 47.62002 96.423092 
L 47.674379 56.693671 
L 47.728738 85.367014 
L 47.783097 60.022538 
L 47.837456 83.992669 
L 48.000533 77.220927 
L 48.054892 77.726016 
L 48.109251 119.459195 
L 48.16361 92.797828 
L 48.272328 33.700363 
L 48.326687 84.96479 
L 48.381045 70.222217 
L 48.435404 82.290216 
L 48.489763 74.510608 
L 48.65284 63.914657 
L 48.707199 79.750414 
L 48.761558 64.594733 
L 48.870276 99.433227 
L 48.924635 59.302755 
L 48.978994 81.279633 
L 49.033353 84.572284 
L 49.087712 70.404004 
L 49.14207 83.445131 
L 49.196429 91.194216 
L 49.250788 79.53813 
L 49.305147 89.300008 
L 49.413865 65.846954 
L 49.468224 89.262471 
L 49.522583 74.886586 
L 49.631301 53.980916 
L 49.740019 109.799071 
L 49.794378 103.232774 
L 49.903095 64.493768 
L 49.957454 87.780487 
L 50.011813 105.81976 
L 50.066172 59.745536 
L 50.17489 61.710525 
L 50.283608 96.500095 
L 50.337967 68.643495 
L 50.392326 82.323894 
L 50.501044 97.933163 
L 50.555403 74.402807 
L 50.609762 95.690028 
L 50.66412 82.712111 
L 50.718479 34.208042 
L 50.772838 99.867007 
L 50.827197 91.050158 
L 50.881556 66.502598 
L 50.935915 109.050399 
L 50.990274 88.882594 
L 51.044633 52.60614 
L 51.098992 55.059863 
L 51.20771 69.432802 
L 51.262069 93.930942 
L 51.316428 83.841387 
L 51.370787 87.317267 
L 51.479504 59.595573 
L 51.533863 96.800977 
L 51.588222 95.187195 
L 51.69694 68.564505 
L 51.751299 71.317468 
L 51.805658 69.80204 
L 51.860017 89.598991 
L 52.023094 46.942579 
L 52.18617 84.823927 
L 52.240529 78.927391 
L 52.349247 94.537044 
L 52.403606 53.26397 
L 52.457965 67.26331 
L 52.566683 102.974408 
L 52.72976 47.54655 
L 52.784119 90.484677 
L 52.838478 87.746205 
L 52.947195 63.097755 
L 53.001554 80.639952 
L 53.055913 71.770991 
L 53.110272 74.806833 
L 53.164631 68.456805 
L 53.21899 80.789814 
L 53.273349 64.662689 
L 53.327708 76.202204 
L 53.436426 87.262145 
L 53.545144 70.169463 
L 53.599503 70.209874 
L 53.70822 80.548273 
L 53.816938 57.81714 
L 53.980015 79.451974 
L 54.088733 54.119966 
L 54.143092 74.363712 
L 54.197451 62.361377 
L 54.25181 52.743825 
L 54.414887 97.735059 
L 54.469245 87.340731 
L 54.523604 102.268959 
L 54.686681 54.362379 
L 54.74104 77.221274 
L 54.795399 70.859598 
L 54.849758 55.891652 
L 54.904117 81.882422 
L 54.958476 54.449885 
L 55.012835 61.027898 
L 55.121553 90.639849 
L 55.175912 85.463474 
L 55.23027 63.325059 
L 55.284629 105.711658 
L 55.338988 57.192332 
L 55.393347 60.916412 
L 55.556424 104.489005 
L 55.719501 58.232256 
L 55.828219 90.977915 
L 55.882578 76.529389 
L 55.936937 78.961217 
L 55.991295 82.386435 
L 56.100013 76.388869 
L 56.208731 91.9885 
L 56.371808 72.857299 
L 56.426167 97.499724 
L 56.480526 78.77245 
L 56.534885 89.56556 
L 56.589244 48.706034 
L 56.643603 81.170793 
L 56.697962 64.833908 
L 56.75232 69.914577 
L 56.806679 90.286835 
L 56.861038 75.584296 
L 56.915397 89.06232 
L 57.024115 69.150362 
L 57.187192 82.734448 
L 57.404628 52.914944 
L 57.458987 79.630098 
L 57.513345 63.779571 
L 57.567704 63.773952 
L 57.78514 91.155194 
L 57.839499 56.953193 
L 57.893858 85.367874 
L 57.948217 91.553768 
L 58.056935 64.418375 
L 58.165653 85.085965 
L 58.220012 74.305046 
L 58.27437 84.660708 
L 58.328729 78.116589 
L 58.383088 84.058404 
L 58.437447 88.678832 
L 58.600524 59.787673 
L 58.763601 72.658486 
L 58.81796 65.653777 
L 58.872319 97.961186 
L 58.926678 63.491912 
L 58.981037 72.999061 
L 59.035395 74.128686 
L 59.198472 100.643314 
L 59.415908 56.071648 
L 59.470267 68.029133 
L 59.524626 61.242614 
L 59.578985 45.276933 
L 59.742062 80.32255 
L 59.79642 66.148301 
L 59.850779 85.918282 
L 59.905138 71.515526 
L 59.959497 81.671959 
L 60.013856 52.361599 
L 60.068215 75.945412 
L 60.122574 87.554677 
L 60.176933 72.34688 
L 60.231292 112.810883 
L 60.285651 82.232381 
L 60.34001 106.706007 
L 60.394369 84.647881 
L 60.448728 72.154759 
L 60.503087 73.843777 
L 60.557445 98.998312 
L 60.611804 46.627024 
L 60.666163 81.445829 
L 60.720522 84.545129 
L 60.937958 63.610505 
L 60.992317 94.797137 
L 61.046676 79.694056 
L 61.101035 65.852364 
L 61.155394 72.985277 
L 61.209753 92.009316 
L 61.264112 61.727828 
L 61.31847 96.491694 
L 61.372829 76.876656 
L 61.427188 59.009389 
L 61.481547 68.680697 
L 61.590265 74.932803 
L 61.644624 73.522537 
L 61.698983 94.946072 
L 61.753342 75.094806 
L 61.807701 64.424891 
L 61.86206 66.749178 
L 61.916419 71.941182 
L 61.970778 97.966405 
L 62.025137 64.400634 
L 62.079495 85.51041 
L 62.133854 98.893741 
L 62.242572 75.760202 
L 62.296931 83.012466 
L 62.35129 82.998194 
L 62.405649 79.172354 
L 62.460008 63.588805 
L 62.514367 69.659843 
L 62.568726 91.782312 
L 62.623085 76.360269 
L 62.731803 68.308565 
L 62.894879 84.562972 
L 62.949238 70.586473 
L 63.003597 105.734777 
L 63.057956 86.395337 
L 63.221033 47.836111 
L 63.275392 99.124463 
L 63.329751 83.103807 
L 63.38411 68.242719 
L 63.438469 71.145686 
L 63.492828 93.536799 
L 63.547187 73.320109 
L 63.601545 60.190179 
L 63.655904 93.239463 
L 63.710263 68.142592 
L 63.764622 61.958638 
L 63.87334 75.215788 
L 63.927699 71.580203 
L 63.982058 97.683384 
L 64.036417 75.612282 
L 64.090776 72.863341 
L 64.199494 81.091 
L 64.253853 78.442975 
L 64.308212 71.71471 
L 64.362571 74.833735 
L 64.471288 84.294044 
L 64.580006 64.047316 
L 64.688724 89.869325 
L 64.743083 69.382624 
L 64.797442 78.254862 
L 64.851801 79.765971 
L 64.90616 59.780786 
L 64.960519 60.444947 
L 65.014878 65.204398 
L 65.069237 79.920261 
L 65.177954 53.875953 
L 65.286672 98.388885 
L 65.341031 81.929913 
L 65.39539 79.94581 
L 65.504108 52.688686 
L 65.558467 93.089393 
L 65.612826 51.34704 
L 65.667185 92.639542 
L 65.830262 59.653509 
L 65.993338 91.491791 
L 66.047697 84.253799 
L 66.102056 51.488085 
L 66.156415 62.25591 
L 66.265133 61.808977 
L 66.319492 91.670125 
L 66.373851 71.187261 
L 66.42821 85.785218 
L 66.482569 84.112619 
L 66.591287 56.656098 
L 66.645646 91.968537 
L 66.700004 70.388267 
L 66.754363 70.478715 
L 66.863081 85.65722 
L 66.91744 81.27184 
L 67.026158 56.273823 
L 67.080517 66.683597 
L 67.134876 98.250661 
L 67.189235 83.647487 
L 67.243594 94.794476 
L 67.297953 89.652225 
L 67.461029 50.668017 
L 67.624106 81.133682 
L 67.678465 77.189199 
L 67.732824 80.429728 
L 67.787183 85.832938 
L 67.841542 71.926608 
L 67.895901 88.339252 
L 67.95026 60.477085 
L 68.004619 63.865221 
L 68.058978 80.400099 
L 68.113337 53.744871 
L 68.167696 73.389914 
L 68.276413 61.648321 
L 68.330772 65.356656 
L 68.493849 104.975167 
L 68.548208 66.516045 
L 68.602567 93.438549 
L 68.765644 68.564652 
L 68.874362 75.008042 
L 68.928721 66.340787 
L 68.983079 70.416133 
L 69.037438 71.52763 
L 69.091797 98.113512 
L 69.146156 70.868196 
L 69.200515 90.623566 
L 69.254874 66.807375 
L 69.309233 74.752472 
L 69.363592 76.370201 
L 69.47231 95.207793 
L 69.526669 59.532159 
L 69.581028 61.983487 
L 69.635387 78.509813 
L 69.689746 75.099062 
L 69.852822 79.380947 
L 69.907181 79.179668 
L 69.96154 75.03415 
L 70.015899 86.762792 
L 70.124617 66.262342 
L 70.178976 70.664223 
L 70.233335 76.409065 
L 70.287694 70.189649 
L 70.342053 100.701205 
L 70.396412 73.971212 
L 70.450771 80.217846 
L 70.505129 65.011142 
L 70.559488 92.724505 
L 70.613847 86.541138 
L 70.722565 82.464151 
L 70.776924 51.458604 
L 70.831283 73.97684 
L 70.940001 54.194121 
L 70.99436 86.014518 
L 71.048719 79.347597 
L 71.103078 70.846963 
L 71.157437 88.943662 
L 71.211796 78.08623 
L 71.266154 76.017817 
L 71.320513 66.802089 
L 71.48359 93.530871 
L 71.592308 76.791688 
L 71.646667 95.733195 
L 71.701026 79.443651 
L 71.809744 70.098016 
L 71.918462 81.573926 
L 71.972821 74.060579 
L 72.027179 92.770997 
L 72.081538 66.937497 
L 72.135897 87.249946 
L 72.298974 71.875737 
L 72.353333 102.039062 
L 72.407692 89.181394 
L 72.462051 99.57709 
L 72.51641 66.081403 
L 72.570769 79.178797 
L 72.679487 67.308991 
L 72.733846 99.125091 
L 72.788204 69.524079 
L 72.896922 76.455816 
L 72.951281 61.875474 
L 73.00564 73.249943 
L 73.059999 100.930245 
L 73.114358 82.551056 
L 73.277435 69.161758 
L 73.440512 85.852312 
L 73.494871 72.494946 
L 73.549229 78.113011 
L 73.657947 91.426912 
L 73.712306 90.946413 
L 73.766665 67.868878 
L 73.821024 78.263405 
L 73.875383 86.941714 
L 73.929742 75.086528 
L 73.984101 91.148895 
L 74.03846 75.482796 
L 74.092819 84.298404 
L 74.255896 69.388799 
L 74.310254 65.428285 
L 74.418972 89.626341 
L 74.582049 71.158085 
L 74.636408 91.991416 
L 74.690767 72.447166 
L 74.745126 63.724412 
L 74.799485 69.372091 
L 74.908203 81.62642 
L 74.962562 78.009268 
L 75.016921 78.170748 
L 75.125638 67.585169 
L 75.234356 82.242673 
L 75.343074 64.333203 
L 75.451792 80.640445 
L 75.506151 72.593594 
L 75.56051 79.157627 
L 75.614869 79.010405 
L 75.777946 88.826485 
L 75.886663 76.696267 
L 75.995381 89.05269 
L 76.158458 61.591625 
L 76.212817 86.198154 
L 76.267176 51.981315 
L 76.321535 72.176015 
L 76.375894 66.559335 
L 76.430253 69.853054 
L 76.484612 84.595197 
L 76.593329 61.814923 
L 76.702047 81.004334 
L 76.810765 76.298631 
L 76.865124 81.780004 
L 77.08256 66.275862 
L 77.245637 88.998243 
L 77.299996 78.995252 
L 77.354354 79.837477 
L 77.408713 85.382759 
L 77.463072 80.286616 
L 77.517431 71.783965 
L 77.57179 84.656546 
L 77.626149 83.679209 
L 77.680508 75.344932 
L 77.734867 87.282506 
L 77.789226 80.263491 
L 77.897944 62.657185 
L 78.006662 85.819218 
L 78.115379 69.547904 
L 78.169738 72.720696 
L 78.224097 87.408793 
L 78.278456 83.693873 
L 78.387174 69.742677 
L 78.441533 71.087702 
L 78.495892 73.560158 
L 78.550251 84.567391 
L 78.60461 56.201175 
L 78.658969 68.09516 
L 78.713328 62.500291 
L 78.767687 68.077018 
L 78.876404 85.462496 
L 78.930763 64.190211 
L 78.985122 69.991863 
L 79.039481 81.618438 
L 79.09384 76.007768 
L 79.148199 78.075672 
L 79.202558 92.13308 
L 79.256917 82.13102 
L 79.311276 74.155415 
L 79.365635 84.003958 
L 79.419994 83.26359 
L 79.474353 76.093752 
L 79.528712 94.741871 
L 79.583071 75.793715 
L 79.637429 81.928976 
L 79.691788 75.885266 
L 79.746147 80.354377 
L 79.800506 69.435731 
L 79.854865 88.983727 
L 79.909224 70.140659 
L 79.963583 75.949588 
L 80.017942 73.655956 
L 80.072301 74.174745 
L 80.181019 74.171559 
L 80.235378 82.97392 
L 80.344096 69.940195 
L 80.452813 96.067 
L 80.507172 88.554001 
L 80.670249 72.641061 
L 80.724608 91.619492 
L 80.778967 82.524047 
L 80.833326 68.488415 
L 80.887685 79.16654 
L 80.942044 75.837204 
L 80.996403 76.49955 
L 81.050762 86.310879 
L 81.105121 74.909829 
L 81.15948 80.914781 
L 81.213838 93.506603 
L 81.268197 84.32219 
L 81.322556 86.038919 
L 81.539992 62.249074 
L 81.703069 86.264606 
L 81.757428 60.421556 
L 81.811787 93.835615 
L 81.866146 88.175227 
L 81.974863 68.872537 
L 82.029222 93.165814 
L 82.083581 77.478351 
L 82.13794 74.065542 
L 82.192299 91.257924 
L 82.246658 71.135456 
L 82.301017 90.024229 
L 82.409735 73.277888 
L 82.464094 82.870473 
L 82.518453 62.10842 
L 82.572812 76.347579 
L 82.627171 66.170492 
L 82.68153 92.174353 
L 82.735888 66.050328 
L 82.790247 80.36095 
L 82.844606 64.501897 
L 82.898965 87.440343 
L 82.953324 53.675706 
L 83.007683 72.608283 
L 83.062042 79.960631 
L 83.116401 72.285158 
L 83.17076 72.159015 
L 83.225119 70.00915 
L 83.279478 78.273236 
L 83.333837 65.480868 
L 83.388196 74.579343 
L 83.442555 83.743169 
L 83.496913 82.607054 
L 83.714349 74.330746 
L 83.768708 78.53774 
L 83.877426 67.767333 
L 84.040503 84.792676 
L 84.094862 71.67087 
L 84.149221 73.033253 
L 84.312297 92.517771 
L 84.475374 64.840731 
L 84.584092 85.130853 
L 84.638451 84.808412 
L 84.69281 74.10703 
L 84.747169 81.389628 
L 84.801528 81.747314 
L 84.855887 69.524377 
L 84.910246 79.930045 
L 84.964605 82.061494 
L 85.018963 71.68456 
L 85.073322 91.448903 
L 85.127681 76.099705 
L 85.236399 85.095449 
L 85.345117 69.740382 
L 85.399476 71.745784 
L 85.508194 77.772643 
L 85.562553 62.736723 
L 85.616912 77.851818 
L 85.671271 77.806655 
L 85.834347 86.798082 
L 85.943065 72.128218 
L 86.051783 92.817097 
L 86.106142 72.401764 
L 86.160501 76.753404 
L 86.21486 87.388898 
L 86.269219 79.921523 
L 86.323578 65.802195 
L 86.377937 79.193626 
L 86.432296 77.91778 
L 86.486655 71.145543 
L 86.541013 91.60475 
L 86.595372 72.496206 
L 86.649731 82.915112 
L 86.70409 82.593248 
L 86.867167 76.194385 
L 86.921526 70.909449 
L 86.975885 76.340301 
L 87.030244 75.039251 
L 87.193321 84.920044 
L 87.24768 86.237825 
L 87.410756 74.450295 
L 87.465115 79.664065 
L 87.519474 77.655259 
L 87.573833 63.045603 
L 87.628192 76.646511 
L 87.682551 77.936858 
L 87.73691 82.818085 
L 87.791269 64.391472 
L 87.845628 66.134345 
L 88.063063 83.454588 
L 88.117422 81.947391 
L 88.171781 74.228127 
L 88.22614 74.775011 
L 88.280499 83.815666 
L 88.334858 72.89337 
L 88.389217 80.333568 
L 88.443576 90.55263 
L 88.552294 77.577699 
L 88.606653 93.192925 
L 88.661012 67.814059 
L 88.715371 72.628397 
L 88.76973 70.798546 
L 88.824088 86.146338 
L 88.878447 86.100066 
L 88.932806 73.347082 
L 88.987165 80.417132 
L 89.041524 80.827339 
L 89.095883 87.684544 
L 89.150242 66.662819 
L 89.204601 78.789038 
L 89.313319 73.897919 
L 89.422037 83.127291 
L 89.476396 73.634903 
L 89.530755 84.874134 
L 89.585113 64.831048 
L 89.639472 90.387041 
L 89.693831 84.846922 
L 89.74819 72.682846 
L 89.802549 82.645864 
L 89.911267 64.456682 
L 89.965626 67.232822 
L 90.128703 80.10505 
L 90.183062 69.099371 
L 90.237421 76.615167 
L 90.29178 77.510207 
L 90.346138 85.281714 
L 90.400497 78.916614 
L 90.454856 81.6763 
L 90.509215 70.835192 
L 90.563574 76.938786 
L 90.617933 75.531974 
L 90.672292 65.239736 
L 90.78101 82.469508 
L 90.889728 64.752306 
L 90.998446 82.215312 
L 91.107163 75.645373 
L 91.161522 77.463607 
L 91.215881 74.853687 
L 91.27024 83.515928 
L 91.324599 71.585573 
L 91.378958 75.362375 
L 91.487676 79.353145 
L 91.542035 71.74481 
L 91.596394 73.476173 
L 91.650753 73.368909 
L 91.705112 78.582973 
L 91.759471 74.230081 
L 91.81383 76.658176 
L 91.868188 88.443869 
L 91.922547 70.492406 
L 91.976906 79.694438 
L 92.139983 76.133851 
L 92.248701 90.128043 
L 92.30306 81.814346 
L 92.411778 73.13328 
L 92.466137 88.097451 
L 92.520496 82.403445 
L 92.574855 73.641673 
L 92.629213 76.531535 
L 92.683572 80.367113 
L 92.737931 68.375297 
L 92.79229 81.576315 
L 92.846649 78.983799 
L 92.901008 74.243785 
L 92.955367 76.209157 
L 93.009726 81.114254 
L 93.064085 79.506597 
L 93.227162 70.436671 
L 93.281521 72.753173 
L 93.390238 82.158674 
L 93.444597 78.259153 
L 93.498956 79.434476 
L 93.607674 66.934795 
L 93.662033 67.373241 
L 93.82511 81.660826 
L 93.933828 79.909894 
L 93.988187 72.086767 
L 94.042546 72.823319 
L 94.096905 75.821019 
L 94.151263 92.640584 
L 94.205622 72.47247 
L 94.259981 80.567455 
L 94.31434 85.448532 
L 94.368699 75.726783 
L 94.477417 75.816678 
L 94.640494 88.314609 
L 94.85793 74.341702 
L 94.912288 75.653785 
L 95.075365 71.073844 
L 95.129724 81.068787 
L 95.184083 69.490319 
L 95.238442 79.186559 
L 95.292801 84.726068 
L 95.34716 64.661109 
L 95.401519 77.469536 
L 95.455878 75.573925 
L 95.510237 88.946096 
L 95.564596 82.364105 
L 95.673313 75.518336 
L 95.83639 81.927897 
L 95.945108 70.176606 
L 96.162544 88.274385 
L 96.216903 69.78087 
L 96.271262 76.806833 
L 96.325621 79.103554 
L 96.488697 68.268299 
L 96.543056 81.805738 
L 96.597415 78.042096 
L 96.651774 69.655963 
L 96.814851 81.334469 
L 96.86921 77.06409 
L 96.923569 78.952311 
L 96.977928 79.518804 
L 97.032287 77.594106 
L 97.086646 71.091244 
L 97.141005 80.338555 
L 97.195364 77.47815 
L 97.249722 73.932889 
L 97.35844 82.399699 
L 97.467158 77.877739 
L 97.521517 81.773804 
L 97.575876 73.603168 
L 97.630235 76.17354 
L 97.738953 82.502124 
L 97.793312 79.218835 
L 97.847671 79.659805 
L 97.90203 84.249667 
L 97.956389 80.638699 
L 98.010747 71.14584 
L 98.065106 80.975817 
L 98.119465 83.243714 
L 98.228183 71.536172 
L 98.336901 77.120377 
L 98.39126 67.631596 
L 98.445619 77.117591 
L 98.499978 70.955172 
L 98.554337 71.673893 
L 98.663055 75.531169 
L 98.826131 84.178737 
L 98.88049 84.62968 
L 98.989208 70.168965 
L 99.043567 81.603435 
L 99.152285 81.343165 
L 99.206644 69.938272 
L 99.261003 70.853805 
L 99.369721 83.082207 
L 99.42408 74.4916 
L 99.478439 78.552279 
L 99.587156 74.309358 
L 99.641515 76.795844 
L 99.695874 72.094592 
L 99.858951 78.895936 
L 99.91331 70.251733 
L 99.967669 71.373755 
L 100.130746 81.553434 
L 100.239464 74.450371 
L 100.293822 78.924721 
L 100.348181 71.331456 
L 100.40254 74.081797 
L 100.456899 79.994129 
L 100.511258 71.930628 
L 100.565617 86.590255 
L 100.619976 71.995635 
L 100.728694 73.155433 
L 100.783053 81.635071 
L 100.837412 77.03619 
L 100.891771 74.768237 
L 100.94613 80.117191 
L 101.000489 78.349928 
L 101.217924 82.327146 
L 101.272283 69.754809 
L 101.326642 79.464158 
L 101.381001 78.591324 
L 101.43536 80.392408 
L 101.544078 68.254934 
L 101.761514 80.311428 
L 101.815872 79.692863 
L 101.870231 71.692684 
L 101.92459 74.536878 
L 101.978949 76.730727 
L 102.033308 73.162366 
L 102.087667 75.88352 
L 102.142026 76.041081 
L 102.196385 73.213056 
L 102.250744 76.888677 
L 102.305103 75.402955 
L 102.359462 73.164034 
L 102.413821 80.336241 
L 102.46818 76.938394 
L 102.576897 76.050679 
L 102.685615 81.490955 
L 102.794333 75.529515 
L 102.848692 77.165263 
L 102.95741 80.095345 
L 103.011769 67.319643 
L 103.066128 76.558599 
L 103.120487 75.908573 
L 103.174846 79.316048 
L 103.229205 76.648379 
L 103.283564 78.58077 
L 103.337922 78.146645 
L 103.392281 77.440347 
L 103.44664 82.566078 
L 103.609717 76.320364 
L 103.664076 75.826215 
L 103.718435 74.048679 
L 103.772794 79.433568 
L 103.827153 79.127613 
L 103.881512 72.61444 
L 103.935871 75.396353 
L 104.098947 79.699899 
L 104.153306 75.628624 
L 104.207665 78.777278 
L 104.262024 84.155105 
L 104.425101 75.694702 
L 104.47946 74.501599 
L 104.642537 82.275877 
L 104.696896 82.193213 
L 104.751255 73.521955 
L 104.805614 78.781146 
L 104.859972 80.162433 
L 104.914331 76.203847 
L 104.96869 79.384463 
L 105.131767 73.859862 
L 105.186126 76.93263 
L 105.240485 71.463158 
L 105.294844 76.638227 
L 105.349203 76.409612 
L 105.51228 81.016895 
L 105.566639 72.31414 
L 105.620997 81.102002 
L 105.675356 80.545236 
L 105.838433 70.865974 
L 105.892792 85.166174 
L 105.947151 79.960467 
L 106.00151 76.140219 
L 106.055869 79.727923 
L 106.110228 77.219158 
L 106.164587 79.107392 
L 106.273305 75.973402 
L 106.327664 82.037282 
L 106.382022 70.358072 
L 106.436381 80.35615 
L 106.49074 73.654341 
L 106.545099 79.468207 
L 106.599458 76.9234 
L 106.653817 76.963003 
L 106.708176 77.233887 
L 106.762535 76.688345 
L 106.816894 78.756072 
L 106.925612 74.610913 
L 106.979971 78.025518 
L 107.088689 77.987515 
L 107.143047 73.948242 
L 107.197406 77.235754 
L 107.251765 75.602184 
L 107.414842 79.551218 
L 107.577919 84.428043 
L 107.632278 75.733173 
L 107.686637 79.480519 
L 107.958431 74.833336 
L 108.01279 84.813203 
L 108.067149 78.578911 
L 108.121508 80.445298 
L 108.284585 74.799167 
L 108.338944 74.475146 
L 108.393303 77.690358 
L 108.447662 74.541235 
L 108.502021 75.89641 
L 108.55638 73.570432 
L 108.610739 79.666201 
L 108.665097 75.676198 
L 108.719456 76.398741 
L 108.773815 81.587108 
L 108.828174 76.593384 
L 108.882533 78.949375 
L 108.936892 76.343644 
L 109.099969 84.496817 
L 109.154328 74.965478 
L 109.208687 75.738545 
L 109.371764 78.552676 
L 109.426122 74.803747 
L 109.480481 76.636161 
L 109.53484 75.783445 
L 109.752276 79.138376 
L 109.860994 77.248243 
L 109.915353 83.119603 
L 109.969712 78.551882 
L 110.07843 73.448191 
L 110.241506 79.515859 
L 110.295865 76.906125 
L 110.350224 78.08156 
L 110.404583 77.836445 
L 110.458942 82.011508 
L 110.513301 74.127395 
L 110.56766 74.50756 
L 110.622019 79.073557 
L 110.676378 77.383365 
L 110.730737 74.047876 
L 110.893814 79.568091 
L 110.948172 74.302049 
L 111.002531 78.066151 
L 111.05689 74.739696 
L 111.165608 80.408216 
L 111.219967 80.13897 
L 111.274326 77.149 
L 111.328685 79.49108 
L 111.546121 72.346309 
L 111.709197 79.32426 
L 111.872274 73.726484 
L 111.926633 80.243402 
L 111.980992 74.358971 
L 112.035351 77.733379 
L 112.08971 73.124159 
L 112.144069 79.018378 
L 112.198428 78.249396 
L 112.252787 77.86633 
L 112.361505 75.278331 
L 112.524581 80.45136 
L 112.687658 74.377423 
L 112.796376 78.844088 
L 112.850735 76.692037 
L 112.905094 77.368701 
L 112.959453 76.960837 
L 113.013812 78.284414 
L 113.068171 77.391959 
L 113.12253 77.368489 
L 113.176889 76.849464 
L 113.285606 79.336572 
L 113.503042 75.791283 
L 113.557401 81.51335 
L 113.61176 78.386454 
L 113.666119 78.339006 
L 113.829196 75.509884 
L 113.883555 79.041617 
L 113.937914 78.993547 
L 114.046631 75.127865 
L 114.10099 78.155759 
L 114.155349 77.665967 
L 114.209708 77.135305 
L 114.264067 79.147445 
L 114.318426 74.747029 
L 114.372785 78.992343 
L 114.481503 77.264693 
L 114.535862 78.696692 
L 114.698939 75.352185 
L 114.807656 78.712722 
L 114.916374 76.123087 
L 115.079451 80.09949 
L 115.13381 75.041949 
L 115.188169 77.848492 
L 115.242528 79.623053 
L 115.296887 76.796689 
L 115.351246 79.767773 
L 115.405605 78.731751 
L 115.459964 78.3551 
L 115.514323 75.604978 
L 115.568681 76.951424 
L 115.62304 79.607895 
L 115.677399 76.956395 
L 115.731758 78.373368 
L 115.786117 76.837532 
L 115.840476 77.25153 
L 115.894835 77.694297 
L 115.949194 73.304097 
L 116.003553 78.43509 
L 116.057912 77.941027 
L 116.112271 77.234883 
L 116.275348 78.168892 
L 116.384065 77.554067 
L 116.492783 78.580817 
L 116.601501 75.48341 
L 116.764578 77.727756 
L 116.927655 76.212684 
L 117.036373 79.057063 
L 117.090731 77.805438 
L 117.14509 78.839771 
L 117.199449 76.308444 
L 117.253808 77.036067 
L 117.308167 77.43216 
L 117.362526 76.324862 
L 117.416885 78.499418 
L 117.471244 76.432429 
L 117.525603 76.822407 
L 117.579962 78.285729 
L 117.634321 77.461949 
L 117.68868 77.3449 
L 117.743039 78.625774 
L 117.851756 75.923855 
L 117.906115 79.792895 
L 117.960474 76.011224 
L 118.014833 76.53322 
L 118.069192 78.67178 
L 118.123551 76.833585 
L 118.17791 75.68896 
L 118.232269 78.539325 
L 118.286628 77.045275 
L 118.340987 77.073253 
L 118.395346 76.65579 
L 118.449705 77.227585 
L 118.504064 76.891933 
L 118.558423 75.120215 
L 118.721499 78.265034 
L 118.775858 76.609153 
L 118.830217 77.369824 
L 118.938935 79.907892 
L 118.993294 78.284398 
L 119.047653 75.688229 
L 119.102012 77.255599 
L 119.156371 76.983403 
L 119.265089 78.737255 
L 119.319448 77.707308 
L 119.373806 77.606064 
L 119.482524 76.989607 
L 119.536883 78.092118 
L 119.591242 77.561823 
L 119.69996 78.731988 
L 119.754319 78.49246 
L 119.808678 76.51427 
L 119.863037 78.86259 
L 119.917396 77.841962 
L 120.080473 75.742448 
L 120.026114 77.855691 
L 120.134831 75.814412 
L 120.18919 75.888619 
L 120.243549 76.53732 
L 120.297908 75.65939 
L 120.352267 78.167023 
L 120.406626 77.030905 
L 120.460985 76.968046 
L 120.515344 77.851862 
L 120.569703 75.81763 
L 120.624062 78.176849 
L 120.73278 78.156957 
L 120.787139 76.592077 
L 120.841498 77.302612 
L 120.895856 77.256171 
L 120.950215 78.271316 
L 121.113292 76.829716 
L 121.167651 78.737363 
L 121.22201 77.538951 
L 121.276369 77.566857 
L 121.330728 76.165112 
L 121.385087 76.993419 
L 121.439446 76.285851 
L 121.493805 78.358259 
L 121.548164 77.60561 
L 121.602523 77.980103 
L 121.656881 77.312874 
L 121.765599 78.083274 
L 121.874317 76.825813 
L 121.928676 77.944435 
L 121.983035 76.761879 
L 122.037394 77.111335 
L 122.091753 78.246974 
L 122.146112 76.454594 
L 122.200471 77.711775 
L 122.25483 77.883564 
L 122.363548 76.575234 
L 122.417906 77.426419 
L 122.526624 77.298334 
L 122.689701 77.816208 
L 122.74406 77.017085 
L 122.798419 77.566716 
L 122.852778 77.745177 
L 122.961496 76.788706 
L 123.124573 77.32533 
L 123.178931 76.773562 
L 123.23329 77.404336 
L 123.287649 77.213539 
L 123.396367 77.028164 
L 123.450726 77.625985 
L 123.505085 77.217684 
L 123.559444 77.23311 
L 123.613803 76.795065 
L 123.722521 77.808807 
L 123.77688 77.29769 
L 123.831239 77.64566 
L 123.885598 78.463345 
L 123.939956 77.16203 
L 123.994315 77.788956 
L 124.211751 77.414993 
L 124.320469 77.726016 
L 124.374828 77.662684 
L 124.429187 77.647546 
L 124.483546 77.306712 
L 124.537905 77.428671 
L 124.700981 78.126049 
L 124.75534 77.256426 
L 124.809699 77.360012 
L 124.864058 77.408286 
L 124.918417 77.868646 
L 124.972776 77.087286 
L 125.027135 77.68454 
L 125.081494 77.522777 
L 125.135853 77.656838 
L 125.190212 77.60254 
L 125.244571 77.746584 
L 125.353289 77.440383 
L 125.407648 77.863077 
L 125.462006 77.821346 
L 125.570724 77.062391 
L 125.625083 77.514518 
L 125.679442 77.461245 
L 125.842519 77.769076 
L 125.896878 77.231697 
L 125.951237 77.354782 
L 126.114314 77.585966 
L 126.223031 77.55053 
L 126.27739 77.60741 
L 126.440467 77.36233 
L 126.494826 77.518769 
L 126.549185 77.414907 
L 126.603544 77.311489 
L 126.766621 77.594352 
L 126.82098 77.457251 
L 126.875339 77.667381 
L 126.929698 77.515593 
L 127.147133 77.461365 
L 127.201492 77.545718 
L 127.255851 77.489226 
L 127.636364 77.487915 
L 127.636364 77.487915 
" clip-path="url(#p167a781fa6)" style="fill: none; stroke: #8da0cb; stroke-width: 1.5; stroke-linecap: square"/>
   </g>
   <g id="patch_3">
    <path d="M 10.8 133.2 
L 10.8 10.8 
" style="fill: none; stroke: #000000; stroke-width: 0.8; stroke-linejoin: miter; stroke-linecap: square"/>
   </g>
   <g id="patch_4">
    <path d="M 133.2 133.2 
L 133.2 10.8 
" style="fill: none; stroke: #000000; stroke-width: 0.8; stroke-linejoin: miter; stroke-linecap: square"/>
   </g>
   <g id="patch_5">
    <path d="M 10.8 133.2 
L 133.2 133.2 
" style="fill: none; stroke: #000000; stroke-width: 0.8; stroke-linejoin: miter; stroke-linecap: square"/>
   </g>
   <g id="patch_6">
    <path d="M 10.8 10.8 
L 133.2 10.8 
" style="fill: none; stroke: #000000; stroke-width: 0.8; stroke-linejoin: miter; stroke-linecap: square"/>
   </g>
  </g>
 </g>
 <defs>
  <clipPath id="p167a781fa6">
   <rect x="10.8" y="10.8" width="122.4" height="122.4"/>
  </clipPath>
 </defs>
</svg>
