<?xml version="1.0" encoding="utf-8" standalone="no"?>
<!DOCTYPE svg PUBLIC "-//W3C//DTD SVG 1.1//EN"
  "http://www.w3.org/Graphics/SVG/1.1/DTD/svg11.dtd">
<svg xmlns:xlink="http://www.w3.org/1999/xlink" width="144pt" height="144pt" viewBox="0 0 144 144" xmlns="http://www.w3.org/2000/svg" version="1.1">
 <metadata>
  <rdf:RDF xmlns:dc="http://purl.org/dc/elements/1.1/" xmlns:cc="http://creativecommons.org/ns#" xmlns:rdf="http://www.w3.org/1999/02/22-rdf-syntax-ns#">
   <cc:Work>
    <dc:type rdf:resource="http://purl.org/dc/dcmitype/StillImage"/>
    <dc:date>2025-02-11T14:44:00.638113</dc:date>
    <dc:format>image/svg+xml</dc:format>
    <dc:creator>
     <cc:Agent>
      <dc:title>Matplotlib v3.8.0, https://matplotlib.org/</dc:title>
     </cc:Agent>
    </dc:creator>
   </cc:Work>
  </rdf:RDF>
 </metadata>
 <defs>
  <style type="text/css">*{stroke-linejoin: round; stroke-linecap: butt}</style>
 </defs>
 <g id="figure_1">
  <g id="patch_1">
   <path d="M 0 144 
L 144 144 
L 144 0 
L 0 0 
L 0 144 
z
" style="fill: none"/>
  </g>
  <g id="axes_1">
   <g id="patch_2">
    <path d="M 10.8 133.2 
L 133.2 133.2 
L 133.2 10.8 
L 10.8 10.8 
L 10.8 133.2 
z
" style="fill: none"/>
   </g>
   <g id="matplotlib.axis_1"/>
   <g id="matplotlib.axis_2"/>
   <g id="line2d_1">
    <path d="M 16.363636 85.483469 
L 16.744149 85.466075 
L 16.907226 85.511062 
L 16.961585 85.422033 
L 17.015944 85.484367 
L 17.287738 85.579156 
L 17.450815 85.498628 
L 17.559533 85.424369 
L 17.613892 85.619878 
L 17.668251 85.556238 
L 17.831327 85.328922 
L 17.994404 85.518695 
L 18.048763 85.404465 
L 18.103122 85.633757 
L 18.157481 85.399893 
L 18.320558 85.6571 
L 18.374917 85.597444 
L 18.429276 85.293195 
L 18.483635 85.626311 
L 18.537994 85.541453 
L 18.70107 85.323025 
L 18.809788 85.579918 
L 18.918506 85.263396 
L 18.972865 85.852857 
L 19.027224 85.636081 
L 19.081583 85.084646 
L 19.135942 85.406891 
L 19.190301 86.028899 
L 19.24466 85.599702 
L 19.516454 84.881376 
L 19.625172 86.030559 
L 19.73389 85.327482 
L 19.788249 85.548286 
L 19.842608 85.458056 
L 19.896967 85.192605 
L 19.951326 85.295765 
L 20.168761 85.616473 
L 20.331838 85.208308 
L 20.494915 85.457154 
L 20.603633 85.192529 
L 20.657992 85.888861 
L 20.712351 85.313608 
L 20.76671 85.741421 
L 20.821069 85.384228 
L 20.875427 84.961052 
L 20.929786 85.322733 
L 21.038504 85.84697 
L 21.25594 84.926175 
L 21.310299 85.386407 
L 21.364658 85.355423 
L 21.419017 85.034655 
L 21.527735 85.895829 
L 21.582094 85.709778 
L 21.690811 85.486692 
L 21.853888 86.083296 
L 21.962606 85.257998 
L 22.016965 86.028915 
L 22.125683 84.654534 
L 22.180042 85.538757 
L 22.234401 85.02631 
L 22.28876 85.309947 
L 22.343119 84.978167 
L 22.397477 85.398275 
L 22.451836 85.135188 
L 22.506195 84.726845 
L 22.560554 86.11165 
L 22.614913 86.05936 
L 22.669272 85.079256 
L 22.723631 85.527811 
L 22.77799 85.319383 
L 22.832349 85.34368 
L 23.049785 86.091898 
L 23.158502 85.08127 
L 23.321579 86.105823 
L 23.430297 84.796978 
L 23.484656 86.598895 
L 23.539015 85.807845 
L 23.593374 85.233866 
L 23.647733 85.581319 
L 23.756451 86.193659 
L 23.81081 84.552523 
L 23.865169 85.26992 
L 23.919527 85.00233 
L 23.973886 86.652631 
L 24.028245 85.584776 
L 24.082604 85.881904 
L 24.245681 84.610985 
L 24.30004 86.437196 
L 24.354399 85.943575 
L 24.517476 84.838223 
L 24.571835 86.799541 
L 24.626194 86.282263 
L 24.680552 85.759219 
L 24.734911 85.983745 
L 24.952347 85.105421 
L 25.006706 85.828348 
L 25.061065 85.34958 
L 25.115424 85.380865 
L 25.169783 84.632768 
L 25.278501 86.106092 
L 25.33286 85.764972 
L 25.387219 83.974087 
L 25.441577 84.603913 
L 25.495936 85.764416 
L 25.550295 85.538095 
L 25.604654 85.31409 
L 25.659013 86.152432 
L 25.713372 85.645984 
L 25.767731 84.865886 
L 25.82209 85.820505 
L 25.876449 84.989284 
L 26.039526 85.794341 
L 26.093885 84.855506 
L 26.148244 86.271785 
L 26.202602 84.608981 
L 26.256961 84.938065 
L 26.365679 85.244584 
L 26.420038 85.171919 
L 26.528756 85.881524 
L 26.583115 85.309377 
L 26.637474 85.787254 
L 26.691833 86.315285 
L 26.746192 86.10889 
L 26.800551 84.370294 
L 26.85491 84.928279 
L 27.017986 86.404798 
L 27.072345 84.895938 
L 27.126704 85.841267 
L 27.181063 85.532908 
L 27.235422 86.105044 
L 27.398499 84.68971 
L 27.452858 86.317224 
L 27.507217 85.081418 
L 27.670294 86.070962 
L 27.724652 84.737428 
L 27.779011 84.910109 
L 27.83337 85.058714 
L 27.887729 85.839233 
L 28.050806 83.815788 
L 28.213883 86.729853 
L 28.268242 85.664937 
L 28.322601 86.363292 
L 28.431319 85.167128 
L 28.485677 85.324021 
L 28.540036 86.442277 
L 28.594395 86.419628 
L 28.648754 85.252532 
L 28.703113 85.819079 
L 28.811831 86.297443 
L 28.86619 84.843897 
L 28.920549 85.604337 
L 28.974908 86.624588 
L 29.029267 86.588966 
L 29.192344 84.807489 
L 29.246702 85.032781 
L 29.35542 86.659037 
L 29.518497 84.116136 
L 29.572856 85.937847 
L 29.627215 84.775589 
L 29.681574 84.548361 
L 29.735933 86.168927 
L 29.790292 85.001066 
L 30.007727 86.493033 
L 30.062086 84.292232 
L 30.116445 85.495246 
L 30.279522 87.016638 
L 30.442599 84.847366 
L 30.605676 86.258205 
L 30.660035 85.805271 
L 30.768752 86.832966 
L 30.823111 85.403892 
L 30.87747 89.080965 
L 30.986188 84.324307 
L 31.149265 85.608888 
L 31.203624 85.762877 
L 31.257983 86.574329 
L 31.312342 85.233436 
L 31.366701 85.907891 
L 31.42106 86.324495 
L 31.475419 86.027832 
L 31.584136 85.609378 
L 31.638495 83.621229 
L 31.692854 85.070165 
L 31.747213 84.604527 
L 31.91029 86.777991 
L 31.964649 84.750747 
L 32.073367 84.795273 
L 32.127726 84.098675 
L 32.236444 85.023404 
L 32.345161 83.181288 
L 32.508238 86.384554 
L 32.562597 85.965761 
L 32.616956 86.835027 
L 32.671315 84.534075 
L 32.725674 86.437792 
L 32.834392 83.856459 
L 32.997469 86.5527 
L 33.051828 84.69468 
L 33.106186 85.072938 
L 33.160545 84.999421 
L 33.214904 86.404346 
L 33.269263 85.546975 
L 33.323622 86.312373 
L 33.377981 85.7911 
L 33.486699 84.14986 
L 33.541058 86.162077 
L 33.595417 85.730555 
L 33.649776 85.776211 
L 33.758494 84.108565 
L 33.812853 87.06557 
L 33.867211 85.004858 
L 33.92157 84.047479 
L 34.030288 86.772147 
L 34.084647 86.16506 
L 34.139006 84.106847 
L 34.193365 85.843473 
L 34.247724 86.443868 
L 34.302083 84.190987 
L 34.356442 86.59748 
L 34.410801 86.053032 
L 34.46516 84.552168 
L 34.519519 85.64073 
L 34.682595 84.23213 
L 34.736954 87.797205 
L 34.791313 86.322037 
L 34.95439 84.787388 
L 35.008749 84.786811 
L 35.063108 87.533791 
L 35.117467 84.561829 
L 35.171826 86.371052 
L 35.280544 83.22909 
L 35.389261 87.650871 
L 35.552338 83.945734 
L 35.769774 86.271039 
L 35.824133 86.923971 
L 35.878492 83.656607 
L 35.932851 83.823161 
L 36.204645 87.890888 
L 36.313363 85.039268 
L 36.367722 86.973823 
L 36.47644 86.954558 
L 36.585158 83.819247 
L 36.639517 83.916842 
L 36.693876 85.129235 
L 36.748235 83.338372 
L 36.802594 86.119065 
L 36.856953 84.459897 
L 36.911311 84.753475 
L 36.96567 84.290927 
L 37.020029 85.941345 
L 37.074388 83.873491 
L 37.128747 84.913406 
L 37.183106 86.971009 
L 37.237465 85.558295 
L 37.346183 84.471761 
L 37.400542 85.387943 
L 37.454901 83.875079 
L 37.50926 84.45558 
L 37.617978 86.278095 
L 37.672336 85.526249 
L 37.726695 84.341915 
L 37.781054 86.370754 
L 37.835413 84.674823 
L 37.944131 86.403032 
L 37.99849 86.290867 
L 38.052849 84.072853 
L 38.107208 85.051826 
L 38.161567 84.909322 
L 38.215926 86.04609 
L 38.324644 84.636166 
L 38.48772 87.521764 
L 38.542079 86.804038 
L 38.596438 83.546972 
L 38.650797 85.259803 
L 38.705156 85.129778 
L 38.868233 87.014325 
L 38.922592 85.861351 
L 38.976951 86.838988 
L 39.085669 85.69473 
L 39.140028 86.811533 
L 39.194386 86.44664 
L 39.248745 83.81154 
L 39.303104 86.223456 
L 39.411822 84.556723 
L 39.466181 85.975059 
L 39.52054 84.607395 
L 39.574899 83.892071 
L 39.629258 87.052506 
L 39.683617 86.159823 
L 39.792335 86.806262 
L 39.846694 85.014929 
L 39.901053 86.634256 
L 40.118488 85.342922 
L 40.172847 85.848544 
L 40.227206 85.570889 
L 40.281565 85.414412 
L 40.335924 87.218094 
L 40.499001 84.120691 
L 40.607719 85.697873 
L 40.662078 84.741502 
L 40.825154 86.687658 
L 40.933872 84.408001 
L 41.04259 85.294411 
L 41.151308 83.770701 
L 41.314385 86.969825 
L 41.423103 85.62137 
L 41.586179 83.954142 
L 41.640538 86.142736 
L 41.694897 85.570565 
L 41.749256 84.818298 
L 41.803615 85.216403 
L 41.912333 84.726745 
L 42.129769 86.77267 
L 42.184128 84.846716 
L 42.238486 87.375895 
L 42.292845 84.474253 
L 42.347204 87.701236 
L 42.401563 85.077303 
L 42.455922 86.360481 
L 42.510281 82.958744 
L 42.56464 84.420852 
L 42.618999 86.611071 
L 42.727717 83.02878 
L 42.836435 85.686426 
L 42.890794 84.38864 
L 42.945153 86.86672 
L 42.999511 83.869334 
L 43.05387 85.460946 
L 43.108229 86.251536 
L 43.216947 82.617132 
L 43.271306 87.008079 
L 43.325665 85.107336 
L 43.380024 84.571806 
L 43.543101 88.414049 
L 43.706178 83.730393 
L 43.869254 85.376118 
L 43.923613 84.286221 
L 43.977972 84.905077 
L 44.032331 86.612535 
L 44.08669 84.512645 
L 44.141049 87.316765 
L 44.249767 87.285963 
L 44.412844 84.800435 
L 44.467203 86.276723 
L 44.521561 85.404126 
L 44.684638 86.689148 
L 44.847715 85.437768 
L 44.956433 85.840758 
L 45.065151 84.517046 
L 45.11951 86.437281 
L 45.173869 85.415092 
L 45.228228 86.279067 
L 45.336945 84.759777 
L 45.554381 90.395773 
L 45.60874 84.919645 
L 45.663099 86.404711 
L 45.826176 84.699409 
L 45.880535 85.478249 
L 45.934894 84.458509 
L 45.989253 87.031627 
L 46.043611 86.244477 
L 46.152329 84.35729 
L 46.206688 84.932883 
L 46.369765 86.795694 
L 46.424124 85.058565 
L 46.478483 86.559857 
L 46.532842 86.507858 
L 46.64156 84.129037 
L 46.695919 85.001638 
L 46.858995 86.20883 
L 46.967713 83.176453 
L 47.022072 85.037974 
L 47.076431 84.732523 
L 47.13079 84.881274 
L 47.239508 88.0626 
L 47.293867 84.820042 
L 47.348226 85.583581 
L 47.402585 85.596424 
L 47.456944 87.07837 
L 47.62002 84.293906 
L 47.674379 86.850305 
L 47.728738 86.638028 
L 47.837456 84.038519 
L 47.891815 85.698907 
L 47.946174 84.610631 
L 48.000533 85.347289 
L 48.054892 84.804791 
L 48.109251 85.135637 
L 48.16361 84.991203 
L 48.217969 84.05673 
L 48.326687 85.913121 
L 48.381045 84.461377 
L 48.489763 86.612551 
L 48.598481 85.444871 
L 48.65284 86.449335 
L 48.707199 84.015829 
L 48.761558 84.661823 
L 48.870276 86.048934 
L 48.924635 84.500635 
L 49.087712 86.525259 
L 49.196429 84.152646 
L 49.250788 86.335064 
L 49.305147 84.520249 
L 49.413865 87.25028 
L 49.468224 84.07035 
L 49.522583 85.320333 
L 49.576942 84.364913 
L 49.68566 86.82724 
L 49.740019 86.1506 
L 49.903095 83.667448 
L 49.957454 87.574782 
L 50.011813 85.671101 
L 50.066172 84.867791 
L 50.120531 85.469175 
L 50.229249 86.818109 
L 50.283608 84.826854 
L 50.337967 85.797281 
L 50.392326 85.296926 
L 50.446685 86.280572 
L 50.501044 85.409981 
L 50.609762 86.025115 
L 50.66412 85.736862 
L 50.718479 85.296994 
L 50.772838 87.481082 
L 50.827197 85.246918 
L 50.881556 85.972434 
L 51.044633 84.014597 
L 51.098992 86.111353 
L 51.153351 85.240259 
L 51.20771 84.781162 
L 51.262069 85.492949 
L 51.370787 84.470489 
L 51.425145 86.735018 
L 51.479504 86.176435 
L 51.588222 85.414001 
L 51.642581 82.868724 
L 51.69694 87.344819 
L 51.751299 86.447268 
L 51.860017 85.717686 
L 51.968735 86.897109 
L 52.023094 86.806163 
L 52.18617 84.51196 
L 52.294888 86.58237 
L 52.349247 85.560387 
L 52.457965 85.041683 
L 52.512324 85.982504 
L 52.566683 85.961557 
L 52.72976 84.992753 
L 52.838478 86.370529 
L 52.947195 85.17492 
L 53.001554 86.198608 
L 53.055913 84.617275 
L 53.110272 86.005579 
L 53.164631 87.306263 
L 53.21899 86.798525 
L 53.273349 86.885653 
L 53.327708 85.177093 
L 53.382067 86.555233 
L 53.436426 87.026757 
L 53.490785 84.265614 
L 53.545144 85.453141 
L 53.599503 85.517806 
L 53.653862 87.049406 
L 53.70822 86.203497 
L 53.816938 85.623194 
L 53.871297 86.102922 
L 53.980015 83.776358 
L 54.034374 87.200861 
L 54.088733 86.057851 
L 54.143092 85.143892 
L 54.197451 85.428498 
L 54.25181 86.794704 
L 54.306169 86.601532 
L 54.414887 84.652413 
L 54.469245 86.332869 
L 54.523604 84.874138 
L 54.577963 85.919632 
L 54.632322 84.065728 
L 54.686681 86.705977 
L 54.74104 84.262521 
L 54.795399 83.862392 
L 54.849758 85.732114 
L 54.904117 84.897788 
L 54.958476 84.652621 
L 55.012835 86.938457 
L 55.067194 85.334464 
L 55.121553 85.463453 
L 55.175912 83.686817 
L 55.23027 85.073034 
L 55.393347 85.846332 
L 55.447706 86.382704 
L 55.502065 84.612305 
L 55.556424 86.393108 
L 55.610783 86.063737 
L 55.665142 86.647578 
L 55.77386 84.922471 
L 55.828219 87.005475 
L 55.882578 86.094451 
L 55.936937 85.578195 
L 55.991295 86.200181 
L 56.045654 82.775362 
L 56.100013 84.704269 
L 56.154372 86.354637 
L 56.208731 85.927677 
L 56.26309 85.039863 
L 56.317449 85.198822 
L 56.426167 86.481452 
L 56.589244 84.663929 
L 56.643603 85.143735 
L 56.697962 84.052025 
L 56.75232 86.832283 
L 56.806679 85.238115 
L 56.861038 85.485786 
L 56.915397 84.396392 
L 56.969756 85.141772 
L 57.078474 88.406818 
L 57.132833 86.24007 
L 57.187192 84.599365 
L 57.241551 85.256307 
L 57.350269 86.755359 
L 57.404628 82.822529 
L 57.458987 83.349177 
L 57.513345 85.252361 
L 57.622063 85.174384 
L 57.730781 87.904276 
L 57.893858 84.058414 
L 57.948217 86.088224 
L 58.002576 85.654694 
L 58.056935 85.667163 
L 58.111294 85.893244 
L 58.165653 83.817297 
L 58.328729 86.292059 
L 58.383088 86.305627 
L 58.437447 88.45358 
L 58.491806 86.329112 
L 58.546165 86.043246 
L 58.709242 84.611626 
L 58.81796 83.639071 
L 58.872319 86.061053 
L 58.926678 85.149086 
L 58.981037 85.012475 
L 59.035395 85.765032 
L 59.089754 84.793187 
L 59.144113 84.929796 
L 59.198472 85.731127 
L 59.252831 85.186494 
L 59.361549 83.348574 
L 59.415908 86.022583 
L 59.470267 84.627758 
L 59.578985 84.580572 
L 59.633344 86.893826 
L 59.687703 85.567299 
L 59.742062 86.267599 
L 59.79642 87.162525 
L 59.905138 85.22105 
L 59.959497 86.625868 
L 60.013856 86.344539 
L 60.176933 84.798858 
L 60.231292 84.804464 
L 60.394369 86.130942 
L 60.448728 85.030167 
L 60.503087 86.078715 
L 60.557445 86.419235 
L 60.774881 84.415517 
L 60.82924 86.10512 
L 60.883599 85.24731 
L 61.046676 86.55529 
L 61.101035 86.418286 
L 61.209753 84.697422 
L 61.372829 86.052833 
L 61.481547 86.708042 
L 61.644624 84.930976 
L 61.698983 85.174027 
L 61.807701 83.627725 
L 61.970778 86.771183 
L 62.025137 84.268686 
L 62.079495 84.911292 
L 62.133854 84.747045 
L 62.188213 86.467621 
L 62.242572 84.239618 
L 62.296931 84.862439 
L 62.35129 86.015638 
L 62.405649 83.854933 
L 62.460008 85.873547 
L 62.514367 86.733434 
L 62.623085 83.92657 
L 62.677444 84.423492 
L 62.84052 86.674967 
L 62.894879 84.822392 
L 63.112315 88.995037 
L 63.221033 84.4368 
L 63.275392 86.66793 
L 63.329751 86.587681 
L 63.492828 86.444486 
L 63.547187 84.758862 
L 63.601545 86.150384 
L 63.764622 84.424153 
L 63.87334 87.117998 
L 63.927699 87.114349 
L 63.982058 86.769244 
L 64.036417 84.840425 
L 64.090776 85.487235 
L 64.145135 85.610872 
L 64.199494 85.449373 
L 64.253853 84.900054 
L 64.308212 86.514755 
L 64.362571 84.619383 
L 64.416929 85.836048 
L 64.471288 87.037476 
L 64.525647 86.820085 
L 64.580006 84.105994 
L 64.634365 85.644428 
L 64.743083 83.91678 
L 64.797442 84.665334 
L 64.851801 84.39003 
L 64.90616 84.460052 
L 65.014878 85.543631 
L 65.069237 86.10523 
L 65.177954 83.988586 
L 65.286672 85.467515 
L 65.341031 85.11876 
L 65.449749 86.585892 
L 65.558467 86.320988 
L 65.775903 84.138311 
L 65.884621 85.581164 
L 66.047697 84.017239 
L 66.156415 85.9109 
L 66.210774 85.567089 
L 66.265133 85.161389 
L 66.319492 85.929078 
L 66.373851 84.221502 
L 66.42821 85.696516 
L 66.482569 86.009858 
L 66.536928 85.474055 
L 66.591287 86.255183 
L 66.645646 84.897784 
L 66.700004 85.684499 
L 66.808722 84.638798 
L 66.863081 84.725377 
L 67.026158 85.689842 
L 67.080517 84.337156 
L 67.134876 86.471714 
L 67.189235 83.201164 
L 67.243594 85.931537 
L 67.297953 84.642615 
L 67.352312 85.592252 
L 67.406671 85.248985 
L 67.461029 85.344759 
L 67.515388 85.535203 
L 67.569747 85.079061 
L 67.624106 85.587409 
L 67.678465 84.549531 
L 67.732824 84.991045 
L 67.841542 85.961725 
L 67.95026 85.614948 
L 68.004619 84.754377 
L 68.058978 85.243309 
L 68.167696 85.799748 
L 68.276413 83.726027 
L 68.43949 86.015067 
L 68.493849 84.93259 
L 68.548208 86.383556 
L 68.602567 85.41462 
L 68.765644 86.421426 
L 68.820003 85.611194 
L 68.874362 86.640525 
L 68.928721 85.980365 
L 68.983079 85.70172 
L 69.037438 83.787227 
L 69.091797 85.43071 
L 69.200515 85.662999 
L 69.254874 85.476567 
L 69.309233 84.290289 
L 69.417951 85.702862 
L 69.47231 85.641781 
L 69.526669 85.06031 
L 69.581028 85.87923 
L 69.635387 84.449061 
L 69.689746 86.960997 
L 69.744104 84.934487 
L 69.907181 86.348039 
L 70.015899 84.43853 
L 70.070258 86.36182 
L 70.124617 86.280046 
L 70.178976 84.674759 
L 70.287694 84.691827 
L 70.342053 85.826273 
L 70.396412 84.631271 
L 70.450771 85.836406 
L 70.505129 85.550577 
L 70.613847 87.082928 
L 70.668206 84.633391 
L 70.722565 84.644489 
L 70.776924 84.834584 
L 70.831283 86.565591 
L 70.885642 85.646821 
L 71.048719 84.615411 
L 71.157437 86.093302 
L 71.211796 85.681922 
L 71.266154 84.511514 
L 71.320513 85.839663 
L 71.374872 84.820653 
L 71.537949 86.560578 
L 71.592308 85.90004 
L 71.755385 84.558256 
L 71.809744 85.857944 
L 71.864103 85.499725 
L 71.918462 84.074736 
L 71.972821 85.539052 
L 72.027179 84.921704 
L 72.081538 85.274164 
L 72.135897 85.783735 
L 72.190256 84.408588 
L 72.244615 85.018038 
L 72.298974 86.947445 
L 72.353333 84.970452 
L 72.407692 84.302674 
L 72.570769 86.397928 
L 72.733846 83.850964 
L 72.788204 86.030559 
L 72.842563 84.825106 
L 73.00564 85.980468 
L 73.059999 85.865865 
L 73.114358 85.338075 
L 73.168717 85.345991 
L 73.223076 85.955343 
L 73.277435 85.569484 
L 73.386153 86.14165 
L 73.440512 84.997452 
L 73.494871 86.308821 
L 73.549229 85.753475 
L 73.603588 85.016498 
L 73.657947 86.118382 
L 73.712306 85.265886 
L 73.766665 85.284875 
L 73.821024 85.541966 
L 73.875383 85.439315 
L 73.929742 84.983383 
L 73.984101 85.3246 
L 74.03846 86.58415 
L 74.092819 85.470684 
L 74.147178 84.938661 
L 74.310254 87.409491 
L 74.364613 84.869222 
L 74.418972 86.205896 
L 74.473331 86.411712 
L 74.636408 85.25745 
L 74.690767 85.422045 
L 74.799485 86.039637 
L 74.853844 85.172653 
L 74.908203 85.642206 
L 74.962562 85.4014 
L 75.016921 86.597504 
L 75.125638 84.997325 
L 75.179997 85.629375 
L 75.234356 84.280675 
L 75.288715 86.478986 
L 75.343074 84.979596 
L 75.397433 85.55292 
L 75.451792 84.668392 
L 75.506151 85.18021 
L 75.56051 86.854146 
L 75.614869 86.560247 
L 75.669228 84.391406 
L 75.723587 86.002016 
L 75.777946 85.324805 
L 75.832304 86.401921 
L 75.886663 85.29611 
L 75.941022 85.292305 
L 75.995381 85.514476 
L 76.04974 84.459255 
L 76.104099 85.839049 
L 76.158458 84.485953 
L 76.267176 86.166436 
L 76.321535 86.055433 
L 76.375894 84.38916 
L 76.430253 85.261088 
L 76.484612 84.725476 
L 76.538971 86.001815 
L 76.593329 85.077481 
L 76.702047 85.10338 
L 76.756406 85.314591 
L 76.810765 85.041921 
L 76.973842 86.371271 
L 77.191278 84.431689 
L 77.299996 86.004514 
L 77.354354 84.716032 
L 77.517431 86.38507 
L 77.626149 84.37613 
L 77.789226 85.86311 
L 77.843585 85.697262 
L 77.897944 85.073748 
L 77.952303 85.176418 
L 78.006662 85.828618 
L 78.061021 85.821249 
L 78.115379 85.370299 
L 78.169738 85.541061 
L 78.224097 85.581116 
L 78.332815 84.585767 
L 78.387174 86.047846 
L 78.441533 85.830668 
L 78.495892 84.617695 
L 78.550251 86.531941 
L 78.60461 84.778365 
L 78.658969 85.935944 
L 78.713328 85.497095 
L 78.767687 85.474457 
L 78.876404 85.079041 
L 79.09384 85.906514 
L 79.202558 84.954293 
L 79.256917 85.765919 
L 79.311276 85.623744 
L 79.365635 84.540026 
L 79.419994 85.679075 
L 79.474353 84.573215 
L 79.528712 84.902249 
L 79.691788 86.570415 
L 79.746147 85.225981 
L 79.800506 85.749314 
L 79.963583 85.089831 
L 80.017942 85.459887 
L 80.072301 85.046694 
L 80.235378 86.650965 
L 80.289737 86.539824 
L 80.398455 84.253555 
L 80.507172 85.892737 
L 80.61589 84.215026 
L 80.670249 85.361931 
L 80.724608 84.745633 
L 80.833326 85.238483 
L 80.887685 84.759378 
L 80.942044 85.016575 
L 80.996403 86.165574 
L 81.050762 85.795096 
L 81.105121 85.215857 
L 81.15948 85.75089 
L 81.213838 85.447147 
L 81.268197 85.723555 
L 81.485633 84.931805 
L 81.539992 85.993732 
L 81.594351 85.89426 
L 81.64871 84.708226 
L 81.703069 84.928472 
L 81.757428 85.045564 
L 81.920505 86.064324 
L 82.029222 84.586706 
L 82.13794 86.074107 
L 82.192299 85.248158 
L 82.246658 86.196239 
L 82.301017 85.809249 
L 82.355376 85.506862 
L 82.409735 84.084662 
L 82.464094 85.184744 
L 82.518453 84.534626 
L 82.572812 85.129827 
L 82.627171 85.043063 
L 82.735888 85.978377 
L 82.844606 85.01063 
L 82.898965 85.907998 
L 82.953324 85.740391 
L 83.007683 85.219481 
L 83.17076 86.503133 
L 83.225119 85.016399 
L 83.279478 85.691796 
L 83.388196 85.294495 
L 83.442555 85.72393 
L 83.496913 84.861152 
L 83.551272 84.910543 
L 83.605631 85.915958 
L 83.65999 84.803671 
L 83.714349 85.282727 
L 83.768708 86.389698 
L 83.823067 85.486258 
L 83.931785 85.667693 
L 83.986144 85.125877 
L 84.040503 85.382975 
L 84.094862 85.989238 
L 84.20358 84.855653 
L 84.257938 85.757913 
L 84.312297 85.544166 
L 84.366656 85.060231 
L 84.421015 86.321571 
L 84.475374 84.473365 
L 84.529733 86.159964 
L 84.638451 85.001927 
L 84.69281 85.197473 
L 84.747169 84.946109 
L 84.855887 86.058454 
L 84.910246 85.067795 
L 84.964605 85.247272 
L 85.127681 85.617845 
L 85.18204 84.684358 
L 85.236399 85.584525 
L 85.345117 84.826965 
L 85.562553 86.026372 
L 85.616912 85.775878 
L 85.72563 84.947977 
L 85.779988 86.096458 
L 85.834347 84.865152 
L 85.888706 85.165201 
L 86.051783 86.651719 
L 86.160501 85.115726 
L 86.21486 85.235935 
L 86.269219 86.094157 
L 86.323578 84.845057 
L 86.377937 85.397281 
L 86.432296 85.421737 
L 86.486655 85.13476 
L 86.595372 86.038243 
L 86.70409 85.111782 
L 86.758449 86.624361 
L 86.812808 85.580446 
L 86.867167 84.58505 
L 86.921526 84.906249 
L 87.030244 86.075722 
L 87.084603 85.738277 
L 87.138962 85.514771 
L 87.193321 85.90751 
L 87.24768 85.844308 
L 87.465115 84.652038 
L 87.628192 85.65267 
L 87.682551 84.865426 
L 87.73691 85.353302 
L 87.791269 85.185759 
L 87.899987 86.267381 
L 87.954346 85.790563 
L 88.117422 84.605853 
L 88.171781 85.817411 
L 88.22614 85.396736 
L 88.280499 85.142599 
L 88.334858 85.748569 
L 88.497935 84.787093 
L 88.552294 85.977754 
L 88.606653 85.006557 
L 88.661012 85.399797 
L 88.715371 84.85575 
L 88.76973 85.211158 
L 88.824088 85.594726 
L 88.932806 84.637487 
L 88.987165 85.984374 
L 89.041524 85.945529 
L 89.204601 85.094639 
L 89.367678 86.171046 
L 89.422037 85.407843 
L 89.476396 86.365602 
L 89.530755 85.88205 
L 89.585113 85.749849 
L 89.639472 85.809344 
L 89.693831 85.928698 
L 89.802549 85.153865 
L 89.856908 86.364726 
L 89.911267 85.767884 
L 89.965626 85.904713 
L 90.019985 85.183578 
L 90.074344 85.593265 
L 90.183062 85.200506 
L 90.29178 86.071786 
L 90.346138 85.541145 
L 90.509215 84.98293 
L 90.672292 85.878283 
L 90.835369 84.943636 
L 90.998446 85.669218 
L 91.052805 84.825055 
L 91.107163 85.301303 
L 91.161522 85.537936 
L 91.215881 85.249737 
L 91.27024 85.734967 
L 91.324599 85.326805 
L 91.487676 85.357463 
L 91.542035 86.422529 
L 91.596394 86.097421 
L 91.650753 84.749293 
L 91.705112 85.530305 
L 91.759471 85.201155 
L 91.81383 85.405734 
L 91.922547 85.252821 
L 91.976906 85.604243 
L 92.139983 85.144602 
L 92.194342 85.123721 
L 92.248701 85.835392 
L 92.30306 85.098095 
L 92.357419 85.670255 
L 92.411778 85.628861 
L 92.520496 85.364488 
L 92.574855 86.05865 
L 92.629213 86.002613 
L 92.79229 85.650433 
L 92.901008 86.002 
L 92.955367 85.026891 
L 93.009726 85.427015 
L 93.064085 85.726733 
L 93.118444 85.006147 
L 93.172803 85.28293 
L 93.227162 85.695278 
L 93.281521 84.846694 
L 93.33588 85.280209 
L 93.444597 85.161264 
L 93.498956 85.926295 
L 93.553315 85.317194 
L 93.607674 85.275195 
L 93.662033 85.899914 
L 93.716392 85.313897 
L 93.82511 85.303767 
L 93.879469 85.486999 
L 93.933828 85.119162 
L 93.988187 85.757317 
L 94.042546 85.326361 
L 94.096905 85.275788 
L 94.151263 85.356649 
L 94.205622 85.022312 
L 94.259981 85.126615 
L 94.368699 86.079014 
L 94.423058 85.621316 
L 94.477417 85.247587 
L 94.531776 85.328721 
L 94.694853 85.622661 
L 94.749212 85.086598 
L 94.85793 85.908556 
L 94.912288 85.17993 
L 94.966647 85.242327 
L 95.021006 85.420595 
L 95.075365 85.213727 
L 95.129724 85.714734 
L 95.184083 84.906229 
L 95.238442 85.201483 
L 95.292801 85.055142 
L 95.34716 85.444896 
L 95.401519 85.21683 
L 95.455878 85.268207 
L 95.510237 86.086452 
L 95.564596 85.291296 
L 95.727672 85.13174 
L 95.782031 85.830965 
L 95.83639 84.621424 
L 95.890749 85.714482 
L 95.945108 85.688789 
L 95.999467 85.301649 
L 96.053826 85.537739 
L 96.108185 85.43833 
L 96.162544 85.519225 
L 96.216903 85.942859 
L 96.325621 85.278125 
L 96.37998 85.452896 
L 96.434338 85.241018 
L 96.543056 85.840055 
L 96.597415 85.558215 
L 96.651774 85.193 
L 96.706133 85.424396 
L 96.760492 85.847981 
L 96.814851 85.697514 
L 96.923569 85.357971 
L 96.977928 85.717729 
L 97.032287 85.371529 
L 97.141005 85.556119 
L 97.195364 85.22509 
L 97.35844 85.787652 
L 97.521517 85.033364 
L 97.684594 85.362796 
L 97.738953 85.227607 
L 97.793312 85.552763 
L 97.847671 84.949658 
L 97.90203 85.508789 
L 98.010747 84.959216 
L 98.065106 85.26411 
L 98.173824 85.52213 
L 98.228183 85.227411 
L 98.282542 85.705694 
L 98.336901 85.35582 
L 98.445619 85.537804 
L 98.554337 84.884714 
L 98.608696 86.067891 
L 98.663055 85.18152 
L 98.717414 85.823544 
L 98.771772 85.752945 
L 98.826131 85.273941 
L 98.88049 85.328549 
L 99.043567 86.162605 
L 99.206644 85.444192 
L 99.261003 85.677657 
L 99.369721 85.096461 
L 99.478439 85.636317 
L 99.532797 85.579887 
L 99.587156 85.415925 
L 99.641515 85.690393 
L 99.804592 85.157416 
L 99.858951 85.056933 
L 99.91331 85.475691 
L 99.967669 85.195863 
L 100.022028 85.440487 
L 100.076387 85.160169 
L 100.130746 85.778212 
L 100.185105 85.734427 
L 100.239464 85.046425 
L 100.293822 85.575545 
L 100.348181 85.363588 
L 100.40254 86.005184 
L 100.456899 85.861284 
L 100.619976 85.481589 
L 100.783053 85.68275 
L 100.837412 84.981556 
L 101.000489 85.9657 
L 101.109206 85.392273 
L 101.217924 85.63851 
L 101.272283 85.60481 
L 101.326642 85.409185 
L 101.381001 85.579832 
L 101.43536 85.475493 
L 101.489719 85.827849 
L 101.544078 85.516153 
L 101.707155 85.623323 
L 102.033308 85.140655 
L 102.087667 85.187882 
L 102.250744 85.612686 
L 102.305103 85.493664 
L 102.359462 85.330264 
L 102.413821 85.714297 
L 102.46818 85.477998 
L 102.522539 85.414268 
L 102.685615 85.66207 
L 102.848692 85.296003 
L 102.95741 85.621209 
L 103.011769 85.480979 
L 103.066128 85.507987 
L 103.120487 85.093873 
L 103.174846 85.398753 
L 103.229205 85.190493 
L 103.283564 85.711036 
L 103.337922 85.472018 
L 103.392281 85.328017 
L 103.500999 85.76272 
L 103.555358 85.36009 
L 103.609717 85.743006 
L 103.664076 85.429162 
L 103.718435 85.626927 
L 103.772794 85.765564 
L 103.827153 85.419946 
L 103.881512 85.520246 
L 104.044589 85.273855 
L 104.098947 85.728692 
L 104.153306 85.627595 
L 104.262024 85.259821 
L 104.316383 85.534188 
L 104.370742 85.416875 
L 104.47946 85.331284 
L 104.588178 85.605318 
L 104.642537 85.188277 
L 104.696896 85.515576 
L 104.859972 85.236239 
L 104.914331 85.303318 
L 104.96869 85.223776 
L 105.023049 85.669987 
L 105.077408 85.40853 
L 105.131767 85.520629 
L 105.186126 85.434316 
L 105.403562 85.462248 
L 105.620997 85.932983 
L 105.729715 85.402555 
L 105.784074 85.546287 
L 105.947151 85.264167 
L 106.00151 85.666414 
L 106.055869 85.237515 
L 106.110228 85.344381 
L 106.218946 85.394265 
L 106.273305 85.483845 
L 106.327664 85.307847 
L 106.382022 85.447331 
L 106.436381 85.528115 
L 106.49074 85.339544 
L 106.545099 85.853532 
L 106.599458 85.484829 
L 106.762535 85.453141 
L 106.979971 85.230887 
L 107.143047 85.853768 
L 107.197406 85.509824 
L 107.251765 85.616062 
L 107.306124 85.634533 
L 107.360483 85.462772 
L 107.414842 85.655007 
L 107.469201 85.66707 
L 107.52356 85.140572 
L 107.577919 85.540275 
L 107.740996 85.379962 
L 107.795355 85.542501 
L 107.849714 85.555007 
L 107.904072 85.210513 
L 107.958431 85.608594 
L 108.01279 85.472224 
L 108.067149 85.57857 
L 108.121508 85.534607 
L 108.175867 85.427811 
L 108.230226 85.580136 
L 108.284585 85.429111 
L 108.55638 85.329869 
L 108.719456 85.620891 
L 108.773815 85.566068 
L 108.828174 85.227486 
L 108.882533 85.64885 
L 108.936892 85.582338 
L 109.099969 85.429696 
L 109.208687 85.62223 
L 109.263046 85.311328 
L 109.317405 85.3709 
L 109.480481 85.482084 
L 109.53484 85.24608 
L 109.589199 85.634254 
L 109.643558 85.459161 
L 109.752276 85.848518 
L 109.806635 85.317989 
L 109.860994 85.437825 
L 110.024071 85.587158 
L 110.07843 85.307411 
L 110.132789 85.394561 
L 110.187147 85.332293 
L 110.241506 85.577198 
L 110.295865 85.425389 
L 110.404583 85.378668 
L 110.458942 85.651932 
L 110.513301 85.428168 
L 110.676378 85.55903 
L 111.002531 85.345422 
L 111.165608 85.606578 
L 111.383044 85.408891 
L 111.654839 85.583151 
L 111.709197 85.531697 
L 111.817915 85.231105 
L 111.980992 85.745426 
L 112.035351 85.526745 
L 112.08971 85.560274 
L 112.198428 85.360892 
L 112.307146 85.605162 
L 112.361505 85.243715 
L 112.415864 85.42122 
L 112.57894 85.450371 
L 112.687658 85.40483 
L 112.850735 85.58186 
L 113.013812 85.343516 
L 113.231248 85.619781 
L 113.339965 85.365454 
L 113.503042 85.727111 
L 113.720478 85.328464 
L 113.829196 85.683435 
L 113.937914 85.610771 
L 114.264067 85.384014 
L 114.372785 85.604241 
L 114.427144 85.550594 
L 114.64458 85.322122 
L 114.698939 85.627337 
L 114.753298 85.60873 
L 114.807656 85.413412 
L 114.862015 85.505112 
L 114.916374 85.488212 
L 114.970733 85.613247 
L 115.025092 85.362558 
L 115.079451 85.525649 
L 115.242528 85.541976 
L 115.405605 85.420125 
L 115.459964 85.523233 
L 115.514323 85.41615 
L 115.62304 85.439055 
L 115.731758 85.602482 
L 115.840476 85.386832 
L 115.894835 85.541413 
L 115.949194 85.474544 
L 116.003553 85.316379 
L 116.057912 85.468743 
L 116.438424 85.485058 
L 116.492783 85.656238 
L 116.547142 85.626931 
L 116.710219 85.458651 
L 116.764578 85.544061 
L 116.873296 85.604199 
L 117.090731 85.442817 
L 117.199449 85.573341 
L 117.308167 85.465083 
L 117.579962 85.640988 
L 117.68868 85.401358 
L 117.743039 85.603135 
L 117.797398 85.457537 
L 117.906115 85.545782 
L 117.960474 85.390156 
L 118.014833 85.518248 
L 118.17791 85.491601 
L 118.286628 85.500948 
L 118.504064 85.397144 
L 118.612781 85.581449 
L 118.66714 85.5371 
L 119.373806 85.493751 
L 119.428165 85.552399 
L 119.482524 85.344284 
L 119.536883 85.472516 
L 119.69996 85.459101 
L 119.754319 85.635141 
L 119.808678 85.581789 
L 119.863037 85.415902 
L 119.917396 85.464225 
L 120.297908 85.442787 
L 120.678421 85.514949 
L 120.73278 85.40296 
L 120.787139 85.449169 
L 120.841498 85.488531 
L 120.895856 85.390374 
L 120.950215 85.509141 
L 121.113292 85.535068 
L 121.276369 85.455533 
L 121.439446 85.518346 
L 121.602523 85.470947 
L 121.983035 85.463527 
L 122.25483 85.515598 
L 122.363548 85.45683 
L 122.417906 85.528961 
L 122.472265 85.45929 
L 123.287649 85.498746 
L 123.450726 85.483511 
L 127.636364 85.478311 
L 127.636364 85.478311 
" clip-path="url(#p07e43daae6)" style="fill: none; stroke: #a6d854; stroke-width: 1.5; stroke-linecap: square"/>
   </g>
   <g id="patch_3">
    <path d="M 10.8 133.2 
L 10.8 10.8 
" style="fill: none; stroke: #000000; stroke-width: 0.8; stroke-linejoin: miter; stroke-linecap: square"/>
   </g>
   <g id="patch_4">
    <path d="M 133.2 133.2 
L 133.2 10.8 
" style="fill: none; stroke: #000000; stroke-width: 0.8; stroke-linejoin: miter; stroke-linecap: square"/>
   </g>
   <g id="patch_5">
    <path d="M 10.8 133.2 
L 133.2 133.2 
" style="fill: none; stroke: #000000; stroke-width: 0.8; stroke-linejoin: miter; stroke-linecap: square"/>
   </g>
   <g id="patch_6">
    <path d="M 10.8 10.8 
L 133.2 10.8 
" style="fill: none; stroke: #000000; stroke-width: 0.8; stroke-linejoin: miter; stroke-linecap: square"/>
   </g>
  </g>
 </g>
 <defs>
  <clipPath id="p07e43daae6">
   <rect x="10.8" y="10.8" width="122.4" height="122.4"/>
  </clipPath>
 </defs>
</svg>
