<?xml version="1.0" encoding="utf-8" standalone="no"?>
<!DOCTYPE svg PUBLIC "-//W3C//DTD SVG 1.1//EN"
  "http://www.w3.org/Graphics/SVG/1.1/DTD/svg11.dtd">
<svg xmlns:xlink="http://www.w3.org/1999/xlink" width="144pt" height="144pt" viewBox="0 0 144 144" xmlns="http://www.w3.org/2000/svg" version="1.1">
 <metadata>
  <rdf:RDF xmlns:dc="http://purl.org/dc/elements/1.1/" xmlns:cc="http://creativecommons.org/ns#" xmlns:rdf="http://www.w3.org/1999/02/22-rdf-syntax-ns#">
   <cc:Work>
    <dc:type rdf:resource="http://purl.org/dc/dcmitype/StillImage"/>
    <dc:date>2025-02-11T14:44:00.768369</dc:date>
    <dc:format>image/svg+xml</dc:format>
    <dc:creator>
     <cc:Agent>
      <dc:title>Matplotlib v3.8.0, https://matplotlib.org/</dc:title>
     </cc:Agent>
    </dc:creator>
   </cc:Work>
  </rdf:RDF>
 </metadata>
 <defs>
  <style type="text/css">*{stroke-linejoin: round; stroke-linecap: butt}</style>
 </defs>
 <g id="figure_1">
  <g id="patch_1">
   <path d="M 0 144 
L 144 144 
L 144 0 
L 0 0 
L 0 144 
z
" style="fill: none"/>
  </g>
  <g id="axes_1">
   <g id="patch_2">
    <path d="M 10.8 133.2 
L 133.2 133.2 
L 133.2 10.8 
L 10.8 10.8 
L 10.8 133.2 
z
" style="fill: none"/>
   </g>
   <g id="matplotlib.axis_1"/>
   <g id="matplotlib.axis_2"/>
   <g id="line2d_1">
    <path d="M 16.363636 55.893709 
L 16.417995 87.871816 
L 16.472354 80.640564 
L 16.526713 56.579009 
L 16.581072 73.992897 
L 16.635431 91.190447 
L 16.68979 80.887232 
L 16.744149 85.42343 
L 16.798508 57.864158 
L 16.852867 69.584801 
L 16.907226 69.137004 
L 16.961585 96.863871 
L 17.015944 78.170275 
L 17.070302 69.827973 
L 17.124661 84.563719 
L 17.17902 76.910415 
L 17.233379 57.027005 
L 17.287738 59.489306 
L 17.342097 79.075363 
L 17.396456 74.76321 
L 17.505174 76.666853 
L 17.559533 88.266182 
L 17.613892 58.615034 
L 17.668251 68.68177 
L 17.776969 67.981408 
L 17.831327 98.884193 
L 17.994404 75.036356 
L 18.048763 88.018278 
L 18.103122 62.682413 
L 18.157481 88.408028 
L 18.320558 61.923274 
L 18.374917 68.406962 
L 18.429276 96.949186 
L 18.483635 66.364805 
L 18.537994 74.642633 
L 18.70107 92.948872 
L 18.809788 71.822644 
L 18.918506 96.700173 
L 18.972865 51.374366 
L 19.027224 67.97666 
L 19.081583 108.024171 
L 19.135942 85.055594 
L 19.190301 41.431823 
L 19.24466 71.111777 
L 19.516454 117.891462 
L 19.625172 45.981133 
L 19.73389 89.159537 
L 19.788249 75.644143 
L 19.842608 80.631073 
L 19.896967 96.078037 
L 19.951326 90.078291 
L 20.168761 72.931121 
L 20.22312 88.36746 
L 20.277479 71.331344 
L 20.331838 94.183971 
L 20.386197 79.465558 
L 20.440556 92.726962 
L 20.494915 81.214453 
L 20.603633 94.10705 
L 20.657992 59.525483 
L 20.712351 87.127279 
L 20.76671 67.623912 
L 20.821069 83.601811 
L 20.875427 103.468365 
L 20.929786 87.360655 
L 21.038504 63.510317 
L 21.25594 103.635559 
L 21.310299 83.997693 
L 21.364658 85.673532 
L 21.419017 98.206171 
L 21.527735 63.096507 
L 21.582094 71.433063 
L 21.690811 79.034801 
L 21.853888 55.896542 
L 21.962606 88.989423 
L 22.016965 58.814104 
L 22.071324 89.85306 
L 22.125683 109.997929 
L 22.180042 77.89228 
L 22.234401 96.328438 
L 22.28876 86.488899 
L 22.343119 98.307255 
L 22.397477 82.791225 
L 22.451836 92.197991 
L 22.506195 105.296137 
L 22.560554 57.537746 
L 22.614913 61.306725 
L 22.669272 93.638179 
L 22.723631 77.207019 
L 22.77799 86.77089 
L 22.832349 84.886398 
L 23.049785 60.320256 
L 23.158502 92.604912 
L 23.321579 61.399829 
L 23.430297 99.417528 
L 23.484656 44.809151 
L 23.539015 70.507521 
L 23.593374 87.557302 
L 23.647733 78.195827 
L 23.756451 56.687078 
L 23.81081 107.326626 
L 23.865169 85.996286 
L 23.919527 93.334485 
L 23.973886 46.320367 
L 24.028245 74.969115 
L 24.082604 68.696811 
L 24.136963 104.300447 
L 24.245681 103.699205 
L 24.30004 52.538509 
L 24.354399 66.285175 
L 24.517476 96.179737 
L 24.571835 43.546486 
L 24.626194 56.666731 
L 24.680552 72.098262 
L 24.734911 65.969724 
L 24.952347 89.482492 
L 25.006706 71.103366 
L 25.061065 83.947973 
L 25.115424 81.705514 
L 25.169783 99.856924 
L 25.278501 63.593785 
L 25.33286 73.604798 
L 25.387219 118.773251 
L 25.441577 101.070053 
L 25.495936 72.356331 
L 25.550295 78.496656 
L 25.604654 83.604326 
L 25.659013 63.994523 
L 25.713372 76.334 
L 25.767731 94.703649 
L 25.82209 72.906368 
L 25.876449 92.861496 
L 26.039526 72.646668 
L 26.093885 93.534342 
L 26.148244 61.525421 
L 26.202602 98.296872 
L 26.256961 93.41277 
L 26.474397 74.518159 
L 26.528756 69.702906 
L 26.583115 82.290803 
L 26.637474 71.924796 
L 26.691833 62.094805 
L 26.746192 67.123632 
L 26.800551 102.403944 
L 26.85491 92.475528 
L 27.017986 60.269402 
L 27.072345 94.601044 
L 27.126704 73.604613 
L 27.181063 78.962655 
L 27.235422 65.406143 
L 27.398499 95.948847 
L 27.452858 64.072374 
L 27.507217 89.66288 
L 27.670294 66.904831 
L 27.724652 96.281687 
L 27.779011 91.490789 
L 27.83337 89.197082 
L 27.887729 71.308886 
L 28.050806 113.685056 
L 28.213883 55.374643 
L 28.268242 76.55354 
L 28.322601 61.210088 
L 28.431319 87.95663 
L 28.485677 84.068667 
L 28.540036 61.303011 
L 28.594395 63.290048 
L 28.648754 84.334928 
L 28.703113 76.211513 
L 28.811831 62.298732 
L 28.86619 93.799139 
L 28.920549 78.23724 
L 28.974908 58.289706 
L 29.029267 59.779224 
L 29.192344 90.688915 
L 29.246702 87.534565 
L 29.35542 54.894135 
L 29.518497 103.945224 
L 29.572856 72.152321 
L 29.627215 92.203903 
L 29.681574 97.649992 
L 29.735933 66.986936 
L 29.790292 88.23133 
L 30.007727 59.344032 
L 30.062086 102.368842 
L 30.116445 81.765269 
L 30.279522 50.986941 
L 30.442599 90.580228 
L 30.605676 66.281751 
L 30.660035 72.555179 
L 30.768752 55.790009 
L 30.823111 83.050188 
L 30.87747 17.314114 
L 30.986188 101.400114 
L 31.094906 77.459605 
L 31.149265 77.624296 
L 31.203624 75.349185 
L 31.257983 59.392409 
L 31.312342 83.748835 
L 31.366701 74.458382 
L 31.42106 67.034522 
L 31.475419 70.36848 
L 31.529778 69.344532 
L 31.584136 76.430053 
L 31.638495 111.444178 
L 31.692854 87.678889 
L 31.747213 92.827438 
L 31.91029 57.297437 
L 32.073367 91.632891 
L 32.127726 104.319746 
L 32.236444 86.391504 
L 32.345161 118.858015 
L 32.508238 66.281984 
L 32.562597 69.166041 
L 32.616956 56.568153 
L 32.671315 93.924044 
L 32.725674 65.981934 
L 32.834392 109.871687 
L 32.997469 63.061841 
L 33.051828 90.095383 
L 33.106186 84.354339 
L 33.160545 87.528755 
L 33.214904 66.930788 
L 33.323622 66.999915 
L 33.486699 102.386068 
L 33.541058 66.71103 
L 33.595417 74.003074 
L 33.649776 72.141909 
L 33.758494 99.001135 
L 33.812853 55.393406 
L 33.867211 90.888024 
L 33.92157 101.303948 
L 34.030288 58.303829 
L 34.084647 68.612995 
L 34.139006 101.898121 
L 34.193365 73.561582 
L 34.247724 63.826872 
L 34.302083 100.500454 
L 34.356442 63.092002 
L 34.628236 91.055742 
L 34.682595 97.539429 
L 34.736954 46.768344 
L 34.791313 66.882481 
L 34.95439 91.398898 
L 35.008749 87.478234 
L 35.063108 51.365841 
L 35.117467 93.454232 
L 35.171826 65.461905 
L 35.280544 112.209856 
L 35.389261 45.558028 
L 35.552338 107.219901 
L 35.715415 69.896839 
L 35.769774 68.695783 
L 35.824133 59.891294 
L 35.932851 101.952371 
L 36.095928 74.51962 
L 36.204645 46.798175 
L 36.313363 82.030995 
L 36.367722 59.178935 
L 36.422081 82.969082 
L 36.47644 60.401084 
L 36.639517 103.744673 
L 36.693876 85.784607 
L 36.748235 106.692873 
L 36.802594 71.44103 
L 36.856953 92.27283 
L 36.911311 88.535314 
L 36.96567 98.713561 
L 37.020029 70.632329 
L 37.074388 104.571961 
L 37.128747 89.132812 
L 37.183106 62.356624 
L 37.237465 77.652646 
L 37.291824 95.056846 
L 37.346183 93.154478 
L 37.400542 80.61478 
L 37.454901 100.380419 
L 37.50926 94.587457 
L 37.617978 70.274843 
L 37.672336 79.739065 
L 37.726695 95.288349 
L 37.781054 67.229161 
L 37.835413 90.361613 
L 37.944131 65.440631 
L 37.99849 66.228958 
L 38.052849 99.262361 
L 38.107208 82.711279 
L 38.161567 87.429325 
L 38.215926 68.151104 
L 38.324644 95.530622 
L 38.48772 58.650995 
L 38.542079 62.14251 
L 38.596438 104.877287 
L 38.650797 88.540571 
L 38.705156 82.859818 
L 38.759515 64.286753 
L 38.813874 85.296879 
L 38.868233 58.617498 
L 38.922592 73.500158 
L 38.976951 65.248855 
L 39.03131 66.813244 
L 39.085669 74.605721 
L 39.140028 64.250753 
L 39.194386 66.414528 
L 39.248745 102.469606 
L 39.303104 68.911368 
L 39.411822 95.303916 
L 39.466181 69.135252 
L 39.52054 92.077823 
L 39.574899 98.32314 
L 39.629258 62.293653 
L 39.683617 71.94354 
L 39.792335 59.077033 
L 39.846694 84.565745 
L 39.901053 65.969099 
L 39.955411 67.912481 
L 40.118488 81.877047 
L 40.227206 80.357901 
L 40.281565 82.516892 
L 40.335924 53.597715 
L 40.499001 98.210672 
L 40.607719 79.789395 
L 40.662078 88.132373 
L 40.825154 62.281918 
L 40.933872 94.549263 
L 41.04259 79.430168 
L 41.096949 84.065775 
L 41.151308 101.145595 
L 41.314385 62.619467 
L 41.586179 100.895132 
L 41.640538 75.153585 
L 41.694897 79.062522 
L 41.749256 87.691774 
L 41.857974 87.411148 
L 41.912333 90.585611 
L 42.129769 63.002762 
L 42.184128 89.139409 
L 42.238486 56.689269 
L 42.292845 98.688235 
L 42.347204 51.889079 
L 42.401563 85.210921 
L 42.455922 72.393106 
L 42.510281 112.942404 
L 42.56464 94.554022 
L 42.618999 64.894634 
L 42.673358 93.981119 
L 42.727717 107.679743 
L 42.836435 75.653534 
L 42.890794 92.618864 
L 42.945153 58.955554 
L 42.999511 98.351723 
L 43.05387 80.341616 
L 43.108229 69.047055 
L 43.216947 113.49825 
L 43.271306 66.745329 
L 43.325665 82.833543 
L 43.380024 87.12877 
L 43.543101 44.384226 
L 43.59746 99.890838 
L 43.706178 97.59149 
L 43.760536 79.792196 
L 43.814895 88.422745 
L 43.869254 81.177496 
L 43.923613 98.157509 
L 43.977972 85.003971 
L 44.032331 74.45163 
L 44.08669 91.797454 
L 44.141049 54.71597 
L 44.195408 86.001009 
L 44.249767 58.091298 
L 44.304126 77.543164 
L 44.358485 68.721147 
L 44.412844 89.170181 
L 44.467203 71.031902 
L 44.521561 76.136182 
L 44.57592 72.964251 
L 44.630279 71.63525 
L 44.684638 55.579131 
L 44.738997 80.980829 
L 44.847715 80.021943 
L 44.956433 75.846346 
L 45.010792 84.5417 
L 45.065151 82.798208 
L 45.11951 64.771009 
L 45.173869 81.212397 
L 45.228228 66.857421 
L 45.336945 86.59488 
L 45.554381 16.363636 
L 45.60874 94.63306 
L 45.663099 69.646714 
L 45.717458 71.644662 
L 45.826176 84.518365 
L 45.880535 79.95069 
L 45.934894 89.130306 
L 45.989253 56.874517 
L 46.043611 76.431825 
L 46.152329 96.735085 
L 46.369765 65.863702 
L 46.424124 79.536175 
L 46.478483 65.236645 
L 46.532842 67.34492 
L 46.587201 74.528097 
L 46.64156 99.673137 
L 46.695919 86.671545 
L 46.858995 66.115992 
L 46.967713 109.204804 
L 47.185149 62.745305 
L 47.239508 54.073371 
L 47.293867 94.093289 
L 47.348226 77.152811 
L 47.402585 78.830469 
L 47.456944 62.746411 
L 47.62002 90.792126 
L 47.674379 58.469859 
L 47.728738 66.274386 
L 47.837456 96.204855 
L 47.891815 79.334293 
L 47.946174 88.631799 
L 48.000533 88.065391 
L 48.054892 90.596152 
L 48.109251 76.846098 
L 48.217969 99.508007 
L 48.326687 71.253159 
L 48.381045 90.737241 
L 48.435404 73.008014 
L 48.489763 67.736804 
L 48.544122 72.552381 
L 48.598481 81.909287 
L 48.65284 68.784016 
L 48.707199 99.099821 
L 48.761558 87.344526 
L 48.870276 76.462867 
L 48.924635 91.225715 
L 49.087712 62.183849 
L 49.196429 89.251138 
L 49.250788 72.696525 
L 49.305147 92.434115 
L 49.413865 66.740649 
L 49.468224 97.656064 
L 49.522583 81.702322 
L 49.576942 95.062148 
L 49.68566 68.439216 
L 49.740019 68.88235 
L 49.903095 107.345758 
L 49.957454 52.456498 
L 50.011813 83.523462 
L 50.066172 84.886521 
L 50.17489 81.272878 
L 50.229249 66.30352 
L 50.283608 86.989298 
L 50.337967 75.973234 
L 50.392326 85.362317 
L 50.446685 69.424557 
L 50.501044 81.646108 
L 50.609762 68.726903 
L 50.718479 85.404279 
L 50.772838 60.760752 
L 50.827197 88.800142 
L 50.881556 75.31053 
L 51.044633 102.358142 
L 51.098992 74.699515 
L 51.153351 86.179089 
L 51.20771 93.483859 
L 51.262069 76.606627 
L 51.316428 90.922767 
L 51.370787 96.052464 
L 51.425145 57.571431 
L 51.479504 68.103757 
L 51.588222 77.154612 
L 51.642581 100.783212 
L 51.69694 47.637174 
L 51.751299 72.820121 
L 51.805658 71.99374 
L 51.860017 74.265169 
L 51.968735 57.773792 
L 52.18617 89.388347 
L 52.294888 57.303245 
L 52.457965 85.044756 
L 52.512324 75.359829 
L 52.566683 75.93833 
L 52.72976 86.59859 
L 52.838478 72.745055 
L 52.947195 80.969188 
L 53.001554 73.178966 
L 53.055913 91.983105 
L 53.273349 51.034974 
L 53.327708 86.20296 
L 53.382067 67.729796 
L 53.436426 56.062466 
L 53.490785 88.890396 
L 53.545144 83.994856 
L 53.599503 83.662162 
L 53.653862 64.776007 
L 53.70822 69.702017 
L 53.816938 89.726892 
L 53.871297 75.089699 
L 53.980015 97.893196 
L 54.034374 60.958522 
L 54.088733 69.611778 
L 54.143092 78.825028 
L 54.197451 74.070693 
L 54.25181 75.854151 
L 54.306169 67.137558 
L 54.414887 83.633195 
L 54.577963 72.813807 
L 54.632322 89.513904 
L 54.686681 63.14032 
L 54.74104 98.571965 
L 54.795399 90.69507 
L 54.849758 66.639288 
L 54.904117 85.235863 
L 54.958476 94.856657 
L 55.012835 64.344073 
L 55.067194 87.151538 
L 55.121553 82.602356 
L 55.175912 92.290909 
L 55.338988 79.430485 
L 55.447706 70.995307 
L 55.502065 92.2892 
L 55.556424 62.617764 
L 55.610783 73.043324 
L 55.665142 67.868072 
L 55.719501 71.224812 
L 55.77386 88.657559 
L 55.882578 61.909188 
L 56.045654 111.990369 
L 56.154372 72.921201 
L 56.208731 81.786333 
L 56.26309 89.542068 
L 56.371808 89.301466 
L 56.426167 66.97217 
L 56.480526 75.248773 
L 56.534885 68.250606 
L 56.697962 103.68715 
L 56.75232 71.728922 
L 56.806679 91.188357 
L 56.861038 87.402312 
L 56.915397 99.08369 
L 57.078474 42.462558 
L 57.187192 93.495128 
L 57.241551 91.340902 
L 57.350269 67.786179 
L 57.458987 105.732055 
L 57.513345 74.057261 
L 57.567704 91.27248 
L 57.622063 87.195117 
L 57.730781 52.785036 
L 57.78514 71.752678 
L 57.893858 89.306812 
L 57.948217 73.268352 
L 58.002576 82.494876 
L 58.111294 65.550305 
L 58.27437 101.859153 
L 58.437447 48.924285 
L 58.600524 82.746961 
L 58.81796 103.22003 
L 58.872319 66.984072 
L 58.926678 82.318769 
L 58.981037 84.962171 
L 59.035395 76.094798 
L 59.089754 78.638598 
L 59.144113 89.048856 
L 59.198472 70.425093 
L 59.252831 83.549328 
L 59.361549 110.175472 
L 59.524626 68.211276 
L 59.578985 84.339729 
L 59.633344 78.578278 
L 59.687703 81.81248 
L 59.79642 60.508283 
L 59.850779 86.966971 
L 59.905138 80.265473 
L 59.959497 59.464848 
L 60.013856 79.527863 
L 60.068215 80.262339 
L 60.122574 87.790715 
L 60.176933 85.201427 
L 60.231292 84.093882 
L 60.394369 70.937183 
L 60.448728 86.911807 
L 60.503087 81.004614 
L 60.557445 73.036628 
L 60.611804 77.150868 
L 60.720522 87.667017 
L 60.774881 95.741482 
L 60.82924 60.915246 
L 60.883599 79.79939 
L 60.937958 90.203994 
L 61.101035 65.426936 
L 61.209753 103.397709 
L 61.264112 70.622502 
L 61.31847 82.500127 
L 61.372829 83.014355 
L 61.427188 67.844872 
L 61.481547 80.225937 
L 61.535906 81.261061 
L 61.590265 86.26537 
L 61.644624 76.399789 
L 61.698983 78.648815 
L 61.753342 98.811968 
L 61.807701 98.475046 
L 61.970778 62.729633 
L 62.025137 99.547149 
L 62.079495 85.238537 
L 62.133854 85.360559 
L 62.188213 73.556156 
L 62.296931 92.496721 
L 62.35129 55.512917 
L 62.405649 96.075609 
L 62.460008 61.666564 
L 62.514367 60.199645 
L 62.623085 102.537042 
L 62.677444 91.425026 
L 62.731803 91.764529 
L 62.786162 93.569526 
L 62.84052 71.269745 
L 62.894879 99.310997 
L 62.949238 78.112712 
L 63.003597 80.180688 
L 63.112315 44.783202 
L 63.166674 94.171241 
L 63.221033 87.535384 
L 63.275392 57.321488 
L 63.329751 67.355472 
L 63.438469 59.763769 
L 63.547187 89.051722 
L 63.601545 60.843749 
L 63.655904 84.338923 
L 63.710263 82.025774 
L 63.764622 107.055174 
L 63.927699 60.900892 
L 64.036417 79.798435 
L 64.090776 70.85811 
L 64.145135 71.326787 
L 64.199494 87.840717 
L 64.308212 67.667281 
L 64.416929 80.933734 
L 64.525647 57.585691 
L 64.688724 95.644234 
L 64.743083 96.682632 
L 64.851801 88.071488 
L 64.90616 97.385833 
L 64.960519 92.754172 
L 65.069237 66.662478 
L 65.177954 114.463171 
L 65.232313 94.021452 
L 65.341031 73.097408 
L 65.39539 80.129409 
L 65.449749 70.832732 
L 65.504108 83.369509 
L 65.558467 57.512959 
L 65.612826 81.756183 
L 65.667185 80.440784 
L 65.721544 107.779735 
L 65.775903 95.671393 
L 65.830262 97.42894 
L 65.884621 82.305791 
L 65.938979 107.097456 
L 65.993338 82.909522 
L 66.047697 81.130632 
L 66.102056 85.075655 
L 66.156415 80.99119 
L 66.319492 64.896952 
L 66.373851 89.865328 
L 66.42821 73.202002 
L 66.482569 63.313285 
L 66.536928 69.389965 
L 66.591287 82.349358 
L 66.645646 81.90345 
L 66.754363 74.967884 
L 66.863081 93.915924 
L 66.91744 90.677917 
L 67.026158 84.187402 
L 67.080517 90.903027 
L 67.134876 67.847869 
L 67.189235 94.401499 
L 67.243594 70.449826 
L 67.352312 90.325578 
L 67.461029 75.638103 
L 67.515388 85.724607 
L 67.569747 78.140384 
L 67.678465 91.985721 
L 67.732824 85.01844 
L 67.787183 79.506607 
L 67.841542 79.770456 
L 67.895901 84.005797 
L 67.95026 67.986596 
L 68.004619 76.520984 
L 68.058978 87.35171 
L 68.113337 71.072194 
L 68.167696 81.868325 
L 68.276413 102.351197 
L 68.385131 68.974263 
L 68.43949 75.291499 
L 68.493849 92.045996 
L 68.548208 73.28675 
L 68.656926 73.740361 
L 68.711285 87.332161 
L 68.765644 80.678045 
L 68.820003 77.922519 
L 68.874362 64.196164 
L 68.928721 72.15716 
L 69.037438 94.732837 
L 69.091797 87.325268 
L 69.200515 68.280324 
L 69.309233 100.420243 
L 69.363592 63.904866 
L 69.417951 86.93259 
L 69.581028 71.278273 
L 69.635387 97.412049 
L 69.798463 55.009972 
L 69.96154 101.387645 
L 70.124617 69.201634 
L 70.233335 97.607627 
L 70.287694 96.736907 
L 70.342053 72.359118 
L 70.396412 93.982558 
L 70.450771 76.280302 
L 70.505129 83.416048 
L 70.559488 83.556773 
L 70.613847 70.422475 
L 70.722565 91.287976 
L 70.776924 87.863894 
L 70.831283 71.878807 
L 70.885642 87.262735 
L 70.940001 82.642063 
L 70.99436 87.082714 
L 71.048719 96.713259 
L 71.103078 89.680222 
L 71.157437 59.131179 
L 71.211796 77.133858 
L 71.266154 97.03414 
L 71.320513 74.726962 
L 71.374872 76.956704 
L 71.48359 79.983074 
L 71.537949 66.275724 
L 71.592308 78.505347 
L 71.646667 85.475515 
L 71.701026 76.67076 
L 71.864103 88.69206 
L 71.918462 83.3618 
L 71.972821 90.557985 
L 72.027179 68.250904 
L 72.081538 75.422863 
L 72.244615 103.997137 
L 72.298974 78.324688 
L 72.353333 80.130276 
L 72.407692 88.845338 
L 72.570769 73.51037 
L 72.625128 85.61077 
L 72.679487 77.849209 
L 72.733846 80.644016 
L 72.788204 67.29319 
L 72.842563 78.12958 
L 72.896922 74.446658 
L 72.951281 79.4898 
L 73.00564 74.392393 
L 73.059999 63.833745 
L 73.223076 90.097015 
L 73.386153 71.416995 
L 73.440512 86.510014 
L 73.494871 73.596298 
L 73.603588 100.23998 
L 73.657947 81.082673 
L 73.712306 81.94092 
L 73.766665 82.380433 
L 73.875383 90.836892 
L 73.929742 72.456511 
L 73.984101 77.674173 
L 74.03846 73.325051 
L 74.092819 75.833876 
L 74.147178 92.292981 
L 74.310254 41.789381 
L 74.364613 99.598974 
L 74.418972 67.449054 
L 74.582049 87.444222 
L 74.636408 69.993309 
L 74.690767 93.983953 
L 74.745126 73.402772 
L 74.799485 75.601311 
L 74.853844 90.403821 
L 75.016921 51.471206 
L 75.071279 86.330833 
L 75.125638 73.097521 
L 75.234356 95.989401 
L 75.288715 71.655307 
L 75.343074 81.631799 
L 75.451792 86.209192 
L 75.506151 97.544548 
L 75.56051 59.242909 
L 75.614869 76.895418 
L 75.669228 73.50954 
L 75.723587 75.354685 
L 75.777946 85.914052 
L 75.832304 54.71522 
L 75.941022 92.17867 
L 75.995381 78.085648 
L 76.04974 91.497761 
L 76.267176 52.068651 
L 76.375894 97.074694 
L 76.430253 87.958707 
L 76.484612 87.576629 
L 76.538971 56.186539 
L 76.593329 88.14458 
L 76.647688 93.895686 
L 76.702047 91.813793 
L 76.756406 73.831156 
L 76.810765 82.605327 
L 76.919483 71.711837 
L 76.973842 59.128341 
L 77.136919 97.666739 
L 77.299996 75.391734 
L 77.354354 89.302971 
L 77.517431 60.087074 
L 77.626149 100.171403 
L 77.680508 95.26797 
L 77.734867 99.899169 
L 77.843585 72.841857 
L 77.897944 96.403674 
L 77.952303 68.269627 
L 78.006662 75.853825 
L 78.061021 77.426584 
L 78.115379 100.805305 
L 78.169738 78.074427 
L 78.224097 74.28506 
L 78.278456 80.232324 
L 78.332815 78.156115 
L 78.387174 68.271228 
L 78.441533 68.930223 
L 78.495892 99.27886 
L 78.550251 79.129982 
L 78.60461 77.390295 
L 78.658969 90.417746 
L 78.713328 75.614023 
L 78.767687 81.068152 
L 78.822046 101.581623 
L 78.985122 64.767309 
L 79.039481 82.948423 
L 79.09384 75.565774 
L 79.148199 77.879293 
L 79.202558 86.692847 
L 79.256917 80.782746 
L 79.311276 72.76318 
L 79.365635 82.724971 
L 79.419994 56.130446 
L 79.474353 94.475061 
L 79.528712 76.450012 
L 79.583071 57.172815 
L 79.637429 80.114569 
L 79.691788 51.156936 
L 79.746147 84.27196 
L 79.800506 67.420533 
L 79.854865 66.676056 
L 79.909224 82.547364 
L 79.963583 78.121223 
L 80.017942 70.547197 
L 80.072301 72.58902 
L 80.12666 90.899444 
L 80.181019 68.230396 
L 80.235378 74.58831 
L 80.344096 86.578896 
L 80.398455 100.025293 
L 80.452813 63.693246 
L 80.507172 86.832536 
L 80.561531 84.917871 
L 80.61589 101.241744 
L 80.670249 92.539342 
L 80.724608 80.819425 
L 80.778967 94.157781 
L 80.833326 77.883596 
L 80.887685 80.981527 
L 80.942044 104.105657 
L 80.996403 69.860604 
L 81.050762 79.714154 
L 81.15948 99.749948 
L 81.268197 58.655412 
L 81.322556 96.193569 
L 81.376915 85.793598 
L 81.431274 85.450253 
L 81.485633 90.46451 
L 81.539992 70.936093 
L 81.594351 75.858793 
L 81.757428 87.862236 
L 81.811787 64.678403 
L 81.866146 73.507081 
L 81.920505 83.363033 
L 81.974863 66.377582 
L 82.13794 87.143972 
L 82.246658 88.51697 
L 82.355376 67.682831 
L 82.518453 98.577437 
L 82.572812 93.120199 
L 82.735888 58.541349 
L 82.953324 99.205679 
L 83.116401 61.203778 
L 83.225119 92.266961 
L 83.279478 91.106431 
L 83.388196 84.996833 
L 83.442555 65.186874 
L 83.496913 83.208918 
L 83.551272 90.137932 
L 83.605631 59.404662 
L 83.65999 76.894854 
L 83.714349 88.389597 
L 83.768708 50.253009 
L 83.823067 72.351903 
L 83.877426 82.816982 
L 83.931785 80.394647 
L 83.986144 80.084034 
L 84.040503 93.352962 
L 84.094862 77.843645 
L 84.149221 80.578781 
L 84.20358 80.629934 
L 84.312297 64.260472 
L 84.366656 98.128385 
L 84.421015 55.646623 
L 84.475374 114.638396 
L 84.529733 88.358581 
L 84.584092 89.107958 
L 84.747169 56.01108 
L 84.910246 87.975659 
L 85.018963 65.638239 
L 85.18204 93.527657 
L 85.236399 83.488109 
L 85.399476 97.121261 
L 85.453835 72.328837 
L 85.562553 73.150208 
L 85.616912 73.412578 
L 85.671271 62.673754 
L 85.72563 107.664744 
L 85.779988 83.939996 
L 85.834347 89.695776 
L 85.888706 83.850593 
L 85.997424 51.297213 
L 86.051783 67.592875 
L 86.21486 95.23535 
L 86.377937 70.822252 
L 86.432296 115.964987 
L 86.486655 87.18552 
L 86.541013 67.381808 
L 86.595372 81.619404 
L 86.649731 77.351187 
L 86.70409 93.691378 
L 86.758449 71.092503 
L 86.812808 74.137884 
L 86.867167 93.687328 
L 86.921526 77.250079 
L 86.975885 79.72101 
L 87.030244 92.347007 
L 87.138962 70.226553 
L 87.193321 89.775378 
L 87.24768 64.321443 
L 87.302038 84.687898 
L 87.465115 65.399126 
L 87.519474 95.153017 
L 87.573833 77.060752 
L 87.628192 72.602303 
L 87.682551 90.820306 
L 87.73691 67.234223 
L 87.791269 77.621033 
L 87.845628 98.624718 
L 87.899987 60.969412 
L 87.954346 84.292952 
L 88.063063 96.270302 
L 88.171781 80.420345 
L 88.280499 89.763025 
L 88.334858 73.825345 
L 88.443576 98.410293 
L 88.497935 91.069666 
L 88.552294 72.549264 
L 88.606653 82.093772 
L 88.76973 92.2547 
L 88.824088 50.492858 
L 88.878447 111.149435 
L 88.932806 96.874155 
L 88.987165 72.359916 
L 89.095883 73.302633 
L 89.150242 61.83513 
L 89.313319 83.72296 
L 89.367678 66.006861 
L 89.422037 88.774164 
L 89.476396 67.002762 
L 89.530755 50.678023 
L 89.585113 64.726501 
L 89.639472 78.753051 
L 89.693831 78.154396 
L 89.74819 74.306782 
L 89.802549 82.083613 
L 89.856908 65.960524 
L 89.911267 76.329946 
L 89.965626 79.024314 
L 90.019985 89.376394 
L 90.074344 74.996578 
L 90.128703 98.067335 
L 90.183062 65.664142 
L 90.237421 73.27816 
L 90.454856 94.537842 
L 90.509215 92.572322 
L 90.563574 71.533375 
L 90.617933 82.212934 
L 90.672292 82.081359 
L 90.78101 91.759332 
L 90.835369 68.359467 
L 90.889728 89.629689 
L 90.998446 61.081837 
L 91.107163 65.519893 
L 91.161522 96.775392 
L 91.215881 82.622461 
L 91.27024 61.219996 
L 91.378958 101.095449 
L 91.433317 72.848559 
L 91.487676 112.066188 
L 91.542035 74.951065 
L 91.650753 105.653374 
L 91.81383 68.776875 
L 91.868188 87.691776 
L 91.922547 81.504351 
L 91.976906 64.110914 
L 92.139983 88.071893 
L 92.194342 91.579047 
L 92.248701 70.753718 
L 92.30306 104.755785 
L 92.357419 87.71002 
L 92.411778 95.503812 
L 92.574855 49.13389 
L 92.629213 75.471294 
L 92.683572 75.03098 
L 92.737931 57.243143 
L 92.79229 61.090471 
L 92.955367 91.958401 
L 93.009726 68.413202 
L 93.064085 78.020083 
L 93.118444 109.516922 
L 93.172803 80.849678 
L 93.227162 83.102119 
L 93.281521 102.108459 
L 93.444597 59.297586 
L 93.607674 98.702006 
L 93.716392 73.124282 
L 93.770751 96.291921 
L 93.82511 88.434914 
L 93.879469 84.195966 
L 93.933828 95.239869 
L 93.988187 62.643561 
L 94.042546 75.485914 
L 94.096905 109.989569 
L 94.151263 65.812168 
L 94.259981 66.488718 
L 94.31434 105.408927 
L 94.368699 82.953906 
L 94.423058 80.419689 
L 94.477417 67.227809 
L 94.531776 74.155278 
L 94.586135 69.104549 
L 94.640494 77.102681 
L 94.694853 58.348377 
L 94.803571 103.822483 
L 94.85793 79.28019 
L 94.912288 82.478804 
L 94.966647 91.338379 
L 95.075365 75.934421 
L 95.129724 93.532319 
L 95.184083 75.178767 
L 95.292801 85.627436 
L 95.34716 57.178988 
L 95.401519 70.34528 
L 95.455878 83.639816 
L 95.510237 59.715786 
L 95.564596 81.318702 
L 95.618955 99.138895 
L 95.673313 98.917313 
L 95.727672 95.760946 
L 95.782031 78.907467 
L 95.83639 101.023657 
L 95.890749 92.300909 
L 95.945108 73.608434 
L 95.999467 85.68208 
L 96.053826 78.921469 
L 96.108185 104.532512 
L 96.162544 66.583208 
L 96.216903 82.4127 
L 96.271262 77.306461 
L 96.434338 58.246909 
L 96.597415 98.660648 
L 96.706133 72.994396 
L 96.760492 96.523383 
L 96.814851 78.28496 
L 96.86921 46.440814 
L 96.923569 68.397217 
L 96.977928 94.720907 
L 97.032287 83.819192 
L 97.086646 71.904841 
L 97.141005 84.384573 
L 97.195364 71.669678 
L 97.304081 86.452349 
L 97.521517 62.679278 
L 97.630235 91.497657 
L 97.684594 82.03241 
L 97.738953 95.437961 
L 97.793312 80.47074 
L 97.847671 83.767224 
L 97.90203 96.901988 
L 97.956389 65.351433 
L 98.010747 75.186837 
L 98.065106 89.815871 
L 98.119465 75.517466 
L 98.228183 106.109939 
L 98.282542 81.279987 
L 98.336901 88.535712 
L 98.39126 84.877696 
L 98.445619 63.782156 
L 98.499978 87.382046 
L 98.554337 71.034888 
L 98.608696 83.493951 
L 98.663055 52.233704 
L 98.717414 87.637742 
L 98.771772 62.006281 
L 98.826131 85.374396 
L 98.88049 71.481338 
L 98.934849 67.850533 
L 98.989208 98.136927 
L 99.043567 53.774706 
L 99.097926 79.245924 
L 99.206644 104.647828 
L 99.261003 51.442752 
L 99.315362 82.907778 
L 99.369721 76.088294 
L 99.42408 79.792638 
L 99.478439 76.912905 
L 99.587156 98.132277 
L 99.750233 67.712064 
L 99.804592 65.739143 
L 99.858951 66.352158 
L 99.91331 96.474404 
L 99.967669 86.935076 
L 100.130746 66.643603 
L 100.239464 94.498406 
L 100.293822 92.580564 
L 100.348181 72.683443 
L 100.40254 82.460396 
L 100.456899 85.27443 
L 100.511258 55.259733 
L 100.565617 62.593767 
L 100.619976 98.680118 
L 100.674335 89.119351 
L 100.783053 60.35092 
L 100.94613 97.457931 
L 101.054847 64.68364 
L 101.109206 68.823836 
L 101.163565 69.688269 
L 101.217924 58.021602 
L 101.272283 73.083162 
L 101.326642 51.118487 
L 101.381001 70.658334 
L 101.544078 92.245324 
L 101.652796 75.197314 
L 101.707155 79.271975 
L 101.92459 104.733064 
L 101.978949 57.972166 
L 102.033308 110.409234 
L 102.087667 79.698935 
L 102.142026 89.283175 
L 102.196385 86.004119 
L 102.413821 58.778836 
L 102.46818 54.459378 
L 102.631256 96.278836 
L 102.739974 91.355831 
L 102.794333 106.094388 
L 102.848692 93.948549 
L 102.903051 64.370663 
L 102.95741 83.493501 
L 103.011769 79.002403 
L 103.120487 108.971129 
L 103.229205 56.423866 
L 103.283564 67.036667 
L 103.337922 94.121301 
L 103.392281 76.71836 
L 103.44664 87.001116 
L 103.500999 70.160009 
L 103.555358 71.083702 
L 103.609717 90.448487 
L 103.664076 71.779604 
L 103.718435 64.844995 
L 103.772794 78.961711 
L 103.935871 56.611891 
L 103.99023 105.768951 
L 104.044589 79.045556 
L 104.098947 53.434773 
L 104.153306 90.321978 
L 104.207665 86.206927 
L 104.262024 84.499674 
L 104.316383 73.564377 
L 104.425101 106.465136 
L 104.47946 69.483895 
L 104.533819 70.834927 
L 104.588178 72.399386 
L 104.751255 106.307852 
L 104.859972 63.188355 
L 104.96869 93.339812 
L 105.023049 66.662201 
L 105.077408 78.878878 
L 105.131767 98.767072 
L 105.240485 69.345567 
L 105.349203 81.673719 
L 105.403562 68.127463 
L 105.457921 70.608493 
L 105.51228 95.797377 
L 105.566639 68.927934 
L 105.620997 83.931615 
L 105.675356 74.710624 
L 105.729715 81.648794 
L 105.784074 84.068486 
L 105.838433 79.854218 
L 105.892792 96.25718 
L 105.947151 80.659327 
L 106.00151 68.289849 
L 106.055869 70.439511 
L 106.110228 84.58838 
L 106.164587 54.677442 
L 106.218946 72.543713 
L 106.382022 48.398884 
L 106.436381 92.404226 
L 106.49074 86.601248 
L 106.545099 83.199989 
L 106.599458 66.268828 
L 106.653817 76.188514 
L 106.708176 74.591051 
L 106.762535 91.551146 
L 106.816894 75.815394 
L 106.871253 85.949742 
L 107.03433 71.913186 
L 107.197406 92.73284 
L 107.251765 72.200256 
L 107.306124 93.279093 
L 107.360483 92.090657 
L 107.52356 62.912286 
L 107.632278 94.592173 
L 107.740996 71.968581 
L 107.904072 107.084684 
L 108.01279 51.551086 
L 108.067149 56.508534 
L 108.230226 94.827358 
L 108.284585 79.890709 
L 108.338944 84.189852 
L 108.393303 94.393146 
L 108.447662 87.979106 
L 108.610739 53.335599 
L 108.665097 89.204721 
L 108.719456 73.922122 
L 108.773815 77.568651 
L 108.828174 96.105902 
L 108.882533 78.03796 
L 108.936892 89.183977 
L 108.991251 66.45798 
L 109.04561 110.717158 
L 109.099969 60.111368 
L 109.154328 103.461198 
L 109.208687 67.530255 
L 109.263046 83.354922 
L 109.371764 61.304568 
L 109.426122 66.129699 
L 109.480481 89.651928 
L 109.53484 48.203342 
L 109.589199 67.419121 
L 109.860994 105.311539 
L 109.915353 62.614483 
L 109.969712 63.128974 
L 110.132789 98.123821 
L 110.241506 63.427275 
L 110.350224 100.023484 
L 110.458942 56.603842 
L 110.513301 72.041404 
L 110.56766 83.360225 
L 110.622019 81.657266 
L 110.730737 85.429645 
L 110.785096 96.730425 
L 110.893814 71.369371 
L 110.948172 82.934812 
L 111.002531 63.784851 
L 111.05689 83.227467 
L 111.111249 76.127728 
L 111.165608 80.46679 
L 111.219967 84.196535 
L 111.274326 53.742968 
L 111.328685 98.304069 
L 111.383044 59.206593 
L 111.546121 103.231442 
L 111.654839 41.341311 
L 111.709197 95.553401 
L 111.763556 72.317909 
L 111.817915 92.10003 
L 111.872274 81.864816 
L 112.08971 63.060708 
L 112.144069 67.791278 
L 112.198428 87.934356 
L 112.252787 79.357437 
L 112.361505 86.131033 
L 112.415864 98.950711 
L 112.524581 68.367699 
L 112.57894 85.710822 
L 112.633299 67.905 
L 112.687658 60.970168 
L 112.796376 96.256305 
L 112.850735 41.31286 
L 112.905094 81.177487 
L 112.959453 121.338976 
L 113.068171 51.076509 
L 113.12253 73.029926 
L 113.176889 107.358965 
L 113.231248 79.273555 
L 113.339965 74.059211 
L 113.448683 83.974671 
L 113.503042 77.423522 
L 113.557401 81.247987 
L 113.61176 82.408505 
L 113.666119 73.198123 
L 113.720478 96.949232 
L 113.774837 90.843519 
L 113.937914 62.651856 
L 113.992273 60.619579 
L 114.046631 127.636364 
L 114.10099 57.963305 
L 114.155349 55.67302 
L 114.264067 93.254143 
L 114.318426 78.240512 
L 114.372785 52.172213 
L 114.481503 116.594039 
L 114.535862 92.593451 
L 114.698939 53.251383 
L 114.807656 105.184364 
L 114.862015 43.44249 
L 114.916374 82.574679 
L 115.025092 85.681604 
L 115.079451 98.754026 
L 115.242528 68.015103 
L 115.296887 69.283472 
L 115.351246 64.102286 
L 115.405605 82.364406 
L 115.459964 75.466801 
L 115.568681 66.309767 
L 115.731758 110.213382 
L 115.949194 76.705455 
L 116.003553 93.95423 
L 116.057912 82.330448 
L 116.112271 89.109846 
L 116.16663 87.663518 
L 116.220989 71.286222 
L 116.329706 90.846736 
L 116.384065 58.205227 
L 116.438424 69.470094 
L 116.492783 91.924169 
L 116.547142 74.692021 
L 116.65586 86.637294 
L 116.710219 48.771658 
L 116.764578 81.042241 
L 116.818937 86.385222 
L 116.927655 58.967209 
L 116.982014 87.416478 
L 117.036373 82.635629 
L 117.090731 61.178339 
L 117.14509 74.00052 
L 117.199449 112.882455 
L 117.253808 73.78848 
L 117.308167 88.956287 
L 117.362526 69.505303 
L 117.416885 97.148674 
L 117.471244 75.192172 
L 117.579962 91.924446 
L 117.634321 66.153611 
L 117.68868 69.07444 
L 117.851756 88.215032 
L 117.960474 74.870431 
L 118.014833 50.430279 
L 118.069192 94.46876 
L 118.123551 84.567098 
L 118.17791 89.022233 
L 118.232269 50.603355 
L 118.286628 66.489683 
L 118.449705 82.087931 
L 118.66714 53.39477 
L 118.721499 97.503093 
L 118.775858 79.90369 
L 118.884576 92.648636 
L 118.938935 53.130595 
L 118.993294 94.971232 
L 119.047653 77.304357 
L 119.102012 84.201634 
L 119.265089 65.342158 
L 119.373806 101.592834 
L 119.428165 97.105053 
L 119.482524 98.876731 
L 119.591242 78.07737 
L 119.645601 91.993013 
L 119.69996 62.50732 
L 119.754319 96.819931 
L 119.808678 88.796205 
L 119.971755 84.033597 
L 120.026114 61.626925 
L 120.18919 89.40043 
L 120.243549 85.809752 
L 120.297908 60.788567 
L 120.352267 83.783345 
L 120.406626 92.810441 
L 120.460985 84.238303 
L 120.515344 81.05688 
L 120.569703 95.735045 
L 120.624062 82.472736 
L 120.73278 90.216924 
L 120.787139 88.89329 
L 120.841498 71.205528 
L 120.895856 85.205314 
L 120.950215 94.525862 
L 121.004574 59.024712 
L 121.058933 95.149975 
L 121.113292 70.56675 
L 121.167651 90.741502 
L 121.22201 87.136121 
L 121.276369 66.206915 
L 121.330728 83.767127 
L 121.385087 70.861432 
L 121.439446 86.990144 
L 121.493805 81.996232 
L 121.548164 84.881094 
L 121.602523 96.492386 
L 121.71124 63.13339 
L 121.765599 87.623903 
L 121.819958 72.026759 
L 121.874317 59.073455 
L 121.928676 87.54604 
L 121.983035 77.250877 
L 122.091753 66.880779 
L 122.146112 82.904126 
L 122.200471 82.566376 
L 122.25483 71.735804 
L 122.309189 82.840942 
L 122.363548 80.588304 
L 122.417906 42.868549 
L 122.472265 61.80128 
L 122.526624 77.763938 
L 122.635342 57.375648 
L 122.798419 99.03126 
L 122.907137 63.599751 
L 122.961496 72.381464 
L 123.070214 55.769927 
L 123.23329 93.964538 
L 123.396367 82.234935 
L 123.450726 87.958837 
L 123.505085 86.598097 
L 123.559444 63.531187 
L 123.613803 101.810257 
L 123.668162 68.647759 
L 123.77688 83.248864 
L 123.831239 66.2752 
L 123.885598 77.636984 
L 123.939956 83.512281 
L 123.994315 69.111713 
L 124.103033 100.896806 
L 124.157392 72.665721 
L 124.211751 73.94273 
L 124.26611 83.561896 
L 124.320469 77.459508 
L 124.374828 61.116969 
L 124.429187 75.536332 
L 124.483546 89.969281 
L 124.537905 75.744951 
L 124.592264 81.708855 
L 124.646623 62.11136 
L 124.700981 78.623676 
L 124.75534 67.634324 
L 124.918417 114.512673 
L 125.027135 69.348984 
L 125.081494 74.419225 
L 125.135853 85.174856 
L 125.190212 81.301155 
L 125.244571 66.678102 
L 125.29893 77.557582 
L 125.353289 81.35586 
L 125.462006 66.260614 
L 125.516365 81.778898 
L 125.570724 79.583256 
L 125.679442 62.281377 
L 125.78816 88.247201 
L 125.842519 60.709062 
L 125.896878 93.675944 
L 125.951237 69.995421 
L 126.005596 65.197764 
L 126.059955 68.036074 
L 126.114314 95.02943 
L 126.168673 54.920261 
L 126.223031 66.373725 
L 126.27739 105.176089 
L 126.331749 49.531617 
L 126.386108 74.278213 
L 126.440467 71.944285 
L 126.494826 60.440473 
L 126.657903 96.499691 
L 126.712262 59.543765 
L 126.766621 75.037547 
L 126.82098 73.752249 
L 126.875339 75.444301 
L 126.929698 84.192804 
L 126.984056 73.10256 
L 127.038415 36.978736 
L 127.147133 94.886738 
L 127.255851 60.244473 
L 127.31021 90.442821 
L 127.364569 65.380141 
L 127.418928 86.795231 
L 127.473287 49.673224 
L 127.527646 73.678602 
L 127.582005 98.850295 
L 127.636364 75.006406 
" clip-path="url(#pcb83f9372e)" style="fill: none; stroke: #c6b784; stroke-width: 1.5; stroke-linecap: square"/>
   </g>
   <g id="patch_3">
    <path d="M 10.8 133.2 
L 10.8 10.8 
" style="fill: none; stroke: #000000; stroke-width: 0.8; stroke-linejoin: miter; stroke-linecap: square"/>
   </g>
   <g id="patch_4">
    <path d="M 133.2 133.2 
L 133.2 10.8 
" style="fill: none; stroke: #000000; stroke-width: 0.8; stroke-linejoin: miter; stroke-linecap: square"/>
   </g>
   <g id="patch_5">
    <path d="M 10.8 133.2 
L 133.2 133.2 
" style="fill: none; stroke: #000000; stroke-width: 0.8; stroke-linejoin: miter; stroke-linecap: square"/>
   </g>
   <g id="patch_6">
    <path d="M 10.8 10.8 
L 133.2 10.8 
" style="fill: none; stroke: #000000; stroke-width: 0.8; stroke-linejoin: miter; stroke-linecap: square"/>
   </g>
  </g>
 </g>
 <defs>
  <clipPath id="pcb83f9372e">
   <rect x="10.8" y="10.8" width="122.4" height="122.4"/>
  </clipPath>
 </defs>
</svg>
