<?xml version="1.0" encoding="utf-8" standalone="no"?>
<!DOCTYPE svg PUBLIC "-//W3C//DTD SVG 1.1//EN"
  "http://www.w3.org/Graphics/SVG/1.1/DTD/svg11.dtd">
<svg xmlns:xlink="http://www.w3.org/1999/xlink" width="144pt" height="144pt" viewBox="0 0 144 144" xmlns="http://www.w3.org/2000/svg" version="1.1">
 <metadata>
  <rdf:RDF xmlns:dc="http://purl.org/dc/elements/1.1/" xmlns:cc="http://creativecommons.org/ns#" xmlns:rdf="http://www.w3.org/1999/02/22-rdf-syntax-ns#">
   <cc:Work>
    <dc:type rdf:resource="http://purl.org/dc/dcmitype/StillImage"/>
    <dc:date>2025-02-07T11:27:54.651648</dc:date>
    <dc:format>image/svg+xml</dc:format>
    <dc:creator>
     <cc:Agent>
      <dc:title>Matplotlib v3.8.0, https://matplotlib.org/</dc:title>
     </cc:Agent>
    </dc:creator>
   </cc:Work>
  </rdf:RDF>
 </metadata>
 <defs>
  <style type="text/css">*{stroke-linejoin: round; stroke-linecap: butt}</style>
 </defs>
 <g id="figure_1">
  <g id="patch_1">
   <path d="M 0 144 
L 144 144 
L 144 0 
L 0 0 
L 0 144 
z
" style="fill: none"/>
  </g>
  <g id="axes_1">
   <g id="patch_2">
    <path d="M 10.8 133.2 
L 133.2 133.2 
L 133.2 10.8 
L 10.8 10.8 
L 10.8 133.2 
z
" style="fill: none"/>
   </g>
   <g id="matplotlib.axis_1"/>
   <g id="matplotlib.axis_2"/>
   <g id="line2d_1">
    <path d="M 16.363636 79.382128 
L 16.417995 70.12914 
L 16.472354 86.090279 
L 16.526713 54.843232 
L 16.581072 79.253753 
L 16.635431 76.12655 
L 16.68979 88.793447 
L 16.744149 79.775082 
L 16.798508 69.745835 
L 16.961585 100.31286 
L 17.070302 61.596382 
L 17.124661 102.303308 
L 17.17902 68.248584 
L 17.287738 22.575667 
L 17.505174 68.788062 
L 17.668251 51.170651 
L 17.72261 90.018803 
L 17.776969 33.196274 
L 17.831327 85.431207 
L 17.940045 73.456158 
L 18.103122 93.366606 
L 18.266199 45.411131 
L 18.374917 86.555505 
L 18.429276 47.748882 
L 18.483635 59.752545 
L 18.592352 82.4577 
L 18.646711 45.571846 
L 18.70107 46.016533 
L 18.755429 73.464391 
L 18.809788 70.173378 
L 18.864147 51.228276 
L 18.972865 79.734473 
L 19.027224 50.075011 
L 19.081583 53.960526 
L 19.190301 77.357286 
L 19.24466 71.7354 
L 19.353377 48.211576 
L 19.407736 51.326881 
L 19.462095 47.007191 
L 19.516454 61.980015 
L 19.570813 49.240662 
L 19.625172 42.313929 
L 19.73389 69.410215 
L 19.788249 54.836128 
L 19.842608 105.268978 
L 19.896967 72.855933 
L 19.951326 83.009926 
L 20.005685 52.528478 
L 20.060044 78.873699 
L 20.114402 108.077052 
L 20.168761 64.285226 
L 20.22312 64.612248 
L 20.331838 87.655146 
L 20.386197 46.181325 
L 20.440556 61.184093 
L 20.494915 84.509595 
L 20.549274 45.68987 
L 20.603633 50.007132 
L 20.821069 89.936352 
L 20.875427 38.649173 
L 20.929786 76.531216 
L 20.984145 95.180557 
L 21.147222 63.248954 
L 21.201581 76.777625 
L 21.25594 35.647038 
L 21.310299 101.581348 
L 21.364658 82.321213 
L 21.419017 62.795883 
L 21.473376 105.635073 
L 21.527735 72.255132 
L 21.582094 78.993554 
L 21.636452 59.111478 
L 21.690811 71.783181 
L 21.74517 60.510716 
L 21.799529 88.298387 
L 21.908247 88.101193 
L 22.071324 46.285221 
L 22.125683 74.22088 
L 22.180042 58.165223 
L 22.234401 57.617868 
L 22.28876 44.023603 
L 22.343119 54.484035 
L 22.397477 85.966506 
L 22.451836 82.734815 
L 22.506195 81.393876 
L 22.560554 67.665113 
L 22.614913 73.676146 
L 22.669272 74.585959 
L 22.723631 52.177715 
L 22.77799 74.069138 
L 22.832349 74.161859 
L 22.941067 37.950536 
L 23.104144 70.229964 
L 23.158502 67.363544 
L 23.212861 51.842337 
L 23.26722 77.032139 
L 23.321579 59.921193 
L 23.430297 73.133922 
L 23.539015 32.255374 
L 23.593374 83.234144 
L 23.647733 74.345922 
L 23.756451 53.574614 
L 23.81081 73.173003 
L 23.865169 45.691642 
L 23.919527 72.017702 
L 24.028245 96.606656 
L 24.136963 53.901619 
L 24.191322 73.16005 
L 24.463117 46.91331 
L 24.626194 81.356723 
L 24.734911 52.281919 
L 24.78927 58.927866 
L 24.843629 68.925427 
L 24.897988 36.239296 
L 25.061065 79.732444 
L 25.115424 40.476787 
L 25.169783 48.10775 
L 25.224142 78.521427 
L 25.278501 62.173749 
L 25.33286 46.649619 
L 25.550295 87.635382 
L 25.659013 61.924899 
L 25.713372 90.561647 
L 25.767731 77.731266 
L 25.82209 63.861282 
L 25.876449 74.176415 
L 25.930808 127.636364 
L 25.985167 82.286351 
L 26.093885 59.504386 
L 26.148244 85.976501 
L 26.202602 84.929623 
L 26.256961 55.943873 
L 26.31132 75.723846 
L 26.420038 68.712308 
L 26.528756 82.103234 
L 26.637474 48.232842 
L 26.691833 62.722418 
L 26.746192 42.916087 
L 26.85491 88.090736 
L 26.909269 67.041715 
L 26.963627 39.680989 
L 27.017986 67.328738 
L 27.126704 49.870132 
L 27.181063 41.001917 
L 27.289781 84.228014 
L 27.34414 83.90427 
L 27.398499 83.655389 
L 27.452858 49.840134 
L 27.507217 110.142932 
L 27.561576 73.563627 
L 27.615935 38.732382 
L 27.670294 54.400341 
L 27.724652 42.793662 
L 27.779011 80.416541 
L 27.83337 60.431678 
L 27.887729 54.463063 
L 27.942088 70.372798 
L 28.050806 52.013486 
L 28.159524 77.929386 
L 28.213883 74.712726 
L 28.37696 42.152817 
L 28.431319 81.253352 
L 28.485677 70.701391 
L 28.540036 66.43057 
L 28.594395 46.718232 
L 28.648754 63.655069 
L 28.703113 90.330647 
L 28.757472 70.270702 
L 28.811831 56.30768 
L 28.974908 86.807809 
L 29.029267 59.472826 
L 29.083626 91.187801 
L 29.137985 54.943909 
L 29.192344 55.863904 
L 29.246702 82.371116 
L 29.301061 41.510878 
L 29.35542 77.880778 
L 29.409779 56.552078 
L 29.464138 77.994322 
L 29.518497 79.122225 
L 29.572856 30.342019 
L 29.627215 87.859197 
L 29.681574 74.865033 
L 29.735933 75.493977 
L 29.790292 46.233952 
L 29.844651 69.720395 
L 29.89901 72.723004 
L 30.062086 37.708338 
L 30.170804 90.22953 
L 30.225163 82.105031 
L 30.279522 62.545448 
L 30.333881 75.825952 
L 30.38824 90.853657 
L 30.551317 36.369685 
L 30.605676 91.714642 
L 30.660035 56.489578 
L 30.714394 41.899052 
L 30.768752 51.15039 
L 30.87747 79.123895 
L 30.931829 65.629604 
L 30.986188 41.830494 
L 31.094906 41.598135 
L 31.149265 100.267966 
L 31.312342 68.329543 
L 31.366701 53.816639 
L 31.42106 60.542484 
L 31.584136 76.308842 
L 31.638495 57.564078 
L 31.692854 66.638564 
L 31.747213 65.652238 
L 31.801572 37.833668 
L 31.964649 84.071127 
L 32.073367 29.05963 
L 32.236444 77.385888 
L 32.345161 24.896484 
L 32.453879 78.76957 
L 32.508238 73.78533 
L 32.562597 61.901286 
L 32.616956 75.787007 
L 32.671315 49.259408 
L 32.725674 64.409717 
L 32.834392 50.500073 
L 32.997469 87.37848 
L 33.106186 53.621749 
L 33.160545 66.440735 
L 33.214904 48.837547 
L 33.269263 66.843855 
L 33.377981 36.798079 
L 33.43234 87.58911 
L 33.486699 79.265172 
L 33.649776 44.463857 
L 33.758494 92.751557 
L 33.812853 89.00818 
L 33.92157 41.113784 
L 34.030288 99.232029 
L 34.193365 38.956157 
L 34.247724 96.363299 
L 34.302083 42.692404 
L 34.356442 62.36939 
L 34.410801 22.07692 
L 34.46516 51.5088 
L 34.519519 41.233809 
L 34.628236 96.872232 
L 34.682595 87.061373 
L 34.845672 46.703075 
L 35.063108 88.178885 
L 35.117467 68.761968 
L 35.171826 69.772379 
L 35.226185 73.641556 
L 35.280544 64.650507 
L 35.334903 86.146738 
L 35.389261 79.568096 
L 35.44362 51.478662 
L 35.497979 68.588394 
L 35.552338 64.871139 
L 35.606697 76.086642 
L 35.715415 34.586428 
L 35.878492 82.100966 
L 35.98721 86.418396 
L 36.095928 46.280516 
L 36.150286 85.853481 
L 36.259004 85.10301 
L 36.367722 58.038165 
L 36.422081 81.185115 
L 36.47644 59.964797 
L 36.530799 63.968428 
L 36.585158 62.114152 
L 36.639517 54.955525 
L 36.693876 82.037308 
L 36.748235 71.120752 
L 36.802594 74.310347 
L 36.856953 65.245063 
L 36.911311 71.882475 
L 36.96567 95.189625 
L 37.020029 76.436737 
L 37.128747 61.246867 
L 37.237465 85.25458 
L 37.346183 35.847223 
L 37.454901 74.356151 
L 37.50926 51.830787 
L 37.617978 52.465245 
L 37.672336 75.013567 
L 37.726695 69.372108 
L 37.781054 38.846313 
L 37.835413 41.533604 
L 37.889772 84.26761 
L 37.944131 77.810675 
L 38.052849 47.236829 
L 38.161567 46.593996 
L 38.215926 77.022531 
L 38.270285 73.711645 
L 38.324644 55.774803 
L 38.48772 95.32145 
L 38.542079 41.75589 
L 38.596438 56.356537 
L 38.705156 86.570857 
L 38.759515 56.387229 
L 38.813874 68.967586 
L 38.868233 60.413665 
L 39.03131 91.277033 
L 39.085669 88.981895 
L 39.140028 75.000927 
L 39.194386 77.75764 
L 39.248745 77.563833 
L 39.303104 74.733425 
L 39.357463 42.022229 
L 39.411822 77.071868 
L 39.466181 54.884534 
L 39.629258 74.178456 
L 39.683617 71.005173 
L 39.737976 54.355818 
L 39.792335 67.921671 
L 39.846694 97.96882 
L 39.901053 68.033576 
L 40.00977 56.427926 
L 40.064129 90.805069 
L 40.118488 58.193906 
L 40.172847 57.686856 
L 40.281565 91.427627 
L 40.335924 43.241349 
L 40.390283 72.509418 
L 40.499001 62.44355 
L 40.55336 89.143292 
L 40.607719 57.070957 
L 40.662078 66.454569 
L 40.716436 90.775389 
L 40.770795 49.665864 
L 40.825154 75.170374 
L 40.879513 82.16038 
L 40.933872 71.608392 
L 40.988231 114.970635 
L 41.151308 54.246072 
L 41.205667 55.002923 
L 41.260026 110.912127 
L 41.314385 86.457132 
L 41.423103 49.528984 
L 41.586179 81.153952 
L 41.694897 43.077423 
L 41.857974 81.940098 
L 41.912333 68.103275 
L 41.966692 22.493936 
L 42.129769 88.865701 
L 42.292845 47.022297 
L 42.455922 83.93648 
L 42.510281 75.395808 
L 42.673358 45.722744 
L 42.782076 87.756268 
L 42.836435 68.756037 
L 42.890794 61.86133 
L 42.945153 65.563274 
L 42.999511 120.091823 
L 43.05387 59.581984 
L 43.108229 65.224729 
L 43.216947 106.531639 
L 43.271306 103.527441 
L 43.434383 73.729721 
L 43.488742 59.642613 
L 43.543101 94.799321 
L 43.59746 69.188059 
L 43.651819 48.169622 
L 43.706178 65.149055 
L 43.814895 44.802894 
L 43.923613 87.291562 
L 44.032331 54.702824 
L 44.08669 85.750711 
L 44.141049 77.110942 
L 44.304126 47.51368 
L 44.358485 56.267473 
L 44.412844 87.703228 
L 44.467203 79.875796 
L 44.521561 47.962041 
L 44.57592 81.164505 
L 44.738997 46.457958 
L 45.065151 104.998308 
L 45.228228 58.822032 
L 45.282586 59.766392 
L 45.336945 45.319522 
L 45.391304 71.788576 
L 45.445663 55.07474 
L 45.554381 59.576884 
L 45.60874 51.586033 
L 45.663099 90.706393 
L 45.717458 75.367015 
L 45.771817 35.405595 
L 45.826176 47.720984 
L 45.934894 77.799637 
L 45.989253 70.976587 
L 46.09797 47.874391 
L 46.206688 82.610844 
L 46.315406 43.52342 
L 46.369765 91.528268 
L 46.424124 70.760645 
L 46.478483 67.178326 
L 46.532842 90.175376 
L 46.587201 71.442899 
L 46.64156 69.943406 
L 46.695919 81.105492 
L 46.750278 57.923079 
L 46.804636 69.404401 
L 47.022072 81.913594 
L 47.185149 47.583299 
L 47.293867 75.458233 
L 47.402585 56.105997 
L 47.456944 97.957453 
L 47.511303 72.045789 
L 47.62002 67.389238 
L 47.674379 69.192802 
L 47.728738 65.375756 
L 47.783097 73.236728 
L 47.837456 65.201639 
L 47.891815 29.870648 
L 48.000533 75.59271 
L 48.054892 61.700017 
L 48.109251 88.032671 
L 48.272328 55.804794 
L 48.326687 101.849899 
L 48.381045 98.182954 
L 48.489763 65.099294 
L 48.598481 77.937228 
L 48.707199 61.6591 
L 48.870276 88.456146 
L 48.924635 46.564451 
L 48.978994 62.454621 
L 49.033353 89.607245 
L 49.196429 46.616284 
L 49.359506 100.983626 
L 49.522583 63.523277 
L 49.576942 85.325812 
L 49.740019 24.992194 
L 49.957454 95.173892 
L 50.120531 52.652347 
L 50.17489 92.67066 
L 50.229249 39.636822 
L 50.283608 48.663389 
L 50.337967 47.448844 
L 50.501044 79.315311 
L 50.66412 61.900783 
L 50.827197 76.069258 
L 50.935915 49.05803 
L 50.990274 54.695063 
L 51.098992 86.17117 
L 51.153351 65.14302 
L 51.20771 80.790682 
L 51.262069 76.485851 
L 51.316428 96.466223 
L 51.370787 77.969931 
L 51.425145 51.101949 
L 51.479504 81.015354 
L 51.533863 63.000681 
L 51.588222 68.254686 
L 51.642581 57.43783 
L 51.69694 61.993413 
L 51.751299 77.153279 
L 51.805658 63.057079 
L 51.860017 60.191087 
L 51.914376 46.356663 
L 51.968735 88.304512 
L 52.023094 66.458126 
L 52.077453 61.090673 
L 52.131812 67.898573 
L 52.18617 112.44532 
L 52.240529 52.955779 
L 52.294888 68.53045 
L 52.349247 68.442918 
L 52.457965 113.360155 
L 52.512324 82.43674 
L 52.675401 45.343705 
L 52.838478 74.059194 
L 52.892837 66.977777 
L 52.947195 38.726432 
L 53.055913 77.067125 
L 53.110272 43.185191 
L 53.164631 62.353158 
L 53.21899 68.783621 
L 53.273349 39.349669 
L 53.327708 82.503204 
L 53.382067 72.188556 
L 53.436426 54.219588 
L 53.490785 95.190437 
L 53.545144 50.083764 
L 53.599503 62.858907 
L 53.653862 80.999152 
L 53.70822 55.242169 
L 53.762579 81.27475 
L 53.816938 90.097304 
L 53.871297 47.606198 
L 53.925656 87.754639 
L 53.980015 76.205876 
L 54.034374 31.951001 
L 54.088733 62.343635 
L 54.143092 59.288569 
L 54.197451 59.971983 
L 54.25181 72.578993 
L 54.306169 66.083943 
L 54.360528 56.63564 
L 54.414887 85.046895 
L 54.469245 64.255796 
L 54.523604 60.087036 
L 54.577963 61.252208 
L 54.632322 61.234136 
L 54.686681 73.166082 
L 54.849758 45.25198 
L 55.012835 76.076547 
L 55.067194 96.305697 
L 55.121553 42.32589 
L 55.175912 76.577148 
L 55.23027 67.950825 
L 55.284629 85.607375 
L 55.338988 69.710287 
L 55.502065 57.732943 
L 55.610783 68.605546 
L 55.665142 39.338492 
L 55.719501 99.518291 
L 55.77386 73.921406 
L 55.828219 75.870294 
L 55.882578 74.608957 
L 55.936937 44.886031 
L 55.991295 75.991808 
L 56.045654 66.724715 
L 56.100013 74.606535 
L 56.154372 72.246142 
L 56.26309 63.368582 
L 56.426167 39.293262 
L 56.480526 64.644414 
L 56.534885 43.393403 
L 56.589244 47.711432 
L 56.643603 68.548957 
L 56.697962 56.76608 
L 56.75232 50.606559 
L 56.915397 89.407172 
L 56.969756 49.165735 
L 57.024115 72.780607 
L 57.078474 61.960914 
L 57.132833 64.047895 
L 57.187192 79.388549 
L 57.241551 44.149227 
L 57.29591 57.549295 
L 57.350269 80.105633 
L 57.404628 67.204549 
L 57.458987 70.925346 
L 57.513345 44.254328 
L 57.567704 74.782075 
L 57.622063 65.7086 
L 57.676422 62.990686 
L 57.730781 50.184947 
L 57.78514 60.780604 
L 57.839499 68.934964 
L 57.893858 54.926228 
L 57.948217 70.655296 
L 58.002576 69.281138 
L 58.111294 41.028582 
L 58.220012 92.077444 
L 58.27437 74.43927 
L 58.328729 69.641274 
L 58.383088 92.062149 
L 58.437447 63.800475 
L 58.491806 64.018388 
L 58.546165 66.328568 
L 58.600524 75.49628 
L 58.709242 42.269046 
L 58.763601 62.526282 
L 58.81796 61.636484 
L 58.872319 85.477159 
L 58.926678 70.156598 
L 58.981037 63.99265 
L 59.035395 74.906774 
L 59.089754 50.513777 
L 59.144113 51.731214 
L 59.198472 72.727036 
L 59.252831 71.373302 
L 59.415908 46.263865 
L 59.578985 73.920249 
L 59.687703 83.763118 
L 59.959497 51.067567 
L 60.013856 84.571869 
L 60.068215 46.984695 
L 60.122574 74.875161 
L 60.285651 85.969407 
L 60.34001 65.588248 
L 60.448728 91.993282 
L 60.557445 72.531973 
L 60.611804 92.422743 
L 60.774881 41.564481 
L 60.82924 50.118261 
L 60.883599 56.748304 
L 60.937958 84.802747 
L 60.992317 73.208203 
L 61.046676 46.432359 
L 61.101035 64.628635 
L 61.155394 57.408522 
L 61.31847 68.521814 
L 61.372829 70.941108 
L 61.427188 66.315488 
L 61.481547 69.841823 
L 61.590265 31.885289 
L 61.753342 86.004676 
L 61.807701 80.182676 
L 61.86206 92.363347 
L 61.970778 46.85933 
L 62.079495 100.699246 
L 62.133854 88.658926 
L 62.188213 60.497671 
L 62.242572 71.179862 
L 62.296931 65.216861 
L 62.35129 79.353584 
L 62.405649 54.174037 
L 62.460008 73.987433 
L 62.677444 53.656501 
L 62.786162 52.884684 
L 62.84052 74.44177 
L 62.894879 74.500469 
L 63.003597 48.231918 
L 63.057956 61.652567 
L 63.166674 74.774316 
L 63.275392 57.8431 
L 63.329751 82.552718 
L 63.38411 39.313397 
L 63.438469 47.843208 
L 63.492828 77.680372 
L 63.547187 65.644878 
L 63.601545 54.307414 
L 63.710263 77.480513 
L 63.818981 64.730108 
L 63.87334 71.465799 
L 63.927699 71.882001 
L 64.036417 55.079312 
L 64.090776 71.346024 
L 64.145135 51.547675 
L 64.199494 63.557407 
L 64.308212 53.689302 
L 64.362571 71.213524 
L 64.416929 62.612261 
L 64.471288 66.052536 
L 64.525647 76.735984 
L 64.580006 39.405971 
L 64.634365 61.87432 
L 64.688724 83.750873 
L 64.743083 51.850997 
L 64.797442 89.509203 
L 64.851801 71.042644 
L 65.014878 85.265825 
L 65.123596 54.477418 
L 65.232313 78.573361 
L 65.286672 68.607922 
L 65.341031 36.329218 
L 65.39539 100.620971 
L 65.449749 61.476937 
L 65.504108 33.756313 
L 65.558467 36.427704 
L 65.667185 84.602916 
L 65.721544 53.917407 
L 65.775903 54.307022 
L 65.938979 67.3615 
L 65.993338 62.728365 
L 66.047697 38.978993 
L 66.102056 67.121736 
L 66.156415 52.946446 
L 66.210774 60.195809 
L 66.265133 50.068671 
L 66.42821 83.229858 
L 66.536928 62.617927 
L 66.645646 80.759026 
L 66.700004 59.325217 
L 66.754363 63.743038 
L 66.863081 65.356519 
L 66.91744 63.479231 
L 67.026158 82.107542 
L 67.080517 73.58327 
L 67.134876 75.1225 
L 67.297953 45.569959 
L 67.352312 71.013524 
L 67.406671 61.008041 
L 67.461029 64.433689 
L 67.515388 77.792123 
L 67.569747 51.915393 
L 67.624106 67.415295 
L 67.678465 88.37048 
L 67.732824 79.30547 
L 67.787183 49.749687 
L 67.841542 60.387724 
L 67.895901 63.411997 
L 67.95026 46.501972 
L 68.058978 72.524208 
L 68.113337 66.727703 
L 68.167696 48.577054 
L 68.222054 79.349567 
L 68.276413 74.251292 
L 68.385131 71.144521 
L 68.43949 37.007076 
L 68.493849 46.765585 
L 68.602567 78.980389 
L 68.656926 53.40788 
L 68.711285 58.971481 
L 68.765644 61.75604 
L 68.820003 30.317553 
L 68.874362 82.372945 
L 68.928721 61.610642 
L 69.037438 78.760043 
L 69.091797 54.574318 
L 69.200515 54.762413 
L 69.363592 97.322483 
L 69.417951 43.272329 
L 69.47231 63.008975 
L 69.526669 55.231949 
L 69.581028 59.857399 
L 69.635387 68.865191 
L 69.744104 51.110193 
L 69.798463 56.38671 
L 69.96154 101.091931 
L 70.015899 83.921167 
L 70.124617 71.881333 
L 70.178976 48.983649 
L 70.342053 94.189202 
L 70.396412 40.461624 
L 70.450771 64.14504 
L 70.505129 51.166776 
L 70.613847 77.228878 
L 70.831283 55.470057 
L 70.940001 87.921471 
L 71.048719 26.288155 
L 71.103078 86.350745 
L 71.157437 58.342439 
L 71.211796 65.462711 
L 71.266154 93.840418 
L 71.320513 57.191896 
L 71.374872 57.913446 
L 71.537949 83.40442 
L 71.701026 41.232403 
L 71.755385 76.436927 
L 71.809744 55.025608 
L 71.918462 87.937024 
L 71.972821 64.140253 
L 72.027179 78.471207 
L 72.081538 75.755492 
L 72.135897 51.066395 
L 72.190256 57.508456 
L 72.244615 54.000705 
L 72.353333 91.752694 
L 72.407692 32.686421 
L 72.462051 64.405182 
L 72.51641 55.419963 
L 72.570769 61.296776 
L 72.679487 72.517204 
L 72.733846 70.059926 
L 72.896922 45.371566 
L 72.951281 72.456429 
L 73.00564 63.156944 
L 73.059999 57.201513 
L 73.114358 75.489942 
L 73.168717 65.797504 
L 73.223076 59.62809 
L 73.277435 90.794823 
L 73.331794 60.581902 
L 73.440512 71.363404 
L 73.494871 50.89372 
L 73.549229 66.541635 
L 73.712306 80.186162 
L 73.766665 50.049822 
L 73.821024 60.963213 
L 73.929742 42.466859 
L 73.984101 74.69123 
L 74.03846 65.686246 
L 74.092819 40.521531 
L 74.255896 92.051252 
L 74.364613 55.393095 
L 74.636408 91.669062 
L 74.690767 41.970514 
L 74.745126 42.793077 
L 74.799485 72.009732 
L 74.853844 66.445391 
L 74.908203 43.490204 
L 74.962562 57.48827 
L 75.016921 68.896742 
L 75.071279 65.780143 
L 75.125638 54.01875 
L 75.179997 66.912487 
L 75.234356 33.605788 
L 75.288715 63.73955 
L 75.343074 75.619739 
L 75.397433 62.101544 
L 75.56051 83.016323 
L 75.723587 55.460106 
L 75.777946 57.902668 
L 75.832304 68.933395 
L 75.886663 62.325685 
L 75.941022 46.819344 
L 75.995381 88.833959 
L 76.04974 58.377032 
L 76.104099 69.562928 
L 76.158458 60.238498 
L 76.212817 61.211882 
L 76.321535 71.546886 
L 76.375894 68.582812 
L 76.484612 52.869507 
L 76.647688 93.28382 
L 76.810765 62.575326 
L 76.865124 49.455621 
L 76.973842 83.654019 
L 77.028201 55.42291 
L 77.08256 56.474274 
L 77.136919 92.76083 
L 77.191278 71.838994 
L 77.245637 70.860637 
L 77.299996 49.224753 
L 77.354354 63.162412 
L 77.408713 56.846832 
L 77.463072 65.547364 
L 77.517431 46.536855 
L 77.57179 77.01042 
L 77.626149 72.258151 
L 77.734867 45.377574 
L 77.789226 55.388641 
L 77.843585 58.949353 
L 77.897944 58.025821 
L 78.006662 84.255456 
L 78.115379 65.657709 
L 78.224097 85.504428 
L 78.332815 65.938257 
L 78.495892 71.232674 
L 78.550251 92.500423 
L 78.60461 63.556578 
L 78.658969 82.949713 
L 78.713328 67.844389 
L 78.767687 69.143011 
L 78.822046 75.740656 
L 78.876404 73.47066 
L 78.985122 65.680306 
L 79.039481 94.77742 
L 79.09384 86.544376 
L 79.148199 82.962824 
L 79.311276 49.885522 
L 79.474353 66.000712 
L 79.528712 71.988757 
L 79.691788 35.346933 
L 79.800506 84.568868 
L 79.854865 82.448002 
L 79.909224 47.630618 
L 79.963583 75.545105 
L 80.017942 76.582485 
L 80.12666 59.316466 
L 80.181019 90.072641 
L 80.235378 74.12006 
L 80.344096 51.475279 
L 80.398455 78.532782 
L 80.452813 54.858401 
L 80.507172 49.279294 
L 80.561531 70.731465 
L 80.61589 68.184656 
L 80.670249 64.509622 
L 80.724608 82.957574 
L 80.778967 68.807556 
L 80.833326 71.539192 
L 80.887685 52.810699 
L 80.942044 82.953894 
L 80.996403 54.889153 
L 81.105121 79.263081 
L 81.15948 55.450504 
L 81.213838 62.341297 
L 81.268197 84.466278 
L 81.322556 48.719182 
L 81.376915 61.604743 
L 81.485633 74.582392 
L 81.594351 42.122441 
L 81.64871 82.588565 
L 81.757428 81.884409 
L 81.866146 51.699533 
L 81.920505 76.063418 
L 81.974863 35.506075 
L 82.029222 73.319758 
L 82.083581 65.542 
L 82.13794 79.401657 
L 82.192299 61.457898 
L 82.246658 88.060469 
L 82.301017 72.223824 
L 82.355376 47.996683 
L 82.409735 56.651894 
L 82.518453 84.71208 
L 82.68153 55.421695 
L 82.735888 60.751266 
L 82.790247 42.697344 
L 82.844606 66.999517 
L 82.898965 62.513423 
L 82.953324 56.825216 
L 83.062042 80.524757 
L 83.116401 51.001878 
L 83.17076 65.470804 
L 83.225119 57.084698 
L 83.279478 89.407393 
L 83.333837 79.492697 
L 83.388196 63.334912 
L 83.442555 67.896178 
L 83.496913 76.128726 
L 83.605631 64.358645 
L 83.65999 98.592904 
L 83.714349 45.841168 
L 83.768708 90.010237 
L 83.877426 76.195925 
L 83.931785 58.02065 
L 83.986144 68.327176 
L 84.040503 60.324055 
L 84.149221 78.213575 
L 84.20358 78.158784 
L 84.257938 44.812615 
L 84.312297 69.762174 
L 84.366656 50.272019 
L 84.529733 103.59797 
L 84.638451 75.55564 
L 84.69281 75.799919 
L 84.910246 81.987819 
L 85.018963 54.812333 
L 85.073322 79.161136 
L 85.127681 57.312649 
L 85.290758 75.062867 
L 85.399476 50.715372 
L 85.562553 78.751013 
L 85.616912 40.862986 
L 85.671271 70.54812 
L 85.72563 82.696855 
L 85.779988 70.146022 
L 85.834347 63.05309 
L 85.888706 86.937776 
L 85.943065 65.887432 
L 86.051783 90.962475 
L 86.21486 49.522132 
L 86.269219 59.711548 
L 86.377937 95.389395 
L 86.432296 61.190108 
L 86.486655 94.653115 
L 86.541013 86.953583 
L 86.595372 62.008811 
L 86.649731 69.31133 
L 86.70409 75.389911 
L 86.867167 52.71613 
L 87.030244 69.995863 
L 87.084603 55.357072 
L 87.138962 56.5999 
L 87.193321 76.200318 
L 87.24768 54.177942 
L 87.356397 115.268984 
L 87.465115 49.057375 
L 87.573833 82.958722 
L 87.628192 63.140607 
L 87.682551 71.717906 
L 87.73691 68.068361 
L 87.845628 34.367734 
L 87.954346 85.570194 
L 88.008705 44.301288 
L 88.063063 70.309615 
L 88.117422 83.815984 
L 88.22614 50.207523 
L 88.280499 85.792984 
L 88.334858 63.94734 
L 88.389217 68.904125 
L 88.443576 86.13051 
L 88.552294 57.685446 
L 88.606653 73.785638 
L 88.661012 53.646244 
L 88.715371 93.506433 
L 88.76973 61.077997 
L 88.824088 57.751863 
L 88.932806 76.959712 
L 89.041524 60.712322 
L 89.095883 88.032313 
L 89.150242 85.233087 
L 89.204601 47.56824 
L 89.25896 65.269604 
L 89.313319 57.033653 
L 89.367678 81.479576 
L 89.422037 57.316418 
L 89.530755 76.672782 
L 89.585113 72.40069 
L 89.639472 48.153579 
L 89.693831 93.797743 
L 89.74819 77.603791 
L 89.911267 58.928665 
L 89.965626 54.969708 
L 90.019985 39.687931 
L 90.183062 74.142543 
L 90.29178 57.884144 
L 90.346138 78.809651 
L 90.454856 46.792952 
L 90.509215 96.30682 
L 90.563574 65.647373 
L 90.672292 83.632063 
L 90.78101 49.152432 
L 90.944087 87.385491 
L 90.998446 80.618225 
L 91.107163 68.065501 
L 91.161522 88.71225 
L 91.27024 46.022367 
L 91.324599 57.459908 
L 91.378958 88.528252 
L 91.433317 62.516592 
L 91.487676 64.325756 
L 91.542035 79.081209 
L 91.596394 42.973821 
L 91.650753 75.965024 
L 91.759471 55.821632 
L 91.81383 73.236741 
L 91.868188 48.27834 
L 91.922547 66.135413 
L 92.031265 93.219574 
L 92.248701 47.918168 
L 92.411778 96.155033 
L 92.629213 55.110481 
L 92.737931 69.139322 
L 92.846649 57.503215 
L 92.901008 87.334112 
L 92.955367 50.45705 
L 93.009726 90.332448 
L 93.064085 79.68185 
L 93.118444 77.62426 
L 93.33588 23.673415 
L 93.444597 88.719876 
L 93.553315 82.997971 
L 93.607674 47.781593 
L 93.662033 64.214584 
L 93.716392 66.289306 
L 93.770751 78.594414 
L 93.879469 47.35866 
L 93.988187 68.03725 
L 94.042546 44.065289 
L 94.096905 82.785887 
L 94.151263 56.684579 
L 94.259981 73.882969 
L 94.423058 20.579153 
L 94.477417 45.867441 
L 94.531776 84.839288 
L 94.586135 42.162857 
L 94.640494 55.188285 
L 94.749212 82.844045 
L 94.803571 53.184968 
L 94.85793 68.307026 
L 94.912288 65.23037 
L 95.021006 88.992607 
L 95.184083 59.930897 
L 95.238442 61.193591 
L 95.34716 87.446303 
L 95.401519 59.491156 
L 95.455878 86.606812 
L 95.564596 57.076873 
L 95.618955 67.677235 
L 95.673313 63.497635 
L 95.727672 106.501443 
L 95.782031 62.148689 
L 95.83639 70.12046 
L 95.890749 29.743933 
L 95.945108 75.340087 
L 95.999467 52.063702 
L 96.108185 79.360273 
L 96.162544 70.46695 
L 96.216903 56.884125 
L 96.271262 63.355112 
L 96.325621 87.417184 
L 96.37998 85.169219 
L 96.488697 40.544669 
L 96.597415 71.813161 
L 96.651774 66.658752 
L 96.706133 38.657121 
L 96.760492 48.634251 
L 96.814851 82.985697 
L 96.86921 21.133255 
L 96.923569 52.85002 
L 97.032287 68.124125 
L 97.086646 60.624059 
L 97.141005 86.282417 
L 97.195364 67.500133 
L 97.249722 43.123843 
L 97.304081 82.859815 
L 97.35844 25.80647 
L 97.412799 67.663092 
L 97.467158 78.869277 
L 97.521517 67.058656 
L 97.575876 16.363636 
L 97.630235 43.996104 
L 97.684594 81.829451 
L 97.738953 79.286989 
L 97.793312 53.273492 
L 97.847671 80.162666 
L 97.90203 98.671366 
L 98.065106 39.55414 
L 98.336901 79.988347 
L 98.445619 42.739102 
L 98.499978 100.249742 
L 98.554337 85.250362 
L 98.608696 86.515042 
L 98.717414 66.003307 
L 98.771772 91.100314 
L 98.826131 76.879921 
L 98.88049 59.132978 
L 98.934849 69.185406 
L 98.989208 82.673187 
L 99.043567 56.512118 
L 99.097926 89.502293 
L 99.152285 70.938862 
L 99.206644 55.550104 
L 99.261003 73.314827 
L 99.315362 70.074723 
L 99.369721 70.85206 
L 99.42408 79.659094 
L 99.478439 53.2316 
L 99.532797 83.556363 
L 99.587156 71.418659 
L 99.641515 55.03892 
L 99.695874 79.325418 
L 99.750233 61.279038 
L 99.804592 23.971639 
L 99.858951 78.972169 
L 99.91331 36.696995 
L 99.967669 66.570754 
L 100.076387 65.783789 
L 100.130746 43.839603 
L 100.185105 51.073547 
L 100.293822 73.909297 
L 100.348181 47.188302 
L 100.456899 47.909985 
L 100.565617 100.237682 
L 100.619976 84.634729 
L 100.783053 62.231289 
L 100.837412 63.013659 
L 100.891771 73.773167 
L 100.94613 47.252204 
L 101.000489 89.101985 
L 101.054847 65.094646 
L 101.109206 56.832999 
L 101.217924 74.774583 
L 101.381001 30.699324 
L 101.43536 92.379727 
L 101.489719 71.136602 
L 101.544078 70.005679 
L 101.598437 104.283897 
L 101.707155 40.05465 
L 101.761514 84.479839 
L 101.815872 34.835852 
L 101.870231 61.316147 
L 101.92459 61.469322 
L 101.978949 22.283206 
L 102.033308 63.045028 
L 102.087667 67.073703 
L 102.142026 97.544515 
L 102.196385 82.988167 
L 102.305103 30.589442 
L 102.46818 64.559624 
L 102.522539 68.153922 
L 102.576897 44.278766 
L 102.739974 79.847771 
L 102.903051 40.801078 
L 103.011769 89.510462 
L 103.066128 77.901345 
L 103.120487 59.270814 
L 103.174846 68.882684 
L 103.337922 89.75947 
L 103.392281 66.062534 
L 103.44664 82.946922 
L 103.500999 96.379034 
L 103.555358 55.77774 
L 103.609717 88.492086 
L 103.718435 64.629374 
L 103.772794 82.176275 
L 103.827153 65.037366 
L 103.99023 99.057753 
L 104.098947 55.322627 
L 104.153306 82.729194 
L 104.207665 73.267583 
L 104.262024 79.328583 
L 104.316383 40.78318 
L 104.370742 76.197527 
L 104.425101 95.794079 
L 104.47946 55.084409 
L 104.533819 81.184182 
L 104.696896 54.88001 
L 104.751255 60.004288 
L 104.805614 80.857342 
L 104.859972 65.002472 
L 104.914331 64.506434 
L 105.023049 47.5718 
L 105.186126 107.418384 
L 105.294844 74.501362 
L 105.349203 84.659487 
L 105.403562 51.51557 
L 105.457921 59.261619 
L 105.51228 74.59628 
L 105.566639 71.708808 
L 105.620997 51.76425 
L 105.675356 54.976975 
L 105.784074 66.132693 
L 105.838433 89.482228 
L 105.892792 69.953476 
L 105.947151 79.651887 
L 106.00151 75.22467 
L 106.055869 40.82544 
L 106.110228 64.350047 
L 106.327664 104.502617 
L 106.382022 46.802406 
L 106.436381 81.879336 
L 106.49074 56.91746 
L 106.545099 71.961718 
L 106.599458 82.957006 
L 106.762535 51.101287 
L 106.816894 49.19131 
L 106.925612 70.714888 
L 106.979971 55.926986 
L 107.03433 65.330674 
L 107.088689 98.024103 
L 107.143047 91.123105 
L 107.306124 35.28532 
L 107.360483 55.722559 
L 107.414842 44.956062 
L 107.577919 72.362805 
L 107.686637 85.840206 
L 107.740996 80.069083 
L 107.795355 71.084116 
L 107.849714 89.118022 
L 107.904072 62.265534 
L 107.958431 79.962966 
L 108.01279 98.151183 
L 108.067149 72.993944 
L 108.121508 94.699834 
L 108.338944 51.234557 
L 108.393303 55.652277 
L 108.447662 50.553997 
L 108.610739 70.568627 
L 108.665097 74.141995 
L 108.719456 45.041853 
L 108.773815 73.485132 
L 108.828174 49.65676 
L 108.882533 72.442365 
L 108.936892 69.710048 
L 108.991251 29.286474 
L 109.04561 95.650672 
L 109.099969 60.184533 
L 109.154328 78.467301 
L 109.208687 73.331234 
L 109.317405 28.765746 
L 109.426122 90.122931 
L 109.480481 87.243981 
L 109.53484 79.90695 
L 109.589199 49.170176 
L 109.643558 59.365428 
L 109.697917 97.907835 
L 109.752276 73.638312 
L 109.860994 66.886713 
L 109.915353 81.553471 
L 109.969712 57.140444 
L 110.024071 59.017004 
L 110.07843 98.421405 
L 110.132789 51.876852 
L 110.187147 56.218727 
L 110.241506 85.84492 
L 110.295865 85.80411 
L 110.404583 22.953792 
L 110.458942 88.040975 
L 110.513301 65.681881 
L 110.676378 50.946448 
L 110.730737 75.912381 
L 110.785096 65.052163 
L 110.839455 66.567253 
L 110.893814 96.489598 
L 111.05689 50.966142 
L 111.111249 103.719684 
L 111.165608 50.268105 
L 111.219967 57.070743 
L 111.274326 84.263258 
L 111.328685 79.11173 
L 111.437403 57.923564 
L 111.60048 74.783248 
L 111.709197 43.793129 
L 111.763556 83.324101 
L 111.817915 75.750624 
L 111.980992 57.111339 
L 112.035351 48.862529 
L 112.08971 68.226835 
L 112.144069 20.630273 
L 112.198428 94.843299 
L 112.252787 69.424695 
L 112.307146 73.288642 
L 112.361505 72.916455 
L 112.415864 49.243762 
L 112.470222 55.25893 
L 112.524581 63.173137 
L 112.687658 52.098414 
L 112.742017 64.842149 
L 112.796376 41.565092 
L 112.850735 61.040892 
L 112.959453 81.159565 
L 113.12253 51.084574 
L 113.285606 43.220401 
L 113.394324 81.06197 
L 113.448683 69.621965 
L 113.503042 58.560201 
L 113.557401 87.187851 
L 113.61176 66.934639 
L 113.666119 66.211333 
L 113.720478 59.936101 
L 113.883555 82.852481 
L 113.937914 32.012722 
L 113.992273 70.160757 
L 114.046631 67.438836 
L 114.10099 89.369189 
L 114.155349 62.479763 
L 114.209708 96.95111 
L 114.264067 67.277446 
L 114.318426 69.793869 
L 114.372785 83.046957 
L 114.427144 77.048915 
L 114.535862 46.96273 
L 114.64458 83.3262 
L 114.698939 78.405834 
L 114.807656 47.578312 
L 114.916374 53.72371 
L 114.970733 80.035596 
L 115.025092 59.414527 
L 115.079451 62.659556 
L 115.13381 111.44519 
L 115.188169 27.909183 
L 115.242528 47.461968 
L 115.296887 53.22353 
L 115.351246 84.472127 
L 115.405605 59.02567 
L 115.459964 63.785843 
L 115.568681 107.238024 
L 115.62304 60.363355 
L 115.677399 61.498201 
L 115.731758 77.491459 
L 115.786117 58.405192 
L 115.840476 70.602271 
L 115.894835 104.323688 
L 116.057912 42.866913 
L 116.16663 114.681239 
L 116.220989 81.159357 
L 116.275348 40.680208 
L 116.329706 63.705125 
L 116.384065 51.829862 
L 116.438424 52.05927 
L 116.492783 66.816255 
L 116.547142 45.840076 
L 116.601501 59.676656 
L 116.710219 55.004183 
L 116.764578 83.373427 
L 116.818937 59.507292 
L 116.873296 81.018802 
L 116.927655 56.920391 
L 116.982014 80.454989 
L 117.036373 69.461237 
L 117.090731 92.634026 
L 117.14509 47.706957 
L 117.199449 74.679992 
L 117.253808 52.736137 
L 117.308167 61.474857 
L 117.362526 73.450914 
L 117.416885 67.314408 
L 117.471244 68.509201 
L 117.634321 82.198261 
L 117.851756 45.222145 
L 117.906115 91.149932 
L 117.960474 58.013152 
L 118.014833 67.667669 
L 118.069192 45.715816 
L 118.123551 77.556142 
L 118.17791 69.404937 
L 118.232269 57.575139 
L 118.286628 83.49601 
L 118.340987 59.501633 
L 118.395346 56.415389 
L 118.558423 82.05525 
L 118.612781 47.942275 
L 118.66714 74.631334 
L 118.721499 76.24811 
L 118.775858 111.981146 
L 118.830217 81.582786 
L 118.884576 46.85268 
L 118.938935 69.788433 
L 118.993294 94.198426 
L 119.047653 75.761577 
L 119.102012 70.229607 
L 119.156371 84.521441 
L 119.265089 35.130069 
L 119.428165 84.010949 
L 119.536883 47.075256 
L 119.591242 80.28187 
L 119.645601 65.932046 
L 119.69996 50.385015 
L 119.754319 70.303488 
L 119.863037 22.612481 
L 119.917396 76.621354 
L 119.971755 46.708 
L 120.080473 73.6331 
L 120.134831 90.782222 
L 120.18919 80.078635 
L 120.352267 54.509053 
L 120.406626 74.998285 
L 120.460985 70.188436 
L 120.569703 64.532226 
L 120.624062 110.089623 
L 120.787139 50.489099 
L 120.841498 52.963238 
L 120.895856 41.773137 
L 120.950215 83.47227 
L 121.004574 64.802834 
L 121.058933 72.945866 
L 121.113292 54.955132 
L 121.22201 55.107675 
L 121.276369 85.600754 
L 121.330728 40.76285 
L 121.439446 41.508269 
L 121.602523 71.150453 
L 121.656881 88.161743 
L 121.71124 85.890984 
L 121.765599 32.080627 
L 121.819958 107.942187 
L 121.874317 78.54953 
L 121.928676 84.946788 
L 122.091753 56.924611 
L 122.146112 87.785934 
L 122.309189 45.897857 
L 122.363548 64.381224 
L 122.417906 63.749239 
L 122.472265 41.561652 
L 122.526624 75.564153 
L 122.580983 65.087239 
L 122.689701 78.45968 
L 122.798419 47.938812 
L 122.852778 70.155986 
L 122.907137 60.651609 
L 123.015855 56.920668 
L 123.070214 62.130108 
L 123.178931 52.651979 
L 123.287649 73.616292 
L 123.342008 44.34678 
L 123.505085 93.687209 
L 123.559444 73.763314 
L 123.613803 77.972078 
L 123.668162 108.721775 
L 123.77688 108.677614 
L 123.831239 62.164172 
L 123.885598 75.94228 
L 123.939956 64.351742 
L 123.994315 73.144233 
L 124.048674 70.279105 
L 124.103033 26.564619 
L 124.157392 80.04821 
L 124.211751 70.55219 
L 124.320469 38.838947 
L 124.374828 90.509998 
L 124.429187 65.795003 
L 124.483546 66.290874 
L 124.646623 82.531219 
L 124.75534 56.759015 
L 124.809699 65.87432 
L 124.972776 94.4198 
L 125.027135 40.752694 
L 125.081494 70.454784 
L 125.135853 67.984971 
L 125.190212 89.609665 
L 125.244571 70.92122 
L 125.353289 91.128876 
L 125.407648 46.593918 
L 125.462006 77.655418 
L 125.516365 50.865024 
L 125.679442 101.34647 
L 125.842519 60.443262 
L 125.951237 82.979097 
L 126.059955 47.966894 
L 126.114314 56.241718 
L 126.168673 75.820645 
L 126.223031 57.462471 
L 126.27739 62.06217 
L 126.331749 83.105835 
L 126.386108 74.531526 
L 126.494826 60.990973 
L 126.549185 76.330358 
L 126.603544 66.943952 
L 126.657903 65.818837 
L 126.712262 59.48789 
L 126.766621 61.811211 
L 126.875339 99.318722 
L 126.929698 35.47814 
L 126.984056 55.190984 
L 127.038415 82.055034 
L 127.092774 77.843392 
L 127.147133 57.458507 
L 127.201492 57.879784 
L 127.364569 81.401771 
L 127.418928 61.203207 
L 127.473287 69.579359 
L 127.582005 109.841566 
L 127.636364 69.697761 
L 127.636364 69.697761 
" clip-path="url(#pb314766689)" style="fill: none; stroke: #b69ea5; stroke-width: 1.5; stroke-linecap: square"/>
   </g>
   <g id="patch_3">
    <path d="M 10.8 133.2 
L 10.8 10.8 
" style="fill: none; stroke: #000000; stroke-width: 0.8; stroke-linejoin: miter; stroke-linecap: square"/>
   </g>
   <g id="patch_4">
    <path d="M 133.2 133.2 
L 133.2 10.8 
" style="fill: none; stroke: #000000; stroke-width: 0.8; stroke-linejoin: miter; stroke-linecap: square"/>
   </g>
   <g id="patch_5">
    <path d="M 10.8 133.2 
L 133.2 133.2 
" style="fill: none; stroke: #000000; stroke-width: 0.8; stroke-linejoin: miter; stroke-linecap: square"/>
   </g>
   <g id="patch_6">
    <path d="M 10.8 10.8 
L 133.2 10.8 
" style="fill: none; stroke: #000000; stroke-width: 0.8; stroke-linejoin: miter; stroke-linecap: square"/>
   </g>
  </g>
 </g>
 <defs>
  <clipPath id="pb314766689">
   <rect x="10.8" y="10.8" width="122.4" height="122.4"/>
  </clipPath>
 </defs>
</svg>
