<?xml version="1.0" encoding="utf-8" standalone="no"?>
<!DOCTYPE svg PUBLIC "-//W3C//DTD SVG 1.1//EN"
  "http://www.w3.org/Graphics/SVG/1.1/DTD/svg11.dtd">
<svg xmlns:xlink="http://www.w3.org/1999/xlink" width="144pt" height="144pt" viewBox="0 0 144 144" xmlns="http://www.w3.org/2000/svg" version="1.1">
 <metadata>
  <rdf:RDF xmlns:dc="http://purl.org/dc/elements/1.1/" xmlns:cc="http://creativecommons.org/ns#" xmlns:rdf="http://www.w3.org/1999/02/22-rdf-syntax-ns#">
   <cc:Work>
    <dc:type rdf:resource="http://purl.org/dc/dcmitype/StillImage"/>
    <dc:date>2025-02-11T14:44:00.543045</dc:date>
    <dc:format>image/svg+xml</dc:format>
    <dc:creator>
     <cc:Agent>
      <dc:title>Matplotlib v3.8.0, https://matplotlib.org/</dc:title>
     </cc:Agent>
    </dc:creator>
   </cc:Work>
  </rdf:RDF>
 </metadata>
 <defs>
  <style type="text/css">*{stroke-linejoin: round; stroke-linecap: butt}</style>
 </defs>
 <g id="figure_1">
  <g id="patch_1">
   <path d="M 0 144 
L 144 144 
L 144 0 
L 0 0 
L 0 144 
z
" style="fill: none"/>
  </g>
  <g id="axes_1">
   <g id="patch_2">
    <path d="M 10.8 133.2 
L 133.2 133.2 
L 133.2 10.8 
L 10.8 10.8 
L 10.8 133.2 
z
" style="fill: none"/>
   </g>
   <g id="matplotlib.axis_1"/>
   <g id="matplotlib.axis_2"/>
   <g id="line2d_1">
    <path d="M 16.363636 86.424439 
L 16.417995 103.180716 
L 16.472354 60.933594 
L 16.526713 61.019782 
L 16.68979 100.736413 
L 16.744149 64.962609 
L 16.852867 64.965581 
L 16.907226 67.963991 
L 17.015944 105.996625 
L 17.17902 61.484936 
L 17.342097 105.808514 
L 17.505174 62.666443 
L 17.668251 88.533832 
L 17.72261 45.677986 
L 17.776969 83.443947 
L 17.831327 90.749051 
L 17.885686 73.596475 
L 17.940045 86.218768 
L 17.994404 82.975462 
L 18.048763 72.173603 
L 18.103122 86.456921 
L 18.266199 63.807998 
L 18.320558 95.706279 
L 18.429276 95.249795 
L 18.483635 44.301607 
L 18.537994 64.001806 
L 18.592352 100.209416 
L 18.646711 85.793875 
L 18.70107 84.912365 
L 18.864147 54.834632 
L 18.918506 82.641364 
L 18.972865 79.520656 
L 19.081583 64.291187 
L 19.190301 84.856887 
L 19.24466 66.132404 
L 19.299019 77.117082 
L 19.353377 73.325179 
L 19.516454 95.582281 
L 19.679531 62.79248 
L 19.788249 82.210429 
L 19.842608 79.528508 
L 19.896967 80.28182 
L 19.951326 58.773704 
L 20.005685 76.280581 
L 20.060044 78.536956 
L 20.114402 73.91376 
L 20.22312 95.335127 
L 20.331838 67.188545 
L 20.386197 123.978629 
L 20.440556 70.230819 
L 20.494915 111.415057 
L 20.549274 81.302235 
L 20.712351 71.730902 
L 20.821069 102.655087 
L 20.875427 91.353201 
L 20.929786 79.99578 
L 21.038504 79.282424 
L 21.092863 113.384799 
L 21.201581 65.222394 
L 21.25594 101.743605 
L 21.310299 90.164175 
L 21.364658 91.587113 
L 21.419017 69.832061 
L 21.473376 105.694943 
L 21.527735 55.412489 
L 21.582094 87.039062 
L 21.636452 75.632672 
L 21.690811 110.803941 
L 21.799529 44.10988 
L 21.908247 73.92401 
L 21.962606 64.117509 
L 22.016965 71.244727 
L 22.071324 106.440383 
L 22.125683 78.657865 
L 22.234401 32.699627 
L 22.343119 100.455231 
L 22.451836 92.410637 
L 22.506195 78.092751 
L 22.560554 104.173042 
L 22.669272 47.483988 
L 22.832349 103.538177 
L 22.941067 93.76559 
L 22.995426 63.415428 
L 23.049785 67.268524 
L 23.104144 70.381841 
L 23.158502 84.400885 
L 23.26722 55.891027 
L 23.484656 107.628378 
L 23.702092 56.056657 
L 23.756451 64.760467 
L 23.81081 71.591975 
L 23.865169 48.29667 
L 23.919527 52.573843 
L 23.973886 111.429854 
L 24.028245 57.996866 
L 24.136963 100.284276 
L 24.191322 84.90166 
L 24.245681 80.630741 
L 24.30004 85.553426 
L 24.463117 48.496872 
L 24.626194 75.766377 
L 24.680552 66.770014 
L 24.734911 69.901012 
L 24.78927 73.250505 
L 24.843629 65.780635 
L 24.897988 68.853975 
L 24.952347 102.938549 
L 25.006706 68.398772 
L 25.061065 33.136817 
L 25.169783 101.475038 
L 25.224142 55.002649 
L 25.278501 89.181563 
L 25.33286 74.019185 
L 25.495936 108.877114 
L 25.659013 55.133941 
L 25.713372 60.634731 
L 25.767731 57.3682 
L 25.876449 115.335294 
L 25.930808 101.196787 
L 25.985167 85.544749 
L 26.039526 100.525041 
L 26.093885 99.211874 
L 26.148244 85.35578 
L 26.202602 100.923499 
L 26.31132 44.045681 
L 26.365679 75.54581 
L 26.420038 73.931177 
L 26.474397 89.231816 
L 26.528756 48.432988 
L 26.583115 109.696636 
L 26.637474 94.100242 
L 26.691833 90.470793 
L 26.746192 37.190882 
L 26.800551 118.667158 
L 26.85491 87.981855 
L 26.909269 94.642557 
L 27.017986 66.606124 
L 27.072345 110.90967 
L 27.126704 104.790388 
L 27.289781 51.002673 
L 27.34414 98.586391 
L 27.398499 79.532373 
L 27.452858 81.189184 
L 27.507217 49.128713 
L 27.561576 64.033679 
L 27.670294 83.912169 
L 27.724652 62.51285 
L 27.779011 72.793209 
L 27.887729 105.381461 
L 28.050806 46.955102 
L 28.159524 65.542303 
L 28.213883 47.790665 
L 28.37696 98.021759 
L 28.431319 72.146018 
L 28.485677 90.768341 
L 28.540036 102.648947 
L 28.703113 75.34685 
L 28.757472 85.752748 
L 28.811831 78.159012 
L 28.920549 59.052636 
L 28.974908 73.562131 
L 29.029267 55.895137 
L 29.083626 64.477545 
L 29.246702 96.449028 
L 29.301061 74.685621 
L 29.464138 114.056244 
L 29.518497 43.3819 
L 29.572856 72.816102 
L 29.627215 96.054654 
L 29.681574 68.087188 
L 29.735933 73.633254 
L 29.790292 97.061207 
L 29.953369 54.768001 
L 30.007727 45.527888 
L 30.170804 104.364965 
L 30.225163 91.15064 
L 30.279522 66.390075 
L 30.333881 100.772467 
L 30.38824 70.914504 
L 30.442599 74.052632 
L 30.496958 67.570798 
L 30.660035 102.104639 
L 30.823111 66.310263 
L 30.87747 70.331697 
L 31.040547 126.662643 
L 31.094906 59.703422 
L 31.149265 74.487075 
L 31.257983 97.562598 
L 31.366701 74.79829 
L 31.42106 83.182347 
L 31.475419 45.686557 
L 31.529778 97.05141 
L 31.584136 66.764605 
L 31.638495 93.42537 
L 31.692854 79.153696 
L 31.747213 74.728295 
L 31.801572 58.538548 
L 31.855931 96.52876 
L 31.91029 96.044448 
L 32.073367 66.963404 
L 32.127726 78.585237 
L 32.182085 121.077921 
L 32.236444 97.023515 
L 32.39952 79.877936 
L 32.453879 48.011425 
L 32.508238 76.624923 
L 32.562597 94.414493 
L 32.725674 68.991113 
L 32.780033 69.953527 
L 32.834392 60.367046 
L 32.888751 67.612393 
L 32.94311 93.508037 
L 32.997469 79.663098 
L 33.051828 77.471956 
L 33.106186 48.582381 
L 33.214904 96.940219 
L 33.377981 69.417859 
L 33.541058 105.166375 
L 33.595417 68.060602 
L 33.649776 74.314256 
L 33.704135 104.507999 
L 33.758494 53.309814 
L 33.812853 61.636594 
L 33.975929 81.259015 
L 34.030288 54.27413 
L 34.084647 97.488421 
L 34.139006 16.363636 
L 34.193365 57.610281 
L 34.410801 102.200799 
L 34.46516 111.803191 
L 34.573878 64.336806 
L 34.628236 91.014468 
L 34.682595 86.819611 
L 34.736954 87.786645 
L 34.845672 81.401262 
L 34.95439 108.241977 
L 35.117467 59.285277 
L 35.171826 63.255078 
L 35.280544 94.426326 
L 35.334903 90.789221 
L 35.389261 28.951254 
L 35.44362 73.332028 
L 35.497979 88.567037 
L 35.552338 87.025566 
L 35.606697 77.867455 
L 35.661056 112.900591 
L 35.715415 83.575923 
L 35.769774 31.434114 
L 35.824133 77.844159 
L 35.878492 60.657758 
L 35.932851 105.70571 
L 35.98721 86.41722 
L 36.041569 87.252463 
L 36.150286 42.353796 
L 36.204645 85.075374 
L 36.259004 74.044298 
L 36.422081 47.75567 
L 36.47644 54.179441 
L 36.639517 94.54263 
L 36.693876 93.739913 
L 36.748235 59.182399 
L 36.802594 86.169452 
L 36.856953 88.511878 
L 36.911311 58.787934 
L 36.96567 64.423178 
L 37.020029 98.119997 
L 37.074388 68.901994 
L 37.128747 65.507566 
L 37.183106 54.524959 
L 37.237465 63.833656 
L 37.291824 63.23694 
L 37.346183 101.252318 
L 37.400542 70.087901 
L 37.454901 57.139221 
L 37.50926 99.043795 
L 37.563619 50.903934 
L 37.617978 61.771489 
L 37.672336 72.029076 
L 37.726695 60.169045 
L 37.781054 84.686365 
L 37.835413 76.700095 
L 37.889772 70.231291 
L 37.944131 91.042973 
L 38.107208 63.818269 
L 38.161567 82.401378 
L 38.215926 61.216917 
L 38.270285 73.229087 
L 38.379003 45.561249 
L 38.433361 100.523333 
L 38.48772 75.130167 
L 38.542079 59.37019 
L 38.596438 86.21467 
L 38.650797 82.467776 
L 38.705156 80.262006 
L 38.759515 55.236241 
L 38.813874 58.425192 
L 38.868233 84.026528 
L 38.922592 83.629263 
L 38.976951 65.9453 
L 39.03131 79.821307 
L 39.140028 111.833094 
L 39.357463 49.515299 
L 39.411822 58.116399 
L 39.52054 89.585636 
L 39.574899 77.035794 
L 39.629258 71.964877 
L 39.683617 75.4072 
L 39.737976 74.792503 
L 39.792335 105.868367 
L 39.846694 78.783589 
L 39.901053 92.073006 
L 40.00977 60.826304 
L 40.064129 81.993685 
L 40.118488 63.776906 
L 40.172847 48.805218 
L 40.227206 79.223141 
L 40.281565 57.855941 
L 40.335924 62.10663 
L 40.390283 99.763171 
L 40.444642 82.102712 
L 40.499001 80.524472 
L 40.607719 55.345202 
L 40.770795 85.751983 
L 40.933872 40.20224 
L 41.151308 89.345765 
L 41.205667 75.191085 
L 41.260026 82.247217 
L 41.314385 93.258151 
L 41.368744 74.104639 
L 41.423103 85.899939 
L 41.477461 86.106367 
L 41.53182 84.861738 
L 41.640538 113.403348 
L 41.749256 84.563599 
L 41.912333 113.367264 
L 41.966692 103.79236 
L 42.129769 52.286639 
L 42.238486 78.440358 
L 42.292845 48.261426 
L 42.401563 87.336824 
L 42.455922 64.953807 
L 42.510281 79.591489 
L 42.56464 78.660958 
L 42.618999 78.920037 
L 42.727717 108.128076 
L 42.836435 47.502164 
L 42.945153 92.165259 
L 43.05387 63.593223 
L 43.108229 71.437107 
L 43.271306 106.249025 
L 43.325665 80.189195 
L 43.380024 82.554031 
L 43.434383 102.224305 
L 43.59746 74.145868 
L 43.651819 72.057368 
L 43.814895 97.726801 
L 43.923613 64.990043 
L 43.977972 94.720397 
L 44.032331 46.419167 
L 44.08669 68.161676 
L 44.249767 83.909451 
L 44.304126 50.60748 
L 44.358485 89.583929 
L 44.412844 80.695533 
L 44.467203 47.507307 
L 44.521561 89.489815 
L 44.57592 69.371429 
L 44.630279 69.617322 
L 44.684638 79.149783 
L 44.738997 47.62687 
L 44.793356 74.648248 
L 44.847715 69.265667 
L 44.902074 72.083285 
L 44.956433 75.726342 
L 45.010792 92.997 
L 45.065151 63.520643 
L 45.11951 79.80301 
L 45.173869 68.314171 
L 45.228228 72.082472 
L 45.445663 117.050103 
L 45.500022 63.980416 
L 45.554381 106.842358 
L 45.771817 30.674899 
L 45.934894 96.533751 
L 45.989253 78.443027 
L 46.043611 81.666327 
L 46.09797 95.736547 
L 46.152329 91.576349 
L 46.261047 85.427873 
L 46.315406 57.124518 
L 46.369765 66.865493 
L 46.424124 64.667941 
L 46.478483 100.343127 
L 46.532842 83.947514 
L 46.587201 91.371507 
L 46.695919 71.968955 
L 46.804636 121.174079 
L 46.858995 101.591736 
L 46.913354 74.24379 
L 46.967713 107.407251 
L 47.13079 57.720991 
L 47.185149 89.713874 
L 47.239508 74.997351 
L 47.293867 53.709492 
L 47.348226 60.096651 
L 47.402585 63.348689 
L 47.456944 59.369235 
L 47.62002 94.538507 
L 47.783097 54.214331 
L 47.837456 90.899861 
L 47.891815 84.638882 
L 47.946174 77.78206 
L 48.000533 80.381965 
L 48.054892 82.775571 
L 48.109251 120.868102 
L 48.16361 90.138928 
L 48.272328 36.286903 
L 48.435404 88.377729 
L 48.598481 65.104955 
L 48.707199 76.74618 
L 48.761558 64.83482 
L 48.870276 94.323069 
L 48.924635 58.04877 
L 48.978994 76.51517 
L 49.033353 93.200272 
L 49.087712 71.625131 
L 49.14207 84.807938 
L 49.196429 94.088776 
L 49.250788 74.021427 
L 49.305147 91.942064 
L 49.413865 59.271818 
L 49.522583 90.746012 
L 49.631301 52.683811 
L 49.740019 110.305769 
L 49.848737 96.839033 
L 49.903095 63.917232 
L 49.957454 96.582909 
L 50.011813 97.121481 
L 50.066172 52.921346 
L 50.120531 79.389376 
L 50.17489 55.813948 
L 50.229249 77.611438 
L 50.283608 97.215461 
L 50.337967 69.703826 
L 50.392326 82.443427 
L 50.501044 94.401015 
L 50.555403 84.59266 
L 50.609762 99.063242 
L 50.718479 30.8948 
L 50.772838 93.230287 
L 50.827197 91.034459 
L 50.881556 61.825263 
L 50.935915 102.897007 
L 50.990274 82.888973 
L 51.044633 47.332201 
L 51.098992 57.695706 
L 51.20771 66.935861 
L 51.316428 87.735819 
L 51.479504 66.068452 
L 51.588222 89.794123 
L 51.69694 66.308826 
L 51.860017 90.671675 
L 52.023094 49.671853 
L 52.131812 82.84614 
L 52.18617 78.387932 
L 52.240529 72.742286 
L 52.294888 90.627814 
L 52.349247 87.976289 
L 52.403606 59.063146 
L 52.457965 70.270969 
L 52.566683 106.64088 
L 52.72976 45.341926 
L 52.784119 93.598743 
L 52.838478 85.901075 
L 52.947195 62.264716 
L 53.001554 80.604906 
L 53.110272 80.506796 
L 53.164631 64.069569 
L 53.21899 80.101466 
L 53.273349 64.914081 
L 53.327708 72.27739 
L 53.436426 89.562009 
L 53.490785 77.514549 
L 53.545144 71.299465 
L 53.599503 72.790488 
L 53.653862 79.642534 
L 53.816938 65.463788 
L 53.980015 82.550398 
L 54.088733 56.693948 
L 54.143092 75.927728 
L 54.197451 71.113805 
L 54.25181 54.401227 
L 54.414887 89.752651 
L 54.469245 87.318449 
L 54.523604 107.335939 
L 54.686681 56.527287 
L 54.795399 69.142582 
L 54.849758 47.804835 
L 54.904117 90.191395 
L 54.958476 43.751326 
L 55.012835 59.853089 
L 55.121553 104.065068 
L 55.175912 81.741384 
L 55.23027 64.008334 
L 55.284629 114.487911 
L 55.338988 63.762106 
L 55.393347 53.955591 
L 55.556424 113.785392 
L 55.719501 66.262257 
L 55.77386 94.316516 
L 55.828219 87.476009 
L 55.882578 71.042605 
L 55.936937 75.177358 
L 56.045654 88.152332 
L 56.154372 77.444136 
L 56.208731 99.586559 
L 56.26309 69.912915 
L 56.317449 79.80897 
L 56.371808 83.314137 
L 56.426167 99.154941 
L 56.480526 87.690863 
L 56.589244 51.35459 
L 56.75232 54.949618 
L 56.806679 86.140079 
L 56.861038 65.412563 
L 56.915397 77.040455 
L 56.969756 54.76342 
L 57.024115 74.901208 
L 57.078474 90.068122 
L 57.132833 84.099971 
L 57.187192 82.832617 
L 57.404628 51.311008 
L 57.458987 83.673537 
L 57.513345 70.100199 
L 57.622063 76.59974 
L 57.676422 93.984047 
L 57.730781 85.867311 
L 57.78514 82.229613 
L 57.839499 58.449748 
L 57.893858 73.787794 
L 57.948217 89.287653 
L 58.002576 67.928427 
L 58.056935 70.416764 
L 58.27437 94.769886 
L 58.437447 78.909119 
L 58.491806 75.544344 
L 58.546165 93.053403 
L 58.600524 52.149839 
L 58.654883 78.088658 
L 58.81796 53.713326 
L 58.872319 97.499705 
L 58.926678 69.775317 
L 59.089754 82.739551 
L 59.144113 76.442448 
L 59.198472 95.653418 
L 59.252831 80.85446 
L 59.361549 63.293495 
L 59.415908 63.789612 
L 59.470267 73.960397 
L 59.578985 38.179134 
L 59.742062 74.59495 
L 59.79642 71.658291 
L 59.850779 71.905849 
L 59.905138 75.037071 
L 59.959497 93.802082 
L 60.013856 53.011893 
L 60.068215 87.799904 
L 60.122574 93.078412 
L 60.176933 67.787179 
L 60.231292 108.432783 
L 60.285651 76.551359 
L 60.34001 103.623746 
L 60.394369 81.837489 
L 60.448728 78.930226 
L 60.503087 82.159126 
L 60.557445 98.843526 
L 60.611804 61.940899 
L 60.666163 83.140656 
L 60.720522 87.139287 
L 60.774881 59.475272 
L 60.82924 82.439167 
L 60.883599 86.069653 
L 60.937958 66.639951 
L 60.992317 85.122799 
L 61.155394 71.403133 
L 61.209753 91.548579 
L 61.264112 54.573651 
L 61.31847 97.451613 
L 61.372829 62.531004 
L 61.427188 57.452286 
L 61.590265 80.010715 
L 61.644624 77.309521 
L 61.698983 101.01125 
L 61.807701 67.15813 
L 61.86206 70.764382 
L 61.970778 89.073334 
L 62.025137 64.440016 
L 62.079495 79.617429 
L 62.133854 114.220813 
L 62.188213 87.794047 
L 62.242572 72.072224 
L 62.296931 84.331394 
L 62.35129 87.005848 
L 62.405649 95.47762 
L 62.460008 65.945842 
L 62.514367 69.37642 
L 62.568726 94.362301 
L 62.623085 87.567897 
L 62.731803 73.459195 
L 62.786162 88.236348 
L 62.84052 80.74464 
L 62.894879 82.654533 
L 62.949238 59.62821 
L 63.003597 104.519909 
L 63.057956 87.490407 
L 63.221033 54.431639 
L 63.275392 100.654378 
L 63.329751 84.473954 
L 63.38411 69.648421 
L 63.438469 73.35383 
L 63.492828 75.644446 
L 63.601545 63.834876 
L 63.655904 96.078029 
L 63.710263 67.250607 
L 63.764622 57.636645 
L 63.818981 79.912663 
L 63.87334 79.588979 
L 63.927699 77.814263 
L 63.982058 94.345255 
L 64.036417 76.453522 
L 64.090776 76.933497 
L 64.145135 81.138422 
L 64.199494 67.445117 
L 64.253853 75.897593 
L 64.308212 71.6926 
L 64.471288 90.550104 
L 64.580006 66.110774 
L 64.688724 87.223646 
L 64.743083 86.086515 
L 64.90616 62.042839 
L 64.960519 60.400558 
L 65.014878 79.513697 
L 65.069237 78.492662 
L 65.123596 53.125551 
L 65.177954 62.443359 
L 65.341031 103.630395 
L 65.449749 55.733562 
L 65.504108 70.264939 
L 65.558467 94.828029 
L 65.612826 53.312111 
L 65.667185 78.733726 
L 65.721544 76.559987 
L 65.775903 77.570334 
L 65.938979 59.647985 
L 66.047697 89.766573 
L 66.156415 54.551166 
L 66.210774 90.40342 
L 66.265133 51.630123 
L 66.319492 92.657882 
L 66.373851 77.081455 
L 66.42821 68.741354 
L 66.482569 82.212641 
L 66.536928 76.291608 
L 66.591287 49.593976 
L 66.645646 109.458375 
L 66.700004 79.165717 
L 66.754363 78.562875 
L 66.808722 87.648923 
L 66.863081 73.502534 
L 66.91744 74.077851 
L 66.971799 84.570761 
L 67.026158 66.477626 
L 67.080517 75.516311 
L 67.134876 100.220462 
L 67.189235 76.662892 
L 67.297953 96.971411 
L 67.461029 57.658292 
L 67.624106 97.043035 
L 67.732824 61.892284 
L 67.787183 86.6408 
L 67.841542 86.428183 
L 68.004619 68.921571 
L 68.058978 88.205268 
L 68.113337 47.305517 
L 68.167696 78.877526 
L 68.276413 53.961635 
L 68.330772 60.173866 
L 68.385131 101.756238 
L 68.43949 60.664446 
L 68.493849 97.325563 
L 68.548208 51.170252 
L 68.602567 93.814658 
L 68.765644 66.334054 
L 68.820003 65.910776 
L 68.874362 66.536628 
L 68.928721 65.618298 
L 69.091797 112.448847 
L 69.254874 71.482503 
L 69.309233 70.94813 
L 69.417951 70.57944 
L 69.47231 113.340012 
L 69.526669 56.648979 
L 69.581028 65.640787 
L 69.689746 95.747086 
L 69.744104 77.680341 
L 69.798463 81.624858 
L 69.852822 67.287214 
L 69.907181 80.042812 
L 70.015899 105.369146 
L 70.124617 62.335522 
L 70.178976 77.59991 
L 70.233335 71.758612 
L 70.287694 76.469151 
L 70.342053 98.543489 
L 70.396412 82.808289 
L 70.450771 89.174047 
L 70.505129 58.216011 
L 70.559488 76.972462 
L 70.668206 80.695983 
L 70.722565 65.887716 
L 70.831283 66.189825 
L 70.940001 57.708516 
L 71.048719 111.302819 
L 71.103078 77.763152 
L 71.157437 79.274354 
L 71.211796 86.074857 
L 71.266154 69.849732 
L 71.320513 75.538518 
L 71.374872 99.640106 
L 71.429231 58.384775 
L 71.48359 92.291298 
L 71.537949 68.009402 
L 71.592308 89.026732 
L 71.646667 88.948155 
L 71.809744 70.90555 
L 71.864103 74.301223 
L 71.918462 102.854773 
L 71.972821 84.699597 
L 72.027179 93.952319 
L 72.081538 68.732338 
L 72.135897 98.170252 
L 72.190256 81.841239 
L 72.244615 78.691908 
L 72.298974 51.795829 
L 72.462051 99.219854 
L 72.51641 59.557315 
L 72.570769 89.005065 
L 72.679487 63.717353 
L 72.733846 101.085617 
L 72.788204 63.041867 
L 72.896922 80.182604 
L 72.951281 57.345768 
L 73.00564 72.239742 
L 73.168717 93.211478 
L 73.277435 63.453659 
L 73.331794 82.153416 
L 73.386153 46.335192 
L 73.440512 74.894287 
L 73.549229 61.095293 
L 73.603588 65.840807 
L 73.712306 101.059434 
L 73.821024 70.804809 
L 74.03846 82.944512 
L 74.092819 80.794524 
L 74.147178 63.600212 
L 74.201537 94.329642 
L 74.255896 69.442369 
L 74.310254 71.571757 
L 74.418972 98.783386 
L 74.473331 86.399246 
L 74.582049 67.917691 
L 74.636408 99.164365 
L 74.690767 92.324594 
L 74.745126 86.426783 
L 74.799485 59.169292 
L 74.853844 86.325964 
L 74.962562 92.269038 
L 75.071279 66.167903 
L 75.234356 91.41741 
L 75.343074 62.777046 
L 75.397433 66.653005 
L 75.506151 58.894793 
L 75.669228 92.03347 
L 75.723587 95.042833 
L 75.886663 71.675098 
L 75.995381 96.594125 
L 76.158458 65.759389 
L 76.212817 86.943361 
L 76.267176 48.926026 
L 76.321535 78.740387 
L 76.375894 58.971377 
L 76.430253 62.70766 
L 76.484612 72.075935 
L 76.593329 31.635267 
L 76.756406 92.070217 
L 76.865124 70.046286 
L 76.919483 86.786343 
L 76.973842 65.588539 
L 77.028201 73.797482 
L 77.08256 79.576578 
L 77.136919 62.889089 
L 77.245637 105.152417 
L 77.354354 74.68883 
L 77.408713 78.92334 
L 77.463072 85.994907 
L 77.57179 64.094347 
L 77.734867 95.12214 
L 77.843585 70.88104 
L 77.897944 73.267263 
L 78.006662 93.057363 
L 78.115379 56.561873 
L 78.278456 93.081889 
L 78.441533 68.601453 
L 78.495892 81.079217 
L 78.550251 72.113366 
L 78.658969 62.819684 
L 78.713328 64.700269 
L 78.876404 86.705062 
L 78.985122 51.060812 
L 79.09384 103.515109 
L 79.148199 82.560258 
L 79.202558 92.560127 
L 79.365635 67.02751 
L 79.419994 116.678979 
L 79.474353 66.963913 
L 79.583071 90.624912 
L 79.637429 80.652544 
L 79.691788 85.736459 
L 79.746147 98.026545 
L 79.800506 71.574941 
L 79.854865 76.382548 
L 79.909224 75.290238 
L 80.017942 62.399166 
L 80.181019 89.068515 
L 80.289737 69.594547 
L 80.452813 102.403126 
L 80.561531 74.491376 
L 80.61589 97.138492 
L 80.670249 52.547077 
L 80.724608 101.258876 
L 80.778967 85.159065 
L 80.833326 67.561858 
L 80.887685 84.318119 
L 80.942044 80.903654 
L 80.996403 65.554398 
L 81.050762 86.865273 
L 81.105121 79.221965 
L 81.15948 65.82432 
L 81.213838 104.960887 
L 81.268197 78.418595 
L 81.322556 100.509015 
L 81.376915 75.431414 
L 81.431274 83.546666 
L 81.485633 104.340164 
L 81.594351 65.038573 
L 81.703069 80.748362 
L 81.757428 66.636007 
L 81.811787 110.846405 
L 81.866146 84.615296 
L 81.920505 78.25936 
L 81.974863 79.882828 
L 82.029222 107.603609 
L 82.13794 51.868539 
L 82.301017 102.235154 
L 82.409735 61.25654 
L 82.464094 96.694223 
L 82.518453 48.585984 
L 82.68153 112.425116 
L 82.735888 27.84441 
L 82.790247 74.840777 
L 82.898965 97.556591 
L 82.953324 59.345161 
L 83.007683 67.652648 
L 83.17076 84.87667 
L 83.225119 49.517162 
L 83.279478 98.618483 
L 83.333837 53.999831 
L 83.388196 56.708966 
L 83.442555 86.222093 
L 83.496913 68.457724 
L 83.551272 71.173871 
L 83.605631 60.824761 
L 83.65999 81.875594 
L 83.714349 52.269701 
L 83.768708 85.341366 
L 83.823067 74.567096 
L 83.877426 60.949851 
L 83.931785 66.436207 
L 83.986144 71.863281 
L 84.040503 90.728487 
L 84.094862 71.214946 
L 84.149221 82.523754 
L 84.20358 74.086834 
L 84.366656 93.867717 
L 84.421015 69.228424 
L 84.475374 90.645733 
L 84.584092 76.308437 
L 84.638451 99.642834 
L 84.69281 88.188041 
L 84.747169 88.350428 
L 84.801528 94.559643 
L 84.964605 58.221419 
L 85.073322 83.671716 
L 85.18204 65.566377 
L 85.290758 82.563034 
L 85.399476 58.926186 
L 85.562553 82.426547 
L 85.616912 79.222747 
L 85.671271 88.519005 
L 85.72563 74.064754 
L 85.779988 95.02291 
L 85.834347 93.638066 
L 85.888706 60.301157 
L 85.943065 76.477032 
L 85.997424 97.474719 
L 86.106142 72.900464 
L 86.160501 83.651158 
L 86.21486 73.399156 
L 86.269219 82.517967 
L 86.323578 43.460034 
L 86.377937 111.429257 
L 86.432296 95.900627 
L 86.486655 61.724989 
L 86.541013 88.262968 
L 86.649731 72.82327 
L 86.758449 88.327595 
L 86.812808 64.54577 
L 86.867167 93.440681 
L 86.921526 67.663321 
L 86.975885 80.94381 
L 87.030244 64.458114 
L 87.084603 88.941398 
L 87.138962 58.8759 
L 87.193321 74.408002 
L 87.24768 105.917231 
L 87.302038 89.956661 
L 87.356397 83.338195 
L 87.410756 91.878588 
L 87.465115 65.693138 
L 87.519474 71.036141 
L 87.573833 72.014558 
L 87.628192 64.234359 
L 87.682551 87.215157 
L 87.73691 77.136261 
L 87.791269 57.542577 
L 87.845628 100.107757 
L 87.899987 71.714548 
L 88.117422 95.067831 
L 88.22614 53.472756 
L 88.280499 101.821572 
L 88.334858 63.41317 
L 88.497935 79.854992 
L 88.606653 56.515681 
L 88.661012 61.790271 
L 88.824088 104.007057 
L 88.878447 74.130898 
L 88.932806 82.47732 
L 88.987165 87.909143 
L 89.150242 68.112143 
L 89.204601 72.943903 
L 89.25896 79.361995 
L 89.313319 59.882263 
L 89.367678 97.86949 
L 89.422037 74.519207 
L 89.476396 87.003782 
L 89.530755 85.983389 
L 89.585113 73.425928 
L 89.693831 91.74314 
L 89.74819 64.515076 
L 89.802549 90.379346 
L 89.856908 70.839973 
L 89.965626 70.941602 
L 90.019985 107.814872 
L 90.074344 57.962581 
L 90.128703 77.902193 
L 90.237421 61.207531 
L 90.400497 108.941142 
L 90.454856 80.1845 
L 90.509215 88.997188 
L 90.563574 87.287884 
L 90.617933 92.723077 
L 90.726651 29.631914 
L 90.78101 95.759982 
L 90.835369 91.330287 
L 90.889728 72.683687 
L 90.998446 103.205968 
L 91.052805 68.502026 
L 91.107163 70.472631 
L 91.161522 105.523418 
L 91.215881 69.986405 
L 91.27024 85.765731 
L 91.324599 46.023751 
L 91.378958 92.903334 
L 91.487676 92.421623 
L 91.542035 45.00942 
L 91.596394 78.693719 
L 91.650753 99.551871 
L 91.81383 70.119239 
L 91.868188 87.737823 
L 91.922547 69.753277 
L 92.085624 88.256813 
L 92.139983 89.226236 
L 92.194342 89.150399 
L 92.248701 76.863734 
L 92.30306 89.994218 
L 92.357419 57.241492 
L 92.411778 57.25025 
L 92.466137 99.551123 
L 92.520496 95.750331 
L 92.574855 75.067968 
L 92.629213 79.955152 
L 92.683572 84.45486 
L 92.737931 55.92707 
L 92.846649 94.820262 
L 93.009726 55.137593 
L 93.172803 80.000437 
L 93.227162 73.808072 
L 93.390238 106.930392 
L 93.553315 52.533351 
L 93.770751 99.674342 
L 93.879469 71.887708 
L 93.933828 83.102483 
L 93.988187 70.026557 
L 94.042546 70.983192 
L 94.151263 98.468833 
L 94.205622 54.961743 
L 94.259981 62.550193 
L 94.31434 88.155091 
L 94.368699 67.080911 
L 94.477417 101.033022 
L 94.531776 58.641982 
L 94.586135 68.189855 
L 94.803571 91.03697 
L 94.85793 66.423851 
L 94.966647 109.45025 
L 95.021006 66.366119 
L 95.075365 67.721891 
L 95.129724 73.721373 
L 95.184083 97.638282 
L 95.34716 63.181151 
L 95.401519 64.896917 
L 95.455878 55.473839 
L 95.564596 91.172194 
L 95.618955 84.872921 
L 95.782031 63.991058 
L 95.83639 83.816572 
L 95.890749 74.368443 
L 95.999467 44.371479 
L 96.162544 100.52969 
L 96.216903 55.764545 
L 96.271262 93.642757 
L 96.325621 99.438598 
L 96.597415 55.682885 
L 96.760492 79.356568 
L 96.814851 67.150285 
L 96.977928 94.129835 
L 97.086646 72.195431 
L 97.141005 82.054503 
L 97.195364 68.002279 
L 97.249722 73.087529 
L 97.304081 83.436219 
L 97.35844 68.678098 
L 97.521517 99.669514 
L 97.575876 85.325313 
L 97.630235 102.890462 
L 97.684594 88.521465 
L 97.738953 101.193879 
L 97.793312 60.349513 
L 97.847671 94.805854 
L 97.956389 67.733477 
L 98.010747 109.819787 
L 98.065106 70.826362 
L 98.119465 84.823989 
L 98.173824 76.932326 
L 98.282542 62.724496 
L 98.336901 84.926999 
L 98.39126 82.308114 
L 98.499978 58.300044 
L 98.608696 63.445668 
L 98.663055 92.20077 
L 98.717414 84.746316 
L 98.771772 58.490589 
L 98.934849 96.071765 
L 98.989208 80.53089 
L 99.043567 83.943566 
L 99.097926 88.923472 
L 99.152285 59.336805 
L 99.206644 62.931834 
L 99.261003 69.312555 
L 99.315362 61.444751 
L 99.369721 84.511915 
L 99.42408 63.080454 
L 99.478439 60.592159 
L 99.532797 66.447124 
L 99.587156 52.325458 
L 99.641515 107.294634 
L 99.695874 53.978322 
L 99.804592 74.429888 
L 99.858951 70.888512 
L 99.91331 58.3923 
L 99.967669 61.665332 
L 100.022028 88.729448 
L 100.076387 69.667911 
L 100.130746 78.824931 
L 100.185105 54.189008 
L 100.239464 67.984073 
L 100.348181 76.169662 
L 100.456899 98.965984 
L 100.619976 43.157412 
L 100.783053 94.498372 
L 100.891771 60.406835 
L 101.000489 97.173769 
L 101.054847 84.181688 
L 101.109206 97.919842 
L 101.163565 91.03957 
L 101.217924 63.561884 
L 101.272283 85.417123 
L 101.326642 77.020978 
L 101.381001 84.285686 
L 101.43536 82.778342 
L 101.544078 58.458236 
L 101.598437 64.828014 
L 101.652796 92.91191 
L 101.707155 71.422099 
L 101.815872 46.346958 
L 101.870231 54.80198 
L 101.978949 78.378853 
L 102.033308 69.250089 
L 102.087667 76.987847 
L 102.142026 73.937792 
L 102.196385 83.848339 
L 102.250744 76.099132 
L 102.359462 47.390251 
L 102.413821 80.085693 
L 102.46818 58.618792 
L 102.522539 46.934991 
L 102.576897 124.743957 
L 102.631256 41.201449 
L 102.685615 62.367672 
L 102.739974 67.537144 
L 102.794333 55.088621 
L 102.95741 103.834806 
L 103.011769 61.720985 
L 103.066128 85.798315 
L 103.120487 64.000042 
L 103.174846 104.670201 
L 103.229205 72.871487 
L 103.283564 52.153482 
L 103.337922 67.39578 
L 103.392281 83.779286 
L 103.44664 80.742091 
L 103.500999 82.975328 
L 103.555358 64.976605 
L 103.609717 104.568109 
L 103.664076 58.817368 
L 103.718435 73.702319 
L 103.772794 89.856968 
L 103.827153 62.725227 
L 103.881512 66.449149 
L 103.99023 102.886385 
L 104.044589 73.411178 
L 104.098947 86.579378 
L 104.207665 65.458996 
L 104.370742 93.113209 
L 104.425101 64.908091 
L 104.47946 98.793062 
L 104.588178 41.831949 
L 104.751255 86.535396 
L 104.805614 88.859088 
L 104.859972 71.433862 
L 104.914331 97.79461 
L 104.96869 87.261411 
L 105.131767 61.176204 
L 105.186126 62.765652 
L 105.349203 101.043812 
L 105.457921 71.98334 
L 105.51228 78.258355 
L 105.566639 80.691775 
L 105.620997 52.666922 
L 105.675356 68.387326 
L 105.729715 80.432064 
L 105.784074 73.952774 
L 105.838433 63.448372 
L 106.055869 102.495634 
L 106.110228 102.527674 
L 106.218946 76.606367 
L 106.327664 77.909796 
L 106.436381 97.489604 
L 106.599458 62.742379 
L 106.816894 93.860584 
L 106.871253 109.364223 
L 106.979971 69.270896 
L 107.03433 95.964079 
L 107.088689 83.318137 
L 107.197406 68.708253 
L 107.251765 77.857813 
L 107.360483 50.904474 
L 107.469201 80.127221 
L 107.52356 78.975379 
L 107.577919 53.529252 
L 107.686637 118.840539 
L 107.740996 53.358267 
L 107.849714 55.41393 
L 107.904072 54.523083 
L 108.01279 109.718514 
L 108.067149 74.033436 
L 108.121508 86.130612 
L 108.175867 78.159848 
L 108.230226 90.317369 
L 108.284585 83.120791 
L 108.338944 55.729147 
L 108.393303 84.177111 
L 108.447662 72.448723 
L 108.502021 79.289394 
L 108.55638 84.571848 
L 108.610739 82.615587 
L 108.665097 62.241681 
L 108.719456 96.55185 
L 108.773815 85.959391 
L 108.828174 87.240195 
L 108.882533 65.116564 
L 108.936892 95.238668 
L 108.991251 68.719959 
L 109.04561 48.582007 
L 109.099969 63.479842 
L 109.154328 76.7217 
L 109.208687 75.234432 
L 109.317405 64.582973 
L 109.371764 88.665541 
L 109.426122 73.290491 
L 109.480481 71.834642 
L 109.53484 60.495853 
L 109.697917 78.6324 
L 109.752276 78.705469 
L 109.806635 101.788787 
L 109.860994 36.665161 
L 109.915353 105.779929 
L 109.969712 90.121204 
L 110.024071 48.741026 
L 110.07843 48.745367 
L 110.187147 90.700288 
L 110.241506 83.987679 
L 110.295865 93.773327 
L 110.458942 40.991871 
L 110.622019 76.198932 
L 110.676378 81.652858 
L 110.730737 78.494328 
L 110.839455 80.738309 
L 110.893814 95.375385 
L 110.948172 84.833291 
L 111.002531 78.671498 
L 111.05689 99.785693 
L 111.111249 97.798616 
L 111.165608 72.598244 
L 111.328685 109.156173 
L 111.546121 38.968943 
L 111.60048 108.653614 
L 111.654839 94.12654 
L 111.709197 68.686033 
L 111.763556 94.29719 
L 111.926633 22.221936 
L 111.980992 54.126734 
L 112.035351 58.261994 
L 112.08971 97.054478 
L 112.144069 61.331241 
L 112.198428 76.717756 
L 112.252787 69.675453 
L 112.307146 51.25906 
L 112.361505 77.237038 
L 112.415864 63.814494 
L 112.470222 60.601035 
L 112.57894 113.768146 
L 112.742017 60.974315 
L 112.905094 90.609035 
L 112.959453 80.068406 
L 113.013812 89.665463 
L 113.12253 82.644774 
L 113.285606 89.696499 
L 113.339965 71.226961 
L 113.448683 113.602179 
L 113.557401 69.559796 
L 113.61176 73.64454 
L 113.720478 42.002852 
L 113.774837 76.84194 
L 113.829196 52.396694 
L 113.992273 78.434956 
L 114.155349 44.593642 
L 114.209708 83.688364 
L 114.264067 54.68396 
L 114.535862 109.550275 
L 114.64458 61.014022 
L 114.698939 105.17336 
L 114.753298 69.599103 
L 114.807656 62.367172 
L 114.862015 62.458058 
L 115.025092 95.667826 
L 115.079451 92.869186 
L 115.13381 93.368597 
L 115.188169 109.584754 
L 115.242528 61.149221 
L 115.296887 109.960395 
L 115.351246 63.910138 
L 115.405605 77.878635 
L 115.62304 105.369352 
L 115.731758 58.741504 
L 115.949194 92.228623 
L 116.057912 63.589931 
L 116.112271 94.629081 
L 116.16663 76.993693 
L 116.220989 77.831845 
L 116.275348 62.084256 
L 116.329706 66.240816 
L 116.384065 98.233661 
L 116.438424 67.544712 
L 116.492783 56.132384 
L 116.547142 62.451331 
L 116.65586 85.406004 
L 116.818937 63.352244 
L 116.982014 94.908798 
L 117.090731 98.474381 
L 117.14509 57.586836 
L 117.199449 79.374609 
L 117.253808 75.937808 
L 117.308167 88.550034 
L 117.362526 82.827903 
L 117.416885 83.265569 
L 117.471244 92.787098 
L 117.579962 59.163988 
L 117.634321 60.636094 
L 117.797398 92.282637 
L 117.851756 38.103713 
L 117.906115 59.974524 
L 117.960474 75.310217 
L 118.014833 71.839517 
L 118.123551 74.512948 
L 118.17791 74.406065 
L 118.232269 84.121062 
L 118.286628 64.582036 
L 118.340987 82.288575 
L 118.395346 101.793684 
L 118.504064 65.5919 
L 118.612781 88.021841 
L 118.66714 87.242482 
L 118.775858 73.161283 
L 118.830217 94.250413 
L 118.884576 45.265206 
L 118.938935 70.830948 
L 118.993294 70.224014 
L 119.047653 78.133109 
L 119.102012 73.763936 
L 119.21073 63.522026 
L 119.319448 94.559242 
L 119.373806 84.7165 
L 119.428165 106.09028 
L 119.482524 105.646544 
L 119.536883 95.326632 
L 119.591242 127.636364 
L 119.645601 98.508164 
L 119.69996 50.817122 
L 119.754319 73.39687 
L 119.917396 117.44706 
L 119.971755 50.526879 
L 120.026114 65.888726 
L 120.134831 119.817222 
L 120.297908 61.732705 
L 120.460985 106.59951 
L 120.515344 63.054479 
L 120.569703 90.959033 
L 120.624062 70.495552 
L 120.678421 89.564259 
L 120.73278 71.750963 
L 120.787139 89.085422 
L 120.841498 80.793225 
L 120.895856 94.074547 
L 121.004574 57.534986 
L 121.113292 89.73437 
L 121.167651 66.503823 
L 121.22201 83.766006 
L 121.276369 80.162545 
L 121.330728 86.281978 
L 121.385087 65.97962 
L 121.493805 66.120336 
L 121.548164 92.73616 
L 121.602523 66.595781 
L 121.765599 104.868674 
L 121.819958 73.507698 
L 121.874317 95.236375 
L 121.928676 89.075014 
L 122.037394 116.009246 
L 122.146112 72.132484 
L 122.309189 97.167446 
L 122.363548 103.273597 
L 122.417906 55.782601 
L 122.472265 82.748498 
L 122.526624 96.748803 
L 122.580983 49.997491 
L 122.635342 85.765129 
L 122.689701 81.033878 
L 122.74406 88.167576 
L 122.798419 80.99368 
L 122.852778 84.001797 
L 123.015855 62.748541 
L 123.070214 79.881579 
L 123.124573 64.756538 
L 123.178931 56.705424 
L 123.23329 93.803618 
L 123.287649 80.766165 
L 123.342008 56.991488 
L 123.396367 81.52873 
L 123.450726 81.65467 
L 123.505085 91.766309 
L 123.668162 49.177457 
L 123.722521 103.985293 
L 123.77688 73.259867 
L 123.831239 75.107202 
L 123.885598 97.512381 
L 123.939956 84.164352 
L 123.994315 63.88016 
L 124.048674 65.467516 
L 124.103033 73.617937 
L 124.157392 72.799859 
L 124.211751 120.057749 
L 124.26611 70.875026 
L 124.320469 105.35951 
L 124.374828 78.950662 
L 124.429187 85.980322 
L 124.483546 78.139246 
L 124.537905 97.411962 
L 124.592264 95.97148 
L 124.646623 94.283092 
L 124.700981 106.219058 
L 124.75534 104.874563 
L 124.918417 64.612163 
L 125.027135 95.3585 
L 125.081494 91.709187 
L 125.135853 88.810668 
L 125.190212 51.782588 
L 125.244571 94.301614 
L 125.29893 57.169526 
L 125.462006 89.138787 
L 125.570724 50.381704 
L 125.625083 90.671033 
L 125.679442 65.777046 
L 125.733801 71.664071 
L 125.78816 52.622275 
L 125.842519 70.437741 
L 125.951237 89.560361 
L 126.005596 70.493761 
L 126.059955 98.516436 
L 126.223031 50.07564 
L 126.27739 104.203414 
L 126.331749 79.752405 
L 126.386108 84.204627 
L 126.440467 50.176522 
L 126.494826 69.869199 
L 126.549185 104.650773 
L 126.657903 58.854059 
L 126.82098 85.750392 
L 126.875339 84.930192 
L 126.929698 68.129522 
L 126.984056 81.273495 
L 127.038415 73.609556 
L 127.201492 95.077961 
L 127.31021 49.146479 
L 127.364569 73.762471 
L 127.418928 75.994328 
L 127.473287 95.751947 
L 127.527646 76.493235 
L 127.636364 84.216499 
L 127.636364 84.216499 
" clip-path="url(#pa53f6e86b7)" style="fill: none; stroke: #b69ea5; stroke-width: 1.5; stroke-linecap: square"/>
   </g>
   <g id="patch_3">
    <path d="M 10.8 133.2 
L 10.8 10.8 
" style="fill: none; stroke: #000000; stroke-width: 0.8; stroke-linejoin: miter; stroke-linecap: square"/>
   </g>
   <g id="patch_4">
    <path d="M 133.2 133.2 
L 133.2 10.8 
" style="fill: none; stroke: #000000; stroke-width: 0.8; stroke-linejoin: miter; stroke-linecap: square"/>
   </g>
   <g id="patch_5">
    <path d="M 10.8 133.2 
L 133.2 133.2 
" style="fill: none; stroke: #000000; stroke-width: 0.8; stroke-linejoin: miter; stroke-linecap: square"/>
   </g>
   <g id="patch_6">
    <path d="M 10.8 10.8 
L 133.2 10.8 
" style="fill: none; stroke: #000000; stroke-width: 0.8; stroke-linejoin: miter; stroke-linecap: square"/>
   </g>
  </g>
 </g>
 <defs>
  <clipPath id="pa53f6e86b7">
   <rect x="10.8" y="10.8" width="122.4" height="122.4"/>
  </clipPath>
 </defs>
</svg>
