<?xml version="1.0" encoding="utf-8" standalone="no"?>
<!DOCTYPE svg PUBLIC "-//W3C//DTD SVG 1.1//EN"
  "http://www.w3.org/Graphics/SVG/1.1/DTD/svg11.dtd">
<svg xmlns:xlink="http://www.w3.org/1999/xlink" width="144pt" height="144pt" viewBox="0 0 144 144" xmlns="http://www.w3.org/2000/svg" version="1.1">
 <metadata>
  <rdf:RDF xmlns:dc="http://purl.org/dc/elements/1.1/" xmlns:cc="http://creativecommons.org/ns#" xmlns:rdf="http://www.w3.org/1999/02/22-rdf-syntax-ns#">
   <cc:Work>
    <dc:type rdf:resource="http://purl.org/dc/dcmitype/StillImage"/>
    <dc:date>2025-02-11T14:44:00.657905</dc:date>
    <dc:format>image/svg+xml</dc:format>
    <dc:creator>
     <cc:Agent>
      <dc:title>Matplotlib v3.8.0, https://matplotlib.org/</dc:title>
     </cc:Agent>
    </dc:creator>
   </cc:Work>
  </rdf:RDF>
 </metadata>
 <defs>
  <style type="text/css">*{stroke-linejoin: round; stroke-linecap: butt}</style>
 </defs>
 <g id="figure_1">
  <g id="patch_1">
   <path d="M 0 144 
L 144 144 
L 144 0 
L 0 0 
L 0 144 
z
" style="fill: none"/>
  </g>
  <g id="axes_1">
   <g id="patch_2">
    <path d="M 10.8 133.2 
L 133.2 133.2 
L 133.2 10.8 
L 10.8 10.8 
L 10.8 133.2 
z
" style="fill: none"/>
   </g>
   <g id="matplotlib.axis_1"/>
   <g id="matplotlib.axis_2"/>
   <g id="line2d_1">
    <path d="M 16.363636 76.278791 
L 16.526713 34.731254 
L 16.581072 94.746653 
L 16.635431 91.446454 
L 16.68979 53.325893 
L 16.744149 102.71721 
L 16.798508 62.61825 
L 16.852867 82.091021 
L 16.907226 51.992211 
L 16.961585 101.758586 
L 17.015944 63.103993 
L 17.070302 63.906449 
L 17.124661 83.107332 
L 17.17902 80.724296 
L 17.287738 20.096015 
L 17.342097 105.559948 
L 17.396456 65.266695 
L 17.668251 101.901036 
L 17.776969 50.100144 
L 17.885686 93.039915 
L 18.048763 48.264769 
L 18.157481 80.630873 
L 18.21184 51.475415 
L 18.266199 53.829438 
L 18.374917 70.580988 
L 18.429276 34.157028 
L 18.483635 71.188142 
L 18.537994 114.099165 
L 18.592352 92.061376 
L 18.70107 84.571886 
L 18.755429 58.694297 
L 18.809788 77.014501 
L 18.864147 86.692151 
L 18.918506 80.730515 
L 18.972865 42.051985 
L 19.027224 50.193263 
L 19.190301 66.731827 
L 19.24466 46.569839 
L 19.407736 90.817418 
L 19.516454 82.116996 
L 19.570813 63.097829 
L 19.625172 100.924247 
L 19.679531 54.454628 
L 19.73389 89.910429 
L 19.842608 47.805725 
L 19.896967 74.477014 
L 19.951326 73.51244 
L 20.005685 98.581062 
L 20.060044 93.375252 
L 20.22312 45.506966 
L 20.277479 88.91739 
L 20.331838 88.714351 
L 20.386197 52.798198 
L 20.440556 63.796054 
L 20.494915 57.474352 
L 20.603633 90.004168 
L 20.657992 44.678109 
L 20.712351 56.472345 
L 20.929786 95.858752 
L 21.092863 39.439639 
L 21.201581 109.621886 
L 21.25594 63.64955 
L 21.310299 75.670401 
L 21.364658 93.934042 
L 21.419017 73.049347 
L 21.582094 112.667253 
L 21.690811 60.132684 
L 21.74517 94.128311 
L 21.799529 43.38164 
L 21.853888 44.032034 
L 21.908247 45.678191 
L 21.962606 96.627506 
L 22.016965 69.131386 
L 22.125683 57.61475 
L 22.234401 92.203535 
L 22.28876 80.81714 
L 22.343119 64.751336 
L 22.397477 71.975363 
L 22.451836 89.050695 
L 22.506195 64.914389 
L 22.560554 69.774917 
L 22.614913 95.03999 
L 22.669272 36.725178 
L 22.723631 63.738034 
L 22.77799 89.284792 
L 22.832349 89.057757 
L 22.886708 32.591237 
L 22.941067 75.360175 
L 22.995426 45.46262 
L 23.049785 92.716063 
L 23.104144 75.034561 
L 23.26722 63.172864 
L 23.321579 100.393958 
L 23.375938 79.847438 
L 23.430297 43.266751 
L 23.484656 58.339082 
L 23.539015 75.559255 
L 23.593374 55.31595 
L 23.647733 98.985094 
L 23.702092 73.07667 
L 23.756451 34.629451 
L 23.81081 82.2601 
L 23.865169 79.655104 
L 24.028245 60.741817 
L 24.082604 67.5776 
L 24.191322 47.013718 
L 24.463117 81.411009 
L 24.626194 32.291879 
L 24.680552 83.1919 
L 24.734911 65.643685 
L 24.843629 93.509152 
L 24.952347 72.153565 
L 25.006706 84.387058 
L 25.061065 77.740266 
L 25.115424 73.734857 
L 25.169783 48.00737 
L 25.224142 69.173833 
L 25.278501 65.333063 
L 25.33286 100.912396 
L 25.387219 94.628942 
L 25.441577 57.158349 
L 25.495936 84.29582 
L 25.550295 85.891291 
L 25.604654 71.886601 
L 25.659013 83.593734 
L 25.876449 108.069098 
L 25.985167 49.314895 
L 26.039526 82.862223 
L 26.093885 61.089261 
L 26.148244 80.956534 
L 26.202602 40.225952 
L 26.256961 77.842827 
L 26.31132 67.780341 
L 26.365679 88.878684 
L 26.474397 48.494472 
L 26.528756 53.354313 
L 26.637474 41.8902 
L 26.746192 83.154005 
L 26.800551 34.88883 
L 26.85491 69.839884 
L 27.072345 107.691043 
L 27.126704 104.608469 
L 27.235422 46.850114 
L 27.34414 89.368762 
L 27.398499 56.774 
L 27.452858 99.18201 
L 27.507217 73.637459 
L 27.561576 47.864354 
L 27.615935 67.586871 
L 27.83337 72.903048 
L 27.887729 68.623776 
L 27.942088 78.751806 
L 28.050806 56.013418 
L 28.105165 66.582261 
L 28.268242 93.248517 
L 28.322601 76.019973 
L 28.37696 103.718267 
L 28.431319 95.608105 
L 28.540036 84.862498 
L 28.703113 103.157395 
L 28.811831 49.622487 
L 28.86619 80.268015 
L 29.137985 65.342079 
L 29.192344 53.575782 
L 29.301061 74.240851 
L 29.35542 41.221236 
L 29.409779 88.165671 
L 29.464138 61.130858 
L 29.518497 60.490086 
L 29.572856 86.190396 
L 29.627215 50.689435 
L 29.681574 89.778096 
L 29.735933 47.029138 
L 29.790292 79.517733 
L 29.844651 57.196214 
L 29.89901 62.182032 
L 29.953369 61.736789 
L 30.007727 42.985577 
L 30.116445 114.406963 
L 30.170804 105.056404 
L 30.225163 71.817664 
L 30.279522 80.529986 
L 30.496958 54.566135 
L 30.551317 66.499781 
L 30.605676 79.42232 
L 30.714394 52.742358 
L 30.823111 89.455129 
L 30.931829 54.644276 
L 31.040547 97.79451 
L 31.094906 51.318426 
L 31.149265 55.619795 
L 31.203624 67.096715 
L 31.257983 61.432756 
L 31.312342 65.231425 
L 31.366701 96.373021 
L 31.42106 85.716667 
L 31.529778 39.653311 
L 31.584136 59.771961 
L 31.638495 61.8495 
L 31.801572 103.130002 
L 31.855931 67.263494 
L 31.91029 70.381759 
L 31.964649 70.031163 
L 32.073367 65.212575 
L 32.127726 79.434291 
L 32.182085 66.559761 
L 32.236444 68.113988 
L 32.290803 64.411303 
L 32.39952 90.564769 
L 32.453879 68.726833 
L 32.508238 72.370891 
L 32.562597 72.426161 
L 32.671315 55.421923 
L 32.725674 96.413487 
L 32.780033 68.280016 
L 32.888751 91.188423 
L 33.051828 49.304888 
L 33.106186 54.445897 
L 33.214904 95.646622 
L 33.269263 55.658125 
L 33.323622 83.347481 
L 33.377981 77.494736 
L 33.43234 98.598713 
L 33.486699 81.062135 
L 33.649776 60.523266 
L 33.704135 69.524447 
L 33.758494 48.508775 
L 33.812853 66.145537 
L 33.867211 122.538035 
L 33.92157 64.288074 
L 33.975929 68.714865 
L 34.030288 49.712197 
L 34.084647 64.771219 
L 34.139006 63.905888 
L 34.193365 66.584933 
L 34.247724 61.897358 
L 34.410801 92.780979 
L 34.46516 42.069437 
L 34.519519 59.239882 
L 34.628236 83.245698 
L 34.682595 74.626267 
L 34.736954 88.177739 
L 34.791313 84.315329 
L 34.845672 29.558891 
L 34.900031 109.599 
L 34.95439 83.273113 
L 35.008749 53.61436 
L 35.063108 101.720235 
L 35.117467 77.987353 
L 35.171826 60.475426 
L 35.226185 95.270205 
L 35.280544 64.196121 
L 35.334903 90.516349 
L 35.497979 45.262276 
L 35.552338 127.636364 
L 35.606697 73.201641 
L 35.769774 48.801061 
L 35.824133 83.605743 
L 35.878492 36.296012 
L 35.932851 58.785816 
L 35.98721 91.039096 
L 36.041569 63.974509 
L 36.095928 44.258812 
L 36.150286 103.865943 
L 36.204645 88.108606 
L 36.259004 78.246718 
L 36.313363 33.210311 
L 36.367722 60.48492 
L 36.422081 97.314219 
L 36.47644 90.384628 
L 36.585158 70.806439 
L 36.639517 79.793135 
L 36.693876 78.829589 
L 36.748235 38.682092 
L 36.802594 86.289741 
L 36.856953 56.137704 
L 36.911311 53.93896 
L 36.96567 86.049394 
L 37.020029 61.750921 
L 37.074388 71.1617 
L 37.128747 52.443505 
L 37.291824 81.035943 
L 37.346183 87.89039 
L 37.454901 57.543094 
L 37.50926 82.912939 
L 37.563619 68.999522 
L 37.726695 80.636755 
L 37.781054 84.211107 
L 37.99849 51.301284 
L 38.052849 78.989741 
L 38.107208 57.45059 
L 38.161567 69.067763 
L 38.215926 54.71743 
L 38.270285 60.329515 
L 38.324644 96.153526 
L 38.379003 80.141213 
L 38.433361 76.100368 
L 38.48772 107.925797 
L 38.596438 69.794067 
L 38.650797 101.142267 
L 38.705156 60.854003 
L 38.759515 73.113832 
L 38.813874 95.16455 
L 38.868233 73.940221 
L 38.922592 64.131996 
L 38.976951 89.025837 
L 39.03131 55.064073 
L 39.085669 58.48248 
L 39.140028 92.808247 
L 39.194386 73.688997 
L 39.248745 64.854366 
L 39.411822 84.474625 
L 39.466181 51.821582 
L 39.52054 77.939212 
L 39.574899 56.028906 
L 39.629258 92.953927 
L 39.683617 81.776866 
L 39.792335 64.802818 
L 39.846694 65.805765 
L 39.901053 81.795928 
L 40.00977 59.657396 
L 40.172847 104.471652 
L 40.335924 50.958812 
L 40.390283 93.980456 
L 40.444642 76.372431 
L 40.499001 79.339929 
L 40.55336 88.575295 
L 40.662078 67.129415 
L 40.716436 83.119057 
L 40.770795 49.900931 
L 40.879513 50.124731 
L 40.933872 77.175663 
L 40.988231 71.376682 
L 41.096949 46.551147 
L 41.260026 73.090067 
L 41.314385 93.660563 
L 41.368744 87.914792 
L 41.423103 83.141497 
L 41.477461 68.389019 
L 41.53182 75.612548 
L 41.640538 115.925331 
L 41.749256 73.144366 
L 41.803615 88.032662 
L 41.857974 82.35414 
L 41.966692 87.958294 
L 42.129769 68.955731 
L 42.238486 71.202924 
L 42.292845 97.311081 
L 42.347204 81.747471 
L 42.401563 71.887601 
L 42.455922 90.994044 
L 42.510281 84.914836 
L 42.673358 47.576256 
L 42.727717 66.326765 
L 42.836435 55.006942 
L 42.890794 64.142985 
L 42.945153 62.624566 
L 42.999511 61.17313 
L 43.05387 66.289646 
L 43.162588 66.265073 
L 43.216947 61.139077 
L 43.271306 106.510535 
L 43.325665 63.681005 
L 43.380024 53.644681 
L 43.434383 79.051865 
L 43.488742 69.415499 
L 43.59746 79.985086 
L 43.651819 95.817129 
L 43.706178 53.67824 
L 43.760536 65.609452 
L 43.814895 92.525573 
L 43.869254 74.992967 
L 43.923613 83.022685 
L 43.977972 67.028862 
L 44.032331 110.296529 
L 44.08669 76.350231 
L 44.141049 62.968374 
L 44.195408 69.030783 
L 44.358485 66.635425 
L 44.412844 77.560174 
L 44.467203 68.117649 
L 44.521561 54.10137 
L 44.57592 77.421068 
L 44.630279 75.822665 
L 44.684638 31.142777 
L 44.738997 63.221031 
L 44.793356 93.227312 
L 44.847715 63.28165 
L 44.902074 57.124006 
L 44.956433 73.437468 
L 45.065151 30.192836 
L 45.173869 73.395598 
L 45.228228 60.085578 
L 45.282586 77.077414 
L 45.336945 60.966106 
L 45.391304 65.209164 
L 45.445663 61.087601 
L 45.60874 106.839756 
L 45.826176 41.809074 
L 45.880535 81.027319 
L 45.934894 68.10915 
L 45.989253 53.734391 
L 46.043611 103.387461 
L 46.09797 95.850406 
L 46.206688 82.966518 
L 46.315406 56.91181 
L 46.369765 72.161279 
L 46.424124 54.394806 
L 46.478483 72.275441 
L 46.532842 79.346868 
L 46.587201 71.847457 
L 46.64156 84.465168 
L 46.750278 61.045726 
L 46.804636 82.139399 
L 46.858995 58.342586 
L 46.913354 94.156184 
L 46.967713 86.950828 
L 47.185149 63.911832 
L 47.293867 96.093661 
L 47.348226 60.499291 
L 47.402585 74.342024 
L 47.456944 74.813744 
L 47.511303 67.64974 
L 47.565662 89.166828 
L 47.674379 46.538013 
L 47.783097 83.986018 
L 47.837456 77.228401 
L 47.891815 82.571109 
L 47.946174 63.456164 
L 48.000533 105.6403 
L 48.054892 79.602347 
L 48.109251 59.620312 
L 48.16361 104.466053 
L 48.217969 72.468467 
L 48.272328 59.129794 
L 48.326687 67.606596 
L 48.381045 67.5336 
L 48.435404 91.580156 
L 48.489763 72.359543 
L 48.598481 73.695133 
L 48.65284 65.406631 
L 48.707199 82.096713 
L 48.761558 59.205207 
L 48.815917 78.29994 
L 48.870276 94.572194 
L 49.033353 57.183972 
L 49.087712 50.781632 
L 49.305147 83.12629 
L 49.359506 52.362851 
L 49.413865 92.0563 
L 49.468224 81.568366 
L 49.631301 68.549302 
L 49.794378 101.906054 
L 49.957454 60.696156 
L 50.011813 103.60313 
L 50.066172 57.345131 
L 50.120531 81.898982 
L 50.17489 95.409638 
L 50.337967 71.618723 
L 50.392326 88.540201 
L 50.446685 75.346124 
L 50.501044 80.883941 
L 50.555403 65.186823 
L 50.609762 69.738433 
L 50.66412 83.06553 
L 50.718479 65.43928 
L 50.827197 98.724257 
L 50.935915 70.043163 
L 50.990274 85.364439 
L 51.044633 79.15724 
L 51.098992 66.817605 
L 51.20771 84.555333 
L 51.262069 68.960479 
L 51.316428 76.460172 
L 51.370787 93.389931 
L 51.425145 39.055933 
L 51.479504 53.938205 
L 51.533863 77.775 
L 51.588222 68.030557 
L 51.69694 37.560265 
L 51.751299 83.297823 
L 51.805658 67.909378 
L 51.860017 67.32536 
L 51.968735 43.34362 
L 52.077453 76.321236 
L 52.131812 66.858351 
L 52.18617 75.151317 
L 52.240529 77.046099 
L 52.294888 46.102405 
L 52.349247 91.205533 
L 52.403606 50.379209 
L 52.566683 90.362673 
L 52.675401 59.213586 
L 52.838478 82.604741 
L 52.947195 60.028686 
L 53.001554 79.769514 
L 53.055913 77.837096 
L 53.110272 62.382218 
L 53.164631 106.445314 
L 53.21899 84.865973 
L 53.273349 32.770464 
L 53.327708 78.966353 
L 53.490785 61.345162 
L 53.599503 80.637338 
L 53.653862 76.83104 
L 53.70822 68.941541 
L 53.762579 76.268015 
L 53.816938 96.751716 
L 53.925656 68.573631 
L 53.980015 69.26127 
L 54.197451 49.496098 
L 54.25181 95.933469 
L 54.306169 65.862395 
L 54.360528 59.240963 
L 54.414887 63.631359 
L 54.469245 93.121227 
L 54.523604 71.949063 
L 54.632322 48.438911 
L 54.686681 53.253399 
L 54.74104 88.427632 
L 54.849758 33.970592 
L 54.958476 78.899759 
L 55.012835 71.130023 
L 55.067194 87.660413 
L 55.121553 80.037619 
L 55.23027 58.125435 
L 55.284629 106.490415 
L 55.338988 57.452985 
L 55.393347 58.438614 
L 55.502065 85.461334 
L 55.556424 67.368646 
L 55.610783 72.177747 
L 55.665142 72.388006 
L 55.719501 31.335543 
L 55.828219 81.243401 
L 55.882578 42.351734 
L 55.936937 85.350208 
L 55.991295 81.697192 
L 56.100013 60.359079 
L 56.208731 96.413624 
L 56.317449 78.994033 
L 56.371808 117.498233 
L 56.426167 81.640279 
L 56.589244 44.475816 
L 56.75232 85.17313 
L 56.806679 101.668622 
L 56.861038 87.743781 
L 56.915397 96.827995 
L 57.078474 59.352074 
L 57.241551 87.321284 
L 57.404628 48.499213 
L 57.458987 74.20913 
L 57.513345 45.788375 
L 57.567704 55.219673 
L 57.622063 78.236169 
L 57.676422 71.762115 
L 57.730781 75.750507 
L 57.893858 62.838933 
L 57.948217 82.387093 
L 58.002576 80.371815 
L 58.111294 52.855264 
L 58.27437 82.978008 
L 58.328729 67.500272 
L 58.383088 75.321437 
L 58.437447 85.748572 
L 58.491806 84.707543 
L 58.600524 55.484571 
L 58.654883 68.489317 
L 58.709242 58.277153 
L 58.81796 70.617723 
L 58.872319 68.287085 
L 58.926678 60.782403 
L 58.981037 69.49946 
L 59.035395 68.894672 
L 59.089754 54.127777 
L 59.144113 78.65793 
L 59.252831 77.595795 
L 59.415908 57.422294 
L 59.470267 56.594861 
L 59.578985 40.863235 
L 59.633344 99.932921 
L 59.687703 72.609884 
L 59.742062 77.888 
L 59.79642 63.130077 
L 59.850779 93.306 
L 59.905138 60.163781 
L 59.959497 62.648025 
L 60.122574 81.764981 
L 60.176933 63.42434 
L 60.34001 93.804702 
L 60.448728 69.043156 
L 60.557445 92.013022 
L 60.611804 49.922932 
L 60.666163 74.172781 
L 60.720522 69.904287 
L 60.774881 84.812023 
L 60.82924 54.065295 
L 60.883599 65.073515 
L 60.992317 87.134238 
L 61.046676 83.047155 
L 61.101035 55.788007 
L 61.155394 60.289874 
L 61.209753 106.238462 
L 61.264112 54.838743 
L 61.31847 80.055001 
L 61.372829 90.431567 
L 61.427188 62.358257 
L 61.481547 92.100247 
L 61.535906 73.228545 
L 61.590265 85.391022 
L 61.644624 51.033743 
L 61.698983 76.037346 
L 61.807701 55.354899 
L 61.86206 58.903576 
L 61.970778 83.560729 
L 62.025137 72.39199 
L 62.133854 79.247191 
L 62.188213 82.358507 
L 62.242572 69.696237 
L 62.296931 87.209205 
L 62.460008 36.745333 
L 62.623085 79.564066 
L 62.677444 68.915999 
L 62.731803 79.126755 
L 62.786162 100.488294 
L 62.84052 83.654523 
L 62.894879 98.895463 
L 62.949238 92.279902 
L 63.057956 94.596238 
L 63.221033 46.560641 
L 63.329751 75.593762 
L 63.38411 49.800141 
L 63.438469 52.373752 
L 63.492828 93.385004 
L 63.547187 71.706812 
L 63.601545 37.629152 
L 63.764622 87.600354 
L 63.818981 54.500195 
L 63.87334 70.244289 
L 63.927699 67.946365 
L 63.982058 101.712212 
L 64.090776 51.67914 
L 64.145135 59.915787 
L 64.199494 89.237534 
L 64.253853 45.474265 
L 64.308212 67.383933 
L 64.362571 47.771415 
L 64.416929 80.410896 
L 64.471288 80.11795 
L 64.580006 53.462232 
L 64.688724 92.592618 
L 64.743083 63.267748 
L 64.797442 70.934344 
L 65.014878 56.101405 
L 65.177954 81.554591 
L 65.286672 76.941195 
L 65.341031 55.550168 
L 65.39539 72.554691 
L 65.449749 71.992694 
L 65.504108 58.743099 
L 65.558467 63.100997 
L 65.612826 63.339482 
L 65.721544 98.851047 
L 65.775903 71.2012 
L 65.830262 74.52402 
L 65.884621 76.84789 
L 65.938979 93.849235 
L 65.993338 87.371511 
L 66.047697 54.206695 
L 66.102056 56.057569 
L 66.156415 71.206517 
L 66.210774 71.142398 
L 66.265133 40.411498 
L 66.319492 67.006958 
L 66.373851 58.044635 
L 66.42821 72.515743 
L 66.482569 62.076879 
L 66.536928 38.322339 
L 66.645646 74.551418 
L 66.754363 54.191588 
L 66.91744 91.380321 
L 67.080517 58.149573 
L 67.134876 86.781978 
L 67.189235 60.372722 
L 67.243594 80.594104 
L 67.297953 76.612088 
L 67.461029 40.439811 
L 67.624106 78.144291 
L 67.678465 72.223425 
L 67.732824 75.217304 
L 67.787183 72.798483 
L 67.841542 72.984535 
L 67.895901 92.152985 
L 67.95026 40.680384 
L 68.004619 43.853932 
L 68.058978 80.097021 
L 68.113337 39.054208 
L 68.167696 75.465871 
L 68.276413 61.879041 
L 68.330772 72.986901 
L 68.385131 63.879555 
L 68.43949 69.134363 
L 68.493849 102.534853 
L 68.548208 68.891792 
L 68.602567 88.288791 
L 68.656926 72.142353 
L 68.711285 82.854697 
L 68.765644 82.133326 
L 68.928721 60.481347 
L 69.037438 60.20342 
L 69.091797 97.642605 
L 69.146156 59.30623 
L 69.200515 71.169796 
L 69.254874 82.415533 
L 69.309233 76.718572 
L 69.363592 52.897044 
L 69.417951 89.607199 
L 69.47231 77.496486 
L 69.526669 40.537152 
L 69.581028 51.861427 
L 69.635387 80.188165 
L 69.689746 75.896849 
L 69.744104 74.696673 
L 69.798463 46.826139 
L 69.96154 85.542889 
L 70.124617 59.649388 
L 70.178976 53.728677 
L 70.233335 95.879088 
L 70.287694 75.187716 
L 70.342053 88.534947 
L 70.505129 66.20444 
L 70.559488 100.033717 
L 70.613847 93.429227 
L 70.776924 44.681008 
L 70.831283 76.253574 
L 70.885642 67.544765 
L 70.940001 49.038538 
L 70.99436 87.118998 
L 71.048719 79.470378 
L 71.157437 67.48558 
L 71.211796 70.501102 
L 71.266154 78.36577 
L 71.320513 59.340649 
L 71.374872 72.408575 
L 71.429231 60.467549 
L 71.48359 91.337114 
L 71.537949 71.676532 
L 71.646667 83.456101 
L 71.701026 65.271482 
L 71.755385 67.19745 
L 71.864103 81.915064 
L 71.918462 58.304578 
L 71.972821 80.456293 
L 72.081538 52.924112 
L 72.135897 95.624998 
L 72.244615 94.937721 
L 72.407692 77.533914 
L 72.462051 96.815629 
L 72.51641 56.997996 
L 72.570769 78.772375 
L 72.679487 59.773056 
L 72.733846 71.597916 
L 72.842563 55.009533 
L 73.114358 84.909904 
L 73.168717 74.708869 
L 73.223076 93.524644 
L 73.277435 60.661914 
L 73.331794 72.007929 
L 73.440512 82.646037 
L 73.494871 70.122411 
L 73.657947 96.74477 
L 73.766665 61.481749 
L 73.821024 81.139131 
L 73.875383 94.416709 
L 73.929742 54.645983 
L 73.984101 83.963256 
L 74.310254 41.639063 
L 74.364613 88.700633 
L 74.418972 80.90331 
L 74.473331 86.116674 
L 74.52769 62.835645 
L 74.582049 71.366392 
L 74.690767 79.020487 
L 74.745126 47.924715 
L 74.799485 64.72092 
L 74.853844 74.365388 
L 74.908203 70.08435 
L 74.962562 70.849967 
L 75.125638 46.327275 
L 75.179997 78.352523 
L 75.234356 77.656283 
L 75.343074 52.346137 
L 75.506151 81.454577 
L 75.56051 69.001537 
L 75.614869 84.148532 
L 75.669228 64.357963 
L 75.723587 82.489341 
L 75.777946 89.918146 
L 75.832304 62.7717 
L 75.886663 77.056726 
L 75.941022 87.90212 
L 75.995381 84.196332 
L 76.104099 85.12732 
L 76.158458 38.076734 
L 76.212817 85.188465 
L 76.267176 24.074235 
L 76.321535 70.822491 
L 76.375894 63.554817 
L 76.430253 69.087853 
L 76.484612 80.500391 
L 76.538971 43.046031 
L 76.593329 58.481529 
L 76.647688 82.538729 
L 76.702047 82.350458 
L 76.756406 61.68387 
L 76.810765 68.332042 
L 76.865124 83.070116 
L 76.973842 49.828507 
L 77.028201 67.371018 
L 77.08256 55.45421 
L 77.245637 97.418907 
L 77.299996 74.635515 
L 77.354354 76.19105 
L 77.408713 87.318246 
L 77.517431 56.301571 
L 77.626149 86.530343 
L 77.680508 79.9734 
L 77.734867 90.756902 
L 77.952303 51.217338 
L 78.006662 82.821394 
L 78.061021 67.70612 
L 78.115379 78.949433 
L 78.169738 63.346606 
L 78.224097 81.147254 
L 78.278456 75.123326 
L 78.441533 56.983118 
L 78.550251 93.447706 
L 78.60461 31.140088 
L 78.658969 74.162852 
L 78.713328 47.165823 
L 78.767687 58.380449 
L 78.822046 95.54942 
L 78.876404 66.008158 
L 78.930763 47.197287 
L 78.985122 48.713276 
L 79.039481 84.4404 
L 79.09384 67.985627 
L 79.148199 63.94885 
L 79.202558 92.177499 
L 79.256917 81.852331 
L 79.419994 59.540863 
L 79.528712 87.634823 
L 79.583071 55.248278 
L 79.691788 55.789655 
L 79.746147 75.086449 
L 79.800506 52.469085 
L 79.854865 77.28425 
L 79.909224 64.506169 
L 79.963583 65.107673 
L 80.072301 56.713982 
L 80.235378 88.343553 
L 80.344096 58.820881 
L 80.507172 97.600023 
L 80.670249 74.967932 
L 80.778967 86.201886 
L 80.833326 54.632366 
L 80.887685 66.962739 
L 81.050762 88.424375 
L 81.105121 71.594373 
L 81.15948 96.510244 
L 81.213838 90.122989 
L 81.268197 68.480955 
L 81.322556 96.235445 
L 81.376915 81.620728 
L 81.431274 75.516103 
L 81.485633 77.245888 
L 81.539992 46.014598 
L 81.594351 82.557444 
L 81.64871 58.143679 
L 81.703069 77.918342 
L 81.757428 46.250408 
L 81.811787 88.365046 
L 81.866146 82.446518 
L 81.920505 75.128744 
L 81.974863 46.598975 
L 82.029222 91.104841 
L 82.083581 75.145097 
L 82.13794 78.992752 
L 82.192299 98.031479 
L 82.355376 64.965144 
L 82.409735 57.805813 
L 82.464094 87.73552 
L 82.627171 44.378644 
L 82.68153 94.185883 
L 82.735888 45.621378 
L 82.898965 91.039073 
L 82.953324 48.76979 
L 83.007683 65.535086 
L 83.062042 67.965632 
L 83.116401 52.063458 
L 83.279478 80.99406 
L 83.333837 57.909552 
L 83.388196 70.382326 
L 83.551272 79.267739 
L 83.65999 58.151783 
L 83.714349 72.501105 
L 83.768708 60.837001 
L 83.877426 58.270954 
L 84.040503 91.916765 
L 84.149221 59.563022 
L 84.312297 88.797228 
L 84.366656 81.22664 
L 84.421015 54.796794 
L 84.475374 61.273327 
L 84.584092 90.064381 
L 84.747169 58.146243 
L 84.801528 79.891346 
L 84.855887 47.121898 
L 84.910246 79.046884 
L 84.964605 80.786699 
L 85.018963 51.983578 
L 85.073322 99.882157 
L 85.127681 73.050357 
L 85.18204 76.943466 
L 85.236399 89.019557 
L 85.345117 57.010542 
L 85.399476 69.940138 
L 85.453835 63.03116 
L 85.508194 84.239223 
L 85.562553 43.089135 
L 85.616912 70.715713 
L 85.671271 60.64973 
L 85.72563 101.755669 
L 85.779988 86.968643 
L 85.834347 89.293594 
L 85.943065 60.868397 
L 85.997424 74.405065 
L 86.051783 104.569992 
L 86.106142 56.928888 
L 86.160501 66.6959 
L 86.21486 99.211797 
L 86.269219 79.438193 
L 86.323578 48.448055 
L 86.377937 66.04123 
L 86.432296 92.854825 
L 86.486655 61.388344 
L 86.541013 91.667837 
L 86.595372 67.053612 
L 86.649731 80.774995 
L 86.70409 86.519319 
L 86.921526 52.275029 
L 87.084603 82.72962 
L 87.138962 66.303181 
L 87.193321 96.839275 
L 87.24768 82.062545 
L 87.302038 81.207631 
L 87.410756 58.906593 
L 87.465115 62.427915 
L 87.519474 80.427047 
L 87.573833 37.488026 
L 87.628192 68.663458 
L 87.73691 74.91086 
L 87.791269 41.532025 
L 87.845628 56.503069 
L 87.899987 58.275019 
L 87.954346 57.867751 
L 88.063063 88.07383 
L 88.171781 68.097006 
L 88.22614 70.551026 
L 88.280499 86.442566 
L 88.334858 61.458743 
L 88.389217 80.282773 
L 88.443576 112.240576 
L 88.552294 72.704145 
L 88.606653 105.831854 
L 88.661012 55.668079 
L 88.715371 60.936676 
L 88.76973 61.645615 
L 88.878447 104.374687 
L 88.932806 64.75097 
L 88.987165 77.710655 
L 89.095883 89.314728 
L 89.150242 41.147854 
L 89.204601 71.115235 
L 89.25896 65.63745 
L 89.313319 69.788553 
L 89.367678 72.97978 
L 89.422037 89.042664 
L 89.585113 36.377597 
L 89.639472 102.739432 
L 89.693831 89.832444 
L 89.74819 59.172555 
L 89.802549 81.41655 
L 89.911267 40.833027 
L 89.965626 50.657232 
L 90.128703 86.634026 
L 90.183062 43.277441 
L 90.237421 68.282922 
L 90.346138 90.797333 
L 90.454856 88.011649 
L 90.509215 57.179095 
L 90.563574 65.719737 
L 90.617933 68.118593 
L 90.672292 47.384877 
L 90.726651 87.853919 
L 90.78101 87.594307 
L 90.889728 46.664202 
L 90.944087 73.815111 
L 90.998446 73.807952 
L 91.107163 59.605826 
L 91.27024 79.138227 
L 91.324599 61.761437 
L 91.378958 74.161854 
L 91.433317 69.634449 
L 91.487676 89.50727 
L 91.542035 63.77245 
L 91.596394 70.646521 
L 91.650753 65.465446 
L 91.705112 73.847157 
L 91.759471 66.215059 
L 91.81383 64.559177 
L 91.868188 102.020634 
L 91.922547 53.445388 
L 91.976906 70.216203 
L 92.031265 69.6782 
L 92.085624 67.970207 
L 92.139983 68.537141 
L 92.248701 103.866261 
L 92.30306 90.522408 
L 92.411778 69.749244 
L 92.466137 93.798561 
L 92.520496 79.118605 
L 92.574855 51.871775 
L 92.629213 70.730299 
L 92.683572 77.988527 
L 92.737931 40.682836 
L 92.79229 74.909097 
L 92.846649 80.603618 
L 92.901008 70.27522 
L 92.955367 71.532983 
L 93.118444 81.201026 
L 93.227162 55.207196 
L 93.281521 63.858775 
L 93.33588 62.603255 
L 93.390238 84.894632 
L 93.444597 63.695447 
L 93.498956 79.644891 
L 93.607674 48.460155 
L 93.662033 49.299155 
L 93.770751 86.776336 
L 93.82511 86.482542 
L 93.879469 81.075368 
L 93.933828 82.348517 
L 93.988187 51.277909 
L 94.042546 55.879437 
L 94.151263 107.946985 
L 94.205622 63.240619 
L 94.259981 74.378706 
L 94.31434 103.769886 
L 94.477417 58.243007 
L 94.640494 103.394166 
L 94.749212 67.69293 
L 94.803571 76.82013 
L 94.966647 54.394704 
L 95.021006 64.198338 
L 95.075365 49.831823 
L 95.129724 89.731957 
L 95.184083 40.279379 
L 95.238442 76.82154 
L 95.292801 94.177718 
L 95.34716 24.481575 
L 95.401519 67.318924 
L 95.455878 67.672554 
L 95.510237 103.675205 
L 95.564596 85.122286 
L 95.673313 71.870362 
L 95.83639 88.057122 
L 95.945108 48.816804 
L 96.108185 94.569319 
L 96.162544 100.289415 
L 96.216903 52.279411 
L 96.271262 66.108021 
L 96.325621 66.343581 
L 96.488697 39.93145 
L 96.543056 84.08988 
L 96.597415 82.231276 
L 96.651774 44.466225 
L 96.706133 81.58037 
L 96.760492 65.023171 
L 96.814851 86.096104 
L 96.86921 57.20487 
L 96.923569 72.574932 
L 96.977928 83.699789 
L 97.032287 73.134589 
L 97.086646 47.501051 
L 97.141005 82.969972 
L 97.195364 68.226784 
L 97.249722 60.323519 
L 97.35844 90.042999 
L 97.467158 71.33892 
L 97.521517 76.475113 
L 97.575876 58.377704 
L 97.630235 68.322668 
L 97.738953 91.450619 
L 97.847671 76.412972 
L 97.90203 100.769976 
L 97.956389 78.225464 
L 98.010747 42.456093 
L 98.119465 90.453048 
L 98.228183 58.075622 
L 98.336901 71.894644 
L 98.39126 36.595086 
L 98.445619 65.617937 
L 98.554337 45.722807 
L 98.717414 86.150004 
L 98.771772 73.231608 
L 98.826131 96.480932 
L 98.88049 94.973112 
L 98.989208 49.759645 
L 99.152285 93.26467 
L 99.261003 39.483779 
L 99.369721 89.502591 
L 99.42408 61.595767 
L 99.478439 76.963513 
L 99.695874 47.498471 
L 99.858951 71.692602 
L 99.967669 49.336322 
L 100.130746 85.630741 
L 100.239464 62.343979 
L 100.293822 82.102363 
L 100.348181 44.308458 
L 100.40254 60.182815 
L 100.456899 83.648872 
L 100.511258 42.486952 
L 100.565617 104.052409 
L 100.619976 56.806323 
L 100.728694 55.195722 
L 100.783053 83.327478 
L 100.837412 69.735849 
L 100.891771 62.13333 
L 100.94613 87.472974 
L 101.000489 75.221388 
L 101.054847 75.770008 
L 101.109206 74.197918 
L 101.217924 88.160112 
L 101.272283 36.599184 
L 101.326642 72.113734 
L 101.381001 73.922602 
L 101.43536 83.340571 
L 101.544078 36.383388 
L 101.761514 87.945626 
L 101.815872 84.268935 
L 101.870231 50.721709 
L 101.92459 64.373735 
L 102.033308 59.248131 
L 102.142026 66.941699 
L 102.196385 52.970314 
L 102.250744 68.206799 
L 102.305103 62.547446 
L 102.359462 52.200404 
L 102.413821 80.275223 
L 102.46818 64.057961 
L 102.522539 72.098315 
L 102.576897 63.278086 
L 102.685615 95.908327 
L 102.794333 70.364239 
L 102.848692 72.001677 
L 102.95741 83.540411 
L 103.011769 24.359453 
L 103.066128 70.367741 
L 103.120487 70.45577 
L 103.174846 76.990396 
L 103.229205 61.268312 
L 103.283564 76.697199 
L 103.337922 78.806831 
L 103.392281 69.525781 
L 103.44664 98.660576 
L 103.500999 66.451924 
L 103.609717 67.532201 
L 103.718435 51.963801 
L 103.772794 81.39615 
L 103.827153 76.260381 
L 103.881512 47.95551 
L 103.935871 54.608431 
L 104.098947 77.348249 
L 104.153306 65.021128 
L 104.262024 105.129055 
L 104.425101 68.530592 
L 104.47946 51.76848 
L 104.642537 98.420142 
L 104.696896 95.541303 
L 104.751255 54.89485 
L 104.805614 76.40924 
L 104.859972 81.712042 
L 104.914331 62.363644 
L 104.96869 83.078276 
L 105.023049 67.359852 
L 105.077408 53.501144 
L 105.131767 57.369215 
L 105.186126 67.480839 
L 105.240485 34.997936 
L 105.294844 65.26035 
L 105.349203 64.732488 
L 105.51228 94.824373 
L 105.566639 41.167772 
L 105.620997 96.237152 
L 105.729715 74.983622 
L 105.838433 34.965375 
L 105.892792 117.768099 
L 105.947151 84.575881 
L 106.00151 60.933349 
L 106.055869 80.04414 
L 106.110228 68.883261 
L 106.164587 74.809037 
L 106.273305 59.772948 
L 106.327664 93.301907 
L 106.382022 22.631923 
L 106.436381 89.914809 
L 106.49074 49.956189 
L 106.545099 84.563558 
L 106.599458 66.721159 
L 106.653817 68.476506 
L 106.762535 69.201456 
L 106.816894 77.209802 
L 106.925612 51.912779 
L 106.979971 74.135084 
L 107.088689 73.369309 
L 107.143047 51.356532 
L 107.197406 73.109836 
L 107.251765 58.984547 
L 107.306124 86.732037 
L 107.360483 64.658074 
L 107.577919 118.663709 
L 107.632278 62.399656 
L 107.686637 81.575319 
L 107.958431 51.535915 
L 108.01279 112.842126 
L 108.067149 75.395863 
L 108.121508 92.201377 
L 108.284585 53.026482 
L 108.338944 53.154886 
L 108.393303 74.609898 
L 108.447662 53.163323 
L 108.502021 59.247354 
L 108.55638 40.468603 
L 108.610739 81.952784 
L 108.665097 62.017246 
L 108.719456 62.45522 
L 108.773815 99.609019 
L 108.828174 66.619298 
L 108.882533 82.989858 
L 108.936892 64.410161 
L 109.099969 119.183614 
L 109.154328 57.64675 
L 109.208687 57.729498 
L 109.371764 75.93917 
L 109.426122 49.851135 
L 109.480481 67.327795 
L 109.53484 54.551681 
L 109.752276 86.96605 
L 109.806635 70.637773 
L 109.860994 76.086854 
L 109.915353 110.300779 
L 109.969712 76.533038 
L 110.07843 43.474604 
L 110.241506 84.882331 
L 110.295865 67.327501 
L 110.350224 79.22192 
L 110.404583 73.964547 
L 110.458942 106.806793 
L 110.513301 44.381963 
L 110.56766 48.709353 
L 110.622019 84.508779 
L 110.676378 71.301548 
L 110.730737 44.619423 
L 110.893814 86.446482 
L 110.948172 45.261299 
L 111.002531 73.723533 
L 111.05689 48.0234 
L 111.165608 96.918289 
L 111.219967 93.139683 
L 111.274326 64.886219 
L 111.328685 89.335169 
L 111.546121 33.002201 
L 111.709197 90.392387 
L 111.872274 38.711639 
L 111.926633 98.911244 
L 111.980992 44.681827 
L 112.035351 73.614368 
L 112.08971 29.2788 
L 112.144069 84.639032 
L 112.198428 79.364015 
L 112.252787 75.846301 
L 112.361505 51.320762 
L 112.524581 98.002627 
L 112.687658 40.125038 
L 112.796376 86.443344 
L 112.850735 59.864004 
L 112.905094 69.649609 
L 112.959453 71.405363 
L 113.013812 78.132687 
L 113.068171 66.834172 
L 113.12253 69.032475 
L 113.176889 67.970663 
L 113.231248 89.718452 
L 113.285606 89.005035 
L 113.503042 54.511661 
L 113.557401 113.836019 
L 113.61176 81.754131 
L 113.666119 80.746851 
L 113.774837 81.595551 
L 113.829196 51.351654 
L 113.883555 90.09293 
L 113.937914 86.546704 
L 113.992273 51.974012 
L 114.046631 52.279406 
L 114.10099 76.149303 
L 114.155349 72.734402 
L 114.209708 67.006907 
L 114.264067 92.176494 
L 114.318426 41.851506 
L 114.372785 85.008672 
L 114.481503 72.228031 
L 114.535862 85.106023 
L 114.698939 43.609154 
L 114.807656 88.868255 
L 114.916374 55.616129 
L 115.079451 103.84798 
L 115.13381 41.149386 
L 115.188169 74.171552 
L 115.242528 97.299868 
L 115.296887 60.573317 
L 115.351246 98.626892 
L 115.514323 46.628151 
L 115.568681 62.753964 
L 115.62304 97.589531 
L 115.677399 65.098364 
L 115.731758 86.692965 
L 115.786117 65.687371 
L 115.894835 76.034674 
L 115.949194 16.363636 
L 116.003553 85.499458 
L 116.057912 78.425065 
L 116.112271 68.317332 
L 116.275348 82.297522 
L 116.384065 69.87804 
L 116.492783 89.004869 
L 116.601501 43.989293 
L 116.764578 75.580068 
L 116.927655 51.392179 
L 117.036373 94.049848 
L 117.090731 73.933086 
L 117.14509 92.200629 
L 117.199449 56.705557 
L 117.253808 64.446406 
L 117.308167 71.045899 
L 117.362526 53.059143 
L 117.416885 88.391996 
L 117.471244 54.637257 
L 117.525603 61.72424 
L 117.579962 86.153291 
L 117.634321 71.038883 
L 117.68868 68.540766 
L 117.743039 90.524146 
L 117.851756 48.643333 
L 117.906115 110.187858 
L 117.960474 47.095815 
L 118.014833 54.227858 
L 118.069192 92.483827 
L 118.123551 61.253808 
L 118.17791 42.239438 
L 118.232269 87.378105 
L 118.286628 63.741319 
L 118.340987 64.043935 
L 118.395346 55.990952 
L 118.449705 67.607112 
L 118.504064 61.088279 
L 118.558423 29.179327 
L 118.721499 86.784268 
L 118.775858 55.828935 
L 118.830217 69.254516 
L 118.938935 115.165211 
L 118.993294 87.850927 
L 119.047653 37.682842 
L 119.102012 67.64901 
L 119.156371 62.104999 
L 119.265089 94.579381 
L 119.319448 76.458656 
L 119.373806 75.04309 
L 119.482524 61.556524 
L 119.536883 83.602577 
L 119.591242 71.400555 
L 119.69996 97.262186 
L 119.754319 93.940733 
L 119.808678 51.652213 
L 119.863037 100.280239 
L 119.917396 78.200895 
L 119.971755 63.663322 
L 120.026114 79.090143 
L 120.080473 33.167544 
L 120.134831 33.384831 
L 120.18919 36.612833 
L 120.243549 50.014792 
L 120.297908 29.79154 
L 120.352267 86.548101 
L 120.406626 61.058201 
L 120.460985 58.9641 
L 120.515344 80.728262 
L 120.569703 32.684152 
L 120.624062 88.521288 
L 120.73278 88.406454 
L 120.787139 49.807008 
L 120.841498 66.641832 
L 120.895856 65.516298 
L 120.950215 92.02798 
L 121.113292 54.006241 
L 121.167651 105.079719 
L 121.22201 73.292504 
L 121.276369 73.079433 
L 121.330728 36.108332 
L 121.385087 58.150909 
L 121.439446 39.310436 
L 121.493805 96.113729 
L 121.548164 74.853838 
L 121.602523 86.506615 
L 121.656881 66.568003 
L 121.71124 86.994707 
L 121.765599 88.569265 
L 121.874317 50.714937 
L 121.928676 85.358501 
L 121.983035 49.05072 
L 122.037394 58.995672 
L 122.091753 94.604326 
L 122.146112 39.509319 
L 122.200471 78.635139 
L 122.25483 84.082372 
L 122.363548 41.142697 
L 122.417906 68.980239 
L 122.526624 64.730524 
L 122.689701 83.192042 
L 122.74406 54.716817 
L 122.798419 75.047146 
L 122.852778 80.922998 
L 122.961496 45.511275 
L 123.124573 65.675084 
L 123.178931 43.755748 
L 123.23329 68.457928 
L 123.287649 60.66571 
L 123.396367 52.546651 
L 123.450726 77.696842 
L 123.505085 60.066735 
L 123.559444 60.624621 
L 123.613803 41.663196 
L 123.722521 85.783507 
L 123.77688 63.031734 
L 123.831239 78.774553 
L 123.885598 117.729678 
L 123.939956 55.962634 
L 123.994315 86.489844 
L 124.211751 67.126624 
L 124.320469 84.176783 
L 124.374828 81.007025 
L 124.429187 80.521899 
L 124.483546 61.610304 
L 124.537905 67.953641 
L 124.700981 110.787674 
L 124.75534 56.607882 
L 124.809699 63.786127 
L 124.864058 66.887754 
L 124.918417 98.001167 
L 124.972776 44.315514 
L 125.027135 85.142229 
L 125.081494 74.071666 
L 125.135853 84.099109 
L 125.190212 80.692439 
L 125.244571 91.222415 
L 125.353289 67.904455 
L 125.407648 102.732878 
L 125.462006 99.7247 
L 125.570724 34.159824 
L 125.625083 73.926989 
L 125.679442 69.25773 
L 125.842519 100.737074 
L 125.896878 44.794951 
L 125.951237 57.062511 
L 126.005596 84.814334 
L 126.114314 84.261262 
L 126.168673 75.922578 
L 126.223031 80.300233 
L 126.27739 88.396485 
L 126.440467 52.542524 
L 126.494826 77.022129 
L 126.549185 59.486309 
L 126.603544 40.176914 
L 126.766621 95.108499 
L 126.82098 65.146337 
L 126.875339 116.381609 
L 126.929698 79.738178 
L 126.984056 75.226777 
L 127.092774 92.997591 
L 127.147133 62.602718 
L 127.201492 97.490426 
L 127.255851 73.590956 
L 127.31021 75.538357 
L 127.364569 37.665002 
L 127.418928 60.339235 
L 127.527646 77.982666 
L 127.582005 63.327434 
L 127.636364 112.509136 
L 127.636364 112.509136 
" clip-path="url(#p42f8c3bb47)" style="fill: none; stroke: #c6a491; stroke-width: 1.5; stroke-linecap: square"/>
   </g>
   <g id="patch_3">
    <path d="M 10.8 133.2 
L 10.8 10.8 
" style="fill: none; stroke: #000000; stroke-width: 0.8; stroke-linejoin: miter; stroke-linecap: square"/>
   </g>
   <g id="patch_4">
    <path d="M 133.2 133.2 
L 133.2 10.8 
" style="fill: none; stroke: #000000; stroke-width: 0.8; stroke-linejoin: miter; stroke-linecap: square"/>
   </g>
   <g id="patch_5">
    <path d="M 10.8 133.2 
L 133.2 133.2 
" style="fill: none; stroke: #000000; stroke-width: 0.8; stroke-linejoin: miter; stroke-linecap: square"/>
   </g>
   <g id="patch_6">
    <path d="M 10.8 10.8 
L 133.2 10.8 
" style="fill: none; stroke: #000000; stroke-width: 0.8; stroke-linejoin: miter; stroke-linecap: square"/>
   </g>
  </g>
 </g>
 <defs>
  <clipPath id="p42f8c3bb47">
   <rect x="10.8" y="10.8" width="122.4" height="122.4"/>
  </clipPath>
 </defs>
</svg>
