<?xml version="1.0" encoding="utf-8" standalone="no"?>
<!DOCTYPE svg PUBLIC "-//W3C//DTD SVG 1.1//EN"
  "http://www.w3.org/Graphics/SVG/1.1/DTD/svg11.dtd">
<svg xmlns:xlink="http://www.w3.org/1999/xlink" width="144pt" height="144pt" viewBox="0 0 144 144" xmlns="http://www.w3.org/2000/svg" version="1.1">
 <metadata>
  <rdf:RDF xmlns:dc="http://purl.org/dc/elements/1.1/" xmlns:cc="http://creativecommons.org/ns#" xmlns:rdf="http://www.w3.org/1999/02/22-rdf-syntax-ns#">
   <cc:Work>
    <dc:type rdf:resource="http://purl.org/dc/dcmitype/StillImage"/>
    <dc:date>2025-02-07T11:27:54.870561</dc:date>
    <dc:format>image/svg+xml</dc:format>
    <dc:creator>
     <cc:Agent>
      <dc:title>Matplotlib v3.8.0, https://matplotlib.org/</dc:title>
     </cc:Agent>
    </dc:creator>
   </cc:Work>
  </rdf:RDF>
 </metadata>
 <defs>
  <style type="text/css">*{stroke-linejoin: round; stroke-linecap: butt}</style>
 </defs>
 <g id="figure_1">
  <g id="patch_1">
   <path d="M 0 144 
L 144 144 
L 144 0 
L 0 0 
L 0 144 
z
" style="fill: none"/>
  </g>
  <g id="axes_1">
   <g id="patch_2">
    <path d="M 10.8 133.2 
L 133.2 133.2 
L 133.2 10.8 
L 10.8 10.8 
L 10.8 133.2 
z
" style="fill: none"/>
   </g>
   <g id="matplotlib.axis_1"/>
   <g id="matplotlib.axis_2"/>
   <g id="line2d_1">
    <path d="M 16.363636 83.071335 
L 16.417995 58.843956 
L 16.472354 66.92196 
L 16.581072 54.528525 
L 16.744149 81.855004 
L 16.852867 69.840844 
L 16.961585 79.354225 
L 17.015944 54.771399 
L 17.070302 91.702741 
L 17.124661 86.471136 
L 17.17902 66.172291 
L 17.233379 70.367787 
L 17.342097 113.429586 
L 17.559533 56.34576 
L 17.668251 96.881489 
L 17.72261 78.82205 
L 17.776969 66.676001 
L 17.831327 68.445927 
L 17.885686 72.29032 
L 17.940045 87.986471 
L 18.103122 48.319194 
L 18.157481 82.311393 
L 18.21184 63.143561 
L 18.266199 78.887523 
L 18.320558 64.687616 
L 18.374917 58.401406 
L 18.429276 36.675691 
L 18.592352 79.95283 
L 18.646711 65.893201 
L 18.70107 82.44127 
L 18.755429 82.394931 
L 18.809788 69.256088 
L 18.864147 74.696478 
L 18.918506 77.511359 
L 18.972865 98.469582 
L 19.027224 51.057215 
L 19.081583 90.990635 
L 19.190301 71.409373 
L 19.407736 98.625105 
L 19.462095 96.345649 
L 19.516454 65.669336 
L 19.570813 67.337372 
L 19.625172 68.73943 
L 19.679531 84.328379 
L 19.73389 79.965539 
L 19.788249 74.907676 
L 19.842608 86.719874 
L 19.896967 85.205966 
L 19.951326 84.251024 
L 20.060044 69.897838 
L 20.114402 107.518108 
L 20.168761 71.884664 
L 20.331838 96.055566 
L 20.603633 58.294052 
L 20.657992 76.113812 
L 20.712351 49.578578 
L 20.76671 113.213137 
L 20.821069 73.181639 
L 20.875427 67.573613 
L 20.929786 102.664598 
L 20.984145 50.227276 
L 21.038504 71.461577 
L 21.092863 69.262953 
L 21.147222 93.400274 
L 21.201581 74.823363 
L 21.25594 87.147667 
L 21.310299 23.815048 
L 21.364658 61.359526 
L 21.473376 85.713146 
L 21.527735 64.656559 
L 21.582094 80.845649 
L 21.636452 75.31878 
L 21.799529 88.554982 
L 21.853888 88.690198 
L 21.908247 96.741454 
L 22.016965 60.367011 
L 22.071324 120.69015 
L 22.125683 106.09275 
L 22.28876 50.621974 
L 22.397477 85.29761 
L 22.451836 81.814789 
L 22.506195 60.114757 
L 22.560554 81.600108 
L 22.614913 84.303482 
L 22.669272 41.633932 
L 22.723631 67.9167 
L 22.832349 108.594814 
L 22.941067 70.695219 
L 22.995426 74.523605 
L 23.049785 63.353053 
L 23.104144 102.914884 
L 23.158502 46.740019 
L 23.212861 91.961403 
L 23.321579 65.656578 
L 23.375938 81.615592 
L 23.430297 58.294344 
L 23.484656 66.389272 
L 23.593374 100.70248 
L 23.647733 85.980272 
L 23.81081 67.384621 
L 23.865169 70.098804 
L 23.919527 81.764546 
L 23.973886 75.533309 
L 24.028245 42.702631 
L 24.191322 92.938881 
L 24.30004 49.933873 
L 24.354399 67.873311 
L 24.408758 76.535698 
L 24.463117 65.951446 
L 24.517476 67.366164 
L 24.571835 92.099612 
L 24.626194 81.686347 
L 24.78927 56.815902 
L 24.843629 56.854051 
L 24.897988 95.440825 
L 24.952347 57.765111 
L 25.006706 82.312404 
L 25.061065 51.492864 
L 25.115424 94.312388 
L 25.169783 81.055934 
L 25.224142 52.740758 
L 25.278501 74.304369 
L 25.495936 49.697772 
L 25.550295 92.218348 
L 25.604654 90.508198 
L 25.767731 52.817523 
L 25.876449 89.751419 
L 26.039526 58.904602 
L 26.093885 69.87059 
L 26.148244 67.582104 
L 26.202602 58.858959 
L 26.256961 60.917852 
L 26.31132 83.626896 
L 26.365679 57.483003 
L 26.474397 112.88858 
L 26.637474 49.517951 
L 26.691833 89.517944 
L 26.746192 62.127625 
L 27.017986 95.022022 
L 27.072345 64.840123 
L 27.126704 66.945137 
L 27.181063 89.11282 
L 27.235422 83.251499 
L 27.289781 53.683969 
L 27.34414 113.129436 
L 27.398499 48.292809 
L 27.452858 65.201514 
L 27.507217 63.021072 
L 27.561576 83.575389 
L 27.615935 60.113366 
L 27.670294 95.455213 
L 27.724652 82.092675 
L 27.83337 58.351857 
L 27.887729 75.945306 
L 27.942088 46.536947 
L 27.996447 104.105695 
L 28.050806 46.862195 
L 28.105165 84.09523 
L 28.159524 76.694994 
L 28.213883 79.53217 
L 28.322601 44.430773 
L 28.485677 86.440829 
L 28.540036 66.00922 
L 28.594395 81.486624 
L 28.648754 90.285739 
L 28.703113 58.764617 
L 28.757472 71.656596 
L 28.811831 83.507848 
L 28.974908 52.834797 
L 29.029267 82.653933 
L 29.083626 60.575756 
L 29.137985 56.625448 
L 29.301061 67.735217 
L 29.35542 51.263588 
L 29.409779 67.627422 
L 29.464138 93.079738 
L 29.572856 42.307872 
L 29.627215 45.544879 
L 29.681574 82.574332 
L 29.735933 52.666035 
L 29.790292 41.601604 
L 29.844651 90.639887 
L 29.89901 60.828299 
L 30.007727 100.486877 
L 30.062086 60.331408 
L 30.116445 77.349823 
L 30.170804 84.148498 
L 30.279522 62.878439 
L 30.333881 105.513542 
L 30.38824 44.942331 
L 30.442599 57.016657 
L 30.551317 75.211904 
L 30.605676 59.439603 
L 30.660035 94.182022 
L 30.714394 69.710473 
L 30.768752 41.850505 
L 30.823111 63.862183 
L 30.931829 76.651853 
L 31.040547 98.391505 
L 31.312342 37.848799 
L 31.42106 65.204456 
L 31.475419 51.635988 
L 31.529778 85.316931 
L 31.584136 72.38858 
L 31.638495 82.841815 
L 31.692854 64.51071 
L 31.747213 86.394379 
L 31.801572 51.828667 
L 31.855931 95.970305 
L 31.91029 60.12515 
L 31.964649 55.110123 
L 32.019008 73.122286 
L 32.073367 67.307184 
L 32.127726 64.046156 
L 32.182085 78.186914 
L 32.236444 46.915171 
L 32.290803 77.555601 
L 32.345161 88.211953 
L 32.39952 80.317683 
L 32.562597 59.389666 
L 32.616956 64.069901 
L 32.671315 62.350164 
L 32.725674 89.844948 
L 32.780033 75.712801 
L 32.834392 68.180355 
L 32.888751 76.989499 
L 32.94311 50.186268 
L 32.997469 81.409927 
L 33.051828 79.079852 
L 33.160545 63.280698 
L 33.269263 99.335378 
L 33.323622 94.088287 
L 33.541058 45.391434 
L 33.649776 120.932227 
L 33.758494 47.162118 
L 33.812853 68.899345 
L 33.975929 27.548224 
L 34.030288 77.780586 
L 34.084647 73.902709 
L 34.193365 57.731959 
L 34.302083 78.086443 
L 34.356442 29.897174 
L 34.410801 88.553748 
L 34.46516 86.537302 
L 34.573878 63.959874 
L 34.628236 110.315366 
L 34.682595 55.669634 
L 34.736954 113.444944 
L 34.791313 63.03962 
L 34.845672 61.747384 
L 34.900031 36.163558 
L 34.95439 92.249523 
L 35.008749 61.201026 
L 35.117467 85.808454 
L 35.171826 65.90561 
L 35.226185 72.9421 
L 35.280544 85.944251 
L 35.334903 58.389559 
L 35.389261 94.089481 
L 35.44362 73.993443 
L 35.497979 83.291892 
L 35.552338 72.732402 
L 35.606697 73.399493 
L 35.661056 77.316867 
L 35.715415 53.526287 
L 35.769774 63.984338 
L 35.932851 78.402296 
L 35.98721 54.854004 
L 36.095928 98.402496 
L 36.150286 83.38735 
L 36.204645 59.052973 
L 36.259004 60.147535 
L 36.367722 59.779537 
L 36.47644 90.8248 
L 36.639517 16.363636 
L 36.802594 81.130922 
L 36.856953 77.924488 
L 36.911311 79.118698 
L 37.020029 49.92664 
L 37.128747 73.124957 
L 37.183106 64.664237 
L 37.237465 97.100947 
L 37.291824 96.343851 
L 37.346183 68.491915 
L 37.400542 95.946345 
L 37.454901 82.55165 
L 37.50926 88.912366 
L 37.563619 84.053382 
L 37.617978 93.361621 
L 37.726695 60.740371 
L 37.835413 82.598541 
L 37.889772 53.837183 
L 37.944131 79.108752 
L 37.99849 70.871132 
L 38.161567 99.059029 
L 38.324644 67.042337 
L 38.379003 80.595787 
L 38.433361 58.640581 
L 38.48772 71.825651 
L 38.542079 100.686692 
L 38.596438 44.202948 
L 38.650797 66.913412 
L 38.705156 86.910655 
L 38.759515 70.639338 
L 38.813874 65.923427 
L 38.868233 50.19756 
L 38.976951 90.539926 
L 39.03131 87.385882 
L 39.085669 68.545153 
L 39.140028 68.669716 
L 39.194386 86.801894 
L 39.248745 47.446782 
L 39.303104 81.872962 
L 39.52054 28.438892 
L 39.629258 79.61711 
L 39.683617 68.733248 
L 39.737976 71.448709 
L 39.792335 58.810167 
L 39.846694 68.950273 
L 39.901053 79.24091 
L 39.955411 64.384241 
L 40.00977 106.223409 
L 40.064129 87.177591 
L 40.118488 94.15815 
L 40.227206 55.586797 
L 40.281565 66.02755 
L 40.335924 48.446385 
L 40.390283 77.722255 
L 40.444642 64.612118 
L 40.499001 76.166659 
L 40.55336 53.285023 
L 40.607719 56.226322 
L 40.716436 83.761993 
L 40.770795 72.9976 
L 40.825154 74.468198 
L 40.933872 79.801546 
L 40.988231 52.195386 
L 41.04259 54.918473 
L 41.096949 80.818732 
L 41.151308 39.572021 
L 41.205667 89.324235 
L 41.260026 83.9012 
L 41.368744 59.807739 
L 41.423103 65.338744 
L 41.477461 86.817184 
L 41.586179 46.444745 
L 41.749256 94.292243 
L 41.857974 61.358737 
L 41.912333 84.400096 
L 41.966692 74.175165 
L 42.021051 53.728399 
L 42.129769 94.470492 
L 42.292845 51.092728 
L 42.347204 101.565632 
L 42.401563 86.54032 
L 42.455922 71.117387 
L 42.510281 80.41488 
L 42.56464 74.950281 
L 42.618999 39.918214 
L 42.673358 73.001429 
L 42.727717 42.500537 
L 42.890794 98.858641 
L 43.05387 46.731745 
L 43.108229 49.373864 
L 43.216947 85.972042 
L 43.271306 76.38497 
L 43.325665 58.328344 
L 43.380024 104.95595 
L 43.434383 84.231125 
L 43.488742 54.288112 
L 43.543101 79.725345 
L 43.59746 74.31199 
L 43.651819 50.822983 
L 43.760536 91.457972 
L 43.814895 62.74928 
L 43.869254 80.029536 
L 43.923613 93.681241 
L 43.977972 76.272699 
L 44.032331 95.904437 
L 44.08669 76.342556 
L 44.195408 80.792343 
L 44.249767 56.470671 
L 44.304126 78.871769 
L 44.358485 60.109944 
L 44.412844 72.438843 
L 44.57592 95.426202 
L 44.738997 75.336517 
L 44.793356 66.662844 
L 44.847715 72.668885 
L 44.956433 81.577443 
L 45.010792 72.786166 
L 45.065151 84.646062 
L 45.11951 79.574214 
L 45.173869 63.229004 
L 45.336945 102.975959 
L 45.500022 56.026059 
L 45.554381 59.713789 
L 45.60874 55.325596 
L 45.663099 59.548101 
L 45.771817 89.799518 
L 45.826176 58.41555 
L 45.880535 73.406213 
L 45.934894 90.081511 
L 45.989253 83.847534 
L 46.152329 56.335568 
L 46.315406 79.943389 
L 46.369765 88.743762 
L 46.424124 72.726044 
L 46.478483 86.719616 
L 46.587201 58.646898 
L 46.64156 72.789843 
L 46.695919 82.569811 
L 46.750278 65.365381 
L 46.804636 68.327144 
L 46.858995 103.681811 
L 46.967713 36.331104 
L 47.022072 49.481624 
L 47.13079 103.449236 
L 47.185149 59.617082 
L 47.239508 71.558 
L 47.293867 70.894995 
L 47.348226 78.289209 
L 47.402585 67.414102 
L 47.456944 89.917256 
L 47.511303 84.829213 
L 47.565662 54.493926 
L 47.62002 60.59314 
L 47.674379 63.566095 
L 47.728738 93.625549 
L 47.783097 54.161008 
L 47.837456 79.33576 
L 47.891815 67.471916 
L 47.946174 70.975093 
L 48.000533 93.386983 
L 48.054892 76.639519 
L 48.109251 56.809066 
L 48.16361 70.764144 
L 48.217969 79.686593 
L 48.272328 73.270504 
L 48.326687 65.337978 
L 48.381045 88.460845 
L 48.435404 54.681018 
L 48.489763 75.524608 
L 48.544122 75.827245 
L 48.598481 67.092463 
L 48.65284 79.339456 
L 48.707199 68.895164 
L 48.761558 56.317544 
L 48.978994 104.58463 
L 49.087712 72.974141 
L 49.14207 80.997954 
L 49.196429 66.590291 
L 49.250788 66.983265 
L 49.305147 73.848835 
L 49.359506 63.683897 
L 49.413865 75.963486 
L 49.576942 54.211468 
L 49.631301 85.058779 
L 49.68566 74.699518 
L 49.740019 56.900811 
L 49.794378 65.009783 
L 49.848737 65.130931 
L 49.903095 82.656364 
L 49.957454 77.036903 
L 50.011813 58.719759 
L 50.066172 114.416476 
L 50.229249 48.929778 
L 50.392326 85.658507 
L 50.555403 64.920203 
L 50.609762 58.498096 
L 50.718479 90.104332 
L 50.772838 59.578686 
L 50.827197 64.105856 
L 50.881556 66.548964 
L 51.044633 92.487188 
L 51.20771 56.723819 
L 51.262069 92.34484 
L 51.316428 75.127724 
L 51.425145 58.298152 
L 51.479504 71.921988 
L 51.533863 57.357687 
L 51.588222 77.573312 
L 51.642581 48.749643 
L 51.69694 69.258699 
L 51.751299 80.927785 
L 51.805658 70.854437 
L 51.860017 67.540235 
L 51.914376 68.491019 
L 51.968735 85.203425 
L 52.023094 80.248375 
L 52.077453 77.006126 
L 52.131812 64.629399 
L 52.18617 74.972721 
L 52.240529 99.240499 
L 52.294888 75.561992 
L 52.349247 80.919672 
L 52.403606 78.711085 
L 52.457965 71.777265 
L 52.512324 85.91902 
L 52.566683 73.748906 
L 52.621042 76.903101 
L 52.675401 51.144732 
L 52.838478 93.39712 
L 52.892837 89.365377 
L 53.001554 66.929383 
L 53.055913 97.32527 
L 53.110272 67.241714 
L 53.164631 80.666479 
L 53.21899 65.594846 
L 53.273349 77.39298 
L 53.382067 50.365806 
L 53.436426 73.075955 
L 53.490785 55.620457 
L 53.599503 69.094508 
L 53.653862 65.732597 
L 53.70822 82.097377 
L 53.762579 68.598933 
L 53.871297 58.492865 
L 53.925656 91.928865 
L 53.980015 74.987334 
L 54.034374 83.290109 
L 54.197451 54.438731 
L 54.360528 88.558416 
L 54.414887 66.413959 
L 54.469245 71.023322 
L 54.523604 69.451462 
L 54.632322 77.27501 
L 54.686681 41.454902 
L 54.74104 77.842585 
L 54.795399 72.359305 
L 54.849758 74.179069 
L 54.904117 43.214849 
L 55.012835 103.671782 
L 55.067194 94.974337 
L 55.175912 67.996132 
L 55.284629 100.82068 
L 55.447706 70.716492 
L 55.502065 83.259598 
L 55.556424 67.016051 
L 55.610783 96.674612 
L 55.665142 88.664258 
L 55.719501 60.266181 
L 55.77386 72.455228 
L 55.828219 74.315663 
L 55.882578 81.192933 
L 55.936937 53.082691 
L 55.991295 81.124225 
L 56.154372 29.703436 
L 56.317449 85.691868 
L 56.480526 56.419247 
L 56.589244 98.238164 
L 56.643603 89.056075 
L 56.697962 88.865395 
L 56.806679 73.821592 
L 56.861038 97.269884 
L 56.915397 77.626464 
L 56.969756 64.41808 
L 57.024115 71.612583 
L 57.078474 73.60535 
L 57.132833 100.143145 
L 57.241551 61.214153 
L 57.350269 88.317779 
L 57.404628 70.485939 
L 57.458987 103.907275 
L 57.513345 83.722921 
L 57.567704 83.54918 
L 57.676422 75.464817 
L 57.730781 99.837763 
L 57.78514 81.397976 
L 57.839499 78.66534 
L 57.893858 81.023845 
L 57.948217 80.969572 
L 58.002576 65.148938 
L 58.056935 76.342689 
L 58.111294 87.320752 
L 58.27437 55.425905 
L 58.383088 90.565194 
L 58.491806 49.801279 
L 58.546165 95.552814 
L 58.600524 66.828512 
L 58.654883 76.032482 
L 58.81796 34.1682 
L 58.981037 77.37205 
L 59.035395 74.541591 
L 59.089754 96.16909 
L 59.252831 58.031795 
L 59.30719 60.370533 
L 59.415908 76.689287 
L 59.578985 63.244715 
L 59.633344 65.658122 
L 59.687703 73.667835 
L 59.742062 50.299352 
L 59.79642 57.578809 
L 59.850779 71.153662 
L 59.905138 55.880623 
L 59.959497 61.733629 
L 60.013856 76.521077 
L 60.068215 48.252476 
L 60.122574 75.485263 
L 60.176933 67.981703 
L 60.231292 79.222945 
L 60.285651 54.675434 
L 60.34001 55.298534 
L 60.448728 82.866811 
L 60.503087 67.525322 
L 60.557445 71.302824 
L 60.720522 85.082737 
L 60.774881 85.241968 
L 60.82924 100.147651 
L 60.883599 67.924157 
L 60.937958 87.465869 
L 60.992317 90.180153 
L 61.046676 75.0934 
L 61.101035 78.622247 
L 61.155394 77.082181 
L 61.209753 79.230961 
L 61.264112 64.673065 
L 61.31847 80.356812 
L 61.372829 50.450838 
L 61.427188 68.474318 
L 61.481547 68.465488 
L 61.535906 80.19804 
L 61.590265 75.816058 
L 61.698983 55.517905 
L 61.753342 64.114639 
L 61.807701 52.763761 
L 61.916419 91.682439 
L 61.970778 89.765871 
L 62.025137 57.566232 
L 62.079495 63.220572 
L 62.133854 62.327481 
L 62.242572 86.944295 
L 62.296931 62.526841 
L 62.35129 80.667289 
L 62.405649 75.054487 
L 62.460008 53.387711 
L 62.514367 75.993156 
L 62.568726 71.232511 
L 62.623085 87.707423 
L 62.677444 71.608395 
L 62.786162 86.640487 
L 62.894879 36.607941 
L 62.949238 67.767074 
L 63.003597 59.543563 
L 63.057956 88.806403 
L 63.112315 75.414987 
L 63.166674 52.803775 
L 63.221033 70.073012 
L 63.275392 58.623645 
L 63.329751 63.861035 
L 63.38411 92.624068 
L 63.438469 60.785924 
L 63.492828 81.92171 
L 63.601545 64.10217 
L 63.655904 71.262674 
L 63.710263 91.210801 
L 63.764622 52.243403 
L 63.818981 72.23201 
L 63.87334 72.997992 
L 63.927699 60.977254 
L 63.982058 69.799702 
L 64.090776 78.152348 
L 64.145135 74.435074 
L 64.199494 59.606794 
L 64.253853 85.547758 
L 64.308212 70.090648 
L 64.362571 69.044386 
L 64.416929 77.443836 
L 64.471288 103.354954 
L 64.525647 55.090547 
L 64.580006 83.772727 
L 64.634365 68.35791 
L 64.797442 93.883564 
L 64.960519 55.482768 
L 65.014878 99.388902 
L 65.069237 94.66022 
L 65.123596 69.804627 
L 65.177954 77.664584 
L 65.39539 58.407047 
L 65.558467 90.822774 
L 65.721544 52.899926 
L 65.830262 94.674747 
L 65.884621 56.232746 
L 65.938979 79.306131 
L 65.993338 58.633897 
L 66.047697 88.505507 
L 66.102056 60.127937 
L 66.156415 82.813921 
L 66.210774 59.054789 
L 66.265133 98.574977 
L 66.319492 69.352735 
L 66.482569 78.950796 
L 66.536928 66.459254 
L 66.591287 97.56891 
L 66.645646 97.551177 
L 66.754363 50.730491 
L 66.808722 93.112212 
L 66.863081 54.742754 
L 66.91744 59.753037 
L 66.971799 88.400699 
L 67.026158 71.664924 
L 67.189235 58.972966 
L 67.406671 93.455698 
L 67.569747 64.073918 
L 67.624106 58.295501 
L 67.678465 85.532845 
L 67.732824 57.26201 
L 67.787183 45.865843 
L 67.841542 72.070426 
L 67.95026 71.603704 
L 68.004619 60.983111 
L 68.058978 76.492951 
L 68.167696 50.128778 
L 68.276413 85.32265 
L 68.43949 47.451376 
L 68.493849 85.218175 
L 68.548208 73.395624 
L 68.656926 70.568339 
L 68.711285 78.811046 
L 68.928721 40.377959 
L 69.146156 86.415344 
L 69.200515 62.161579 
L 69.254874 64.121738 
L 69.363592 71.4747 
L 69.47231 64.751633 
L 69.526669 74.758133 
L 69.581028 59.514101 
L 69.635387 97.442234 
L 69.689746 88.737296 
L 69.744104 38.85031 
L 69.798463 89.529586 
L 69.852822 56.207478 
L 69.907181 88.163725 
L 69.96154 91.672039 
L 70.124617 61.069555 
L 70.178976 87.726777 
L 70.233335 72.726045 
L 70.287694 69.301578 
L 70.396412 83.434284 
L 70.450771 79.594869 
L 70.559488 48.400653 
L 70.722565 82.63938 
L 70.776924 91.933339 
L 70.831283 78.35124 
L 70.885642 91.753886 
L 70.940001 88.611379 
L 70.99436 55.341556 
L 71.048719 70.726244 
L 71.103078 64.138035 
L 71.157437 89.539585 
L 71.211796 75.439331 
L 71.266154 77.587449 
L 71.320513 84.442333 
L 71.374872 45.680611 
L 71.429231 67.426579 
L 71.48359 75.18844 
L 71.537949 60.907757 
L 71.592308 89.42896 
L 71.646667 67.777667 
L 71.701026 80.948366 
L 71.755385 69.047119 
L 71.809744 57.57545 
L 71.864103 62.709301 
L 71.918462 62.068779 
L 71.972821 99.668602 
L 72.027179 86.635062 
L 72.081538 73.421705 
L 72.190256 101.33542 
L 72.244615 69.912302 
L 72.298974 74.792399 
L 72.353333 84.665832 
L 72.51641 71.634186 
L 72.570769 78.777971 
L 72.625128 74.665558 
L 72.679487 49.684447 
L 72.733846 69.459273 
L 72.788204 57.658779 
L 72.842563 62.733495 
L 73.00564 95.281293 
L 73.059999 66.783215 
L 73.114358 74.247002 
L 73.168717 74.387654 
L 73.223076 52.488088 
L 73.277435 82.125891 
L 73.331794 73.378115 
L 73.386153 51.988313 
L 73.440512 72.775438 
L 73.494871 79.241604 
L 73.549229 72.430052 
L 73.603588 90.30752 
L 73.657947 76.911126 
L 73.712306 63.274735 
L 73.766665 73.005931 
L 73.821024 77.722742 
L 73.875383 98.323746 
L 73.984101 51.59153 
L 74.03846 55.209072 
L 74.092819 80.040837 
L 74.147178 71.109262 
L 74.201537 67.12749 
L 74.310254 86.670848 
L 74.364613 82.671313 
L 74.418972 72.649767 
L 74.473331 76.927428 
L 74.52769 85.082454 
L 74.636408 69.870217 
L 74.690767 70.72278 
L 74.745126 103.540023 
L 74.799485 91.33363 
L 74.853844 86.222654 
L 74.908203 69.349896 
L 74.962562 96.205125 
L 75.125638 59.278989 
L 75.179997 65.869949 
L 75.234356 46.508438 
L 75.343074 84.280138 
L 75.397433 74.064174 
L 75.451792 82.3969 
L 75.506151 60.375796 
L 75.56051 71.033696 
L 75.614869 66.591908 
L 75.723587 88.862288 
L 75.777946 80.745143 
L 75.832304 54.466711 
L 75.886663 73.53514 
L 75.941022 97.100045 
L 76.104099 37.367631 
L 76.267176 73.163941 
L 76.375894 81.070465 
L 76.430253 72.08007 
L 76.484612 86.90774 
L 76.538971 76.93386 
L 76.593329 84.342829 
L 76.647688 79.071863 
L 76.702047 62.363397 
L 76.756406 74.072054 
L 76.810765 81.771578 
L 76.973842 66.936005 
L 77.08256 94.100715 
L 77.136919 90.049711 
L 77.191278 66.925922 
L 77.245637 88.915628 
L 77.299996 79.322675 
L 77.354354 34.646944 
L 77.408713 70.919231 
L 77.463072 79.17239 
L 77.517431 73.862844 
L 77.57179 46.380557 
L 77.626149 84.304428 
L 77.680508 81.197541 
L 77.789226 58.343708 
L 77.843585 74.409007 
L 77.897944 74.922133 
L 77.952303 73.70072 
L 78.061021 55.42879 
L 78.115379 73.383576 
L 78.169738 51.102968 
L 78.224097 68.943262 
L 78.278456 57.658269 
L 78.332815 82.916964 
L 78.387174 71.229113 
L 78.441533 56.057397 
L 78.495892 60.867502 
L 78.60461 89.047144 
L 78.658969 57.261876 
L 78.713328 71.105604 
L 78.767687 87.453719 
L 78.822046 72.20648 
L 78.876404 63.951054 
L 78.930763 77.266655 
L 78.985122 70.610168 
L 79.039481 70.447008 
L 79.148199 88.064572 
L 79.256917 48.11043 
L 79.311276 68.192941 
L 79.365635 64.333665 
L 79.419994 57.871914 
L 79.583071 84.332051 
L 79.637429 59.698338 
L 79.691788 71.52859 
L 79.746147 78.585302 
L 79.800506 45.592906 
L 79.854865 69.59313 
L 79.909224 85.525488 
L 79.963583 64.945315 
L 80.017942 74.781157 
L 80.072301 96.509417 
L 80.12666 56.530734 
L 80.181019 71.512882 
L 80.235378 71.29398 
L 80.289737 76.481948 
L 80.344096 58.31175 
L 80.398455 99.021077 
L 80.452813 77.065248 
L 80.507172 92.598081 
L 80.61589 53.256373 
L 80.670249 91.673855 
L 80.724608 90.773489 
L 80.778967 52.992823 
L 80.833326 86.804193 
L 80.887685 55.954638 
L 80.942044 75.084048 
L 81.105121 59.279609 
L 81.15948 77.934029 
L 81.213838 74.749429 
L 81.268197 71.049271 
L 81.322556 84.724361 
L 81.376915 44.310933 
L 81.431274 57.157843 
L 81.485633 83.472809 
L 81.539992 77.353254 
L 81.594351 59.520624 
L 81.64871 74.720864 
L 81.703069 66.872235 
L 81.757428 71.504801 
L 81.811787 90.818179 
L 81.866146 88.092322 
L 81.920505 89.457509 
L 81.974863 71.207463 
L 82.029222 95.584098 
L 82.083581 76.121909 
L 82.246658 56.143552 
L 82.409735 86.309988 
L 82.464094 59.306031 
L 82.518453 77.532464 
L 82.68153 64.563684 
L 82.844606 85.051369 
L 82.953324 56.629059 
L 83.007683 65.104578 
L 83.062042 53.572546 
L 83.225119 86.399643 
L 83.333837 65.301809 
L 83.388196 81.630051 
L 83.442555 62.679868 
L 83.496913 88.977727 
L 83.551272 53.606737 
L 83.605631 81.59076 
L 83.65999 59.711393 
L 83.714349 83.286578 
L 83.877426 45.730342 
L 84.040503 87.44501 
L 84.094862 93.308475 
L 84.257938 59.510215 
L 84.312297 71.591375 
L 84.366656 71.411998 
L 84.529733 59.442273 
L 84.638451 85.24043 
L 84.747169 79.3765 
L 84.801528 79.232318 
L 84.910246 69.477051 
L 84.964605 84.846803 
L 85.073322 62.536539 
L 85.18204 95.031617 
L 85.290758 42.458054 
L 85.345117 94.581775 
L 85.399476 93.673906 
L 85.562553 64.455377 
L 85.616912 77.381067 
L 85.671271 67.439796 
L 85.72563 48.242914 
L 85.779988 67.202013 
L 85.997424 70.485456 
L 86.051783 66.581146 
L 86.106142 71.208147 
L 86.160501 64.774854 
L 86.21486 102.748668 
L 86.269219 77.274471 
L 86.377937 60.31159 
L 86.432296 68.044088 
L 86.486655 76.916263 
L 86.541013 69.484472 
L 86.649731 77.707156 
L 86.812808 52.652968 
L 86.921526 78.539266 
L 86.975885 55.418692 
L 87.030244 63.270701 
L 87.193321 73.344751 
L 87.24768 55.448224 
L 87.302038 56.873092 
L 87.356397 88.812268 
L 87.410756 70.406803 
L 87.465115 64.290915 
L 87.519474 88.454647 
L 87.573833 57.518601 
L 87.628192 70.022939 
L 87.791269 85.928821 
L 87.845628 54.7636 
L 87.899987 61.490934 
L 88.008705 73.963318 
L 88.063063 68.246686 
L 88.117422 78.16886 
L 88.171781 50.671255 
L 88.22614 53.565703 
L 88.280499 90.056759 
L 88.334858 60.320604 
L 88.389217 82.119119 
L 88.443576 61.056773 
L 88.497935 68.296981 
L 88.552294 98.441632 
L 88.606653 95.150874 
L 88.715371 60.563036 
L 88.76973 79.433526 
L 88.824088 61.044789 
L 88.987165 82.675211 
L 89.041524 65.038586 
L 89.095883 87.260773 
L 89.313319 39.448525 
L 89.367678 86.404944 
L 89.422037 64.293207 
L 89.476396 81.105973 
L 89.530755 57.689955 
L 89.585113 71.619964 
L 89.693831 92.806701 
L 89.74819 60.566655 
L 89.802549 73.1491 
L 89.856908 89.132261 
L 89.911267 34.165378 
L 89.965626 75.914111 
L 90.019985 94.512626 
L 90.128703 55.516647 
L 90.183062 70.438582 
L 90.346138 94.290649 
L 90.400497 60.679427 
L 90.454856 77.508474 
L 90.509215 76.009922 
L 90.563574 84.261449 
L 90.617933 70.632321 
L 90.672292 75.482719 
L 90.726651 83.309606 
L 90.78101 107.517562 
L 90.835369 65.173715 
L 90.889728 66.477936 
L 90.944087 91.373021 
L 90.998446 55.975906 
L 91.052805 74.565499 
L 91.107163 70.666339 
L 91.161522 72.051612 
L 91.215881 89.070041 
L 91.27024 72.479094 
L 91.324599 82.950039 
L 91.433317 58.176276 
L 91.487676 63.767625 
L 91.542035 104.075638 
L 91.596394 65.764715 
L 91.650753 64.940808 
L 91.705112 66.490829 
L 91.759471 56.379842 
L 91.81383 86.81154 
L 91.868188 74.198053 
L 91.922547 78.748142 
L 92.085624 55.878427 
L 92.139983 76.294043 
L 92.194342 65.944655 
L 92.248701 63.293036 
L 92.411778 91.042474 
L 92.466137 81.864182 
L 92.629213 63.099125 
L 92.737931 75.348243 
L 92.79229 61.366094 
L 92.846649 63.385786 
L 92.901008 66.713389 
L 93.009726 95.276749 
L 93.064085 71.778309 
L 93.118444 74.983453 
L 93.172803 85.813109 
L 93.227162 74.064192 
L 93.281521 96.143094 
L 93.390238 63.641981 
L 93.498956 73.605461 
L 93.553315 70.849886 
L 93.607674 86.783368 
L 93.662033 75.984902 
L 93.716392 61.914572 
L 93.770751 69.0867 
L 93.82511 67.798194 
L 93.879469 73.117249 
L 93.933828 40.874844 
L 93.988187 72.139609 
L 94.042546 87.429773 
L 94.096905 63.77347 
L 94.151263 79.716069 
L 94.31434 54.666754 
L 94.368699 85.591404 
L 94.423058 68.259467 
L 94.477417 47.917804 
L 94.531776 61.245978 
L 94.586135 77.758551 
L 94.640494 58.711899 
L 94.694853 106.334721 
L 94.749212 69.917225 
L 94.803571 59.704327 
L 94.966647 75.695995 
L 95.021006 78.329386 
L 95.129724 50.61832 
L 95.238442 74.453966 
L 95.292801 73.61475 
L 95.34716 54.744428 
L 95.401519 106.001318 
L 95.455878 79.875906 
L 95.510237 66.087731 
L 95.564596 75.736556 
L 95.618955 72.591288 
L 95.782031 41.297619 
L 95.83639 73.333336 
L 95.890749 63.544581 
L 95.945108 63.019011 
L 95.999467 79.465209 
L 96.053826 73.806008 
L 96.108185 60.923076 
L 96.162544 115.387205 
L 96.216903 39.87317 
L 96.271262 88.629553 
L 96.325621 85.967723 
L 96.37998 100.40879 
L 96.434338 66.995698 
L 96.488697 82.974628 
L 96.543056 90.206602 
L 96.651774 58.783667 
L 96.706133 62.89253 
L 96.760492 66.009462 
L 96.814851 78.985 
L 96.86921 58.586387 
L 96.923569 63.603032 
L 97.086646 74.456281 
L 97.141005 68.381605 
L 97.304081 92.600102 
L 97.35844 75.45418 
L 97.412799 88.72498 
L 97.467158 81.270911 
L 97.521517 91.769744 
L 97.575876 71.328082 
L 97.630235 82.787444 
L 97.684594 82.681317 
L 97.793312 66.318856 
L 97.847671 71.877781 
L 97.90203 68.251411 
L 97.956389 91.866117 
L 98.119465 62.273439 
L 98.173824 67.866573 
L 98.228183 91.724173 
L 98.282542 70.882834 
L 98.336901 74.103106 
L 98.39126 72.582284 
L 98.445619 63.603456 
L 98.499978 70.141974 
L 98.554337 69.9174 
L 98.608696 88.040353 
L 98.717414 57.847202 
L 98.771772 61.722294 
L 98.826131 75.409682 
L 98.88049 62.560644 
L 98.934849 53.314503 
L 99.097926 76.149079 
L 99.315362 53.248873 
L 99.369721 97.459645 
L 99.42408 48.474645 
L 99.478439 87.971298 
L 99.532797 58.979111 
L 99.587156 67.926361 
L 99.641515 66.202878 
L 99.695874 78.068257 
L 99.858951 51.935422 
L 99.91331 92.278252 
L 99.967669 32.816631 
L 100.022028 62.545913 
L 100.185105 87.649159 
L 100.293822 59.898129 
L 100.348181 69.709459 
L 100.40254 66.241582 
L 100.456899 73.127298 
L 100.511258 62.665359 
L 100.565617 75.090547 
L 100.619976 64.723746 
L 100.674335 57.297665 
L 100.728694 84.659955 
L 100.783053 73.840447 
L 100.837412 68.099782 
L 100.891771 79.480701 
L 100.94613 53.779768 
L 101.000489 75.570664 
L 101.054847 63.100322 
L 101.109206 86.105885 
L 101.272283 58.900109 
L 101.43536 84.037995 
L 101.489719 86.435289 
L 101.544078 83.140837 
L 101.598437 85.179306 
L 101.652796 91.742002 
L 101.707155 44.430178 
L 101.761514 110.272194 
L 101.815872 68.989527 
L 101.978949 58.083987 
L 102.142026 83.558274 
L 102.196385 80.238268 
L 102.250744 82.639601 
L 102.305103 62.601466 
L 102.359462 78.632011 
L 102.46818 72.845981 
L 102.522539 72.88013 
L 102.576897 79.7345 
L 102.631256 76.86176 
L 102.685615 66.08991 
L 102.739974 92.98844 
L 102.794333 64.239179 
L 102.848692 88.826085 
L 103.011769 49.689452 
L 103.066128 88.885703 
L 103.120487 58.099953 
L 103.392281 121.62666 
L 103.500999 54.806251 
L 103.555358 55.422824 
L 103.609717 85.531989 
L 103.664076 85.076472 
L 103.827153 63.256021 
L 103.881512 91.336095 
L 103.935871 86.957205 
L 103.99023 85.879406 
L 104.044589 42.188717 
L 104.098947 90.731762 
L 104.153306 78.854897 
L 104.207665 86.695598 
L 104.262024 86.025757 
L 104.316383 85.19839 
L 104.370742 88.377542 
L 104.47946 45.918589 
L 104.533819 82.492622 
L 104.588178 40.209852 
L 104.642537 80.806355 
L 104.805614 43.939108 
L 104.96869 94.398091 
L 105.023049 70.870341 
L 105.077408 85.562943 
L 105.131767 88.944686 
L 105.186126 86.40523 
L 105.240485 86.927711 
L 105.294844 60.420574 
L 105.349203 90.547288 
L 105.403562 72.26107 
L 105.457921 70.751254 
L 105.51228 97.418636 
L 105.566639 76.957075 
L 105.675356 83.81072 
L 105.784074 45.831143 
L 105.838433 51.383851 
L 105.892792 57.21611 
L 105.947151 93.090866 
L 106.00151 56.500107 
L 106.110228 82.07619 
L 106.218946 63.919213 
L 106.273305 82.71475 
L 106.327664 66.902805 
L 106.49074 30.290927 
L 106.599458 98.992861 
L 106.653817 88.014786 
L 106.762535 54.890034 
L 106.871253 103.875734 
L 106.925612 65.235007 
L 106.979971 76.679024 
L 107.088689 104.878241 
L 107.143047 58.458489 
L 107.251765 59.85426 
L 107.360483 92.770044 
L 107.469201 61.527188 
L 107.52356 88.893682 
L 107.577919 63.728912 
L 107.632278 58.391887 
L 107.740996 84.143361 
L 107.795355 34.664543 
L 107.849714 76.153408 
L 107.904072 54.694138 
L 107.958431 79.293162 
L 108.01279 64.749561 
L 108.121508 101.076478 
L 108.175867 61.366573 
L 108.230226 84.980359 
L 108.284585 94.271981 
L 108.338944 86.407864 
L 108.55638 62.866401 
L 108.610739 80.795276 
L 108.665097 73.797063 
L 108.773815 67.275269 
L 108.828174 43.740852 
L 108.882533 64.817941 
L 108.936892 88.077822 
L 108.991251 69.52608 
L 109.04561 72.297398 
L 109.099969 90.42024 
L 109.154328 89.996878 
L 109.263046 61.893944 
L 109.426122 100.41686 
L 109.480481 50.618393 
L 109.53484 56.961345 
L 109.643558 63.110441 
L 109.752276 95.658502 
L 109.806635 31.996956 
L 109.860994 85.029483 
L 110.024071 32.912796 
L 110.132789 83.667492 
L 110.295865 48.574665 
L 110.350224 102.386812 
L 110.404583 66.237905 
L 110.622019 90.920471 
L 110.676378 84.053491 
L 110.730737 102.869826 
L 110.839455 61.414007 
L 111.002531 92.770755 
L 111.219967 65.476724 
L 111.274326 65.800981 
L 111.328685 58.048149 
L 111.383044 80.209652 
L 111.437403 59.587572 
L 111.491762 61.095053 
L 111.546121 85.056174 
L 111.60048 62.460763 
L 111.654839 67.73931 
L 111.709197 100.409047 
L 111.763556 71.819783 
L 111.817915 66.652362 
L 111.926633 90.970404 
L 112.08971 67.00728 
L 112.144069 90.859704 
L 112.198428 55.18498 
L 112.252787 74.853225 
L 112.361505 96.989163 
L 112.415864 68.767491 
L 112.57894 110.019318 
L 112.633299 60.219417 
L 112.687658 60.993222 
L 112.850735 99.46778 
L 113.013812 64.37613 
L 113.068171 79.2307 
L 113.12253 64.415733 
L 113.176889 58.290883 
L 113.231248 61.691031 
L 113.285606 80.321 
L 113.339965 58.592272 
L 113.503042 114.011891 
L 113.557401 68.356393 
L 113.61176 93.709481 
L 113.666119 86.510607 
L 113.720478 91.480625 
L 113.774837 50.841957 
L 113.829196 80.204895 
L 113.883555 82.403843 
L 113.937914 62.889088 
L 113.992273 70.418849 
L 114.046631 91.856957 
L 114.209708 53.674816 
L 114.264067 82.400545 
L 114.318426 66.316077 
L 114.372785 44.144 
L 114.427144 49.76519 
L 114.481503 83.941784 
L 114.535862 69.171626 
L 114.590221 69.767555 
L 114.64458 74.845704 
L 114.753298 62.503434 
L 114.807656 78.724418 
L 114.862015 57.628424 
L 114.916374 89.385398 
L 115.079451 47.665501 
L 115.13381 78.829479 
L 115.188169 61.152592 
L 115.242528 60.758781 
L 115.296887 64.656303 
L 115.459964 38.489443 
L 115.677399 78.189291 
L 115.731758 74.480939 
L 115.786117 86.00819 
L 115.840476 61.9113 
L 115.894835 68.728498 
L 115.949194 80.053152 
L 116.003553 56.12708 
L 116.057912 92.376688 
L 116.112271 68.718594 
L 116.16663 64.288838 
L 116.275348 91.972011 
L 116.384065 60.904845 
L 116.438424 87.05712 
L 116.492783 45.025575 
L 116.547142 65.05881 
L 116.601501 64.028417 
L 116.65586 68.822081 
L 116.710219 65.339383 
L 116.764578 95.644835 
L 116.818937 67.224394 
L 116.873296 65.541218 
L 116.982014 44.681102 
L 117.14509 84.826522 
L 117.199449 79.359485 
L 117.253808 80.763876 
L 117.308167 46.367888 
L 117.362526 61.359177 
L 117.416885 92.734599 
L 117.471244 49.152002 
L 117.525603 72.90846 
L 117.579962 96.125266 
L 117.634321 42.04774 
L 117.68868 77.35724 
L 117.743039 80.059947 
L 117.797398 34.614319 
L 117.851756 40.334373 
L 117.906115 84.693291 
L 117.960474 81.363327 
L 118.014833 71.853536 
L 118.069192 92.012968 
L 118.123551 88.587355 
L 118.17791 50.120168 
L 118.232269 50.222941 
L 118.286628 79.6786 
L 118.395346 79.64859 
L 118.449705 60.025093 
L 118.504064 127.636364 
L 118.558423 70.367706 
L 118.612781 93.760199 
L 118.66714 88.537925 
L 118.721499 55.795398 
L 118.775858 99.223403 
L 118.830217 61.952786 
L 118.993294 90.25961 
L 119.156371 66.755817 
L 119.21073 53.752529 
L 119.265089 88.778504 
L 119.319448 44.887556 
L 119.373806 62.099755 
L 119.482524 95.514755 
L 119.536883 62.207041 
L 119.591242 80.709805 
L 119.69996 49.779451 
L 119.917396 101.409487 
L 119.971755 51.585383 
L 120.026114 72.152136 
L 120.080473 60.202899 
L 120.243549 95.087767 
L 120.352267 95.896653 
L 120.406626 57.706975 
L 120.515344 110.69913 
L 120.569703 48.395776 
L 120.624062 63.479186 
L 120.678421 68.558908 
L 120.73278 56.407242 
L 120.787139 87.273114 
L 120.841498 40.933524 
L 120.895856 52.75052 
L 120.950215 72.859904 
L 121.004574 69.282536 
L 121.113292 72.258571 
L 121.167651 64.659453 
L 121.330728 75.726034 
L 121.385087 55.018838 
L 121.439446 114.370713 
L 121.493805 73.233466 
L 121.602523 88.662749 
L 121.656881 78.24504 
L 121.71124 92.742666 
L 121.874317 46.179087 
L 122.091753 98.449723 
L 122.146112 42.41124 
L 122.200471 89.825109 
L 122.363548 50.567212 
L 122.417906 78.643151 
L 122.472265 48.322843 
L 122.526624 51.411512 
L 122.580983 68.402936 
L 122.635342 62.169862 
L 122.689701 62.523508 
L 122.74406 57.136731 
L 122.798419 37.105968 
L 122.852778 97.815675 
L 122.907137 75.042352 
L 122.961496 64.020456 
L 123.015855 97.50763 
L 123.070214 76.494191 
L 123.124573 53.611023 
L 123.178931 81.695584 
L 123.23329 70.105793 
L 123.287649 65.07375 
L 123.450726 106.727016 
L 123.559444 47.010651 
L 123.613803 75.030087 
L 123.722521 78.261126 
L 123.885598 42.940334 
L 123.939956 50.481339 
L 124.103033 108.633236 
L 124.157392 97.50521 
L 124.26611 46.60876 
L 124.320469 78.144202 
L 124.374828 89.838549 
L 124.537905 53.677975 
L 124.592264 94.303504 
L 124.646623 80.125166 
L 124.75534 33.666835 
L 124.809699 81.983241 
L 124.864058 50.199589 
L 124.972776 91.54682 
L 125.027135 77.44242 
L 125.190212 59.686699 
L 125.244571 62.76382 
L 125.407648 92.746613 
L 125.462006 47.971906 
L 125.516365 79.262072 
L 125.625083 55.184274 
L 125.78816 81.71397 
L 125.842519 82.029291 
L 126.005596 61.385519 
L 126.223031 88.221759 
L 126.331749 49.501813 
L 126.386108 89.864788 
L 126.440467 89.699026 
L 126.494826 45.219435 
L 126.549185 81.523543 
L 126.603544 67.619905 
L 126.657903 88.104534 
L 126.712262 46.87619 
L 126.766621 73.396797 
L 126.82098 64.845001 
L 126.875339 92.731527 
L 126.984056 92.156862 
L 127.147133 51.461497 
L 127.201492 79.052245 
L 127.255851 78.836583 
L 127.31021 66.502947 
L 127.364569 106.007538 
L 127.418928 86.583338 
L 127.527646 45.012899 
L 127.582005 99.711896 
L 127.636364 57.850532 
" clip-path="url(#pbe732b616d)" style="fill: none; stroke: #c6b784; stroke-width: 1.5; stroke-linecap: square"/>
   </g>
   <g id="patch_3">
    <path d="M 10.8 133.2 
L 10.8 10.8 
" style="fill: none; stroke: #000000; stroke-width: 0.8; stroke-linejoin: miter; stroke-linecap: square"/>
   </g>
   <g id="patch_4">
    <path d="M 133.2 133.2 
L 133.2 10.8 
" style="fill: none; stroke: #000000; stroke-width: 0.8; stroke-linejoin: miter; stroke-linecap: square"/>
   </g>
   <g id="patch_5">
    <path d="M 10.8 133.2 
L 133.2 133.2 
" style="fill: none; stroke: #000000; stroke-width: 0.8; stroke-linejoin: miter; stroke-linecap: square"/>
   </g>
   <g id="patch_6">
    <path d="M 10.8 10.8 
L 133.2 10.8 
" style="fill: none; stroke: #000000; stroke-width: 0.8; stroke-linejoin: miter; stroke-linecap: square"/>
   </g>
  </g>
 </g>
 <defs>
  <clipPath id="pbe732b616d">
   <rect x="10.8" y="10.8" width="122.4" height="122.4"/>
  </clipPath>
 </defs>
</svg>
