<?xml version="1.0" encoding="utf-8" standalone="no"?>
<!DOCTYPE svg PUBLIC "-//W3C//DTD SVG 1.1//EN"
  "http://www.w3.org/Graphics/SVG/1.1/DTD/svg11.dtd">
<svg xmlns:xlink="http://www.w3.org/1999/xlink" width="144pt" height="144pt" viewBox="0 0 144 144" xmlns="http://www.w3.org/2000/svg" version="1.1">
 <metadata>
  <rdf:RDF xmlns:dc="http://purl.org/dc/elements/1.1/" xmlns:cc="http://creativecommons.org/ns#" xmlns:rdf="http://www.w3.org/1999/02/22-rdf-syntax-ns#">
   <cc:Work>
    <dc:type rdf:resource="http://purl.org/dc/dcmitype/StillImage"/>
    <dc:date>2025-02-07T11:27:54.760525</dc:date>
    <dc:format>image/svg+xml</dc:format>
    <dc:creator>
     <cc:Agent>
      <dc:title>Matplotlib v3.8.0, https://matplotlib.org/</dc:title>
     </cc:Agent>
    </dc:creator>
   </cc:Work>
  </rdf:RDF>
 </metadata>
 <defs>
  <style type="text/css">*{stroke-linejoin: round; stroke-linecap: butt}</style>
 </defs>
 <g id="figure_1">
  <g id="patch_1">
   <path d="M 0 144 
L 144 144 
L 144 0 
L 0 0 
L 0 144 
z
" style="fill: none"/>
  </g>
  <g id="axes_1">
   <g id="patch_2">
    <path d="M 10.8 133.2 
L 133.2 133.2 
L 133.2 10.8 
L 10.8 10.8 
L 10.8 133.2 
z
" style="fill: none"/>
   </g>
   <g id="matplotlib.axis_1"/>
   <g id="matplotlib.axis_2"/>
   <g id="line2d_1">
    <path d="M 16.363636 89.179263 
L 16.417995 86.664653 
L 16.635431 64.669954 
L 16.68979 78.404523 
L 16.744149 71.036419 
L 16.798508 76.790193 
L 16.852867 41.981121 
L 16.961585 99.042773 
L 17.015944 93.87022 
L 17.233379 50.538718 
L 17.287738 106.240385 
L 17.342097 82.671739 
L 17.396456 79.885432 
L 17.505174 79.932727 
L 17.559533 59.247296 
L 17.613892 102.796256 
L 17.668251 93.877853 
L 17.831327 64.429647 
L 17.940045 91.534513 
L 17.994404 67.909669 
L 18.048763 69.852873 
L 18.103122 120.940492 
L 18.157481 64.630345 
L 18.21184 83.081391 
L 18.266199 91.461108 
L 18.320558 73.811832 
L 18.374917 89.730164 
L 18.592352 49.620725 
L 18.646711 84.129696 
L 18.70107 38.577651 
L 18.755429 82.547996 
L 18.809788 67.085421 
L 18.864147 71.487931 
L 18.972865 75.517442 
L 19.027224 53.773776 
L 19.190301 105.915322 
L 19.24466 58.782382 
L 19.299019 89.945025 
L 19.462095 43.419631 
L 19.570813 94.21064 
L 19.625172 77.416264 
L 19.679531 87.160024 
L 19.788249 78.757709 
L 19.951326 103.12954 
L 20.005685 84.807028 
L 20.060044 85.384605 
L 20.114402 100.935794 
L 20.168761 88.474386 
L 20.22312 74.185421 
L 20.331838 96.567354 
L 20.386197 92.294023 
L 20.549274 67.415937 
L 20.603633 52.479184 
L 20.657992 113.588865 
L 20.712351 104.460518 
L 20.821069 60.073176 
L 20.875427 95.845299 
L 20.929786 90.916271 
L 20.984145 84.033087 
L 21.038504 95.385223 
L 21.092863 65.970692 
L 21.147222 74.577228 
L 21.201581 67.577931 
L 21.25594 87.330792 
L 21.310299 67.397582 
L 21.364658 75.241233 
L 21.527735 106.416545 
L 21.582094 53.882691 
L 21.636452 71.269341 
L 21.74517 53.482084 
L 21.908247 89.407906 
L 21.962606 63.575735 
L 22.016965 67.594376 
L 22.071324 66.861303 
L 22.125683 104.209872 
L 22.180042 59.746092 
L 22.234401 62.440634 
L 22.28876 63.493191 
L 22.343119 48.291471 
L 22.506195 92.473442 
L 22.614913 57.319364 
L 22.723631 78.798333 
L 22.77799 74.007743 
L 22.832349 49.709454 
L 22.886708 97.664846 
L 22.941067 83.313387 
L 22.995426 66.711054 
L 23.158502 92.085505 
L 23.26722 56.746704 
L 23.321579 95.703852 
L 23.375938 82.382891 
L 23.430297 78.455347 
L 23.484656 45.355158 
L 23.539015 71.683954 
L 23.593374 77.913818 
L 23.647733 113.658146 
L 23.702092 71.217668 
L 23.756451 78.819236 
L 23.81081 84.209653 
L 23.865169 80.035625 
L 23.919527 83.900899 
L 23.973886 78.97926 
L 24.028245 63.763157 
L 24.191322 96.244399 
L 24.30004 63.227656 
L 24.354399 99.169011 
L 24.408758 47.430639 
L 24.463117 78.045854 
L 24.517476 67.028798 
L 24.571835 71.155711 
L 24.626194 117.178999 
L 24.78927 53.571657 
L 24.897988 88.97124 
L 24.952347 69.313065 
L 25.006706 93.087656 
L 25.115424 55.637762 
L 25.169783 107.450611 
L 25.224142 91.463619 
L 25.278501 87.456352 
L 25.33286 98.986319 
L 25.495936 64.274998 
L 25.550295 122.687368 
L 25.604654 94.223428 
L 25.82209 67.123994 
L 25.876449 83.377992 
L 25.930808 75.587375 
L 25.985167 81.400454 
L 26.039526 61.73223 
L 26.093885 76.084208 
L 26.148244 68.479671 
L 26.202602 71.102026 
L 26.31132 93.158433 
L 26.365679 84.169212 
L 26.474397 75.851231 
L 26.528756 95.570041 
L 26.637474 52.276716 
L 26.691833 108.680848 
L 26.746192 80.113017 
L 26.800551 50.031004 
L 26.909269 91.436118 
L 27.072345 64.022246 
L 27.126704 69.620957 
L 27.181063 95.721187 
L 27.235422 75.041466 
L 27.289781 52.846909 
L 27.34414 74.925974 
L 27.398499 92.756468 
L 27.452858 63.127252 
L 27.507217 83.815104 
L 27.561576 69.617563 
L 27.615935 79.719098 
L 27.670294 85.691131 
L 27.724652 64.456684 
L 27.779011 76.466609 
L 27.83337 93.605305 
L 27.887729 67.33806 
L 27.942088 87.272118 
L 27.996447 72.563996 
L 28.050806 90.70497 
L 28.105165 71.783164 
L 28.159524 86.673299 
L 28.213883 80.777581 
L 28.268242 50.906014 
L 28.322601 102.32852 
L 28.37696 53.320485 
L 28.594395 109.138809 
L 28.703113 105.196447 
L 28.757472 76.822745 
L 28.811831 92.14099 
L 28.920549 86.491711 
L 29.029267 90.971413 
L 29.083626 106.470893 
L 29.137985 84.786982 
L 29.192344 109.824864 
L 29.246702 70.724603 
L 29.301061 105.743223 
L 29.35542 114.213464 
L 29.518497 62.477457 
L 29.572856 93.939412 
L 29.627215 86.933275 
L 29.681574 81.903168 
L 29.735933 45.728488 
L 29.790292 98.369227 
L 29.844651 98.259589 
L 30.007727 62.744234 
L 30.116445 118.62126 
L 30.279522 62.530741 
L 30.333881 86.162275 
L 30.38824 72.295705 
L 30.442599 57.931587 
L 30.660035 93.208372 
L 30.714394 70.371006 
L 30.768752 76.944872 
L 30.823111 96.065487 
L 30.87747 79.063333 
L 30.931829 28.993322 
L 30.986188 58.237455 
L 31.094906 96.605557 
L 31.149265 66.097721 
L 31.203624 76.629511 
L 31.257983 71.925985 
L 31.312342 80.348494 
L 31.366701 64.389408 
L 31.529778 105.72639 
L 31.747213 51.403424 
L 31.855931 77.729913 
L 31.91029 59.857719 
L 31.964649 85.161565 
L 32.019008 49.983712 
L 32.073367 51.23455 
L 32.127726 90.936791 
L 32.182085 77.146861 
L 32.236444 52.916269 
L 32.290803 58.966716 
L 32.345161 87.906999 
L 32.39952 68.24654 
L 32.562597 97.927078 
L 32.616956 71.179555 
L 32.671315 122.592696 
L 32.725674 79.490259 
L 32.780033 82.21076 
L 32.834392 77.319125 
L 32.888751 90.709334 
L 32.94311 66.110254 
L 33.051828 105.657358 
L 33.106186 71.933884 
L 33.160545 90.083363 
L 33.214904 90.295172 
L 33.269263 89.723519 
L 33.323622 102.264156 
L 33.377981 58.891898 
L 33.43234 62.311747 
L 33.486699 63.53961 
L 33.649776 88.400161 
L 33.704135 89.616429 
L 33.92157 51.390059 
L 33.975929 90.294895 
L 34.030288 83.020534 
L 34.193365 93.37058 
L 34.247724 54.665685 
L 34.302083 81.520763 
L 34.356442 82.683581 
L 34.410801 79.123983 
L 34.46516 58.731937 
L 34.519519 92.47161 
L 34.573878 70.931497 
L 34.628236 69.115402 
L 34.682595 78.480898 
L 34.791313 50.561887 
L 34.95439 94.874035 
L 35.063108 57.633124 
L 35.226185 98.873346 
L 35.334903 61.628296 
L 35.389261 91.253912 
L 35.44362 83.999155 
L 35.552338 81.339693 
L 35.606697 84.907393 
L 35.769774 64.20636 
L 35.932851 89.8915 
L 35.98721 67.444425 
L 36.041569 91.017641 
L 36.095928 87.611123 
L 36.150286 88.890654 
L 36.204645 58.085204 
L 36.259004 75.373058 
L 36.313363 80.150221 
L 36.367722 60.553734 
L 36.530799 99.02365 
L 36.585158 57.585865 
L 36.639517 75.91574 
L 36.693876 109.55536 
L 36.748235 65.353876 
L 36.802594 82.88661 
L 36.856953 85.911094 
L 36.911311 76.129908 
L 36.96567 90.955294 
L 37.074388 61.957293 
L 37.128747 80.580772 
L 37.183106 78.819968 
L 37.237465 57.597558 
L 37.291824 68.041132 
L 37.454901 86.776574 
L 37.617978 62.417684 
L 37.672336 65.930271 
L 37.889772 105.266281 
L 37.944131 71.556685 
L 37.99849 86.827667 
L 38.052849 96.015718 
L 38.161567 56.759877 
L 38.270285 112.159261 
L 38.433361 65.376101 
L 38.48772 83.054163 
L 38.542079 71.834906 
L 38.596438 79.380685 
L 38.650797 76.356959 
L 38.705156 68.887193 
L 38.759515 95.817955 
L 38.813874 84.521656 
L 38.868233 84.241628 
L 38.922592 85.063055 
L 38.976951 108.256854 
L 39.03131 98.614192 
L 39.085669 77.940882 
L 39.140028 97.565516 
L 39.248745 74.397809 
L 39.303104 83.103621 
L 39.357463 68.430314 
L 39.411822 105.643678 
L 39.466181 90.155277 
L 39.52054 74.427504 
L 39.574899 89.378251 
L 39.629258 97.340572 
L 39.792335 66.939445 
L 39.846694 68.041255 
L 40.064129 97.131018 
L 40.172847 63.186442 
L 40.227206 90.028146 
L 40.281565 86.550118 
L 40.390283 77.994377 
L 40.444642 95.780791 
L 40.499001 73.910009 
L 40.55336 97.275474 
L 40.607719 50.441671 
L 40.662078 59.128229 
L 40.716436 69.663975 
L 40.770795 57.409859 
L 40.825154 67.563925 
L 40.933872 104.021063 
L 40.988231 81.259938 
L 41.04259 86.225892 
L 41.096949 84.932794 
L 41.151308 56.310721 
L 41.260026 104.927622 
L 41.423103 44.180373 
L 41.53182 62.993022 
L 41.586179 98.452649 
L 41.640538 68.348544 
L 41.694897 69.409342 
L 41.749256 86.360641 
L 41.857974 64.368178 
L 41.912333 80.854147 
L 41.966692 62.664501 
L 42.129769 90.514062 
L 42.238486 73.779813 
L 42.292845 95.500385 
L 42.347204 83.766982 
L 42.401563 43.399811 
L 42.455922 71.235632 
L 42.56464 80.509248 
L 42.618999 99.803083 
L 42.673358 61.329818 
L 42.727717 90.236495 
L 42.782076 87.882966 
L 42.836435 74.987308 
L 42.890794 99.442613 
L 42.945153 87.287356 
L 42.999511 97.928176 
L 43.05387 94.578639 
L 43.108229 59.744602 
L 43.162588 92.640381 
L 43.271306 59.730817 
L 43.325665 71.746405 
L 43.543101 111.667985 
L 43.59746 59.856218 
L 43.651819 64.149507 
L 43.760536 101.883911 
L 43.814895 68.505962 
L 43.869254 85.217175 
L 43.977972 61.526586 
L 44.032331 71.207434 
L 44.141049 96.715163 
L 44.358485 61.516516 
L 44.521561 88.682052 
L 44.57592 59.535098 
L 44.630279 78.344833 
L 44.684638 81.681666 
L 44.738997 69.233292 
L 44.793356 116.071503 
L 44.847715 70.917499 
L 45.11951 101.44629 
L 45.228228 77.076185 
L 45.336945 85.590601 
L 45.391304 69.487041 
L 45.445663 92.538735 
L 45.500022 68.872844 
L 45.554381 86.995546 
L 45.60874 73.898873 
L 45.717458 88.021616 
L 45.771817 67.858352 
L 45.934894 100.758843 
L 45.989253 93.79776 
L 46.043611 57.853564 
L 46.09797 95.881773 
L 46.152329 55.170302 
L 46.206688 81.844028 
L 46.315406 53.591722 
L 46.369765 122.505157 
L 46.424124 75.866034 
L 46.478483 79.212739 
L 46.532842 63.480892 
L 46.695919 107.466281 
L 46.804636 75.204281 
L 46.858995 100.68658 
L 46.967713 62.273724 
L 47.022072 106.201109 
L 47.076431 81.914936 
L 47.13079 85.304703 
L 47.185149 66.996627 
L 47.239508 67.090925 
L 47.293867 98.0486 
L 47.348226 92.825079 
L 47.402585 93.941934 
L 47.511303 62.098053 
L 47.565662 79.474167 
L 47.62002 43.956084 
L 47.783097 93.680829 
L 47.837456 87.80697 
L 47.891815 60.532627 
L 47.946174 91.762375 
L 48.000533 77.500713 
L 48.16361 96.06132 
L 48.217969 74.644282 
L 48.272328 100.221127 
L 48.326687 85.911328 
L 48.381045 95.545462 
L 48.435404 73.725973 
L 48.489763 77.409686 
L 48.544122 82.675479 
L 48.598481 99.207394 
L 48.65284 53.148738 
L 48.707199 96.700427 
L 48.924635 72.707174 
L 48.978994 70.394001 
L 49.033353 92.506351 
L 49.087712 85.547712 
L 49.196429 56.959492 
L 49.250788 99.324625 
L 49.305147 65.781701 
L 49.359506 92.269806 
L 49.413865 76.186317 
L 49.468224 85.611595 
L 49.522583 80.480041 
L 49.68566 93.352949 
L 49.740019 52.97559 
L 49.794378 86.247451 
L 49.848737 80.897104 
L 49.903095 87.658247 
L 49.957454 85.390297 
L 50.011813 83.11555 
L 50.120531 70.351325 
L 50.17489 99.128994 
L 50.229249 53.19266 
L 50.283608 92.213306 
L 50.337967 59.557366 
L 50.392326 70.432104 
L 50.501044 85.538972 
L 50.555403 76.841699 
L 50.609762 77.180999 
L 50.66412 99.124038 
L 50.772838 65.241849 
L 50.827197 76.790626 
L 50.881556 73.420108 
L 50.935915 71.252707 
L 50.990274 62.590637 
L 51.098992 114.70871 
L 51.153351 100.025847 
L 51.370787 56.14395 
L 51.425145 72.373992 
L 51.479504 64.264386 
L 51.533863 64.941108 
L 51.588222 64.442282 
L 51.642581 61.630702 
L 51.860017 98.230235 
L 51.914376 57.911107 
L 51.968735 96.135286 
L 52.077453 76.236319 
L 52.131812 82.179348 
L 52.240529 112.660412 
L 52.349247 81.118562 
L 52.403606 81.829211 
L 52.457965 107.159144 
L 52.621042 63.726386 
L 52.675401 62.010906 
L 52.72976 90.95664 
L 52.784119 90.000817 
L 52.838478 82.283922 
L 52.892837 92.903858 
L 52.947195 81.46091 
L 53.055913 101.843519 
L 53.110272 55.141005 
L 53.164631 90.330324 
L 53.21899 66.53428 
L 53.273349 80.196118 
L 53.382067 74.883211 
L 53.436426 96.012964 
L 53.599503 59.340586 
L 53.70822 92.437114 
L 53.762579 50.724241 
L 53.816938 90.122871 
L 53.871297 80.313852 
L 53.925656 94.90497 
L 53.980015 81.705972 
L 54.034374 61.121926 
L 54.088733 80.49632 
L 54.143092 64.473448 
L 54.197451 79.463491 
L 54.360528 92.448595 
L 54.469245 74.87266 
L 54.523604 87.835541 
L 54.577963 64.605757 
L 54.632322 80.716442 
L 54.686681 81.535099 
L 54.74104 75.59325 
L 54.904117 88.909399 
L 54.958476 71.021977 
L 55.012835 95.903618 
L 55.067194 78.039491 
L 55.121553 48.006519 
L 55.175912 67.024519 
L 55.23027 63.50986 
L 55.338988 95.821746 
L 55.393347 89.476933 
L 55.447706 83.170703 
L 55.502065 91.250386 
L 55.556424 81.289087 
L 55.610783 93.694439 
L 55.665142 65.588933 
L 55.719501 77.486301 
L 55.77386 93.435127 
L 55.828219 77.752322 
L 55.882578 87.592338 
L 55.936937 71.81662 
L 55.991295 97.514695 
L 56.045654 47.684671 
L 56.100013 93.043837 
L 56.26309 57.13526 
L 56.426167 82.878428 
L 56.480526 68.464865 
L 56.589244 69.032836 
L 56.643603 92.181982 
L 56.697962 72.675604 
L 56.861038 101.129095 
L 56.969756 70.202932 
L 57.132833 98.955804 
L 57.187192 93.469938 
L 57.241551 64.437174 
L 57.29591 86.704699 
L 57.350269 92.377849 
L 57.513345 69.491355 
L 57.567704 93.510537 
L 57.622063 64.162953 
L 57.676422 89.270498 
L 57.78514 78.608058 
L 57.839499 91.92383 
L 57.893858 77.795671 
L 57.948217 79.964039 
L 58.002576 81.216202 
L 58.111294 74.276465 
L 58.165653 90.882241 
L 58.220012 85.33142 
L 58.27437 49.71799 
L 58.328729 85.664098 
L 58.383088 100.318511 
L 58.437447 64.077987 
L 58.491806 77.204071 
L 58.546165 86.405396 
L 58.600524 78.292762 
L 58.654883 65.472712 
L 58.709242 71.539791 
L 58.763601 79.597779 
L 58.81796 58.514417 
L 58.872319 84.160277 
L 58.926678 78.935518 
L 58.981037 82.672651 
L 59.035395 70.944153 
L 59.089754 112.433092 
L 59.144113 78.501991 
L 59.198472 92.278184 
L 59.252831 80.195428 
L 59.415908 59.17614 
L 59.470267 75.813982 
L 59.524626 63.558381 
L 59.633344 84.755015 
L 59.687703 81.593172 
L 59.742062 72.315766 
L 59.79642 85.413779 
L 59.850779 53.881969 
L 59.905138 56.801453 
L 59.959497 92.844484 
L 60.013856 87.113919 
L 60.068215 65.77741 
L 60.122574 76.877742 
L 60.176933 87.631008 
L 60.231292 61.935559 
L 60.285651 77.180811 
L 60.394369 93.991785 
L 60.448728 70.798014 
L 60.503087 90.867861 
L 60.557445 76.654252 
L 60.611804 104.657366 
L 60.666163 77.365367 
L 60.720522 83.493627 
L 60.774881 72.339835 
L 60.82924 75.689073 
L 60.937958 89.930573 
L 61.046676 76.837353 
L 61.101035 93.12814 
L 61.155394 80.755407 
L 61.264112 90.81587 
L 61.31847 106.458621 
L 61.372829 82.547045 
L 61.427188 85.564605 
L 61.481547 84.616513 
L 61.535906 79.105429 
L 61.644624 56.061067 
L 61.698983 58.412233 
L 61.807701 78.933814 
L 61.86206 89.632293 
L 62.025137 57.469957 
L 62.079495 82.088703 
L 62.133854 70.161569 
L 62.188213 74.613996 
L 62.242572 92.943011 
L 62.405649 64.621775 
L 62.514367 100.769351 
L 62.623085 71.214303 
L 62.731803 88.816931 
L 62.949238 57.723453 
L 63.112315 95.35954 
L 63.166674 79.404162 
L 63.221033 76.228649 
L 63.275392 80.960544 
L 63.438469 64.080283 
L 63.492828 81.82882 
L 63.547187 74.752629 
L 63.601545 70.21207 
L 63.655904 71.615087 
L 63.710263 87.322622 
L 63.764622 79.279804 
L 63.927699 73.542818 
L 64.090776 85.108019 
L 64.145135 66.578892 
L 64.199494 76.294452 
L 64.253853 81.166049 
L 64.308212 79.049794 
L 64.362571 71.572145 
L 64.416929 72.807423 
L 64.471288 75.82121 
L 64.525647 60.632439 
L 64.688724 97.82269 
L 64.743083 76.021609 
L 64.797442 97.18618 
L 64.960519 80.472182 
L 65.069237 107.708425 
L 65.123596 61.514955 
L 65.177954 78.242154 
L 65.232313 89.125557 
L 65.286672 81.660958 
L 65.341031 67.607053 
L 65.39539 109.025095 
L 65.449749 69.65818 
L 65.504108 105.411585 
L 65.558467 78.617166 
L 65.667185 89.635374 
L 65.721544 68.139932 
L 65.775903 75.55527 
L 65.830262 89.939393 
L 65.884621 78.890632 
L 66.047697 70.880434 
L 66.102056 70.960469 
L 66.156415 58.784305 
L 66.210774 67.959718 
L 66.319492 91.012658 
L 66.42821 69.925492 
L 66.482569 98.326038 
L 66.536928 76.912037 
L 66.645646 105.451626 
L 66.754363 55.058458 
L 66.808722 73.151234 
L 66.863081 63.556012 
L 66.971799 98.112207 
L 67.189235 58.257409 
L 67.243594 65.271479 
L 67.297953 51.025641 
L 67.406671 90.713162 
L 67.461029 83.488607 
L 67.515388 69.831954 
L 67.569747 72.926532 
L 67.624106 74.21603 
L 67.678465 87.072602 
L 67.732824 60.18687 
L 67.787183 73.727608 
L 67.841542 69.156816 
L 67.895901 85.109485 
L 67.95026 66.160027 
L 68.004619 81.16063 
L 68.167696 64.220758 
L 68.276413 92.130839 
L 68.330772 82.412819 
L 68.43949 52.221989 
L 68.493849 94.765737 
L 68.548208 70.36079 
L 68.602567 90.428522 
L 68.656926 68.899358 
L 68.711285 69.408454 
L 68.765644 82.500822 
L 68.928721 59.767041 
L 69.037438 81.402092 
L 69.091797 75.796853 
L 69.146156 73.018215 
L 69.309233 90.113863 
L 69.363592 76.156813 
L 69.417951 79.060221 
L 69.47231 85.235466 
L 69.581028 63.500623 
L 69.635387 85.81818 
L 69.689746 71.996208 
L 69.744104 68.121454 
L 69.907181 91.581816 
L 69.96154 108.424663 
L 70.015899 97.050689 
L 70.070258 74.627511 
L 70.124617 86.578649 
L 70.178976 89.36677 
L 70.233335 72.000505 
L 70.287694 76.748999 
L 70.342053 75.8842 
L 70.396412 92.068359 
L 70.450771 87.388334 
L 70.505129 69.71082 
L 70.559488 79.527058 
L 70.668206 86.667191 
L 70.831283 69.211623 
L 70.885642 117.655898 
L 70.940001 82.357183 
L 70.99436 86.794553 
L 71.048719 57.393916 
L 71.103078 75.33637 
L 71.211796 78.763028 
L 71.266154 92.367726 
L 71.374872 45.346583 
L 71.48359 80.479817 
L 71.537949 77.674171 
L 71.592308 88.788718 
L 71.646667 83.508372 
L 71.701026 65.97055 
L 71.755385 89.015598 
L 71.809744 80.548911 
L 71.864103 63.550702 
L 72.027179 106.812172 
L 72.081538 74.853122 
L 72.135897 79.523385 
L 72.190256 80.694002 
L 72.244615 65.773384 
L 72.298974 73.339514 
L 72.353333 87.321709 
L 72.407692 67.272721 
L 72.462051 78.654904 
L 72.51641 85.472738 
L 72.570769 80.545752 
L 72.788204 60.265078 
L 72.951281 86.752934 
L 73.00564 90.231804 
L 73.059999 74.140766 
L 73.114358 77.241079 
L 73.223076 88.034514 
L 73.386153 62.822414 
L 73.440512 91.535702 
L 73.494871 74.041216 
L 73.657947 90.37826 
L 73.821024 69.275392 
L 73.875383 92.238688 
L 73.929742 85.586608 
L 73.984101 71.659243 
L 74.03846 73.32354 
L 74.147178 89.596119 
L 74.201537 72.660824 
L 74.255896 86.692619 
L 74.418972 73.469131 
L 74.473331 74.20662 
L 74.582049 92.460474 
L 74.636408 85.381837 
L 74.690767 54.766311 
L 74.745126 82.84364 
L 74.799485 82.416604 
L 74.853844 79.842754 
L 74.908203 56.100106 
L 74.962562 79.546725 
L 75.016921 90.958648 
L 75.234356 52.208361 
L 75.343074 88.536126 
L 75.397433 87.109621 
L 75.669228 56.260917 
L 75.723587 81.760697 
L 75.777946 76.639921 
L 75.832304 62.277828 
L 75.886663 84.792444 
L 75.941022 77.318715 
L 75.995381 78.461295 
L 76.04974 85.4649 
L 76.104099 59.094372 
L 76.158458 74.769648 
L 76.321535 89.624815 
L 76.375894 81.130014 
L 76.430253 82.45505 
L 76.484612 110.344891 
L 76.593329 67.930881 
L 76.647688 91.627113 
L 76.702047 74.961592 
L 76.756406 77.037212 
L 76.865124 68.282467 
L 76.919483 93.991093 
L 76.973842 83.278511 
L 77.136919 90.469572 
L 77.191278 62.89427 
L 77.245637 80.411156 
L 77.299996 90.116301 
L 77.354354 65.245833 
L 77.408713 84.971438 
L 77.463072 89.501185 
L 77.57179 57.825058 
L 77.680508 75.658245 
L 77.789226 55.945975 
L 77.897944 92.298291 
L 77.952303 72.362784 
L 78.006662 94.764199 
L 78.061021 77.239122 
L 78.115379 88.002958 
L 78.169738 56.14995 
L 78.224097 89.50346 
L 78.278456 70.633176 
L 78.332815 70.636683 
L 78.550251 97.289154 
L 78.60461 89.236635 
L 78.658969 86.68283 
L 78.713328 77.826705 
L 78.767687 115.854184 
L 78.822046 95.96891 
L 78.876404 64.650789 
L 78.930763 97.6687 
L 78.985122 82.624186 
L 79.039481 86.040441 
L 79.148199 113.213691 
L 79.256917 64.969443 
L 79.311276 71.698318 
L 79.474353 88.368574 
L 79.528712 72.893763 
L 79.583071 102.971093 
L 79.637429 77.518097 
L 79.691788 64.020035 
L 79.746147 83.262152 
L 79.800506 59.626906 
L 79.854865 100.897307 
L 79.909224 83.503024 
L 79.963583 59.571491 
L 80.072301 97.456756 
L 80.12666 64.924481 
L 80.181019 115.996606 
L 80.235378 65.171319 
L 80.289737 65.076044 
L 80.344096 94.198186 
L 80.398455 80.531814 
L 80.452813 86.256608 
L 80.561531 54.34125 
L 80.724608 102.478681 
L 80.887685 40.812507 
L 80.942044 94.884784 
L 80.996403 72.964444 
L 81.050762 90.782651 
L 81.105121 81.164335 
L 81.15948 70.733994 
L 81.213838 72.789797 
L 81.268197 74.391826 
L 81.322556 71.417801 
L 81.376915 49.12818 
L 81.539992 89.462607 
L 81.64871 89.607031 
L 81.703069 70.923117 
L 81.757428 85.198517 
L 81.811787 68.83907 
L 81.866146 71.429705 
L 81.920505 98.814087 
L 81.974863 78.60975 
L 82.083581 102.593236 
L 82.355376 70.53681 
L 82.409735 72.265579 
L 82.518453 95.295766 
L 82.627171 79.880766 
L 82.68153 82.010092 
L 82.735888 83.076757 
L 82.953324 64.605443 
L 83.062042 96.397614 
L 83.17076 76.181779 
L 83.225119 80.464516 
L 83.279478 76.581857 
L 83.388196 53.412745 
L 83.496913 95.039679 
L 83.551272 84.073874 
L 83.605631 64.790346 
L 83.65999 97.50322 
L 83.714349 75.101851 
L 83.823067 65.21845 
L 83.986144 91.746046 
L 84.040503 106.117379 
L 84.094862 102.693806 
L 84.257938 65.804024 
L 84.312297 83.430694 
L 84.366656 72.044969 
L 84.421015 55.396749 
L 84.475374 68.749008 
L 84.584092 94.954333 
L 84.638451 90.983796 
L 84.747169 70.545599 
L 84.801528 84.87597 
L 84.855887 69.364868 
L 84.910246 105.157629 
L 84.964605 95.736024 
L 85.018963 76.637446 
L 85.073322 101.107868 
L 85.127681 63.454012 
L 85.18204 80.571084 
L 85.290758 63.666968 
L 85.399476 87.878327 
L 85.453835 75.426924 
L 85.508194 104.070267 
L 85.562553 71.851175 
L 85.616912 77.406943 
L 85.671271 82.112569 
L 85.72563 99.224663 
L 85.779988 90.695971 
L 85.834347 62.377869 
L 85.888706 94.005277 
L 85.943065 84.296299 
L 85.997424 81.566645 
L 86.051783 110.794813 
L 86.106142 83.172649 
L 86.160501 81.28657 
L 86.323578 72.337198 
L 86.377937 71.983149 
L 86.432296 70.118212 
L 86.541013 99.265682 
L 86.595372 86.920058 
L 86.70409 47.429296 
L 86.758449 82.559137 
L 86.812808 76.281856 
L 86.921526 57.827511 
L 86.975885 106.103323 
L 87.030244 89.665629 
L 87.084603 57.826221 
L 87.138962 79.529359 
L 87.193321 82.676441 
L 87.24768 49.906212 
L 87.302038 70.160263 
L 87.356397 100.050943 
L 87.410756 78.075732 
L 87.465115 55.782918 
L 87.519474 75.658777 
L 87.628192 90.141114 
L 87.682551 78.995886 
L 87.73691 86.058281 
L 87.791269 110.468152 
L 87.845628 73.772388 
L 87.899987 77.302651 
L 87.954346 82.932146 
L 88.008705 48.985432 
L 88.063063 74.30634 
L 88.117422 84.190912 
L 88.22614 58.990817 
L 88.280499 105.364162 
L 88.334858 88.850255 
L 88.443576 60.029077 
L 88.497935 60.319364 
L 88.552294 72.992468 
L 88.606653 124.725957 
L 88.661012 94.685939 
L 88.715371 97.263235 
L 88.824088 59.744384 
L 88.987165 98.387584 
L 89.095883 98.61747 
L 89.150242 70.907787 
L 89.204601 67.177868 
L 89.25896 73.07236 
L 89.313319 49.753461 
L 89.476396 94.068274 
L 89.639472 83.755415 
L 89.693831 89.621891 
L 89.74819 87.593963 
L 89.911267 59.067945 
L 89.965626 62.467417 
L 90.019985 76.93437 
L 90.074344 56.294952 
L 90.237421 88.392898 
L 90.454856 76.730591 
L 90.617933 96.743316 
L 90.726651 71.930285 
L 90.78101 93.497496 
L 90.835369 76.350376 
L 90.889728 69.029437 
L 91.052805 92.058404 
L 91.161522 61.711315 
L 91.215881 90.574289 
L 91.27024 73.633972 
L 91.324599 87.385142 
L 91.378958 87.196342 
L 91.433317 65.830426 
L 91.487676 78.016111 
L 91.542035 77.39942 
L 91.596394 63.721517 
L 91.705112 101.561941 
L 91.759471 68.329326 
L 91.81383 104.858048 
L 91.868188 89.625554 
L 91.922547 72.701289 
L 92.031265 72.982625 
L 92.139983 92.245263 
L 92.194342 91.815503 
L 92.30306 65.296733 
L 92.411778 67.300247 
L 92.466137 87.364768 
L 92.520496 82.361406 
L 92.574855 63.420578 
L 92.629213 87.97442 
L 92.683572 73.35051 
L 92.79229 61.82568 
L 92.846649 41.597378 
L 92.901008 100.658274 
L 92.955367 77.312752 
L 93.009726 83.274113 
L 93.064085 74.356349 
L 93.118444 90.498065 
L 93.227162 89.847081 
L 93.281521 90.307764 
L 93.444597 67.323937 
L 93.498956 119.813616 
L 93.553315 84.6419 
L 93.662033 104.166391 
L 93.770751 67.598554 
L 93.82511 85.110191 
L 93.879469 58.965505 
L 93.933828 83.804439 
L 94.042546 66.972175 
L 94.096905 94.070516 
L 94.151263 60.279284 
L 94.205622 60.773321 
L 94.368699 96.246346 
L 94.477417 71.624572 
L 94.531776 79.8211 
L 94.586135 88.196443 
L 94.640494 78.7855 
L 94.694853 79.579725 
L 94.749212 88.071158 
L 94.912288 61.62696 
L 95.021006 98.915554 
L 95.075365 55.199608 
L 95.129724 77.609614 
L 95.184083 69.441943 
L 95.238442 30.276839 
L 95.401519 87.523352 
L 95.510237 65.197145 
L 95.564596 99.255958 
L 95.618955 91.719375 
L 95.673313 85.22223 
L 95.727672 100.069582 
L 95.782031 51.180647 
L 95.83639 73.052594 
L 95.890749 68.911621 
L 95.945108 81.504665 
L 95.999467 79.959248 
L 96.053826 74.869153 
L 96.108185 77.112814 
L 96.162544 92.264413 
L 96.271262 69.186951 
L 96.325621 89.001002 
L 96.37998 85.311053 
L 96.543056 69.919473 
L 96.651774 75.571825 
L 96.706133 61.756361 
L 96.760492 74.160185 
L 96.814851 74.177276 
L 96.86921 58.958527 
L 96.977928 97.871952 
L 97.195364 75.214476 
L 97.304081 113.145654 
L 97.35844 96.136734 
L 97.521517 69.005426 
L 97.575876 75.900142 
L 97.630235 73.10228 
L 97.684594 68.286749 
L 97.738953 106.711956 
L 97.793312 66.943643 
L 97.90203 91.132321 
L 97.956389 90.241872 
L 98.010747 89.99031 
L 98.065106 70.358276 
L 98.119465 94.525636 
L 98.173824 83.294017 
L 98.228183 74.491624 
L 98.336901 95.434628 
L 98.39126 72.69691 
L 98.445619 80.894301 
L 98.499978 83.384365 
L 98.554337 77.534158 
L 98.608696 103.753041 
L 98.663055 98.861879 
L 98.771772 55.600507 
L 98.826131 67.561654 
L 98.88049 68.11191 
L 98.989208 78.353934 
L 99.043567 74.171783 
L 99.097926 79.691321 
L 99.152285 99.222015 
L 99.206644 80.315486 
L 99.315362 68.88466 
L 99.369721 92.795171 
L 99.42408 65.465689 
L 99.478439 65.924201 
L 99.587156 90.525357 
L 99.750233 55.633146 
L 99.804592 86.163598 
L 99.858951 77.188757 
L 99.91331 72.968213 
L 99.967669 81.484807 
L 100.022028 77.616157 
L 100.076387 53.805116 
L 100.185105 82.291363 
L 100.239464 70.4348 
L 100.293822 91.836406 
L 100.348181 64.725461 
L 100.40254 78.151414 
L 100.511258 67.931129 
L 100.619976 97.796815 
L 100.674335 87.438309 
L 100.837412 61.494668 
L 100.891771 93.385335 
L 101.054847 45.905533 
L 101.163565 84.592879 
L 101.217924 70.664269 
L 101.272283 79.054173 
L 101.326642 76.734438 
L 101.43536 91.83125 
L 101.489719 85.991874 
L 101.544078 98.49746 
L 101.707155 63.002837 
L 101.761514 69.572774 
L 101.815872 78.644412 
L 101.870231 64.698996 
L 101.92459 81.181839 
L 101.978949 49.234183 
L 102.033308 72.092794 
L 102.087667 65.983917 
L 102.142026 71.519844 
L 102.250744 95.993048 
L 102.305103 64.598846 
L 102.359462 79.026784 
L 102.413821 66.187388 
L 102.46818 96.550904 
L 102.522539 70.697653 
L 102.631256 83.821118 
L 102.794333 67.689248 
L 102.95741 83.646449 
L 103.066128 76.97006 
L 103.120487 37.86404 
L 103.174846 67.327047 
L 103.283564 95.429056 
L 103.337922 55.301351 
L 103.392281 77.397974 
L 103.609717 110.562137 
L 103.664076 74.333949 
L 103.718435 114.579819 
L 103.772794 72.533242 
L 103.881512 72.704511 
L 103.935871 62.627612 
L 103.99023 99.071327 
L 104.044589 52.054353 
L 104.098947 65.843389 
L 104.153306 69.074639 
L 104.207665 64.153337 
L 104.316383 84.346845 
L 104.425101 62.528263 
L 104.588178 97.508917 
L 104.642537 93.402367 
L 104.751255 56.859484 
L 104.805614 90.163186 
L 104.859972 57.03453 
L 105.023049 108.099311 
L 105.186126 67.753437 
L 105.240485 95.579648 
L 105.294844 68.387805 
L 105.349203 65.05151 
L 105.457921 86.716037 
L 105.51228 78.88522 
L 105.566639 41.343688 
L 105.620997 77.613292 
L 105.729715 59.443935 
L 105.784074 77.93287 
L 105.838433 55.598278 
L 105.947151 103.621145 
L 106.055869 60.52778 
L 106.164587 82.760326 
L 106.218946 59.033217 
L 106.273305 109.380154 
L 106.327664 78.660806 
L 106.382022 53.544644 
L 106.49074 91.25161 
L 106.545099 57.187492 
L 106.599458 83.004936 
L 106.708176 54.354399 
L 106.762535 62.286735 
L 106.816894 78.983459 
L 106.871253 67.683451 
L 106.925612 67.753672 
L 107.088689 103.707386 
L 107.306124 56.920698 
L 107.360483 74.781 
L 107.414842 72.163394 
L 107.469201 58.641862 
L 107.52356 84.011545 
L 107.577919 66.835035 
L 107.632278 75.65133 
L 107.686637 64.656738 
L 107.740996 91.844991 
L 107.795355 81.235951 
L 107.904072 85.883561 
L 107.958431 65.723374 
L 108.01279 80.560209 
L 108.121508 87.879588 
L 108.230226 64.327447 
L 108.284585 98.637479 
L 108.338944 72.224723 
L 108.447662 64.122979 
L 108.502021 79.89864 
L 108.610739 79.702257 
L 108.665097 63.891104 
L 108.719456 71.254364 
L 108.773815 108.368653 
L 108.828174 83.923645 
L 108.882533 69.642222 
L 109.04561 95.064659 
L 109.099969 68.722249 
L 109.154328 95.102024 
L 109.317405 64.163687 
L 109.371764 62.673024 
L 109.480481 93.697371 
L 109.53484 81.131204 
L 109.643558 84.672595 
L 109.752276 74.472431 
L 109.806635 77.541201 
L 109.860994 85.166679 
L 109.969712 84.90958 
L 110.07843 58.10284 
L 110.187147 91.045899 
L 110.295865 85.658566 
L 110.350224 83.848397 
L 110.404583 54.243877 
L 110.458942 88.026815 
L 110.513301 68.116735 
L 110.676378 84.925675 
L 110.839455 65.059614 
L 111.05689 79.036246 
L 111.111249 79.860083 
L 111.219967 64.851246 
L 111.274326 70.501798 
L 111.328685 74.01846 
L 111.383044 86.382831 
L 111.437403 74.820187 
L 111.491762 80.406614 
L 111.546121 58.051171 
L 111.60048 103.050697 
L 111.654839 84.348031 
L 111.709197 57.703714 
L 111.763556 98.545002 
L 111.817915 63.43235 
L 111.872274 79.999687 
L 111.926633 74.953375 
L 111.980992 78.678706 
L 112.035351 53.625616 
L 112.08971 111.818005 
L 112.144069 56.580857 
L 112.198428 89.697782 
L 112.252787 75.450303 
L 112.307146 74.563035 
L 112.361505 92.960996 
L 112.415864 88.614454 
L 112.470222 85.45445 
L 112.524581 52.788214 
L 112.57894 64.278172 
L 112.633299 60.435569 
L 112.687658 79.274255 
L 112.742017 42.996085 
L 112.850735 96.74051 
L 113.013812 61.953393 
L 113.12253 100.217141 
L 113.176889 65.900309 
L 113.231248 95.829221 
L 113.285606 90.848373 
L 113.394324 61.512446 
L 113.448683 62.777052 
L 113.503042 85.624461 
L 113.557401 69.957714 
L 113.61176 63.60896 
L 113.666119 89.406458 
L 113.720478 70.167864 
L 113.774837 78.466349 
L 113.829196 71.830323 
L 113.883555 67.96506 
L 114.046631 92.951422 
L 114.10099 44.45348 
L 114.155349 85.61344 
L 114.209708 95.691584 
L 114.372785 60.861637 
L 114.427144 83.06498 
L 114.481503 56.484328 
L 114.535862 62.700931 
L 114.590221 103.356946 
L 114.64458 76.770946 
L 114.753298 99.298983 
L 114.916374 67.211854 
L 115.079451 94.463008 
L 115.13381 96.919442 
L 115.188169 73.278342 
L 115.242528 78.117186 
L 115.296887 75.295411 
L 115.351246 65.281901 
L 115.405605 100.013596 
L 115.459964 74.45989 
L 115.514323 96.484359 
L 115.568681 78.116729 
L 115.62304 80.997802 
L 115.677399 98.543387 
L 115.731758 75.571357 
L 115.786117 78.172236 
L 115.894835 96.343236 
L 116.057912 53.935258 
L 116.16663 92.542773 
L 116.220989 78.430806 
L 116.275348 80.114377 
L 116.329706 95.794051 
L 116.384065 62.334724 
L 116.438424 127.636364 
L 116.492783 72.380253 
L 116.547142 77.353268 
L 116.601501 68.764547 
L 116.65586 69.084574 
L 116.710219 80.165625 
L 116.764578 49.136114 
L 116.818937 71.939437 
L 116.873296 66.983832 
L 117.090731 104.902581 
L 117.14509 99.29303 
L 117.253808 78.470592 
L 117.362526 103.636498 
L 117.416885 58.167567 
L 117.471244 87.752905 
L 117.525603 70.648354 
L 117.579962 98.760461 
L 117.634321 79.029647 
L 117.68868 58.810378 
L 117.743039 65.986853 
L 117.851756 77.201241 
L 117.960474 46.347861 
L 118.069192 102.288704 
L 118.123551 51.520765 
L 118.17791 76.768751 
L 118.232269 69.594521 
L 118.286628 93.618365 
L 118.340987 83.808963 
L 118.395346 71.939868 
L 118.449705 88.238575 
L 118.504064 56.001724 
L 118.558423 74.945702 
L 118.612781 75.057784 
L 118.66714 76.619796 
L 118.721499 109.05424 
L 118.775858 85.685799 
L 118.830217 98.742667 
L 118.993294 74.760473 
L 119.156371 104.504882 
L 119.265089 68.683283 
L 119.319448 69.81191 
L 119.428165 66.091972 
L 119.536883 100.88263 
L 119.754319 48.950094 
L 119.808678 75.861903 
L 119.863037 38.788742 
L 119.917396 68.816284 
L 119.971755 112.039988 
L 120.080473 41.693756 
L 120.243549 108.058255 
L 120.297908 106.522352 
L 120.406626 57.934898 
L 120.460985 93.888373 
L 120.515344 66.656436 
L 120.569703 69.966004 
L 120.624062 64.348054 
L 120.678421 100.525862 
L 120.73278 86.147022 
L 120.787139 76.537163 
L 120.841498 81.710083 
L 120.895856 102.97245 
L 121.058933 65.173853 
L 121.113292 63.557591 
L 121.22201 103.273961 
L 121.276369 83.671636 
L 121.330728 80.148653 
L 121.385087 68.755869 
L 121.439446 100.066114 
L 121.602523 56.216 
L 121.71124 93.146518 
L 121.765599 36.025201 
L 121.819958 92.457435 
L 121.983035 49.852704 
L 122.037394 49.907375 
L 122.200471 91.851892 
L 122.25483 79.959036 
L 122.309189 82.12238 
L 122.363548 93.442858 
L 122.417906 57.819439 
L 122.472265 71.697177 
L 122.526624 92.335605 
L 122.580983 67.079035 
L 122.635342 73.167959 
L 122.689701 85.830336 
L 122.798419 54.641474 
L 122.961496 78.644153 
L 123.015855 86.691352 
L 123.070214 86.565863 
L 123.124573 84.574736 
L 123.178931 74.898378 
L 123.342008 96.129396 
L 123.396367 102.053274 
L 123.505085 63.31458 
L 123.559444 77.232107 
L 123.613803 93.20311 
L 123.668162 76.863132 
L 123.722521 80.841954 
L 123.77688 70.425556 
L 123.831239 83.192778 
L 123.885598 62.03396 
L 123.939956 73.17896 
L 123.994315 109.709716 
L 124.048674 76.131178 
L 124.103033 79.525321 
L 124.211751 91.934504 
L 124.26611 90.32278 
L 124.320469 83.338762 
L 124.374828 48.367513 
L 124.429187 81.584623 
L 124.483546 89.041188 
L 124.592264 50.269733 
L 124.646623 81.321406 
L 124.700981 74.046854 
L 124.75534 75.847833 
L 124.809699 86.648135 
L 124.864058 79.853619 
L 124.918417 70.228508 
L 124.972776 76.980388 
L 125.027135 77.928939 
L 125.190212 44.263538 
L 125.244571 109.916685 
L 125.29893 60.278965 
L 125.462006 93.133413 
L 125.516365 69.454663 
L 125.570724 86.67681 
L 125.679442 54.473838 
L 125.78816 94.309094 
L 125.842519 87.126228 
L 125.896878 64.582844 
L 125.951237 97.981082 
L 126.005596 84.527831 
L 126.114314 50.718652 
L 126.223031 88.679367 
L 126.27739 74.74401 
L 126.331749 77.170637 
L 126.494826 97.20604 
L 126.549185 70.182292 
L 126.603544 75.683674 
L 126.657903 73.973021 
L 126.712262 54.563999 
L 126.766621 84.637643 
L 126.82098 72.739259 
L 126.875339 67.649593 
L 126.929698 98.834852 
L 126.984056 73.804156 
L 127.038415 71.522712 
L 127.092774 16.363636 
L 127.147133 102.496857 
L 127.201492 46.812368 
L 127.255851 53.994695 
L 127.31021 96.684503 
L 127.364569 72.226997 
L 127.473287 81.949912 
L 127.527646 57.307118 
L 127.636364 105.331299 
L 127.636364 105.331299 
" clip-path="url(#p7750464185)" style="fill: none; stroke: #c6a491; stroke-width: 1.5; stroke-linecap: square"/>
   </g>
   <g id="patch_3">
    <path d="M 10.8 133.2 
L 10.8 10.8 
" style="fill: none; stroke: #000000; stroke-width: 0.8; stroke-linejoin: miter; stroke-linecap: square"/>
   </g>
   <g id="patch_4">
    <path d="M 133.2 133.2 
L 133.2 10.8 
" style="fill: none; stroke: #000000; stroke-width: 0.8; stroke-linejoin: miter; stroke-linecap: square"/>
   </g>
   <g id="patch_5">
    <path d="M 10.8 133.2 
L 133.2 133.2 
" style="fill: none; stroke: #000000; stroke-width: 0.8; stroke-linejoin: miter; stroke-linecap: square"/>
   </g>
   <g id="patch_6">
    <path d="M 10.8 10.8 
L 133.2 10.8 
" style="fill: none; stroke: #000000; stroke-width: 0.8; stroke-linejoin: miter; stroke-linecap: square"/>
   </g>
  </g>
 </g>
 <defs>
  <clipPath id="p7750464185">
   <rect x="10.8" y="10.8" width="122.4" height="122.4"/>
  </clipPath>
 </defs>
</svg>
