<?xml version="1.0" encoding="utf-8" standalone="no"?>
<!DOCTYPE svg PUBLIC "-//W3C//DTD SVG 1.1//EN"
  "http://www.w3.org/Graphics/SVG/1.1/DTD/svg11.dtd">
<svg xmlns:xlink="http://www.w3.org/1999/xlink" width="144pt" height="144pt" viewBox="0 0 144 144" xmlns="http://www.w3.org/2000/svg" version="1.1">
 <metadata>
  <rdf:RDF xmlns:dc="http://purl.org/dc/elements/1.1/" xmlns:cc="http://creativecommons.org/ns#" xmlns:rdf="http://www.w3.org/1999/02/22-rdf-syntax-ns#">
   <cc:Work>
    <dc:type rdf:resource="http://purl.org/dc/dcmitype/StillImage"/>
    <dc:date>2025-02-07T11:07:19.761859</dc:date>
    <dc:format>image/svg+xml</dc:format>
    <dc:creator>
     <cc:Agent>
      <dc:title>Matplotlib v3.8.0, https://matplotlib.org/</dc:title>
     </cc:Agent>
    </dc:creator>
   </cc:Work>
  </rdf:RDF>
 </metadata>
 <defs>
  <style type="text/css">*{stroke-linejoin: round; stroke-linecap: butt}</style>
 </defs>
 <g id="figure_1">
  <g id="patch_1">
   <path d="M 0 144 
L 144 144 
L 144 0 
L 0 0 
L 0 144 
z
" style="fill: none"/>
  </g>
  <g id="axes_1">
   <g id="patch_2">
    <path d="M 10.8 133.2 
L 133.2 133.2 
L 133.2 10.8 
L 10.8 10.8 
L 10.8 133.2 
z
" style="fill: none"/>
   </g>
   <g id="matplotlib.axis_1"/>
   <g id="matplotlib.axis_2"/>
   <g id="line2d_1">
    <path d="M 16.363636 82.547281 
L 16.417995 79.839584 
L 16.635431 56.233349 
L 16.68979 70.926181 
L 16.744149 63.066318 
L 16.798508 69.246176 
L 16.852867 31.848625 
L 16.961585 93.04836 
L 17.015944 87.478452 
L 17.233379 41.206475 
L 17.287738 101.223196 
L 17.342097 75.898336 
L 17.396456 72.757041 
L 17.559533 50.379856 
L 17.613892 97.196497 
L 17.668251 87.83943 
L 17.831327 55.818584 
L 17.940045 85.133687 
L 17.994404 59.424955 
L 18.048763 61.711196 
L 18.103122 116.232668 
L 18.157481 56.368915 
L 18.21184 75.961638 
L 18.266199 85.222578 
L 18.320558 66.038596 
L 18.374917 82.771452 
L 18.592352 39.955673 
L 18.646711 77.268552 
L 18.70107 28.519414 
L 18.755429 75.450677 
L 18.809788 58.744358 
L 18.864147 63.752306 
L 18.972865 68.030052 
L 19.027224 44.464059 
L 19.190301 100.359803 
L 19.24466 49.928689 
L 19.299019 83.630186 
L 19.462095 33.988827 
L 19.570813 88.187159 
L 19.625172 70.188144 
L 19.679531 80.605936 
L 19.788249 71.598807 
L 19.951326 97.42505 
L 20.005685 78.136023 
L 20.060044 78.219 
L 20.114402 95.054721 
L 20.168761 81.788992 
L 20.22312 66.873865 
L 20.331838 90.512524 
L 20.386197 86.61899 
L 20.549274 59.48034 
L 20.603633 43.208338 
L 20.657992 108.831065 
L 20.712351 98.737522 
L 20.821069 50.670741 
L 20.875427 90.266404 
L 20.929786 84.831058 
L 20.984145 75.900704 
L 21.038504 88.982134 
L 21.092863 57.128451 
L 21.147222 67.300054 
L 21.201581 59.147628 
L 21.25594 81.670229 
L 21.310299 57.145277 
L 21.364658 66.933274 
L 21.527735 100.801398 
L 21.582094 44.44889 
L 21.636452 63.540867 
L 21.74517 44.426501 
L 21.908247 82.677694 
L 21.962606 54.65313 
L 22.016965 58.838613 
L 22.071324 60.372474 
L 22.125683 99.375454 
L 22.180042 50.911184 
L 22.234401 53.476338 
L 22.28876 55.078529 
L 22.343119 38.546849 
L 22.506195 85.270097 
L 22.614913 48.365913 
L 22.723631 71.751466 
L 22.77799 66.54391 
L 22.832349 40.674374 
L 22.886708 92.296455 
L 22.941067 77.105986 
L 22.995426 58.243163 
L 23.158502 84.982832 
L 23.26722 47.30636 
L 23.321579 89.720976 
L 23.375938 75.572566 
L 23.430297 70.325269 
L 23.484656 35.916271 
L 23.539015 65.428854 
L 23.593374 70.46986 
L 23.647733 109.293892 
L 23.702092 63.101495 
L 23.756451 71.952962 
L 23.919527 76.966381 
L 24.028245 52.879883 
L 24.191322 90.579737 
L 24.30004 53.779015 
L 24.354399 93.304686 
L 24.408758 38.249071 
L 24.463117 71.241057 
L 24.517476 58.19834 
L 24.571835 63.50428 
L 24.626194 112.598931 
L 24.78927 43.616277 
L 24.897988 84.536769 
L 24.952347 59.926059 
L 25.006706 86.603138 
L 25.115424 48.344396 
L 25.169783 103.602682 
L 25.224142 83.871906 
L 25.278501 80.958487 
L 25.33286 94.16119 
L 25.495936 54.370613 
L 25.550295 118.867737 
L 25.604654 88.834869 
L 25.82209 59.160193 
L 25.876449 76.50671 
L 25.930808 64.179042 
L 25.985167 73.113976 
L 26.039526 52.249914 
L 26.093885 68.423022 
L 26.148244 58.858963 
L 26.202602 61.392869 
L 26.31132 86.946063 
L 26.365679 76.2692 
L 26.474397 69.30366 
L 26.528756 89.820464 
L 26.637474 42.429032 
L 26.691833 104.818719 
L 26.746192 73.767555 
L 26.800551 40.154297 
L 26.85491 74.275242 
L 26.909269 85.757727 
L 27.072345 54.883995 
L 27.126704 61.985956 
L 27.181063 91.924853 
L 27.235422 67.756829 
L 27.289781 41.231598 
L 27.34414 67.611042 
L 27.398499 84.606391 
L 27.452858 54.986506 
L 27.507217 73.581204 
L 27.561576 61.201226 
L 27.615935 73.515365 
L 27.670294 80.759534 
L 27.724652 57.980397 
L 27.779011 67.792696 
L 27.83337 87.575534 
L 27.887729 59.709554 
L 27.942088 79.293457 
L 27.996447 67.10225 
L 28.050806 84.284388 
L 28.105165 64.123837 
L 28.159524 79.480188 
L 28.213883 72.883462 
L 28.268242 41.498601 
L 28.322601 97.202455 
L 28.37696 45.728137 
L 28.485677 67.259635 
L 28.540036 66.061062 
L 28.594395 106.333323 
L 28.648754 83.093541 
L 28.703113 97.607333 
L 28.757472 68.67045 
L 28.811831 86.915345 
L 28.86619 78.87994 
L 28.920549 79.119759 
L 28.974908 80.717862 
L 29.083626 99.466645 
L 29.137985 78.142887 
L 29.192344 106.054891 
L 29.246702 60.65138 
L 29.301061 102.62893 
L 29.35542 108.432436 
L 29.518497 52.345825 
L 29.572856 89.233231 
L 29.627215 77.632563 
L 29.681574 74.72799 
L 29.735933 33.303392 
L 29.790292 93.453119 
L 29.844651 93.28859 
L 30.007727 56.931949 
L 30.116445 115.876942 
L 30.279522 53.525368 
L 30.333881 80.535991 
L 30.38824 60.71558 
L 30.442599 48.946004 
L 30.496958 66.44405 
L 30.551317 65.344232 
L 30.605676 64.717734 
L 30.660035 89.168014 
L 30.714394 64.403602 
L 30.768752 68.658589 
L 30.823111 89.776144 
L 30.87747 71.019219 
L 30.931829 16.363636 
L 30.986188 52.155194 
L 31.094906 93.903712 
L 31.149265 55.282768 
L 31.203624 67.447206 
L 31.257983 60.358683 
L 31.312342 71.138171 
L 31.366701 56.325661 
L 31.529778 101.8659 
L 31.747213 41.834059 
L 31.855931 71.110151 
L 31.91029 50.599731 
L 31.964649 75.729628 
L 32.019008 42.495791 
L 32.073367 43.577077 
L 32.127726 86.813781 
L 32.182085 68.852377 
L 32.236444 39.601478 
L 32.290803 53.990168 
L 32.345161 86.554052 
L 32.39952 60.453729 
L 32.562597 92.087557 
L 32.616956 61.47291 
L 32.671315 121.10811 
L 32.725674 73.160818 
L 32.780033 75.595219 
L 32.834392 70.789173 
L 32.888751 84.707613 
L 32.94311 55.14208 
L 33.051828 101.687095 
L 33.106186 65.034239 
L 33.160545 83.135519 
L 33.214904 85.793498 
L 33.269263 85.098278 
L 33.323622 100.324936 
L 33.43234 48.460088 
L 33.486699 50.944622 
L 33.649776 88.044198 
L 33.704135 83.474222 
L 33.867211 52.806586 
L 33.92157 41.763357 
L 33.975929 81.571744 
L 34.030288 72.836141 
L 34.193365 90.324005 
L 34.247724 40.15347 
L 34.302083 77.578704 
L 34.356442 73.423328 
L 34.410801 78.051965 
L 34.46516 51.416156 
L 34.519519 89.397768 
L 34.573878 60.274313 
L 34.628236 59.282612 
L 34.682595 67.244403 
L 34.791313 41.339371 
L 34.95439 88.676035 
L 35.063108 46.078576 
L 35.226185 93.371934 
L 35.334903 47.898585 
L 35.389261 85.358304 
L 35.44362 78.698373 
L 35.552338 74.576745 
L 35.606697 76.818549 
L 35.661056 72.483796 
L 35.715415 79.035248 
L 35.769774 54.362179 
L 35.824133 76.127136 
L 35.878492 61.528859 
L 35.932851 82.469708 
L 35.98721 53.85761 
L 36.095928 85.63221 
L 36.150286 80.46125 
L 36.204645 46.656817 
L 36.259004 63.727215 
L 36.313363 71.988524 
L 36.367722 51.115352 
L 36.530799 93.571343 
L 36.585158 46.058084 
L 36.639517 65.678588 
L 36.693876 103.142995 
L 36.748235 55.194936 
L 36.802594 76.929388 
L 36.856953 80.310694 
L 37.020029 49.005296 
L 37.074388 51.608125 
L 37.128747 73.965164 
L 37.183106 69.57088 
L 37.237465 45.690032 
L 37.291824 61.601582 
L 37.346183 83.577064 
L 37.400542 62.395106 
L 37.454901 80.278888 
L 37.50926 77.404081 
L 37.672336 54.264721 
L 37.889772 98.24085 
L 37.944131 61.78968 
L 37.99849 80.912804 
L 38.052849 93.990885 
L 38.161567 50.439936 
L 38.270285 109.433632 
L 38.324644 79.353979 
L 38.379003 80.29714 
L 38.433361 55.624429 
L 38.48772 71.502874 
L 38.542079 69.969829 
L 38.596438 71.996666 
L 38.650797 69.356294 
L 38.705156 56.790575 
L 38.759515 92.307995 
L 38.813874 78.016659 
L 38.868233 78.348981 
L 38.922592 75.040896 
L 38.976951 105.992675 
L 39.03131 90.257253 
L 39.085669 66.559042 
L 39.140028 90.744897 
L 39.248745 63.214835 
L 39.303104 75.608657 
L 39.357463 62.959661 
L 39.411822 97.728324 
L 39.466181 84.653159 
L 39.52054 63.974974 
L 39.574899 83.996525 
L 39.629258 92.112667 
L 39.846694 53.710872 
L 40.064129 88.980301 
L 40.172847 53.479396 
L 40.335924 79.2807 
L 40.390283 69.924838 
L 40.444642 88.541099 
L 40.607719 40.039044 
L 40.716436 56.683543 
L 40.770795 50.905837 
L 40.825154 57.815256 
L 40.933872 100.933278 
L 40.988231 62.561318 
L 41.04259 80.704413 
L 41.096949 81.538591 
L 41.151308 43.622774 
L 41.260026 93.038766 
L 41.423103 34.303969 
L 41.477461 36.675767 
L 41.586179 89.372526 
L 41.640538 62.202832 
L 41.694897 64.285384 
L 41.749256 79.784379 
L 41.857974 48.946741 
L 42.021051 80.018547 
L 42.07541 73.091933 
L 42.129769 82.986015 
L 42.238486 67.056149 
L 42.292845 92.509368 
L 42.347204 80.37242 
L 42.401563 33.728056 
L 42.455922 57.682458 
L 42.618999 91.055421 
L 42.673358 57.065508 
L 42.727717 83.163238 
L 42.836435 66.35841 
L 42.890794 98.467456 
L 42.945153 81.882557 
L 42.999511 83.221394 
L 43.05387 89.920914 
L 43.108229 45.466424 
L 43.162588 82.314355 
L 43.271306 41.376872 
L 43.543101 104.284705 
L 43.59746 47.713536 
L 43.651819 58.107113 
L 43.760536 103.663531 
L 43.814895 63.954198 
L 43.923613 64.202935 
L 43.977972 51.733355 
L 44.141049 89.201958 
L 44.358485 51.437694 
L 44.521561 89.052945 
L 44.57592 46.428912 
L 44.630279 74.501339 
L 44.684638 76.145256 
L 44.738997 65.061323 
L 44.793356 115.869771 
L 44.847715 55.297268 
L 44.902074 71.999948 
L 44.956433 96.031977 
L 45.010792 71.397281 
L 45.065151 75.419521 
L 45.11951 100.245407 
L 45.173869 68.931279 
L 45.228228 72.643848 
L 45.282586 75.740059 
L 45.336945 88.264388 
L 45.391304 57.036487 
L 45.445663 88.509889 
L 45.500022 59.004843 
L 45.554381 80.608908 
L 45.60874 64.717231 
L 45.663099 71.928809 
L 45.717458 78.993509 
L 45.771817 70.206074 
L 45.826176 95.143653 
L 45.880535 56.886641 
L 45.934894 95.654335 
L 45.989253 88.716128 
L 46.043611 48.371496 
L 46.09797 97.150482 
L 46.152329 46.110772 
L 46.206688 68.577012 
L 46.315406 47.249696 
L 46.369765 121.378242 
L 46.424124 65.236845 
L 46.478483 72.049853 
L 46.532842 48.670381 
L 46.695919 103.522382 
L 46.804636 61.813115 
L 46.858995 96.435794 
L 46.967713 41.432016 
L 47.022072 97.225187 
L 47.076431 74.717728 
L 47.13079 81.610446 
L 47.239508 54.911056 
L 47.293867 93.264871 
L 47.348226 87.433749 
L 47.402585 90.298143 
L 47.511303 48.501409 
L 47.565662 67.324504 
L 47.62002 30.674938 
L 47.783097 86.177264 
L 47.837456 80.223244 
L 47.891815 60.837823 
L 47.946174 84.257652 
L 48.000533 67.534241 
L 48.16361 95.378992 
L 48.217969 65.07224 
L 48.272328 102.006284 
L 48.326687 67.836535 
L 48.381045 84.621369 
L 48.435404 59.614879 
L 48.489763 69.352646 
L 48.544122 70.625133 
L 48.598481 92.746727 
L 48.65284 40.435746 
L 48.707199 94.229432 
L 48.870276 61.044479 
L 49.033353 80.759171 
L 49.087712 85.171677 
L 49.196429 50.676828 
L 49.250788 94.089481 
L 49.305147 60.101101 
L 49.359506 75.899192 
L 49.413865 62.250537 
L 49.468224 72.364891 
L 49.522583 71.457618 
L 49.576942 68.826121 
L 49.68566 95.725676 
L 49.740019 52.586736 
L 49.794378 82.320375 
L 49.957454 71.448625 
L 50.011813 73.90321 
L 50.120531 61.902371 
L 50.17489 89.028657 
L 50.229249 50.811237 
L 50.283608 90.655811 
L 50.337967 52.85727 
L 50.392326 61.554709 
L 50.446685 78.302814 
L 50.501044 75.968297 
L 50.555403 67.108834 
L 50.609762 67.216098 
L 50.66412 98.3625 
L 50.718479 67.404799 
L 50.772838 55.27449 
L 50.827197 62.635759 
L 50.935915 68.712379 
L 50.990274 52.396068 
L 51.098992 107.861509 
L 51.153351 97.837435 
L 51.370787 37.680251 
L 51.425145 64.319296 
L 51.479504 45.768958 
L 51.533863 55.515276 
L 51.588222 54.800087 
L 51.642581 52.289972 
L 51.69694 61.81052 
L 51.751299 49.211243 
L 51.860017 98.240883 
L 51.914376 51.901003 
L 51.968735 84.073722 
L 52.023094 70.748383 
L 52.077453 76.197588 
L 52.131812 73.987622 
L 52.240529 124.447683 
L 52.403606 68.858785 
L 52.457965 86.957507 
L 52.621042 48.94925 
L 52.675401 55.388639 
L 52.72976 90.388522 
L 52.784119 82.946047 
L 52.838478 74.691874 
L 52.892837 95.443404 
L 52.947195 87.578452 
L 53.001554 86.834645 
L 53.055913 93.815382 
L 53.110272 46.927859 
L 53.164631 90.866157 
L 53.21899 50.986082 
L 53.273349 85.804723 
L 53.382067 62.665465 
L 53.436426 99.970989 
L 53.599503 47.212379 
L 53.70822 95.295034 
L 53.762579 30.122885 
L 53.816938 75.379557 
L 53.925656 87.687043 
L 54.034374 62.053515 
L 54.088733 79.370962 
L 54.143092 54.217043 
L 54.197451 74.009854 
L 54.360528 98.001606 
L 54.414887 64.276402 
L 54.469245 70.18539 
L 54.523604 82.028131 
L 54.577963 56.913171 
L 54.632322 77.803946 
L 54.686681 75.172205 
L 54.849758 84.865917 
L 54.958476 71.501395 
L 55.012835 88.619191 
L 55.121553 37.5667 
L 55.175912 53.869591 
L 55.23027 52.646667 
L 55.338988 92.037145 
L 55.393347 89.404122 
L 55.447706 81.289035 
L 55.502065 95.441294 
L 55.719501 53.189677 
L 55.77386 91.383402 
L 55.828219 69.571547 
L 55.991295 93.004838 
L 56.045654 29.321382 
L 56.100013 88.01193 
L 56.154372 35.756551 
L 56.208731 82.129943 
L 56.26309 45.141514 
L 56.317449 74.311802 
L 56.371808 70.556657 
L 56.426167 83.270544 
L 56.480526 55.598292 
L 56.534885 71.418007 
L 56.589244 70.689042 
L 56.643603 94.374139 
L 56.697962 64.129135 
L 56.75232 81.691324 
L 56.806679 70.756172 
L 56.861038 104.744034 
L 56.915397 56.462519 
L 56.969756 63.225602 
L 57.132833 101.395312 
L 57.241551 60.09114 
L 57.29591 84.244859 
L 57.404628 73.576997 
L 57.458987 65.959579 
L 57.513345 67.143092 
L 57.567704 87.421036 
L 57.622063 54.567334 
L 57.676422 94.46035 
L 57.730781 84.875618 
L 57.893858 70.895805 
L 57.948217 71.377009 
L 58.002576 68.041682 
L 58.056935 70.2205 
L 58.165653 88.083424 
L 58.27437 31.985432 
L 58.383088 87.326318 
L 58.437447 58.383984 
L 58.491806 69.672936 
L 58.546165 82.608078 
L 58.654883 57.507006 
L 58.763601 81.975304 
L 58.81796 45.983932 
L 58.872319 76.516619 
L 58.926678 71.398927 
L 58.981037 85.067577 
L 59.035395 61.48343 
L 59.089754 121.588194 
L 59.144113 74.543602 
L 59.198472 87.612735 
L 59.415908 53.000296 
L 59.470267 72.65024 
L 59.524626 45.306982 
L 59.578985 56.877818 
L 59.687703 68.414713 
L 59.742062 57.366119 
L 59.79642 80.645403 
L 59.850779 39.908679 
L 59.905138 41.753354 
L 59.959497 102.611936 
L 60.013856 78.532219 
L 60.122574 59.304789 
L 60.176933 81.006741 
L 60.231292 47.192935 
L 60.285651 54.95538 
L 60.34001 84.298613 
L 60.394369 79.56574 
L 60.448728 47.255333 
L 60.611804 92.449791 
L 60.720522 72.836175 
L 60.774881 92.74359 
L 60.82924 87.587722 
L 60.937958 73.653999 
L 60.992317 75.404718 
L 61.046676 78.634912 
L 61.101035 96.734171 
L 61.155394 79.992537 
L 61.31847 108.75029 
L 61.427188 72.568786 
L 61.535906 78.828251 
L 61.644624 47.937488 
L 61.698983 50.317959 
L 61.753342 46.186497 
L 61.916419 77.366137 
L 61.970778 77.492973 
L 62.025137 29.280468 
L 62.079495 59.331276 
L 62.133854 49.920717 
L 62.242572 82.960066 
L 62.296931 73.599769 
L 62.35129 49.280985 
L 62.405649 54.68743 
L 62.460008 54.613807 
L 62.514367 98.014769 
L 62.568726 62.167428 
L 62.623085 63.735869 
L 62.731803 82.352514 
L 62.786162 68.759396 
L 62.84052 88.609385 
L 62.894879 27.344926 
L 62.949238 49.25227 
L 63.057956 93.610644 
L 63.112315 85.815344 
L 63.166674 62.943566 
L 63.221033 68.678916 
L 63.275392 74.608275 
L 63.329751 50.832505 
L 63.38411 88.368351 
L 63.438469 54.923029 
L 63.601545 73.94747 
L 63.655904 57.882734 
L 63.710263 82.098416 
L 63.764622 65.157623 
L 63.818981 68.43263 
L 63.927699 63.153665 
L 64.036417 98.430116 
L 64.090776 86.416189 
L 64.199494 64.244814 
L 64.253853 83.09008 
L 64.308212 80.462203 
L 64.362571 60.640448 
L 64.416929 62.864316 
L 64.471288 83.934085 
L 64.525647 44.819748 
L 64.580006 103.703527 
L 64.634365 67.807564 
L 64.797442 91.346157 
L 64.960519 72.893707 
L 65.014878 82.695683 
L 65.069237 114.719549 
L 65.123596 54.167082 
L 65.177954 68.174587 
L 65.232313 79.144729 
L 65.286672 63.808384 
L 65.341031 70.61505 
L 65.39539 85.903955 
L 65.449749 61.492817 
L 65.504108 127.636364 
L 65.558467 88.081035 
L 65.721544 62.35546 
L 65.830262 88.933318 
L 65.938979 62.884146 
L 65.993338 67.022117 
L 66.047697 79.923447 
L 66.210774 46.951283 
L 66.265133 103.265406 
L 66.319492 75.46698 
L 66.373851 72.480465 
L 66.42821 49.814132 
L 66.591287 96.411513 
L 66.645646 100.975234 
L 66.754363 39.900545 
L 66.808722 65.285336 
L 66.863081 58.699339 
L 66.971799 98.590317 
L 67.134876 61.091189 
L 67.189235 40.52389 
L 67.406671 109.794981 
L 67.515388 57.419631 
L 67.569747 64.003349 
L 67.624106 64.777369 
L 67.678465 82.090559 
L 67.732824 37.43909 
L 67.787183 72.151854 
L 67.841542 65.366846 
L 67.895901 82.959452 
L 67.95026 77.162234 
L 68.113337 42.965815 
L 68.276413 96.3713 
L 68.43949 45.208293 
L 68.493849 101.224536 
L 68.548208 69.207924 
L 68.602567 67.961584 
L 68.765644 75.929397 
L 68.874362 67.126523 
L 68.928721 37.863603 
L 68.983079 47.155384 
L 69.091797 72.787851 
L 69.146156 67.699106 
L 69.200515 79.951016 
L 69.254874 68.673821 
L 69.363592 60.614561 
L 69.526669 79.665463 
L 69.581028 50.876539 
L 69.635387 92.453779 
L 69.689746 72.151868 
L 69.744104 45.457412 
L 69.798463 65.756931 
L 69.852822 61.250341 
L 69.96154 94.324063 
L 70.070258 68.193667 
L 70.124617 71.380148 
L 70.178976 80.088103 
L 70.233335 55.10272 
L 70.287694 67.691478 
L 70.342053 68.048521 
L 70.396412 94.246138 
L 70.450771 87.721189 
L 70.559488 66.045796 
L 70.613847 85.668956 
L 70.668206 80.989735 
L 70.722565 68.241706 
L 70.885642 106.672452 
L 70.99436 69.905314 
L 71.048719 76.942066 
L 71.103078 55.764942 
L 71.157437 76.116273 
L 71.211796 68.802493 
L 71.266154 81.822841 
L 71.374872 25.227624 
L 71.48359 68.310993 
L 71.537949 63.29461 
L 71.592308 94.97096 
L 71.646667 88.030642 
L 71.864103 56.644088 
L 71.918462 66.738329 
L 71.972821 109.852968 
L 72.027179 92.640797 
L 72.081538 63.771654 
L 72.135897 93.443867 
L 72.190256 88.886577 
L 72.244615 49.05673 
L 72.298974 62.831427 
L 72.353333 86.714098 
L 72.407692 77.558198 
L 72.462051 60.623933 
L 72.51641 85.818643 
L 72.570769 68.081588 
L 72.733846 52.699773 
L 72.788204 55.841424 
L 72.842563 60.228914 
L 73.00564 95.601347 
L 73.168717 60.293022 
L 73.331794 78.335215 
L 73.386153 34.717104 
L 73.440512 79.485546 
L 73.494871 66.405383 
L 73.549229 66.624693 
L 73.657947 78.637281 
L 73.712306 71.51083 
L 73.766665 64.089021 
L 73.821024 64.104254 
L 73.875383 97.630208 
L 73.929742 92.668676 
L 73.984101 46.756867 
L 74.03846 61.156254 
L 74.092819 78.260038 
L 74.147178 66.037087 
L 74.310254 92.282226 
L 74.418972 68.344871 
L 74.473331 68.377211 
L 74.52769 91.517429 
L 74.582049 77.9043 
L 74.690767 45.742076 
L 74.745126 98.127738 
L 74.799485 83.378587 
L 74.908203 61.263177 
L 74.962562 83.415598 
L 75.016921 79.024749 
L 75.125638 56.90521 
L 75.179997 78.874878 
L 75.234356 44.808108 
L 75.288715 73.871236 
L 75.343074 73.970521 
L 75.397433 70.688009 
L 75.451792 87.397642 
L 75.506151 73.99084 
L 75.56051 73.294478 
L 75.614869 76.587906 
L 75.669228 54.904594 
L 75.723587 85.425547 
L 75.777946 81.631164 
L 75.832304 59.869229 
L 75.941022 94.823835 
L 76.104099 29.767836 
L 76.212817 80.653706 
L 76.267176 72.359995 
L 76.321535 87.469761 
L 76.375894 79.808749 
L 76.430253 85.492503 
L 76.484612 108.700526 
L 76.538971 62.857397 
L 76.593329 73.502184 
L 76.647688 85.994115 
L 76.756406 69.977995 
L 76.810765 72.100087 
L 76.919483 81.450702 
L 76.973842 74.129885 
L 77.08256 104.912113 
L 77.191278 68.231017 
L 77.245637 90.994557 
L 77.299996 90.219552 
L 77.354354 34.462315 
L 77.408713 78.972005 
L 77.463072 92.004229 
L 77.57179 39.511576 
L 77.680508 77.854994 
L 77.734867 70.29853 
L 77.789226 49.335672 
L 77.843585 62.179433 
L 77.897944 79.348437 
L 77.952303 72.163889 
L 78.006662 66.497515 
L 78.061021 46.305471 
L 78.115379 84.634581 
L 78.169738 40.287327 
L 78.224097 73.184123 
L 78.278456 70.229024 
L 78.332815 80.54663 
L 78.495892 49.67278 
L 78.550251 94.844008 
L 78.60461 74.388147 
L 78.713328 63.327995 
L 78.767687 109.040359 
L 78.822046 78.231222 
L 78.876404 53.045692 
L 78.930763 74.48385 
L 78.985122 71.098772 
L 79.09384 96.535868 
L 79.148199 91.366394 
L 79.256917 46.775 
L 79.311276 62.127582 
L 79.365635 66.739946 
L 79.419994 56.850622 
L 79.583071 93.242018 
L 79.637429 59.021826 
L 79.691788 72.474677 
L 79.746147 63.956093 
L 79.800506 32.286972 
L 79.909224 103.291414 
L 79.963583 39.630682 
L 80.017942 75.695052 
L 80.072301 112.251123 
L 80.235378 61.831154 
L 80.398455 101.732661 
L 80.61589 42.297879 
L 80.724608 86.106039 
L 80.887685 23.631031 
L 80.942044 81.873197 
L 80.996403 59.678139 
L 81.050762 61.923074 
L 81.105121 41.620925 
L 81.15948 73.58935 
L 81.268197 72.323246 
L 81.322556 89.24886 
L 81.376915 21.456099 
L 81.431274 61.14002 
L 81.485633 76.778933 
L 81.539992 68.816884 
L 81.594351 47.50291 
L 81.757428 83.911703 
L 81.920505 98.724123 
L 81.974863 96.823797 
L 82.246658 56.60002 
L 82.301017 69.80482 
L 82.355376 66.659589 
L 82.409735 62.084884 
L 82.627171 87.225109 
L 82.68153 61.224862 
L 82.735888 72.069939 
L 82.844606 76.767076 
L 82.953324 44.315729 
L 83.007683 71.401721 
L 83.062042 43.66637 
L 83.225119 75.413896 
L 83.333837 64.965788 
L 83.388196 83.146739 
L 83.442555 62.561006 
L 83.496913 93.317737 
L 83.551272 56.21574 
L 83.605631 81.913989 
L 83.65999 76.274779 
L 83.714349 91.693875 
L 83.823067 37.19361 
L 84.040503 97.609507 
L 84.094862 97.328267 
L 84.20358 55.224533 
L 84.257938 56.221235 
L 84.312297 72.692783 
L 84.366656 62.791106 
L 84.421015 58.659241 
L 84.475374 65.669898 
L 84.529733 54.443708 
L 84.584092 86.494096 
L 84.638451 74.351532 
L 84.69281 70.645497 
L 84.801528 79.290204 
L 84.910246 64.703295 
L 84.964605 85.710533 
L 85.018963 61.82222 
L 85.073322 66.412801 
L 85.127681 73.348845 
L 85.18204 97.572476 
L 85.290758 20.302011 
L 85.345117 102.152536 
L 85.399476 88.693764 
L 85.453835 82.292533 
L 85.508194 90.354055 
L 85.671271 62.089664 
L 85.72563 55.995503 
L 85.779988 61.68255 
L 85.834347 57.516063 
L 85.943065 76.036108 
L 85.997424 68.028459 
L 86.051783 81.87552 
L 86.106142 72.880066 
L 86.160501 57.602073 
L 86.21486 102.293524 
L 86.269219 65.540856 
L 86.377937 55.384736 
L 86.432296 78.875609 
L 86.486655 69.773892 
L 86.541013 73.410619 
L 86.70409 63.809251 
L 86.758449 65.719204 
L 86.812808 50.180303 
L 86.921526 77.921535 
L 86.975885 51.565312 
L 87.030244 57.357844 
L 87.138962 80.606555 
L 87.193321 66.60627 
L 87.24768 34.488812 
L 87.302038 60.312431 
L 87.356397 82.459147 
L 87.410756 71.915872 
L 87.465115 59.923476 
L 87.519474 94.906411 
L 87.573833 63.991292 
L 87.791269 95.429662 
L 87.845628 56.318736 
L 87.899987 58.801951 
L 87.954346 71.71252 
L 88.008705 65.950272 
L 88.063063 63.70932 
L 88.117422 72.582719 
L 88.171781 38.937668 
L 88.22614 49.252174 
L 88.280499 93.65626 
L 88.334858 54.278885 
L 88.389217 85.856869 
L 88.443576 53.377005 
L 88.497935 47.689593 
L 88.552294 101.377842 
L 88.606653 100.326303 
L 88.715371 67.469919 
L 88.76973 85.011541 
L 88.824088 50.583998 
L 88.878447 61.842288 
L 88.932806 58.398515 
L 89.095883 97.063894 
L 89.25896 55.443883 
L 89.313319 34.767205 
L 89.476396 79.337358 
L 89.530755 59.743659 
L 89.585113 76.209741 
L 89.693831 96.048893 
L 89.74819 56.440599 
L 89.802549 64.811232 
L 89.856908 78.792887 
L 89.911267 26.449388 
L 89.965626 65.335151 
L 90.019985 93.784018 
L 90.074344 72.325944 
L 90.128703 52.18839 
L 90.183062 70.465589 
L 90.346138 104.11337 
L 90.400497 59.731796 
L 90.454856 68.737582 
L 90.563574 93.698221 
L 90.672292 70.359358 
L 90.726651 70.955388 
L 90.78101 110.287759 
L 90.889728 57.993818 
L 90.944087 104.28857 
L 90.998446 62.780948 
L 91.052805 77.562458 
L 91.107163 57.049377 
L 91.161522 68.243526 
L 91.324599 86.73608 
L 91.433317 45.525029 
L 91.542035 107.63386 
L 91.596394 59.690509 
L 91.650753 62.266122 
L 91.705112 75.170273 
L 91.759471 61.530013 
L 91.81383 90.157266 
L 91.868188 73.58286 
L 91.922547 77.821728 
L 92.085624 54.767131 
L 92.139983 72.51682 
L 92.194342 63.932667 
L 92.357419 73.839785 
L 92.466137 83.655751 
L 92.520496 80.204998 
L 92.629213 57.904652 
L 92.683572 66.758913 
L 92.737931 79.391916 
L 92.846649 56.476599 
L 92.955367 73.926038 
L 93.009726 99.252149 
L 93.064085 68.184343 
L 93.118444 68.237097 
L 93.281521 100.871955 
L 93.390238 45.221413 
L 93.444597 60.890674 
L 93.607674 87.486683 
L 93.716392 60.969874 
L 93.82511 66.140045 
L 93.879469 72.688387 
L 93.933828 35.720495 
L 93.988187 58.459758 
L 94.042546 94.956049 
L 94.096905 65.392188 
L 94.151263 78.16868 
L 94.259981 77.852663 
L 94.31434 48.350855 
L 94.368699 83.252713 
L 94.423058 64.771311 
L 94.477417 35.912496 
L 94.531776 64.947685 
L 94.586135 74.89075 
L 94.640494 52.11931 
L 94.694853 112.462619 
L 94.749212 68.102362 
L 94.803571 52.591742 
L 94.85793 68.694781 
L 94.912288 58.934389 
L 95.021006 82.525841 
L 95.129724 52.290537 
L 95.184083 74.451267 
L 95.238442 64.817408 
L 95.292801 69.986584 
L 95.34716 49.769196 
L 95.401519 115.678505 
L 95.455878 80.84113 
L 95.510237 64.940994 
L 95.564596 79.379775 
L 95.727672 68.192058 
L 95.782031 31.512653 
L 95.83639 82.033461 
L 95.890749 63.219382 
L 95.945108 58.329452 
L 95.999467 74.615445 
L 96.053826 69.366863 
L 96.108185 61.740436 
L 96.162544 124.258719 
L 96.216903 36.087876 
L 96.271262 92.182303 
L 96.325621 86.104307 
L 96.37998 105.757855 
L 96.434338 74.045654 
L 96.488697 76.03202 
L 96.543056 91.433813 
L 96.651774 54.113345 
L 96.706133 68.005885 
L 96.760492 59.317012 
L 96.814851 64.872845 
L 96.86921 58.500132 
L 96.923569 75.435416 
L 96.977928 59.845728 
L 97.086646 79.283632 
L 97.141005 55.638045 
L 97.195364 77.881206 
L 97.249722 70.687354 
L 97.304081 97.662985 
L 97.35844 79.758526 
L 97.521517 99.369419 
L 97.575876 69.598095 
L 97.630235 81.564747 
L 97.684594 91.910084 
L 97.793312 58.753915 
L 97.847671 66.55632 
L 97.90203 67.065237 
L 97.956389 91.445765 
L 98.010747 71.71484 
L 98.065106 81.945891 
L 98.119465 60.895059 
L 98.173824 68.395547 
L 98.228183 85.729733 
L 98.282542 70.978316 
L 98.336901 74.287474 
L 98.445619 58.512215 
L 98.608696 97.024014 
L 98.717414 50.325465 
L 98.771772 56.508791 
L 98.826131 76.194161 
L 98.88049 58.192339 
L 98.934849 45.696327 
L 99.097926 74.341616 
L 99.315362 52.142871 
L 99.369721 102.394041 
L 99.42408 41.904288 
L 99.478439 87.911537 
L 99.532797 50.687456 
L 99.587156 64.039732 
L 99.641515 63.045777 
L 99.695874 79.881541 
L 99.858951 47.831664 
L 99.91331 93.041344 
L 99.967669 25.638503 
L 100.022028 61.568302 
L 100.185105 81.628243 
L 100.293822 53.171554 
L 100.348181 66.179354 
L 100.40254 63.959673 
L 100.456899 72.254275 
L 100.511258 62.268748 
L 100.565617 80.84825 
L 100.619976 63.550669 
L 100.674335 55.042279 
L 100.728694 80.042463 
L 100.783053 71.201074 
L 100.837412 70.748336 
L 100.891771 77.02559 
L 100.94613 48.93416 
L 101.000489 75.63692 
L 101.054847 57.01755 
L 101.109206 91.124499 
L 101.163565 56.647445 
L 101.326642 78.097577 
L 101.381001 77.878948 
L 101.43536 80.637849 
L 101.598437 91.7585 
L 101.652796 93.347831 
L 101.707155 45.967175 
L 101.761514 108.417196 
L 101.815872 71.019161 
L 101.870231 63.852705 
L 101.92459 74.243353 
L 101.978949 50.894633 
L 102.142026 87.205209 
L 102.196385 85.110375 
L 102.250744 78.403426 
L 102.305103 56.26394 
L 102.359462 82.444402 
L 102.413821 68.326738 
L 102.46818 66.87428 
L 102.576897 76.702414 
L 102.631256 75.399894 
L 102.685615 63.261506 
L 102.739974 88.220291 
L 102.794333 61.005246 
L 102.848692 91.983749 
L 102.903051 64.14261 
L 102.95741 76.783716 
L 103.011769 49.846928 
L 103.066128 88.945424 
L 103.120487 49.973844 
L 103.174846 62.855739 
L 103.229205 107.838053 
L 103.283564 78.773215 
L 103.337922 77.618089 
L 103.392281 122.665706 
L 103.44664 77.669302 
L 103.555358 50.026595 
L 103.609717 84.69986 
L 103.664076 82.223921 
L 103.718435 82.27318 
L 103.827153 58.921709 
L 103.99023 88.891005 
L 104.044589 39.960169 
L 104.098947 86.901532 
L 104.153306 84.228046 
L 104.207665 86.805351 
L 104.262024 87.484984 
L 104.316383 84.56004 
L 104.370742 87.033584 
L 104.47946 41.691897 
L 104.588178 40.127521 
L 104.642537 86.028291 
L 104.805614 40.855765 
L 104.96869 89.978376 
L 105.023049 74.815214 
L 105.077408 85.117156 
L 105.131767 88.364462 
L 105.294844 56.285262 
L 105.349203 91.53099 
L 105.403562 70.388211 
L 105.457921 71.93741 
L 105.51228 96.812164 
L 105.566639 70.745089 
L 105.620997 83.227172 
L 105.675356 79.827362 
L 105.784074 42.445691 
L 105.892792 56.799237 
L 105.947151 97.269228 
L 106.00151 51.110333 
L 106.055869 77.426805 
L 106.110228 81.905757 
L 106.164587 62.483676 
L 106.218946 64.495587 
L 106.273305 87.415703 
L 106.327664 63.579708 
L 106.382022 25.797995 
L 106.436381 61.248241 
L 106.49074 28.420992 
L 106.599458 101.141415 
L 106.653817 80.513596 
L 106.708176 51.102743 
L 106.762535 53.637468 
L 106.871253 102.700993 
L 106.925612 60.703427 
L 106.979971 80.581781 
L 107.03433 81.909823 
L 107.088689 106.59889 
L 107.251765 55.507757 
L 107.360483 93.889481 
L 107.469201 60.165175 
L 107.52356 88.058275 
L 107.577919 68.102096 
L 107.632278 55.76657 
L 107.686637 68.341388 
L 107.740996 83.921927 
L 107.795355 33.915254 
L 107.849714 77.937652 
L 107.904072 53.912796 
L 107.958431 78.869973 
L 108.01279 63.987375 
L 108.067149 76.736138 
L 108.121508 100.473443 
L 108.175867 59.204414 
L 108.230226 85.780184 
L 108.284585 94.300709 
L 108.55638 59.181569 
L 108.610739 79.358292 
L 108.665097 71.189832 
L 108.773815 64.464462 
L 108.828174 40.190713 
L 108.882533 59.279871 
L 108.936892 86.787445 
L 108.991251 70.910424 
L 109.154328 91.899204 
L 109.263046 60.923964 
L 109.426122 103.224873 
L 109.480481 47.970283 
L 109.53484 52.124871 
L 109.752276 98.066919 
L 109.806635 30.111064 
L 109.860994 85.970772 
L 110.024071 27.627536 
L 110.132789 82.01529 
L 110.295865 47.149073 
L 110.350224 101.020496 
L 110.404583 62.629812 
L 110.622019 89.392088 
L 110.676378 83.856295 
L 110.730737 101.548167 
L 110.839455 56.347321 
L 111.002531 91.913557 
L 111.05689 81.850035 
L 111.111249 87.338697 
L 111.165608 83.274368 
L 111.328685 51.588524 
L 111.383044 77.404758 
L 111.437403 59.064993 
L 111.491762 55.146702 
L 111.546121 81.506661 
L 111.60048 63.731999 
L 111.654839 65.290537 
L 111.709197 95.489197 
L 111.763556 73.168369 
L 111.817915 63.868262 
L 111.926633 91.066816 
L 112.08971 66.067723 
L 112.144069 89.101987 
L 112.198428 56.42377 
L 112.252787 74.364252 
L 112.361505 101.597124 
L 112.415864 69.413295 
L 112.57894 108.863015 
L 112.633299 58.735987 
L 112.687658 59.216929 
L 112.850735 98.619385 
L 113.013812 62.219549 
L 113.068171 78.318542 
L 113.12253 63.12413 
L 113.176889 56.829237 
L 113.231248 62.046334 
L 113.285606 79.987907 
L 113.339965 53.185662 
L 113.503042 114.236809 
L 113.557401 69.266133 
L 113.61176 95.414472 
L 113.666119 86.049187 
L 113.720478 88.431895 
L 113.774837 47.4665 
L 113.829196 76.327079 
L 113.883555 79.937818 
L 113.937914 63.107561 
L 113.992273 70.176545 
L 114.046631 92.008939 
L 114.209708 54.601986 
L 114.264067 80.605285 
L 114.318426 64.477706 
L 114.372785 41.222133 
L 114.427144 48.747418 
L 114.481503 81.894367 
L 114.535862 67.880038 
L 114.590221 67.823473 
L 114.64458 73.297947 
L 114.698939 61.305429 
L 114.753298 62.530419 
L 114.807656 76.55578 
L 114.862015 54.255169 
L 115.025092 86.119402 
L 115.079451 47.305481 
L 115.13381 79.473669 
L 115.242528 59.339953 
L 115.296887 62.550124 
L 115.459964 35.230207 
L 115.677399 79.03043 
L 115.731758 70.463111 
L 115.786117 84.980278 
L 115.840476 60.470169 
L 115.894835 67.729133 
L 115.949194 77.502595 
L 116.003553 54.984442 
L 116.057912 90.599489 
L 116.112271 65.95264 
L 116.16663 64.546472 
L 116.220989 70.430806 
L 116.275348 90.846613 
L 116.329706 71.513154 
L 116.384065 58.691826 
L 116.438424 86.673743 
L 116.492783 42.830602 
L 116.547142 62.665988 
L 116.601501 59.599478 
L 116.764578 90.657269 
L 116.927655 51.46405 
L 116.982014 42.600378 
L 117.14509 86.049774 
L 117.253808 78.882303 
L 117.308167 43.666365 
L 117.362526 60.772044 
L 117.416885 90.423788 
L 117.471244 48.089092 
L 117.525603 71.634896 
L 117.579962 97.642089 
L 117.634321 41.012139 
L 117.68868 75.517142 
L 117.743039 77.479855 
L 117.797398 33.576618 
L 117.851756 38.648766 
L 117.906115 83.556812 
L 117.960474 79.106259 
L 118.014833 70.758978 
L 118.069192 92.278581 
L 118.123551 86.395629 
L 118.232269 46.613821 
L 118.286628 79.035047 
L 118.340987 58.979887 
L 118.395346 75.958847 
L 118.449705 58.211223 
L 118.504064 126.390339 
L 118.558423 69.247373 
L 118.612781 91.883988 
L 118.66714 86.714062 
L 118.721499 54.89772 
L 118.775858 98.845705 
L 118.830217 60.400221 
L 118.993294 89.654385 
L 119.21073 51.617942 
L 119.265089 87.640157 
L 119.319448 44.890696 
L 119.373806 60.146426 
L 119.482524 96.927708 
L 119.536883 60.610288 
L 119.591242 79.853273 
L 119.69996 49.533333 
L 119.917396 98.987693 
L 119.971755 51.191635 
L 120.026114 71.652801 
L 120.080473 58.933152 
L 120.243549 95.47231 
L 120.406626 55.174857 
L 120.515344 109.388212 
L 120.569703 47.283793 
L 120.624062 62.626641 
L 120.678421 67.991886 
L 120.73278 55.912111 
L 120.787139 85.861601 
L 120.841498 39.689593 
L 120.895856 50.81221 
L 120.950215 70.986395 
L 121.004574 68.662214 
L 121.058933 68.650391 
L 121.113292 71.332283 
L 121.167651 62.615601 
L 121.22201 75.067323 
L 121.276369 68.08874 
L 121.330728 74.115264 
L 121.385087 51.643063 
L 121.439446 113.299132 
L 121.493805 71.125871 
L 121.602523 86.851871 
L 121.656881 77.507822 
L 121.71124 91.973565 
L 121.874317 44.756488 
L 122.091753 96.265991 
L 122.146112 40.924623 
L 122.200471 88.466355 
L 122.363548 49.987058 
L 122.417906 76.99421 
L 122.472265 46.531667 
L 122.526624 50.069603 
L 122.580983 66.362566 
L 122.635342 60.337869 
L 122.689701 62.048691 
L 122.74406 55.955228 
L 122.798419 35.588674 
L 122.852778 96.604538 
L 122.907137 73.453559 
L 122.961496 62.128703 
L 123.015855 96.511811 
L 123.070214 74.849691 
L 123.124573 52.415253 
L 123.178931 80.728667 
L 123.23329 69.488524 
L 123.287649 63.984156 
L 123.450726 105.418572 
L 123.559444 45.805485 
L 123.613803 74.094154 
L 123.722521 77.307968 
L 123.885598 41.768223 
L 123.939956 48.928128 
L 124.103033 107.493994 
L 124.157392 96.45123 
L 124.26611 45.498918 
L 124.320469 76.585388 
L 124.374828 87.855358 
L 124.537905 51.447284 
L 124.592264 93.050597 
L 124.646623 78.952218 
L 124.75534 32.282451 
L 124.809699 80.691613 
L 124.864058 48.363825 
L 124.972776 90.594125 
L 125.027135 75.875914 
L 125.190212 57.865258 
L 125.244571 61.34901 
L 125.407648 91.656889 
L 125.462006 46.335307 
L 125.516365 77.805386 
L 125.625083 53.572421 
L 125.679442 70.569435 
L 125.842519 81.02427 
L 126.005596 60.159788 
L 126.223031 87.06965 
L 126.331749 48.023726 
L 126.386108 88.716767 
L 126.440467 88.468659 
L 126.494826 43.948349 
L 126.549185 80.117195 
L 126.603544 66.07972 
L 126.657903 86.904077 
L 126.712262 45.209525 
L 126.766621 72.179324 
L 126.82098 63.425549 
L 126.875339 91.434005 
L 126.984056 90.992319 
L 127.147133 50.054052 
L 127.201492 77.70957 
L 127.255851 77.47637 
L 127.31021 65.17035 
L 127.364569 104.867591 
L 127.418928 85.30975 
L 127.527646 43.48986 
L 127.582005 98.573143 
L 127.636364 56.42611 
" clip-path="url(#pbdd352bb31)" style="fill: none; stroke: #e78ac3; stroke-width: 1.5; stroke-linecap: square"/>
   </g>
   <g id="patch_3">
    <path d="M 10.8 133.2 
L 10.8 10.8 
" style="fill: none; stroke: #000000; stroke-width: 0.8; stroke-linejoin: miter; stroke-linecap: square"/>
   </g>
   <g id="patch_4">
    <path d="M 133.2 133.2 
L 133.2 10.8 
" style="fill: none; stroke: #000000; stroke-width: 0.8; stroke-linejoin: miter; stroke-linecap: square"/>
   </g>
   <g id="patch_5">
    <path d="M 10.8 133.2 
L 133.2 133.2 
" style="fill: none; stroke: #000000; stroke-width: 0.8; stroke-linejoin: miter; stroke-linecap: square"/>
   </g>
   <g id="patch_6">
    <path d="M 10.8 10.8 
L 133.2 10.8 
" style="fill: none; stroke: #000000; stroke-width: 0.8; stroke-linejoin: miter; stroke-linecap: square"/>
   </g>
  </g>
 </g>
 <defs>
  <clipPath id="pbdd352bb31">
   <rect x="10.8" y="10.8" width="122.4" height="122.4"/>
  </clipPath>
 </defs>
</svg>
