<?xml version="1.0" encoding="utf-8" standalone="no"?>
<!DOCTYPE svg PUBLIC "-//W3C//DTD SVG 1.1//EN"
  "http://www.w3.org/Graphics/SVG/1.1/DTD/svg11.dtd">
<svg xmlns:xlink="http://www.w3.org/1999/xlink" width="144pt" height="144pt" viewBox="0 0 144 144" xmlns="http://www.w3.org/2000/svg" version="1.1">
 <metadata>
  <rdf:RDF xmlns:dc="http://purl.org/dc/elements/1.1/" xmlns:cc="http://creativecommons.org/ns#" xmlns:rdf="http://www.w3.org/1999/02/22-rdf-syntax-ns#">
   <cc:Work>
    <dc:type rdf:resource="http://purl.org/dc/dcmitype/StillImage"/>
    <dc:date>2025-02-11T14:35:20.243520</dc:date>
    <dc:format>image/svg+xml</dc:format>
    <dc:creator>
     <cc:Agent>
      <dc:title>Matplotlib v3.8.0, https://matplotlib.org/</dc:title>
     </cc:Agent>
    </dc:creator>
   </cc:Work>
  </rdf:RDF>
 </metadata>
 <defs>
  <style type="text/css">*{stroke-linejoin: round; stroke-linecap: butt}</style>
 </defs>
 <g id="figure_1">
  <g id="patch_1">
   <path d="M 0 144 
L 144 144 
L 144 0 
L 0 0 
L 0 144 
z
" style="fill: none"/>
  </g>
  <g id="axes_1">
   <g id="patch_2">
    <path d="M 10.8 133.2 
L 133.2 133.2 
L 133.2 10.8 
L 10.8 10.8 
L 10.8 133.2 
z
" style="fill: none"/>
   </g>
   <g id="matplotlib.axis_1"/>
   <g id="matplotlib.axis_2"/>
   <g id="line2d_1">
    <path d="M 16.363636 88.902975 
L 16.472354 61.951457 
L 16.581072 77.650688 
L 16.635431 77.142861 
L 16.68979 86.764072 
L 16.907226 45.45326 
L 16.961585 41.483549 
L 17.124661 89.46905 
L 17.233379 61.344067 
L 17.287738 68.722336 
L 17.342097 83.759611 
L 17.396456 25.457195 
L 17.450815 65.70944 
L 17.559533 88.368609 
L 17.613892 68.152952 
L 17.668251 81.009324 
L 17.776969 75.710593 
L 17.831327 110.689529 
L 17.885686 87.051642 
L 18.103122 66.458785 
L 18.21184 53.766088 
L 18.320558 93.94143 
L 18.429276 62.464753 
L 18.483635 67.268386 
L 18.537994 67.836242 
L 18.592352 89.269367 
L 18.646711 71.20434 
L 18.70107 70.910806 
L 18.755429 58.631744 
L 18.809788 66.589793 
L 18.864147 84.101668 
L 18.918506 51.517451 
L 18.972865 63.750692 
L 19.027224 69.057517 
L 19.081583 92.015957 
L 19.135942 55.400327 
L 19.190301 57.028834 
L 19.24466 79.062207 
L 19.299019 68.076979 
L 19.353377 65.270292 
L 19.407736 83.812314 
L 19.462095 80.774648 
L 19.570813 56.307127 
L 19.625172 100.477679 
L 19.679531 83.902703 
L 19.73389 67.438895 
L 19.788249 81.871845 
L 19.842608 74.012658 
L 19.896967 78.482302 
L 19.951326 77.809497 
L 20.005685 77.851211 
L 20.060044 78.534586 
L 20.168761 58.465408 
L 20.277479 122.755594 
L 20.440556 61.337638 
L 20.494915 37.133875 
L 20.549274 53.288607 
L 20.712351 84.241993 
L 20.76671 70.845086 
L 20.821069 89.181765 
L 20.875427 80.939664 
L 20.984145 71.502024 
L 21.038504 91.961517 
L 21.092863 77.027706 
L 21.147222 45.765945 
L 21.25594 46.445889 
L 21.419017 73.014178 
L 21.473376 58.744717 
L 21.527735 94.451014 
L 21.582094 75.737445 
L 21.636452 79.350963 
L 21.690811 78.454386 
L 21.799529 71.274024 
L 21.853888 75.653512 
L 21.908247 91.501444 
L 21.962606 66.085192 
L 22.016965 89.209349 
L 22.071324 86.755542 
L 22.125683 64.309166 
L 22.180042 72.0048 
L 22.234401 95.638954 
L 22.343119 37.148268 
L 22.506195 93.59764 
L 22.560554 84.721071 
L 22.669272 29.581247 
L 22.723631 101.392019 
L 22.77799 33.459098 
L 22.995426 112.961883 
L 23.158502 67.271676 
L 23.26722 87.997189 
L 23.321579 64.879722 
L 23.375938 70.263508 
L 23.430297 91.715201 
L 23.484656 76.457114 
L 23.593374 43.771385 
L 23.756451 95.157678 
L 23.865169 85.414628 
L 23.919527 86.347429 
L 23.973886 54.265525 
L 24.028245 121.882178 
L 24.082604 53.618511 
L 24.136963 56.442384 
L 24.191322 110.558367 
L 24.245681 70.466722 
L 24.30004 65.144554 
L 24.517476 95.085535 
L 24.571835 67.106697 
L 24.626194 68.17648 
L 24.680552 94.247255 
L 24.734911 76.751142 
L 24.843629 91.220873 
L 25.061065 65.047234 
L 25.115424 94.466372 
L 25.169783 92.093272 
L 25.224142 87.942048 
L 25.278501 70.928773 
L 25.33286 80.974082 
L 25.441577 71.147232 
L 25.495936 93.854204 
L 25.550295 88.902145 
L 25.659013 70.399598 
L 25.713372 81.534881 
L 25.767731 102.035732 
L 25.930808 58.904151 
L 25.985167 90.720987 
L 26.039526 74.381785 
L 26.093885 86.385944 
L 26.256961 56.611971 
L 26.365679 92.947704 
L 26.420038 75.753486 
L 26.528756 77.164999 
L 26.583115 73.953558 
L 26.691833 53.440902 
L 26.746192 56.574325 
L 26.800551 78.258919 
L 26.85491 60.961114 
L 26.963627 90.501206 
L 27.017986 82.796175 
L 27.181063 51.998749 
L 27.235422 54.413168 
L 27.34414 75.179444 
L 27.398499 74.898829 
L 27.507217 49.046741 
L 27.670294 79.178671 
L 27.724652 58.278533 
L 27.83337 57.471521 
L 27.887729 88.463147 
L 27.942088 50.302669 
L 27.996447 81.254671 
L 28.159524 32.616541 
L 28.322601 96.744211 
L 28.37696 65.774077 
L 28.431319 66.894966 
L 28.485677 75.629781 
L 28.540036 70.20174 
L 28.594395 64.093899 
L 28.648754 96.610975 
L 28.703113 48.495333 
L 28.757472 75.125763 
L 28.811831 71.989913 
L 28.86619 56.861942 
L 28.920549 66.310896 
L 28.974908 66.462309 
L 29.029267 46.665577 
L 29.192344 93.838311 
L 29.409779 64.425368 
L 29.518497 101.303213 
L 29.627215 56.512008 
L 29.681574 96.335961 
L 29.735933 35.208245 
L 29.790292 92.553667 
L 29.89901 73.864472 
L 29.953369 93.29776 
L 30.007727 75.082231 
L 30.116445 91.412529 
L 30.225163 77.560398 
L 30.279522 108.174406 
L 30.38824 58.018518 
L 30.442599 68.157471 
L 30.496958 99.753199 
L 30.551317 66.32943 
L 30.605676 77.624271 
L 30.768752 84.985735 
L 30.87747 45.838733 
L 31.040547 88.969709 
L 31.149265 45.991733 
L 31.203624 55.522259 
L 31.257983 80.448981 
L 31.312342 70.652426 
L 31.366701 74.804277 
L 31.42106 60.475435 
L 31.475419 73.158643 
L 31.529778 89.178782 
L 31.584136 80.087166 
L 31.638495 55.03987 
L 31.747213 96.439046 
L 31.855931 37.64247 
L 31.964649 94.247763 
L 32.073367 59.043773 
L 32.127726 59.431992 
L 32.182085 84.638135 
L 32.236444 82.713955 
L 32.290803 69.152209 
L 32.345161 78.955128 
L 32.39952 91.727221 
L 32.453879 87.898719 
L 32.508238 48.64963 
L 32.562597 119.507598 
L 32.616956 75.189252 
L 32.671315 73.931963 
L 32.725674 86.002185 
L 32.834392 38.501366 
L 32.888751 90.57078 
L 32.997469 90.131944 
L 33.051828 78.71859 
L 33.106186 92.45466 
L 33.269263 50.912349 
L 33.323622 85.859347 
L 33.377981 80.480124 
L 33.43234 56.711627 
L 33.486699 65.334534 
L 33.649776 109.007714 
L 33.812853 61.070864 
L 33.867211 102.720041 
L 33.92157 76.732766 
L 33.975929 81.918532 
L 34.084647 64.486797 
L 34.139006 65.479568 
L 34.193365 85.012862 
L 34.247724 74.125388 
L 34.302083 63.002448 
L 34.356442 73.554392 
L 34.410801 81.217046 
L 34.46516 73.12521 
L 34.519519 76.449248 
L 34.573878 76.430943 
L 34.628236 73.199481 
L 34.682595 96.786479 
L 34.736954 64.700681 
L 34.791313 100.24605 
L 34.845672 77.841131 
L 34.900031 98.366413 
L 34.95439 63.623577 
L 35.008749 84.374994 
L 35.063108 86.230294 
L 35.117467 95.161988 
L 35.280544 73.399643 
L 35.334903 63.823601 
L 35.389261 87.05694 
L 35.44362 81.59254 
L 35.497979 58.553077 
L 35.606697 110.42694 
L 35.661056 104.450961 
L 35.769774 38.08118 
L 35.878492 91.480971 
L 36.095928 40.825951 
L 36.259004 72.904878 
L 36.313363 68.921246 
L 36.367722 38.134825 
L 36.47644 90.54664 
L 36.639517 54.443715 
L 36.693876 64.590621 
L 36.802594 86.911768 
L 36.856953 69.207008 
L 36.911311 73.351622 
L 37.020029 88.66878 
L 37.128747 16.363636 
L 37.183106 41.672171 
L 37.346183 112.861499 
L 37.400542 68.811438 
L 37.454901 84.618261 
L 37.617978 76.180566 
L 37.672336 83.091798 
L 37.726695 108.87111 
L 37.781054 104.240919 
L 37.889772 41.827567 
L 37.944131 75.133732 
L 37.99849 70.028625 
L 38.107208 99.346664 
L 38.161567 67.963843 
L 38.215926 107.157109 
L 38.270285 60.380504 
L 38.324644 71.566543 
L 38.379003 76.611794 
L 38.48772 48.013444 
L 38.596438 91.029777 
L 38.650797 43.243372 
L 38.705156 74.204823 
L 38.759515 69.866895 
L 38.813874 83.667892 
L 38.868233 78.929567 
L 39.03131 54.894706 
L 39.194386 74.585864 
L 39.248745 45.088785 
L 39.303104 112.860088 
L 39.357463 89.033476 
L 39.411822 65.356078 
L 39.466181 95.479005 
L 39.52054 74.246335 
L 39.574899 82.672489 
L 39.629258 75.567356 
L 39.792335 84.592052 
L 39.846694 80.46172 
L 39.901053 65.617914 
L 39.955411 72.522169 
L 40.00977 77.452599 
L 40.064129 65.663304 
L 40.118488 76.663892 
L 40.227206 94.962772 
L 40.281565 63.773642 
L 40.335924 86.407233 
L 40.390283 80.627108 
L 40.55336 95.101193 
L 40.607719 62.079888 
L 40.662078 85.249345 
L 40.716436 85.148491 
L 40.770795 85.706662 
L 40.825154 61.101576 
L 40.879513 62.456504 
L 41.04259 100.532588 
L 41.205667 35.619715 
L 41.260026 92.794297 
L 41.314385 91.021501 
L 41.423103 48.756745 
L 41.53182 95.699827 
L 41.586179 88.260697 
L 41.640538 105.570435 
L 41.803615 74.347032 
L 41.857974 77.491086 
L 41.966692 58.033738 
L 42.129769 92.295183 
L 42.238486 56.268767 
L 42.347204 89.813981 
L 42.401563 60.075937 
L 42.455922 80.373823 
L 42.510281 90.289134 
L 42.56464 71.553856 
L 42.618999 92.304288 
L 42.673358 57.116242 
L 42.727717 72.261617 
L 42.782076 86.720389 
L 42.836435 74.148819 
L 42.890794 61.576637 
L 42.945153 88.557778 
L 42.999511 74.029998 
L 43.05387 70.192089 
L 43.216947 87.463272 
L 43.271306 58.16753 
L 43.325665 71.516033 
L 43.434383 86.162666 
L 43.488742 81.759377 
L 43.543101 54.073677 
L 43.59746 67.703768 
L 43.651819 67.390596 
L 43.760536 79.313816 
L 43.814895 93.083564 
L 43.923613 63.855326 
L 43.977972 73.064951 
L 44.08669 92.847207 
L 44.249767 47.484421 
L 44.304126 86.449853 
L 44.358485 64.709878 
L 44.467203 80.417892 
L 44.521561 75.559999 
L 44.57592 106.342671 
L 44.738997 24.813017 
L 44.956433 73.403432 
L 45.010792 60.334859 
L 45.065151 90.039826 
L 45.11951 70.946592 
L 45.173869 67.628468 
L 45.282586 96.669809 
L 45.391304 70.009648 
L 45.445663 75.294759 
L 45.500022 67.288865 
L 45.554381 93.108108 
L 45.60874 62.568297 
L 45.663099 71.976102 
L 45.771817 88.093522 
L 45.826176 61.141432 
L 45.934894 94.854409 
L 45.989253 68.435359 
L 46.043611 82.46624 
L 46.09797 82.648548 
L 46.152329 74.871435 
L 46.206688 84.774012 
L 46.315406 52.836587 
L 46.369765 53.669757 
L 46.424124 110.323357 
L 46.478483 82.740359 
L 46.532842 91.458612 
L 46.64156 62.147949 
L 46.695919 63.870938 
L 46.750278 90.244639 
L 46.804636 75.955526 
L 46.858995 81.482928 
L 46.967713 56.952764 
L 47.13079 93.590042 
L 47.239508 53.507147 
L 47.402585 99.014599 
L 47.456944 64.148027 
L 47.511303 65.728743 
L 47.565662 66.998282 
L 47.62002 58.387048 
L 47.674379 81.807936 
L 47.728738 68.832313 
L 47.783097 65.113401 
L 47.837456 100.374922 
L 47.891815 84.047051 
L 47.946174 64.261481 
L 48.000533 106.79762 
L 48.054892 63.312316 
L 48.16361 95.432308 
L 48.272328 54.936603 
L 48.326687 97.871414 
L 48.381045 86.720348 
L 48.489763 59.525621 
L 48.544122 69.998442 
L 48.598481 71.650174 
L 48.65284 63.856566 
L 48.815917 90.285925 
L 48.924635 71.383715 
L 48.978994 43.431776 
L 49.087712 79.826878 
L 49.14207 40.638061 
L 49.196429 64.486499 
L 49.250788 45.658867 
L 49.305147 83.845464 
L 49.359506 53.797049 
L 49.413865 58.359903 
L 49.522583 93.839467 
L 49.576942 74.61859 
L 49.631301 97.137818 
L 49.68566 76.311957 
L 49.848737 92.318195 
L 49.957454 54.968217 
L 50.120531 80.317061 
L 50.17489 58.801348 
L 50.337967 91.818369 
L 50.392326 88.915055 
L 50.501044 61.950646 
L 50.609762 107.383868 
L 50.66412 65.130809 
L 50.718479 69.374587 
L 50.772838 68.911204 
L 50.827197 76.674045 
L 50.881556 110.348155 
L 50.935915 99.114055 
L 51.098992 60.088459 
L 51.153351 106.665238 
L 51.20771 62.732228 
L 51.262069 74.02899 
L 51.316428 51.469613 
L 51.370787 83.717204 
L 51.425145 39.685329 
L 51.479504 82.926859 
L 51.533863 91.094253 
L 51.588222 72.27081 
L 51.642581 88.032479 
L 51.69694 90.482162 
L 51.914376 43.489792 
L 52.023094 74.810019 
L 52.077453 33.28738 
L 52.18617 98.898925 
L 52.240529 70.938452 
L 52.294888 75.387531 
L 52.349247 84.268378 
L 52.457965 50.315281 
L 52.566683 88.819625 
L 52.621042 73.85281 
L 52.72976 100.585704 
L 52.838478 56.6296 
L 52.892837 88.705431 
L 52.947195 82.464073 
L 53.001554 83.708877 
L 53.055913 83.009843 
L 53.110272 59.661356 
L 53.164631 64.298418 
L 53.273349 95.864455 
L 53.327708 68.568684 
L 53.382067 69.101771 
L 53.490785 98.738789 
L 53.545144 43.283355 
L 53.599503 74.03871 
L 53.653862 46.839325 
L 53.70822 74.461078 
L 53.762579 89.477397 
L 53.816938 82.190205 
L 53.871297 49.476498 
L 53.925656 83.912578 
L 53.980015 79.572564 
L 54.143092 37.897722 
L 54.25181 101.4798 
L 54.306169 58.275405 
L 54.414887 59.701262 
L 54.523604 85.059683 
L 54.577963 70.453252 
L 54.632322 92.125285 
L 54.686681 73.664649 
L 54.74104 88.422188 
L 54.795399 69.638434 
L 54.849758 73.509719 
L 54.904117 73.687736 
L 55.012835 98.280041 
L 55.121553 49.452274 
L 55.175912 101.768216 
L 55.23027 99.442051 
L 55.338988 50.549924 
L 55.502065 82.586693 
L 55.610783 70.043728 
L 55.665142 38.615754 
L 55.719501 64.178995 
L 55.77386 63.513447 
L 55.828219 61.236431 
L 55.882578 66.695525 
L 55.991295 111.054554 
L 56.100013 64.510816 
L 56.154372 99.028226 
L 56.208731 73.55424 
L 56.26309 78.921882 
L 56.317449 72.446889 
L 56.371808 105.520442 
L 56.426167 96.014071 
L 56.480526 59.895621 
L 56.534885 74.747841 
L 56.589244 77.320412 
L 56.643603 74.712539 
L 56.697962 39.094237 
L 56.75232 61.777894 
L 56.806679 85.745137 
L 56.861038 56.997212 
L 56.915397 82.107693 
L 56.969756 69.69177 
L 57.024115 102.515986 
L 57.078474 57.479554 
L 57.132833 79.590524 
L 57.187192 76.291427 
L 57.241551 50.876126 
L 57.404628 91.521603 
L 57.458987 57.757601 
L 57.513345 86.520045 
L 57.622063 71.582061 
L 57.676422 89.165181 
L 57.730781 70.048463 
L 57.78514 95.483341 
L 57.839499 79.203503 
L 57.948217 87.734114 
L 58.056935 62.474101 
L 58.111294 73.690072 
L 58.165653 69.42617 
L 58.220012 57.85145 
L 58.27437 62.574125 
L 58.383088 95.050188 
L 58.491806 53.821935 
L 58.546165 70.014837 
L 58.600524 86.022838 
L 58.654883 73.460557 
L 58.709242 76.414007 
L 58.763601 47.118975 
L 58.81796 68.10243 
L 58.872319 63.641193 
L 58.981037 79.55078 
L 59.035395 77.164544 
L 59.089754 84.235279 
L 59.198472 58.377491 
L 59.252831 89.151865 
L 59.30719 71.274078 
L 59.361549 80.548542 
L 59.415908 74.009521 
L 59.470267 55.719309 
L 59.524626 89.369132 
L 59.578985 73.181876 
L 59.633344 81.133869 
L 59.687703 52.023819 
L 59.742062 97.871181 
L 59.79642 65.108913 
L 59.850779 66.33046 
L 59.905138 54.222854 
L 59.959497 113.882342 
L 60.013856 57.215462 
L 60.122574 82.090025 
L 60.285651 41.103583 
L 60.394369 61.090411 
L 60.448728 49.197592 
L 60.503087 85.747071 
L 60.557445 65.267542 
L 60.611804 45.398654 
L 60.774881 103.246381 
L 60.82924 97.644108 
L 60.937958 42.18681 
L 61.046676 84.535341 
L 61.209753 40.081552 
L 61.264112 83.97897 
L 61.31847 56.849033 
L 61.372829 63.080012 
L 61.427188 91.276778 
L 61.481547 54.973618 
L 61.535906 73.932049 
L 61.590265 76.378732 
L 61.753342 103.239132 
L 61.807701 47.726209 
L 61.86206 71.368226 
L 61.970778 95.247861 
L 62.025137 55.150966 
L 62.079495 64.074186 
L 62.242572 96.128925 
L 62.296931 87.038095 
L 62.35129 74.58302 
L 62.405649 94.918841 
L 62.460008 74.964919 
L 62.514367 66.522902 
L 62.568726 68.680512 
L 62.677444 87.089768 
L 62.786162 53.672186 
L 62.894879 76.0908 
L 62.949238 61.775006 
L 63.003597 75.744613 
L 63.057956 102.145501 
L 63.112315 82.975495 
L 63.166674 69.566996 
L 63.221033 109.733317 
L 63.38411 44.06525 
L 63.547187 83.355232 
L 63.601545 56.500662 
L 63.655904 63.774914 
L 63.710263 106.799515 
L 63.764622 73.265292 
L 63.818981 85.508491 
L 63.87334 69.054306 
L 63.927699 86.808913 
L 63.982058 79.178948 
L 64.036417 85.210302 
L 64.090776 63.066296 
L 64.145135 85.248563 
L 64.199494 81.844889 
L 64.253853 90.478204 
L 64.471288 51.882166 
L 64.688724 98.053305 
L 64.743083 82.689706 
L 64.90616 53.461234 
L 64.960519 58.095155 
L 65.014878 45.765928 
L 65.069237 53.589382 
L 65.232313 80.365508 
L 65.39539 50.434418 
L 65.449749 75.712366 
L 65.504108 51.091582 
L 65.612826 96.240162 
L 65.721544 52.341375 
L 65.775903 70.39767 
L 65.830262 59.800013 
L 65.938979 44.613503 
L 66.047697 103.698317 
L 66.102056 71.309357 
L 66.156415 89.004804 
L 66.210774 88.079553 
L 66.265133 82.893452 
L 66.373851 60.281706 
L 66.42821 64.243949 
L 66.591287 88.172713 
L 66.645646 71.898634 
L 66.700004 73.279257 
L 66.754363 79.916889 
L 66.808722 53.35293 
L 66.863081 75.143913 
L 66.91744 78.123011 
L 66.971799 66.709027 
L 67.026158 83.286647 
L 67.134876 58.081454 
L 67.297953 91.547628 
L 67.352312 45.738646 
L 67.406671 73.439797 
L 67.461029 75.863449 
L 67.624106 58.457682 
L 67.678465 62.290281 
L 67.732824 80.349337 
L 67.787183 56.246089 
L 67.841542 61.84893 
L 68.004619 89.5401 
L 68.113337 48.299408 
L 68.167696 65.981228 
L 68.222054 99.021166 
L 68.276413 79.815922 
L 68.43949 43.640018 
L 68.493849 47.406805 
L 68.656926 79.005455 
L 68.711285 72.81708 
L 68.765644 97.707987 
L 68.820003 89.077704 
L 68.928721 89.755202 
L 68.983079 64.438968 
L 69.037438 84.274174 
L 69.091797 63.666779 
L 69.146156 64.713035 
L 69.200515 89.133202 
L 69.309233 46.767617 
L 69.363592 97.866698 
L 69.417951 76.372192 
L 69.47231 64.310221 
L 69.526669 67.452608 
L 69.689746 79.550341 
L 69.744104 47.917181 
L 69.798463 63.264864 
L 69.96154 77.483633 
L 70.124617 66.748303 
L 70.178976 81.728049 
L 70.233335 57.862228 
L 70.287694 91.939354 
L 70.342053 60.788448 
L 70.450771 63.557676 
L 70.559488 78.944404 
L 70.613847 76.724133 
L 70.668206 76.577724 
L 70.722565 98.884419 
L 70.776924 54.27408 
L 70.831283 90.028919 
L 70.99436 54.591239 
L 71.157437 83.992231 
L 71.211796 59.387781 
L 71.266154 84.540439 
L 71.374872 63.725212 
L 71.429231 72.079682 
L 71.48359 81.463952 
L 71.537949 67.378745 
L 71.592308 84.224732 
L 71.646667 62.980725 
L 71.701026 65.613297 
L 71.755385 94.310135 
L 71.809744 53.654871 
L 71.864103 89.030127 
L 71.972821 63.446557 
L 72.027179 91.349756 
L 72.081538 79.925772 
L 72.135897 80.402417 
L 72.190256 69.312326 
L 72.298974 99.269156 
L 72.462051 63.340062 
L 72.570769 87.024631 
L 72.625128 80.241374 
L 72.679487 80.047988 
L 72.733846 59.891208 
L 72.896922 99.578329 
L 73.059999 61.756069 
L 73.114358 69.81473 
L 73.168717 72.366171 
L 73.223076 49.411674 
L 73.277435 85.172146 
L 73.331794 65.042208 
L 73.386153 80.325927 
L 73.440512 74.442453 
L 73.494871 49.431938 
L 73.549229 68.40126 
L 73.603588 71.277664 
L 73.657947 69.563976 
L 73.712306 88.133806 
L 73.766665 79.885941 
L 73.821024 82.658085 
L 73.875383 72.894606 
L 73.929742 81.612417 
L 73.984101 84.439299 
L 74.03846 84.02846 
L 74.092819 82.773278 
L 74.147178 73.460295 
L 74.201537 44.467065 
L 74.255896 60.580379 
L 74.310254 63.584889 
L 74.364613 59.5802 
L 74.52769 100.46981 
L 74.582049 96.818679 
L 74.853844 41.794007 
L 75.071279 84.948057 
L 75.125638 67.795841 
L 75.179997 81.035338 
L 75.234356 68.936564 
L 75.288715 71.644151 
L 75.343074 81.989359 
L 75.451792 46.119809 
L 75.506151 77.245894 
L 75.56051 68.133199 
L 75.723587 54.849332 
L 75.832304 84.496961 
L 75.886663 56.628535 
L 75.941022 69.18498 
L 76.104099 86.422793 
L 76.212817 65.294013 
L 76.267176 127.636364 
L 76.321535 75.550704 
L 76.375894 99.737528 
L 76.430253 99.137194 
L 76.702047 53.111509 
L 76.810765 81.052698 
L 76.865124 69.277815 
L 76.919483 90.191048 
L 76.973842 84.237423 
L 77.028201 45.75796 
L 77.08256 54.62698 
L 77.136919 108.63551 
L 77.191278 73.083243 
L 77.245637 79.415979 
L 77.299996 53.418385 
L 77.354354 108.617646 
L 77.408713 64.895228 
L 77.463072 59.232903 
L 77.626149 86.171153 
L 77.680508 57.045767 
L 77.734867 77.685943 
L 77.789226 95.552695 
L 77.952303 56.59084 
L 78.006662 88.256271 
L 78.061021 75.970645 
L 78.115379 46.516209 
L 78.169738 66.223534 
L 78.224097 90.301061 
L 78.278456 83.170973 
L 78.332815 64.020969 
L 78.387174 85.145413 
L 78.495892 47.115099 
L 78.658969 87.049639 
L 78.822046 42.917579 
L 78.985122 94.080383 
L 79.148199 52.553039 
L 79.202558 76.550237 
L 79.256917 65.231187 
L 79.311276 71.511734 
L 79.365635 61.836446 
L 79.419994 91.465997 
L 79.474353 57.128489 
L 79.528712 77.998105 
L 79.583071 61.61954 
L 79.637429 87.700704 
L 79.691788 53.291015 
L 79.746147 70.670607 
L 79.800506 71.615932 
L 79.854865 100.541551 
L 79.909224 63.337249 
L 79.963583 79.96415 
L 80.072301 88.827351 
L 80.12666 44.333163 
L 80.181019 72.176035 
L 80.235378 78.344668 
L 80.289737 104.062104 
L 80.344096 80.487037 
L 80.561531 52.889923 
L 80.724608 94.461826 
L 80.833326 89.203552 
L 80.887685 61.039617 
L 80.942044 67.726523 
L 81.050762 84.972043 
L 81.213838 41.702437 
L 81.376915 87.984934 
L 81.485633 63.301224 
L 81.539992 89.860696 
L 81.594351 73.192014 
L 81.64871 71.065338 
L 81.703069 73.990599 
L 81.757428 65.077707 
L 81.811787 79.210644 
L 81.866146 73.468841 
L 81.920505 50.931978 
L 82.083581 81.647954 
L 82.13794 53.220366 
L 82.192299 77.006526 
L 82.246658 91.153428 
L 82.301017 65.665891 
L 82.355376 80.459297 
L 82.409735 80.191681 
L 82.518453 53.408205 
L 82.572812 61.737816 
L 82.627171 61.810754 
L 82.68153 76.336041 
L 82.735888 73.77605 
L 82.790247 69.324333 
L 83.007683 93.468539 
L 83.062042 73.924357 
L 83.116401 90.357998 
L 83.17076 103.981459 
L 83.225119 50.825643 
L 83.279478 61.413874 
L 83.442555 102.007135 
L 83.551272 60.664027 
L 83.605631 85.905746 
L 83.65999 69.177323 
L 83.714349 83.238547 
L 83.768708 69.774914 
L 83.823067 78.009239 
L 83.877426 72.760168 
L 83.931785 63.005462 
L 83.986144 68.210441 
L 84.040503 68.68972 
L 84.094862 56.293971 
L 84.149221 78.726455 
L 84.20358 65.993626 
L 84.257938 46.30571 
L 84.312297 71.055479 
L 84.366656 43.038897 
L 84.475374 80.518445 
L 84.638451 48.436932 
L 84.69281 93.963905 
L 84.747169 92.617007 
L 84.801528 61.351192 
L 84.855887 64.34057 
L 84.910246 93.15218 
L 84.964605 89.984873 
L 85.018963 50.712632 
L 85.073322 79.569987 
L 85.18204 61.355603 
L 85.236399 67.891807 
L 85.290758 97.206951 
L 85.345117 59.937608 
L 85.399476 60.374832 
L 85.453835 93.332924 
L 85.508194 89.194424 
L 85.671271 53.787854 
L 85.779988 76.549534 
L 85.834347 66.81586 
L 85.888706 72.587927 
L 85.997424 49.162649 
L 86.051783 54.334797 
L 86.323578 81.950621 
L 86.377937 63.905801 
L 86.432296 102.339372 
L 86.486655 65.135289 
L 86.649731 72.917479 
L 86.70409 72.068033 
L 86.758449 61.659537 
L 86.812808 108.118267 
L 86.867167 79.500976 
L 86.921526 53.84963 
L 86.975885 64.915952 
L 87.138962 95.03236 
L 87.193321 82.091139 
L 87.24768 108.168747 
L 87.302038 97.682264 
L 87.356397 93.612211 
L 87.519474 56.689848 
L 87.573833 86.610174 
L 87.628192 83.748482 
L 87.682551 66.72509 
L 87.73691 71.453378 
L 87.791269 80.14814 
L 87.845628 39.661949 
L 87.899987 59.809404 
L 88.008705 43.976362 
L 88.117422 81.439658 
L 88.22614 76.435047 
L 88.280499 77.382364 
L 88.334858 61.229227 
L 88.389217 80.981471 
L 88.443576 77.24151 
L 88.497935 74.571653 
L 88.552294 83.797422 
L 88.606653 57.524981 
L 88.661012 65.99179 
L 88.715371 66.692412 
L 88.76973 69.807443 
L 88.932806 94.774553 
L 89.095883 65.434735 
L 89.150242 81.78446 
L 89.204601 56.01439 
L 89.25896 70.593285 
L 89.476396 88.553425 
L 89.585113 49.897882 
L 89.639472 85.323349 
L 89.693831 35.381845 
L 89.74819 90.23109 
L 89.802549 79.172632 
L 89.856908 69.363904 
L 89.911267 78.639339 
L 89.965626 80.284841 
L 90.019985 60.214693 
L 90.074344 76.194204 
L 90.128703 97.035905 
L 90.183062 71.858336 
L 90.237421 92.543461 
L 90.400497 51.769222 
L 90.454856 61.278802 
L 90.509215 62.441859 
L 90.563574 76.661263 
L 90.617933 70.677206 
L 90.672292 72.480283 
L 90.726651 71.034778 
L 90.78101 55.181797 
L 90.835369 95.072988 
L 90.889728 84.562358 
L 91.052805 41.78001 
L 91.107163 71.256849 
L 91.161522 57.153605 
L 91.433317 78.941001 
L 91.542035 63.343807 
L 91.596394 80.742659 
L 91.650753 19.995714 
L 91.705112 76.561714 
L 91.759471 86.283235 
L 91.81383 75.317326 
L 91.922547 98.10184 
L 92.031265 40.414267 
L 92.085624 68.284656 
L 92.139983 60.42731 
L 92.194342 62.381704 
L 92.248701 104.758291 
L 92.30306 64.359051 
L 92.357419 84.030582 
L 92.411778 57.752273 
L 92.466137 74.955131 
L 92.520496 71.109308 
L 92.629213 103.702947 
L 92.683572 68.912683 
L 92.737931 110.502309 
L 92.79229 41.608067 
L 92.846649 90.685587 
L 92.901008 98.288474 
L 92.955367 55.362117 
L 93.009726 102.347021 
L 93.064085 64.521812 
L 93.118444 69.00321 
L 93.172803 61.43757 
L 93.227162 66.737817 
L 93.281521 87.173662 
L 93.33588 75.401499 
L 93.390238 84.812402 
L 93.498956 30.924291 
L 93.553315 98.508721 
L 93.607674 63.355476 
L 93.662033 67.627295 
L 93.716392 61.325118 
L 93.879469 87.562165 
L 93.988187 55.620161 
L 94.042546 61.92089 
L 94.151263 100.396272 
L 94.205622 50.739841 
L 94.259981 84.680383 
L 94.31434 65.57717 
L 94.368699 72.258219 
L 94.423058 66.867307 
L 94.477417 47.482981 
L 94.640494 99.577144 
L 94.803571 56.816433 
L 94.912288 70.656017 
L 94.966647 67.384456 
L 95.021006 83.142678 
L 95.075365 78.144704 
L 95.184083 63.852238 
L 95.238442 104.174111 
L 95.292801 87.914594 
L 95.34716 92.671961 
L 95.510237 37.448871 
L 95.564596 42.761969 
L 95.618955 83.360931 
L 95.673313 82.093935 
L 95.727672 79.543038 
L 95.782031 101.132893 
L 95.945108 59.86699 
L 95.999467 52.683064 
L 96.162544 99.826084 
L 96.216903 93.464538 
L 96.37998 61.71976 
L 96.434338 56.882436 
L 96.488697 81.819052 
L 96.543056 60.306479 
L 96.597415 62.255332 
L 96.706133 91.999182 
L 96.86921 30.204668 
L 96.923569 106.853783 
L 96.977928 72.563016 
L 97.032287 82.909783 
L 97.086646 67.274673 
L 97.141005 82.449835 
L 97.195364 76.246238 
L 97.249722 84.931016 
L 97.304081 61.794421 
L 97.35844 65.09781 
L 97.412799 77.013351 
L 97.467158 50.817754 
L 97.521517 57.695026 
L 97.575876 71.364552 
L 97.630235 58.632199 
L 97.684594 67.701097 
L 97.738953 95.72862 
L 97.793312 44.4378 
L 97.847671 97.355445 
L 97.90203 78.383943 
L 97.956389 79.852872 
L 98.010747 97.451601 
L 98.119465 48.952409 
L 98.173824 65.102213 
L 98.228183 55.653592 
L 98.445619 82.977844 
L 98.499978 65.260825 
L 98.554337 89.226874 
L 98.608696 84.540746 
L 98.663055 58.263312 
L 98.717414 62.716499 
L 98.771772 86.657346 
L 98.826131 86.239451 
L 98.88049 72.12472 
L 98.934849 91.867909 
L 98.989208 64.295528 
L 99.043567 75.093368 
L 99.097926 76.544088 
L 99.152285 58.989093 
L 99.315362 93.180275 
L 99.369721 58.735192 
L 99.42408 96.843213 
L 99.478439 90.492496 
L 99.532797 53.58414 
L 99.587156 101.482409 
L 99.641515 68.747275 
L 99.804592 105.309125 
L 99.967669 66.975357 
L 100.022028 93.284802 
L 100.076387 69.276181 
L 100.185105 68.810107 
L 100.239464 82.139444 
L 100.293822 79.741611 
L 100.40254 63.463623 
L 100.456899 66.735404 
L 100.511258 62.338702 
L 100.565617 87.527463 
L 100.619976 57.788535 
L 100.674335 72.137945 
L 100.728694 78.722048 
L 100.783053 76.108688 
L 100.837412 47.936965 
L 100.94613 82.923646 
L 101.000489 79.141214 
L 101.054847 83.964213 
L 101.217924 55.295074 
L 101.272283 46.018788 
L 101.326642 111.150675 
L 101.381001 59.750601 
L 101.489719 79.23466 
L 101.544078 70.34862 
L 101.652796 91.483019 
L 101.870231 49.689328 
L 101.92459 57.297536 
L 101.978949 81.682483 
L 102.033308 67.596485 
L 102.142026 71.930977 
L 102.196385 68.654085 
L 102.250744 101.11709 
L 102.413821 60.353145 
L 102.46818 41.179086 
L 102.576897 80.457918 
L 102.631256 74.876253 
L 102.739974 100.111467 
L 102.794333 57.318382 
L 102.848692 84.453559 
L 102.903051 79.937098 
L 102.95741 62.058249 
L 103.011769 75.754611 
L 103.066128 90.156805 
L 103.174846 61.045198 
L 103.229205 69.085864 
L 103.283564 82.325422 
L 103.337922 46.400718 
L 103.392281 64.191768 
L 103.44664 54.96807 
L 103.555358 87.064461 
L 103.609717 74.380143 
L 103.664076 80.357136 
L 103.827153 64.876414 
L 103.881512 83.451539 
L 103.935871 53.150086 
L 103.99023 68.102098 
L 104.044589 80.820326 
L 104.098947 78.182612 
L 104.153306 74.764448 
L 104.262024 87.49989 
L 104.316383 69.732174 
L 104.425101 70.508925 
L 104.47946 77.325396 
L 104.642537 53.735971 
L 104.696896 55.267554 
L 104.805614 76.778389 
L 104.859972 69.415521 
L 105.077408 46.982374 
L 105.131767 94.590721 
L 105.186126 74.513604 
L 105.240485 69.224143 
L 105.349203 42.336187 
L 105.51228 110.3602 
L 105.566639 48.523214 
L 105.620997 92.195457 
L 105.729715 46.632146 
L 105.838433 57.768409 
L 105.947151 78.248448 
L 106.00151 56.064514 
L 106.055869 87.930049 
L 106.110228 78.186858 
L 106.164587 85.003027 
L 106.327664 57.007379 
L 106.382022 71.393495 
L 106.436381 65.185558 
L 106.49074 68.35092 
L 106.653817 113.568882 
L 106.708176 60.293385 
L 106.762535 93.038975 
L 106.871253 48.995218 
L 107.03433 86.820427 
L 107.088689 53.37016 
L 107.197406 54.84055 
L 107.251765 79.635336 
L 107.306124 79.130406 
L 107.360483 66.140522 
L 107.414842 94.187083 
L 107.469201 81.649113 
L 107.52356 69.304337 
L 107.577919 91.93849 
L 107.632278 63.726974 
L 107.686637 77.240886 
L 107.740996 67.828584 
L 107.849714 85.288452 
L 107.958431 52.982822 
L 108.01279 62.619992 
L 108.067149 81.165254 
L 108.121508 57.6372 
L 108.175867 73.48025 
L 108.284585 81.188327 
L 108.338944 69.808493 
L 108.393303 77.443435 
L 108.55638 87.236796 
L 108.610739 36.09773 
L 108.665097 102.876829 
L 108.719456 60.443962 
L 108.773815 54.245722 
L 108.936892 84.707255 
L 109.04561 53.365775 
L 109.154328 92.65163 
L 109.208687 41.680228 
L 109.263046 70.14789 
L 109.371764 81.878306 
L 109.426122 71.717993 
L 109.589199 82.891218 
L 109.643558 82.518229 
L 109.697917 98.273626 
L 109.806635 70.153747 
L 109.860994 93.773306 
L 109.915353 39.191771 
L 109.969712 69.279122 
L 110.024071 55.103854 
L 110.07843 63.611143 
L 110.132789 62.601846 
L 110.187147 39.797519 
L 110.350224 95.833149 
L 110.404583 69.109373 
L 110.458942 107.998847 
L 110.513301 77.778842 
L 110.56766 75.136423 
L 110.622019 44.708482 
L 110.676378 63.344538 
L 110.785096 81.597423 
L 110.893814 71.196757 
L 110.948172 79.991495 
L 111.111249 43.151216 
L 111.274326 96.120317 
L 111.328685 44.973001 
L 111.383044 51.742698 
L 111.437403 90.103525 
L 111.491762 85.795714 
L 111.546121 60.246585 
L 111.60048 93.288913 
L 111.654839 67.780202 
L 111.709197 79.817092 
L 111.817915 51.5261 
L 111.872274 58.030706 
L 111.926633 52.289314 
L 112.08971 91.06633 
L 112.198428 62.585408 
L 112.361505 66.906596 
L 112.415864 86.292448 
L 112.470222 76.239523 
L 112.524581 75.339273 
L 112.57894 71.260528 
L 112.633299 53.164864 
L 112.687658 80.658709 
L 112.742017 66.242841 
L 112.850735 65.684192 
L 112.959453 54.303716 
L 113.176889 88.211482 
L 113.231248 86.043726 
L 113.285606 57.294325 
L 113.339965 66.629985 
L 113.394324 103.948771 
L 113.448683 80.607346 
L 113.503042 60.69614 
L 113.557401 62.480034 
L 113.720478 80.681229 
L 113.774837 87.649029 
L 113.937914 45.277365 
L 114.155349 75.915979 
L 114.209708 53.393076 
L 114.264067 75.294384 
L 114.318426 79.184704 
L 114.372785 106.654007 
L 114.535862 64.415949 
L 114.64458 83.507509 
L 114.698939 82.361499 
L 114.862015 75.921051 
L 114.916374 76.568814 
L 114.970733 101.529031 
L 115.079451 101.26562 
L 115.296887 51.890427 
L 115.351246 97.438867 
L 115.405605 61.443922 
L 115.459964 70.14057 
L 115.514323 101.917423 
L 115.568681 47.487454 
L 115.62304 65.341869 
L 115.677399 77.239298 
L 115.731758 36.145826 
L 115.840476 102.760306 
L 115.894835 84.232481 
L 115.949194 69.401675 
L 116.003553 83.475359 
L 116.057912 117.956291 
L 116.16663 33.446113 
L 116.275348 92.239798 
L 116.329706 81.570565 
L 116.384065 79.430772 
L 116.492783 87.043385 
L 116.601501 63.603188 
L 116.65586 83.612091 
L 116.710219 62.979222 
L 116.764578 43.944235 
L 116.818937 56.524616 
L 116.982014 81.797367 
L 117.090731 62.636317 
L 117.14509 87.708174 
L 117.199449 74.610932 
L 117.253808 67.893914 
L 117.308167 77.559557 
L 117.362526 57.803978 
L 117.416885 100.280753 
L 117.471244 72.125062 
L 117.525603 72.267074 
L 117.579962 53.468632 
L 117.634321 66.288795 
L 117.743039 75.586932 
L 117.797398 66.763389 
L 117.851756 85.030706 
L 117.906115 56.748604 
L 117.960474 88.754775 
L 118.014833 84.636283 
L 118.069192 83.602511 
L 118.123551 62.653133 
L 118.17791 67.590547 
L 118.286628 110.072022 
L 118.340987 45.786312 
L 118.395346 74.102947 
L 118.449705 83.54095 
L 118.504064 50.505494 
L 118.558423 67.123625 
L 118.721499 86.869547 
L 118.775858 61.046103 
L 118.830217 81.826423 
L 118.884576 82.319531 
L 118.938935 80.888253 
L 119.102012 58.52035 
L 119.156371 95.665904 
L 119.21073 64.362542 
L 119.428165 92.969932 
L 119.482524 58.449093 
L 119.536883 71.964893 
L 119.591242 63.629846 
L 119.645601 84.196297 
L 119.69996 61.171134 
L 119.754319 77.509722 
L 119.863037 60.596253 
L 119.971755 89.824111 
L 120.080473 50.567488 
L 120.18919 78.799941 
L 120.243549 64.304544 
L 120.297908 68.281468 
L 120.406626 98.656378 
L 120.460985 42.578173 
L 120.515344 73.681596 
L 120.569703 102.109095 
L 120.624062 74.368923 
L 120.678421 75.201016 
L 120.841498 53.249853 
L 121.004574 93.565636 
L 121.058933 90.525126 
L 121.113292 66.444184 
L 121.167651 73.190478 
L 121.22201 89.774511 
L 121.276369 58.381062 
L 121.330728 89.90524 
L 121.385087 93.549278 
L 121.439446 69.346 
L 121.493805 70.845493 
L 121.548164 72.541833 
L 121.602523 86.645041 
L 121.656881 81.084136 
L 121.819958 46.631673 
L 121.874317 55.357648 
L 121.928676 88.89587 
L 121.983035 54.188557 
L 122.037394 84.078962 
L 122.091753 80.407222 
L 122.146112 73.027239 
L 122.200471 44.647039 
L 122.25483 62.393731 
L 122.309189 83.151896 
L 122.363548 67.30775 
L 122.417906 30.940383 
L 122.472265 64.913226 
L 122.689701 90.461652 
L 122.852778 57.715488 
L 122.961496 100.535632 
L 123.015855 62.788414 
L 123.070214 79.603054 
L 123.178931 100.276011 
L 123.342008 65.929205 
L 123.396367 77.846446 
L 123.450726 63.507 
L 123.613803 98.203297 
L 123.668162 63.232213 
L 123.722521 66.589603 
L 123.831239 87.094617 
L 123.885598 99.046663 
L 123.939956 68.984134 
L 123.994315 72.898162 
L 124.103033 85.649173 
L 124.211751 67.987401 
L 124.26611 73.73161 
L 124.320469 105.608085 
L 124.483546 53.41249 
L 124.592264 83.708653 
L 124.646623 79.607078 
L 124.700981 89.639975 
L 124.75534 50.120902 
L 124.809699 85.941511 
L 124.918417 61.942272 
L 125.081494 101.588004 
L 125.244571 57.790033 
L 125.29893 52.080914 
L 125.407648 87.523967 
L 125.516365 54.571354 
L 125.570724 55.759066 
L 125.733801 87.735264 
L 125.78816 62.697143 
L 125.842519 63.093555 
L 125.896878 91.480657 
L 125.951237 91.267614 
L 126.168673 77.799429 
L 126.223031 77.104807 
L 126.331749 84.70199 
L 126.440467 56.723537 
L 126.494826 108.185216 
L 126.549185 73.768557 
L 126.603544 75.621286 
L 126.657903 68.694716 
L 126.712262 74.0042 
L 126.766621 73.628066 
L 126.82098 93.661599 
L 126.875339 81.918736 
L 126.984056 76.422506 
L 127.092774 91.538091 
L 127.147133 89.445764 
L 127.255851 47.357527 
L 127.31021 69.097176 
L 127.364569 89.033126 
L 127.418928 73.710554 
L 127.473287 67.377223 
L 127.527646 89.020155 
L 127.582005 78.55471 
L 127.636364 74.4108 
L 127.636364 74.4108 
" clip-path="url(#p154fe49f24)" style="fill: none; stroke: #ffd92f; stroke-width: 1.5; stroke-linecap: square"/>
   </g>
   <g id="patch_3">
    <path d="M 10.8 133.2 
L 10.8 10.8 
" style="fill: none; stroke: #000000; stroke-width: 0.8; stroke-linejoin: miter; stroke-linecap: square"/>
   </g>
   <g id="patch_4">
    <path d="M 133.2 133.2 
L 133.2 10.8 
" style="fill: none; stroke: #000000; stroke-width: 0.8; stroke-linejoin: miter; stroke-linecap: square"/>
   </g>
   <g id="patch_5">
    <path d="M 10.8 133.2 
L 133.2 133.2 
" style="fill: none; stroke: #000000; stroke-width: 0.8; stroke-linejoin: miter; stroke-linecap: square"/>
   </g>
   <g id="patch_6">
    <path d="M 10.8 10.8 
L 133.2 10.8 
" style="fill: none; stroke: #000000; stroke-width: 0.8; stroke-linejoin: miter; stroke-linecap: square"/>
   </g>
  </g>
 </g>
 <defs>
  <clipPath id="p154fe49f24">
   <rect x="10.8" y="10.8" width="122.4" height="122.4"/>
  </clipPath>
 </defs>
</svg>
