<?xml version="1.0" encoding="utf-8" standalone="no"?>
<!DOCTYPE svg PUBLIC "-//W3C//DTD SVG 1.1//EN"
  "http://www.w3.org/Graphics/SVG/1.1/DTD/svg11.dtd">
<svg xmlns:xlink="http://www.w3.org/1999/xlink" width="144pt" height="144pt" viewBox="0 0 144 144" xmlns="http://www.w3.org/2000/svg" version="1.1">
 <metadata>
  <rdf:RDF xmlns:dc="http://purl.org/dc/elements/1.1/" xmlns:cc="http://creativecommons.org/ns#" xmlns:rdf="http://www.w3.org/1999/02/22-rdf-syntax-ns#">
   <cc:Work>
    <dc:type rdf:resource="http://purl.org/dc/dcmitype/StillImage"/>
    <dc:date>2025-02-07T11:07:19.787951</dc:date>
    <dc:format>image/svg+xml</dc:format>
    <dc:creator>
     <cc:Agent>
      <dc:title>Matplotlib v3.8.0, https://matplotlib.org/</dc:title>
     </cc:Agent>
    </dc:creator>
   </cc:Work>
  </rdf:RDF>
 </metadata>
 <defs>
  <style type="text/css">*{stroke-linejoin: round; stroke-linecap: butt}</style>
 </defs>
 <g id="figure_1">
  <g id="patch_1">
   <path d="M 0 144 
L 144 144 
L 144 0 
L 0 0 
L 0 144 
z
" style="fill: none"/>
  </g>
  <g id="axes_1">
   <g id="patch_2">
    <path d="M 10.8 133.2 
L 133.2 133.2 
L 133.2 10.8 
L 10.8 10.8 
L 10.8 133.2 
z
" style="fill: none"/>
   </g>
   <g id="matplotlib.axis_1"/>
   <g id="matplotlib.axis_2"/>
   <g id="line2d_1">
    <path d="M 16.363636 85.343791 
L 16.417995 61.020313 
L 16.472354 69.130783 
L 16.581072 56.724886 
L 16.744149 84.135392 
L 16.852867 72.164999 
L 16.961585 81.568283 
L 17.015944 56.771246 
L 17.070302 93.985801 
L 17.124661 88.821137 
L 17.17902 68.468674 
L 17.233379 72.723729 
L 17.342097 115.956698 
L 17.559533 58.70959 
L 17.668251 99.135353 
L 17.72261 81.315693 
L 17.776969 68.763193 
L 17.831327 71.011336 
L 17.885686 74.440748 
L 17.940045 90.325564 
L 18.103122 50.311262 
L 18.157481 84.76827 
L 18.21184 65.210609 
L 18.266199 81.091632 
L 18.320558 67.112304 
L 18.374917 60.565655 
L 18.429276 38.860333 
L 18.592352 82.463268 
L 18.646711 67.87432 
L 18.70107 85.364579 
L 18.755429 84.535605 
L 18.809788 71.972201 
L 18.864147 77.242186 
L 18.918506 79.866482 
L 18.972865 100.885128 
L 19.027224 53.463975 
L 19.081583 93.149402 
L 19.190301 73.030028 
L 19.407736 101.676318 
L 19.462095 99.355161 
L 19.516454 67.684488 
L 19.570813 69.096817 
L 19.625172 70.871789 
L 19.679531 86.687363 
L 19.73389 82.126417 
L 19.788249 76.965379 
L 19.842608 89.074098 
L 19.896967 87.15298 
L 19.951326 86.074612 
L 20.060044 72.229384 
L 20.114402 109.118966 
L 20.168761 73.934568 
L 20.331838 98.498196 
L 20.603633 61.132668 
L 20.657992 77.743159 
L 20.712351 51.578003 
L 20.76671 115.853315 
L 20.821069 75.762779 
L 20.875427 69.022598 
L 20.929786 104.799925 
L 20.984145 52.398016 
L 21.038504 73.857698 
L 21.092863 72.432966 
L 21.147222 95.94924 
L 21.201581 77.568515 
L 21.25594 89.101593 
L 21.310299 25.615337 
L 21.364658 63.216865 
L 21.473376 88.137862 
L 21.527735 66.011099 
L 21.582094 83.407383 
L 21.636452 77.730844 
L 21.799529 91.888198 
L 21.853888 91.272034 
L 21.908247 99.408407 
L 22.016965 63.07168 
L 22.071324 123.459208 
L 22.125683 107.625509 
L 22.28876 52.692916 
L 22.397477 87.252665 
L 22.451836 84.336467 
L 22.506195 61.583443 
L 22.560554 84.58988 
L 22.614913 87.178333 
L 22.669272 43.629874 
L 22.723631 70.658128 
L 22.832349 112.47443 
L 22.941067 72.295557 
L 22.995426 77.032608 
L 23.049785 65.511082 
L 23.104144 106.047727 
L 23.158502 49.346946 
L 23.212861 95.17034 
L 23.321579 67.133095 
L 23.375938 83.938855 
L 23.430297 59.704977 
L 23.484656 69.831256 
L 23.593374 102.149367 
L 23.81081 69.658434 
L 23.865169 71.348678 
L 23.919527 83.275268 
L 23.973886 78.714079 
L 24.028245 45.715466 
L 24.136963 94.819669 
L 24.191322 94.81097 
L 24.30004 52.698467 
L 24.354399 68.15174 
L 24.408758 79.95747 
L 24.463117 68.305407 
L 24.517476 69.007747 
L 24.571835 95.370439 
L 24.626194 81.663514 
L 24.78927 59.554022 
L 24.843629 59.701281 
L 24.897988 97.613185 
L 24.952347 60.820059 
L 25.006706 84.326905 
L 25.061065 54.647589 
L 25.115424 98.530905 
L 25.169783 82.535138 
L 25.224142 54.039717 
L 25.278501 74.935565 
L 25.495936 51.861102 
L 25.604654 92.512395 
L 25.767731 54.788183 
L 25.876449 92.207157 
L 26.039526 61.927512 
L 26.093885 72.356175 
L 26.148244 71.154583 
L 26.202602 60.926426 
L 26.256961 63.006848 
L 26.31132 85.206853 
L 26.365679 58.854981 
L 26.474397 116.098555 
L 26.637474 53.165224 
L 26.691833 89.782251 
L 26.746192 64.915985 
L 27.017986 98.137262 
L 27.072345 67.931474 
L 27.126704 69.335721 
L 27.181063 90.106452 
L 27.235422 86.000478 
L 27.289781 57.075755 
L 27.34414 116.455369 
L 27.398499 50.692313 
L 27.452858 67.090459 
L 27.507217 64.493252 
L 27.561576 88.074283 
L 27.615935 61.256972 
L 27.670294 97.72366 
L 27.724652 85.688651 
L 27.83337 58.994853 
L 27.887729 78.669072 
L 27.942088 47.551826 
L 27.996447 108.634914 
L 28.050806 47.564561 
L 28.105165 87.041157 
L 28.159524 78.819465 
L 28.213883 81.886108 
L 28.322601 43.513391 
L 28.485677 89.599975 
L 28.540036 68.615613 
L 28.594395 81.318871 
L 28.648754 92.086691 
L 28.703113 58.759903 
L 28.757472 74.600505 
L 28.811831 83.718479 
L 28.974908 54.000683 
L 29.029267 84.557305 
L 29.083626 60.58771 
L 29.137985 58.414891 
L 29.301061 67.729945 
L 29.35542 49.433214 
L 29.464138 98.342396 
L 29.572856 41.662702 
L 29.627215 46.357618 
L 29.681574 86.000969 
L 29.735933 59.56594 
L 29.790292 41.977298 
L 29.844651 93.93591 
L 29.89901 62.545873 
L 30.007727 104.953175 
L 30.062086 59.682556 
L 30.116445 74.522534 
L 30.170804 86.37851 
L 30.279522 65.81588 
L 30.333881 108.584451 
L 30.38824 46.528708 
L 30.442599 60.542064 
L 30.551317 79.447608 
L 30.605676 61.847634 
L 30.660035 94.52772 
L 30.714394 71.676736 
L 30.768752 42.887659 
L 30.823111 62.345777 
L 30.986188 102.573894 
L 31.040547 100.443234 
L 31.312342 38.644576 
L 31.366701 67.607228 
L 31.42106 63.693 
L 31.475419 52.569852 
L 31.529778 86.051298 
L 31.638495 84.814088 
L 31.692854 69.144937 
L 31.747213 92.771987 
L 31.801572 52.771859 
L 31.855931 99.832383 
L 31.91029 64.132514 
L 31.964649 56.057859 
L 32.019008 78.357381 
L 32.073367 71.591897 
L 32.127726 64.401989 
L 32.182085 80.678988 
L 32.236444 52.173749 
L 32.290803 81.498473 
L 32.345161 89.147774 
L 32.39952 83.650327 
L 32.562597 58.446171 
L 32.616956 68.673517 
L 32.671315 57.015936 
L 32.725674 93.351766 
L 32.780033 76.445366 
L 32.834392 70.536474 
L 32.888751 77.621941 
L 32.94311 52.793024 
L 32.997469 82.499539 
L 33.051828 78.979872 
L 33.160545 62.81602 
L 33.269263 101.181896 
L 33.323622 94.975028 
L 33.541058 44.597059 
L 33.649776 124.499041 
L 33.758494 51.488479 
L 33.812853 74.899809 
L 33.867211 62.677851 
L 33.92157 56.386979 
L 33.975929 25.329783 
L 34.030288 80.512049 
L 34.084647 74.965451 
L 34.193365 56.301451 
L 34.302083 78.680146 
L 34.356442 29.085911 
L 34.46516 92.423139 
L 34.573878 67.362381 
L 34.628236 117.71177 
L 34.682595 58.042349 
L 34.736954 119.30971 
L 34.900031 38.259379 
L 34.95439 93.523461 
L 35.063108 92.313072 
L 35.117467 88.267373 
L 35.171826 66.05429 
L 35.226185 71.82289 
L 35.280544 88.770402 
L 35.334903 62.135724 
L 35.389261 96.283932 
L 35.44362 74.494731 
L 35.497979 86.295386 
L 35.552338 74.485493 
L 35.661056 78.775456 
L 35.715415 54.113071 
L 35.769774 69.138988 
L 35.932851 81.208258 
L 35.98721 59.010576 
L 36.095928 99.664845 
L 36.150286 86.875065 
L 36.259004 61.647331 
L 36.47644 94.032981 
L 36.639517 16.363636 
L 36.802594 84.050411 
L 36.911311 84.153983 
L 36.96567 62.611489 
L 37.020029 54.531755 
L 37.074388 77.446814 
L 37.128747 74.926066 
L 37.183106 68.924104 
L 37.237465 105.7461 
L 37.291824 101.518375 
L 37.346183 69.740317 
L 37.400542 103.023102 
L 37.454901 83.904204 
L 37.617978 98.198125 
L 37.726695 62.544514 
L 37.781054 74.320359 
L 37.835413 84.180105 
L 37.889772 50.495705 
L 37.944131 84.501657 
L 37.99849 72.694234 
L 38.161567 106.834613 
L 38.324644 68.507336 
L 38.379003 82.30857 
L 38.433361 60.813861 
L 38.48772 74.98496 
L 38.542079 104.360926 
L 38.596438 42.780012 
L 38.650797 68.001192 
L 38.705156 92.464465 
L 38.759515 68.959513 
L 38.813874 65.370085 
L 38.868233 48.492887 
L 39.03131 89.903212 
L 39.140028 69.131613 
L 39.194386 91.434129 
L 39.248745 48.245943 
L 39.303104 86.038076 
L 39.357463 75.912019 
L 39.52054 27.724449 
L 39.629258 77.457567 
L 39.683617 68.433822 
L 39.737976 72.259915 
L 39.792335 61.062298 
L 39.901053 82.797373 
L 39.955411 67.364012 
L 40.00977 108.726584 
L 40.064129 85.291226 
L 40.118488 99.59442 
L 40.227206 55.079702 
L 40.281565 67.093063 
L 40.335924 47.217709 
L 40.390283 81.687642 
L 40.499001 80.490718 
L 40.55336 51.150306 
L 40.607719 61.053934 
L 40.716436 91.597752 
L 40.879513 75.553712 
L 40.933872 76.7574 
L 41.04259 51.013283 
L 41.096949 80.615136 
L 41.151308 44.587467 
L 41.205667 88.190238 
L 41.260026 83.007183 
L 41.368744 59.361093 
L 41.477461 99.162813 
L 41.586179 41.631756 
L 41.749256 98.14177 
L 41.857974 66.808957 
L 41.912333 86.524421 
L 41.966692 76.151162 
L 42.021051 51.867225 
L 42.129769 96.604651 
L 42.292845 46.213231 
L 42.347204 107.767824 
L 42.401563 99.84614 
L 42.618999 33.967677 
L 42.782076 91.412559 
L 42.836435 89.225651 
L 42.890794 98.32041 
L 43.05387 42.300102 
L 43.162588 77.218132 
L 43.216947 93.451359 
L 43.271306 86.919755 
L 43.325665 62.551966 
L 43.380024 109.510029 
L 43.434383 88.203429 
L 43.488742 49.884361 
L 43.543101 75.077342 
L 43.59746 82.941 
L 43.651819 54.33571 
L 43.706178 79.550098 
L 43.760536 86.921141 
L 43.814895 64.853346 
L 43.869254 83.648201 
L 43.977972 83.46782 
L 44.032331 102.673595 
L 44.08669 77.008666 
L 44.141049 77.0139 
L 44.195408 82.625686 
L 44.249767 55.362019 
L 44.304126 82.177398 
L 44.358485 66.480907 
L 44.412844 74.871645 
L 44.57592 107.413602 
L 44.793356 57.627114 
L 44.902074 78.231258 
L 44.956433 77.659646 
L 45.010792 75.237866 
L 45.065151 87.51881 
L 45.173869 63.146986 
L 45.336945 103.884716 
L 45.500022 59.152485 
L 45.60874 53.51191 
L 45.717458 74.676243 
L 45.771817 92.715334 
L 45.826176 52.491591 
L 45.880535 78.212644 
L 45.934894 89.344268 
L 45.989253 81.621036 
L 46.043611 79.87089 
L 46.152329 61.871471 
L 46.315406 89.782055 
L 46.424124 76.639436 
L 46.478483 92.243852 
L 46.532842 86.178954 
L 46.587201 54.31372 
L 46.64156 79.492274 
L 46.695919 77.177354 
L 46.750278 61.982079 
L 46.804636 73.48592 
L 46.858995 104.100599 
L 47.022072 39.789025 
L 47.13079 107.785484 
L 47.185149 58.363026 
L 47.239508 80.478742 
L 47.402585 63.764723 
L 47.456944 98.712752 
L 47.511303 94.33646 
L 47.565662 53.996888 
L 47.62002 74.34428 
L 47.674379 59.140885 
L 47.728738 100.892069 
L 47.783097 47.891204 
L 47.837456 79.337018 
L 47.946174 70.442717 
L 48.000533 103.161801 
L 48.054892 80.957459 
L 48.109251 56.588031 
L 48.16361 63.735995 
L 48.217969 83.570255 
L 48.272328 65.999023 
L 48.326687 68.809637 
L 48.381045 90.57592 
L 48.435404 57.267857 
L 48.489763 78.543512 
L 48.544122 79.353935 
L 48.598481 61.180834 
L 48.65284 91.850257 
L 48.707199 63.727461 
L 48.761558 54.814693 
L 48.978994 119.468705 
L 49.087712 66.640995 
L 49.14207 89.651149 
L 49.196429 73.473516 
L 49.250788 59.974861 
L 49.413865 83.159661 
L 49.576942 54.277442 
L 49.631301 82.89321 
L 49.68566 69.448525 
L 49.794378 61.72779 
L 49.848737 67.683534 
L 49.903095 86.965322 
L 49.957454 79.295945 
L 50.011813 55.412542 
L 50.066172 127.636364 
L 50.120531 56.692838 
L 50.17489 69.595547 
L 50.229249 51.937292 
L 50.283608 68.071726 
L 50.392326 96.910957 
L 50.555403 64.87289 
L 50.609762 59.148475 
L 50.718479 96.529309 
L 50.772838 64.718307 
L 50.827197 68.030691 
L 50.881556 68.87285 
L 51.044633 92.691686 
L 51.20771 53.002645 
L 51.262069 94.621344 
L 51.316428 80.545766 
L 51.370787 79.974762 
L 51.425145 59.269032 
L 51.588222 88.424827 
L 51.642581 52.094171 
L 51.69694 74.800796 
L 51.751299 95.14085 
L 51.860017 58.048202 
L 51.968735 87.102254 
L 52.023094 84.80254 
L 52.131812 62.528518 
L 52.18617 69.635875 
L 52.240529 89.879853 
L 52.294888 76.97029 
L 52.403606 82.809747 
L 52.457965 69.60464 
L 52.512324 98.920731 
L 52.566683 71.293547 
L 52.621042 90.313178 
L 52.675401 56.950351 
L 52.72976 85.793124 
L 52.784119 76.564886 
L 52.838478 98.234259 
L 52.892837 85.290774 
L 53.001554 61.647197 
L 53.055913 97.341117 
L 53.110272 75.133727 
L 53.164631 78.510055 
L 53.382067 53.48628 
L 53.490785 60.208365 
L 53.545144 61.365424 
L 53.599503 80.476661 
L 53.653862 64.520271 
L 53.762579 87.262776 
L 53.871297 50.05954 
L 53.925656 93.040415 
L 53.980015 79.385515 
L 54.034374 91.067408 
L 54.197451 49.488332 
L 54.25181 90.217252 
L 54.306169 77.972564 
L 54.360528 82.561207 
L 54.523604 66.165013 
L 54.632322 79.005703 
L 54.686681 30.641142 
L 54.74104 79.117532 
L 54.904117 38.180062 
L 55.067194 110.834882 
L 55.175912 75.188811 
L 55.284629 107.288558 
L 55.447706 69.4957 
L 55.502065 79.379274 
L 55.556424 65.696557 
L 55.665142 97.216519 
L 55.77386 67.709486 
L 55.882578 82.099499 
L 55.936937 47.329136 
L 55.991295 76.346689 
L 56.045654 75.138377 
L 56.100013 70.341869 
L 56.154372 32.356452 
L 56.208731 41.264322 
L 56.26309 98.481673 
L 56.317449 91.364861 
L 56.480526 60.39252 
L 56.589244 106.647459 
L 56.697962 99.93565 
L 56.806679 77.044805 
L 56.861038 94.611274 
L 56.915397 89.533945 
L 56.969756 64.564962 
L 57.024115 68.166577 
L 57.132833 95.731773 
L 57.241551 60.996752 
L 57.458987 120.025333 
L 57.513345 92.354579 
L 57.622063 92.495382 
L 57.676422 70.315438 
L 57.730781 102.815607 
L 57.78514 84.239074 
L 57.839499 80.234015 
L 57.948217 88.75625 
L 58.002576 66.337548 
L 58.056935 79.374155 
L 58.111294 84.016773 
L 58.165653 62.548663 
L 58.220012 68.752621 
L 58.27437 69.915078 
L 58.383088 92.734737 
L 58.491806 43.01402 
L 58.546165 98.432263 
L 58.600524 70.249225 
L 58.654883 86.356216 
L 58.81796 35.789246 
L 58.926678 79.486385 
L 58.981037 73.134246 
L 59.035395 80.353696 
L 59.089754 77.692593 
L 59.252831 53.93952 
L 59.361549 80.140601 
L 59.415908 90.71218 
L 59.470267 69.403583 
L 59.524626 85.547654 
L 59.578985 70.520217 
L 59.633344 72.491008 
L 59.687703 78.580693 
L 59.79642 48.317676 
L 59.850779 87.927231 
L 59.905138 69.0071 
L 59.959497 42.936353 
L 60.068215 41.641939 
L 60.122574 86.598414 
L 60.176933 61.019281 
L 60.231292 97.422015 
L 60.285651 60.605023 
L 60.34001 44.963359 
L 60.448728 103.890682 
L 60.503087 57.800147 
L 60.557445 73.993341 
L 60.666163 77.739287 
L 60.82924 103.914647 
L 60.883599 63.483822 
L 60.937958 96.286879 
L 60.992317 99.217346 
L 61.101035 70.071316 
L 61.155394 75.660417 
L 61.209753 74.242788 
L 61.372829 40.903589 
L 61.535906 79.417349 
L 61.590265 84.127869 
L 61.698983 60.326335 
L 61.753342 76.797274 
L 61.807701 50.934294 
L 61.86206 77.60125 
L 61.916419 98.912452 
L 61.970778 94.170591 
L 62.079495 71.947125 
L 62.133854 73.676311 
L 62.188213 92.70694 
L 62.242572 89.273125 
L 62.296931 59.755919 
L 62.35129 102.732465 
L 62.405649 89.112288 
L 62.460008 59.564204 
L 62.514367 66.02333 
L 62.623085 101.623974 
L 62.677444 74.02652 
L 62.731803 78.85495 
L 62.786162 98.607832 
L 62.894879 52.285028 
L 63.057956 86.003682 
L 63.166674 51.394108 
L 63.329751 74.526811 
L 63.38411 92.862013 
L 63.438469 69.628798 
L 63.492828 88.724027 
L 63.601545 61.933293 
L 63.710263 97.315227 
L 63.764622 49.559659 
L 63.818981 76.099667 
L 63.87334 78.035472 
L 64.036417 61.313976 
L 64.145135 79.786959 
L 64.199494 57.907556 
L 64.253853 87.442869 
L 64.308212 65.305961 
L 64.471288 112.18496 
L 64.525647 66.536173 
L 64.634365 67.806133 
L 64.797442 95.823345 
L 64.960519 49.759418 
L 65.014878 107.196067 
L 65.069237 77.769197 
L 65.177954 84.334565 
L 65.39539 47.073192 
L 65.449749 88.03567 
L 65.558467 86.577318 
L 65.721544 48.237491 
L 65.830262 95.704804 
L 65.884621 49.726609 
L 65.938979 91.648514 
L 65.993338 54.870807 
L 66.047697 91.559962 
L 66.102056 62.079643 
L 66.156415 95.60442 
L 66.210774 72.402448 
L 66.265133 88.68546 
L 66.319492 67.467195 
L 66.373851 76.418587 
L 66.42821 89.920573 
L 66.536928 68.627727 
L 66.591287 96.663697 
L 66.645646 93.366397 
L 66.700004 61.658284 
L 66.754363 64.105523 
L 66.808722 113.108884 
L 66.91744 44.357106 
L 66.971799 77.061853 
L 67.026158 75.992169 
L 67.080517 71.759961 
L 67.189235 78.193099 
L 67.243594 69.216215 
L 67.297953 98.677468 
L 67.352312 71.4951 
L 67.406671 72.969712 
L 67.461029 61.873845 
L 67.515388 89.279821 
L 67.569747 65.730989 
L 67.624106 54.905547 
L 67.678465 87.953554 
L 67.732824 77.923441 
L 67.787183 29.060802 
L 67.841542 80.30587 
L 67.895901 62.838716 
L 67.95026 66.853252 
L 68.004619 61.158127 
L 68.058978 87.993657 
L 68.113337 68.336563 
L 68.167696 37.463072 
L 68.222054 90.195158 
L 68.276413 74.882678 
L 68.330772 52.992558 
L 68.385131 53.687997 
L 68.43949 55.215362 
L 68.602567 78.371186 
L 68.656926 67.376935 
L 68.711285 84.470062 
L 68.765644 63.327154 
L 68.820003 81.988068 
L 68.928721 49.856424 
L 69.091797 95.703205 
L 69.146156 100.558669 
L 69.200515 52.345086 
L 69.254874 64.765809 
L 69.363592 83.943308 
L 69.417951 62.741929 
L 69.47231 63.773047 
L 69.581028 70.183745 
L 69.689746 102.387165 
L 69.744104 37.41283 
L 69.798463 109.528113 
L 69.852822 56.125096 
L 69.96154 90.111667 
L 70.124617 54.967957 
L 70.178976 94.513516 
L 70.233335 91.406954 
L 70.287694 70.526097 
L 70.342053 88.966242 
L 70.559488 36.189162 
L 70.776924 99.559546 
L 70.885642 76.550869 
L 70.940001 102.348629 
L 70.99436 46.795603 
L 71.048719 65.772956 
L 71.157437 100.47392 
L 71.211796 83.208382 
L 71.266154 76.560765 
L 71.320513 110.544462 
L 71.374872 67.878335 
L 71.429231 69.61313 
L 71.48359 83.206799 
L 71.646667 46.945805 
L 71.701026 76.678269 
L 71.755385 67.059467 
L 71.809744 59.632208 
L 71.972821 82.910533 
L 72.027179 80.977936 
L 72.190256 109.812499 
L 72.407692 69.55605 
L 72.462051 91.523551 
L 72.51641 57.111231 
L 72.570769 91.296865 
L 72.625128 86.075801 
L 72.679487 43.232628 
L 72.733846 87.288273 
L 72.788204 61.8513 
L 72.842563 69.651321 
L 72.896922 101.144548 
L 72.951281 59.998327 
L 73.059999 60.058346 
L 73.168717 92.066672 
L 73.223076 42.931319 
L 73.277435 91.621683 
L 73.331794 65.489337 
L 73.386153 75.010791 
L 73.440512 66.675328 
L 73.603588 106.45316 
L 73.712306 57.399933 
L 73.875383 94.90485 
L 74.03846 52.385493 
L 74.092819 81.0348 
L 74.147178 78.25995 
L 74.201537 58.737063 
L 74.255896 73.868098 
L 74.473331 87.080303 
L 74.582049 63.929147 
L 74.745126 103.155039 
L 74.799485 96.904103 
L 74.853844 95.67247 
L 74.908203 77.083332 
L 74.962562 106.106104 
L 75.016921 50.032973 
L 75.071279 85.623086 
L 75.234356 48.983731 
L 75.343074 96.748004 
L 75.397433 78.386777 
L 75.451792 74.983999 
L 75.506151 49.152205 
L 75.56051 71.992885 
L 75.614869 54.976494 
L 75.669228 99.091687 
L 75.723587 89.727604 
L 75.832304 48.062637 
L 75.886663 63.353337 
L 75.941022 92.180698 
L 75.995381 68.214253 
L 76.04974 52.184913 
L 76.104099 54.058906 
L 76.267176 73.640646 
L 76.321535 60.955922 
L 76.375894 81.007605 
L 76.430253 53.333033 
L 76.484612 56.952134 
L 76.593329 94.209231 
L 76.702047 49.553713 
L 76.810765 92.319138 
L 76.973842 60.784757 
L 77.136919 102.059413 
L 77.299996 62.712764 
L 77.354354 43.808958 
L 77.408713 61.406795 
L 77.463072 62.042785 
L 77.57179 61.032715 
L 77.626149 108.659053 
L 77.789226 72.64826 
L 77.843585 91.908217 
L 77.897944 71.350038 
L 77.952303 75.607848 
L 78.006662 74.616323 
L 78.061021 70.864887 
L 78.115379 54.848054 
L 78.169738 69.369465 
L 78.224097 66.456838 
L 78.278456 43.993481 
L 78.332815 82.969199 
L 78.387174 80.65943 
L 78.441533 46.270628 
L 78.495892 80.224754 
L 78.550251 67.864599 
L 78.60461 107.408374 
L 78.658969 44.205676 
L 78.713328 84.449901 
L 78.767687 59.316295 
L 78.822046 66.699588 
L 78.930763 85.259125 
L 79.039481 54.438816 
L 79.09384 60.179791 
L 79.148199 84.49068 
L 79.202558 62.671166 
L 79.256917 56.433587 
L 79.311276 76.930155 
L 79.365635 63.057294 
L 79.419994 62.561553 
L 79.528712 90.385977 
L 79.637429 64.159773 
L 79.691788 66.482799 
L 79.746147 98.766133 
L 79.800506 70.295274 
L 79.854865 72.248784 
L 79.909224 55.918557 
L 79.963583 102.57776 
L 80.017942 76.596787 
L 80.072301 69.428343 
L 80.12666 45.391446 
L 80.235378 85.079525 
L 80.289737 74.336354 
L 80.344096 51.961502 
L 80.507172 94.259139 
L 80.61589 73.293195 
L 80.670249 101.080978 
L 80.724608 95.632259 
L 80.778967 81.760494 
L 80.833326 86.096975 
L 80.887685 103.152715 
L 80.942044 67.581328 
L 80.996403 89.164151 
L 81.050762 73.348342 
L 81.105121 94.414733 
L 81.15948 81.30213 
L 81.213838 83.594554 
L 81.268197 69.750796 
L 81.322556 73.171583 
L 81.376915 84.485007 
L 81.431274 55.493649 
L 81.539992 92.327945 
L 81.757428 50.525011 
L 81.866146 88.283069 
L 81.920505 74.258308 
L 81.974863 27.409799 
L 82.029222 104.840794 
L 82.083581 68.643633 
L 82.13794 69.568357 
L 82.192299 67.444568 
L 82.246658 59.995708 
L 82.355376 87.597775 
L 82.409735 120.848043 
L 82.464094 46.951008 
L 82.518453 84.624107 
L 82.627171 55.118464 
L 82.735888 77.578774 
L 82.790247 65.683273 
L 82.844606 97.668488 
L 82.898965 81.957901 
L 82.953324 82.398683 
L 83.007683 59.003273 
L 83.062042 82.76621 
L 83.116401 76.78077 
L 83.17076 111.728927 
L 83.225119 102.87321 
L 83.279478 97.646852 
L 83.333837 63.703778 
L 83.388196 71.506432 
L 83.442555 66.465739 
L 83.496913 81.804187 
L 83.65999 37.761776 
L 83.768708 79.204356 
L 83.823067 72.163616 
L 83.877426 38.773226 
L 83.931785 62.486595 
L 84.094862 85.596143 
L 84.20358 86.207678 
L 84.257938 64.977969 
L 84.366656 85.802555 
L 84.421015 82.107139 
L 84.584092 41.188434 
L 84.638451 103.153372 
L 84.69281 89.805106 
L 84.855887 73.601531 
L 84.910246 86.858446 
L 84.964605 83.004071 
L 85.018963 79.856073 
L 85.073322 61.82432 
L 85.127681 73.83952 
L 85.290758 92.471833 
L 85.345117 73.769727 
L 85.399476 96.482774 
L 85.453835 83.699998 
L 85.508194 88.903659 
L 85.562553 58.37104 
L 85.616912 59.923198 
L 85.671271 81.240779 
L 85.72563 42.838711 
L 85.779988 81.894229 
L 85.834347 87.75125 
L 85.888706 54.491239 
L 85.943065 61.072347 
L 85.997424 76.58994 
L 86.051783 47.98021 
L 86.106142 69.125072 
L 86.269219 99.494077 
L 86.323578 95.186611 
L 86.432296 45.809767 
L 86.486655 92.329325 
L 86.541013 66.930081 
L 86.595372 90.191857 
L 86.649731 85.676074 
L 86.70409 82.721267 
L 86.758449 98.047353 
L 86.812808 63.56583 
L 86.867167 72.416246 
L 87.030244 81.787891 
L 87.084603 77.988223 
L 87.138962 40.673897 
L 87.24768 96.968779 
L 87.302038 52.038045 
L 87.356397 101.781448 
L 87.410756 67.213412 
L 87.465115 68.720711 
L 87.519474 67.971203 
L 87.573833 48.887772 
L 87.682551 76.511109 
L 87.73691 54.913103 
L 87.845628 55.083797 
L 88.008705 81.074871 
L 88.063063 77.563255 
L 88.117422 88.056044 
L 88.171781 79.987202 
L 88.22614 64.015742 
L 88.334858 81.08336 
L 88.389217 63.633736 
L 88.443576 77.512328 
L 88.497935 111.223432 
L 88.552294 79.34572 
L 88.606653 86.045298 
L 88.715371 54.895224 
L 88.76973 63.685868 
L 88.824088 84.760048 
L 88.878447 82.973693 
L 88.932806 82.361414 
L 89.041524 53.111044 
L 89.204601 96.483758 
L 89.313319 52.133961 
L 89.367678 111.167066 
L 89.422037 73.976672 
L 89.476396 84.192712 
L 89.530755 59.734869 
L 89.585113 61.954833 
L 89.802549 87.500068 
L 89.856908 107.300719 
L 89.911267 57.749047 
L 89.965626 95.520574 
L 90.074344 63.867197 
L 90.128703 68.88962 
L 90.183062 72.163953 
L 90.237421 65.354794 
L 90.29178 100.221111 
L 90.346138 63.77953 
L 90.400497 65.725755 
L 90.454856 96.203987 
L 90.563574 53.263132 
L 90.617933 55.244621 
L 90.726651 108.419459 
L 90.78101 90.042323 
L 90.998446 45.372977 
L 91.107163 105.656189 
L 91.215881 96.501785 
L 91.324599 69.377154 
L 91.378958 72.36679 
L 91.433317 90.838805 
L 91.487676 48.934141 
L 91.542035 81.646295 
L 91.596394 80.509247 
L 91.759471 46.042145 
L 91.81383 79.933369 
L 91.868188 78.035054 
L 91.976906 74.379482 
L 92.031265 64.797733 
L 92.085624 65.838423 
L 92.139983 88.635577 
L 92.194342 77.017929 
L 92.248701 60.022619 
L 92.411778 107.993372 
L 92.520496 49.979448 
L 92.574855 58.92579 
L 92.629213 81.616955 
L 92.683572 77.431786 
L 92.737931 58.710959 
L 92.79229 60.695764 
L 92.955367 86.476718 
L 93.009726 76.497902 
L 93.064085 81.53113 
L 93.118444 96.751519 
L 93.281521 75.012518 
L 93.33588 67.325197 
L 93.390238 119.57633 
L 93.444597 99.046726 
L 93.498956 55.089939 
L 93.553315 72.979959 
L 93.607674 82.517086 
L 93.662033 77.325191 
L 93.716392 66.674774 
L 93.770751 68.244972 
L 93.82511 72.948371 
L 93.879469 67.943385 
L 93.933828 67.949682 
L 93.988187 109.71713 
L 94.042546 53.705059 
L 94.096905 64.66168 
L 94.151263 74.958039 
L 94.205622 74.259706 
L 94.259981 64.630099 
L 94.368699 92.950439 
L 94.477417 89.027105 
L 94.531776 50.977998 
L 94.586135 85.378136 
L 94.694853 74.317897 
L 94.749212 79.50723 
L 94.85793 93.31627 
L 94.912288 91.333097 
L 95.129724 52.574003 
L 95.238442 87.238696 
L 95.292801 86.030581 
L 95.401519 62.449327 
L 95.455878 72.68979 
L 95.564596 66.755014 
L 95.618955 69.875388 
L 95.673313 41.651226 
L 95.727672 76.759329 
L 95.782031 76.307548 
L 95.83639 39.396833 
L 95.890749 63.156162 
L 95.999467 90.700777 
L 96.053826 83.36718 
L 96.108185 58.560789 
L 96.162544 70.715028 
L 96.216903 62.249632 
L 96.271262 63.429574 
L 96.325621 83.502444 
L 96.37998 72.103376 
L 96.434338 41.272961 
L 96.488697 96.396623 
L 96.543056 72.701122 
L 96.597415 81.516436 
L 96.651774 76.594932 
L 96.706133 40.673427 
L 96.814851 122.760777 
L 96.923569 26.288901 
L 96.977928 102.695562 
L 97.032287 79.92781 
L 97.086646 54.895086 
L 97.141005 114.295386 
L 97.195364 60.285591 
L 97.304081 76.166579 
L 97.412799 59.742965 
L 97.467158 62.345764 
L 97.521517 52.547792 
L 97.630235 77.436773 
L 97.684594 38.958825 
L 97.847671 90.491686 
L 98.010747 48.409511 
L 98.065106 83.284596 
L 98.119465 75.439576 
L 98.173824 65.759175 
L 98.228183 101.625071 
L 98.282542 70.581147 
L 98.39126 89.95953 
L 98.445619 82.841684 
L 98.608696 53.474963 
L 98.717414 89.941682 
L 98.826131 64.995788 
L 98.88049 76.449544 
L 98.934849 86.064184 
L 98.989208 54.821961 
L 99.043567 67.608266 
L 99.152285 96.146736 
L 99.261003 91.775039 
L 99.315362 58.788353 
L 99.369721 69.477141 
L 99.532797 95.644318 
L 99.587156 86.013336 
L 99.695874 68.226072 
L 99.750233 93.137741 
L 99.804592 50.868389 
L 99.858951 73.657685 
L 99.91331 74.04255 
L 99.967669 78.365006 
L 100.022028 65.918409 
L 100.076387 73.216466 
L 100.130746 69.87694 
L 100.185105 105.840162 
L 100.239464 69.717797 
L 100.293822 95.523292 
L 100.348181 76.051419 
L 100.40254 75.187157 
L 100.565617 47.248827 
L 100.728694 91.013391 
L 100.783053 80.898424 
L 100.837412 47.987619 
L 100.891771 89.561393 
L 100.94613 71.046179 
L 101.054847 77.695882 
L 101.109206 55.195096 
L 101.163565 76.101838 
L 101.217924 62.779094 
L 101.272283 65.97318 
L 101.326642 99.029224 
L 101.381001 64.796671 
L 101.43536 97.191751 
L 101.598437 46.730987 
L 101.652796 71.440178 
L 101.707155 39.74631 
L 101.761514 93.807121 
L 101.815872 57.623224 
L 101.870231 61.987754 
L 101.92459 31.039816 
L 102.087667 85.442048 
L 102.142026 53.385445 
L 102.196385 53.862844 
L 102.250744 99.251788 
L 102.305103 86.528673 
L 102.359462 55.457587 
L 102.413821 87.16312 
L 102.46818 103.55679 
L 102.522539 66.670062 
L 102.576897 84.987341 
L 102.685615 75.130459 
L 102.739974 101.531111 
L 102.848692 61.61105 
L 102.903051 104.059507 
L 102.95741 55.756112 
L 103.011769 57.211629 
L 103.174846 100.422469 
L 103.229205 54.932038 
L 103.283564 68.749271 
L 103.337922 97.609826 
L 103.392281 91.59506 
L 103.500999 65.635927 
L 103.555358 94.688251 
L 103.609717 93.478945 
L 103.718435 75.069982 
L 103.772794 61.14996 
L 103.881512 96.098311 
L 104.044589 52.730936 
L 104.098947 90.752448 
L 104.153306 37.990786 
L 104.207665 68.131586 
L 104.262024 69.050632 
L 104.316383 79.579744 
L 104.370742 78.582391 
L 104.425101 74.39745 
L 104.47946 76.227829 
L 104.533819 82.34854 
L 104.642537 50.21908 
L 104.696896 76.034777 
L 104.751255 64.570572 
L 104.805614 74.268336 
L 104.859972 51.47469 
L 104.914331 58.063956 
L 104.96869 96.171981 
L 105.023049 57.237893 
L 105.186126 113.767911 
L 105.349203 64.378103 
L 105.403562 74.98639 
L 105.457921 63.424846 
L 105.566639 89.20126 
L 105.620997 69.71418 
L 105.675356 89.321083 
L 105.729715 86.875182 
L 105.838433 43.231277 
L 105.892792 68.472734 
L 105.947151 63.451753 
L 106.00151 85.569023 
L 106.055869 38.038021 
L 106.110228 70.192892 
L 106.164587 76.983295 
L 106.218946 49.355692 
L 106.273305 58.937511 
L 106.382022 94.157384 
L 106.545099 54.265484 
L 106.653817 114.737051 
L 106.708176 109.171325 
L 106.762535 57.180389 
L 106.816894 81.166552 
L 106.871253 81.699971 
L 106.925612 88.9801 
L 106.979971 54.911254 
L 107.03433 92.236693 
L 107.088689 84.35285 
L 107.143047 51.819022 
L 107.197406 83.316462 
L 107.251765 88.808356 
L 107.414842 55.573848 
L 107.469201 60.325825 
L 107.52356 81.344137 
L 107.577919 26.725017 
L 107.632278 75.901968 
L 107.686637 94.457003 
L 107.740996 80.017191 
L 107.795355 53.697443 
L 107.849714 57.024901 
L 108.121508 86.697455 
L 108.230226 57.476851 
L 108.284585 86.882858 
L 108.338944 82.450969 
L 108.393303 81.892119 
L 108.447662 58.204547 
L 108.502021 81.798336 
L 108.665097 78.005335 
L 108.719456 81.349857 
L 108.773815 96.340313 
L 108.828174 79.142528 
L 108.882533 96.769258 
L 108.936892 89.716446 
L 109.04561 48.865589 
L 109.099969 102.078676 
L 109.154328 66.841445 
L 109.208687 87.081199 
L 109.263046 66.744861 
L 109.317405 67.531801 
L 109.371764 71.301543 
L 109.426122 57.866015 
L 109.53484 94.068094 
L 109.697917 60.134629 
L 109.752276 52.297924 
L 109.915353 86.953057 
L 109.969712 107.657386 
L 110.132789 75.041983 
L 110.241506 100.246249 
L 110.295865 69.808871 
L 110.350224 90.162372 
L 110.513301 59.755793 
L 110.56766 93.415672 
L 110.622019 79.010857 
L 110.676378 73.094973 
L 110.730737 82.342016 
L 110.785096 48.119726 
L 110.839455 94.714107 
L 110.893814 78.473971 
L 110.948172 69.310875 
L 111.002531 75.378213 
L 111.05689 75.193886 
L 111.111249 85.90498 
L 111.165608 55.00069 
L 111.219967 80.662455 
L 111.274326 67.154886 
L 111.328685 113.541042 
L 111.383044 95.277779 
L 111.437403 58.270872 
L 111.491762 113.238146 
L 111.546121 87.518047 
L 111.60048 62.670922 
L 111.654839 83.614058 
L 111.709197 105.999784 
L 111.763556 61.855275 
L 111.817915 74.804317 
L 111.872274 81.541053 
L 111.926633 68.009371 
L 112.08971 89.622532 
L 112.198428 49.618928 
L 112.252787 64.111892 
L 112.307146 64.170087 
L 112.361505 34.562004 
L 112.415864 59.940721 
L 112.470222 87.927114 
L 112.524581 74.191803 
L 112.57894 81.215451 
L 112.742017 39.422781 
L 112.850735 93.122388 
L 112.959453 59.860931 
L 113.013812 70.55958 
L 113.12253 83.638516 
L 113.176889 61.494437 
L 113.231248 64.085765 
L 113.339965 103.167784 
L 113.394324 51.678835 
L 113.448683 85.873368 
L 113.503042 79.157054 
L 113.61176 40.409641 
L 113.720478 96.175129 
L 113.774837 88.956889 
L 113.829196 102.316267 
L 113.937914 52.221804 
L 113.992273 63.269636 
L 114.10099 76.451979 
L 114.155349 72.656705 
L 114.209708 52.976632 
L 114.264067 75.352971 
L 114.318426 73.152795 
L 114.427144 68.077689 
L 114.481503 73.620252 
L 114.535862 64.032678 
L 114.590221 95.554704 
L 114.64458 77.129067 
L 114.698939 90.212704 
L 114.753298 69.017861 
L 114.916374 98.652627 
L 114.970733 61.190498 
L 115.079451 62.134133 
L 115.13381 64.353798 
L 115.188169 61.994154 
L 115.296887 78.492721 
L 115.351246 69.908523 
L 115.459964 82.700094 
L 115.62304 58.208997 
L 115.677399 61.657895 
L 115.731758 109.907847 
L 115.786117 74.954153 
L 115.949194 89.897293 
L 116.057912 71.883183 
L 116.112271 91.733514 
L 116.16663 60.524853 
L 116.220989 93.998758 
L 116.275348 78.681007 
L 116.384065 72.230345 
L 116.438424 100.301303 
L 116.492783 72.667083 
L 116.601501 109.557223 
L 116.65586 83.550211 
L 116.710219 100.486698 
L 116.764578 118.18135 
L 116.927655 35.983765 
L 116.982014 73.031063 
L 117.036373 67.261092 
L 117.090731 64.590135 
L 117.14509 52.398249 
L 117.308167 99.978144 
L 117.471244 68.008848 
L 117.525603 67.159578 
L 117.579962 49.285169 
L 117.634321 57.727264 
L 117.743039 89.556362 
L 117.797398 52.674852 
L 117.851756 66.477139 
L 117.960474 69.207871 
L 118.014833 63.037794 
L 118.232269 98.349372 
L 118.286628 76.015019 
L 118.340987 77.110849 
L 118.395346 112.955236 
L 118.449705 86.113954 
L 118.558423 68.026041 
L 118.612781 89.062546 
L 118.66714 88.350172 
L 118.721499 85.127385 
L 118.775858 72.424093 
L 118.884576 100.809227 
L 118.938935 95.365007 
L 118.993294 64.157587 
L 119.047653 111.389325 
L 119.102012 67.666277 
L 119.21073 84.136006 
L 119.319448 31.203197 
L 119.428165 88.527854 
L 119.482524 36.166141 
L 119.536883 93.719698 
L 119.591242 71.946438 
L 119.645601 78.555874 
L 119.69996 44.034541 
L 119.754319 77.400856 
L 119.808678 97.928224 
L 119.863037 57.173186 
L 119.917396 104.91957 
L 119.971755 70.116219 
L 120.080473 41.132935 
L 120.297908 86.208517 
L 120.352267 74.003051 
L 120.406626 81.31278 
L 120.460985 94.058821 
L 120.624062 49.924214 
L 120.787139 80.568513 
L 120.841498 62.630344 
L 120.895856 100.241056 
L 120.950215 78.936736 
L 121.113292 51.039349 
L 121.276369 106.199576 
L 121.330728 85.504791 
L 121.385087 119.974757 
L 121.439446 99.254804 
L 121.493805 86.411329 
L 121.548164 29.649793 
L 121.602523 77.363994 
L 121.656881 61.103613 
L 121.71124 75.40212 
L 121.765599 75.478468 
L 121.819958 74.457506 
L 121.874317 67.582503 
L 121.983035 95.002587 
L 122.037394 67.258695 
L 122.091753 98.774812 
L 122.146112 76.103266 
L 122.200471 91.489815 
L 122.363548 53.995684 
L 122.580983 88.389349 
L 122.635342 85.11053 
L 122.798419 44.619459 
L 122.961496 92.360646 
L 123.015855 77.206354 
L 123.070214 96.814856 
L 123.23329 53.270502 
L 123.287649 74.583917 
L 123.342008 59.002055 
L 123.396367 64.356392 
L 123.450726 90.659441 
L 123.505085 66.095225 
L 123.559444 56.761312 
L 123.668162 83.197518 
L 123.722521 61.695778 
L 123.77688 99.5374 
L 123.831239 86.390221 
L 123.885598 38.194871 
L 123.939956 69.881451 
L 123.994315 80.119351 
L 124.048674 77.502665 
L 124.157392 82.069626 
L 124.26611 59.686683 
L 124.320469 93.673399 
L 124.374828 92.62538 
L 124.483546 70.294067 
L 124.537905 108.239593 
L 124.592264 54.518094 
L 124.646623 70.206116 
L 124.700981 102.496129 
L 124.75534 55.384814 
L 124.809699 85.348446 
L 124.864058 100.247401 
L 124.918417 100.060364 
L 124.972776 56.86793 
L 125.027135 94.56658 
L 125.135853 66.662087 
L 125.190212 72.669578 
L 125.244571 106.720413 
L 125.29893 54.914923 
L 125.353289 101.945342 
L 125.407648 73.09558 
L 125.462006 98.904064 
L 125.570724 48.332218 
L 125.733801 87.93476 
L 125.951237 50.448066 
L 126.005596 60.333712 
L 126.059955 79.172963 
L 126.114314 61.264009 
L 126.168673 46.624394 
L 126.223031 76.239773 
L 126.27739 69.600392 
L 126.386108 73.275091 
L 126.440467 89.818973 
L 126.494826 54.177235 
L 126.603544 104.514327 
L 126.766621 56.62971 
L 126.929698 90.068617 
L 127.038415 53.221787 
L 127.092774 99.146984 
L 127.147133 74.764401 
L 127.201492 63.783097 
L 127.364569 87.820847 
L 127.418928 104.148458 
L 127.582005 40.369365 
L 127.636364 99.818873 
L 127.636364 99.818873 
" clip-path="url(#p93b871035e)" style="fill: none; stroke: #a6d854; stroke-width: 1.5; stroke-linecap: square"/>
   </g>
   <g id="patch_3">
    <path d="M 10.8 133.2 
L 10.8 10.8 
" style="fill: none; stroke: #000000; stroke-width: 0.8; stroke-linejoin: miter; stroke-linecap: square"/>
   </g>
   <g id="patch_4">
    <path d="M 133.2 133.2 
L 133.2 10.8 
" style="fill: none; stroke: #000000; stroke-width: 0.8; stroke-linejoin: miter; stroke-linecap: square"/>
   </g>
   <g id="patch_5">
    <path d="M 10.8 133.2 
L 133.2 133.2 
" style="fill: none; stroke: #000000; stroke-width: 0.8; stroke-linejoin: miter; stroke-linecap: square"/>
   </g>
   <g id="patch_6">
    <path d="M 10.8 10.8 
L 133.2 10.8 
" style="fill: none; stroke: #000000; stroke-width: 0.8; stroke-linejoin: miter; stroke-linecap: square"/>
   </g>
  </g>
 </g>
 <defs>
  <clipPath id="p93b871035e">
   <rect x="10.8" y="10.8" width="122.4" height="122.4"/>
  </clipPath>
 </defs>
</svg>
