<?xml version="1.0" encoding="utf-8" standalone="no"?>
<!DOCTYPE svg PUBLIC "-//W3C//DTD SVG 1.1//EN"
  "http://www.w3.org/Graphics/SVG/1.1/DTD/svg11.dtd">
<svg xmlns:xlink="http://www.w3.org/1999/xlink" width="144pt" height="144pt" viewBox="0 0 144 144" xmlns="http://www.w3.org/2000/svg" version="1.1">
 <metadata>
  <rdf:RDF xmlns:dc="http://purl.org/dc/elements/1.1/" xmlns:cc="http://creativecommons.org/ns#" xmlns:rdf="http://www.w3.org/1999/02/22-rdf-syntax-ns#">
   <cc:Work>
    <dc:type rdf:resource="http://purl.org/dc/dcmitype/StillImage"/>
    <dc:date>2025-02-11T14:35:20.161485</dc:date>
    <dc:format>image/svg+xml</dc:format>
    <dc:creator>
     <cc:Agent>
      <dc:title>Matplotlib v3.8.0, https://matplotlib.org/</dc:title>
     </cc:Agent>
    </dc:creator>
   </cc:Work>
  </rdf:RDF>
 </metadata>
 <defs>
  <style type="text/css">*{stroke-linejoin: round; stroke-linecap: butt}</style>
 </defs>
 <g id="figure_1">
  <g id="patch_1">
   <path d="M 0 144 
L 144 144 
L 144 0 
L 0 0 
L 0 144 
z
" style="fill: none"/>
  </g>
  <g id="axes_1">
   <g id="patch_2">
    <path d="M 10.8 133.2 
L 133.2 133.2 
L 133.2 10.8 
L 10.8 10.8 
L 10.8 133.2 
z
" style="fill: none"/>
   </g>
   <g id="matplotlib.axis_1"/>
   <g id="matplotlib.axis_2"/>
   <g id="line2d_1">
    <path d="M 16.363636 85.009441 
L 16.417995 101.401557 
L 16.472354 60.050756 
L 16.526713 60.108612 
L 16.68979 99.017599 
L 16.744149 64.019516 
L 16.852867 64.046508 
L 16.907226 66.876835 
L 17.015944 104.218625 
L 17.17902 60.511655 
L 17.342097 104.110607 
L 17.505174 61.900064 
L 17.668251 87.139203 
L 17.72261 45.293922 
L 17.776969 81.913114 
L 17.831327 89.257797 
L 17.885686 72.402521 
L 17.940045 84.715813 
L 17.994404 81.822103 
L 18.048763 70.519703 
L 18.103122 84.866812 
L 18.266199 62.379902 
L 18.320558 94.045736 
L 18.429276 93.731112 
L 18.483635 43.681835 
L 18.537994 63.392844 
L 18.592352 98.567798 
L 18.646711 84.543768 
L 18.70107 83.589963 
L 18.864147 54.111766 
L 18.918506 81.188601 
L 18.972865 77.494254 
L 19.081583 63.373175 
L 19.190301 83.411262 
L 19.24466 64.43389 
L 19.299019 76.325756 
L 19.353377 72.144387 
L 19.516454 94.229686 
L 19.679531 61.581573 
L 19.788249 80.50048 
L 19.842608 77.570946 
L 19.896967 78.758727 
L 19.951326 58.045735 
L 20.005685 75.706615 
L 20.060044 77.443639 
L 20.114402 72.485407 
L 20.22312 93.720872 
L 20.331838 66.657708 
L 20.386197 121.994317 
L 20.440556 68.74379 
L 20.494915 109.186992 
L 20.549274 80.14543 
L 20.712351 69.84214 
L 20.821069 100.901662 
L 20.875427 90.003353 
L 20.929786 79.122123 
L 21.038504 77.915645 
L 21.092863 111.096991 
L 21.201581 65.153624 
L 21.25594 99.767692 
L 21.310299 88.336214 
L 21.364658 90.721988 
L 21.419017 68.857165 
L 21.473376 103.797219 
L 21.527735 55.231631 
L 21.582094 86.683627 
L 21.636452 74.695229 
L 21.690811 109.074227 
L 21.799529 43.83174 
L 21.908247 72.771304 
L 21.962606 63.484258 
L 22.016965 69.841224 
L 22.071324 104.723608 
L 22.125683 77.294736 
L 22.234401 33.361927 
L 22.343119 98.250779 
L 22.451836 91.651901 
L 22.506195 76.57527 
L 22.560554 101.701462 
L 22.669272 45.28777 
L 22.832349 102.504647 
L 22.941067 93.019001 
L 22.995426 62.029106 
L 23.049785 66.827552 
L 23.104144 69.438117 
L 23.158502 83.915407 
L 23.26722 53.765718 
L 23.484656 105.841202 
L 23.702092 56.365457 
L 23.756451 62.483766 
L 23.81081 71.495078 
L 23.865169 48.308105 
L 23.919527 51.020456 
L 23.973886 109.504421 
L 24.028245 57.466296 
L 24.136963 98.061382 
L 24.191322 83.582755 
L 24.354399 70.950031 
L 24.408758 79.651006 
L 24.463117 48.032053 
L 24.517476 61.179994 
L 24.626194 72.526595 
L 24.680552 65.698257 
L 24.78927 72.227881 
L 24.843629 66.506599 
L 24.897988 67.746031 
L 24.952347 100.018712 
L 25.006706 69.16746 
L 25.061065 32.922182 
L 25.169783 97.98139 
L 25.224142 52.68457 
L 25.278501 87.086177 
L 25.33286 73.49187 
L 25.495936 108.772074 
L 25.659013 55.042278 
L 25.82209 84.706066 
L 25.876449 116.440883 
L 25.930808 100.124423 
L 25.985167 82.866354 
L 26.039526 100.76048 
L 26.093885 97.694022 
L 26.148244 85.265281 
L 26.202602 98.37966 
L 26.31132 41.529843 
L 26.365679 76.948881 
L 26.420038 71.544576 
L 26.474397 86.563374 
L 26.528756 46.782507 
L 26.583115 106.494906 
L 26.637474 89.497239 
L 26.691833 88.444599 
L 26.746192 35.996261 
L 26.800551 115.03935 
L 26.85491 88.467496 
L 26.909269 95.498086 
L 27.017986 66.300772 
L 27.072345 109.688174 
L 27.126704 103.72027 
L 27.289781 50.373627 
L 27.34414 97.332126 
L 27.398499 77.645372 
L 27.452858 81.607452 
L 27.507217 48.485888 
L 27.561576 62.932123 
L 27.670294 82.449398 
L 27.724652 59.704623 
L 27.779011 72.052197 
L 27.887729 101.645156 
L 28.050806 45.618259 
L 28.159524 67.850725 
L 28.213883 47.518301 
L 28.37696 97.797288 
L 28.431319 71.574154 
L 28.485677 89.501583 
L 28.540036 100.319602 
L 28.703113 76.333597 
L 28.757472 84.875035 
L 28.811831 77.981328 
L 28.86619 57.522423 
L 28.920549 57.736701 
L 28.974908 72.240019 
L 29.029267 55.932791 
L 29.083626 65.441809 
L 29.246702 96.294889 
L 29.301061 73.097484 
L 29.35542 112.101975 
L 29.464138 111.214459 
L 29.518497 43.019888 
L 29.572856 73.122585 
L 29.627215 92.845478 
L 29.681574 67.366267 
L 29.735933 70.447702 
L 29.790292 95.848524 
L 29.953369 53.68009 
L 30.007727 41.102392 
L 30.170804 105.476108 
L 30.225163 90.122781 
L 30.279522 66.209339 
L 30.333881 97.527198 
L 30.38824 68.45565 
L 30.442599 71.914709 
L 30.496958 64.935678 
L 30.660035 102.833397 
L 30.823111 66.296471 
L 30.87747 70.358095 
L 31.040547 126.527256 
L 31.094906 59.223705 
L 31.149265 74.629005 
L 31.257983 94.034364 
L 31.312342 73.525436 
L 31.366701 73.776379 
L 31.42106 80.495875 
L 31.475419 46.020694 
L 31.529778 94.199547 
L 31.584136 64.939362 
L 31.638495 92.049777 
L 31.692854 80.299736 
L 31.801572 57.31121 
L 31.855931 96.40527 
L 31.91029 94.52808 
L 32.073367 65.602332 
L 32.127726 78.023084 
L 32.182085 120.293141 
L 32.236444 93.455758 
L 32.39952 80.361896 
L 32.453879 45.668397 
L 32.508238 75.92256 
L 32.562597 97.441093 
L 32.671315 67.313418 
L 32.725674 68.424454 
L 32.780033 69.792022 
L 32.834392 58.082424 
L 32.888751 65.843274 
L 32.94311 92.108608 
L 32.997469 78.146493 
L 33.051828 74.873604 
L 33.106186 41.07541 
L 33.214904 97.101553 
L 33.377981 67.598044 
L 33.541058 101.42404 
L 33.595417 65.607451 
L 33.649776 74.733364 
L 33.704135 100.50276 
L 33.758494 49.543423 
L 33.812853 59.569979 
L 33.975929 79.373798 
L 34.030288 52.81781 
L 34.084647 94.863817 
L 34.139006 16.363636 
L 34.193365 51.578734 
L 34.410801 106.76916 
L 34.46516 110.777106 
L 34.573878 65.149277 
L 34.628236 95.085654 
L 34.682595 90.46872 
L 34.845672 78.620596 
L 34.95439 109.80442 
L 35.117467 60.551116 
L 35.171826 62.529832 
L 35.280544 93.854136 
L 35.334903 90.309475 
L 35.389261 24.453905 
L 35.44362 73.106042 
L 35.552338 92.031725 
L 35.606697 77.221243 
L 35.661056 110.290454 
L 35.715415 85.674588 
L 35.769774 26.57532 
L 35.824133 75.834099 
L 35.878492 54.98241 
L 35.932851 104.675817 
L 35.98721 86.666917 
L 36.041569 87.58464 
L 36.150286 41.479462 
L 36.204645 83.974225 
L 36.259004 76.270991 
L 36.422081 46.440466 
L 36.639517 100.137056 
L 36.693876 95.137684 
L 36.748235 56.306134 
L 36.802594 88.798589 
L 36.856953 89.677703 
L 36.911311 54.310661 
L 36.96567 62.580926 
L 37.020029 94.572069 
L 37.074388 68.360073 
L 37.183106 53.715307 
L 37.291824 66.413467 
L 37.346183 101.981037 
L 37.400542 68.0533 
L 37.454901 57.208397 
L 37.50926 97.854331 
L 37.563619 45.346508 
L 37.617978 56.535658 
L 37.781054 80.698802 
L 37.835413 78.217089 
L 37.889772 63.991382 
L 38.052849 88.940602 
L 38.215926 59.748102 
L 38.270285 73.80595 
L 38.324644 61.975925 
L 38.379003 40.682765 
L 38.433361 96.247771 
L 38.48772 75.127067 
L 38.542079 60.802014 
L 38.650797 87.695257 
L 38.705156 80.210061 
L 38.759515 58.932803 
L 38.813874 60.459638 
L 38.922592 89.19721 
L 38.976951 67.859361 
L 39.03131 76.049136 
L 39.140028 120.682671 
L 39.357463 48.283472 
L 39.52054 87.455122 
L 39.574899 71.763566 
L 39.629258 69.224748 
L 39.683617 74.800847 
L 39.737976 72.606475 
L 39.792335 111.185003 
L 39.846694 79.282635 
L 39.901053 92.717408 
L 40.00977 54.249482 
L 40.064129 88.086344 
L 40.118488 59.863329 
L 40.172847 53.350612 
L 40.227206 81.610945 
L 40.281565 53.28456 
L 40.335924 56.564846 
L 40.390283 102.433791 
L 40.444642 79.040935 
L 40.499001 76.575631 
L 40.607719 50.668714 
L 40.716436 77.378206 
L 40.770795 75.967329 
L 40.933872 42.917661 
L 41.151308 89.132274 
L 41.205667 68.188009 
L 41.260026 80.892684 
L 41.314385 92.182512 
L 41.477461 74.807365 
L 41.640538 119.505684 
L 41.749256 83.544857 
L 41.912333 114.92613 
L 41.966692 105.088988 
L 42.129769 48.879224 
L 42.184128 53.583605 
L 42.238486 76.976531 
L 42.292845 48.053407 
L 42.401563 89.202302 
L 42.455922 64.857449 
L 42.510281 81.972942 
L 42.56464 69.503509 
L 42.618999 76.387196 
L 42.727717 118.478252 
L 42.836435 44.690676 
L 42.945153 91.2283 
L 43.05387 56.904524 
L 43.108229 62.033061 
L 43.271306 108.807206 
L 43.380024 79.421971 
L 43.434383 96.963289 
L 43.59746 77.495638 
L 43.651819 70.945176 
L 43.814895 100.715525 
L 43.923613 66.02614 
L 43.977972 95.270413 
L 44.032331 49.107029 
L 44.08669 71.590763 
L 44.249767 83.404463 
L 44.304126 45.214365 
L 44.358485 92.308353 
L 44.412844 83.889694 
L 44.467203 40.699172 
L 44.521561 90.206129 
L 44.57592 68.722109 
L 44.630279 71.153471 
L 44.684638 83.603632 
L 44.738997 54.822795 
L 44.793356 73.657353 
L 44.847715 64.138317 
L 44.902074 69.184925 
L 45.010792 84.984051 
L 45.065151 57.871397 
L 45.11951 78.246811 
L 45.228228 74.870877 
L 45.282586 82.720207 
L 45.336945 68.159695 
L 45.445663 114.183876 
L 45.500022 64.74904 
L 45.554381 106.594859 
L 45.771817 33.180684 
L 45.934894 91.45624 
L 45.989253 81.764214 
L 46.043611 88.135173 
L 46.09797 101.765918 
L 46.152329 88.538489 
L 46.206688 93.6589 
L 46.315406 60.950972 
L 46.424124 62.426765 
L 46.478483 94.409108 
L 46.532842 87.112643 
L 46.587201 88.087226 
L 46.695919 68.839611 
L 46.750278 79.211768 
L 46.804636 123.586658 
L 46.858995 95.496349 
L 46.913354 68.366001 
L 46.967713 115.620181 
L 47.022072 73.762558 
L 47.076431 61.837672 
L 47.13079 63.219649 
L 47.239508 86.930746 
L 47.293867 52.888505 
L 47.348226 64.0528 
L 47.402585 59.970464 
L 47.62002 97.568904 
L 47.674379 54.375291 
L 47.728738 85.563691 
L 47.783097 57.971303 
L 47.837456 84.077152 
L 48.000533 76.698066 
L 48.054892 77.249643 
L 48.109251 122.868835 
L 48.16361 93.735804 
L 48.272328 29.031833 
L 48.326687 85.183817 
L 48.381045 69.02154 
L 48.435404 82.259489 
L 48.489763 73.720193 
L 48.65284 62.055496 
L 48.707199 79.480534 
L 48.761558 62.785055 
L 48.870276 101.198875 
L 48.924635 56.915031 
L 48.978994 81.178022 
L 49.033353 84.820397 
L 49.087712 69.154045 
L 49.14207 83.58328 
L 49.196429 92.170449 
L 49.250788 79.261893 
L 49.305147 90.090031 
L 49.413865 64.061547 
L 49.468224 90.07484 
L 49.522583 74.096743 
L 49.631301 50.812744 
L 49.740019 113.019596 
L 49.794378 105.717161 
L 49.903095 62.470153 
L 49.957454 88.498271 
L 50.011813 108.690706 
L 50.066172 57.123623 
L 50.17489 59.299391 
L 50.283608 98.336405 
L 50.337967 67.052258 
L 50.392326 82.427003 
L 50.501044 100.009529 
L 50.555403 73.513595 
L 50.609762 97.512658 
L 50.66412 82.884101 
L 50.718479 28.12261 
L 50.772838 102.275559 
L 50.827197 92.324317 
L 50.881556 64.559897 
L 50.935915 112.727546 
L 50.990274 89.900902 
L 51.044633 48.776209 
L 51.098992 51.540367 
L 51.20771 67.836398 
L 51.262069 95.687762 
L 51.316428 84.21967 
L 51.370787 88.183125 
L 51.479504 56.584889 
L 51.533863 99.030602 
L 51.588222 97.203506 
L 51.69694 66.783729 
L 51.751299 69.927239 
L 51.805658 68.18633 
L 51.860017 90.871789 
L 52.023094 41.900677 
L 52.18617 85.435601 
L 52.240529 78.648194 
L 52.349247 96.66186 
L 52.403606 49.018153 
L 52.457965 65.174512 
L 52.566683 106.485009 
L 52.72976 42.260947 
L 52.784119 92.075923 
L 52.838478 88.906167 
L 52.947195 60.248334 
L 53.001554 80.659579 
L 53.055913 70.328643 
L 53.110272 73.863502 
L 53.164631 66.451109 
L 53.21899 80.845767 
L 53.273349 62.00083 
L 53.327708 75.485995 
L 53.436426 88.439233 
L 53.545144 68.403803 
L 53.599503 68.444636 
L 53.70822 80.588497 
L 53.816938 53.822775 
L 53.980015 79.308345 
L 54.088733 49.361036 
L 54.143092 73.29305 
L 54.197451 59.077096 
L 54.25181 47.665048 
L 54.414887 101.041963 
L 54.469245 88.703514 
L 54.523604 106.474557 
L 54.686681 49.409145 
L 54.74104 76.671568 
L 54.795399 69.07194 
L 54.849758 51.171252 
L 54.904117 82.247735 
L 54.958476 49.403397 
L 55.012835 57.264264 
L 55.121553 92.776468 
L 55.175912 86.570866 
L 55.23027 59.962292 
L 55.284629 110.949903 
L 55.338988 52.549496 
L 55.393347 57.017883 
L 55.556424 109.61132 
L 55.719501 53.668832 
L 55.828219 93.354901 
L 55.882578 75.826121 
L 55.936937 78.780141 
L 55.991295 82.947143 
L 56.100013 75.651098 
L 56.208731 94.68323 
L 56.371808 71.325554 
L 56.426167 101.489716 
L 56.480526 78.563857 
L 56.534885 91.801048 
L 56.589244 41.664246 
L 56.643603 81.513956 
L 56.697962 61.432697 
L 56.75232 67.671155 
L 56.806679 92.752004 
L 56.861038 74.643617 
L 56.915397 91.268233 
L 57.024115 66.687135 
L 57.187192 83.489822 
L 57.404628 46.441946 
L 57.458987 79.655343 
L 57.513345 59.918903 
L 57.567704 59.897114 
L 57.78514 94.084015 
L 57.839499 51.284269 
L 57.893858 86.862899 
L 57.948217 94.628719 
L 58.056935 60.571898 
L 58.165653 86.551594 
L 58.220012 72.981084 
L 58.27437 86.032398 
L 58.328729 77.783266 
L 58.383088 85.287792 
L 58.437447 91.135407 
L 58.600524 54.557019 
L 58.763601 70.852862 
L 58.81796 61.937854 
L 58.872319 103.054045 
L 58.926678 59.156078 
L 58.981037 71.265122 
L 59.035395 72.701945 
L 59.198472 106.628796 
L 59.415908 49.477482 
L 59.470267 64.827677 
L 59.524626 56.082227 
L 59.578985 35.496231 
L 59.742062 80.651743 
L 59.79642 62.3287 
L 59.850779 87.900128 
L 59.905138 69.253914 
L 59.959497 82.414861 
L 60.013856 44.382913 
L 60.068215 74.986519 
L 60.122574 90.078399 
L 60.176933 70.299815 
L 60.231292 123.000865 
L 60.285651 83.175934 
L 60.34001 115.12006 
L 60.394369 86.342743 
L 60.448728 70.017269 
L 60.503087 72.221117 
L 60.557445 105.167101 
L 60.611804 36.526696 
L 60.666163 82.184521 
L 60.720522 86.260791 
L 60.937958 58.690991 
L 60.992317 99.836441 
L 61.046676 79.904837 
L 61.101035 61.603222 
L 61.155394 71.030168 
L 61.209753 96.230271 
L 61.264112 56.088914 
L 61.31847 102.217582 
L 61.372829 76.177996 
L 61.427188 52.412835 
L 61.481547 65.264864 
L 61.590265 73.581936 
L 61.644624 71.695637 
L 61.698983 100.323139 
L 61.753342 73.788735 
L 61.807701 59.497461 
L 61.86206 62.595905 
L 61.916419 69.548077 
L 61.970778 104.493605 
L 62.025137 59.396356 
L 62.079495 87.785905 
L 62.133854 105.823773 
L 62.242572 74.658475 
L 62.296931 84.453839 
L 62.35129 84.44192 
L 62.405649 79.270437 
L 62.460008 58.157066 
L 62.514367 66.372769 
L 62.568726 96.397645 
L 62.623085 75.45779 
L 62.731803 64.490299 
L 62.894879 86.653784 
L 62.949238 67.554538 
L 63.003597 115.648862 
L 63.057956 89.193274 
L 63.221033 36.244935 
L 63.275392 106.751888 
L 63.329751 84.722973 
L 63.38411 64.247565 
L 63.438469 68.23988 
L 63.492828 99.155859 
L 63.547187 71.228246 
L 63.601545 53.051261 
L 63.655904 98.811965 
L 63.710263 64.030473 
L 63.764622 55.432591 
L 63.87334 73.829733 
L 63.927699 68.763951 
L 63.982058 105.141494 
L 64.036417 74.373206 
L 64.090776 70.530738 
L 64.199494 82.033714 
L 64.253853 78.328629 
L 64.308212 68.892774 
L 64.362571 73.263729 
L 64.471288 86.566837 
L 64.580006 58.039555 
L 64.688724 94.484627 
L 64.743083 65.526134 
L 64.797442 78.076403 
L 64.851801 80.219418 
L 64.90616 51.865654 
L 64.960519 52.782441 
L 65.014878 59.524329 
L 65.069237 80.452761 
L 65.177954 43.309015 
L 65.286672 106.868533 
L 65.341031 83.347158 
L 65.39539 80.511611 
L 65.504108 41.387741 
L 65.558467 99.412734 
L 65.612826 39.380821 
L 65.667185 98.813176 
L 65.830262 51.220537 
L 65.993338 97.291606 
L 66.047697 86.809571 
L 66.102056 39.217139 
L 66.156415 54.836841 
L 66.265133 54.136888 
L 66.319492 97.685326 
L 66.373851 67.786566 
L 66.42821 89.124682 
L 66.482569 86.689324 
L 66.591287 46.425023 
L 66.645646 98.260886 
L 66.700004 66.550564 
L 66.754363 66.672144 
L 66.863081 89.0437 
L 66.91744 82.579695 
L 67.026158 45.586392 
L 67.080517 60.978613 
L 67.134876 107.795597 
L 67.189235 86.13965 
L 67.243594 102.725443 
L 67.297953 95.099284 
L 67.461029 36.929603 
L 67.624106 82.454936 
L 67.678465 76.542493 
L 67.732824 81.409892 
L 67.787183 89.540838 
L 67.841542 68.61752 
L 67.895901 93.347361 
L 67.95026 51.320363 
L 68.004619 56.409738 
L 68.058978 81.395483 
L 68.113337 41.037702 
L 68.167696 70.778201 
L 68.276413 52.922645 
L 68.330772 58.536157 
L 68.493849 118.950986 
L 68.548208 60.222432 
L 68.602567 101.396557 
L 68.765644 63.28971 
L 68.874362 73.174226 
L 68.928721 59.814968 
L 68.983079 66.081615 
L 69.037438 67.785457 
L 69.091797 108.883596 
L 69.146156 66.742913 
L 69.200515 97.350047 
L 69.254874 60.417334 
L 69.309233 72.74112 
L 69.363592 75.252349 
L 69.47231 104.618319 
L 69.526669 48.962386 
L 69.581028 52.760027 
L 69.635387 78.58986 
L 69.689746 73.248602 
L 69.852822 79.967151 
L 69.907181 79.653899 
L 69.96154 73.123835 
L 70.015899 91.6256 
L 70.124617 59.235542 
L 70.178976 66.184919 
L 70.233335 75.280416 
L 70.287694 65.405369 
L 70.342053 113.885519 
L 70.396412 71.39483 
L 70.450771 81.340419 
L 70.505129 57.088242 
L 70.559488 101.325816 
L 70.613847 91.467849 
L 70.722565 84.967926 
L 70.776924 35.214755 
L 70.831283 71.348924 
L 70.940001 39.466999 
L 70.99436 90.743511 
L 71.048719 79.994211 
L 71.103078 66.253416 
L 71.157437 95.536586 
L 71.211796 77.960864 
L 71.266154 74.605233 
L 71.320513 59.627395 
L 71.48359 103.157378 
L 71.592308 75.852699 
L 71.646667 106.861371 
L 71.701026 80.196966 
L 71.809744 64.847048 
L 71.918462 83.722774 
L 71.972821 71.33752 
L 72.027179 102.233536 
L 72.081538 59.543404 
L 72.135897 93.155607 
L 72.298974 67.662726 
L 72.353333 117.851698 
L 72.407692 96.477539 
L 72.462051 113.848339 
L 72.51641 57.934347 
L 72.570769 79.819789 
L 72.679487 59.919656 
L 72.733846 113.326731 
L 72.788204 63.600238 
L 72.896922 75.251306 
L 72.951281 50.637303 
L 73.00564 69.828242 
L 73.059999 116.66493 
L 73.114358 85.571246 
L 73.277435 62.82655 
L 73.440512 91.277071 
L 73.494871 68.452504 
L 73.549229 78.061745 
L 73.657947 100.923614 
L 73.712306 100.129138 
L 73.766665 60.432481 
L 73.821024 78.328102 
L 73.875383 93.30891 
L 73.929742 72.840998 
L 73.984101 100.633312 
L 74.03846 73.516669 
L 74.092819 88.80915 
L 74.255896 62.881181 
L 74.310254 55.953064 
L 74.418972 98.224123 
L 74.582049 65.874433 
L 74.636408 102.498201 
L 74.690767 68.114506 
L 74.745126 52.720583 
L 74.799485 62.660437 
L 74.908203 84.319188 
L 74.962562 77.915868 
L 75.016921 78.203832 
L 75.125638 59.361709 
L 75.234356 85.479602 
L 75.343074 53.443561 
L 75.451792 82.650389 
L 75.506151 68.194081 
L 75.56051 79.997006 
L 75.614869 79.735809 
L 75.777946 97.514085 
L 75.886663 75.554767 
L 75.995381 98.040449 
L 76.158458 47.93745 
L 76.212817 92.934015 
L 76.267176 30.24131 
L 76.321535 67.241934 
L 76.375894 56.904522 
L 76.430253 62.938711 
L 76.484612 90.092082 
L 76.593329 48.020853 
L 76.702047 83.510148 
L 76.810765 74.780875 
L 76.865124 84.982086 
L 77.08256 55.999203 
L 77.245637 98.635944 
L 77.299996 79.830311 
L 77.354354 81.422717 
L 77.408713 91.901758 
L 77.463072 82.285017 
L 77.517431 66.188332 
L 77.57179 90.589235 
L 77.626149 88.752507 
L 77.680508 72.91525 
L 77.734867 95.651375 
L 77.789226 82.287298 
L 77.897944 48.61412 
L 78.006662 92.980174 
L 78.115379 61.709759 
L 78.169738 67.802939 
L 78.224097 96.14303 
L 78.278456 88.989515 
L 78.387174 61.974281 
L 78.441533 64.563837 
L 78.495892 69.353619 
L 78.550251 90.780033 
L 78.60461 35.472088 
L 78.658969 58.644078 
L 78.713328 47.671293 
L 78.767687 58.553699 
L 78.876404 92.663107 
L 78.930763 50.821174 
L 78.985122 62.217103 
L 79.039481 85.145719 
L 79.09384 74.065872 
L 79.148199 78.155823 
L 79.202558 106.032674 
L 79.256917 86.213063 
L 79.311276 70.363927 
L 79.365635 89.971894 
L 79.419994 88.514585 
L 79.474353 74.206562 
L 79.528712 111.518583 
L 79.583071 73.596771 
L 79.637429 85.906201 
L 79.691788 73.770446 
L 79.746147 82.763326 
L 79.800506 60.75562 
L 79.854865 100.208162 
L 79.909224 62.131514 
L 79.963583 73.875982 
L 80.017942 69.217743 
L 80.072301 70.259924 
L 80.181019 70.232609 
L 80.235378 88.191589 
L 80.344096 61.536219 
L 80.452813 115.156741 
L 80.507172 99.759301 
L 80.670249 66.973718 
L 80.724608 106.248648 
L 80.778967 87.43493 
L 80.833326 58.302286 
L 80.887685 80.484022 
L 80.942044 73.553392 
L 80.996403 74.930043 
L 81.050762 95.431794 
L 81.105121 71.595862 
L 81.15948 84.177052 
L 81.213838 110.629881 
L 81.268197 91.366469 
L 81.322556 95.005778 
L 81.539992 44.68515 
L 81.703069 95.689411 
L 81.757428 40.577752 
L 81.811787 111.930114 
L 81.866146 99.869848 
L 81.974863 58.490781 
L 82.029222 110.7159 
L 82.083581 76.971986 
L 82.13794 69.607123 
L 82.192299 106.75662 
L 82.246658 63.239354 
L 82.301017 104.178405 
L 82.409735 67.833082 
L 82.464094 88.722436 
L 82.518453 43.42242 
L 82.572812 74.499479 
L 82.627171 52.207849 
L 82.68153 109.20856 
L 82.735888 51.862101 
L 82.790247 83.315766 
L 82.844606 48.365556 
L 82.898965 98.968813 
L 82.953324 24.325583 
L 83.007683 66.182218 
L 83.062042 82.480046 
L 83.225119 60.313357 
L 83.279478 78.747204 
L 83.333837 50.124568 
L 83.388196 70.4734 
L 83.442555 91.037273 
L 83.496913 88.505771 
L 83.714349 69.844443 
L 83.768708 79.373953 
L 83.877426 54.871536 
L 84.040503 93.701614 
L 84.094862 63.664594 
L 84.149221 66.76875 
L 84.312297 111.666809 
L 84.475374 47.665286 
L 84.584092 94.777659 
L 84.638451 94.056833 
L 84.69281 69.098779 
L 84.747169 86.11938 
L 84.801528 86.973336 
L 84.855887 58.301326 
L 84.910246 82.735247 
L 84.964605 87.765605 
L 85.018963 63.300309 
L 85.073322 109.991395 
L 85.127681 73.706285 
L 85.236399 95.06915 
L 85.345117 58.519853 
L 85.399476 63.277453 
L 85.508194 77.675804 
L 85.562553 41.570994 
L 85.616912 77.868709 
L 85.671271 77.761439 
L 85.834347 99.549464 
L 85.943065 63.961808 
L 86.051783 114.398468 
L 86.106142 64.560325 
L 86.160501 75.194698 
L 86.21486 101.283561 
L 86.269219 82.974602 
L 86.323578 48.221345 
L 86.377937 81.200815 
L 86.432296 78.055731 
L 86.486655 61.29262 
L 86.541013 112.003972 
L 86.595372 64.591356 
L 86.649731 90.502277 
L 86.70409 89.724308 
L 86.867167 73.750318 
L 86.921526 60.469101 
L 86.975885 74.105638 
L 87.030244 70.820204 
L 87.193321 95.834977 
L 87.24768 99.216716 
L 87.410756 69.235813 
L 87.465115 82.56186 
L 87.519474 77.422747 
L 87.573833 39.902495 
L 87.628192 74.828835 
L 87.682551 78.151113 
L 87.73691 90.759874 
L 87.791269 43.106685 
L 87.845628 47.561247 
L 88.063063 92.578588 
L 88.117422 88.663894 
L 88.171781 68.447267 
L 88.22614 69.867644 
L 88.280499 93.647373 
L 88.334858 64.87904 
L 88.389217 84.511723 
L 88.443576 111.574565 
L 88.552294 77.23259 
L 88.606653 118.802026 
L 88.661012 51.192114 
L 88.715371 64.007964 
L 88.76973 59.083683 
L 88.824088 100.221198 
L 88.878447 100.141637 
L 88.932806 65.843023 
L 88.987165 84.897689 
L 89.041524 86.021962 
L 89.095883 104.613201 
L 89.150242 47.615937 
L 89.204601 80.532204 
L 89.313319 67.194298 
L 89.422037 92.448854 
L 89.476396 66.414513 
L 89.530755 97.315516 
L 89.585113 42.103915 
L 89.639472 112.622531 
L 89.693831 97.360442 
L 89.74819 63.670075 
L 89.802549 91.325466 
L 89.911267 40.64429 
L 89.965626 48.331468 
L 90.128703 84.353133 
L 90.183062 53.361163 
L 90.237421 74.530775 
L 90.29178 77.057585 
L 90.346138 99.084428 
L 90.400497 81.052038 
L 90.454856 88.913427 
L 90.509215 58.024877 
L 90.563574 75.425656 
L 90.617933 71.39488 
L 90.672292 41.857892 
L 90.78101 91.34353 
L 90.889728 40.162089 
L 90.998446 90.722646 
L 91.107163 71.622312 
L 91.161522 76.923775 
L 91.215881 69.282417 
L 91.27024 94.679705 
L 91.324599 59.64302 
L 91.378958 70.733278 
L 91.487676 82.512374 
L 91.542035 59.971254 
L 91.596394 65.078703 
L 91.650753 64.734703 
L 91.705112 80.261199 
L 91.759471 67.257614 
L 91.81383 74.509818 
L 91.868188 109.878263 
L 91.922547 55.954769 
L 91.976906 83.64549 
L 92.139983 72.888201 
L 92.248701 115.494931 
L 92.30306 90.200637 
L 92.411778 63.647267 
L 92.466137 109.58492 
L 92.520496 92.126571 
L 92.574855 65.130277 
L 92.629213 74.038725 
L 92.683572 85.915094 
L 92.737931 48.703912 
L 92.79229 89.715557 
L 92.846649 81.659483 
L 92.901008 66.858532 
L 92.955367 72.991096 
L 93.009726 88.375417 
L 93.064085 83.344045 
L 93.227162 54.675453 
L 93.281521 61.975581 
L 93.390238 91.877113 
L 93.444597 79.458187 
L 93.498956 83.224675 
L 93.607674 43.077078 
L 93.662033 44.414921 
L 93.82511 90.526237 
L 93.933828 84.883707 
L 93.988187 59.366239 
L 94.042546 61.736601 
L 94.096905 71.530819 
L 94.151263 126.785243 
L 94.205622 60.479117 
L 94.259981 87.160003 
L 94.31434 103.328931 
L 94.368699 71.157206 
L 94.477417 71.430372 
L 94.640494 113.295746 
L 94.85793 66.351555 
L 94.912288 70.776621 
L 95.075365 55.096874 
L 95.129724 89.250272 
L 95.184083 49.565066 
L 95.238442 82.835889 
L 95.292801 101.93692 
L 95.34716 32.696966 
L 95.401519 76.932726 
L 95.455878 70.355541 
L 95.510237 116.844027 
L 95.564596 93.993455 
L 95.673313 70.099109 
L 95.83639 92.654199 
L 95.945108 51.092184 
L 96.162544 115.574911 
L 96.216903 49.367002 
L 96.271262 74.549272 
L 96.325621 82.816283 
L 96.488697 43.550206 
L 96.543056 92.698288 
L 96.597415 79.016928 
L 96.651774 48.380163 
L 96.814851 91.153214 
L 96.86921 75.433464 
L 96.923569 82.412383 
L 96.977928 84.525463 
L 97.032287 77.391677 
L 97.086646 53.169853 
L 97.141005 87.641409 
L 97.195364 76.960603 
L 97.249722 63.657985 
L 97.35844 95.517457 
L 97.467158 78.474364 
L 97.521517 93.276817 
L 97.575876 62.205209 
L 97.630235 71.980218 
L 97.738953 96.232102 
L 97.793312 83.653777 
L 97.847671 85.370305 
L 97.90203 103.129481 
L 97.956389 89.204622 
L 98.010747 52.365145 
L 98.065106 90.578346 
L 98.119465 99.464932 
L 98.228183 53.648744 
L 98.336901 75.548592 
L 98.39126 38.037917 
L 98.445619 75.530277 
L 98.499978 51.044452 
L 98.554337 53.841213 
L 98.663055 69.16469 
L 98.826131 103.988403 
L 98.88049 105.881371 
L 98.989208 47.245794 
L 99.043567 93.771237 
L 99.152285 92.791837 
L 99.206644 45.989741 
L 99.261003 49.679418 
L 99.369721 100.155225 
L 99.42408 64.563073 
L 99.478439 81.427201 
L 99.587156 63.702981 
L 99.641515 74.096018 
L 99.695874 54.320237 
L 99.858951 82.96615 
L 99.91331 46.248469 
L 99.967669 50.947569 
L 100.130746 94.459805 
L 100.239464 63.882908 
L 100.293822 83.219512 
L 100.348181 50.272777 
L 100.40254 62.172639 
L 100.456899 87.937499 
L 100.511258 52.678249 
L 100.565617 116.942011 
L 100.619976 52.832399 
L 100.728694 57.831907 
L 100.783053 95.396479 
L 100.837412 74.989796 
L 100.891771 64.868316 
L 100.94613 88.759072 
L 101.000489 80.865355 
L 101.217924 98.943511 
L 101.272283 41.835574 
L 101.326642 86.010799 
L 101.381001 82.044874 
L 101.43536 90.317364 
L 101.544078 34.427313 
L 101.761514 90.165674 
L 101.815872 87.310403 
L 101.870231 49.824131 
L 101.92459 63.122319 
L 101.978949 73.429077 
L 102.033308 56.542829 
L 102.087667 69.390616 
L 102.142026 70.118353 
L 102.196385 56.609032 
L 102.250744 74.133589 
L 102.305103 66.997794 
L 102.359462 56.197159 
L 102.413821 90.743633 
L 102.46818 74.341174 
L 102.576897 70.005264 
L 102.685615 96.596956 
L 102.794333 67.357361 
L 102.848692 75.407201 
L 102.95741 89.952959 
L 103.011769 26.341626 
L 103.066128 72.35718 
L 103.120487 69.085879 
L 103.174846 86.189719 
L 103.229205 72.76855 
L 103.283564 82.526694 
L 103.337922 80.341606 
L 103.392281 76.759063 
L 103.44664 102.908131 
L 103.609717 70.990941 
L 103.664076 68.421461 
L 103.718435 59.190016 
L 103.772794 87.108047 
L 103.827153 85.544627 
L 103.881512 51.532215 
L 103.935871 66.03751 
L 104.098947 88.703439 
L 104.153306 67.135451 
L 104.207665 83.864646 
L 104.262024 112.598826 
L 104.425101 67.338542 
L 104.47946 60.859159 
L 104.642537 103.126699 
L 104.696896 102.756106 
L 104.751255 55.226775 
L 104.805614 84.125138 
L 104.859972 91.779511 
L 104.914331 69.885196 
L 104.96869 87.547523 
L 105.131767 56.636999 
L 105.186126 73.875627 
L 105.240485 42.96718 
L 105.294844 72.187189 
L 105.349203 70.871974 
L 105.51228 97.261865 
L 105.566639 47.205443 
L 105.620997 97.885294 
L 105.675356 94.725791 
L 105.838433 38.239668 
L 105.892792 122.097754 
L 105.947151 91.57239 
L 106.00151 69.036171 
L 106.055869 90.289486 
L 106.110228 75.404161 
L 106.164587 86.672824 
L 106.273305 67.900832 
L 106.327664 104.438555 
L 106.382022 33.86363 
L 106.436381 94.416706 
L 106.49074 53.652325 
L 106.545099 89.107207 
L 106.599458 73.542145 
L 106.653817 73.77418 
L 106.708176 75.435747 
L 106.762535 72.050813 
L 106.816894 84.887335 
L 106.925612 58.998025 
L 106.979971 80.380691 
L 107.088689 80.163775 
L 107.143047 54.544327 
L 107.197406 75.399119 
L 107.251765 64.956175 
L 107.414842 90.326389 
L 107.577919 122.286434 
L 107.632278 65.515936 
L 107.686637 90.098073 
L 107.958431 59.250655 
L 108.01279 126.175926 
L 108.067149 84.355259 
L 108.121508 97 
L 108.284585 58.63002 
L 108.338944 56.340744 
L 108.393303 78.399849 
L 108.447662 56.64644 
L 108.502021 65.969698 
L 108.55638 49.740061 
L 108.610739 92.223504 
L 108.665097 64.303599 
L 108.719456 69.341578 
L 108.773815 105.961648 
L 108.828174 70.664707 
L 108.882533 87.406947 
L 108.936892 68.833607 
L 109.099969 127.636364 
L 109.154328 58.717525 
L 109.208687 64.274993 
L 109.371764 84.845849 
L 109.426122 57.172487 
L 109.480481 70.689412 
L 109.53484 64.315504 
L 109.752276 89.489375 
L 109.860994 75.181681 
L 109.915353 120.097108 
L 109.969712 85.180933 
L 110.07843 45.734232 
L 110.241506 92.896086 
L 110.295865 72.433024 
L 110.350224 81.696966 
L 110.404583 79.772465 
L 110.458942 113.018178 
L 110.513301 50.151063 
L 110.56766 53.093355 
L 110.622019 89.785194 
L 110.676378 76.163855 
L 110.730737 49.067214 
L 110.893814 94.115147 
L 110.948172 50.705146 
L 111.002531 81.804302 
L 111.05689 54.130876 
L 111.165608 101.525175 
L 111.219967 99.357999 
L 111.274326 74.141836 
L 111.328685 94.038652 
L 111.546121 32.561101 
L 111.709197 93.091456 
L 111.872274 43.647303 
L 111.926633 101.559649 
L 111.980992 49.016249 
L 112.035351 79.218057 
L 112.08971 37.626294 
L 112.144069 90.886588 
L 112.198428 83.946014 
L 112.252787 80.473436 
L 112.361505 56.625748 
L 112.524581 104.724257 
L 112.687658 47.532305 
L 112.796376 89.984839 
L 112.850735 69.367166 
L 112.905094 75.863468 
L 112.959453 71.903487 
L 113.013812 84.773198 
L 113.068171 76.075477 
L 113.12253 75.840504 
L 113.176889 70.708566 
L 113.285606 95.446122 
L 113.503042 59.778322 
L 113.557401 118.107702 
L 113.61176 86.232066 
L 113.666119 85.787385 
L 113.829196 56.334171 
L 113.883555 93.341019 
L 113.937914 92.913241 
L 114.046631 51.854723 
L 114.10099 84.172665 
L 114.155349 78.934475 
L 114.209708 73.202017 
L 114.264067 95.064271 
L 114.318426 47.063036 
L 114.372785 93.542062 
L 114.481503 74.541711 
L 114.535862 90.497325 
L 114.698939 52.837275 
L 114.807656 91.030262 
L 114.916374 61.244472 
L 115.079451 107.682179 
L 115.13381 48.151177 
L 115.188169 81.298821 
L 115.242528 102.489244 
L 115.296887 68.731722 
L 115.351246 104.507368 
L 115.405605 92.097722 
L 115.459964 87.589253 
L 115.514323 53.95112 
L 115.568681 70.412755 
L 115.62304 103.280666 
L 115.677399 70.402542 
L 115.731758 88.110642 
L 115.786117 68.833029 
L 115.840476 74.029739 
L 115.894835 79.650689 
L 115.949194 23.456003 
L 116.003553 89.218558 
L 116.057912 82.890434 
L 116.112271 73.729052 
L 116.275348 86.044228 
L 116.384065 77.911231 
L 116.492783 91.839381 
L 116.601501 49.535613 
L 116.764578 80.374575 
L 116.927655 58.902981 
L 117.036373 99.600939 
L 117.090731 81.623685 
L 117.14509 96.714589 
L 117.199449 59.746551 
L 117.253808 70.367128 
L 117.308167 76.201903 
L 117.362526 59.667689 
L 117.416885 92.22375 
L 117.471244 61.074877 
L 117.525603 66.906355 
L 117.579962 89.244122 
L 117.634321 76.630608 
L 117.68868 74.813345 
L 117.743039 94.789024 
L 117.851756 52.303782 
L 117.906115 113.713226 
L 117.960474 53.377739 
L 118.014833 61.638469 
L 118.069192 96.249678 
L 118.123551 66.341152 
L 118.17791 47.439879 
L 118.232269 94.447122 
L 118.286628 69.653652 
L 118.340987 70.073294 
L 118.395346 62.969416 
L 118.449705 72.604552 
L 118.504064 66.821862 
L 118.558423 36.176175 
L 118.721499 90.733311 
L 118.775858 61.439467 
L 118.830217 74.926659 
L 118.938935 120.927069 
L 118.993294 91.58898 
L 119.047653 43.922164 
L 119.102012 72.733211 
L 119.156371 67.618698 
L 119.265089 100.720903 
L 119.319448 81.230957 
L 119.373806 79.315032 
L 119.482524 67.307345 
L 119.536883 88.937947 
L 119.591242 78.509727 
L 119.69996 102.114108 
L 119.754319 97.447578 
L 119.808678 57.112892 
L 119.863037 105.412839 
L 119.917396 84.41089 
L 120.080473 39.844639 
L 120.026114 84.822207 
L 120.134831 41.084664 
L 120.18919 42.394442 
L 120.243549 56.279101 
L 120.297908 36.761021 
L 120.352267 92.140063 
L 120.406626 66.809397 
L 120.460985 65.301279 
L 120.515344 85.348923 
L 120.569703 38.64299 
L 120.624062 93.034472 
L 120.73278 92.850334 
L 120.787139 55.714774 
L 120.841498 72.601489 
L 120.895856 71.435279 
L 120.950215 96.231426 
L 121.113292 60.495651 
L 121.167651 108.797008 
L 121.22201 78.368779 
L 121.276369 79.104427 
L 121.330728 42.486768 
L 121.385087 64.01176 
L 121.439446 45.028006 
L 121.493805 100.487374 
L 121.548164 80.263567 
L 121.602523 90.577663 
L 121.656881 72.211929 
L 121.765599 93.917866 
L 121.874317 57.93782 
L 121.928676 90.400751 
L 121.983035 55.645147 
L 122.037394 65.839489 
L 122.091753 99.959506 
L 122.146112 45.57763 
L 122.200471 83.973632 
L 122.25483 89.404372 
L 122.363548 47.992989 
L 122.417906 75.096827 
L 122.526624 70.82771 
L 122.689701 88.305027 
L 122.74406 60.798268 
L 122.798419 79.846453 
L 122.852778 86.208713 
L 122.961496 51.673898 
L 123.124573 70.95234 
L 123.178931 49.75028 
L 123.23329 73.855571 
L 123.287649 66.311303 
L 123.396367 58.524162 
L 123.450726 82.76173 
L 123.505085 65.875497 
L 123.559444 66.366084 
L 123.613803 47.476784 
L 123.722521 91.247351 
L 123.77688 68.609263 
L 123.831239 84.278257 
L 123.885598 122.089779 
L 123.939956 61.859932 
L 123.994315 91.445745 
L 124.211751 73.427603 
L 124.320469 89.656186 
L 124.374828 86.49167 
L 124.429187 85.838034 
L 124.483546 67.095301 
L 124.537905 73.801707 
L 124.700981 115.327976 
L 124.75534 63.039859 
L 124.809699 69.204589 
L 124.864058 72.110603 
L 124.918417 101.86638 
L 124.972776 50.635921 
L 125.027135 90.491391 
L 125.081494 79.597793 
L 125.135853 89.145675 
L 125.190212 85.495727 
L 125.244571 96.376832 
L 125.353289 73.511097 
L 125.407648 107.151255 
L 125.462006 104.518481 
L 125.570724 40.495737 
L 125.625083 79.602517 
L 125.679442 74.81367 
L 125.842519 105.35342 
L 125.896878 50.8708 
L 125.951237 63.113717 
L 126.005596 89.894366 
L 126.114314 88.915971 
L 126.168673 81.233685 
L 126.223031 85.335768 
L 126.27739 93.223661 
L 126.440467 58.446005 
L 126.494826 82.327986 
L 126.549185 65.317113 
L 126.603544 46.575811 
L 126.766621 99.752914 
L 126.82098 70.811868 
L 126.875339 120.390566 
L 126.929698 84.816438 
L 126.984056 80.541176 
L 127.092774 97.696013 
L 127.147133 68.254468 
L 127.201492 102.104045 
L 127.255851 78.959513 
L 127.31021 80.738382 
L 127.364569 44.169738 
L 127.418928 66.089219 
L 127.527646 83.177442 
L 127.582005 68.987674 
L 127.636364 116.590303 
L 127.636364 116.590303 
" clip-path="url(#p5db5abef91)" style="fill: none; stroke: #8da0cb; stroke-width: 1.5; stroke-linecap: square"/>
   </g>
   <g id="patch_3">
    <path d="M 10.8 133.2 
L 10.8 10.8 
" style="fill: none; stroke: #000000; stroke-width: 0.8; stroke-linejoin: miter; stroke-linecap: square"/>
   </g>
   <g id="patch_4">
    <path d="M 133.2 133.2 
L 133.2 10.8 
" style="fill: none; stroke: #000000; stroke-width: 0.8; stroke-linejoin: miter; stroke-linecap: square"/>
   </g>
   <g id="patch_5">
    <path d="M 10.8 133.2 
L 133.2 133.2 
" style="fill: none; stroke: #000000; stroke-width: 0.8; stroke-linejoin: miter; stroke-linecap: square"/>
   </g>
   <g id="patch_6">
    <path d="M 10.8 10.8 
L 133.2 10.8 
" style="fill: none; stroke: #000000; stroke-width: 0.8; stroke-linejoin: miter; stroke-linecap: square"/>
   </g>
  </g>
 </g>
 <defs>
  <clipPath id="p5db5abef91">
   <rect x="10.8" y="10.8" width="122.4" height="122.4"/>
  </clipPath>
 </defs>
</svg>
