<?xml version="1.0" encoding="utf-8" standalone="no"?>
<!DOCTYPE svg PUBLIC "-//W3C//DTD SVG 1.1//EN"
  "http://www.w3.org/Graphics/SVG/1.1/DTD/svg11.dtd">
<svg xmlns:xlink="http://www.w3.org/1999/xlink" width="144pt" height="144pt" viewBox="0 0 144 144" xmlns="http://www.w3.org/2000/svg" version="1.1">
 <metadata>
  <rdf:RDF xmlns:dc="http://purl.org/dc/elements/1.1/" xmlns:cc="http://creativecommons.org/ns#" xmlns:rdf="http://www.w3.org/1999/02/22-rdf-syntax-ns#">
   <cc:Work>
    <dc:type rdf:resource="http://purl.org/dc/dcmitype/StillImage"/>
    <dc:date>2025-02-07T11:07:19.697847</dc:date>
    <dc:format>image/svg+xml</dc:format>
    <dc:creator>
     <cc:Agent>
      <dc:title>Matplotlib v3.8.0, https://matplotlib.org/</dc:title>
     </cc:Agent>
    </dc:creator>
   </cc:Work>
  </rdf:RDF>
 </metadata>
 <defs>
  <style type="text/css">*{stroke-linejoin: round; stroke-linecap: butt}</style>
 </defs>
 <g id="figure_1">
  <g id="patch_1">
   <path d="M 0 144 
L 144 144 
L 144 0 
L 0 0 
L 0 144 
z
" style="fill: none"/>
  </g>
  <g id="axes_1">
   <g id="patch_2">
    <path d="M 10.8 133.2 
L 133.2 133.2 
L 133.2 10.8 
L 10.8 10.8 
L 10.8 133.2 
z
" style="fill: none"/>
   </g>
   <g id="matplotlib.axis_1"/>
   <g id="matplotlib.axis_2"/>
   <g id="line2d_1">
    <path d="M 16.363636 68.493776 
L 16.417995 76.654297 
L 16.472354 66.571066 
L 16.526713 96.83117 
L 16.581072 96.370959 
L 16.68979 62.899618 
L 16.744149 64.845023 
L 16.798508 62.871747 
L 16.852867 101.255569 
L 16.907226 61.644791 
L 16.961585 37.604244 
L 17.124661 108.177993 
L 17.17902 70.403612 
L 17.233379 107.13089 
L 17.342097 86.48052 
L 17.396456 109.720126 
L 17.450815 88.44804 
L 17.613892 53.603031 
L 17.668251 72.993509 
L 17.72261 52.611797 
L 17.776969 58.315883 
L 17.831327 82.882495 
L 17.885686 60.325645 
L 17.940045 63.386614 
L 18.048763 101.89875 
L 18.103122 91.026641 
L 18.266199 39.048421 
L 18.320558 79.393948 
L 18.374917 27.528598 
L 18.429276 49.023221 
L 18.537994 71.329531 
L 18.70107 49.002157 
L 18.809788 80.157011 
L 18.918506 42.432687 
L 18.972865 82.700666 
L 19.027224 79.348489 
L 19.081583 39.172723 
L 19.135942 66.335982 
L 19.190301 72.159631 
L 19.24466 48.604048 
L 19.299019 83.740012 
L 19.353377 64.156006 
L 19.407736 63.340023 
L 19.462095 52.185858 
L 19.516454 53.133444 
L 19.570813 98.911386 
L 19.625172 35.421443 
L 19.679531 51.784994 
L 19.842608 92.307176 
L 19.951326 58.337036 
L 20.005685 61.362096 
L 20.114402 102.087764 
L 20.168761 50.284315 
L 20.22312 96.522273 
L 20.331838 73.767883 
L 20.494915 98.969108 
L 20.549274 66.381377 
L 20.603633 98.842837 
L 20.821069 50.215994 
L 20.929786 80.885816 
L 20.984145 78.199535 
L 21.038504 30.785013 
L 21.092863 62.185896 
L 21.147222 42.990805 
L 21.201581 90.939709 
L 21.25594 75.637288 
L 21.310299 75.592457 
L 21.364658 90.207845 
L 21.419017 77.838262 
L 21.527735 73.773138 
L 21.582094 94.88091 
L 21.636452 73.060792 
L 21.690811 67.627237 
L 21.74517 105.169031 
L 21.799529 89.528755 
L 21.908247 30.813071 
L 21.962606 62.406169 
L 22.071324 91.626139 
L 22.234401 47.217966 
L 22.28876 97.843523 
L 22.343119 63.521762 
L 22.397477 94.662431 
L 22.451836 71.129372 
L 22.560554 52.034983 
L 22.614913 97.502429 
L 22.669272 92.91652 
L 22.832349 55.928596 
L 22.886708 70.562868 
L 22.941067 49.393157 
L 22.995426 51.890477 
L 23.104144 88.565003 
L 23.158502 73.005427 
L 23.26722 60.4703 
L 23.321579 82.188744 
L 23.375938 65.233776 
L 23.430297 77.966218 
L 23.484656 77.081387 
L 23.539015 76.262335 
L 23.593374 42.90244 
L 23.647733 107.061997 
L 23.702092 88.246773 
L 23.81081 53.861798 
L 23.865169 80.575157 
L 23.919527 78.433554 
L 23.973886 76.004547 
L 24.028245 67.756685 
L 24.082604 82.430422 
L 24.191322 59.978776 
L 24.30004 106.585112 
L 24.354399 90.795689 
L 24.517476 43.961976 
L 24.626194 79.764242 
L 24.78927 33.486761 
L 24.952347 66.071903 
L 25.006706 68.313701 
L 25.061065 93.413834 
L 25.115424 74.257542 
L 25.169783 58.41712 
L 25.33286 101.461617 
L 25.387219 100.57644 
L 25.495936 94.118822 
L 25.550295 109.697766 
L 25.713372 49.919611 
L 25.767731 69.513559 
L 25.82209 84.6633 
L 25.930808 53.857706 
L 25.985167 72.439481 
L 26.039526 63.685215 
L 26.093885 31.902464 
L 26.256961 77.320143 
L 26.31132 79.979685 
L 26.420038 52.974456 
L 26.528756 90.515187 
L 26.637474 43.387751 
L 26.691833 74.890214 
L 26.800551 74.661123 
L 26.85491 69.397346 
L 26.909269 89.7275 
L 26.963627 62.893331 
L 27.017986 95.9832 
L 27.072345 37.829776 
L 27.126704 51.094627 
L 27.181063 47.809091 
L 27.289781 89.374671 
L 27.34414 54.281911 
L 27.398499 87.368009 
L 27.561576 48.062522 
L 27.670294 76.610622 
L 27.724652 100.379465 
L 27.779011 74.572942 
L 27.83337 101.896039 
L 27.887729 62.805431 
L 27.942088 85.940085 
L 27.996447 91.401341 
L 28.050806 80.63333 
L 28.105165 99.816927 
L 28.159524 86.71219 
L 28.213883 33.961391 
L 28.268242 55.182435 
L 28.322601 100.57065 
L 28.37696 88.712576 
L 28.485677 95.040062 
L 28.594395 60.339115 
L 28.648754 88.50435 
L 28.811831 43.726871 
L 28.920549 71.16924 
L 28.974908 52.842726 
L 29.083626 97.270402 
L 29.246702 77.06831 
L 29.301061 66.11767 
L 29.35542 89.52889 
L 29.409779 35.439632 
L 29.464138 72.740974 
L 29.518497 104.740136 
L 29.572856 56.822102 
L 29.627215 110.837442 
L 29.681574 81.970745 
L 29.735933 68.429409 
L 29.790292 106.222746 
L 29.844651 54.16157 
L 29.89901 68.540563 
L 29.953369 57.588032 
L 30.062086 114.881177 
L 30.116445 61.123138 
L 30.170804 102.015164 
L 30.333881 85.639747 
L 30.38824 88.072798 
L 30.442599 65.103918 
L 30.496958 76.828497 
L 30.605676 92.41917 
L 30.768752 46.59998 
L 30.823111 44.585942 
L 30.87747 127.636364 
L 30.931829 50.383365 
L 30.986188 61.986777 
L 31.040547 54.177173 
L 31.094906 60.081163 
L 31.149265 96.966317 
L 31.203624 74.990244 
L 31.257983 42.716468 
L 31.312342 84.50904 
L 31.366701 81.576593 
L 31.475419 67.735545 
L 31.529778 75.436591 
L 31.584136 68.180211 
L 31.638495 69.440393 
L 31.692854 60.871471 
L 31.747213 69.203044 
L 31.801572 79.408547 
L 31.855931 67.762458 
L 31.91029 91.621835 
L 31.964649 82.594313 
L 32.019008 85.45594 
L 32.073367 28.433442 
L 32.127726 80.00313 
L 32.182085 83.381788 
L 32.236444 47.796373 
L 32.290803 75.361983 
L 32.39952 60.253975 
L 32.453879 104.929982 
L 32.508238 78.497422 
L 32.562597 61.510092 
L 32.616956 74.30595 
L 32.834392 50.155852 
L 32.888751 117.78448 
L 32.94311 49.973676 
L 33.106186 84.527614 
L 33.214904 45.367152 
L 33.377981 95.102554 
L 33.43234 54.820107 
L 33.486699 55.383913 
L 33.595417 61.086605 
L 33.704135 102.882592 
L 33.758494 46.950308 
L 33.812853 65.644875 
L 33.867211 72.924175 
L 33.92157 38.764309 
L 34.030288 95.709064 
L 34.084647 31.279149 
L 34.139006 40.552427 
L 34.193365 82.176614 
L 34.247724 75.679626 
L 34.519519 52.123293 
L 34.628236 84.456401 
L 34.736954 82.714525 
L 34.845672 50.165305 
L 34.900031 83.715592 
L 34.95439 61.218513 
L 35.063108 97.48264 
L 35.117467 81.087382 
L 35.171826 70.874206 
L 35.226185 90.428826 
L 35.280544 45.566368 
L 35.334903 57.619477 
L 35.389261 88.060967 
L 35.44362 50.067479 
L 35.497979 53.057646 
L 35.552338 80.828666 
L 35.606697 68.168044 
L 35.661056 70.542063 
L 35.715415 69.567143 
L 35.769774 80.49534 
L 35.824133 76.19082 
L 35.878492 67.925043 
L 35.932851 98.047132 
L 35.98721 50.694112 
L 36.041569 70.96928 
L 36.150286 63.49123 
L 36.204645 94.942932 
L 36.259004 70.441415 
L 36.313363 51.28551 
L 36.47644 107.667471 
L 36.530799 99.91735 
L 36.585158 44.412132 
L 36.639517 61.902262 
L 36.693876 49.768787 
L 36.748235 59.226021 
L 36.802594 122.67369 
L 36.856953 83.152494 
L 37.020029 52.807693 
L 37.074388 69.334129 
L 37.128747 65.713166 
L 37.183106 61.149206 
L 37.237465 65.625213 
L 37.291824 89.940736 
L 37.346183 56.983812 
L 37.400542 78.600112 
L 37.50926 88.129543 
L 37.563619 55.594819 
L 37.617978 92.886816 
L 37.781054 42.451749 
L 37.835413 47.152944 
L 37.889772 100.093145 
L 37.944131 75.60142 
L 37.99849 83.464965 
L 38.052849 39.6212 
L 38.107208 59.886851 
L 38.161567 47.778947 
L 38.215926 52.600709 
L 38.270285 50.825638 
L 38.324644 57.896121 
L 38.379003 48.982782 
L 38.433361 52.940164 
L 38.48772 82.391338 
L 38.542079 81.664812 
L 38.596438 80.878612 
L 38.650797 102.970791 
L 38.705156 59.247533 
L 38.759515 69.029812 
L 38.868233 109.652846 
L 39.03131 60.264688 
L 39.194386 93.87673 
L 39.248745 94.866678 
L 39.357463 52.569817 
L 39.411822 61.42736 
L 39.466181 58.051897 
L 39.52054 93.487726 
L 39.574899 67.660938 
L 39.629258 83.537674 
L 39.683617 52.5396 
L 39.737976 66.985189 
L 39.792335 101.045231 
L 39.846694 99.852936 
L 39.955411 55.856832 
L 40.00977 86.328109 
L 40.064129 81.86944 
L 40.118488 80.269984 
L 40.172847 61.527314 
L 40.227206 80.211231 
L 40.281565 98.886653 
L 40.444642 41.228712 
L 40.55336 61.858621 
L 40.607719 97.899867 
L 40.662078 93.819266 
L 40.716436 74.041226 
L 40.770795 93.903941 
L 40.825154 98.878613 
L 40.879513 70.70339 
L 40.933872 89.819137 
L 40.988231 73.008886 
L 41.04259 76.195121 
L 41.096949 78.399562 
L 41.151308 42.847045 
L 41.205667 71.856769 
L 41.260026 70.952489 
L 41.368744 35.947866 
L 41.477461 104.059485 
L 41.53182 93.964267 
L 41.749256 32.157588 
L 41.803615 107.473783 
L 41.857974 52.883213 
L 41.912333 98.16081 
L 41.966692 71.630606 
L 42.021051 59.323782 
L 42.07541 68.556449 
L 42.129769 95.791609 
L 42.184128 74.487491 
L 42.238486 71.917904 
L 42.292845 52.375123 
L 42.401563 86.340897 
L 42.56464 50.052985 
L 42.673358 95.631311 
L 42.727717 76.610674 
L 42.836435 58.512744 
L 42.945153 87.541825 
L 42.999511 108.699326 
L 43.108229 50.294449 
L 43.162588 65.020851 
L 43.271306 93.488884 
L 43.488742 70.629049 
L 43.543101 82.205362 
L 43.59746 64.22959 
L 43.651819 91.621037 
L 43.706178 61.985085 
L 43.760536 74.36995 
L 43.814895 77.817819 
L 43.869254 71.378228 
L 43.923613 86.856853 
L 43.977972 84.084118 
L 44.08669 81.298036 
L 44.141049 55.101953 
L 44.249767 96.017665 
L 44.358485 60.572569 
L 44.412844 98.94183 
L 44.467203 64.556421 
L 44.57592 75.702209 
L 44.684638 48.758407 
L 44.738997 67.677001 
L 44.793356 47.308149 
L 44.902074 105.437423 
L 45.010792 62.890785 
L 45.173869 106.104415 
L 45.228228 71.77451 
L 45.282586 72.975275 
L 45.336945 78.940092 
L 45.391304 72.611766 
L 45.445663 38.562124 
L 45.500022 56.574068 
L 45.554381 56.187617 
L 45.60874 34.811927 
L 45.771817 95.603078 
L 45.934894 66.718501 
L 45.989253 72.367565 
L 46.043611 44.684625 
L 46.09797 71.841616 
L 46.152329 98.123911 
L 46.206688 49.976401 
L 46.261047 93.597818 
L 46.315406 63.854123 
L 46.369765 109.207029 
L 46.424124 59.563978 
L 46.478483 62.548446 
L 46.532842 104.291766 
L 46.587201 86.302263 
L 46.804636 31.849644 
L 47.022072 69.387101 
L 47.13079 109.741078 
L 47.185149 72.864376 
L 47.239508 79.743788 
L 47.293867 88.813296 
L 47.402585 48.074088 
L 47.456944 110.639069 
L 47.511303 59.387062 
L 47.565662 46.708081 
L 47.62002 106.23273 
L 47.674379 101.46408 
L 47.783097 79.373497 
L 47.837456 43.123785 
L 47.891815 77.871398 
L 48.054892 36.749013 
L 48.217969 116.681055 
L 48.272328 78.370608 
L 48.326687 79.58024 
L 48.381045 92.300008 
L 48.544122 56.042981 
L 48.598481 79.744555 
L 48.65284 65.718461 
L 48.707199 68.599664 
L 48.761558 53.325804 
L 48.815917 88.016593 
L 48.870276 77.902635 
L 48.924635 86.359957 
L 48.978994 53.125878 
L 49.033353 72.697185 
L 49.087712 96.638983 
L 49.250788 64.007638 
L 49.305147 57.408046 
L 49.468224 87.221131 
L 49.631301 49.430463 
L 49.68566 90.163522 
L 49.740019 68.497087 
L 49.903095 44.125972 
L 49.957454 92.516772 
L 50.011813 80.015267 
L 50.120531 54.246762 
L 50.229249 101.86236 
L 50.283608 40.495711 
L 50.337967 60.766498 
L 50.501044 82.656392 
L 50.66412 59.144295 
L 50.772838 82.87761 
L 50.827197 63.377739 
L 50.881556 95.280111 
L 50.935915 70.65365 
L 50.990274 50.42735 
L 51.044633 62.850517 
L 51.098992 62.038867 
L 51.20771 69.437937 
L 51.262069 65.918114 
L 51.316428 78.884391 
L 51.370787 76.456267 
L 51.425145 46.625739 
L 51.479504 66.736824 
L 51.588222 88.820444 
L 51.642581 83.751485 
L 51.69694 46.385017 
L 51.751299 49.604997 
L 51.860017 74.584683 
L 51.914376 68.886281 
L 51.968735 64.177184 
L 52.023094 74.108016 
L 52.077453 107.527343 
L 52.131812 71.45743 
L 52.18617 90.701232 
L 52.240529 82.664779 
L 52.294888 53.136954 
L 52.349247 81.466227 
L 52.512324 71.041655 
L 52.566683 36.370539 
L 52.621042 67.589561 
L 52.675401 62.589003 
L 52.72976 70.576304 
L 52.784119 60.045839 
L 52.892837 103.018339 
L 53.055913 45.796137 
L 53.110272 52.658895 
L 53.164631 84.567677 
L 53.21899 59.655743 
L 53.327708 93.756285 
L 53.382067 81.237166 
L 53.436426 76.461914 
L 53.490785 105.121802 
L 53.545144 60.501205 
L 53.599503 75.727892 
L 53.70822 74.219141 
L 53.762579 88.39011 
L 53.816938 85.622756 
L 53.871297 66.262167 
L 53.925656 94.873543 
L 53.980015 77.303093 
L 54.034374 51.542506 
L 54.088733 96.274975 
L 54.143092 64.214649 
L 54.197451 77.032498 
L 54.25181 54.597211 
L 54.306169 77.131409 
L 54.469245 91.62758 
L 54.523604 52.522198 
L 54.577963 81.385698 
L 54.632322 76.879502 
L 54.686681 109.740093 
L 54.74104 97.068444 
L 54.904117 60.025713 
L 54.958476 91.988456 
L 55.012835 56.476106 
L 55.067194 94.598435 
L 55.121553 45.707455 
L 55.175912 93.523677 
L 55.338988 71.288064 
L 55.502065 83.261191 
L 55.556424 79.708882 
L 55.610783 83.913895 
L 55.665142 65.755307 
L 55.77386 96.341021 
L 55.828219 95.538186 
L 55.882578 100.909267 
L 55.936937 65.587193 
L 55.991295 79.12052 
L 56.045654 79.890489 
L 56.100013 83.944877 
L 56.154372 63.233663 
L 56.208731 76.955635 
L 56.26309 75.57943 
L 56.371808 27.84143 
L 56.426167 33.772984 
L 56.589244 72.801341 
L 56.643603 94.826152 
L 56.697962 46.539192 
L 56.75232 68.686911 
L 56.915397 95.67872 
L 56.969756 51.970846 
L 57.024115 82.133268 
L 57.132833 66.915333 
L 57.187192 81.837189 
L 57.241551 60.930737 
L 57.29591 61.232088 
L 57.350269 65.053883 
L 57.404628 61.820264 
L 57.458987 59.053982 
L 57.513345 48.650594 
L 57.676422 98.921114 
L 57.839499 40.479709 
L 57.893858 45.602616 
L 57.948217 73.13394 
L 58.002576 59.771235 
L 58.056935 35.66781 
L 58.165653 88.390713 
L 58.220012 72.176518 
L 58.27437 101.943481 
L 58.328729 92.208038 
L 58.383088 77.749272 
L 58.437447 98.251962 
L 58.491806 79.201053 
L 58.546165 67.048535 
L 58.600524 69.849681 
L 58.654883 86.827526 
L 58.709242 63.932778 
L 58.872319 110.083402 
L 58.926678 82.108487 
L 58.981037 94.174199 
L 59.035395 96.936253 
L 59.089754 43.658674 
L 59.144113 54.396753 
L 59.198472 79.632003 
L 59.252831 78.413937 
L 59.30719 73.6133 
L 59.361549 44.711394 
L 59.415908 57.623611 
L 59.470267 92.775128 
L 59.524626 68.621815 
L 59.578985 80.046229 
L 59.633344 58.209292 
L 59.687703 91.746497 
L 59.742062 89.578702 
L 59.79642 61.141195 
L 59.850779 67.119122 
L 60.013856 98.280945 
L 60.122574 63.795321 
L 60.176933 98.302567 
L 60.231292 95.118847 
L 60.34001 52.285155 
L 60.503087 103.482667 
L 60.611804 80.931935 
L 60.666163 116.425208 
L 60.720522 50.189284 
L 60.774881 107.722815 
L 60.883599 49.283363 
L 60.937958 69.223122 
L 60.992317 94.409745 
L 61.046676 60.261847 
L 61.101035 80.710369 
L 61.155394 70.957009 
L 61.209753 91.960262 
L 61.264112 81.168329 
L 61.31847 70.893878 
L 61.372829 87.198326 
L 61.535906 39.871198 
L 61.590265 46.130494 
L 61.753342 106.243038 
L 62.025137 46.308342 
L 62.079495 105.194175 
L 62.133854 98.784566 
L 62.242572 56.75978 
L 62.296931 110.415877 
L 62.35129 84.326031 
L 62.405649 56.017498 
L 62.460008 58.856811 
L 62.514367 63.85245 
L 62.568726 86.687856 
L 62.623085 71.560061 
L 62.677444 32.44977 
L 62.84052 104.160601 
L 62.894879 67.267459 
L 62.949238 98.374831 
L 63.112315 55.935165 
L 63.221033 85.17571 
L 63.275392 61.649864 
L 63.329751 72.223531 
L 63.38411 87.856929 
L 63.438469 49.757599 
L 63.492828 82.613533 
L 63.547187 69.142455 
L 63.710263 87.71891 
L 63.818981 71.273081 
L 63.87334 78.135597 
L 63.927699 84.815275 
L 63.982058 57.238822 
L 64.090776 95.244165 
L 64.199494 64.449441 
L 64.253853 70.467493 
L 64.308212 66.839927 
L 64.362571 80.957051 
L 64.416929 66.0673 
L 64.471288 101.000491 
L 64.525647 99.014728 
L 64.580006 36.316684 
L 64.634365 84.556789 
L 64.743083 72.962499 
L 64.797442 99.969839 
L 64.851801 74.003966 
L 64.960519 100.479181 
L 65.069237 59.345031 
L 65.177954 83.842798 
L 65.232313 83.368261 
L 65.341031 48.229893 
L 65.39539 81.287653 
L 65.449749 68.81431 
L 65.504108 39.492794 
L 65.558467 46.022666 
L 65.775903 95.552742 
L 65.830262 66.181502 
L 65.884621 72.055897 
L 65.938979 78.350213 
L 66.047697 57.357835 
L 66.156415 86.910389 
L 66.210774 48.379992 
L 66.265133 95.459287 
L 66.319492 46.620571 
L 66.42821 91.439889 
L 66.482569 48.481626 
L 66.536928 61.853434 
L 66.591287 102.549704 
L 66.645646 74.566667 
L 66.700004 74.252216 
L 66.754363 81.184681 
L 66.808722 70.462814 
L 66.863081 95.772852 
L 66.91744 72.424898 
L 66.971799 74.052514 
L 67.026158 79.472094 
L 67.080517 76.539223 
L 67.189235 81.314618 
L 67.243594 92.68552 
L 67.297953 87.970432 
L 67.352312 73.69876 
L 67.406671 94.334069 
L 67.515388 94.479655 
L 67.569747 51.950186 
L 67.678465 106.691125 
L 67.732824 94.913934 
L 67.787183 61.143773 
L 67.841542 78.544544 
L 67.895901 70.090015 
L 67.95026 79.090018 
L 68.004619 64.688392 
L 68.058978 91.298349 
L 68.113337 66.737818 
L 68.276413 91.584148 
L 68.493849 41.892188 
L 68.656926 76.43325 
L 68.711285 78.076143 
L 68.820003 47.221964 
L 68.874362 92.301946 
L 68.928721 66.60893 
L 68.983079 48.859334 
L 69.037438 84.381167 
L 69.091797 59.094644 
L 69.146156 70.588102 
L 69.200515 43.723807 
L 69.363592 120.262687 
L 69.417951 36.968453 
L 69.47231 53.533403 
L 69.635387 87.683387 
L 69.744104 42.346612 
L 69.798463 57.595108 
L 69.907181 72.494869 
L 70.070258 101.566598 
L 70.178976 29.924608 
L 70.342053 124.822179 
L 70.396412 30.377974 
L 70.450771 72.016348 
L 70.505129 73.269946 
L 70.613847 96.074097 
L 70.722565 65.078026 
L 70.776924 82.822512 
L 70.831283 77.969493 
L 70.885642 42.97458 
L 70.940001 102.091475 
L 70.99436 56.359576 
L 71.048719 55.364109 
L 71.103078 95.39716 
L 71.157437 69.139417 
L 71.211796 67.973233 
L 71.266154 102.418729 
L 71.320513 73.770095 
L 71.374872 75.785363 
L 71.429231 101.995903 
L 71.48359 59.337347 
L 71.537949 97.251934 
L 71.646667 78.037086 
L 71.809744 37.658714 
L 71.972821 85.956529 
L 72.027179 64.32055 
L 72.081538 89.471882 
L 72.135897 69.872151 
L 72.190256 71.68907 
L 72.244615 51.365715 
L 72.353333 117.634165 
L 72.407692 44.55448 
L 72.462051 58.680663 
L 72.51641 60.430449 
L 72.570769 58.655616 
L 72.733846 87.416049 
L 72.788204 84.36575 
L 72.842563 40.3848 
L 72.896922 62.635047 
L 72.951281 80.007696 
L 73.00564 72.629913 
L 73.059999 70.380627 
L 73.114358 94.994992 
L 73.223076 46.313111 
L 73.277435 119.091684 
L 73.331794 90.869696 
L 73.494871 49.621827 
L 73.712306 88.6748 
L 73.766665 43.66497 
L 73.821024 72.183503 
L 73.929742 43.207108 
L 73.984101 79.980599 
L 74.03846 71.420423 
L 74.092819 27.85208 
L 74.255896 105.745074 
L 74.473331 64.602387 
L 74.52769 106.589138 
L 74.582049 71.902621 
L 74.636408 101.027476 
L 74.745126 48.495841 
L 74.799485 84.949513 
L 74.853844 74.295904 
L 74.908203 63.200775 
L 74.962562 66.158563 
L 75.016921 67.302428 
L 75.071279 83.611268 
L 75.125638 47.409588 
L 75.179997 92.279643 
L 75.234356 41.118866 
L 75.288715 77.943411 
L 75.343074 73.469078 
L 75.397433 53.532636 
L 75.56051 106.978855 
L 75.723587 61.170641 
L 75.832304 93.385611 
L 75.941022 62.890444 
L 75.995381 105.148157 
L 76.04974 53.626754 
L 76.104099 77.256122 
L 76.212817 61.327246 
L 76.267176 83.793586 
L 76.321535 76.377269 
L 76.375894 80.122654 
L 76.430253 70.414283 
L 76.484612 34.584936 
L 76.647688 106.628815 
L 76.810765 72.358197 
L 76.919483 60.136504 
L 76.973842 97.869755 
L 77.028201 55.996032 
L 77.08256 67.555224 
L 77.136919 102.657995 
L 77.191278 101.724534 
L 77.245637 89.673623 
L 77.299996 46.379753 
L 77.354354 65.974321 
L 77.408713 58.317723 
L 77.463072 71.375094 
L 77.517431 42.64778 
L 77.57179 98.352944 
L 77.626149 81.943907 
L 77.680508 78.05415 
L 77.897944 47.285766 
L 77.952303 101.200216 
L 78.006662 77.38974 
L 78.061021 61.996294 
L 78.115379 70.045822 
L 78.169738 102.410722 
L 78.224097 91.476155 
L 78.332815 88.620055 
L 78.495892 71.725057 
L 78.550251 103.523619 
L 78.60461 55.832806 
L 78.658969 87.848657 
L 78.767687 52.086286 
L 78.876404 88.570118 
L 78.930763 56.121889 
L 78.985122 69.149917 
L 79.039481 112.233528 
L 79.09384 88.545871 
L 79.148199 65.774505 
L 79.202558 70.084324 
L 79.256917 77.863709 
L 79.311276 51.858095 
L 79.365635 67.380224 
L 79.419994 62.148412 
L 79.474353 65.47237 
L 79.528712 89.749255 
L 79.583071 38.820498 
L 79.637429 67.776948 
L 79.691788 47.827187 
L 79.800506 103.05546 
L 79.909224 59.552087 
L 79.963583 92.104183 
L 80.017942 71.837695 
L 80.072301 64.524409 
L 80.235378 94.14829 
L 80.289737 81.413435 
L 80.344096 32.592667 
L 80.398455 104.562872 
L 80.452813 56.234879 
L 80.561531 103.049407 
L 80.61589 71.441033 
L 80.670249 71.49974 
L 80.833326 90.670369 
L 80.996403 58.067411 
L 81.105121 74.489068 
L 81.15948 67.791169 
L 81.213838 74.824009 
L 81.268197 103.837429 
L 81.322556 63.013737 
L 81.376915 72.283592 
L 81.485633 80.837266 
L 81.594351 26.344689 
L 81.757428 95.478399 
L 81.811787 93.948659 
L 81.974863 41.805925 
L 82.13794 82.320863 
L 82.192299 61.070467 
L 82.246658 103.85296 
L 82.301017 78.679052 
L 82.355376 55.037196 
L 82.409735 60.804457 
L 82.464094 60.828391 
L 82.627171 97.110426 
L 82.790247 45.666066 
L 82.844606 78.134564 
L 82.898965 70.44456 
L 82.953324 62.725343 
L 83.007683 82.452396 
L 83.062042 65.64215 
L 83.116401 47.039379 
L 83.279478 108.37466 
L 83.333837 106.665578 
L 83.551272 62.135393 
L 83.65999 106.104291 
L 83.714349 56.851525 
L 83.768708 105.587301 
L 84.040503 53.427889 
L 84.20358 86.032522 
L 84.257938 51.251808 
L 84.312297 77.082381 
L 84.366656 53.825748 
L 84.529733 120.229225 
L 84.638451 77.7675 
L 84.69281 82.481997 
L 84.855887 104.035596 
L 85.018963 54.564236 
L 85.18204 91.301453 
L 85.399476 51.64026 
L 85.453835 89.58747 
L 85.508194 47.252882 
L 85.562553 95.192802 
L 85.616912 45.465577 
L 85.72563 74.660839 
L 85.779988 63.709047 
L 85.888706 89.65056 
L 85.943065 69.422254 
L 85.997424 81.338261 
L 86.051783 85.802092 
L 86.160501 60.491269 
L 86.269219 67.445701 
L 86.377937 113.019674 
L 86.432296 75.026318 
L 86.486655 109.938552 
L 86.595372 59.301201 
L 86.649731 80.565114 
L 86.70409 107.339553 
L 86.758449 66.963602 
L 86.867167 68.34931 
L 86.921526 79.439084 
L 86.975885 48.79585 
L 87.030244 65.356588 
L 87.084603 72.239726 
L 87.138962 62.441411 
L 87.356397 126.907292 
L 87.410756 61.956686 
L 87.465115 63.831908 
L 87.573833 93.305617 
L 87.628192 61.054043 
L 87.682551 83.322453 
L 87.73691 74.503299 
L 87.845628 32.361285 
L 87.954346 94.398858 
L 88.008705 66.385257 
L 88.117422 90.948483 
L 88.22614 64.446019 
L 88.280499 87.02112 
L 88.334858 57.959753 
L 88.443576 105.251534 
L 88.661012 47.370099 
L 88.715371 97.682701 
L 88.76973 73.420452 
L 88.824088 68.97618 
L 88.932806 91.227858 
L 89.041524 65.301263 
L 89.150242 100.525138 
L 89.204601 54.067814 
L 89.25896 71.388782 
L 89.313319 72.066654 
L 89.367678 94.072711 
L 89.422037 58.533645 
L 89.476396 77.189635 
L 89.530755 80.87351 
L 89.585113 74.63146 
L 89.639472 49.388281 
L 89.693831 106.123639 
L 89.74819 77.66481 
L 89.856908 85.307782 
L 90.019985 46.494972 
L 90.183062 82.394265 
L 90.29178 61.527302 
L 90.346138 92.006237 
L 90.454856 49.55638 
L 90.509215 102.513784 
L 90.563574 79.622118 
L 90.617933 72.719833 
L 90.672292 89.152572 
L 90.78101 50.175799 
L 90.944087 100.175925 
L 90.998446 88.956229 
L 91.107163 72.298856 
L 91.161522 111.592774 
L 91.27024 51.795309 
L 91.324599 60.571544 
L 91.378958 95.244001 
L 91.433317 74.008481 
L 91.487676 73.736575 
L 91.542035 97.500229 
L 91.596394 48.575682 
L 91.650753 82.570996 
L 91.705112 60.307204 
L 91.759471 67.014518 
L 91.81383 70.217351 
L 91.868188 48.870217 
L 92.031265 107.61826 
L 92.248701 48.497211 
L 92.411778 115.346897 
L 92.574855 81.202864 
L 92.629213 51.548476 
L 92.683572 73.651477 
L 92.737931 81.60447 
L 92.79229 77.982937 
L 92.846649 78.534738 
L 92.901008 87.056667 
L 92.955367 54.399965 
L 93.009726 105.724766 
L 93.064085 94.066375 
L 93.33588 18.267382 
L 93.390238 33.622554 
L 93.444597 102.263693 
L 93.498956 61.984794 
L 93.553315 90.80494 
L 93.607674 47.115607 
L 93.662033 61.415401 
L 93.770751 92.708957 
L 93.82511 60.590171 
L 93.879469 61.094802 
L 93.988187 80.569687 
L 94.042546 56.352374 
L 94.096905 83.762842 
L 94.151263 71.892556 
L 94.259981 84.513963 
L 94.423058 16.465917 
L 94.531776 91.665584 
L 94.586135 41.615788 
L 94.640494 56.687764 
L 94.749212 89.701603 
L 94.803571 59.700755 
L 94.85793 74.049062 
L 94.912288 76.70454 
L 94.966647 97.894554 
L 95.021006 92.662968 
L 95.075365 93.734346 
L 95.129724 67.426113 
L 95.184083 71.106795 
L 95.34716 95.648478 
L 95.401519 69.320714 
L 95.455878 97.933305 
L 95.510237 85.382455 
L 95.564596 54.463287 
L 95.618955 71.952199 
L 95.673313 69.080615 
L 95.727672 111.972618 
L 95.782031 72.593827 
L 95.83639 82.935256 
L 95.890749 35.34612 
L 95.945108 83.659255 
L 95.999467 59.483595 
L 96.053826 77.376725 
L 96.108185 88.630772 
L 96.162544 80.596287 
L 96.216903 60.974883 
L 96.271262 77.221438 
L 96.37998 98.565716 
L 96.488697 44.346969 
L 96.597415 76.760827 
L 96.651774 71.206871 
L 96.706133 48.652072 
L 96.760492 53.54333 
L 96.814851 93.245854 
L 96.86921 25.441023 
L 96.923569 53.995512 
L 97.141005 93.76166 
L 97.249722 44.594557 
L 97.304081 83.319638 
L 97.35844 21.240706 
L 97.412799 76.91323 
L 97.467158 85.148827 
L 97.521517 79.845178 
L 97.575876 16.363636 
L 97.630235 49.651044 
L 97.684594 99.054019 
L 97.738953 79.220926 
L 97.793312 61.160531 
L 97.90203 108.457544 
L 98.065106 49.144804 
L 98.119465 45.891344 
L 98.228183 88.339316 
L 98.336901 85.319592 
L 98.445619 43.303843 
L 98.499978 109.727642 
L 98.554337 95.553622 
L 98.608696 90.693564 
L 98.717414 71.202251 
L 98.771772 109.431181 
L 98.826131 89.699775 
L 98.88049 66.68378 
L 98.934849 76.323194 
L 98.989208 93.33316 
L 99.043567 62.075844 
L 99.097926 99.384039 
L 99.152285 75.800757 
L 99.206644 61.217224 
L 99.261003 81.778207 
L 99.315362 80.18437 
L 99.369721 77.710776 
L 99.42408 90.866335 
L 99.478439 62.924413 
L 99.532797 91.20758 
L 99.641515 63.648684 
L 99.695874 89.177338 
L 99.750233 72.857577 
L 99.804592 23.657006 
L 99.858951 87.665283 
L 99.91331 44.589817 
L 100.076387 82.241666 
L 100.130746 48.632183 
L 100.185105 55.901073 
L 100.293822 76.247421 
L 100.456899 53.974026 
L 100.565617 112.854307 
L 100.619976 88.096581 
L 100.674335 76.333846 
L 100.728694 92.218832 
L 100.783053 67.356512 
L 100.837412 75.758508 
L 100.891771 76.839161 
L 100.94613 57.10399 
L 101.000489 97.933661 
L 101.054847 81.726969 
L 101.109206 62.868381 
L 101.163565 78.772542 
L 101.217924 84.303536 
L 101.381001 31.904763 
L 101.43536 97.82356 
L 101.489719 81.426677 
L 101.544078 72.121443 
L 101.598437 113.73922 
L 101.707155 46.528655 
L 101.761514 100.153143 
L 101.815872 37.781353 
L 101.870231 72.775606 
L 101.92459 68.877458 
L 101.978949 30.748906 
L 102.142026 113.120237 
L 102.305103 37.483255 
L 102.359462 72.681736 
L 102.413821 72.649037 
L 102.46818 68.646334 
L 102.522539 79.107306 
L 102.576897 49.739237 
L 102.739974 90.832448 
L 102.903051 44.214691 
L 103.011769 96.163044 
L 103.066128 87.633871 
L 103.120487 74.719506 
L 103.174846 80.543678 
L 103.337922 104.245419 
L 103.392281 77.375186 
L 103.44664 92.023103 
L 103.500999 102.692257 
L 103.555358 55.970037 
L 103.609717 92.189922 
L 103.718435 65.986655 
L 103.772794 92.319686 
L 103.827153 69.523748 
L 103.99023 105.256227 
L 104.098947 66.414995 
L 104.153306 93.053976 
L 104.207665 86.494491 
L 104.262024 87.391436 
L 104.316383 44.060368 
L 104.370742 87.922197 
L 104.425101 109.263516 
L 104.47946 62.004579 
L 104.533819 86.755853 
L 104.696896 61.910503 
L 104.805614 84.397111 
L 104.859972 78.179182 
L 105.023049 44.261015 
L 105.186126 121.173932 
L 105.294844 84.079802 
L 105.349203 97.088677 
L 105.403562 57.224358 
L 105.457921 65.899437 
L 105.566639 86.408352 
L 105.620997 58.304524 
L 105.675356 66.295339 
L 105.784074 73.060005 
L 105.838433 101.21494 
L 105.892792 74.651894 
L 106.00151 85.968665 
L 106.055869 50.523427 
L 106.110228 74.640179 
L 106.273305 96.455021 
L 106.327664 116.32406 
L 106.382022 56.070228 
L 106.49074 56.985343 
L 106.599458 91.163044 
L 106.762535 62.077843 
L 106.816894 58.390363 
L 106.925612 80.013743 
L 106.979971 59.553467 
L 107.03433 74.356973 
L 107.088689 106.00623 
L 107.143047 97.530469 
L 107.251765 80.305483 
L 107.306124 44.713518 
L 107.360483 63.754359 
L 107.414842 51.234689 
L 107.577919 81.896869 
L 107.686637 97.555123 
L 107.795355 74.973175 
L 107.849714 97.231593 
L 107.904072 67.562909 
L 107.958431 89.968279 
L 108.01279 107.306267 
L 108.067149 80.65863 
L 108.121508 103.220252 
L 108.338944 59.627017 
L 108.393303 64.625781 
L 108.447662 58.299167 
L 108.610739 76.630434 
L 108.665097 85.664404 
L 108.719456 51.316351 
L 108.773815 75.410683 
L 108.828174 55.333083 
L 108.882533 80.810742 
L 108.936892 75.386449 
L 108.991251 34.875791 
L 109.04561 102.93677 
L 109.099969 69.469344 
L 109.154328 86.932313 
L 109.208687 82.677844 
L 109.317405 36.319953 
L 109.426122 100.744948 
L 109.480481 93.421487 
L 109.53484 87.845856 
L 109.589199 55.714249 
L 109.643558 66.479432 
L 109.697917 108.085922 
L 109.752276 85.088141 
L 109.860994 73.665524 
L 109.915353 90.241762 
L 109.969712 63.899476 
L 110.024071 67.118792 
L 110.07843 110.303082 
L 110.132789 61.105792 
L 110.187147 61.525589 
L 110.295865 94.67802 
L 110.404583 31.26739 
L 110.458942 97.032815 
L 110.513301 74.32852 
L 110.676378 55.623985 
L 110.730737 85.194466 
L 110.785096 71.872785 
L 110.839455 77.341527 
L 110.893814 106.629545 
L 111.05689 58.547709 
L 111.111249 113.130804 
L 111.165608 57.571958 
L 111.219967 64.55523 
L 111.274326 93.11798 
L 111.328685 87.021273 
L 111.437403 64.84182 
L 111.60048 80.241724 
L 111.709197 53.216158 
L 111.763556 88.190919 
L 111.817915 84.426958 
L 111.980992 63.224726 
L 112.035351 58.274612 
L 112.08971 72.635659 
L 112.144069 29.026389 
L 112.198428 102.899572 
L 112.252787 76.389187 
L 112.307146 82.04169 
L 112.361505 79.452145 
L 112.415864 54.092968 
L 112.470222 61.972946 
L 112.524581 74.287276 
L 112.57894 64.111846 
L 112.633299 66.475334 
L 112.687658 58.003724 
L 112.742017 77.376632 
L 112.796376 44.797728 
L 112.850735 66.234549 
L 112.959453 88.154976 
L 113.12253 55.377955 
L 113.285606 48.814435 
L 113.394324 90.594382 
L 113.448683 78.831392 
L 113.503042 65.657034 
L 113.557401 96.425061 
L 113.61176 77.470196 
L 113.720478 67.681586 
L 113.883555 92.912111 
L 113.937914 37.445445 
L 113.992273 78.982908 
L 114.046631 74.909133 
L 114.10099 102.272074 
L 114.155349 68.967138 
L 114.209708 104.192864 
L 114.264067 76.875244 
L 114.318426 77.960239 
L 114.372785 93.494633 
L 114.427144 82.958408 
L 114.535862 56.521872 
L 114.590221 72.562546 
L 114.64458 91.202475 
L 114.698939 83.727552 
L 114.807656 54.045728 
L 114.916374 60.786827 
L 114.970733 88.323042 
L 115.025092 66.386677 
L 115.079451 67.786759 
L 115.13381 118.163858 
L 115.188169 34.653928 
L 115.242528 53.29497 
L 115.296887 59.50049 
L 115.351246 93.193417 
L 115.405605 63.066614 
L 115.459964 71.126253 
L 115.568681 116.1735 
L 115.677399 66.800393 
L 115.731758 85.226213 
L 115.786117 67.189088 
L 115.840476 77.144997 
L 115.894835 111.027486 
L 116.057912 51.342723 
L 116.16663 122.037027 
L 116.220989 87.792366 
L 116.275348 47.508722 
L 116.329706 70.38763 
L 116.438424 56.189131 
L 116.492783 74.121659 
L 116.547142 53.121875 
L 116.601501 65.856806 
L 116.65586 65.908782 
L 116.710219 62.163588 
L 116.764578 93.896488 
L 116.818937 67.470003 
L 116.873296 89.97114 
L 116.927655 62.817418 
L 116.982014 87.395242 
L 117.036373 75.503822 
L 117.090731 99.63502 
L 117.14509 52.286513 
L 117.199449 80.7974 
L 117.253808 60.54255 
L 117.308167 66.849265 
L 117.362526 79.037717 
L 117.416885 76.21486 
L 117.471244 74.592617 
L 117.634321 89.150488 
L 117.851756 52.039261 
L 117.906115 99.193237 
L 117.960474 67.315381 
L 118.014833 75.74877 
L 118.069192 51.122306 
L 118.123551 86.998059 
L 118.17791 75.772718 
L 118.232269 64.943743 
L 118.286628 88.991735 
L 118.340987 66.727291 
L 118.395346 63.12516 
L 118.558423 90.03788 
L 118.612781 54.895943 
L 118.66714 83.157999 
L 118.721499 82.400251 
L 118.775858 119.655058 
L 118.830217 88.64256 
L 118.884576 52.802831 
L 118.938935 76.779442 
L 118.993294 102.617463 
L 119.047653 83.667754 
L 119.102012 77.08289 
L 119.156371 90.098367 
L 119.265089 42.982187 
L 119.428165 92.577121 
L 119.536883 52.7074 
L 119.591242 87.950704 
L 119.645601 74.485732 
L 119.69996 57.478761 
L 119.754319 78.561175 
L 119.863037 31.39079 
L 119.917396 84.661809 
L 119.971755 52.973297 
L 120.080473 82.596181 
L 120.134831 98.012226 
L 120.18919 88.710269 
L 120.352267 62.45928 
L 120.406626 83.297474 
L 120.460985 77.021642 
L 120.569703 71.882979 
L 120.624062 119.207726 
L 120.787139 56.888726 
L 120.841498 59.106486 
L 120.895856 47.194837 
L 120.950215 91.144317 
L 121.004574 71.672207 
L 121.058933 80.917674 
L 121.22201 60.537498 
L 121.276369 93.827475 
L 121.330728 47.280637 
L 121.439446 47.833089 
L 121.602523 79.669974 
L 121.656881 95.110884 
L 121.71124 92.33359 
L 121.765599 40.545922 
L 121.819958 115.118882 
L 121.874317 86.182745 
L 121.928676 92.969941 
L 122.091753 64.052983 
L 122.146112 94.266247 
L 122.309189 53.071987 
L 122.417906 71.736945 
L 122.472265 48.143518 
L 122.526624 81.855702 
L 122.580983 72.907933 
L 122.689701 85.613592 
L 122.798419 55.681937 
L 122.852778 77.834926 
L 122.907137 68.354442 
L 123.015855 63.454322 
L 123.070214 69.094124 
L 123.178931 60.014859 
L 123.287649 80.505595 
L 123.342008 51.119505 
L 123.505085 102.226337 
L 123.559444 80.983463 
L 123.613803 85.222218 
L 123.77688 117.276497 
L 123.831239 69.037494 
L 123.885598 83.536786 
L 123.939956 71.567651 
L 123.994315 80.146138 
L 124.048674 77.880201 
L 124.103033 33.557844 
L 124.157392 87.308653 
L 124.211751 77.012164 
L 124.320469 45.690051 
L 124.374828 98.733192 
L 124.429187 73.275126 
L 124.483546 73.115918 
L 124.646623 89.827253 
L 124.75534 63.708824 
L 124.809699 73.038799 
L 124.972776 102.386197 
L 125.027135 47.877884 
L 125.081494 78.190726 
L 125.135853 75.666056 
L 125.190212 97.788625 
L 125.244571 77.919376 
L 125.353289 98.976963 
L 125.407648 53.889638 
L 125.462006 84.534505 
L 125.516365 57.979427 
L 125.679442 109.536765 
L 125.842519 67.63293 
L 125.951237 90.395273 
L 126.059955 55.282382 
L 126.114314 63.694223 
L 126.168673 82.945492 
L 126.223031 64.569534 
L 126.27739 69.362796 
L 126.331749 90.707972 
L 126.386108 81.96936 
L 126.494826 68.168164 
L 126.549185 83.772257 
L 126.603544 74.253567 
L 126.657903 73.302058 
L 126.712262 66.948165 
L 126.766621 69.059962 
L 126.875339 107.077291 
L 126.929698 42.270537 
L 126.984056 62.410085 
L 127.038415 89.57834 
L 127.092774 85.433024 
L 127.147133 64.56854 
L 127.201492 65.135698 
L 127.364569 88.94643 
L 127.418928 68.442486 
L 127.473287 76.945387 
L 127.582005 117.753278 
L 127.636364 77.065558 
L 127.636364 77.065558 
" clip-path="url(#p3ba830ee3e)" style="fill: none; stroke: #fc8d62; stroke-width: 1.5; stroke-linecap: square"/>
   </g>
   <g id="patch_3">
    <path d="M 10.8 133.2 
L 10.8 10.8 
" style="fill: none; stroke: #000000; stroke-width: 0.8; stroke-linejoin: miter; stroke-linecap: square"/>
   </g>
   <g id="patch_4">
    <path d="M 133.2 133.2 
L 133.2 10.8 
" style="fill: none; stroke: #000000; stroke-width: 0.8; stroke-linejoin: miter; stroke-linecap: square"/>
   </g>
   <g id="patch_5">
    <path d="M 10.8 133.2 
L 133.2 133.2 
" style="fill: none; stroke: #000000; stroke-width: 0.8; stroke-linejoin: miter; stroke-linecap: square"/>
   </g>
   <g id="patch_6">
    <path d="M 10.8 10.8 
L 133.2 10.8 
" style="fill: none; stroke: #000000; stroke-width: 0.8; stroke-linejoin: miter; stroke-linecap: square"/>
   </g>
  </g>
 </g>
 <defs>
  <clipPath id="p3ba830ee3e">
   <rect x="10.8" y="10.8" width="122.4" height="122.4"/>
  </clipPath>
 </defs>
</svg>
