<?xml version="1.0" encoding="utf-8" standalone="no"?>
<!DOCTYPE svg PUBLIC "-//W3C//DTD SVG 1.1//EN"
  "http://www.w3.org/Graphics/SVG/1.1/DTD/svg11.dtd">
<svg xmlns:xlink="http://www.w3.org/1999/xlink" width="144pt" height="144pt" viewBox="0 0 144 144" xmlns="http://www.w3.org/2000/svg" version="1.1">
 <metadata>
  <rdf:RDF xmlns:dc="http://purl.org/dc/elements/1.1/" xmlns:cc="http://creativecommons.org/ns#" xmlns:rdf="http://www.w3.org/1999/02/22-rdf-syntax-ns#">
   <cc:Work>
    <dc:type rdf:resource="http://purl.org/dc/dcmitype/StillImage"/>
    <dc:date>2025-02-07T11:07:19.813724</dc:date>
    <dc:format>image/svg+xml</dc:format>
    <dc:creator>
     <cc:Agent>
      <dc:title>Matplotlib v3.8.0, https://matplotlib.org/</dc:title>
     </cc:Agent>
    </dc:creator>
   </cc:Work>
  </rdf:RDF>
 </metadata>
 <defs>
  <style type="text/css">*{stroke-linejoin: round; stroke-linecap: butt}</style>
 </defs>
 <g id="figure_1">
  <g id="patch_1">
   <path d="M 0 144 
L 144 144 
L 144 0 
L 0 0 
L 0 144 
z
" style="fill: none"/>
  </g>
  <g id="axes_1">
   <g id="patch_2">
    <path d="M 10.8 133.2 
L 133.2 133.2 
L 133.2 10.8 
L 10.8 10.8 
L 10.8 133.2 
z
" style="fill: none"/>
   </g>
   <g id="matplotlib.axis_1"/>
   <g id="matplotlib.axis_2"/>
   <g id="line2d_1">
    <path d="M 16.363636 80.639557 
L 16.417995 65.069609 
L 16.472354 68.036377 
L 16.526713 95.494399 
L 16.581072 94.632007 
L 16.635431 72.952126 
L 16.68979 103.189343 
L 16.744149 72.869443 
L 16.798508 43.806372 
L 16.907226 93.279336 
L 16.961585 80.288291 
L 17.015944 37.447929 
L 17.070302 72.45592 
L 17.124661 101.237826 
L 17.17902 93.587508 
L 17.287738 58.694568 
L 17.342097 113.126862 
L 17.396456 42.959422 
L 17.450815 79.367174 
L 17.505174 70.0759 
L 17.559533 88.95619 
L 17.613892 44.227126 
L 17.668251 82.201933 
L 17.72261 99.118691 
L 17.776969 62.617612 
L 17.831327 109.711041 
L 17.885686 61.193038 
L 17.940045 96.638794 
L 18.048763 54.624119 
L 18.103122 106.645443 
L 18.157481 82.384124 
L 18.21184 65.905191 
L 18.320558 96.20344 
L 18.374917 86.4656 
L 18.429276 88.459797 
L 18.483635 35.795983 
L 18.537994 61.696669 
L 18.592352 62.792177 
L 18.646711 62.037943 
L 18.809788 107.391384 
L 19.081583 62.713163 
L 19.135942 73.462046 
L 19.190301 59.695233 
L 19.24466 78.483361 
L 19.299019 73.75414 
L 19.353377 69.853544 
L 19.407736 97.517516 
L 19.462095 80.834669 
L 19.570813 65.107679 
L 19.625172 70.472963 
L 19.679531 91.521661 
L 19.73389 73.515317 
L 19.788249 63.954887 
L 19.842608 101.767453 
L 19.896967 71.340686 
L 19.951326 74.941548 
L 20.005685 92.59783 
L 20.060044 90.581185 
L 20.114402 48.029975 
L 20.168761 77.691487 
L 20.22312 61.380624 
L 20.331838 101.415278 
L 20.386197 63.344893 
L 20.440556 80.166002 
L 20.549274 63.197718 
L 20.712351 107.476459 
L 20.875427 62.393895 
L 21.038504 106.817139 
L 21.092863 105.29727 
L 21.310299 52.160717 
L 21.364658 54.678365 
L 21.473376 99.143001 
L 21.582094 51.051468 
L 21.636452 73.180204 
L 21.74517 69.951006 
L 21.799529 100.373576 
L 21.853888 89.320267 
L 21.908247 98.32337 
L 22.071324 65.938913 
L 22.234401 75.783349 
L 22.28876 57.959727 
L 22.343119 89.964458 
L 22.397477 61.512528 
L 22.451836 87.84567 
L 22.506195 67.692925 
L 22.560554 75.142457 
L 22.669272 56.0698 
L 22.723631 99.726598 
L 22.77799 94.641677 
L 22.941067 62.828347 
L 22.995426 66.660904 
L 23.158502 120.629998 
L 23.26722 63.063699 
L 23.321579 78.042204 
L 23.375938 81.060522 
L 23.430297 50.438633 
L 23.484656 73.092966 
L 23.539015 92.892542 
L 23.593374 31.696296 
L 23.647733 63.138196 
L 23.702092 103.313893 
L 23.756451 37.498731 
L 23.81081 86.712794 
L 23.865169 48.192624 
L 23.919527 54.319863 
L 23.973886 103.118484 
L 24.028245 86.429827 
L 24.082604 64.557395 
L 24.136963 72.097667 
L 24.245681 97.132775 
L 24.354399 47.062296 
L 24.408758 64.398218 
L 24.463117 84.705551 
L 24.517476 39.27392 
L 24.571835 86.565166 
L 24.626194 60.339211 
L 24.680552 76.262146 
L 24.734911 76.122884 
L 24.78927 58.005853 
L 24.843629 98.183492 
L 24.897988 84.932525 
L 24.952347 89.965088 
L 25.006706 86.07202 
L 25.061065 80.611005 
L 25.169783 100.096384 
L 25.278501 42.287259 
L 25.33286 80.513809 
L 25.387219 54.304006 
L 25.441577 76.42493 
L 25.495936 58.809029 
L 25.604654 86.574051 
L 25.659013 66.555241 
L 25.713372 81.62113 
L 25.82209 66.27359 
L 25.876449 79.586432 
L 25.930808 71.865394 
L 25.985167 64.953558 
L 26.148244 93.575791 
L 26.202602 61.193175 
L 26.256961 87.174575 
L 26.365679 68.704441 
L 26.528756 97.281093 
L 26.583115 62.131374 
L 26.637474 81.663052 
L 26.691833 68.659692 
L 26.746192 103.31662 
L 26.800551 61.247881 
L 26.85491 88.205057 
L 26.909269 94.275546 
L 26.963627 53.904632 
L 27.017986 76.656872 
L 27.072345 75.350279 
L 27.126704 69.284361 
L 27.181063 70.615572 
L 27.235422 76.009962 
L 27.289781 64.63803 
L 27.34414 68.674644 
L 27.398499 116.558147 
L 27.452858 45.872456 
L 27.507217 62.040277 
L 27.561576 106.647566 
L 27.615935 63.616337 
L 27.724652 82.749513 
L 27.779011 43.269751 
L 27.83337 75.426367 
L 27.887729 66.469602 
L 27.996447 103.874961 
L 28.050806 80.814504 
L 28.105165 71.893509 
L 28.159524 83.32058 
L 28.213883 75.195415 
L 28.268242 75.211458 
L 28.322601 68.61314 
L 28.37696 91.387398 
L 28.431319 55.333291 
L 28.485677 79.975381 
L 28.540036 79.722127 
L 28.648754 74.295475 
L 28.757472 87.400207 
L 28.86619 39.471358 
L 28.920549 110.273478 
L 28.974908 80.621909 
L 29.137985 91.654742 
L 29.192344 66.48623 
L 29.246702 82.664359 
L 29.301061 89.85138 
L 29.35542 68.74493 
L 29.464138 96.086806 
L 29.518497 57.178878 
L 29.572856 73.56815 
L 29.627215 75.419713 
L 29.844651 125.113605 
L 29.953369 63.150646 
L 30.007727 76.252866 
L 30.116445 49.067747 
L 30.225163 100.385866 
L 30.38824 61.912567 
L 30.551317 107.77072 
L 30.660035 53.741266 
L 30.714394 62.433257 
L 30.768752 73.937965 
L 30.823111 42.081744 
L 30.87747 53.150409 
L 30.931829 88.304234 
L 30.986188 61.369994 
L 31.149265 96.29881 
L 31.203624 45.577215 
L 31.257983 71.184433 
L 31.312342 77.655852 
L 31.475419 50.799368 
L 31.529778 95.706829 
L 31.584136 83.005595 
L 31.638495 81.266803 
L 31.692854 91.920278 
L 31.747213 84.705769 
L 31.801572 48.676489 
L 31.855931 84.770414 
L 32.073367 67.823869 
L 32.236444 91.466536 
L 32.39952 67.036069 
L 32.508238 83.858997 
L 32.562597 72.41884 
L 32.616956 107.409135 
L 32.671315 49.797504 
L 32.725674 86.466256 
L 32.780033 53.726338 
L 32.834392 83.264621 
L 32.888751 69.06191 
L 32.94311 70.314239 
L 32.997469 95.899397 
L 33.051828 90.861369 
L 33.160545 60.468972 
L 33.214904 79.104199 
L 33.269263 70.239673 
L 33.323622 92.960198 
L 33.377981 67.96294 
L 33.43234 73.330649 
L 33.486699 83.69267 
L 33.541058 61.132022 
L 33.649776 88.183158 
L 33.704135 65.117115 
L 33.758494 108.435327 
L 33.812853 105.384445 
L 33.92157 64.609951 
L 33.975929 68.334852 
L 34.139006 92.101221 
L 34.247724 57.360885 
L 34.302083 57.762153 
L 34.356442 75.46259 
L 34.410801 55.277718 
L 34.519519 96.828182 
L 34.573878 79.146782 
L 34.628236 90.926377 
L 34.682595 85.398221 
L 34.736954 46.423639 
L 34.791313 91.043341 
L 34.845672 56.348065 
L 34.900031 79.410717 
L 34.95439 73.750546 
L 35.008749 73.913152 
L 35.063108 79.20691 
L 35.117467 67.41851 
L 35.171826 67.685397 
L 35.226185 68.400004 
L 35.280544 70.773623 
L 35.334903 60.120679 
L 35.497979 86.122672 
L 35.552338 75.424937 
L 35.606697 88.368614 
L 35.661056 59.977047 
L 35.715415 95.375531 
L 35.769774 95.369687 
L 35.824133 70.218362 
L 35.878492 85.716107 
L 35.932851 102.824724 
L 36.095928 64.018934 
L 36.150286 101.929267 
L 36.204645 100.393383 
L 36.259004 57.683584 
L 36.313363 92.521564 
L 36.367722 95.205069 
L 36.47644 95.884835 
L 36.530799 59.831447 
L 36.585158 61.204645 
L 36.639517 101.886373 
L 36.693876 83.940951 
L 36.748235 75.054871 
L 36.911311 103.951364 
L 36.96567 74.832343 
L 37.020029 86.826426 
L 37.074388 84.965569 
L 37.128747 75.362441 
L 37.183106 114.20269 
L 37.237465 76.548043 
L 37.291824 65.895582 
L 37.346183 102.309347 
L 37.400542 97.936666 
L 37.454901 69.401905 
L 37.50926 86.415803 
L 37.563619 108.457498 
L 37.617978 53.37064 
L 37.672336 64.834038 
L 37.726695 95.262651 
L 37.781054 26.249837 
L 37.835413 94.580399 
L 37.889772 82.530316 
L 37.944131 89.549304 
L 37.99849 97.662988 
L 38.107208 57.590017 
L 38.161567 71.489246 
L 38.215926 78.153322 
L 38.270285 100.70559 
L 38.324644 95.118691 
L 38.433361 54.409893 
L 38.48772 86.887092 
L 38.542079 56.544454 
L 38.596438 65.701791 
L 38.650797 62.043894 
L 38.705156 61.523481 
L 38.759515 76.690243 
L 38.813874 61.13446 
L 39.085669 116.289859 
L 39.140028 106.768058 
L 39.194386 99.191086 
L 39.248745 69.577874 
L 39.303104 101.296027 
L 39.357463 70.247436 
L 39.411822 77.678349 
L 39.466181 42.564032 
L 39.574899 88.565321 
L 39.629258 54.444159 
L 39.683617 64.882878 
L 39.737976 85.356985 
L 39.792335 59.523556 
L 39.846694 73.496263 
L 39.901053 77.696763 
L 39.955411 77.252274 
L 40.064129 34.398144 
L 40.227206 81.337705 
L 40.281565 78.824579 
L 40.335924 92.431086 
L 40.390283 87.956229 
L 40.444642 62.204532 
L 40.499001 84.453157 
L 40.55336 82.453145 
L 40.662078 47.153516 
L 40.716436 91.382803 
L 40.770795 70.995009 
L 40.879513 68.83582 
L 40.933872 72.532561 
L 40.988231 91.461592 
L 41.04259 46.459236 
L 41.096949 57.89163 
L 41.151308 94.480571 
L 41.205667 39.594305 
L 41.260026 64.905638 
L 41.314385 76.502882 
L 41.368744 51.945284 
L 41.423103 67.756416 
L 41.53182 98.739556 
L 41.640538 71.859439 
L 41.694897 83.775653 
L 41.749256 83.36703 
L 41.966692 49.371712 
L 42.07541 102.108658 
L 42.129769 64.689373 
L 42.184128 68.4161 
L 42.238486 68.901192 
L 42.347204 106.620449 
L 42.401563 91.541521 
L 42.455922 68.536665 
L 42.510281 108.993823 
L 42.56464 83.355647 
L 42.618999 83.950788 
L 42.673358 98.529853 
L 42.727717 64.672298 
L 42.782076 86.395871 
L 42.836435 71.635165 
L 42.890794 72.200901 
L 42.945153 82.172168 
L 42.999511 42.524586 
L 43.05387 96.318005 
L 43.108229 36.894016 
L 43.162588 63.703407 
L 43.216947 66.553656 
L 43.325665 93.721923 
L 43.380024 52.340663 
L 43.434383 91.503908 
L 43.488742 55.453013 
L 43.543101 66.77993 
L 43.651819 101.323262 
L 43.760536 52.489885 
L 43.869254 90.654295 
L 43.923613 41.895088 
L 43.977972 71.217175 
L 44.08669 100.870978 
L 44.141049 62.461769 
L 44.195408 71.232817 
L 44.249767 69.232683 
L 44.358485 94.334744 
L 44.521561 54.373531 
L 44.684638 89.451711 
L 44.738997 86.068036 
L 44.793356 91.042017 
L 44.847715 51.566502 
L 44.902074 86.319103 
L 44.956433 55.227675 
L 45.010792 71.032042 
L 45.173869 55.06381 
L 45.228228 64.663042 
L 45.282586 46.032374 
L 45.336945 53.534627 
L 45.391304 63.749401 
L 45.445663 39.920328 
L 45.500022 83.681151 
L 45.554381 65.382743 
L 45.60874 37.993616 
L 45.663099 91.893465 
L 45.717458 80.456207 
L 45.771817 49.528087 
L 45.826176 92.030993 
L 45.880535 51.834807 
L 45.934894 79.568872 
L 45.989253 50.19551 
L 46.043611 96.311191 
L 46.09797 72.756961 
L 46.152329 70.445697 
L 46.206688 81.838667 
L 46.261047 66.738531 
L 46.315406 76.060977 
L 46.369765 100.95804 
L 46.424124 72.837813 
L 46.478483 87.155308 
L 46.532842 92.495628 
L 46.587201 61.457259 
L 46.64156 101.019138 
L 46.695919 66.991532 
L 46.750278 95.87501 
L 46.804636 85.662846 
L 46.858995 64.759508 
L 46.913354 76.560672 
L 46.967713 107.765986 
L 47.185149 28.436533 
L 47.239508 102.117829 
L 47.293867 82.066459 
L 47.348226 59.75459 
L 47.456944 90.122802 
L 47.511303 46.378852 
L 47.565662 68.770156 
L 47.62002 102.472638 
L 47.728738 58.391211 
L 48.000533 100.49237 
L 48.054892 99.989118 
L 48.217969 49.442694 
L 48.326687 86.637771 
L 48.489763 69.278387 
L 48.544122 75.482669 
L 48.598481 69.364361 
L 48.65284 63.674556 
L 48.707199 85.728395 
L 48.761558 73.122777 
L 48.815917 43.37361 
L 48.978994 115.707346 
L 49.033353 111.272535 
L 49.087712 24.963763 
L 49.14207 89.02023 
L 49.250788 66.261683 
L 49.305147 87.523622 
L 49.359506 72.868357 
L 49.413865 85.858309 
L 49.522583 48.568513 
L 49.576942 84.177481 
L 49.68566 83.87936 
L 49.740019 111.924706 
L 49.794378 77.772537 
L 49.848737 105.538943 
L 49.903095 99.154729 
L 49.957454 53.853555 
L 50.011813 55.560515 
L 50.066172 87.20504 
L 50.120531 70.442639 
L 50.17489 61.612484 
L 50.392326 107.879071 
L 50.555403 50.072069 
L 50.66412 87.146941 
L 50.718479 54.380059 
L 50.772838 83.77971 
L 50.827197 80.068515 
L 50.881556 86.072477 
L 51.044633 54.237635 
L 51.153351 84.713122 
L 51.20771 62.121902 
L 51.262069 86.36873 
L 51.316428 59.358583 
L 51.370787 64.799465 
L 51.479504 93.548554 
L 51.588222 92.610973 
L 51.69694 82.963159 
L 51.751299 88.270723 
L 51.805658 64.748704 
L 51.860017 74.503137 
L 51.968735 79.62952 
L 52.023094 76.14848 
L 52.131812 59.679733 
L 52.18617 62.839219 
L 52.240529 101.808812 
L 52.294888 64.424881 
L 52.349247 55.509834 
L 52.403606 58.698298 
L 52.512324 88.482322 
L 52.566683 81.197881 
L 52.621042 88.817798 
L 52.675401 127.43057 
L 52.838478 47.209333 
L 52.892837 59.503368 
L 52.947195 115.497769 
L 53.001554 75.524867 
L 53.110272 50.053874 
L 53.164631 93.855566 
L 53.21899 73.727813 
L 53.273349 66.907129 
L 53.382067 124.392564 
L 53.436426 51.372562 
L 53.490785 67.42021 
L 53.545144 62.603365 
L 53.599503 81.232955 
L 53.653862 71.760368 
L 53.70822 53.542173 
L 53.762579 78.814069 
L 53.816938 55.276988 
L 53.871297 46.23421 
L 53.980015 90.98654 
L 54.034374 68.8345 
L 54.088733 82.824791 
L 54.143092 49.386342 
L 54.197451 73.41825 
L 54.306169 58.626465 
L 54.360528 59.257861 
L 54.414887 67.557848 
L 54.469245 46.657451 
L 54.632322 89.817473 
L 54.795399 49.949542 
L 54.849758 45.294795 
L 54.904117 117.751734 
L 54.958476 66.912291 
L 55.067194 87.600583 
L 55.175912 57.238086 
L 55.23027 84.648872 
L 55.284629 37.408481 
L 55.338988 57.543721 
L 55.447706 101.24195 
L 55.502065 97.844407 
L 55.610783 39.153773 
L 55.665142 83.093228 
L 55.719501 111.30267 
L 55.77386 104.44211 
L 55.936937 62.503611 
L 55.991295 72.483086 
L 56.045654 46.504923 
L 56.100013 107.63552 
L 56.154372 53.462957 
L 56.317449 87.61422 
L 56.371808 20.366646 
L 56.426167 100.290583 
L 56.480526 75.745015 
L 56.534885 44.005319 
L 56.589244 44.788582 
L 56.75232 101.043534 
L 56.806679 81.136298 
L 56.861038 106.395341 
L 56.969756 42.254644 
L 57.024115 64.774992 
L 57.078474 81.648364 
L 57.241551 37.999098 
L 57.29591 35.678726 
L 57.350269 89.047691 
L 57.404628 76.288039 
L 57.458987 63.826672 
L 57.567704 105.838424 
L 57.622063 75.709114 
L 57.676422 124.148353 
L 57.730781 50.835344 
L 57.78514 57.624973 
L 57.948217 103.312537 
L 58.111294 49.642395 
L 58.220012 87.379419 
L 58.27437 59.867479 
L 58.328729 70.449555 
L 58.383088 74.29553 
L 58.546165 41.657516 
L 58.872319 115.768828 
L 59.089754 36.038918 
L 59.144113 80.861054 
L 59.198472 43.52492 
L 59.30719 78.778575 
L 59.361549 68.748748 
L 59.415908 86.223201 
L 59.524626 45.341295 
L 59.633344 96.517146 
L 59.742062 73.284295 
L 59.79642 79.725465 
L 59.850779 49.629819 
L 59.959497 104.831482 
L 60.176933 51.161869 
L 60.34001 101.280385 
L 60.448728 65.240832 
L 60.611804 100.544592 
L 60.666163 57.044244 
L 60.720522 66.243589 
L 60.774881 104.279797 
L 60.82924 76.208403 
L 60.883599 66.102885 
L 60.937958 74.640646 
L 60.992317 91.782694 
L 61.046676 44.330743 
L 61.101035 99.57926 
L 61.155394 74.656957 
L 61.209753 76.006645 
L 61.264112 52.320899 
L 61.31847 91.295111 
L 61.372829 89.39631 
L 61.535906 58.213642 
L 61.590265 57.072586 
L 61.644624 83.657466 
L 61.698983 58.938468 
L 61.753342 59.662739 
L 61.807701 96.207464 
L 61.86206 77.356034 
L 61.916419 75.929765 
L 61.970778 56.770449 
L 62.079495 102.669666 
L 62.242572 69.746373 
L 62.296931 108.528208 
L 62.35129 93.712388 
L 62.405649 81.940907 
L 62.514367 108.885284 
L 62.568726 58.058425 
L 62.623085 68.724835 
L 62.677444 72.619445 
L 62.731803 67.490224 
L 62.894879 107.222489 
L 63.003597 54.93711 
L 63.057956 89.470629 
L 63.112315 84.971715 
L 63.166674 81.647779 
L 63.221033 93.569248 
L 63.329751 52.997096 
L 63.438469 108.557975 
L 63.492828 59.333002 
L 63.547187 67.879517 
L 63.601545 116.660137 
L 63.655904 68.542243 
L 63.764622 93.05536 
L 63.87334 49.596781 
L 63.927699 98.975112 
L 63.982058 80.065412 
L 64.036417 94.974204 
L 64.199494 52.588805 
L 64.308212 94.998659 
L 64.362571 88.246691 
L 64.416929 108.575792 
L 64.471288 68.837438 
L 64.525647 82.835792 
L 64.580006 84.037127 
L 64.634365 49.379872 
L 64.688724 90.041964 
L 64.743083 85.875602 
L 64.797442 87.022896 
L 64.90616 52.608804 
L 64.960519 112.270669 
L 65.014878 33.147877 
L 65.069237 65.617109 
L 65.177954 62.619486 
L 65.232313 65.742694 
L 65.286672 87.094368 
L 65.341031 57.950835 
L 65.504108 110.60732 
L 65.558467 32.527742 
L 65.612826 34.843015 
L 65.775903 78.077374 
L 65.830262 58.041697 
L 65.884621 85.348486 
L 65.938979 75.741714 
L 65.993338 67.592225 
L 66.047697 69.171526 
L 66.156415 73.946229 
L 66.210774 81.915952 
L 66.265133 59.888757 
L 66.319492 74.069096 
L 66.373851 110.999963 
L 66.42821 79.765015 
L 66.482569 44.747305 
L 66.536928 59.904811 
L 66.591287 95.484319 
L 66.645646 71.316448 
L 66.700004 70.127874 
L 66.754363 90.182905 
L 66.808722 78.94373 
L 66.863081 54.942023 
L 66.91744 82.63285 
L 66.971799 42.666228 
L 67.026158 53.891695 
L 67.189235 95.512684 
L 67.243594 77.972886 
L 67.297953 92.265961 
L 67.352312 84.120714 
L 67.406671 25.544668 
L 67.461029 50.772014 
L 67.732824 84.127459 
L 67.787183 81.883653 
L 67.841542 105.47875 
L 68.004619 56.81063 
L 68.058978 69.803352 
L 68.113337 34.577331 
L 68.167696 44.131099 
L 68.222054 94.402404 
L 68.276413 72.123686 
L 68.330772 83.864873 
L 68.385131 63.180767 
L 68.43949 110.386217 
L 68.493849 54.927021 
L 68.548208 64.530595 
L 68.602567 58.695241 
L 68.656926 69.729368 
L 68.711285 50.99799 
L 68.765644 90.076127 
L 68.874362 89.48151 
L 68.928721 91.713112 
L 68.983079 65.786953 
L 69.037438 76.391717 
L 69.091797 98.119999 
L 69.146156 67.67303 
L 69.254874 107.036024 
L 69.309233 55.012708 
L 69.417951 56.794807 
L 69.47231 90.898899 
L 69.526669 53.093071 
L 69.581028 81.111829 
L 69.689746 92.736782 
L 69.744104 46.772823 
L 69.798463 80.832612 
L 69.852822 76.85544 
L 69.907181 97.140747 
L 69.96154 77.093179 
L 70.015899 32.193772 
L 70.070258 38.058987 
L 70.233335 88.194853 
L 70.287694 52.162575 
L 70.342053 80.771523 
L 70.396412 81.234672 
L 70.450771 108.535849 
L 70.559488 59.910186 
L 70.613847 65.069091 
L 70.722565 103.14862 
L 70.776924 81.386879 
L 70.831283 78.319856 
L 70.885642 52.394493 
L 70.940001 76.466679 
L 70.99436 79.565002 
L 71.048719 122.990861 
L 71.103078 110.903406 
L 71.157437 83.186645 
L 71.211796 84.40545 
L 71.266154 94.784559 
L 71.320513 51.076639 
L 71.374872 53.707773 
L 71.537949 111.751042 
L 71.592308 89.104064 
L 71.646667 50.118842 
L 71.701026 68.375001 
L 71.755385 86.289613 
L 71.809744 46.313939 
L 71.864103 111.785193 
L 71.918462 56.350972 
L 71.972821 52.267084 
L 72.027179 64.409551 
L 72.081538 120.023605 
L 72.135897 65.692703 
L 72.190256 88.618946 
L 72.244615 68.242895 
L 72.298974 73.711379 
L 72.353333 57.584529 
L 72.407692 98.843464 
L 72.462051 57.916456 
L 72.51641 65.391234 
L 72.570769 91.269507 
L 72.625128 54.120724 
L 72.679487 60.686284 
L 72.896922 92.322792 
L 73.00564 69.142865 
L 73.059999 87.967882 
L 73.114358 44.212677 
L 73.168717 81.840006 
L 73.277435 94.94125 
L 73.440512 60.724353 
L 73.494871 71.495332 
L 73.549229 68.824076 
L 73.603588 46.139233 
L 73.657947 70.300907 
L 73.712306 66.930252 
L 73.766665 45.561112 
L 73.821024 94.923893 
L 73.875383 71.035324 
L 73.929742 48.049526 
L 73.984101 91.707551 
L 74.03846 75.194748 
L 74.147178 51.439763 
L 74.310254 91.873425 
L 74.364613 58.87468 
L 74.418972 77.84442 
L 74.473331 90.69603 
L 74.52769 59.521414 
L 74.582049 71.813937 
L 74.636408 85.202671 
L 74.690767 48.871349 
L 74.745126 75.877251 
L 74.853844 66.772423 
L 74.908203 79.99185 
L 74.962562 71.215497 
L 75.016921 71.968855 
L 75.071279 105.970657 
L 75.125638 75.480051 
L 75.234356 46.014113 
L 75.288715 101.834701 
L 75.343074 79.718197 
L 75.397433 56.607228 
L 75.451792 79.509966 
L 75.506151 87.998327 
L 75.56051 114.018273 
L 75.614869 69.822388 
L 75.669228 72.124843 
L 75.777946 76.359565 
L 75.832304 48.109369 
L 75.886663 85.860443 
L 75.941022 56.788741 
L 75.995381 42.837731 
L 76.04974 49.078642 
L 76.104099 79.267179 
L 76.158458 68.788121 
L 76.212817 52.911714 
L 76.375894 70.237079 
L 76.484612 33.13298 
L 76.647688 87.454835 
L 76.702047 34.669937 
L 76.756406 99.256379 
L 76.810765 82.947125 
L 76.865124 76.025616 
L 76.919483 81.042506 
L 76.973842 82.270454 
L 77.028201 71.231771 
L 77.08256 85.554317 
L 77.191278 57.901919 
L 77.245637 108.921778 
L 77.299996 47.064209 
L 77.354354 83.14057 
L 77.517431 55.548809 
L 77.680508 104.684445 
L 77.734867 54.772297 
L 77.789226 97.606837 
L 77.843585 76.585976 
L 77.897944 83.138955 
L 77.952303 84.243956 
L 78.006662 94.699985 
L 78.115379 16.363636 
L 78.278456 91.459549 
L 78.332815 84.278368 
L 78.441533 53.103789 
L 78.495892 75.84384 
L 78.550251 58.764139 
L 78.60461 69.474846 
L 78.658969 54.233533 
L 78.713328 95.118496 
L 78.767687 79.210441 
L 78.822046 69.440054 
L 78.985122 122.308267 
L 79.039481 44.237254 
L 79.09384 73.033093 
L 79.202558 56.324446 
L 79.256917 98.854818 
L 79.311276 72.006482 
L 79.365635 78.377283 
L 79.474353 57.826154 
L 79.528712 65.667831 
L 79.583071 76.359226 
L 79.637429 72.60653 
L 79.746147 54.221491 
L 79.854865 96.37605 
L 79.909224 81.531722 
L 79.963583 73.918376 
L 80.12666 106.004778 
L 80.289737 63.016406 
L 80.344096 75.734282 
L 80.398455 59.255845 
L 80.452813 74.634886 
L 80.561531 83.45978 
L 80.724608 44.098036 
L 80.778967 82.290294 
L 80.833326 43.202472 
L 80.887685 50.309636 
L 81.050762 96.832467 
L 81.105121 101.515757 
L 81.15948 69.272362 
L 81.213838 76.564696 
L 81.322556 89.96314 
L 81.485633 60.161501 
L 81.64871 97.672758 
L 81.757428 45.472163 
L 81.920505 90.896377 
L 81.974863 67.259659 
L 82.029222 83.147745 
L 82.083581 73.887875 
L 82.13794 95.57448 
L 82.192299 94.159591 
L 82.301017 71.265582 
L 82.355376 84.247077 
L 82.518453 25.101973 
L 82.572812 105.340153 
L 82.627171 91.831233 
L 82.68153 90.468303 
L 82.790247 40.180916 
L 82.953324 109.614829 
L 83.007683 85.355645 
L 83.062042 103.665647 
L 83.17076 83.301806 
L 83.225119 89.088689 
L 83.279478 114.598395 
L 83.333837 66.977672 
L 83.388196 88.544323 
L 83.442555 83.584445 
L 83.496913 105.188176 
L 83.551272 82.305102 
L 83.605631 113.595012 
L 83.65999 72.684907 
L 83.714349 112.077185 
L 83.877426 65.531637 
L 83.931785 88.775486 
L 83.986144 62.493575 
L 84.040503 67.542844 
L 84.094862 89.114852 
L 84.149221 86.487071 
L 84.257938 57.071822 
L 84.312297 84.82007 
L 84.366656 72.981581 
L 84.421015 80.121672 
L 84.475374 60.338651 
L 84.584092 117.588785 
L 84.638451 55.201899 
L 84.69281 67.087571 
L 84.801528 89.740322 
L 84.855887 77.408398 
L 84.910246 94.097825 
L 85.073322 57.291247 
L 85.127681 75.230464 
L 85.18204 39.473573 
L 85.236399 57.075074 
L 85.290758 84.612216 
L 85.345117 75.514202 
L 85.399476 50.695971 
L 85.453835 71.0711 
L 85.508194 75.34301 
L 85.562553 98.191922 
L 85.72563 43.829115 
L 85.834347 95.052419 
L 85.888706 55.912774 
L 86.051783 119.187114 
L 86.21486 56.471016 
L 86.323578 102.336638 
L 86.377937 91.56377 
L 86.432296 94.428672 
L 86.486655 96.334598 
L 86.541013 74.244271 
L 86.595372 85.048526 
L 86.70409 74.867469 
L 86.758449 79.266789 
L 86.812808 77.821863 
L 86.867167 80.769403 
L 86.921526 118.792617 
L 87.084603 64.087997 
L 87.138962 68.565264 
L 87.24768 55.704694 
L 87.410756 80.009393 
L 87.465115 57.636058 
L 87.519474 77.289748 
L 87.573833 77.898307 
L 87.628192 109.864414 
L 87.682551 89.756542 
L 87.73691 77.070073 
L 87.791269 100.406034 
L 87.845628 79.787052 
L 87.899987 88.334419 
L 87.954346 85.427506 
L 88.008705 49.350268 
L 88.063063 67.897376 
L 88.117422 51.357585 
L 88.22614 79.102728 
L 88.280499 56.6954 
L 88.334858 92.960421 
L 88.389217 49.439414 
L 88.443576 78.581688 
L 88.497935 73.702886 
L 88.552294 57.524582 
L 88.606653 67.869221 
L 88.661012 70.647451 
L 88.715371 100.730047 
L 88.76973 97.477154 
L 88.824088 95.062392 
L 88.987165 64.470198 
L 89.041524 71.646816 
L 89.095883 104.845056 
L 89.150242 71.651815 
L 89.204601 61.409354 
L 89.25896 84.515068 
L 89.367678 53.546537 
L 89.530755 81.301598 
L 89.639472 54.723138 
L 89.74819 96.286389 
L 89.911267 41.744896 
L 89.965626 80.640537 
L 90.019985 27.650925 
L 90.074344 64.746993 
L 90.128703 72.11162 
L 90.237421 106.143287 
L 90.29178 35.559286 
L 90.346138 81.829091 
L 90.400497 76.873365 
L 90.454856 81.284783 
L 90.509215 94.548333 
L 90.672292 31.919957 
L 90.835369 92.573874 
L 90.889728 74.911396 
L 90.944087 79.225102 
L 90.998446 91.998713 
L 91.052805 59.784151 
L 91.107163 85.13494 
L 91.161522 73.754558 
L 91.215881 88.839881 
L 91.324599 62.232266 
L 91.378958 94.957288 
L 91.433317 60.601251 
L 91.487676 73.95165 
L 91.542035 71.571162 
L 91.596394 106.524894 
L 91.650753 62.297681 
L 91.705112 79.895358 
L 91.759471 105.096282 
L 91.81383 91.791114 
L 91.868188 95.10392 
L 91.922547 87.88398 
L 92.031265 36.881905 
L 92.139983 91.46807 
L 92.194342 89.869943 
L 92.248701 105.913797 
L 92.411778 57.283184 
L 92.466137 52.282042 
L 92.520496 79.684139 
L 92.574855 70.674715 
L 92.629213 68.34372 
L 92.683572 87.121806 
L 92.737931 74.428605 
L 92.79229 76.765479 
L 92.955367 115.279843 
L 93.009726 85.960805 
L 93.064085 100.314867 
L 93.172803 71.946969 
L 93.227162 107.049509 
L 93.281521 70.951321 
L 93.390238 61.597733 
L 93.444597 85.567663 
L 93.498956 66.861635 
L 93.662033 86.565192 
L 93.716392 82.799994 
L 93.770751 90.074852 
L 93.82511 50.837894 
L 93.879469 102.744094 
L 93.933828 72.425843 
L 93.988187 90.788623 
L 94.042546 81.114604 
L 94.096905 63.461085 
L 94.205622 88.660401 
L 94.31434 61.508314 
L 94.368699 98.014461 
L 94.531776 45.24669 
L 94.694853 101.176431 
L 94.803571 91.559542 
L 94.85793 74.890798 
L 94.912288 94.626357 
L 94.966647 84.15449 
L 95.075365 51.320169 
L 95.129724 92.982606 
L 95.184083 66.565575 
L 95.292801 92.510986 
L 95.455878 67.669976 
L 95.510237 94.417303 
L 95.564596 73.535193 
L 95.618955 76.733983 
L 95.673313 86.592972 
L 95.727672 66.099578 
L 95.782031 98.773953 
L 95.83639 60.796373 
L 95.890749 91.877321 
L 95.945108 108.753444 
L 96.108185 48.079359 
L 96.216903 83.692088 
L 96.271262 55.150238 
L 96.325621 101.965234 
L 96.37998 85.947627 
L 96.434338 84.294422 
L 96.488697 57.288467 
L 96.543056 61.609903 
L 96.597415 84.342222 
L 96.651774 68.493511 
L 96.814851 85.559572 
L 96.86921 83.825437 
L 96.977928 58.287929 
L 97.032287 97.597435 
L 97.086646 69.235204 
L 97.249722 31.814161 
L 97.35844 96.156036 
L 97.412799 79.070362 
L 97.467158 81.115072 
L 97.521517 107.472573 
L 97.575876 86.945805 
L 97.630235 67.072532 
L 97.684594 75.478957 
L 97.738953 71.235563 
L 97.90203 32.731027 
L 97.956389 85.040119 
L 98.010747 61.924755 
L 98.065106 45.276785 
L 98.119465 96.404207 
L 98.173824 63.994869 
L 98.228183 64.080392 
L 98.282542 60.3931 
L 98.336901 79.844454 
L 98.39126 69.929356 
L 98.499978 54.143576 
L 98.554337 86.28536 
L 98.608696 75.437749 
L 98.663055 76.436635 
L 98.717414 70.811749 
L 98.771772 85.04341 
L 98.826131 83.426914 
L 98.934849 60.378315 
L 98.989208 65.65222 
L 99.043567 96.535314 
L 99.097926 58.37809 
L 99.152285 76.025797 
L 99.206644 70.360987 
L 99.261003 80.91802 
L 99.315362 66.566868 
L 99.369721 79.958353 
L 99.42408 79.186677 
L 99.478439 106.351901 
L 99.587156 58.925312 
L 99.695874 89.502529 
L 99.750233 63.811312 
L 99.804592 90.242738 
L 99.858951 65.09179 
L 99.91331 68.251011 
L 99.967669 86.777165 
L 100.076387 47.085007 
L 100.130746 56.245814 
L 100.185105 102.789799 
L 100.239464 79.107631 
L 100.348181 63.757906 
L 100.40254 80.626808 
L 100.511258 39.049369 
L 100.674335 116.875163 
L 100.783053 67.678479 
L 100.837412 71.638265 
L 100.94613 83.965137 
L 101.000489 77.655068 
L 101.163565 68.525078 
L 101.217924 74.214022 
L 101.272283 105.276442 
L 101.326642 83.399944 
L 101.381001 95.891933 
L 101.43536 89.0291 
L 101.489719 27.985364 
L 101.544078 66.13619 
L 101.598437 44.183582 
L 101.652796 45.873938 
L 101.815872 94.231824 
L 101.92459 63.355408 
L 102.087667 95.872044 
L 102.142026 46.293207 
L 102.196385 99.104613 
L 102.250744 54.854149 
L 102.359462 105.303238 
L 102.413821 72.903596 
L 102.46818 58.339473 
L 102.522539 93.273465 
L 102.576897 45.007217 
L 102.631256 64.477679 
L 102.685615 70.698519 
L 102.739974 68.048984 
L 102.794333 61.011923 
L 102.848692 95.552299 
L 102.903051 59.091322 
L 102.95741 97.041337 
L 103.011769 100.122847 
L 103.174846 71.939522 
L 103.229205 66.864816 
L 103.392281 126.835759 
L 103.44664 64.290819 
L 103.500999 64.726784 
L 103.609717 79.046392 
L 103.664076 75.808141 
L 103.718435 100.837338 
L 103.827153 63.579883 
L 103.881512 91.367618 
L 103.935871 60.363504 
L 103.99023 97.813494 
L 104.044589 83.956119 
L 104.098947 56.841483 
L 104.153306 68.447862 
L 104.207665 71.156239 
L 104.262024 68.051272 
L 104.47946 101.066671 
L 104.588178 58.438556 
L 104.642537 88.303769 
L 104.696896 77.736946 
L 104.805614 60.315026 
L 104.914331 104.111311 
L 104.96869 84.615569 
L 105.023049 85.894269 
L 105.077408 50.127634 
L 105.131767 64.311155 
L 105.186126 96.839179 
L 105.240485 75.719684 
L 105.294844 81.957783 
L 105.349203 66.142292 
L 105.403562 75.914879 
L 105.457921 87.175593 
L 105.620997 42.326729 
L 105.784074 86.950851 
L 105.892792 26.958764 
L 105.947151 68.709692 
L 106.00151 63.237802 
L 106.055869 80.17707 
L 106.110228 72.684998 
L 106.164587 48.592645 
L 106.218946 68.116324 
L 106.273305 93.991548 
L 106.327664 77.206046 
L 106.382022 64.995118 
L 106.436381 72.56656 
L 106.49074 123.522891 
L 106.653817 55.541456 
L 106.708176 115.064164 
L 106.762535 72.094416 
L 106.816894 84.976177 
L 106.871253 39.110792 
L 106.925612 112.077644 
L 106.979971 90.936683 
L 107.03433 62.636058 
L 107.088689 84.242451 
L 107.143047 94.375308 
L 107.197406 51.763956 
L 107.251765 83.459475 
L 107.414842 55.098574 
L 107.469201 82.870919 
L 107.52356 72.500983 
L 107.686637 85.487152 
L 107.795355 74.013656 
L 107.849714 49.215205 
L 107.904072 62.403749 
L 107.958431 50.68495 
L 108.067149 85.37356 
L 108.121508 41.212679 
L 108.175867 114.97598 
L 108.230226 56.39573 
L 108.284585 98.136708 
L 108.338944 58.095911 
L 108.393303 58.948651 
L 108.447662 73.357395 
L 108.502021 40.587144 
L 108.55638 53.483395 
L 108.610739 89.373964 
L 108.665097 84.807773 
L 108.773815 39.345545 
L 108.936892 102.07576 
L 109.099969 53.24587 
L 109.317405 103.621751 
L 109.371764 94.638153 
L 109.426122 100.168214 
L 109.480481 93.005762 
L 109.53484 34.997904 
L 109.589199 71.664603 
L 109.643558 68.644871 
L 109.697917 69.034251 
L 109.752276 49.253547 
L 109.915353 105.027196 
L 110.132789 46.569023 
L 110.187147 94.361218 
L 110.241506 86.446362 
L 110.295865 87.979808 
L 110.404583 57.371025 
L 110.458942 82.738351 
L 110.513301 27.289231 
L 110.56766 94.48401 
L 110.622019 69.663667 
L 110.676378 71.892767 
L 110.785096 48.494809 
L 110.839455 77.891322 
L 110.893814 52.303329 
L 110.948172 51.121008 
L 111.111249 76.263409 
L 111.165608 44.333531 
L 111.328685 98.275697 
L 111.437403 58.082255 
L 111.491762 81.235297 
L 111.546121 51.512233 
L 111.60048 109.339142 
L 111.654839 35.868367 
L 111.709197 47.99949 
L 111.763556 83.46243 
L 111.817915 34.51368 
L 111.872274 99.041737 
L 111.926633 85.880378 
L 111.980992 74.094836 
L 112.035351 34.231375 
L 112.08971 103.125505 
L 112.144069 86.970846 
L 112.252787 47.662018 
L 112.361505 56.441575 
L 112.415864 89.666608 
L 112.470222 64.273118 
L 112.524581 57.289121 
L 112.57894 90.247432 
L 112.633299 83.396486 
L 112.742017 79.719392 
L 112.796376 73.441567 
L 112.850735 94.926366 
L 112.905094 80.126296 
L 112.959453 90.693342 
L 113.013812 89.344852 
L 113.176889 68.662201 
L 113.231248 105.590208 
L 113.285606 91.868413 
L 113.339965 76.165417 
L 113.394324 96.214704 
L 113.448683 45.806132 
L 113.503042 73.312398 
L 113.557401 75.497201 
L 113.61176 62.758231 
L 113.774837 83.989701 
L 113.829196 79.391891 
L 113.883555 52.155803 
L 113.937914 82.804741 
L 113.992273 57.869967 
L 114.155349 99.184653 
L 114.318426 69.998213 
L 114.372785 84.243699 
L 114.427144 127.636364 
L 114.590221 55.365524 
L 114.753298 101.343648 
L 114.807656 84.990386 
L 114.916374 47.538619 
L 114.970733 103.520592 
L 115.025092 69.600012 
L 115.13381 59.554294 
L 115.188169 72.787054 
L 115.242528 64.176823 
L 115.296887 66.013443 
L 115.351246 83.937678 
L 115.459964 58.214272 
L 115.677399 86.601971 
L 115.786117 67.232772 
L 115.840476 112.253368 
L 115.894835 59.372144 
L 115.949194 68.88281 
L 116.003553 113.076916 
L 116.057912 82.620693 
L 116.112271 75.235375 
L 116.16663 86.886325 
L 116.220989 76.626929 
L 116.275348 59.117225 
L 116.329706 97.175139 
L 116.384065 86.607625 
L 116.438424 84.484912 
L 116.710219 61.313596 
L 116.818937 67.921719 
L 116.873296 67.540068 
L 116.927655 70.73052 
L 116.982014 40.580652 
L 117.036373 65.522346 
L 117.090731 65.339217 
L 117.14509 62.022365 
L 117.199449 93.694169 
L 117.253808 77.209233 
L 117.308167 59.105301 
L 117.362526 70.337676 
L 117.416885 111.622605 
L 117.471244 73.426956 
L 117.579962 47.391605 
L 117.634321 53.354464 
L 117.797398 100.739275 
L 117.960474 54.941277 
L 118.069192 69.555563 
L 118.123551 87.149298 
L 118.232269 39.476669 
L 118.286628 69.869822 
L 118.340987 66.679838 
L 118.395346 35.578549 
L 118.558423 81.418205 
L 118.612781 64.813382 
L 118.66714 69.77372 
L 118.721499 104.299614 
L 118.775858 74.158166 
L 118.830217 94.785362 
L 118.884576 73.040375 
L 118.938935 99.311724 
L 119.047653 50.314989 
L 119.102012 84.504271 
L 119.156371 54.348237 
L 119.265089 91.646829 
L 119.319448 85.945536 
L 119.373806 54.30263 
L 119.428165 76.652328 
L 119.482524 64.001255 
L 119.591242 100.614828 
L 119.645601 49.377799 
L 119.69996 73.192925 
L 119.754319 72.97159 
L 119.863037 91.011963 
L 119.917396 114.885899 
L 119.971755 51.704548 
L 120.026114 92.093528 
L 120.080473 95.668661 
L 120.134831 62.863749 
L 120.18919 104.11291 
L 120.243549 67.907026 
L 120.297908 67.574972 
L 120.352267 84.756313 
L 120.406626 58.976696 
L 120.460985 75.59177 
L 120.515344 106.113969 
L 120.678421 50.661603 
L 120.73278 49.37081 
L 120.787139 82.150667 
L 120.841498 66.543448 
L 120.895856 32.400578 
L 120.950215 57.707495 
L 121.058933 89.774184 
L 121.113292 77.906997 
L 121.22201 63.211464 
L 121.276369 97.009314 
L 121.330728 88.978105 
L 121.385087 85.059319 
L 121.493805 48.870801 
L 121.602523 91.065308 
L 121.71124 40.624189 
L 121.874317 97.166258 
L 121.928676 48.420233 
L 121.983035 65.70102 
L 122.037394 92.69837 
L 122.091753 73.458396 
L 122.200471 47.69909 
L 122.363548 91.706845 
L 122.417906 83.02774 
L 122.472265 95.983651 
L 122.526624 84.910949 
L 122.580983 67.180444 
L 122.635342 84.449958 
L 122.689701 98.71293 
L 122.798419 46.559339 
L 122.852778 55.380031 
L 122.907137 95.335263 
L 122.961496 57.480266 
L 123.015855 59.639753 
L 123.178931 104.086592 
L 123.23329 64.490241 
L 123.287649 85.689019 
L 123.342008 82.650366 
L 123.396367 70.550223 
L 123.450726 79.530557 
L 123.505085 84.669457 
L 123.668162 64.834295 
L 123.722521 81.513995 
L 123.77688 70.998209 
L 123.831239 65.854019 
L 123.885598 72.909652 
L 123.994315 55.529751 
L 124.048674 91.745126 
L 124.103033 49.032451 
L 124.157392 56.798161 
L 124.211751 90.758277 
L 124.26611 60.22821 
L 124.320469 61.396199 
L 124.374828 68.150428 
L 124.429187 97.505735 
L 124.483546 74.604266 
L 124.537905 75.527093 
L 124.592264 84.372933 
L 124.646623 60.74006 
L 124.700981 112.091413 
L 124.75534 81.289624 
L 124.864058 92.762209 
L 124.918417 103.600018 
L 124.972776 80.73514 
L 125.027135 84.03976 
L 125.081494 87.719162 
L 125.135853 70.566522 
L 125.190212 76.257344 
L 125.29893 98.801646 
L 125.462006 52.669936 
L 125.516365 95.432603 
L 125.570724 66.886815 
L 125.625083 85.496637 
L 125.679442 57.066945 
L 125.733801 96.428432 
L 125.78816 44.580149 
L 125.842519 95.324219 
L 125.951237 87.571402 
L 126.005596 104.313236 
L 126.059955 80.391054 
L 126.114314 104.234828 
L 126.27739 59.607364 
L 126.494826 117.346512 
L 126.603544 63.762703 
L 126.657903 116.051228 
L 126.712262 56.270521 
L 126.766621 81.286939 
L 126.82098 77.818529 
L 126.875339 66.682674 
L 126.929698 94.117621 
L 126.984056 55.177996 
L 127.038415 78.657359 
L 127.147133 67.499162 
L 127.255851 99.304538 
L 127.31021 86.583311 
L 127.364569 84.453814 
L 127.418928 64.826425 
L 127.473287 87.371878 
L 127.527646 74.328687 
L 127.582005 37.987401 
L 127.636364 75.581143 
L 127.636364 75.581143 
" clip-path="url(#p90d103e56a)" style="fill: none; stroke: #ffd92f; stroke-width: 1.5; stroke-linecap: square"/>
   </g>
   <g id="patch_3">
    <path d="M 10.8 133.2 
L 10.8 10.8 
" style="fill: none; stroke: #000000; stroke-width: 0.8; stroke-linejoin: miter; stroke-linecap: square"/>
   </g>
   <g id="patch_4">
    <path d="M 133.2 133.2 
L 133.2 10.8 
" style="fill: none; stroke: #000000; stroke-width: 0.8; stroke-linejoin: miter; stroke-linecap: square"/>
   </g>
   <g id="patch_5">
    <path d="M 10.8 133.2 
L 133.2 133.2 
" style="fill: none; stroke: #000000; stroke-width: 0.8; stroke-linejoin: miter; stroke-linecap: square"/>
   </g>
   <g id="patch_6">
    <path d="M 10.8 10.8 
L 133.2 10.8 
" style="fill: none; stroke: #000000; stroke-width: 0.8; stroke-linejoin: miter; stroke-linecap: square"/>
   </g>
  </g>
 </g>
 <defs>
  <clipPath id="p90d103e56a">
   <rect x="10.8" y="10.8" width="122.4" height="122.4"/>
  </clipPath>
 </defs>
</svg>
