<?xml version="1.0" encoding="utf-8" standalone="no"?>
<!DOCTYPE svg PUBLIC "-//W3C//DTD SVG 1.1//EN"
  "http://www.w3.org/Graphics/SVG/1.1/DTD/svg11.dtd">
<svg xmlns:xlink="http://www.w3.org/1999/xlink" width="144pt" height="144pt" viewBox="0 0 144 144" xmlns="http://www.w3.org/2000/svg" version="1.1">
 <metadata>
  <rdf:RDF xmlns:dc="http://purl.org/dc/elements/1.1/" xmlns:cc="http://creativecommons.org/ns#" xmlns:rdf="http://www.w3.org/1999/02/22-rdf-syntax-ns#">
   <cc:Work>
    <dc:type rdf:resource="http://purl.org/dc/dcmitype/StillImage"/>
    <dc:date>2025-02-07T11:07:19.734666</dc:date>
    <dc:format>image/svg+xml</dc:format>
    <dc:creator>
     <cc:Agent>
      <dc:title>Matplotlib v3.8.0, https://matplotlib.org/</dc:title>
     </cc:Agent>
    </dc:creator>
   </cc:Work>
  </rdf:RDF>
 </metadata>
 <defs>
  <style type="text/css">*{stroke-linejoin: round; stroke-linecap: butt}</style>
 </defs>
 <g id="figure_1">
  <g id="patch_1">
   <path d="M 0 144 
L 144 144 
L 144 0 
L 0 0 
L 0 144 
z
" style="fill: none"/>
  </g>
  <g id="axes_1">
   <g id="patch_2">
    <path d="M 10.8 133.2 
L 133.2 133.2 
L 133.2 10.8 
L 10.8 10.8 
L 10.8 133.2 
z
" style="fill: none"/>
   </g>
   <g id="matplotlib.axis_1"/>
   <g id="matplotlib.axis_2"/>
   <g id="line2d_1">
    <path d="M 16.363636 86.081779 
L 16.417995 78.404301 
L 16.472354 91.648749 
L 16.526713 65.701766 
L 16.581072 85.946729 
L 16.635431 83.355031 
L 16.68979 93.901637 
L 16.744149 86.404909 
L 16.798508 78.097433 
L 16.961585 103.596148 
L 17.070302 71.372202 
L 17.124661 105.029106 
L 17.17902 76.831709 
L 17.287738 39.00712 
L 17.505174 77.389596 
L 17.668251 62.758882 
L 17.72261 94.960683 
L 17.776969 47.859977 
L 17.831327 90.953972 
L 17.940045 81.333211 
L 18.103122 97.900377 
L 18.266199 58.249691 
L 18.374917 92.521945 
L 18.429276 60.026973 
L 18.483635 69.67862 
L 18.592352 88.452311 
L 18.646711 58.194698 
L 18.70107 58.207289 
L 18.755429 81.232884 
L 18.809788 78.251874 
L 18.864147 62.682056 
L 18.972865 86.269278 
L 19.027224 61.377913 
L 19.081583 65.37218 
L 19.190301 84.793606 
L 19.24466 79.811333 
L 19.353377 60.287649 
L 19.407736 62.606498 
L 19.462095 58.998902 
L 19.516454 72.006611 
L 19.570813 60.920434 
L 19.625172 55.784724 
L 19.73389 77.839456 
L 19.788249 65.532624 
L 19.842608 107.655912 
L 19.896967 80.746752 
L 19.951326 89.715077 
L 20.005685 64.075806 
L 20.060044 85.640192 
L 20.114402 109.890958 
L 20.22312 73.365967 
L 20.331838 93.300895 
L 20.386197 58.462232 
L 20.440556 70.703197 
L 20.494915 89.901013 
L 20.549274 57.978319 
L 20.603633 60.690309 
L 20.76671 89.811511 
L 20.821069 94.984036 
L 20.875427 52.54333 
L 20.929786 83.831169 
L 20.984145 99.250553 
L 21.147222 73.287316 
L 21.201581 83.344266 
L 21.25594 49.838104 
L 21.310299 104.277438 
L 21.364658 88.139236 
L 21.419017 72.649491 
L 21.473376 108.289407 
L 21.527735 80.763626 
L 21.582094 84.738734 
L 21.636452 69.065092 
L 21.74517 69.156987 
L 21.908247 94.752968 
L 22.071324 57.783991 
L 22.125683 82.548786 
L 22.180042 68.182147 
L 22.234401 68.288342 
L 22.28876 55.592576 
L 22.343119 64.851856 
L 22.397477 91.139462 
L 22.451836 89.109203 
L 22.506195 88.551709 
L 22.560554 76.515432 
L 22.614913 80.145352 
L 22.669272 81.222035 
L 22.723631 63.464992 
L 22.77799 81.840325 
L 22.832349 81.55385 
L 22.941067 52.40255 
L 23.104144 78.251997 
L 23.158502 76.411871 
L 23.212861 63.000977 
L 23.26722 84.035963 
L 23.321579 70.031333 
L 23.430297 80.794603 
L 23.539015 46.527916 
L 23.593374 90.439655 
L 23.647733 81.846946 
L 23.756451 64.701541 
L 23.81081 81.886897 
L 23.865169 57.755701 
L 23.919527 80.000625 
L 24.028245 100.305282 
L 24.136963 64.800228 
L 24.191322 82.062168 
L 24.463117 58.815455 
L 24.626194 88.776126 
L 24.734911 65.040047 
L 24.78927 69.824993 
L 24.843629 78.19866 
L 24.897988 51.25248 
L 25.006706 86.417521 
L 25.061065 85.087481 
L 25.115424 52.76189 
L 25.169783 61.544568 
L 25.224142 85.347355 
L 25.278501 72.346385 
L 25.33286 58.263223 
L 25.550295 93.116919 
L 25.659013 72.000117 
L 25.713372 97.100987 
L 25.767731 84.983535 
L 25.82209 72.238587 
L 25.876449 82.666228 
L 25.930808 127.636364 
L 25.985167 88.835196 
L 26.093885 71.484044 
L 26.148244 91.596792 
L 26.202602 90.69587 
L 26.256961 66.411549 
L 26.31132 83.430236 
L 26.420038 78.226178 
L 26.528756 88.306547 
L 26.637474 60.4413 
L 26.691833 73.398657 
L 26.746192 55.922145 
L 26.800551 72.433128 
L 26.85491 93.912116 
L 26.909269 75.408514 
L 26.963627 53.076008 
L 27.017986 74.714012 
L 27.072345 73.56468 
L 27.181063 55.948884 
L 27.34414 91.015664 
L 27.398499 89.603357 
L 27.452858 60.594416 
L 27.507217 112.095019 
L 27.561576 82.392041 
L 27.615935 52.760399 
L 27.724652 53.273915 
L 27.779011 87.166296 
L 27.83337 69.126277 
L 27.887729 65.380923 
L 27.942088 78.250044 
L 27.996447 63.20169 
L 28.050806 63.279816 
L 28.213883 84.816473 
L 28.37696 52.735683 
L 28.431319 85.97978 
L 28.485677 77.384935 
L 28.540036 75.620558 
L 28.594395 60.842259 
L 28.648754 72.469729 
L 28.703113 98.120645 
L 28.757472 79.856211 
L 28.811831 69.212277 
L 28.974908 94.418874 
L 29.029267 69.463167 
L 29.083626 96.066129 
L 29.137985 65.484122 
L 29.192344 66.900057 
L 29.246702 88.392334 
L 29.301061 55.886636 
L 29.35542 85.545386 
L 29.409779 68.941715 
L 29.464138 84.460832 
L 29.518497 83.188355 
L 29.572856 46.426934 
L 29.627215 91.15656 
L 29.681574 82.172085 
L 29.735933 81.704082 
L 29.790292 56.771892 
L 29.844651 80.355589 
L 29.89901 81.193357 
L 30.062086 48.456581 
L 30.170804 93.956112 
L 30.225163 87.275249 
L 30.279522 69.675 
L 30.333881 82.97319 
L 30.38824 94.914516 
L 30.551317 48.242285 
L 30.605676 95.442919 
L 30.660035 68.063568 
L 30.714394 52.342657 
L 30.768752 64.477718 
L 30.87747 82.045006 
L 30.986188 54.226555 
L 31.149265 101.698145 
L 31.312342 76.131473 
L 31.366701 63.062499 
L 31.42106 71.404979 
L 31.584136 84.989568 
L 31.638495 68.614239 
L 31.692854 75.813528 
L 31.747213 73.558471 
L 31.801572 49.331123 
L 31.964649 90.159878 
L 32.073367 45.623715 
L 32.236444 85.503137 
L 32.290803 38.85606 
L 32.345161 41.289949 
L 32.453879 83.176833 
L 32.508238 82.19762 
L 32.562597 73.654907 
L 32.616956 82.885195 
L 32.671315 63.584163 
L 32.725674 74.795972 
L 32.834392 63.712235 
L 32.997469 94.881886 
L 33.106186 62.741064 
L 33.160545 76.801289 
L 33.214904 63.527033 
L 33.269263 76.212871 
L 33.377981 46.294348 
L 33.43234 94.543635 
L 33.486699 87.380882 
L 33.649776 55.302439 
L 33.758494 100.417227 
L 33.812853 94.82701 
L 33.92157 55.1018 
L 34.030288 101.997209 
L 34.193365 51.497494 
L 34.247724 99.756254 
L 34.302083 55.288258 
L 34.356442 72.246819 
L 34.410801 37.802331 
L 34.46516 62.307817 
L 34.519519 56.422899 
L 34.628236 100.155961 
L 34.682595 93.36105 
L 34.791313 58.489357 
L 34.845672 60.018401 
L 34.900031 65.686448 
L 35.063108 90.49468 
L 35.117467 76.559492 
L 35.171826 78.941906 
L 35.226185 81.091571 
L 35.280544 76.849898 
L 35.334903 93.388999 
L 35.389261 86.143813 
L 35.44362 65.187843 
L 35.497979 79.912603 
L 35.552338 73.607973 
L 35.606697 84.90797 
L 35.715415 48.102957 
L 35.878492 89.2188 
L 35.932851 88.96265 
L 35.98721 94.686618 
L 36.095928 59.470891 
L 36.150286 94.274263 
L 36.204645 77.73595 
L 36.259004 91.83216 
L 36.313363 79.372881 
L 36.367722 66.799317 
L 36.422081 88.871794 
L 36.47644 65.95751 
L 36.585158 73.516772 
L 36.639517 66.348415 
L 36.693876 94.094566 
L 36.748235 80.556521 
L 36.856953 73.4988 
L 36.911311 79.77225 
L 36.96567 101.954393 
L 37.020029 85.872769 
L 37.128747 71.827342 
L 37.237465 91.765076 
L 37.346183 50.510201 
L 37.454901 81.194607 
L 37.617978 59.217203 
L 37.672336 85.191709 
L 37.726695 77.542644 
L 37.781054 54.257032 
L 37.835413 57.180254 
L 37.889772 89.178989 
L 37.944131 84.551299 
L 38.052849 63.843609 
L 38.107208 82.516075 
L 38.161567 59.818806 
L 38.215926 88.377185 
L 38.270285 87.229917 
L 38.324644 68.671136 
L 38.379003 100.648433 
L 38.48772 100.231197 
L 38.542079 51.58063 
L 38.596438 64.868745 
L 38.650797 70.144446 
L 38.705156 94.977536 
L 38.868233 65.371778 
L 39.03131 101.164228 
L 39.248745 81.704274 
L 39.303104 82.972569 
L 39.357463 56.03068 
L 39.411822 88.538419 
L 39.466181 67.855682 
L 39.683617 82.809786 
L 39.737976 65.619665 
L 39.792335 71.697195 
L 39.846694 99.047793 
L 39.901053 76.204138 
L 40.00977 64.806581 
L 40.064129 97.943819 
L 40.118488 66.422278 
L 40.172847 68.301022 
L 40.227206 95.061876 
L 40.281565 94.551862 
L 40.335924 57.982938 
L 40.390283 79.851121 
L 40.444642 82.894 
L 40.499001 75.002209 
L 40.55336 99.036385 
L 40.607719 61.034994 
L 40.662078 70.948401 
L 40.716436 96.839041 
L 40.770795 55.201592 
L 40.825154 78.403327 
L 40.988231 119.634624 
L 41.096949 65.152601 
L 41.151308 67.429377 
L 41.205667 65.895389 
L 41.260026 118.461333 
L 41.314385 96.275628 
L 41.423103 56.090101 
L 41.586179 88.98167 
L 41.694897 55.240313 
L 41.857974 91.908323 
L 41.966692 34.29854 
L 42.129769 92.992337 
L 42.292845 62.092453 
L 42.401563 62.090768 
L 42.455922 92.595927 
L 42.56464 64.041586 
L 42.618999 85.622472 
L 42.673358 50.787457 
L 42.727717 72.735776 
L 42.782076 96.91239 
L 42.836435 79.74775 
L 42.945153 72.352013 
L 42.999511 119.884642 
L 43.05387 69.049882 
L 43.108229 77.143166 
L 43.216947 109.694466 
L 43.271306 104.402412 
L 43.325665 82.891467 
L 43.434383 82.929295 
L 43.488742 70.125274 
L 43.543101 102.951902 
L 43.59746 78.229915 
L 43.651819 53.201766 
L 43.706178 76.771149 
L 43.814895 53.635073 
L 43.923613 92.061352 
L 44.032331 61.892681 
L 44.08669 93.251759 
L 44.141049 89.86548 
L 44.304126 56.639464 
L 44.412844 90.424204 
L 44.467203 89.629554 
L 44.521561 59.336868 
L 44.57592 87.382529 
L 44.738997 57.006748 
L 44.847715 96.965208 
L 44.902074 75.374032 
L 45.065151 106.33626 
L 45.228228 68.547279 
L 45.282586 69.43965 
L 45.336945 55.008387 
L 45.391304 80.087681 
L 45.445663 72.598702 
L 45.500022 69.931723 
L 45.554381 72.855692 
L 45.60874 69.175792 
L 45.663099 93.927183 
L 45.717458 87.105351 
L 45.771817 40.221692 
L 45.826176 58.094474 
L 45.934894 89.022248 
L 46.09797 58.779703 
L 46.152329 58.928164 
L 46.206688 96.3916 
L 46.261047 48.144162 
L 46.315406 53.953532 
L 46.369765 95.353401 
L 46.424124 82.244569 
L 46.478483 78.179834 
L 46.532842 89.733411 
L 46.587201 78.026734 
L 46.64156 78.079631 
L 46.695919 89.286931 
L 46.750278 69.767517 
L 46.804636 87.541032 
L 46.858995 89.118592 
L 46.913354 85.65924 
L 47.022072 93.802556 
L 47.185149 56.19682 
L 47.293867 82.143218 
L 47.348226 80.735819 
L 47.402585 72.37584 
L 47.456944 96.925009 
L 47.511303 83.055057 
L 47.565662 83.050143 
L 47.62002 65.189597 
L 47.674379 71.976481 
L 47.728738 68.223155 
L 47.837456 82.197792 
L 47.891815 37.401772 
L 47.946174 83.939884 
L 48.000533 87.003017 
L 48.054892 80.170118 
L 48.109251 93.626315 
L 48.272328 65.14685 
L 48.326687 109.688837 
L 48.381045 103.15635 
L 48.489763 76.070193 
L 48.544122 91.005605 
L 48.598481 86.520515 
L 48.65284 71.805826 
L 48.707199 73.474482 
L 48.870276 96.022617 
L 48.924635 52.255167 
L 48.978994 76.087473 
L 49.033353 99.606143 
L 49.196429 53.881906 
L 49.359506 107.753997 
L 49.522583 77.117866 
L 49.576942 96.188505 
L 49.740019 32.982809 
L 49.903095 87.983627 
L 49.957454 99.175313 
L 50.120531 65.877816 
L 50.17489 98.44816 
L 50.229249 38.346038 
L 50.283608 67.961838 
L 50.337967 58.294407 
L 50.501044 85.695114 
L 50.609762 76.106974 
L 50.66412 76.839547 
L 50.718479 78.511972 
L 50.772838 68.724735 
L 50.827197 87.907414 
L 50.935915 57.720616 
L 51.098992 101.668753 
L 51.20771 90.971691 
L 51.262069 89.210337 
L 51.316428 104.344593 
L 51.425145 66.680441 
L 51.479504 90.918773 
L 51.533863 66.786971 
L 51.588222 72.03795 
L 51.642581 61.744136 
L 51.751299 92.824679 
L 51.914376 54.760894 
L 51.968735 101.663202 
L 52.023094 75.85208 
L 52.077453 58.510562 
L 52.18617 120.138206 
L 52.240529 62.481196 
L 52.294888 84.214037 
L 52.349247 75.240145 
L 52.457965 125.944324 
L 52.512324 92.371665 
L 52.675401 55.620292 
L 52.784119 82.89696 
L 52.838478 82.70062 
L 52.947195 47.130528 
L 53.055913 97.579058 
L 53.110272 56.226588 
L 53.164631 68.56706 
L 53.21899 81.58893 
L 53.273349 47.911423 
L 53.327708 85.939991 
L 53.382067 78.787309 
L 53.436426 62.632172 
L 53.490785 94.777085 
L 53.545144 63.462555 
L 53.653862 90.769219 
L 53.70822 64.647936 
L 53.762579 82.822857 
L 53.816938 96.740156 
L 53.871297 57.280179 
L 53.925656 92.213268 
L 53.980015 84.305864 
L 54.034374 44.768999 
L 54.088733 63.984828 
L 54.25181 89.117457 
L 54.306169 74.806333 
L 54.360528 61.962832 
L 54.414887 88.810018 
L 54.469245 66.696168 
L 54.523604 76.431862 
L 54.577963 65.027843 
L 54.632322 68.45334 
L 54.686681 69.979501 
L 54.74104 54.862477 
L 54.795399 65.376686 
L 54.849758 57.677987 
L 54.904117 89.303288 
L 54.958476 55.009011 
L 55.067194 100.19375 
L 55.121553 56.942474 
L 55.175912 77.89659 
L 55.23027 73.767395 
L 55.284629 92.955699 
L 55.338988 81.721507 
L 55.502065 64.219006 
L 55.610783 75.795544 
L 55.665142 48.13547 
L 55.719501 106.108154 
L 55.77386 77.083508 
L 55.828219 77.459093 
L 55.882578 75.45084 
L 55.936937 53.754457 
L 55.991295 85.452916 
L 56.045654 70.513146 
L 56.154372 83.071933 
L 56.317449 59.373842 
L 56.371808 78.472229 
L 56.426167 62.317919 
L 56.480526 74.103545 
L 56.589244 55.345141 
L 56.697962 74.221291 
L 56.75232 60.200025 
L 56.806679 71.797363 
L 56.861038 76.488269 
L 56.915397 91.289708 
L 56.969756 64.340058 
L 57.024115 79.663739 
L 57.078474 70.858921 
L 57.132833 76.746285 
L 57.187192 87.303671 
L 57.241551 55.038941 
L 57.29591 71.510558 
L 57.350269 94.719258 
L 57.404628 81.474712 
L 57.458987 85.260194 
L 57.513345 59.622212 
L 57.567704 86.22478 
L 57.730781 57.538407 
L 57.839499 92.582217 
L 57.893858 73.43242 
L 58.002576 84.707293 
L 58.056935 75.965878 
L 58.111294 40.908026 
L 58.165653 76.314092 
L 58.220012 104.940071 
L 58.27437 69.595887 
L 58.328729 71.039522 
L 58.383088 104.705782 
L 58.437447 60.653813 
L 58.491806 69.813242 
L 58.600524 86.877663 
L 58.709242 53.041238 
L 58.763601 59.79643 
L 58.81796 62.093468 
L 58.872319 82.332607 
L 58.926678 76.507573 
L 58.981037 63.376931 
L 59.035395 74.117201 
L 59.089754 74.389216 
L 59.144113 67.036789 
L 59.198472 81.476067 
L 59.252831 77.209606 
L 59.30719 52.577714 
L 59.361549 66.675497 
L 59.415908 58.119141 
L 59.470267 66.344372 
L 59.633344 101.149459 
L 59.850779 66.105219 
L 59.905138 68.762831 
L 59.959497 56.398315 
L 60.013856 85.557892 
L 60.068215 50.256686 
L 60.122574 89.913627 
L 60.176933 80.830931 
L 60.231292 76.647375 
L 60.394369 97.779347 
L 60.448728 97.409544 
L 60.557445 74.766862 
L 60.611804 104.088604 
L 60.774881 31.332974 
L 60.937958 99.595845 
L 60.992317 73.97903 
L 61.046676 58.570341 
L 61.101035 70.536621 
L 61.209753 66.277011 
L 61.31847 82.32422 
L 61.372829 74.441076 
L 61.427188 86.210108 
L 61.481547 76.916706 
L 61.590265 46.518332 
L 61.644624 57.611901 
L 61.698983 59.036113 
L 61.86206 103.971516 
L 61.970778 61.188726 
L 62.079495 100.796179 
L 62.133854 87.248072 
L 62.188213 75.179363 
L 62.242572 90.797791 
L 62.296931 54.297826 
L 62.35129 83.528976 
L 62.405649 67.376388 
L 62.460008 92.179704 
L 62.514367 85.05313 
L 62.623085 71.835496 
L 62.731803 82.592766 
L 62.84052 70.626851 
L 62.894879 86.209918 
L 63.003597 52.497925 
L 63.112315 89.901367 
L 63.166674 84.982655 
L 63.275392 72.030788 
L 63.329751 94.540361 
L 63.38411 36.17964 
L 63.438469 63.088982 
L 63.492828 84.458406 
L 63.547187 75.500937 
L 63.601545 52.86943 
L 63.710263 82.57452 
L 63.764622 81.569066 
L 63.927699 74.088638 
L 63.982058 77.828873 
L 64.036417 51.229515 
L 64.090776 70.20627 
L 64.145135 55.301085 
L 64.199494 76.40591 
L 64.253853 66.368201 
L 64.308212 62.710737 
L 64.416929 74.443639 
L 64.471288 58.968646 
L 64.525647 71.284638 
L 64.634365 62.322856 
L 64.688724 97.274319 
L 64.743083 59.404722 
L 64.797442 92.120125 
L 64.960519 75.77592 
L 65.014878 103.17192 
L 65.069237 80.738863 
L 65.123596 61.173237 
L 65.177954 79.39389 
L 65.286672 88.141347 
L 65.341031 50.752349 
L 65.39539 116.331878 
L 65.449749 69.400022 
L 65.558467 54.287007 
L 65.612826 91.621462 
L 65.667185 89.919011 
L 65.775903 49.294792 
L 65.830262 78.292112 
L 65.884621 73.348703 
L 65.938979 71.714432 
L 65.993338 72.22486 
L 66.156415 48.175108 
L 66.210774 79.779771 
L 66.265133 41.922236 
L 66.319492 91.880883 
L 66.373851 65.758167 
L 66.482569 95.898465 
L 66.591287 65.130422 
L 66.645646 95.520027 
L 66.700004 66.422946 
L 66.754363 63.586163 
L 66.808722 74.257119 
L 66.863081 59.008416 
L 66.91744 73.144944 
L 67.026158 92.240585 
L 67.080517 83.680723 
L 67.134876 83.019994 
L 67.297953 36.638658 
L 67.352312 81.442722 
L 67.406671 57.337982 
L 67.515388 75.70437 
L 67.569747 69.538557 
L 67.624106 71.971128 
L 67.678465 82.625145 
L 67.732824 77.714092 
L 67.787183 59.691603 
L 67.841542 64.026868 
L 67.895901 73.354782 
L 67.95026 44.777678 
L 68.004619 85.832572 
L 68.058978 71.23575 
L 68.113337 77.365592 
L 68.167696 50.291087 
L 68.330772 87.521641 
L 68.43949 49.340708 
L 68.493849 71.295075 
L 68.548208 61.697608 
L 68.602567 99.683501 
L 68.656926 54.090327 
L 68.711285 61.430148 
L 68.765644 75.398277 
L 68.820003 43.16085 
L 68.983079 89.476958 
L 69.037438 84.528941 
L 69.091797 68.908174 
L 69.146156 70.099034 
L 69.309233 99.754951 
L 69.526669 58.437732 
L 69.635387 70.05007 
L 69.689746 64.180281 
L 69.852822 82.064595 
L 69.907181 82.374111 
L 69.96154 108.833588 
L 70.015899 98.631804 
L 70.070258 72.526075 
L 70.124617 86.938955 
L 70.396412 73.916922 
L 70.450771 74.711411 
L 70.505129 54.375741 
L 70.668206 80.725215 
L 70.722565 85.122948 
L 70.831283 56.61393 
L 70.885642 108.585434 
L 70.940001 83.620375 
L 70.99436 87.033745 
L 71.048719 30.697625 
L 71.103078 84.964622 
L 71.157437 68.509902 
L 71.211796 77.554562 
L 71.266154 91.181627 
L 71.374872 58.346753 
L 71.537949 81.174312 
L 71.701026 43.922197 
L 71.755385 88.87384 
L 71.809744 86.394509 
L 71.864103 62.57784 
L 72.027179 103.994138 
L 72.135897 58.003867 
L 72.190256 65.443234 
L 72.353333 79.622539 
L 72.407692 47.908929 
L 72.462051 84.162795 
L 72.51641 71.788907 
L 72.679487 81.526429 
L 72.788204 56.925006 
L 72.842563 80.517974 
L 72.896922 52.863544 
L 72.951281 81.733146 
L 73.059999 63.194324 
L 73.114358 73.51136 
L 73.168717 93.371723 
L 73.223076 88.81297 
L 73.331794 52.421344 
L 73.440512 88.760005 
L 73.494871 70.755264 
L 73.549229 81.610314 
L 73.603588 79.733166 
L 73.657947 87.970755 
L 73.712306 86.430444 
L 73.929742 65.701498 
L 73.984101 82.72418 
L 74.03846 72.628558 
L 74.092819 77.258998 
L 74.147178 97.340837 
L 74.310254 56.801804 
L 74.582049 91.12738 
L 74.636408 90.23235 
L 74.690767 56.12709 
L 74.745126 60.982233 
L 74.853844 74.721466 
L 74.908203 45.928285 
L 74.962562 68.48384 
L 75.016921 86.614029 
L 75.179997 58.931449 
L 75.234356 49.033546 
L 75.343074 89.820952 
L 75.397433 87.51608 
L 75.451792 68.864095 
L 75.506151 82.294135 
L 75.669228 55.472899 
L 75.723587 69.380641 
L 75.777946 64.19382 
L 75.832304 57.337179 
L 75.886663 74.745419 
L 75.941022 55.93387 
L 76.04974 80.071795 
L 76.158458 67.872006 
L 76.212817 80.820939 
L 76.267176 69.780747 
L 76.321535 79.677296 
L 76.375894 73.423346 
L 76.430253 69.172207 
L 76.484612 93.54763 
L 76.538971 81.835685 
L 76.593329 59.497777 
L 76.647688 86.589687 
L 76.702047 68.333588 
L 76.756406 74.06697 
L 76.865124 52.488478 
L 76.919483 90.294264 
L 76.973842 80.844307 
L 77.08256 66.352687 
L 77.136919 91.152401 
L 77.191278 54.25624 
L 77.245637 65.704748 
L 77.408713 77.427023 
L 77.463072 76.387106 
L 77.57179 65.790472 
L 77.626149 76.748059 
L 77.680508 66.826114 
L 77.734867 45.644407 
L 77.789226 55.301633 
L 77.897944 87.986461 
L 77.952303 66.797501 
L 78.006662 102.404442 
L 78.061021 88.208293 
L 78.169738 63.308426 
L 78.224097 90.592819 
L 78.278456 63.041615 
L 78.332815 58.373143 
L 78.495892 85.567113 
L 78.550251 88.998636 
L 78.60461 88.98566 
L 78.658969 87.289652 
L 78.713328 79.102723 
L 78.767687 103.384861 
L 78.822046 95.47973 
L 78.876404 67.209634 
L 78.930763 100.122503 
L 78.985122 80.515869 
L 79.039481 80.910729 
L 79.148199 112.831429 
L 79.311276 69.011377 
L 79.474353 85.635461 
L 79.528712 69.932066 
L 79.583071 94.171307 
L 79.637429 79.804184 
L 79.691788 50.754375 
L 79.854865 105.990501 
L 79.909224 60.646523 
L 79.963583 69.050418 
L 80.017942 93.74974 
L 80.072301 76.466782 
L 80.12666 56.907672 
L 80.181019 125.187831 
L 80.235378 63.065128 
L 80.289737 53.788303 
L 80.344096 95.800897 
L 80.398455 62.271243 
L 80.452813 76.99445 
L 80.507172 46.231504 
L 80.561531 47.592486 
L 80.724608 101.353237 
L 80.887685 49.848648 
L 81.050762 96.969796 
L 81.105121 96.290325 
L 81.15948 62.284318 
L 81.213838 68.802339 
L 81.268197 70.150797 
L 81.322556 53.746026 
L 81.376915 61.841171 
L 81.539992 89.536901 
L 81.594351 87.494282 
L 81.64871 89.537114 
L 81.811787 52.68034 
L 81.866146 57.33447 
L 81.974863 56.584571 
L 82.029222 88.712754 
L 82.083581 100.171624 
L 82.13794 91.771591 
L 82.355376 65.417297 
L 82.409735 72.050363 
L 82.518453 98.30625 
L 82.627171 68.900685 
L 82.68153 83.016405 
L 82.735888 79.926776 
L 82.790247 65.388809 
L 82.844606 70.716253 
L 82.898965 71.736269 
L 82.953324 69.35105 
L 83.062042 113.168719 
L 83.17076 74.194233 
L 83.225119 75.465828 
L 83.279478 75.081275 
L 83.388196 36.197199 
L 83.551272 88.315321 
L 83.605631 52.053734 
L 83.65999 98.552563 
L 83.714349 58.305145 
L 83.768708 77.489874 
L 83.823067 75.37923 
L 83.877426 73.95719 
L 83.931785 57.00316 
L 84.040503 96.985356 
L 84.094862 94.689841 
L 84.149221 91.610089 
L 84.257938 63.202555 
L 84.312297 80.660635 
L 84.366656 69.264741 
L 84.421015 52.151966 
L 84.475374 64.856874 
L 84.638451 91.079652 
L 84.747169 62.800795 
L 84.855887 65.419935 
L 84.910246 113.14859 
L 84.964605 90.767732 
L 85.018963 75.561018 
L 85.073322 106.158283 
L 85.127681 53.99519 
L 85.18204 66.485414 
L 85.290758 80.045176 
L 85.453835 66.971407 
L 85.508194 97.962945 
L 85.562553 68.064111 
L 85.616912 65.020927 
L 85.72563 107.600222 
L 85.779988 94.479874 
L 85.834347 60.7444 
L 85.888706 93.323036 
L 85.943065 79.284326 
L 85.997424 80.710175 
L 86.051783 111.661786 
L 86.106142 80.136753 
L 86.160501 83.743686 
L 86.21486 56.688806 
L 86.269219 71.123624 
L 86.323578 76.77546 
L 86.377937 75.996292 
L 86.432296 59.658494 
L 86.541013 100.972161 
L 86.595372 86.691884 
L 86.70409 40.680785 
L 86.758449 82.600981 
L 86.812808 81.137056 
L 86.921526 45.822907 
L 86.975885 116.689228 
L 87.030244 94.543983 
L 87.084603 51.059856 
L 87.138962 70.148737 
L 87.193321 83.064828 
L 87.24768 54.179244 
L 87.302038 69.465503 
L 87.356397 101.82424 
L 87.410756 72.835424 
L 87.465115 49.804482 
L 87.519474 62.128474 
L 87.628192 88.74098 
L 87.682551 73.103707 
L 87.73691 77.651958 
L 87.791269 102.341367 
L 87.845628 71.450806 
L 87.899987 77.507408 
L 87.954346 81.247863 
L 88.008705 39.480603 
L 88.063063 72.990458 
L 88.117422 82.880249 
L 88.22614 58.197193 
L 88.280499 100.384559 
L 88.334858 93.567432 
L 88.389217 49.038339 
L 88.443576 61.024802 
L 88.497935 62.74398 
L 88.552294 56.213518 
L 88.606653 119.98829 
L 88.661012 91.74998 
L 88.715371 100.561174 
L 88.824088 59.496423 
L 88.878447 90.797629 
L 88.987165 89.938345 
L 89.041524 76.553346 
L 89.095883 90.805422 
L 89.204601 58.534903 
L 89.25896 73.729628 
L 89.313319 52.480604 
L 89.367678 73.271518 
L 89.422037 75.39182 
L 89.476396 91.273337 
L 89.530755 89.489535 
L 89.585113 86.735419 
L 89.639472 74.361529 
L 89.693831 81.404062 
L 89.74819 91.725744 
L 89.802549 55.896322 
L 89.856908 71.074553 
L 90.074344 47.22697 
L 90.128703 83.482612 
L 90.183062 77.958083 
L 90.237421 79.824827 
L 90.29178 78.036039 
L 90.454856 72.405371 
L 90.509215 90.263642 
L 90.563574 64.860158 
L 90.617933 93.690725 
L 90.672292 86.180856 
L 90.726651 67.117661 
L 90.78101 77.760179 
L 90.889728 70.029662 
L 91.052805 88.854298 
L 91.161522 58.208455 
L 91.215881 84.545133 
L 91.27024 67.6493 
L 91.378958 88.876483 
L 91.542035 62.756154 
L 91.596394 59.468348 
L 91.705112 99.358337 
L 91.759471 64.726569 
L 91.81383 99.588249 
L 91.922547 65.842787 
L 91.976906 88.49901 
L 92.031265 73.367768 
L 92.194342 91.620208 
L 92.30306 61.973533 
L 92.411778 62.040096 
L 92.466137 81.671796 
L 92.520496 76.675876 
L 92.574855 57.605684 
L 92.629213 88.838527 
L 92.683572 70.160195 
L 92.846649 36.461421 
L 92.901008 104.245277 
L 92.955367 71.456971 
L 93.009726 73.623211 
L 93.064085 72.33967 
L 93.118444 90.644475 
L 93.172803 79.968025 
L 93.227162 88.478498 
L 93.33588 78.161937 
L 93.390238 89.416288 
L 93.444597 67.338701 
L 93.498956 117.849091 
L 93.553315 83.164895 
L 93.607674 86.648675 
L 93.662033 101.878285 
L 93.770751 64.018783 
L 93.82511 83.008358 
L 93.879469 50.689978 
L 93.933828 90.937621 
L 93.988187 68.424643 
L 94.042546 52.712575 
L 94.096905 94.87863 
L 94.151263 51.526097 
L 94.205622 54.694555 
L 94.368699 91.925222 
L 94.477417 75.709603 
L 94.531776 78.751272 
L 94.586135 82.893238 
L 94.640494 79.605618 
L 94.694853 64.35152 
L 94.749212 87.725074 
L 94.803571 70.61579 
L 94.85793 76.558294 
L 94.912288 59.486248 
L 95.021006 95.893263 
L 95.075365 54.67349 
L 95.129724 78.192221 
L 95.238442 22.828488 
L 95.292801 82.675809 
L 95.34716 73.486925 
L 95.401519 72.088023 
L 95.455878 77.127144 
L 95.510237 61.985424 
L 95.564596 94.595136 
L 95.618955 88.699302 
L 95.673313 81.858175 
L 95.727672 102.477789 
L 95.782031 54.604248 
L 95.83639 65.554423 
L 95.890749 63.352951 
L 95.945108 82.406698 
L 95.999467 74.839582 
L 96.053826 71.531531 
L 96.216903 77.988111 
L 96.271262 58.718116 
L 96.325621 84.200818 
L 96.37998 74.83041 
L 96.543056 59.902478 
L 96.651774 75.759723 
L 96.706133 54.599562 
L 96.760492 71.877609 
L 96.814851 73.653119 
L 96.86921 52.718469 
L 96.977928 98.967174 
L 97.032287 84.886215 
L 97.086646 76.353563 
L 97.141005 89.690029 
L 97.195364 69.360337 
L 97.249722 80.710945 
L 97.304081 107.233786 
L 97.35844 88.615016 
L 97.521517 57.257412 
L 97.575876 68.586885 
L 97.630235 64.728575 
L 97.684594 59.363422 
L 97.738953 105.719442 
L 97.793312 64.425006 
L 97.90203 91.861972 
L 98.065106 61.778826 
L 98.119465 93.085912 
L 98.173824 79.817737 
L 98.228183 68.24491 
L 98.336901 93.360981 
L 98.39126 69.605301 
L 98.445619 78.550682 
L 98.499978 81.922704 
L 98.554337 75.664741 
L 98.663055 98.064931 
L 98.771772 55.35374 
L 98.826131 62.485298 
L 98.88049 65.953396 
L 98.934849 76.848948 
L 98.989208 76.058668 
L 99.043567 71.784618 
L 99.097926 76.983374 
L 99.152285 99.366314 
L 99.206644 76.360596 
L 99.315362 68.689441 
L 99.369721 83.49357 
L 99.42408 68.188881 
L 99.478439 56.741279 
L 99.587156 89.666958 
L 99.750233 53.855453 
L 99.804592 80.678362 
L 99.858951 79.208235 
L 99.91331 62.250657 
L 99.967669 87.56197 
L 100.022028 75.233826 
L 100.076387 46.917275 
L 100.130746 72.313226 
L 100.185105 75.966836 
L 100.239464 65.877742 
L 100.293822 93.33149 
L 100.348181 59.870496 
L 100.40254 75.144414 
L 100.456899 64.039716 
L 100.511258 64.714348 
L 100.619976 97.915783 
L 100.674335 87.820403 
L 100.837412 56.381518 
L 100.891771 89.865084 
L 101.054847 43.311938 
L 101.163565 84.464025 
L 101.217924 67.618843 
L 101.272283 75.862076 
L 101.326642 71.981735 
L 101.43536 88.813125 
L 101.489719 79.211702 
L 101.544078 92.501522 
L 101.598437 78.988745 
L 101.761514 59.931904 
L 101.92459 76.136946 
L 101.978949 45.147758 
L 102.033308 66.556895 
L 102.087667 63.794083 
L 102.142026 66.41729 
L 102.250744 90.407196 
L 102.305103 60.852351 
L 102.359462 72.898048 
L 102.413821 62.382595 
L 102.46818 94.607916 
L 102.522539 66.435494 
L 102.631256 80.041467 
L 102.794333 64.116433 
L 103.011769 79.83971 
L 103.066128 70.811544 
L 103.120487 36.111626 
L 103.174846 65.217044 
L 103.283564 92.152778 
L 103.337922 51.413636 
L 103.392281 65.041373 
L 103.609717 107.130998 
L 103.664076 68.900893 
L 103.718435 109.986699 
L 103.772794 69.606906 
L 103.827153 86.112569 
L 103.935871 56.716778 
L 103.99023 94.902583 
L 104.044589 52.661693 
L 104.098947 58.746966 
L 104.153306 63.491865 
L 104.207665 57.935042 
L 104.262024 78.587688 
L 104.316383 76.968655 
L 104.425101 60.583715 
L 104.588178 99.300886 
L 104.751255 54.775903 
L 104.805614 92.182781 
L 104.859972 53.867532 
L 105.023049 102.824688 
L 105.131767 63.363047 
L 105.186126 65.513179 
L 105.240485 90.351627 
L 105.294844 67.271906 
L 105.349203 59.000949 
L 105.457921 82.507324 
L 105.51228 71.998697 
L 105.566639 37.54724 
L 105.620997 71.116631 
L 105.675356 57.504291 
L 105.729715 58.208791 
L 105.784074 78.383029 
L 105.838433 55.368023 
L 105.892792 98.778329 
L 105.947151 97.071789 
L 106.055869 53.84245 
L 106.164587 80.714187 
L 106.218946 56.24309 
L 106.273305 104.980005 
L 106.327664 78.405025 
L 106.382022 55.011643 
L 106.49074 92.782918 
L 106.545099 54.496797 
L 106.599458 76.00586 
L 106.708176 53.967408 
L 106.762535 59.915682 
L 106.816894 74.01566 
L 106.871253 59.364197 
L 106.925612 65.738516 
L 107.088689 97.279782 
L 107.143047 89.756578 
L 107.306124 49.409223 
L 107.360483 67.345101 
L 107.414842 65.351737 
L 107.469201 56.185108 
L 107.52356 77.018763 
L 107.577919 63.372842 
L 107.632278 74.572384 
L 107.686637 62.555377 
L 107.740996 87.23681 
L 107.795355 82.190092 
L 107.849714 81.009444 
L 107.904072 83.98417 
L 107.958431 61.643731 
L 108.01279 79.414816 
L 108.067149 78.6015 
L 108.121508 82.102773 
L 108.230226 58.941668 
L 108.284585 91.81758 
L 108.338944 66.15175 
L 108.447662 58.196533 
L 108.502021 77.231449 
L 108.55638 65.963113 
L 108.610739 75.146137 
L 108.665097 60.729621 
L 108.719456 66.903311 
L 108.773815 105.707484 
L 108.828174 82.977701 
L 108.882533 67.82249 
L 109.04561 92.028113 
L 109.099969 63.266228 
L 109.154328 89.49917 
L 109.317405 56.72879 
L 109.371764 59.406228 
L 109.480481 93.568543 
L 109.53484 80.358391 
L 109.589199 79.524837 
L 109.643558 81.898478 
L 109.752276 68.125472 
L 109.860994 79.672644 
L 109.915353 76.175855 
L 109.969712 80.630331 
L 110.07843 56.546633 
L 110.132789 63.313737 
L 110.187147 87.778406 
L 110.241506 85.897517 
L 110.295865 85.369586 
L 110.404583 49.585511 
L 110.458942 85.058095 
L 110.513301 63.45605 
L 110.622019 63.351786 
L 110.676378 78.910281 
L 110.839455 63.27731 
L 110.948172 71.291659 
L 111.002531 65.487747 
L 111.111249 76.370044 
L 111.219967 61.776072 
L 111.274326 68.35562 
L 111.383044 81.788565 
L 111.546121 53.98826 
L 111.60048 99.817867 
L 111.654839 80.735683 
L 111.709197 51.246899 
L 111.763556 94.819011 
L 111.817915 61.10728 
L 111.872274 74.767558 
L 111.980992 74.682095 
L 112.035351 48.701333 
L 112.08971 107.925453 
L 112.144069 49.600352 
L 112.198428 88.203612 
L 112.252787 71.512168 
L 112.307146 69.67794 
L 112.361505 86.177038 
L 112.415864 83.842845 
L 112.470222 78.156523 
L 112.524581 49.278884 
L 112.57894 57.116744 
L 112.633299 57.763935 
L 112.687658 75.851997 
L 112.742017 38.859389 
L 112.796376 91.236704 
L 112.850735 89.968234 
L 113.013812 59.116974 
L 113.12253 95.858966 
L 113.176889 62.731851 
L 113.231248 91.37089 
L 113.285606 84.986716 
L 113.394324 55.646756 
L 113.448683 60.742945 
L 113.503042 77.860349 
L 113.557401 67.359037 
L 113.61176 58.273822 
L 113.666119 84.150222 
L 113.720478 65.122128 
L 113.774837 76.687167 
L 113.829196 67.852635 
L 113.883555 64.648243 
L 114.046631 87.203926 
L 114.10099 43.725558 
L 114.155349 81.237316 
L 114.209708 93.788254 
L 114.264067 59.798835 
L 114.372785 60.652738 
L 114.427144 81.15979 
L 114.481503 52.70999 
L 114.535862 58.94036 
L 114.590221 99.100071 
L 114.64458 73.605238 
L 114.698939 95.837211 
L 114.753298 95.410329 
L 114.916374 62.385518 
L 115.079451 91.53067 
L 115.13381 93.602487 
L 115.188169 68.903069 
L 115.242528 74.373085 
L 115.351246 64.404308 
L 115.405605 96.131227 
L 115.459964 73.182962 
L 115.514323 94.439673 
L 115.568681 75.946204 
L 115.62304 77.537455 
L 115.677399 93.215239 
L 115.731758 72.533944 
L 115.786117 73.281947 
L 115.894835 93.51747 
L 116.057912 49.057185 
L 116.16663 90.32333 
L 116.220989 75.293432 
L 116.275348 74.154392 
L 116.329706 91.217971 
L 116.384065 59.478902 
L 116.438424 120.47161 
L 116.492783 70.561021 
L 116.547142 73.463067 
L 116.65586 65.744861 
L 116.710219 76.559831 
L 116.764578 46.294751 
L 116.818937 68.528775 
L 116.873296 64.772463 
L 117.090731 101.038378 
L 117.14509 93.01455 
L 117.253808 73.881406 
L 117.362526 99.53127 
L 117.416885 54.35889 
L 117.471244 84.823197 
L 117.525603 67.508505 
L 117.579962 92.882924 
L 117.634321 77.260263 
L 117.68868 55.693191 
L 117.743039 62.229385 
L 117.851756 74.435899 
L 117.960474 43.403643 
L 118.069192 95.666111 
L 118.123551 48.646234 
L 118.17791 74.353114 
L 118.232269 67.237327 
L 118.286628 89.241069 
L 118.340987 80.172813 
L 118.395346 68.044862 
L 118.449705 84.617628 
L 118.504064 50.938162 
L 118.558423 71.898002 
L 118.612781 69.970092 
L 118.66714 72.541809 
L 118.721499 104.865071 
L 118.775858 81.654551 
L 118.830217 94.976705 
L 118.993294 71.15249 
L 119.156371 100.13249 
L 119.265089 63.815719 
L 119.319448 67.835924 
L 119.428165 63.346388 
L 119.536883 95.905237 
L 119.754319 46.971237 
L 119.808678 70.684774 
L 119.863037 35.212886 
L 119.917396 64.825317 
L 119.971755 106.769122 
L 120.080473 40.411028 
L 120.243549 101.763352 
L 120.297908 101.795001 
L 120.406626 56.058303 
L 120.460985 89.207428 
L 120.515344 62.154139 
L 120.569703 67.376112 
L 120.624062 62.654253 
L 120.678421 95.518542 
L 120.73278 82.322705 
L 120.787139 71.985917 
L 120.841498 78.443235 
L 120.895856 98.004258 
L 121.058933 62.349556 
L 121.113292 60.268855 
L 121.22201 97.72664 
L 121.276369 80.224652 
L 121.385087 66.579253 
L 121.439446 93.336848 
L 121.602523 53.334772 
L 121.71124 88.359934 
L 121.765599 34.527015 
L 121.819958 88.312792 
L 122.037394 47.408463 
L 122.200471 86.551555 
L 122.25483 75.928115 
L 122.309189 77.346106 
L 122.363548 89.259843 
L 122.417906 55.018245 
L 122.472265 68.436154 
L 122.526624 88.443813 
L 122.580983 64.070429 
L 122.635342 70.075736 
L 122.689701 82.015375 
L 122.798419 52.671097 
L 122.852778 67.452512 
L 122.907137 62.070896 
L 123.070214 82.20049 
L 123.124573 80.651243 
L 123.178931 70.884916 
L 123.342008 90.860299 
L 123.396367 96.808932 
L 123.505085 60.796499 
L 123.559444 74.090743 
L 123.613803 88.677888 
L 123.668162 73.73108 
L 123.722521 77.117133 
L 123.77688 67.862491 
L 123.831239 79.230216 
L 123.885598 59.818421 
L 123.939956 70.05339 
L 123.994315 104.353114 
L 124.048674 72.465671 
L 124.103033 74.570943 
L 124.211751 87.272094 
L 124.26611 86.036203 
L 124.320469 78.860843 
L 124.374828 46.444821 
L 124.429187 77.600655 
L 124.483546 84.561767 
L 124.592264 47.960609 
L 124.646623 77.443069 
L 124.700981 70.6447 
L 124.75534 72.603731 
L 124.809699 82.260028 
L 124.864058 76.485507 
L 124.918417 67.129935 
L 124.972776 73.330181 
L 125.027135 73.883783 
L 125.190212 42.9029 
L 125.244571 104.416419 
L 125.29893 57.706623 
L 125.462006 88.81782 
L 125.516365 66.02851 
L 125.570724 82.621162 
L 125.679442 52.402684 
L 125.78816 89.59337 
L 125.842519 82.688108 
L 125.896878 61.776307 
L 125.951237 93.055163 
L 126.005596 80.383293 
L 126.114314 48.470435 
L 126.223031 84.126464 
L 126.27739 71.133164 
L 126.331749 73.685271 
L 126.494826 92.386966 
L 126.549185 66.908161 
L 126.603544 72.103237 
L 126.657903 70.389772 
L 126.712262 52.31541 
L 126.766621 80.451696 
L 126.82098 69.427094 
L 126.875339 64.562842 
L 126.929698 93.709563 
L 126.984056 70.211329 
L 127.038415 68.186977 
L 127.092774 16.363636 
L 127.147133 97.273044 
L 127.201492 44.925375 
L 127.255851 51.698005 
L 127.31021 91.811219 
L 127.364569 68.799773 
L 127.473287 77.96492 
L 127.527646 54.832637 
L 127.636364 99.907294 
L 127.636364 99.907294 
" clip-path="url(#p60f6dffb3c)" style="fill: none; stroke: #8da0cb; stroke-width: 1.5; stroke-linecap: square"/>
   </g>
   <g id="patch_3">
    <path d="M 10.8 133.2 
L 10.8 10.8 
" style="fill: none; stroke: #000000; stroke-width: 0.8; stroke-linejoin: miter; stroke-linecap: square"/>
   </g>
   <g id="patch_4">
    <path d="M 133.2 133.2 
L 133.2 10.8 
" style="fill: none; stroke: #000000; stroke-width: 0.8; stroke-linejoin: miter; stroke-linecap: square"/>
   </g>
   <g id="patch_5">
    <path d="M 10.8 133.2 
L 133.2 133.2 
" style="fill: none; stroke: #000000; stroke-width: 0.8; stroke-linejoin: miter; stroke-linecap: square"/>
   </g>
   <g id="patch_6">
    <path d="M 10.8 10.8 
L 133.2 10.8 
" style="fill: none; stroke: #000000; stroke-width: 0.8; stroke-linejoin: miter; stroke-linecap: square"/>
   </g>
  </g>
 </g>
 <defs>
  <clipPath id="p60f6dffb3c">
   <rect x="10.8" y="10.8" width="122.4" height="122.4"/>
  </clipPath>
 </defs>
</svg>
