<?xml version="1.0" encoding="utf-8" standalone="no"?>
<!DOCTYPE svg PUBLIC "-//W3C//DTD SVG 1.1//EN"
  "http://www.w3.org/Graphics/SVG/1.1/DTD/svg11.dtd">
<svg xmlns:xlink="http://www.w3.org/1999/xlink" width="144pt" height="144pt" viewBox="0 0 144 144" xmlns="http://www.w3.org/2000/svg" version="1.1">
 <metadata>
  <rdf:RDF xmlns:dc="http://purl.org/dc/elements/1.1/" xmlns:cc="http://creativecommons.org/ns#" xmlns:rdf="http://www.w3.org/1999/02/22-rdf-syntax-ns#">
   <cc:Work>
    <dc:type rdf:resource="http://purl.org/dc/dcmitype/StillImage"/>
    <dc:date>2025-02-11T14:35:20.133762</dc:date>
    <dc:format>image/svg+xml</dc:format>
    <dc:creator>
     <cc:Agent>
      <dc:title>Matplotlib v3.8.0, https://matplotlib.org/</dc:title>
     </cc:Agent>
    </dc:creator>
   </cc:Work>
  </rdf:RDF>
 </metadata>
 <defs>
  <style type="text/css">*{stroke-linejoin: round; stroke-linecap: butt}</style>
 </defs>
 <g id="figure_1">
  <g id="patch_1">
   <path d="M 0 144 
L 144 144 
L 144 0 
L 0 0 
L 0 144 
z
" style="fill: none"/>
  </g>
  <g id="axes_1">
   <g id="patch_2">
    <path d="M 10.8 133.2 
L 133.2 133.2 
L 133.2 10.8 
L 10.8 10.8 
L 10.8 133.2 
z
" style="fill: none"/>
   </g>
   <g id="matplotlib.axis_1"/>
   <g id="matplotlib.axis_2"/>
   <g id="line2d_1">
    <path d="M 16.363636 84.27676 
L 16.417995 89.892511 
L 16.472354 53.638993 
L 16.526713 73.159367 
L 16.581072 60.991403 
L 16.68979 60.792002 
L 16.744149 95.19602 
L 16.798508 67.172188 
L 16.852867 68.16348 
L 16.907226 79.268511 
L 16.961585 73.106551 
L 17.015944 53.789656 
L 17.070302 61.139228 
L 17.17902 103.261949 
L 17.233379 97.281768 
L 17.287738 95.385316 
L 17.396456 46.355017 
L 17.505174 61.612486 
L 17.668251 92.315275 
L 17.72261 47.953089 
L 17.776969 79.682268 
L 17.831327 73.922174 
L 17.885686 96.307172 
L 17.940045 72.996291 
L 17.994404 58.292532 
L 18.048763 114.027992 
L 18.103122 83.842354 
L 18.157481 75.919719 
L 18.266199 105.464669 
L 18.429276 37.619497 
L 18.592352 89.924714 
L 18.755429 41.361286 
L 18.809788 54.063316 
L 18.972865 100.092888 
L 19.081583 61.422982 
L 19.135942 63.809678 
L 19.24466 97.448946 
L 19.299019 65.056191 
L 19.353377 80.23701 
L 19.407736 85.138868 
L 19.462095 62.090866 
L 19.516454 72.596708 
L 19.570813 95.494014 
L 19.625172 66.492949 
L 19.679531 75.482484 
L 19.73389 69.618267 
L 19.788249 97.951616 
L 19.842608 92.161477 
L 19.896967 89.789077 
L 20.005685 64.88698 
L 20.060044 86.152447 
L 20.114402 73.747477 
L 20.168761 55.433305 
L 20.22312 56.937611 
L 20.277479 78.552613 
L 20.331838 65.46009 
L 20.386197 57.349399 
L 20.440556 85.950049 
L 20.494915 80.355231 
L 20.603633 62.028151 
L 20.657992 72.097057 
L 20.712351 96.334378 
L 20.76671 91.90639 
L 20.821069 69.919774 
L 20.875427 76.976022 
L 20.984145 86.488041 
L 21.038504 91.487016 
L 21.092863 65.413573 
L 21.147222 67.646429 
L 21.201581 70.85758 
L 21.310299 90.98401 
L 21.364658 71.845271 
L 21.419017 72.674226 
L 21.473376 101.182029 
L 21.527735 70.091992 
L 21.582094 72.954994 
L 21.636452 73.792346 
L 21.799529 45.685694 
L 21.853888 49.008865 
L 22.016965 82.456753 
L 22.071324 70.599804 
L 22.125683 71.297066 
L 22.180042 53.583365 
L 22.234401 56.921672 
L 22.343119 88.519885 
L 22.397477 51.870063 
L 22.451836 68.647314 
L 22.560554 96.430785 
L 22.669272 89.974013 
L 22.723631 52.276822 
L 22.77799 70.263722 
L 22.832349 71.528848 
L 22.941067 60.035204 
L 22.995426 67.696715 
L 23.104144 73.929151 
L 23.158502 51.679506 
L 23.212861 74.27918 
L 23.321579 104.978868 
L 23.484656 68.163868 
L 23.539015 86.884013 
L 23.702092 48.587493 
L 23.756451 77.111535 
L 23.81081 60.099078 
L 23.865169 64.225431 
L 23.919527 85.494109 
L 23.973886 82.497273 
L 24.028245 58.277993 
L 24.082604 58.5153 
L 24.136963 77.852565 
L 24.191322 58.55568 
L 24.245681 47.139475 
L 24.30004 93.724328 
L 24.354399 87.073645 
L 24.408758 83.973463 
L 24.571835 59.366439 
L 24.626194 87.342192 
L 24.680552 80.618742 
L 24.734911 82.15848 
L 24.78927 76.101054 
L 24.843629 54.334232 
L 24.897988 75.463112 
L 24.952347 102.155835 
L 25.006706 47.439051 
L 25.061065 68.233001 
L 25.169783 97.934729 
L 25.224142 97.057611 
L 25.441577 39.509362 
L 25.550295 79.24608 
L 25.604654 72.737206 
L 25.713372 53.861489 
L 25.767731 98.171566 
L 25.82209 82.33149 
L 25.876449 55.445881 
L 25.930808 72.523528 
L 25.985167 85.172636 
L 26.039526 56.263833 
L 26.093885 72.592904 
L 26.148244 62.486485 
L 26.256961 61.884709 
L 26.31132 93.175591 
L 26.365679 46.950263 
L 26.420038 82.602871 
L 26.474397 83.980735 
L 26.528756 73.699257 
L 26.637474 105.654538 
L 26.691833 89.602593 
L 26.800551 85.629842 
L 26.85491 50.115657 
L 26.909269 50.776556 
L 27.072345 95.107521 
L 27.126704 89.638219 
L 27.181063 101.890056 
L 27.235422 62.09398 
L 27.289781 74.121734 
L 27.34414 84.110181 
L 27.398499 74.860465 
L 27.561576 60.368551 
L 27.724652 98.19629 
L 27.83337 58.445543 
L 27.887729 105.00684 
L 27.942088 79.837334 
L 27.996447 79.145415 
L 28.050806 68.189325 
L 28.105165 80.256776 
L 28.159524 38.264789 
L 28.213883 75.427526 
L 28.268242 73.791672 
L 28.431319 80.583626 
L 28.594395 108.946544 
L 28.648754 58.19418 
L 28.703113 66.18086 
L 28.757472 77.799716 
L 28.811831 49.61033 
L 28.86619 87.27487 
L 28.920549 77.85174 
L 28.974908 79.318234 
L 29.083626 51.731906 
L 29.192344 88.702339 
L 29.246702 63.400477 
L 29.35542 63.98902 
L 29.409779 68.277563 
L 29.464138 89.149541 
L 29.518497 58.187596 
L 29.572856 65.075082 
L 29.627215 87.0022 
L 29.681574 77.505273 
L 29.735933 81.260616 
L 29.790292 79.605642 
L 29.844651 61.589199 
L 29.89901 71.440622 
L 29.953369 65.482605 
L 30.007727 92.281363 
L 30.062086 58.975298 
L 30.116445 65.359139 
L 30.225163 74.572347 
L 30.279522 68.135717 
L 30.333881 100.955081 
L 30.38824 85.780004 
L 30.442599 77.268911 
L 30.496958 78.137734 
L 30.551317 84.791995 
L 30.605676 49.545459 
L 30.660035 53.563638 
L 30.714394 102.557076 
L 30.768752 88.502248 
L 30.87747 60.011702 
L 30.931829 68.426056 
L 30.986188 86.346718 
L 31.040547 82.723584 
L 31.149265 53.617888 
L 31.42106 94.008411 
L 31.475419 54.134006 
L 31.529778 76.621352 
L 31.692854 61.878141 
L 31.801572 87.846544 
L 31.855931 65.064822 
L 31.91029 79.088815 
L 31.964649 69.843492 
L 32.019008 85.059796 
L 32.073367 71.064421 
L 32.182085 75.713487 
L 32.236444 96.11153 
L 32.290803 74.991871 
L 32.345161 91.907506 
L 32.562597 45.033254 
L 32.725674 78.346198 
L 32.780033 64.710655 
L 32.834392 89.401438 
L 32.888751 88.122831 
L 33.051828 74.897508 
L 33.106186 109.87553 
L 33.160545 80.652154 
L 33.214904 77.485017 
L 33.269263 82.029399 
L 33.323622 80.446898 
L 33.377981 80.472106 
L 33.43234 73.152809 
L 33.486699 76.777208 
L 33.541058 96.585255 
L 33.595417 79.839199 
L 33.649776 56.728923 
L 33.704135 100.314465 
L 33.758494 79.530826 
L 33.867211 68.289309 
L 33.92157 84.11266 
L 33.975929 76.762785 
L 34.030288 60.919196 
L 34.084647 86.058711 
L 34.139006 47.503161 
L 34.193365 102.188133 
L 34.247724 66.489166 
L 34.302083 65.749173 
L 34.356442 92.620553 
L 34.410801 47.405939 
L 34.46516 66.791243 
L 34.682595 45.842583 
L 34.791313 101.72623 
L 34.95439 67.263625 
L 35.008749 76.837374 
L 35.117467 59.435929 
L 35.171826 62.378491 
L 35.226185 50.132991 
L 35.334903 79.444481 
L 35.389261 75.800563 
L 35.44362 73.38265 
L 35.497979 81.683754 
L 35.552338 61.731758 
L 35.606697 71.815532 
L 35.661056 89.91097 
L 35.715415 53.143322 
L 35.769774 78.060037 
L 35.878492 85.102206 
L 36.041569 65.343312 
L 36.204645 81.660211 
L 36.259004 54.569905 
L 36.313363 71.178497 
L 36.422081 78.789235 
L 36.47644 52.100001 
L 36.530799 99.742081 
L 36.585158 70.459286 
L 36.639517 44.26606 
L 36.693876 66.717723 
L 36.748235 68.340793 
L 36.856953 55.893382 
L 37.020029 90.09849 
L 37.183106 67.007579 
L 37.237465 76.276296 
L 37.291824 49.571012 
L 37.346183 74.627954 
L 37.400542 73.589314 
L 37.454901 56.476076 
L 37.617978 95.473499 
L 37.726695 60.147213 
L 37.835413 59.602429 
L 37.889772 99.300611 
L 37.99849 52.958745 
L 38.052849 80.058916 
L 38.270285 60.544398 
L 38.433361 100.224424 
L 38.542079 54.895493 
L 38.596438 102.410179 
L 38.650797 53.496724 
L 38.705156 64.115794 
L 38.759515 43.854185 
L 38.813874 61.172705 
L 38.868233 56.203789 
L 38.922592 38.016639 
L 39.03131 80.714833 
L 39.085669 73.172296 
L 39.140028 40.475016 
L 39.194386 72.888784 
L 39.248745 74.748404 
L 39.303104 90.135725 
L 39.411822 63.88538 
L 39.466181 99.829885 
L 39.52054 85.089842 
L 39.574899 88.231798 
L 39.629258 87.47473 
L 39.792335 49.634481 
L 39.955411 96.067378 
L 40.00977 89.809465 
L 40.064129 43.818799 
L 40.118488 81.736895 
L 40.172847 50.236539 
L 40.227206 65.732818 
L 40.281565 84.180681 
L 40.335924 80.376606 
L 40.390283 71.229742 
L 40.499001 91.486149 
L 40.662078 48.507783 
L 40.770795 108.602252 
L 40.933872 46.676158 
L 41.04259 97.999333 
L 41.096949 57.836924 
L 41.151308 76.210452 
L 41.205667 91.243854 
L 41.260026 77.848229 
L 41.314385 85.704641 
L 41.423103 69.205652 
L 41.477461 120.025771 
L 41.586179 43.660554 
L 41.749256 76.698236 
L 41.803615 44.453559 
L 41.857974 75.8387 
L 41.966692 79.242932 
L 42.021051 72.83873 
L 42.07541 49.974578 
L 42.129769 72.959543 
L 42.184128 95.616942 
L 42.238486 77.303829 
L 42.401563 66.419204 
L 42.455922 72.073149 
L 42.510281 67.263021 
L 42.56464 108.146379 
L 42.618999 79.655756 
L 42.673358 105.205729 
L 42.727717 38.646693 
L 42.782076 80.51716 
L 42.836435 65.063808 
L 42.890794 69.921095 
L 42.945153 74.343413 
L 42.999511 46.970803 
L 43.108229 103.383169 
L 43.162588 71.460432 
L 43.216947 90.207607 
L 43.325665 66.706824 
L 43.380024 79.098363 
L 43.434383 103.750539 
L 43.59746 61.045413 
L 43.706178 81.576588 
L 43.760536 81.157136 
L 43.869254 58.960257 
L 43.923613 65.08823 
L 43.977972 72.640165 
L 44.08669 56.553929 
L 44.141049 74.527424 
L 44.195408 41.781552 
L 44.249767 72.776509 
L 44.304126 77.066652 
L 44.358485 61.257331 
L 44.412844 61.983602 
L 44.467203 82.042059 
L 44.521561 66.946585 
L 44.57592 73.500947 
L 44.738997 30.919528 
L 44.847715 83.584975 
L 44.956433 69.092493 
L 45.010792 96.663963 
L 45.065151 71.636255 
L 45.11951 72.298813 
L 45.173869 37.018865 
L 45.228228 56.514514 
L 45.391304 94.567694 
L 45.445663 94.764701 
L 45.500022 66.354316 
L 45.554381 83.401445 
L 45.663099 63.910082 
L 45.717458 81.294456 
L 45.771817 45.266383 
L 45.826176 101.292138 
L 45.880535 69.218936 
L 45.934894 95.602082 
L 45.989253 54.178269 
L 46.043611 60.013518 
L 46.09797 66.904344 
L 46.152329 93.83274 
L 46.315406 44.801671 
L 46.478483 98.507948 
L 46.64156 55.631879 
L 46.750278 91.259156 
L 46.804636 84.725332 
L 46.858995 96.8314 
L 46.913354 95.732035 
L 47.022072 61.461464 
L 47.076431 83.484573 
L 47.13079 45.801613 
L 47.185149 87.414104 
L 47.239508 39.54406 
L 47.293867 70.735337 
L 47.348226 48.541594 
L 47.402585 77.360556 
L 47.456944 39.848492 
L 47.511303 92.110281 
L 47.565662 38.90703 
L 47.62002 65.323963 
L 47.674379 63.166067 
L 47.728738 63.383438 
L 47.783097 54.344894 
L 47.837456 99.519697 
L 47.891815 96.645359 
L 47.946174 68.962587 
L 48.000533 91.408223 
L 48.054892 91.809492 
L 48.16361 75.232073 
L 48.217969 81.916046 
L 48.326687 47.131983 
L 48.435404 98.024581 
L 48.489763 60.823054 
L 48.544122 73.10027 
L 48.598481 67.48129 
L 48.65284 93.826656 
L 48.707199 67.916963 
L 48.761558 68.122594 
L 48.815917 94.571193 
L 48.978994 53.794204 
L 49.033353 99.159145 
L 49.087712 70.543552 
L 49.14207 78.515763 
L 49.196429 78.488271 
L 49.250788 56.525615 
L 49.305147 85.746526 
L 49.359506 47.946773 
L 49.413865 53.814795 
L 49.522583 124.856406 
L 49.68566 61.015312 
L 49.848737 91.570778 
L 49.903095 73.345995 
L 49.957454 99.591009 
L 50.066172 44.064458 
L 50.229249 87.185709 
L 50.446685 54.172091 
L 50.555403 99.699373 
L 50.609762 85.973482 
L 50.66412 53.079242 
L 50.718479 56.949141 
L 50.772838 59.570313 
L 50.827197 80.573277 
L 50.881556 60.441637 
L 50.990274 58.547851 
L 51.044633 54.654839 
L 51.153351 87.125909 
L 51.262069 51.831093 
L 51.316428 87.807749 
L 51.370787 43.340297 
L 51.425145 83.713546 
L 51.479504 85.325248 
L 51.533863 49.226179 
L 51.588222 59.563061 
L 51.642581 52.954164 
L 51.69694 57.7294 
L 51.751299 94.253798 
L 51.805658 79.733819 
L 51.860017 76.440077 
L 51.914376 44.715453 
L 51.968735 76.025252 
L 52.023094 77.109597 
L 52.077453 49.332261 
L 52.131812 112.573782 
L 52.18617 58.05842 
L 52.240529 55.693517 
L 52.403606 82.040926 
L 52.457965 79.721792 
L 52.512324 93.30268 
L 52.566683 91.282088 
L 52.621042 60.691421 
L 52.675401 64.419219 
L 52.72976 62.594139 
L 52.892837 97.213994 
L 53.055913 64.225992 
L 53.110272 89.169503 
L 53.164631 66.778027 
L 53.21899 75.313505 
L 53.273349 63.107407 
L 53.327708 64.768684 
L 53.382067 64.296945 
L 53.436426 77.963562 
L 53.545144 77.944481 
L 53.599503 81.825548 
L 53.653862 71.068036 
L 53.70822 36.370556 
L 53.816938 96.688409 
L 53.871297 69.133043 
L 53.925656 81.383224 
L 53.980015 82.028501 
L 54.034374 97.643856 
L 54.143092 70.327866 
L 54.306169 90.475049 
L 54.360528 87.150849 
L 54.414887 52.911371 
L 54.469245 79.111263 
L 54.577963 91.039892 
L 54.74104 35.133166 
L 54.904117 97.045105 
L 54.958476 44.160656 
L 55.012835 66.864876 
L 55.067194 74.222836 
L 55.121553 110.253967 
L 55.175912 60.980679 
L 55.23027 71.097105 
L 55.284629 108.049536 
L 55.338988 85.850033 
L 55.393347 52.678696 
L 55.447706 105.088258 
L 55.502065 83.59234 
L 55.556424 97.585108 
L 55.610783 56.502154 
L 55.665142 94.455762 
L 55.719501 83.575811 
L 55.77386 99.522655 
L 55.882578 53.573634 
L 55.936937 67.070776 
L 55.991295 69.944449 
L 56.045654 100.039973 
L 56.100013 75.184518 
L 56.154372 61.707696 
L 56.208731 97.862563 
L 56.26309 59.168978 
L 56.317449 68.624286 
L 56.371808 106.774348 
L 56.426167 78.705651 
L 56.480526 92.973572 
L 56.534885 48.560423 
L 56.589244 71.844876 
L 56.75232 38.572683 
L 56.806679 70.634882 
L 56.861038 53.32917 
L 56.915397 51.430945 
L 56.969756 31.924057 
L 57.078474 97.090156 
L 57.132833 83.399488 
L 57.187192 78.089546 
L 57.241551 81.482563 
L 57.29591 81.675545 
L 57.404628 61.291379 
L 57.567704 94.38147 
L 57.622063 82.315435 
L 57.676422 105.045972 
L 57.893858 45.078875 
L 58.056935 83.138441 
L 58.111294 57.967038 
L 58.165653 77.672895 
L 58.220012 107.249174 
L 58.27437 100.424919 
L 58.437447 54.978153 
L 58.546165 98.094864 
L 58.600524 49.84717 
L 58.654883 89.336896 
L 58.709242 83.747659 
L 58.81796 44.798964 
L 58.926678 83.245055 
L 58.981037 71.59349 
L 59.035395 79.417587 
L 59.089754 77.621989 
L 59.198472 64.897707 
L 59.252831 69.290264 
L 59.415908 88.132135 
L 59.470267 84.793168 
L 59.578985 50.508291 
L 59.633344 84.151159 
L 59.687703 70.634719 
L 59.742062 61.452129 
L 59.79642 83.061205 
L 59.850779 48.758747 
L 59.905138 78.854211 
L 59.959497 99.33304 
L 60.013856 72.471728 
L 60.068215 97.818108 
L 60.176933 60.910413 
L 60.285651 62.053097 
L 60.503087 94.041334 
L 60.557445 76.85039 
L 60.611804 99.964016 
L 60.666163 79.392576 
L 60.720522 80.000723 
L 60.774881 35.817238 
L 60.82924 70.138532 
L 60.883599 91.279856 
L 60.937958 81.22421 
L 60.992317 57.115162 
L 61.046676 74.370441 
L 61.101035 82.458086 
L 61.264112 54.922356 
L 61.31847 77.488102 
L 61.372829 46.640497 
L 61.427188 67.4645 
L 61.590265 88.341571 
L 61.753342 66.327851 
L 61.916419 87.627535 
L 61.970778 58.280693 
L 62.025137 73.150816 
L 62.079495 62.270797 
L 62.133854 107.95743 
L 62.188213 91.845882 
L 62.242572 66.159207 
L 62.296931 79.623952 
L 62.35129 77.326108 
L 62.405649 107.250158 
L 62.514367 71.387371 
L 62.623085 96.855284 
L 62.677444 78.545925 
L 62.731803 84.401756 
L 62.786162 91.161812 
L 62.949238 53.982562 
L 63.057956 80.03524 
L 63.166674 39.019527 
L 63.221033 80.994905 
L 63.275392 78.010032 
L 63.38411 70.997132 
L 63.438469 72.897165 
L 63.492828 42.307035 
L 63.547187 65.461816 
L 63.655904 84.194727 
L 63.764622 67.357412 
L 63.927699 84.914503 
L 63.982058 72.886557 
L 64.036417 75.007677 
L 64.145135 78.207254 
L 64.199494 52.365248 
L 64.253853 63.239751 
L 64.416929 96.645734 
L 64.471288 84.735026 
L 64.580006 75.50221 
L 64.634365 87.608816 
L 64.688724 72.729566 
L 64.743083 103.078868 
L 64.797442 58.711599 
L 64.851801 78.209262 
L 64.90616 78.170855 
L 64.960519 71.958367 
L 65.014878 97.669007 
L 65.069237 71.124411 
L 65.123596 50.633109 
L 65.177954 91.036 
L 65.232313 78.280975 
L 65.286672 82.639565 
L 65.341031 111.540934 
L 65.449749 50.28137 
L 65.504108 103.529701 
L 65.558467 77.658933 
L 65.612826 74.698582 
L 65.667185 53.726681 
L 65.721544 67.808389 
L 65.830262 85.450711 
L 65.938979 56.46568 
L 65.993338 66.442345 
L 66.102056 85.715084 
L 66.156415 60.659536 
L 66.210774 93.241336 
L 66.265133 51.532708 
L 66.319492 77.051925 
L 66.373851 82.72348 
L 66.42821 42.931923 
L 66.482569 69.868928 
L 66.536928 103.32542 
L 66.591287 60.51894 
L 66.645646 105.727177 
L 66.700004 89.334537 
L 66.754363 88.329038 
L 66.808722 79.963225 
L 66.863081 54.21437 
L 66.91744 64.542815 
L 66.971799 104.055297 
L 67.026158 91.528645 
L 67.134876 77.979688 
L 67.243594 55.721922 
L 67.352312 90.7682 
L 67.406671 67.441462 
L 67.461029 82.301483 
L 67.624106 102.674928 
L 67.732824 45.19814 
L 67.787183 75.59798 
L 67.841542 101.232405 
L 67.895901 66.728703 
L 67.95026 92.532712 
L 68.113337 58.132097 
L 68.167696 84.031235 
L 68.222054 60.049611 
L 68.276413 59.97282 
L 68.330772 66.114472 
L 68.385131 101.911549 
L 68.548208 48.178123 
L 68.711285 82.763932 
L 68.874362 59.120477 
L 69.091797 103.427459 
L 69.309233 68.169102 
L 69.363592 96.804525 
L 69.417951 55.85323 
L 69.47231 108.148535 
L 69.526669 65.419544 
L 69.689746 107.476795 
L 69.852822 54.165131 
L 69.96154 110.973364 
L 70.015899 105.351094 
L 70.124617 65.339174 
L 70.287694 85.317258 
L 70.342053 73.395554 
L 70.396412 90.517485 
L 70.450771 89.436032 
L 70.559488 51.362673 
L 70.668206 68.855388 
L 70.722565 47.379385 
L 70.776924 97.899061 
L 70.831283 60.360617 
L 70.99436 103.359387 
L 71.048719 127.636364 
L 71.157437 59.20781 
L 71.211796 85.764546 
L 71.266154 64.529321 
L 71.320513 87.852586 
L 71.374872 84.791909 
L 71.429231 56.055065 
L 71.537949 57.110455 
L 71.592308 94.073327 
L 71.646667 64.377258 
L 71.755385 88.759337 
L 71.809744 77.152549 
L 71.864103 74.6366 
L 71.918462 106.525227 
L 71.972821 93.026837 
L 72.027179 74.295725 
L 72.081538 75.160852 
L 72.135897 92.670799 
L 72.298974 42.890999 
L 72.462051 76.20866 
L 72.51641 64.513723 
L 72.570769 91.263149 
L 72.625128 70.803413 
L 72.679487 70.087203 
L 72.733846 76.941132 
L 72.788204 63.362135 
L 72.842563 81.232882 
L 72.896922 78.812007 
L 73.059999 61.690464 
L 73.114358 66.136189 
L 73.168717 100.992686 
L 73.223076 55.362442 
L 73.277435 61.858826 
L 73.331794 78.967434 
L 73.386153 24.900594 
L 73.440512 56.768822 
L 73.494871 61.093139 
L 73.603588 49.545913 
L 73.712306 89.356306 
L 73.766665 76.260129 
L 73.875383 60.798306 
L 73.929742 73.272508 
L 73.984101 54.293074 
L 74.03846 87.049383 
L 74.092819 67.36204 
L 74.147178 59.692023 
L 74.201537 101.544165 
L 74.255896 71.962912 
L 74.473331 92.722547 
L 74.582049 71.65189 
L 74.745126 106.691505 
L 74.799485 58.636237 
L 74.853844 89.750914 
L 74.908203 87.285745 
L 74.962562 95.983287 
L 75.016921 63.518565 
L 75.071279 64.046191 
L 75.234356 88.593664 
L 75.451792 42.884453 
L 75.506151 55.243678 
L 75.56051 87.10972 
L 75.614869 61.80526 
L 75.723587 87.97688 
L 75.886663 66.561135 
L 76.04974 89.452986 
L 76.104099 63.228222 
L 76.158458 76.552148 
L 76.212817 78.047189 
L 76.267176 64.653281 
L 76.321535 83.58082 
L 76.484612 57.422371 
L 76.538971 64.315607 
L 76.593329 29.030865 
L 76.756406 95.298517 
L 76.865124 58.784038 
L 76.919483 89.145818 
L 76.973842 70.838238 
L 77.028201 72.100762 
L 77.08256 91.467678 
L 77.136919 54.47743 
L 77.191278 79.672333 
L 77.245637 98.442264 
L 77.354354 67.924664 
L 77.408713 68.380307 
L 77.463072 80.260367 
L 77.517431 74.818166 
L 77.57179 45.384316 
L 77.626149 67.56385 
L 77.680508 95.07547 
L 77.734867 88.563158 
L 77.789226 62.375632 
L 77.843585 74.253917 
L 78.006662 86.575519 
L 78.061021 54.291931 
L 78.115379 58.053535 
L 78.169738 88.009319 
L 78.278456 87.762227 
L 78.332815 68.31123 
L 78.387174 75.395196 
L 78.441533 70.49105 
L 78.495892 84.518193 
L 78.550251 58.581799 
L 78.60461 88.406046 
L 78.658969 68.063836 
L 78.767687 89.420491 
L 78.985122 45.568456 
L 79.09384 113.493892 
L 79.148199 80.708965 
L 79.256917 74.515375 
L 79.311276 98.605226 
L 79.365635 48.227862 
L 79.419994 118.638268 
L 79.474353 61.361969 
L 79.528712 65.317225 
L 79.583071 91.705025 
L 79.637429 74.519249 
L 79.746147 99.27215 
L 79.854865 57.661898 
L 79.909224 80.065371 
L 79.963583 57.434336 
L 80.017942 58.71557 
L 80.181019 91.926149 
L 80.235378 67.807909 
L 80.289737 71.771768 
L 80.344096 95.501072 
L 80.398455 88.48404 
L 80.561531 68.351483 
L 80.61589 91.228532 
L 80.670249 50.337094 
L 80.724608 87.849139 
L 80.833326 72.68061 
L 80.887685 79.841504 
L 80.942044 82.150285 
L 80.996403 58.435178 
L 81.050762 75.255532 
L 81.105121 79.739668 
L 81.15948 55.38605 
L 81.322556 95.321229 
L 81.376915 68.574476 
L 81.431274 79.741489 
L 81.485633 103.463853 
L 81.539992 86.484793 
L 81.594351 51.089397 
L 81.64871 77.403141 
L 81.703069 66.891128 
L 81.811787 96.012045 
L 81.866146 69.048774 
L 81.920505 80.678691 
L 81.974863 83.941352 
L 82.029222 94.107477 
L 82.13794 45.452074 
L 82.246658 53.110388 
L 82.301017 91.32669 
L 82.355376 66.637871 
L 82.409735 56.915011 
L 82.464094 91.362413 
L 82.518453 54.015357 
L 82.572812 106.945023 
L 82.627171 84.568222 
L 82.68153 101.121102 
L 82.735888 24.634087 
L 82.790247 67.739728 
L 82.844606 99.317611 
L 82.898965 86.072465 
L 83.007683 68.503212 
L 83.116401 71.087034 
L 83.17076 91.643375 
L 83.225119 47.738127 
L 83.279478 99.95366 
L 83.333837 59.314919 
L 83.388196 51.223183 
L 83.442555 78.221762 
L 83.496913 56.432151 
L 83.551272 62.149597 
L 83.605631 53.326538 
L 83.65999 83.771498 
L 83.714349 45.905555 
L 83.768708 82.500565 
L 83.931785 59.463761 
L 84.149221 84.519922 
L 84.312297 64.722858 
L 84.475374 107.350478 
L 84.584092 65.714876 
L 84.69281 90.770084 
L 84.747169 79.637013 
L 84.801528 91.196372 
L 84.855887 88.155911 
L 84.964605 44.445587 
L 85.018963 70.797535 
L 85.073322 67.346278 
L 85.127681 66.71448 
L 85.18204 56.8659 
L 85.290758 83.530599 
L 85.345117 78.882296 
L 85.508194 53.919298 
L 85.562553 97.960958 
L 85.616912 75.891391 
L 85.671271 86.421061 
L 85.72563 61.147675 
L 85.779988 90.323379 
L 85.834347 84.272441 
L 85.888706 49.208706 
L 85.943065 78.744188 
L 85.997424 83.023306 
L 86.051783 52.568014 
L 86.106142 72.342374 
L 86.160501 81.466596 
L 86.323578 46.125008 
L 86.377937 110.88593 
L 86.432296 96.922264 
L 86.486655 65.122738 
L 86.541013 73.250718 
L 86.595372 82.346434 
L 86.649731 63.175451 
L 86.70409 79.955861 
L 86.758449 87.804692 
L 86.812808 58.771755 
L 86.867167 96.656484 
L 86.921526 70.432882 
L 86.975885 79.341749 
L 87.030244 61.277303 
L 87.084603 84.006439 
L 87.138962 50.845762 
L 87.193321 63.940695 
L 87.24768 98.492143 
L 87.302038 85.910277 
L 87.356397 81.514331 
L 87.410756 97.078899 
L 87.465115 56.084688 
L 87.519474 68.114909 
L 87.573833 84.368348 
L 87.628192 56.038722 
L 87.682551 86.50257 
L 87.73691 67.926917 
L 87.791269 67.335694 
L 87.845628 115.285183 
L 87.899987 72.417857 
L 87.954346 81.703031 
L 88.008705 66.029475 
L 88.063063 72.183471 
L 88.117422 90.549697 
L 88.22614 49.366834 
L 88.280499 95.607798 
L 88.334858 61.570243 
L 88.389217 70.572957 
L 88.443576 56.838452 
L 88.497935 74.470956 
L 88.552294 63.461466 
L 88.606653 32.723164 
L 88.715371 78.199379 
L 88.76973 75.675488 
L 88.824088 93.957907 
L 88.878447 63.621398 
L 88.932806 85.177501 
L 89.041524 74.874574 
L 89.095883 59.809343 
L 89.150242 73.619202 
L 89.204601 65.37835 
L 89.25896 79.19762 
L 89.313319 57.679195 
L 89.367678 92.693141 
L 89.422037 66.451584 
L 89.476396 90.528796 
L 89.530755 74.544101 
L 89.585113 82.75055 
L 89.639472 77.019779 
L 89.693831 82.251458 
L 89.74819 63.221681 
L 89.911267 92.844455 
L 89.965626 77.758642 
L 90.019985 110.144614 
L 90.074344 54.95608 
L 90.128703 72.377699 
L 90.183062 69.974032 
L 90.237421 56.029761 
L 90.400497 106.693448 
L 90.454856 73.64181 
L 90.509215 92.561458 
L 90.563574 85.699028 
L 90.617933 93.309556 
L 90.726651 16.363636 
L 90.835369 89.88846 
L 90.889728 80.293271 
L 90.998446 96.634584 
L 91.052805 62.826888 
L 91.107163 66.422608 
L 91.161522 105.648576 
L 91.215881 69.107589 
L 91.27024 76.55544 
L 91.324599 47.720481 
L 91.378958 94.572231 
L 91.433317 80.651789 
L 91.487676 89.231417 
L 91.542035 45.203598 
L 91.596394 79.757188 
L 91.650753 105.638754 
L 91.705112 65.373905 
L 91.81383 66.382984 
L 91.976906 81.453844 
L 92.031265 69.769219 
L 92.139983 87.65714 
L 92.194342 81.540711 
L 92.248701 60.825804 
L 92.30306 86.328397 
L 92.411778 54.509282 
L 92.520496 89.468475 
L 92.574855 75.123196 
L 92.629213 78.184927 
L 92.683572 78.931969 
L 92.737931 58.670405 
L 92.79229 76.95666 
L 92.846649 91.596804 
L 93.009726 47.245936 
L 93.172803 81.640785 
L 93.33588 72.026304 
L 93.390238 98.376705 
L 93.498956 47.825273 
L 93.553315 56.058293 
L 93.607674 82.537623 
L 93.662033 59.755516 
L 93.770751 94.678371 
L 93.82511 64.459869 
L 93.879469 67.105914 
L 93.933828 77.401016 
L 93.988187 70.585366 
L 94.042546 71.188235 
L 94.151263 80.241568 
L 94.259981 54.677115 
L 94.423058 82.23483 
L 94.477417 99.111441 
L 94.531776 50.89616 
L 94.586135 66.052103 
L 94.694853 62.309625 
L 94.803571 91.725131 
L 94.85793 64.020501 
L 94.912288 92.459881 
L 94.966647 114.692496 
L 95.021006 65.282064 
L 95.129724 66.187474 
L 95.184083 101.335939 
L 95.292801 62.093318 
L 95.34716 69.549204 
L 95.455878 52.630653 
L 95.510237 57.220071 
L 95.564596 83.385268 
L 95.618955 80.059616 
L 95.727672 60.6937 
L 95.782031 60.91843 
L 95.83639 76.550494 
L 95.890749 76.248791 
L 95.999467 38.071251 
L 96.162544 87.217387 
L 96.216903 58.252421 
L 96.325621 94.307012 
L 96.37998 88.235177 
L 96.434338 99.418215 
L 96.488697 94.030033 
L 96.597415 52.909393 
L 96.760492 81.723793 
L 96.814851 58.445691 
L 96.977928 90.759962 
L 97.032287 70.749443 
L 97.086646 72.940246 
L 97.141005 77.775108 
L 97.195364 63.365553 
L 97.249722 72.320089 
L 97.304081 80.309178 
L 97.35844 60.532409 
L 97.521517 92.158715 
L 97.575876 89.249872 
L 97.630235 100.761712 
L 97.793312 57.630835 
L 97.847671 91.493518 
L 97.90203 77.607374 
L 97.956389 59.089026 
L 98.010747 111.324237 
L 98.065106 63.679976 
L 98.173824 78.043108 
L 98.282542 63.814542 
L 98.39126 88.990209 
L 98.499978 60.370452 
L 98.554337 62.452845 
L 98.608696 62.437115 
L 98.663055 92.922572 
L 98.717414 78.596667 
L 98.771772 53.044174 
L 98.826131 79.26062 
L 98.88049 67.122 
L 98.934849 91.99296 
L 98.989208 83.216422 
L 99.043567 78.108412 
L 99.097926 91.260893 
L 99.152285 54.550669 
L 99.206644 66.796989 
L 99.261003 70.440822 
L 99.315362 57.231846 
L 99.369721 75.199136 
L 99.42408 62.7037 
L 99.478439 57.744271 
L 99.532797 65.474148 
L 99.587156 52.184862 
L 99.641515 105.097517 
L 99.695874 58.618155 
L 99.804592 71.252667 
L 99.91331 60.73253 
L 99.967669 62.798962 
L 100.022028 83.145114 
L 100.076387 67.341012 
L 100.130746 70.665587 
L 100.185105 55.101869 
L 100.239464 66.824477 
L 100.293822 67.489684 
L 100.456899 94.320973 
L 100.511258 85.746099 
L 100.619976 46.779924 
L 100.783053 85.326942 
L 100.891771 59.43883 
L 101.000489 93.425613 
L 101.054847 78.715568 
L 101.109206 93.952506 
L 101.163565 85.006378 
L 101.217924 54.855451 
L 101.272283 89.92546 
L 101.326642 72.795131 
L 101.381001 79.20112 
L 101.43536 76.94018 
L 101.544078 64.732067 
L 101.598437 66.02345 
L 101.652796 87.833688 
L 101.707155 70.483712 
L 101.815872 42.040717 
L 101.978949 75.313885 
L 102.033308 71.041014 
L 102.196385 82.730082 
L 102.305103 62.890971 
L 102.359462 49.009645 
L 102.413821 73.092186 
L 102.46818 55.187386 
L 102.522539 46.37724 
L 102.576897 121.542884 
L 102.631256 39.339897 
L 102.685615 57.679557 
L 102.739974 64.370925 
L 102.794333 56.210399 
L 102.95741 98.563814 
L 103.120487 63.13849 
L 103.174846 98.347088 
L 103.229205 67.195676 
L 103.283564 48.96904 
L 103.337922 65.367299 
L 103.500999 81.067469 
L 103.555358 61.529425 
L 103.609717 103.232757 
L 103.664076 58.157106 
L 103.718435 74.319805 
L 103.772794 85.834629 
L 103.827153 58.356426 
L 103.881512 65.532676 
L 103.99023 98.140731 
L 104.044589 69.300443 
L 104.098947 80.230682 
L 104.153306 78.820967 
L 104.207665 62.357675 
L 104.370742 91.146129 
L 104.425101 65.387036 
L 104.47946 97.14016 
L 104.588178 41.761006 
L 104.751255 87.393605 
L 104.805614 82.659757 
L 104.859972 66.103724 
L 104.914331 95.569009 
L 104.96869 81.104602 
L 105.186126 60.411309 
L 105.240485 99.73263 
L 105.294844 81.934239 
L 105.349203 96.357079 
L 105.457921 67.902618 
L 105.51228 72.818238 
L 105.566639 82.011283 
L 105.620997 47.878455 
L 105.675356 63.171921 
L 105.729715 75.571453 
L 105.784074 74.369225 
L 105.838433 65.862903 
L 105.892792 71.790955 
L 106.110228 98.255878 
L 106.218946 74.32387 
L 106.273305 76.675152 
L 106.327664 72.101535 
L 106.382022 91.576009 
L 106.436381 90.758119 
L 106.599458 60.641969 
L 106.871253 105.889345 
L 106.925612 88.711516 
L 106.979971 66.984594 
L 107.03433 91.74784 
L 107.088689 79.97429 
L 107.143047 79.960567 
L 107.306124 49.658672 
L 107.360483 51.535785 
L 107.469201 73.872622 
L 107.52356 70.21625 
L 107.577919 47.530983 
L 107.686637 111.368482 
L 107.740996 50.992618 
L 107.849714 53.595769 
L 107.904072 54.470606 
L 108.01279 98.856387 
L 108.067149 70.285419 
L 108.121508 78.557683 
L 108.175867 75.747505 
L 108.230226 87.396501 
L 108.284585 83.006348 
L 108.338944 57.495717 
L 108.393303 80.477164 
L 108.447662 72.681215 
L 108.502021 76.237714 
L 108.55638 84.860054 
L 108.665097 63.147203 
L 108.719456 92.434504 
L 108.773815 78.136757 
L 108.828174 84.313113 
L 108.882533 61.532069 
L 108.936892 91.709011 
L 108.991251 64.473846 
L 109.04561 47.120433 
L 109.099969 55.301545 
L 109.154328 75.711047 
L 109.208687 73.346456 
L 109.317405 61.604682 
L 109.371764 82.948111 
L 109.426122 73.272644 
L 109.480481 69.820735 
L 109.53484 58.610781 
L 109.697917 75.512896 
L 109.752276 73.318912 
L 109.806635 98.019594 
L 109.860994 36.717507 
L 109.915353 95.258442 
L 109.969712 84.833524 
L 110.024071 48.873218 
L 110.07843 50.822932 
L 110.187147 87.381377 
L 110.241506 79.619523 
L 110.295865 91.151782 
L 110.458942 36.696019 
L 110.56766 73.440735 
L 110.622019 71.210683 
L 110.730737 79.443095 
L 110.785096 76.09825 
L 110.839455 77.805732 
L 110.893814 88.401688 
L 110.948172 83.512335 
L 111.002531 75.030059 
L 111.05689 97.367753 
L 111.111249 94.759278 
L 111.165608 66.235463 
L 111.328685 102.949206 
L 111.546121 42.607152 
L 111.60048 103.966111 
L 111.654839 90.291117 
L 111.709197 65.614101 
L 111.763556 91.809149 
L 111.817915 75.162983 
L 111.872274 69.807169 
L 111.926633 22.109235 
L 111.980992 54.650661 
L 112.035351 55.757593 
L 112.08971 96.301753 
L 112.144069 59.593857 
L 112.198428 72.345426 
L 112.252787 67.175124 
L 112.307146 50.169891 
L 112.361505 76.800748 
L 112.415864 62.137442 
L 112.470222 57.959619 
L 112.57894 108.165309 
L 112.742017 59.646231 
L 112.905094 86.724219 
L 112.959453 76.282828 
L 113.013812 85.823113 
L 113.12253 79.873574 
L 113.176889 84.974258 
L 113.231248 81.604084 
L 113.285606 83.955407 
L 113.339965 66.811054 
L 113.448683 107.214223 
L 113.557401 64.198085 
L 113.61176 71.334707 
L 113.720478 44.181763 
L 113.774837 72.993578 
L 113.829196 54.369596 
L 113.937914 66.407792 
L 113.992273 76.911669 
L 114.046631 66.010053 
L 114.10099 75.03156 
L 114.155349 45.417359 
L 114.209708 79.803717 
L 114.264067 52.196801 
L 114.372785 88.273453 
L 114.427144 66.31864 
L 114.481503 88.435056 
L 114.535862 102.880359 
L 114.590221 90.455935 
L 114.64458 60.528965 
L 114.698939 101.187188 
L 114.753298 67.901708 
L 114.807656 60.386783 
L 114.862015 60.868 
L 115.025092 90.965985 
L 115.079451 87.221943 
L 115.188169 102.754347 
L 115.242528 57.071753 
L 115.296887 104.784076 
L 115.351246 62.130143 
L 115.62304 98.005349 
L 115.731758 58.338109 
L 115.949194 91.089364 
L 116.003553 61.725636 
L 116.057912 62.178316 
L 116.112271 90.53161 
L 116.16663 73.319192 
L 116.220989 74.54815 
L 116.275348 61.954012 
L 116.329706 63.917142 
L 116.384065 93.229631 
L 116.438424 65.539342 
L 116.492783 55.450577 
L 116.547142 63.355795 
L 116.65586 82.557704 
L 116.818937 61.765321 
L 116.982014 89.063464 
L 117.090731 93.344569 
L 117.14509 55.538936 
L 117.199449 77.292792 
L 117.253808 73.487742 
L 117.308167 84.066883 
L 117.362526 79.68248 
L 117.416885 78.048532 
L 117.471244 88.295292 
L 117.579962 55.691383 
L 117.634321 59.561697 
L 117.797398 87.636055 
L 117.851756 40.344873 
L 117.906115 57.42367 
L 117.960474 73.609687 
L 118.014833 70.240414 
L 118.069192 69.617288 
L 118.232269 79.296811 
L 118.286628 64.343834 
L 118.340987 79.0887 
L 118.395346 95.982199 
L 118.504064 64.234919 
L 118.612781 83.177324 
L 118.66714 82.999604 
L 118.775858 71.743292 
L 118.830217 89.600286 
L 118.884576 46.086501 
L 118.938935 65.661744 
L 118.993294 66.841853 
L 119.047653 76.956586 
L 119.102012 71.343694 
L 119.21073 62.653994 
L 119.319448 88.487536 
L 119.373806 80.681521 
L 119.482524 100.373704 
L 119.536883 89.01077 
L 119.591242 118.956935 
L 119.645601 92.804097 
L 119.69996 49.712922 
L 119.754319 69.929166 
L 119.917396 109.161105 
L 119.971755 51.373163 
L 120.026114 63.993681 
L 120.134831 112.817084 
L 120.297908 62.693453 
L 120.460985 100.786323 
L 120.515344 60.836535 
L 120.569703 87.994922 
L 120.624062 67.389207 
L 120.678421 84.843871 
L 120.73278 69.432711 
L 120.787139 85.216009 
L 120.841498 77.269099 
L 120.895856 89.598442 
L 121.004574 56.907203 
L 121.113292 86.05995 
L 121.167651 64.095235 
L 121.22201 79.914034 
L 121.276369 77.258931 
L 121.330728 82.765824 
L 121.493805 63.789459 
L 121.548164 87.637211 
L 121.602523 65.288065 
L 121.765599 97.986905 
L 121.819958 70.822408 
L 121.874317 90.05261 
L 121.928676 83.966456 
L 122.037394 108.928159 
L 122.146112 70.878407 
L 122.309189 92.074061 
L 122.363548 98.223882 
L 122.417906 55.328793 
L 122.472265 78.593514 
L 122.526624 91.995778 
L 122.580983 49.872898 
L 122.635342 81.620467 
L 122.689701 77.758588 
L 122.74406 84.287941 
L 122.798419 77.898647 
L 122.852778 79.748182 
L 123.015855 61.110476 
L 123.070214 76.48724 
L 123.124573 63.44801 
L 123.178931 57.014224 
L 123.23329 89.174249 
L 123.287649 77.681554 
L 123.342008 57.06348 
L 123.396367 78.458554 
L 123.450726 78.371251 
L 123.505085 87.325765 
L 123.668162 49.349707 
L 123.722521 97.66706 
L 123.77688 70.638653 
L 123.831239 72.490426 
L 123.885598 91.244358 
L 123.939956 81.001674 
L 123.994315 62.433545 
L 124.048674 63.725396 
L 124.103033 71.239499 
L 124.157392 70.768819 
L 124.211751 111.681926 
L 124.26611 68.626384 
L 124.320469 99.314951 
L 124.483546 75.111347 
L 124.537905 92.097873 
L 124.592264 90.472246 
L 124.646623 88.699851 
L 124.700981 98.89733 
L 124.75534 98.443024 
L 124.918417 63.166333 
L 125.027135 89.806425 
L 125.081494 87.23782 
L 125.135853 84.803366 
L 125.190212 52.008398 
L 125.244571 89.167794 
L 125.29893 57.11424 
L 125.462006 84.794866 
L 125.570724 51.105881 
L 125.625083 86.21295 
L 125.679442 64.48782 
L 125.733801 69.324515 
L 125.78816 52.587889 
L 125.842519 68.130995 
L 125.951237 85.460678 
L 126.005596 68.48374 
L 126.059955 92.940842 
L 126.223031 50.592062 
L 126.27739 98.011705 
L 126.331749 76.501886 
L 126.386108 80.50939 
L 126.440467 50.765403 
L 126.494826 67.913958 
L 126.549185 98.479297 
L 126.657903 58.35195 
L 126.82098 81.908662 
L 126.875339 80.886257 
L 126.929698 66.399706 
L 126.984056 77.809125 
L 127.038415 71.120548 
L 127.201492 89.954093 
L 127.31021 49.754359 
L 127.364569 71.342226 
L 127.418928 73.289888 
L 127.473287 90.575014 
L 127.527646 73.708131 
L 127.636364 80.467832 
L 127.636364 80.467832 
" clip-path="url(#p605574e5c4)" style="fill: none; stroke: #fc8d62; stroke-width: 1.5; stroke-linecap: square"/>
   </g>
   <g id="patch_3">
    <path d="M 10.8 133.2 
L 10.8 10.8 
" style="fill: none; stroke: #000000; stroke-width: 0.8; stroke-linejoin: miter; stroke-linecap: square"/>
   </g>
   <g id="patch_4">
    <path d="M 133.2 133.2 
L 133.2 10.8 
" style="fill: none; stroke: #000000; stroke-width: 0.8; stroke-linejoin: miter; stroke-linecap: square"/>
   </g>
   <g id="patch_5">
    <path d="M 10.8 133.2 
L 133.2 133.2 
" style="fill: none; stroke: #000000; stroke-width: 0.8; stroke-linejoin: miter; stroke-linecap: square"/>
   </g>
   <g id="patch_6">
    <path d="M 10.8 10.8 
L 133.2 10.8 
" style="fill: none; stroke: #000000; stroke-width: 0.8; stroke-linejoin: miter; stroke-linecap: square"/>
   </g>
  </g>
 </g>
 <defs>
  <clipPath id="p605574e5c4">
   <rect x="10.8" y="10.8" width="122.4" height="122.4"/>
  </clipPath>
 </defs>
</svg>
