<?xml version="1.0" encoding="utf-8" standalone="no"?>
<!DOCTYPE svg PUBLIC "-//W3C//DTD SVG 1.1//EN"
  "http://www.w3.org/Graphics/SVG/1.1/DTD/svg11.dtd">
<svg xmlns:xlink="http://www.w3.org/1999/xlink" width="144pt" height="144pt" viewBox="0 0 144 144" xmlns="http://www.w3.org/2000/svg" version="1.1">
 <metadata>
  <rdf:RDF xmlns:dc="http://purl.org/dc/elements/1.1/" xmlns:cc="http://creativecommons.org/ns#" xmlns:rdf="http://www.w3.org/1999/02/22-rdf-syntax-ns#">
   <cc:Work>
    <dc:type rdf:resource="http://purl.org/dc/dcmitype/StillImage"/>
    <dc:date>2025-02-11T14:35:20.214643</dc:date>
    <dc:format>image/svg+xml</dc:format>
    <dc:creator>
     <cc:Agent>
      <dc:title>Matplotlib v3.8.0, https://matplotlib.org/</dc:title>
     </cc:Agent>
    </dc:creator>
   </cc:Work>
  </rdf:RDF>
 </metadata>
 <defs>
  <style type="text/css">*{stroke-linejoin: round; stroke-linecap: butt}</style>
 </defs>
 <g id="figure_1">
  <g id="patch_1">
   <path d="M 0 144 
L 144 144 
L 144 0 
L 0 0 
L 0 144 
z
" style="fill: none"/>
  </g>
  <g id="axes_1">
   <g id="patch_2">
    <path d="M 10.8 133.2 
L 133.2 133.2 
L 133.2 10.8 
L 10.8 10.8 
L 10.8 133.2 
z
" style="fill: none"/>
   </g>
   <g id="matplotlib.axis_1"/>
   <g id="matplotlib.axis_2"/>
   <g id="line2d_1">
    <path d="M 16.363636 60.522895 
L 16.417995 92.234544 
L 16.472354 85.069199 
L 16.526713 61.226077 
L 16.581072 78.452714 
L 16.635431 95.509731 
L 16.68979 85.356719 
L 16.744149 89.744511 
L 16.798508 62.463588 
L 16.852867 74.027124 
L 16.907226 73.619842 
L 16.961585 100.988694 
L 17.015944 82.59148 
L 17.070302 74.347226 
L 17.124661 88.973065 
L 17.17902 81.323234 
L 17.233379 61.662361 
L 17.287738 64.262906 
L 17.342097 83.428162 
L 17.396456 79.027344 
L 17.505174 81.068643 
L 17.559533 92.644303 
L 17.613892 63.133381 
L 17.668251 73.08418 
L 17.776969 72.645639 
L 17.831327 103.416286 
L 17.994404 79.561581 
L 18.048763 92.571227 
L 18.103122 67.25785 
L 18.157481 92.582315 
L 18.320558 66.751195 
L 18.266199 92.80384 
L 18.374917 72.886481 
L 18.429276 101.479447 
L 18.483635 70.811107 
L 18.537994 78.652291 
L 18.70107 97.127962 
L 18.809788 76.177814 
L 18.918506 100.656867 
L 18.972865 56.218046 
L 19.027224 72.667417 
L 19.081583 112.6253 
L 19.135942 89.306966 
L 19.190301 45.984268 
L 19.24466 75.962791 
L 19.516454 121.774288 
L 19.625172 50.602683 
L 19.73389 93.172023 
L 19.788249 80.175175 
L 19.842608 85.416558 
L 19.896967 100.435286 
L 19.951326 94.449737 
L 20.168761 76.936505 
L 20.277479 76.354906 
L 20.331838 98.019691 
L 20.386197 84.307559 
L 20.440556 96.988869 
L 20.494915 85.293353 
L 20.549274 92.937068 
L 20.603633 97.982336 
L 20.657992 64.753186 
L 20.712351 91.988427 
L 20.76671 72.032046 
L 20.821069 88.575459 
L 20.875427 107.762468 
L 20.929786 91.249172 
L 21.038504 68.017275 
L 21.25594 107.611939 
L 21.310299 88.103517 
L 21.364658 89.352401 
L 21.419017 102.489237 
L 21.527735 67.408039 
L 21.582094 74.999421 
L 21.690811 83.923931 
L 21.853888 61.112395 
L 21.962606 92.538117 
L 22.016965 63.719116 
L 22.125683 114.474158 
L 22.180042 82.053306 
L 22.234401 100.570915 
L 22.28876 90.28334 
L 22.343119 102.027315 
L 22.397477 87.075445 
L 22.451836 96.260783 
L 22.506195 110.352516 
L 22.560554 62.420503 
L 22.614913 64.371116 
L 22.669272 97.807641 
L 22.723631 82.58383 
L 22.77799 89.573743 
L 22.832349 88.728324 
L 23.049785 64.415879 
L 23.158502 96.917151 
L 23.321579 64.629494 
L 23.430297 105.287092 
L 23.484656 49.877213 
L 23.539015 74.207343 
L 23.593374 91.658481 
L 23.647733 81.15156 
L 23.756451 62.975503 
L 23.81081 111.624974 
L 23.865169 90.377768 
L 23.919527 98.160094 
L 23.973886 50.142063 
L 24.028245 81.178349 
L 24.082604 72.664199 
L 24.136963 109.008831 
L 24.245681 108.739193 
L 24.30004 57.331736 
L 24.354399 71.262115 
L 24.517476 101.837614 
L 24.571835 48.148466 
L 24.626194 62.399393 
L 24.680552 76.656984 
L 24.734911 70.656284 
L 24.952347 94.082372 
L 25.006706 75.071851 
L 25.061065 87.612862 
L 25.115424 86.783922 
L 25.169783 106.107375 
L 25.278501 68.182061 
L 25.33286 76.949329 
L 25.387219 122.39841 
L 25.441577 106.323457 
L 25.495936 77.064873 
L 25.550295 82.757865 
L 25.604654 88.3413 
L 25.659013 67.546432 
L 25.713372 80.116222 
L 25.767731 99.295429 
L 25.82209 75.885108 
L 25.876449 96.159174 
L 26.039526 76.657833 
L 26.093885 99.157378 
L 26.148244 65.344373 
L 26.202602 104.88264 
L 26.256961 97.020085 
L 26.365679 89.731177 
L 26.420038 91.405173 
L 26.528756 74.916194 
L 26.583115 88.149313 
L 26.637474 77.155602 
L 26.691833 65.100323 
L 26.746192 69.879375 
L 26.800551 109.412109 
L 26.85491 96.694442 
L 27.017986 63.532772 
L 27.072345 97.228912 
L 27.126704 76.195832 
L 27.181063 83.045474 
L 27.235422 70.441796 
L 27.398499 101.444769 
L 27.452858 66.02917 
L 27.507217 92.84446 
L 27.670294 71.556956 
L 27.724652 100.07031 
L 27.779011 96.342517 
L 27.83337 93.150591 
L 27.887729 76.62525 
L 28.050806 119.04202 
L 28.213883 58.317217 
L 28.268242 80.397889 
L 28.322601 66.029926 
L 28.431319 90.620602 
L 28.485677 87.400376 
L 28.540036 64.64967 
L 28.594395 65.168889 
L 28.648754 88.8165 
L 28.703113 77.386161 
L 28.811831 67.845196 
L 28.86619 96.923165 
L 28.920549 81.743493 
L 28.974908 61.494243 
L 29.029267 62.265498 
L 29.192344 97.41943 
L 29.246702 92.972842 
L 29.35542 61.27315 
L 29.518497 110.546043 
L 29.572856 75.407027 
L 29.627215 97.743797 
L 29.681574 102.058246 
L 29.735933 71.065372 
L 29.790292 93.342126 
L 30.007727 65.128008 
L 30.062086 106.550459 
L 30.116445 83.935454 
L 30.279522 55.623732 
L 30.442599 95.908817 
L 30.605676 69.949625 
L 30.660035 78.270789 
L 30.768752 59.584419 
L 30.823111 85.605036 
L 30.87747 18.95302 
L 30.986188 105.073895 
L 31.149265 81.91305 
L 31.203624 79.164932 
L 31.257983 64.69952 
L 31.312342 88.612065 
L 31.366701 76.62272 
L 31.42106 69.25563 
L 31.475419 74.534595 
L 31.584136 81.94497 
L 31.638495 116.886175 
L 31.692854 91.409962 
L 31.747213 99.542989 
L 31.91029 61.651102 
L 31.964649 96.879806 
L 32.073367 96.059243 
L 32.127726 108.052164 
L 32.236444 92.069246 
L 32.345161 123.566402 
L 32.508238 68.832053 
L 32.562597 75.974129 
L 32.616956 61.253935 
L 32.671315 100.229716 
L 32.725674 68.048596 
L 32.834392 111.543115 
L 32.997469 66.273011 
L 33.051828 97.343664 
L 33.106186 91.012767 
L 33.160545 92.224588 
L 33.214904 68.865346 
L 33.269263 83.114023 
L 33.323622 70.441791 
L 33.377981 79.082451 
L 33.486699 106.138131 
L 33.541058 73.007546 
L 33.595417 80.111467 
L 33.649776 79.370011 
L 33.758494 106.631086 
L 33.812853 58.363695 
L 33.867211 91.962825 
L 33.92157 107.515464 
L 34.030288 63.284909 
L 34.084647 73.141028 
L 34.139006 106.409211 
L 34.193365 78.362963 
L 34.247724 68.702736 
L 34.302083 104.95344 
L 34.356442 66.284045 
L 34.410801 75.0395 
L 34.46516 99.077871 
L 34.519519 81.657052 
L 34.682595 104.082703 
L 34.736954 47.407682 
L 34.791313 70.866297 
L 34.95439 95.168408 
L 35.008749 95.162124 
L 35.063108 51.871084 
L 35.117467 98.671155 
L 35.171826 70.227751 
L 35.280544 119.492535 
L 35.389261 50.306245 
L 35.552338 108.10486 
L 35.769774 71.979254 
L 35.824133 61.898381 
L 35.878492 112.386986 
L 35.932851 109.782743 
L 36.204645 47.267926 
L 36.313363 90.967498 
L 36.367722 61.40848 
L 36.47644 61.755489 
L 36.585158 109.478315 
L 36.639517 107.967348 
L 36.693876 89.54849 
L 36.748235 116.679399 
L 36.802594 74.554524 
L 36.856953 99.650695 
L 36.911311 95.199961 
L 36.96567 102.166096 
L 37.020029 77.275158 
L 37.074388 108.411374 
L 37.128747 92.747807 
L 37.183106 61.830232 
L 37.237465 83.052776 
L 37.346183 99.325772 
L 37.400542 85.604857 
L 37.454901 108.211759 
L 37.50926 99.521268 
L 37.617978 72.336973 
L 37.672336 83.539489 
L 37.726695 101.150909 
L 37.781054 70.99555 
L 37.835413 96.177493 
L 37.944131 70.555501 
L 37.99849 72.228316 
L 38.052849 105.032371 
L 38.107208 90.552634 
L 38.161567 92.649825 
L 38.215926 75.881703 
L 38.324644 96.647139 
L 38.48772 54.258559 
L 38.542079 64.810493 
L 38.596438 112.552701 
L 38.650797 87.452045 
L 38.705156 89.351321 
L 38.868233 61.840526 
L 38.922592 78.668524 
L 38.976951 64.43135 
L 39.085669 81.105385 
L 39.140028 64.877851 
L 39.194386 70.191747 
L 39.248745 108.437592 
L 39.303104 73.449418 
L 39.411822 97.594421 
L 39.466181 77.067224 
L 39.52054 96.841987 
L 39.574899 107.164974 
L 39.629258 61.531662 
L 39.683617 74.423457 
L 39.792335 65.127155 
L 39.846694 90.92217 
L 39.901053 67.627851 
L 40.118488 86.194903 
L 40.172847 78.94627 
L 40.227206 82.92692 
L 40.281565 85.167701 
L 40.335924 59.36472 
L 40.499001 103.637326 
L 40.607719 81.121944 
L 40.662078 94.753856 
L 40.825154 67.048529 
L 40.933872 99.461778 
L 41.04259 86.863196 
L 41.151308 108.462925 
L 41.314385 63.141251 
L 41.423103 82.230207 
L 41.586179 105.771035 
L 41.640538 74.877451 
L 41.694897 82.951875 
L 41.749256 93.55714 
L 41.803615 87.943315 
L 41.912333 94.832545 
L 42.129769 66.066138 
L 42.184128 93.123532 
L 42.238486 57.613829 
L 42.292845 98.342349 
L 42.347204 53.073365 
L 42.401563 89.875338 
L 42.455922 71.889708 
L 42.510281 119.549377 
L 42.56464 99.060842 
L 42.618999 68.397044 
L 42.727717 118.513831 
L 42.836435 81.344383 
L 42.890794 99.476643 
L 42.945153 64.862875 
L 42.999511 106.715424 
L 43.05387 84.495355 
L 43.108229 73.465882 
L 43.216947 124.141475 
L 43.271306 62.933229 
L 43.325665 89.421445 
L 43.380024 96.878365 
L 43.543101 43.40391 
L 43.706178 108.552578 
L 43.869254 85.672495 
L 43.923613 100.806937 
L 43.977972 92.211079 
L 44.032331 68.510949 
L 44.08669 97.652182 
L 44.141049 58.749796 
L 44.249767 59.189305 
L 44.412844 93.645477 
L 44.467203 73.192875 
L 44.521561 85.280447 
L 44.684638 67.493676 
L 44.847715 84.813844 
L 44.956433 79.241019 
L 45.065151 97.541093 
L 45.11951 70.998811 
L 45.173869 85.126645 
L 45.228228 73.188949 
L 45.336945 94.178115 
L 45.554381 16.363636 
L 45.60874 91.964911 
L 45.663099 71.466327 
L 45.826176 95.000464 
L 45.880535 84.253867 
L 45.934894 98.321831 
L 45.989253 62.82586 
L 46.043611 73.68503 
L 46.152329 99.713305 
L 46.206688 91.77464 
L 46.369765 66.089041 
L 46.424124 90.04015 
L 46.478483 69.342155 
L 46.532842 70.059608 
L 46.64156 102.852927 
L 46.695919 90.823831 
L 46.858995 74.183511 
L 46.967713 115.981473 
L 47.022072 90.322549 
L 47.076431 94.53288 
L 47.13079 92.482592 
L 47.239508 48.629988 
L 47.293867 93.327093 
L 47.348226 82.801844 
L 47.402585 82.624761 
L 47.456944 62.194532 
L 47.62002 100.583417 
L 47.674379 65.335164 
L 47.728738 68.261253 
L 47.837456 104.109343 
L 47.891815 81.210539 
L 47.946174 96.221 
L 48.000533 86.060353 
L 48.054892 93.544424 
L 48.109251 88.980716 
L 48.16361 90.974013 
L 48.217969 103.869519 
L 48.326687 78.25181 
L 48.381045 98.290134 
L 48.489763 68.593096 
L 48.598481 84.71481 
L 48.65284 70.841529 
L 48.707199 104.455033 
L 48.761558 95.533127 
L 48.870276 76.367353 
L 48.924635 97.765898 
L 49.087712 69.775837 
L 49.196429 102.590429 
L 49.250788 72.399818 
L 49.305147 97.510175 
L 49.413865 59.724392 
L 49.468224 103.746518 
L 49.522583 86.440677 
L 49.576942 99.67428 
L 49.68566 65.561851 
L 49.740019 74.935625 
L 49.903095 109.366554 
L 49.957454 55.172008 
L 50.011813 81.578131 
L 50.066172 92.725709 
L 50.120531 84.379824 
L 50.229249 65.646023 
L 50.283608 93.302635 
L 50.337967 79.82096 
L 50.392326 86.773982 
L 50.446685 73.09989 
L 50.501044 85.203185 
L 50.609762 76.645148 
L 50.66412 80.654708 
L 50.718479 86.777133 
L 50.772838 56.36433 
L 50.827197 87.476094 
L 50.881556 77.368327 
L 51.044633 104.665481 
L 51.098992 75.422099 
L 51.153351 87.574861 
L 51.20771 93.984301 
L 51.262069 84.048623 
L 51.370787 98.334502 
L 51.425145 66.688245 
L 51.479504 74.492204 
L 51.588222 85.152767 
L 51.642581 120.776286 
L 51.69694 58.1206 
L 51.751299 70.682154 
L 51.860017 80.898002 
L 51.968735 64.353066 
L 52.023094 65.621761 
L 52.18617 97.827394 
L 52.294888 68.732195 
L 52.349247 83.098733 
L 52.457965 90.398418 
L 52.512324 77.153781 
L 52.566683 77.445939 
L 52.72976 91.101157 
L 52.838478 71.658785 
L 52.947195 88.539269 
L 53.001554 74.072342 
L 53.055913 96.428239 
L 53.110272 76.794017 
L 53.164631 58.38234 
L 53.21899 65.559843 
L 53.273349 64.317113 
L 53.327708 88.521912 
L 53.382067 68.983692 
L 53.436426 62.287894 
L 53.490785 101.463494 
L 53.545144 84.610395 
L 53.599503 83.691967 
L 53.653862 61.924323 
L 53.70822 73.94156 
L 53.816938 82.190894 
L 53.871297 75.358577 
L 53.980015 108.512907 
L 54.034374 59.687146 
L 54.088733 75.983806 
L 54.143092 89.027124 
L 54.197451 84.964496 
L 54.25181 65.440968 
L 54.306169 68.193147 
L 54.414887 96.074166 
L 54.469245 72.015142 
L 54.523604 92.909814 
L 54.577963 77.926195 
L 54.632322 104.51488 
L 54.686681 66.63395 
L 54.74104 101.711203 
L 54.795399 107.46968 
L 54.849758 80.604469 
L 54.904117 92.602953 
L 54.958476 96.135989 
L 55.012835 63.22731 
L 55.067194 86.325549 
L 55.121553 84.467205 
L 55.175912 110.094355 
L 55.23027 90.102303 
L 55.393347 78.932075 
L 55.447706 71.169348 
L 55.502065 96.788805 
L 55.556424 71.003015 
L 55.610783 75.768533 
L 55.665142 67.296764 
L 55.77386 92.323443 
L 55.828219 62.065931 
L 55.882578 75.296001 
L 55.936937 82.800061 
L 55.991295 73.745865 
L 56.045654 123.620407 
L 56.100013 95.533762 
L 56.154372 71.47346 
L 56.208731 77.695666 
L 56.26309 90.655141 
L 56.317449 88.336691 
L 56.426167 69.576792 
L 56.589244 96.191207 
L 56.643603 89.160889 
L 56.697962 105.189153 
L 56.75232 64.364989 
L 56.806679 87.783541 
L 56.861038 84.143069 
L 56.915397 100.177313 
L 56.969756 89.209775 
L 57.078474 41.060462 
L 57.132833 73.010015 
L 57.187192 97.234652 
L 57.241551 87.534206 
L 57.350269 65.351686 
L 57.404628 123.588647 
L 57.458987 115.810813 
L 57.513345 87.604422 
L 57.622063 88.76753 
L 57.730781 48.165272 
L 57.893858 105.421576 
L 57.948217 75.153344 
L 58.002576 81.619474 
L 58.056935 81.431204 
L 58.111294 78.048454 
L 58.165653 109.10919 
L 58.328729 72.047848 
L 58.383088 71.834812 
L 58.437447 39.559098 
L 58.491806 71.462537 
L 58.546165 75.753479 
L 58.709242 97.323089 
L 58.81796 112.033699 
L 58.872319 75.444008 
L 58.926678 89.233711 
L 58.981037 91.306099 
L 59.035395 79.908346 
L 59.089754 94.643035 
L 59.144113 92.578092 
L 59.198472 80.412767 
L 59.252831 88.689292 
L 59.361549 116.683189 
L 59.415908 75.958353 
L 59.470267 97.22613 
L 59.578985 97.968726 
L 59.633344 62.6085 
L 59.687703 82.891151 
L 59.742062 72.163688 
L 59.79642 58.43442 
L 59.905138 88.203494 
L 59.959497 66.61606 
L 60.013856 70.928381 
L 60.176933 94.731816 
L 60.231292 94.654437 
L 60.394369 74.152457 
L 60.448728 91.194929 
L 60.503087 74.94425 
L 60.557445 69.651768 
L 60.720522 100.847819 
L 60.774881 100.804842 
L 60.82924 74.482301 
L 60.883599 87.857131 
L 61.046676 67.403552 
L 61.101035 69.533443 
L 61.209753 96.504043 
L 61.372829 75.21431 
L 61.481547 64.869736 
L 61.644624 92.904796 
L 61.698983 89.067448 
L 61.807701 113.589578 
L 61.970778 63.698147 
L 62.025137 103.503063 
L 62.079495 93.285388 
L 62.133854 95.91319 
L 62.188213 68.462794 
L 62.242572 104.043054 
L 62.296931 94.102239 
L 62.35129 75.651384 
L 62.405649 110.266144 
L 62.460008 77.913408 
L 62.514367 64.100664 
L 62.623085 109.217912 
L 62.677444 101.240373 
L 62.84052 64.922744 
L 62.894879 94.859242 
L 63.112315 27.153398 
L 63.221033 101.198643 
L 63.275392 64.877489 
L 63.329751 66.165673 
L 63.492828 68.450726 
L 63.547187 96.03238 
L 63.601545 73.237678 
L 63.764622 101.58593 
L 63.87334 57.234799 
L 63.927699 57.265948 
L 63.982058 62.935628 
L 64.036417 94.797897 
L 64.090776 84.105325 
L 64.145135 82.056881 
L 64.199494 84.732952 
L 64.253853 93.853852 
L 64.308212 67.026011 
L 64.362571 98.545134 
L 64.416929 78.293888 
L 64.471288 58.252057 
L 64.525647 61.852548 
L 64.580006 107.188796 
L 64.634365 81.473583 
L 64.743083 110.438571 
L 64.797442 97.901236 
L 64.851801 102.543563 
L 64.90616 101.386005 
L 65.014878 83.151467 
L 65.069237 73.668733 
L 65.177954 109.461386 
L 65.286672 84.436105 
L 65.341031 90.35811 
L 65.449749 65.403113 
L 65.558467 69.878227 
L 65.775903 107.218325 
L 65.884621 82.486133 
L 66.047697 109.441463 
L 66.156415 76.777532 
L 66.210774 82.717014 
L 66.265133 89.742785 
L 66.319492 76.435385 
L 66.373851 106.076003 
L 66.42821 80.459575 
L 66.482569 75.001029 
L 66.536928 84.327176 
L 66.591287 70.698134 
L 66.645646 94.394391 
L 66.700004 80.646655 
L 66.808722 98.97254 
L 66.863081 97.470739 
L 67.026158 80.52583 
L 67.080517 104.385126 
L 67.134876 66.705737 
L 67.189235 124.526162 
L 67.243594 76.227343 
L 67.297953 99.069918 
L 67.352312 82.230306 
L 67.406671 88.32918 
L 67.461029 86.629823 
L 67.515388 83.239232 
L 67.569747 91.376393 
L 67.624106 82.304026 
L 67.678465 100.866311 
L 67.732824 92.979946 
L 67.841542 75.572921 
L 67.95026 81.793282 
L 68.004619 97.30196 
L 68.058978 88.494396 
L 68.167696 78.436594 
L 68.276413 116.043121 
L 68.43949 74.476918 
L 68.493849 94.205419 
L 68.548208 67.722178 
L 68.602567 85.417618 
L 68.765644 66.939407 
L 68.820003 81.810319 
L 68.874362 62.860425 
L 68.928721 74.999501 
L 68.983079 80.129794 
L 69.037438 115.505355 
L 69.091797 85.13389 
L 69.200515 80.826061 
L 69.254874 84.285405 
L 69.309233 106.356796 
L 69.417951 80.063765 
L 69.47231 81.199149 
L 69.526669 92.072532 
L 69.581028 76.742777 
L 69.635387 103.559877 
L 69.689746 56.402329 
L 69.744104 94.482219 
L 69.907181 67.825767 
L 70.015899 103.946713 
L 70.070258 67.495847 
L 70.124617 69.02562 
L 70.178976 99.536234 
L 70.287694 99.253557 
L 70.342053 77.607028 
L 70.396412 100.454023 
L 70.450771 77.394204 
L 70.505129 82.866889 
L 70.613847 53.388046 
L 70.668206 100.528238 
L 70.722565 100.337328 
L 70.776924 96.68815 
L 70.831283 63.219544 
L 70.885642 80.9885 
L 71.048719 101.041978 
L 71.157437 72.252877 
L 71.211796 80.274258 
L 71.266154 103.172594 
L 71.320513 77.171301 
L 71.374872 97.160448 
L 71.537949 62.918724 
L 71.592308 75.927434 
L 71.755385 102.496716 
L 71.809744 76.714171 
L 71.864103 83.827135 
L 71.918462 112.20827 
L 71.972821 83.041426 
L 72.027179 95.372072 
L 72.081538 88.33724 
L 72.135897 78.133454 
L 72.190256 105.718332 
L 72.244615 93.50282 
L 72.298974 54.684384 
L 72.353333 94.489858 
L 72.407692 107.985927 
L 72.570769 65.603996 
L 72.733846 117.405083 
L 72.788204 72.985502 
L 72.842563 97.600735 
L 73.00564 73.944493 
L 73.059999 76.28485 
L 73.114358 87.14073 
L 73.168717 86.981936 
L 73.223076 74.39961 
L 73.277435 82.366839 
L 73.386153 70.487321 
L 73.440512 94.247422 
L 73.494871 66.964312 
L 73.549229 78.515963 
L 73.603588 93.896714 
L 73.657947 70.865886 
L 73.712306 88.702869 
L 73.766665 88.311486 
L 73.821024 82.915355 
L 73.875383 85.073779 
L 73.929742 94.686426 
L 73.984101 87.49849 
L 74.03846 60.86707 
L 74.092819 84.414565 
L 74.147178 95.701763 
L 74.310254 43.085717 
L 74.364613 97.257908 
L 74.418972 68.693052 
L 74.473331 64.259362 
L 74.636408 89.006871 
L 74.690767 85.466052 
L 74.799485 72.111899 
L 74.853844 90.874964 
L 74.908203 80.696492 
L 74.962562 85.924697 
L 75.016921 59.88702 
L 75.125638 94.758988 
L 75.179997 80.947949 
L 75.234356 110.498745 
L 75.288715 62.287381 
L 75.343074 95.218307 
L 75.397433 82.609851 
L 75.451792 102.119905 
L 75.506151 90.840083 
L 75.56051 53.800873 
L 75.614869 60.265985 
L 75.669228 108.390468 
L 75.723587 72.603364 
L 75.777946 87.673427 
L 75.832304 63.638648 
L 75.886663 88.326459 
L 75.941022 88.418513 
L 75.995381 83.441745 
L 76.04974 107.151347 
L 76.104099 76.133466 
L 76.158458 106.627017 
L 76.267176 68.685572 
L 76.321535 71.174577 
L 76.375894 108.97686 
L 76.430253 89.192428 
L 76.484612 101.400921 
L 76.538971 72.308316 
L 76.593329 93.414372 
L 76.647688 93.780564 
L 76.702047 92.851913 
L 76.756406 88.014335 
L 76.810765 94.296027 
L 76.973842 63.595577 
L 77.191278 108.634301 
L 77.299996 71.952054 
L 77.354354 102.103907 
L 77.517431 62.906455 
L 77.626149 110.291817 
L 77.789226 75.113784 
L 77.843585 79.043541 
L 77.897944 93.895871 
L 77.952303 91.461533 
L 78.006662 75.873528 
L 78.061021 76.035129 
L 78.115379 86.845963 
L 78.169738 82.743928 
L 78.224097 81.776201 
L 78.332815 105.834007 
L 78.387174 70.457264 
L 78.441533 75.702504 
L 78.495892 105.175042 
L 78.550251 58.592273 
L 78.60461 101.330858 
L 78.658969 73.066992 
L 78.713328 83.793042 
L 78.767687 84.34756 
L 78.876404 94.083857 
L 79.09384 73.632125 
L 79.148199 97.301463 
L 79.202558 97.298396 
L 79.256917 77.079788 
L 79.311276 80.619069 
L 79.365635 107.741442 
L 79.419994 79.217883 
L 79.474353 106.994862 
L 79.528712 98.754337 
L 79.691788 56.606997 
L 79.746147 90.652551 
L 79.800506 77.367004 
L 79.963583 94.179812 
L 80.017942 84.724682 
L 80.072301 95.323765 
L 80.235378 54.003843 
L 80.289737 56.818797 
L 80.398455 116.02675 
L 80.507172 73.460504 
L 80.61589 117.277566 
L 80.670249 87.301238 
L 80.724608 103.480118 
L 80.833326 90.570886 
L 80.887685 103.228652 
L 80.942044 96.463679 
L 80.996403 66.043082 
L 81.050762 75.843115 
L 81.105121 91.234059 
L 81.15948 76.988555 
L 81.213838 85.085162 
L 81.268197 77.691607 
L 81.485633 98.98922 
L 81.539992 70.32774 
L 81.594351 72.993125 
L 81.64871 105.140477 
L 81.703069 99.195988 
L 81.757428 96.03698 
L 81.920505 68.200642 
L 82.029222 108.773317 
L 82.13794 67.802565 
L 82.192299 90.620394 
L 82.246658 64.351226 
L 82.301017 75.060676 
L 82.355376 83.458382 
L 82.409735 123.119091 
L 82.464094 92.456433 
L 82.518453 110.676333 
L 82.572812 94.030247 
L 82.627171 96.489166 
L 82.735888 70.137756 
L 82.844606 97.507663 
L 82.898965 72.050449 
L 82.953324 76.79516 
L 83.007683 91.63337 
L 83.17076 54.851666 
L 83.225119 97.532007 
L 83.279478 78.103199 
L 83.388196 89.569916 
L 83.442555 77.133832 
L 83.496913 102.17801 
L 83.551272 100.777492 
L 83.605631 71.489296 
L 83.65999 103.969152 
L 83.714349 89.980711 
L 83.768708 57.507523 
L 83.823067 84.019321 
L 83.931785 78.6607 
L 83.986144 94.681812 
L 84.040503 87.07996 
L 84.094862 69.071038 
L 84.20358 102.832573 
L 84.257938 75.89244 
L 84.312297 82.279704 
L 84.366656 96.806929 
L 84.421015 58.878622 
L 84.475374 114.556417 
L 84.529733 63.654852 
L 84.638451 98.709355 
L 84.69281 92.793371 
L 84.747169 100.471802 
L 84.855887 66.49793 
L 84.910246 96.843486 
L 84.964605 91.354072 
L 85.127681 79.936794 
L 85.18204 108.865036 
L 85.236399 80.953365 
L 85.345117 104.574847 
L 85.562553 67.005387 
L 85.616912 74.868192 
L 85.72563 101.051647 
L 85.779988 64.630237 
L 85.834347 103.759838 
L 85.888706 94.235899 
L 86.051783 46.595222 
L 86.160501 95.940428 
L 86.21486 92.082848 
L 86.269219 64.314634 
L 86.323578 104.800145 
L 86.377937 86.887975 
L 86.432296 86.096763 
L 86.486655 95.474223 
L 86.595372 65.883113 
L 86.70409 96.331346 
L 86.758449 46.40279 
L 86.812808 80.872297 
L 86.867167 113.886183 
L 86.921526 103.273082 
L 87.030244 64.301085 
L 87.084603 75.55138 
L 87.138962 83.029854 
L 87.193321 69.822132 
L 87.24768 71.919427 
L 87.465115 112.349621 
L 87.628192 78.283674 
L 87.682551 105.283422 
L 87.73691 88.552297 
L 87.791269 94.337377 
L 87.899987 56.929087 
L 87.954346 73.415601 
L 88.117422 114.742499 
L 88.171781 72.375348 
L 88.22614 87.116934 
L 88.280499 96.066266 
L 88.334858 74.721043 
L 88.497935 108.801822 
L 88.552294 66.473999 
L 88.606653 101.085361 
L 88.661012 87.060914 
L 88.715371 106.569701 
L 88.76973 93.851874 
L 88.824088 80.060431 
L 88.932806 114.676294 
L 88.987165 65.899383 
L 89.041524 67.268436 
L 89.204601 98.299084 
L 89.367678 58.712235 
L 89.422037 86.857273 
L 89.476396 51.383988 
L 89.530755 69.261324 
L 89.585113 74.146266 
L 89.639472 71.902547 
L 89.693831 67.409605 
L 89.802549 96.444449 
L 89.856908 50.865282 
L 89.911267 73.319849 
L 89.965626 68.115143 
L 90.019985 95.434383 
L 90.074344 79.881504 
L 90.183062 94.868387 
L 90.29178 61.46586 
L 90.346138 81.834594 
L 90.509215 103.458505 
L 90.672292 68.633065 
L 90.835369 105.286623 
L 90.998446 76.687589 
L 91.052805 110.204248 
L 91.107163 91.302095 
L 91.161522 81.872666 
L 91.215881 93.400515 
L 91.27024 73.956335 
L 91.324599 90.346231 
L 91.378958 89.101123 
L 91.433317 91.991445 
L 91.487676 89.149415 
L 91.542035 45.901118 
L 91.596394 59.043757 
L 91.650753 114.011401 
L 91.705112 82.125321 
L 91.759471 95.622903 
L 91.81383 87.237789 
L 91.922547 93.572939 
L 91.976906 79.03497 
L 92.031265 98.22743 
L 92.139983 98.184853 
L 92.194342 99.093834 
L 92.248701 69.270214 
L 92.30306 100.246776 
L 92.357419 76.158504 
L 92.411778 77.888059 
L 92.466137 89.527741 
L 92.520496 89.089634 
L 92.574855 59.53036 
L 92.629213 61.860782 
L 92.79229 76.845588 
L 92.901008 61.600199 
L 92.955367 103.829743 
L 93.009726 86.483281 
L 93.064085 73.424338 
L 93.118444 104.88741 
L 93.172803 92.813466 
L 93.227162 74.722275 
L 93.281521 112.069681 
L 93.33588 93.000014 
L 93.444597 98.324453 
L 93.498956 64.318655 
L 93.553315 91.440993 
L 93.607674 93.338242 
L 93.662033 65.345967 
L 93.716392 91.645428 
L 93.770751 93.970049 
L 93.82511 92.14194 
L 93.879469 83.859285 
L 93.933828 100.570578 
L 93.988187 71.543423 
L 94.042546 91.192947 
L 94.096905 93.527026 
L 94.151263 89.838838 
L 94.205622 105.24432 
L 94.259981 100.485566 
L 94.31434 89.729138 
L 94.368699 56.380922 
L 94.423058 77.600123 
L 94.477417 95.015135 
L 94.531776 91.249129 
L 94.694853 77.447937 
L 94.749212 102.768652 
L 94.85793 63.807335 
L 94.912288 98.470324 
L 94.966647 95.52731 
L 95.021006 87.01783 
L 95.075365 96.96159 
L 95.129724 72.866522 
L 95.184083 111.879407 
L 95.238442 97.657335 
L 95.292801 104.798575 
L 95.34716 85.879726 
L 95.401519 97.017032 
L 95.455878 94.536867 
L 95.510237 54.405946 
L 95.564596 93.456466 
L 95.727672 101.448168 
L 95.782031 66.708347 
L 95.83639 126.999842 
L 95.890749 72.439154 
L 95.945108 73.695532 
L 95.999467 93.13854 
L 96.053826 81.255741 
L 96.108185 86.274958 
L 96.162544 82.178161 
L 96.216903 60.629791 
L 96.271262 94.490855 
L 96.325621 94.489129 
L 96.37998 85.556168 
L 96.434338 96.453682 
L 96.543056 65.550273 
L 96.597415 80.110362 
L 96.651774 99.086147 
L 96.706133 87.063828 
L 96.760492 64.926865 
L 96.814851 72.76124 
L 96.923569 90.597177 
L 96.977928 71.595827 
L 97.032287 89.914055 
L 97.141005 80.1048 
L 97.195364 97.790986 
L 97.35844 67.574239 
L 97.521517 108.447625 
L 97.575876 89.731378 
L 97.630235 91.189802 
L 97.684594 90.588016 
L 97.738953 98.041165 
L 97.793312 80.146644 
L 97.847671 113.494016 
L 97.90203 82.562397 
L 98.010747 113.212702 
L 98.065106 96.237356 
L 98.119465 81.333709 
L 98.173824 81.787255 
L 98.228183 98.4122 
L 98.282542 71.383967 
L 98.336901 91.205557 
L 98.445619 80.856602 
L 98.554337 118.337794 
L 98.608696 50.30045 
L 98.663055 101.394268 
L 98.717414 64.255854 
L 98.771772 68.29877 
L 98.826131 96.160106 
L 98.88049 93.004041 
L 99.043567 43.914855 
L 99.206644 86.282101 
L 99.261003 72.36277 
L 99.369721 107.163808 
L 99.478439 74.716393 
L 99.532797 78.104089 
L 99.587156 88.04077 
L 99.641515 71.338084 
L 99.804592 103.96976 
L 99.858951 110.221284 
L 99.91331 84.414948 
L 99.967669 101.763994 
L 100.022028 86.605038 
L 100.076387 104.095722 
L 100.130746 65.491656 
L 100.185105 68.18241 
L 100.239464 111.434549 
L 100.293822 78.114925 
L 100.348181 91.517087 
L 100.40254 50.791112 
L 100.456899 59.856386 
L 100.619976 84.042255 
L 100.783053 70.989409 
L 100.837412 116.58022 
L 101.000489 52.242014 
L 101.109206 89.938713 
L 101.217924 73.600886 
L 101.272283 75.815662 
L 101.326642 88.877947 
L 101.381001 77.43953 
L 101.43536 84.442718 
L 101.489719 60.648005 
L 101.544078 81.689515 
L 101.598437 75.874039 
L 101.652796 82.925987 
L 101.707155 74.337082 
L 101.761514 80.653336 
L 101.92459 99.90668 
L 101.978949 92.170785 
L 102.033308 107.780999 
L 102.087667 104.554187 
L 102.250744 74.770527 
L 102.305103 83.166138 
L 102.359462 94.766828 
L 102.413821 67.440666 
L 102.46818 84.275403 
L 102.522539 88.844773 
L 102.685615 70.950704 
L 102.848692 97.578088 
L 102.95741 73.740931 
L 103.011769 84.056066 
L 103.066128 82.055775 
L 103.120487 112.809471 
L 103.174846 90.18187 
L 103.229205 105.771691 
L 103.283564 66.796676 
L 103.337922 84.726543 
L 103.392281 95.600074 
L 103.500999 62.639528 
L 103.555358 93.266655 
L 103.609717 64.00533 
L 103.664076 88.024969 
L 103.718435 72.809697 
L 103.772794 62.061756 
L 103.827153 88.776796 
L 103.881512 80.991959 
L 104.044589 100.311447 
L 104.098947 64.52204 
L 104.153306 72.449596 
L 104.262024 101.643956 
L 104.316383 79.79054 
L 104.370742 89.17587 
L 104.47946 96.113674 
L 104.588178 73.938152 
L 104.642537 107.887755 
L 104.696896 81.206028 
L 104.859972 104.248427 
L 104.914331 98.756816 
L 104.96869 105.421428 
L 105.023049 68.257797 
L 105.077408 90.096103 
L 105.131767 80.697424 
L 105.186126 87.962237 
L 105.240485 86.528825 
L 105.349203 80.398295 
L 105.403562 85.626045 
L 105.620997 44.847163 
L 105.729715 90.86452 
L 105.784074 78.299814 
L 105.947151 103.205082 
L 106.00151 67.547089 
L 106.055869 105.713911 
L 106.110228 96.231618 
L 106.164587 95.589873 
L 106.273305 83.752809 
L 106.327664 99.716094 
L 106.382022 87.073218 
L 106.436381 79.703025 
L 106.49074 96.975732 
L 106.545099 49.72841 
L 106.599458 83.651169 
L 106.653817 83.095102 
L 106.816894 93.332825 
L 106.871253 85.516887 
L 106.925612 91.21671 
L 106.979971 107.682463 
L 107.143047 48.31096 
L 107.197406 81.225331 
L 107.251765 70.969847 
L 107.306124 69.133656 
L 107.360483 85.762376 
L 107.469201 65.782835 
L 107.52356 117.422534 
L 107.577919 78.144986 
L 107.632278 80.864754 
L 107.686637 95.856275 
L 107.740996 94.055641 
L 107.849714 76.551641 
L 107.904072 111.243935 
L 107.958431 71.072934 
L 108.01279 84.871132 
L 108.067149 74.034212 
L 108.121508 78.493519 
L 108.175867 89.438929 
L 108.230226 73.756981 
L 108.284585 89.343571 
L 108.338944 91.696275 
L 108.393303 98.877951 
L 108.447662 89.064257 
L 108.502021 96.177727 
L 108.55638 99.905736 
L 108.719456 69.045176 
L 108.773815 74.856768 
L 108.828174 111.212395 
L 108.882533 65.85227 
L 108.936892 72.985395 
L 108.991251 90.651091 
L 109.04561 73.050849 
L 109.099969 89.58014 
L 109.154328 78.952735 
L 109.208687 68.359414 
L 109.263046 102.765604 
L 109.317405 96.207753 
L 109.371764 81.927212 
L 109.426122 93.460166 
L 109.480481 83.828115 
L 109.53484 110.509332 
L 109.589199 66.552143 
L 109.643558 86.435246 
L 109.752276 41.728985 
L 109.806635 102.7419 
L 109.860994 88.940614 
L 110.024071 71.498011 
L 110.07843 104.360187 
L 110.132789 94.146384 
L 110.187147 101.57175 
L 110.241506 72.476699 
L 110.295865 90.580987 
L 110.350224 91.034786 
L 110.404583 96.264813 
L 110.458942 63.237767 
L 110.513301 90.347194 
L 110.56766 80.915146 
L 110.622019 92.403811 
L 110.676378 74.321144 
L 110.730737 80.931333 
L 110.785096 85.368693 
L 110.839455 99.295243 
L 110.893814 86.896883 
L 111.002531 101.015992 
L 111.165608 67.868531 
L 111.219967 80.877956 
L 111.274326 79.961405 
L 111.328685 80.264454 
L 111.491762 98.47367 
L 111.546121 66.810994 
L 111.60048 81.963205 
L 111.654839 70.339246 
L 111.709197 77.137357 
L 111.763556 117.52522 
L 111.817915 117.487349 
L 111.980992 47.871628 
L 112.035351 77.627444 
L 112.08971 72.991736 
L 112.198428 100.527943 
L 112.252787 66.245819 
L 112.307146 66.51499 
L 112.361505 117.202712 
L 112.415864 92.307235 
L 112.470222 89.659889 
L 112.524581 80.542435 
L 112.57894 88.247808 
L 112.633299 98.774218 
L 112.687658 94.853781 
L 112.742017 89.49456 
L 112.796376 101.415012 
L 112.850735 69.110654 
L 112.905094 99.903385 
L 112.959453 79.191481 
L 113.013812 104.23573 
L 113.12253 103.837025 
L 113.231248 62.891688 
L 113.285606 82.618924 
L 113.339965 101.452566 
L 113.503042 45.801188 
L 113.720478 107.852408 
L 113.829196 51.639543 
L 113.937914 62.990414 
L 113.992273 69.89552 
L 114.046631 63.022506 
L 114.10099 106.719259 
L 114.155349 79.132294 
L 114.264067 99.835367 
L 114.372785 63.238653 
L 114.427144 72.131408 
L 114.481503 80.089445 
L 114.535862 75.044831 
L 114.590221 71.399117 
L 114.64458 110.969793 
L 114.698939 58.633748 
L 114.753298 61.719915 
L 114.807656 95.522478 
L 114.862015 79.57555 
L 114.916374 82.516196 
L 114.970733 60.463503 
L 115.025092 104.764705 
L 115.079451 75.821665 
L 115.13381 75.247393 
L 115.188169 88.520581 
L 115.242528 72.737263 
L 115.296887 95.330451 
L 115.405605 94.943025 
L 115.459964 75.956639 
L 115.568681 100.177734 
L 115.731758 60.706164 
L 115.840476 101.787044 
L 115.894835 72.092809 
L 115.949194 84.982941 
L 116.003553 115.797992 
L 116.057912 86.126989 
L 116.112271 84.826828 
L 116.220989 72.611411 
L 116.329706 89.246384 
L 116.492783 47.825864 
L 116.601501 63.33087 
L 116.65586 95.191382 
L 116.710219 88.370238 
L 116.873296 57.431389 
L 117.090731 91.993651 
L 117.199449 63.282868 
L 117.253808 88.113014 
L 117.308167 87.206921 
L 117.471244 66.914013 
L 117.525603 78.323896 
L 117.579962 46.812184 
L 117.634321 72.914561 
L 117.68868 102.18257 
L 117.743039 54.989503 
L 117.797398 89.15359 
L 117.906115 68.136901 
L 117.960474 105.442591 
L 118.014833 74.592558 
L 118.069192 81.489326 
L 118.232269 68.161479 
L 118.504064 105.064134 
L 118.612781 57.454529 
L 118.66714 68.875139 
L 118.721499 71.422694 
L 118.884576 91.630612 
L 118.938935 90.482215 
L 118.993294 70.919599 
L 119.047653 71.592906 
L 119.102012 85.290887 
L 119.156371 84.834786 
L 119.21073 80.348893 
L 119.265089 107.97639 
L 119.319448 86.150543 
L 119.428165 62.88544 
L 119.482524 123.189195 
L 119.536883 85.948845 
L 119.591242 83.282619 
L 119.69996 90.000752 
L 119.754319 36.975398 
L 119.808678 52.823109 
L 119.863037 103.353187 
L 119.917396 88.596907 
L 119.971755 93.338656 
L 120.026114 79.563088 
L 120.080473 80.58685 
L 120.134831 99.310804 
L 120.18919 92.828387 
L 120.243549 81.152274 
L 120.406626 99.890938 
L 120.569703 70.035847 
L 120.624062 67.308348 
L 120.678421 71.614802 
L 120.73278 110.464888 
L 120.787139 94.476747 
L 120.841498 80.636981 
L 120.895856 115.636596 
L 121.004574 63.656173 
L 121.058933 92.256588 
L 121.113292 63.275223 
L 121.167651 81.978261 
L 121.22201 58.407862 
L 121.385087 102.011214 
L 121.548164 68.323403 
L 121.656881 93.687801 
L 121.71124 93.604031 
L 121.765599 100.196986 
L 121.819958 80.572761 
L 121.874317 103.910095 
L 121.928676 101.399801 
L 122.037394 81.154618 
L 122.091753 103.913358 
L 122.146112 86.397689 
L 122.25483 67.361903 
L 122.309189 96.056568 
L 122.363548 94.194392 
L 122.417906 60.556379 
L 122.472265 93.25002 
L 122.526624 90.045316 
L 122.580983 49.489236 
L 122.635342 82.704702 
L 122.74406 81.953241 
L 122.798419 91.99073 
L 122.852778 90.254283 
L 122.961496 72.096325 
L 123.015855 90.581568 
L 123.070214 67.132875 
L 123.124573 73.716199 
L 123.178931 101.298324 
L 123.23329 80.747515 
L 123.287649 72.69305 
L 123.342008 103.341677 
L 123.396367 89.575138 
L 123.668162 55.522171 
L 123.722521 69.866331 
L 123.77688 127.636364 
L 123.831239 110.711531 
L 123.885598 82.422905 
L 123.939956 86.033634 
L 123.994315 86.343185 
L 124.048674 73.451626 
L 124.103033 99.323829 
L 124.157392 87.639213 
L 124.211751 87.997581 
L 124.26611 41.867578 
L 124.320469 89.975966 
L 124.483546 70.141565 
L 124.646623 98.993004 
L 124.700981 67.266336 
L 124.75534 91.789548 
L 124.809699 88.125377 
L 124.864058 116.767417 
L 124.918417 103.348227 
L 125.081494 55.606907 
L 125.190212 91.372191 
L 125.244571 91.235411 
L 125.407648 62.194159 
L 125.625083 117.176309 
L 125.733801 74.560786 
L 125.78816 78.683947 
L 125.842519 92.98459 
L 125.896878 56.29498 
L 125.951237 85.482902 
L 126.005596 110.808405 
L 126.059955 94.917395 
L 126.168673 46.91829 
L 126.223031 71.606794 
L 126.27739 85.147612 
L 126.331749 72.424347 
L 126.440467 84.282074 
L 126.657903 66.820162 
L 126.712262 91.340858 
L 126.766621 83.369661 
L 126.82098 86.594328 
L 126.875339 102.719774 
L 126.929698 68.91681 
L 126.984056 76.66827 
L 127.038415 96.373434 
L 127.092774 64.752318 
L 127.147133 85.987332 
L 127.255851 61.829313 
L 127.31021 82.209585 
L 127.364569 55.861531 
L 127.473287 102.461945 
L 127.527646 71.730988 
L 127.582005 103.691372 
L 127.636364 82.407808 
L 127.636364 82.407808 
" clip-path="url(#p1400def77f)" style="fill: none; stroke: #a6d854; stroke-width: 1.5; stroke-linecap: square"/>
   </g>
   <g id="patch_3">
    <path d="M 10.8 133.2 
L 10.8 10.8 
" style="fill: none; stroke: #000000; stroke-width: 0.8; stroke-linejoin: miter; stroke-linecap: square"/>
   </g>
   <g id="patch_4">
    <path d="M 133.2 133.2 
L 133.2 10.8 
" style="fill: none; stroke: #000000; stroke-width: 0.8; stroke-linejoin: miter; stroke-linecap: square"/>
   </g>
   <g id="patch_5">
    <path d="M 10.8 133.2 
L 133.2 133.2 
" style="fill: none; stroke: #000000; stroke-width: 0.8; stroke-linejoin: miter; stroke-linecap: square"/>
   </g>
   <g id="patch_6">
    <path d="M 10.8 10.8 
L 133.2 10.8 
" style="fill: none; stroke: #000000; stroke-width: 0.8; stroke-linejoin: miter; stroke-linecap: square"/>
   </g>
  </g>
 </g>
 <defs>
  <clipPath id="p1400def77f">
   <rect x="10.8" y="10.8" width="122.4" height="122.4"/>
  </clipPath>
 </defs>
</svg>
