<?xml version="1.0" encoding="utf-8" standalone="no"?>
<!DOCTYPE svg PUBLIC "-//W3C//DTD SVG 1.1//EN"
  "http://www.w3.org/Graphics/SVG/1.1/DTD/svg11.dtd">
<svg xmlns:xlink="http://www.w3.org/1999/xlink" width="144pt" height="144pt" viewBox="0 0 144 144" xmlns="http://www.w3.org/2000/svg" version="1.1">
 <metadata>
  <rdf:RDF xmlns:dc="http://purl.org/dc/elements/1.1/" xmlns:cc="http://creativecommons.org/ns#" xmlns:rdf="http://www.w3.org/1999/02/22-rdf-syntax-ns#">
   <cc:Work>
    <dc:type rdf:resource="http://purl.org/dc/dcmitype/StillImage"/>
    <dc:date>2025-02-11T14:35:20.189175</dc:date>
    <dc:format>image/svg+xml</dc:format>
    <dc:creator>
     <cc:Agent>
      <dc:title>Matplotlib v3.8.0, https://matplotlib.org/</dc:title>
     </cc:Agent>
    </dc:creator>
   </cc:Work>
  </rdf:RDF>
 </metadata>
 <defs>
  <style type="text/css">*{stroke-linejoin: round; stroke-linecap: butt}</style>
 </defs>
 <g id="figure_1">
  <g id="patch_1">
   <path d="M 0 144 
L 144 144 
L 144 0 
L 0 0 
L 0 144 
z
" style="fill: none"/>
  </g>
  <g id="axes_1">
   <g id="patch_2">
    <path d="M 10.8 133.2 
L 133.2 133.2 
L 133.2 10.8 
L 10.8 10.8 
L 10.8 133.2 
z
" style="fill: none"/>
   </g>
   <g id="matplotlib.axis_1"/>
   <g id="matplotlib.axis_2"/>
   <g id="line2d_1">
    <path d="M 16.363636 70.208472 
L 16.526713 30.516817 
L 16.581072 87.852516 
L 16.635431 84.693261 
L 16.68979 48.254257 
L 16.744149 95.5093 
L 16.798508 57.104708 
L 16.852867 75.766555 
L 16.907226 47.008953 
L 16.961585 94.53596 
L 17.015944 57.529498 
L 17.070302 58.367385 
L 17.124661 76.80004 
L 17.17902 74.52355 
L 17.287738 16.363636 
L 17.342097 98.055102 
L 17.396456 59.597696 
L 17.668251 94.558153 
L 17.776969 45.077219 
L 17.885686 86.251233 
L 18.048763 43.603033 
L 18.157481 74.574901 
L 18.21184 46.564764 
L 18.266199 49.012431 
L 18.374917 64.645245 
L 18.429276 29.942882 
L 18.483635 65.556519 
L 18.537994 106.462732 
L 18.592352 85.131532 
L 18.70107 78.240896 
L 18.755429 53.511098 
L 18.809788 70.757982 
L 18.864147 80.593012 
L 18.918506 74.664637 
L 18.972865 37.110384 
L 19.027224 45.227533 
L 19.190301 60.414578 
L 19.24466 41.883438 
L 19.407736 84.218546 
L 19.516454 76.157366 
L 19.570813 57.61196 
L 19.625172 93.247667 
L 19.679531 49.629903 
L 19.73389 83.371488 
L 19.842608 43.002462 
L 19.896967 68.790278 
L 19.951326 68.112821 
L 20.005685 91.633809 
L 20.060044 86.526237 
L 20.22312 40.576896 
L 20.331838 82.623391 
L 20.386197 46.758475 
L 20.440556 58.733453 
L 20.494915 51.544809 
L 20.603633 83.665752 
L 20.657992 39.633654 
L 20.712351 51.621805 
L 20.929786 89.12535 
L 21.092863 33.948784 
L 21.201581 102.531645 
L 21.25594 58.121741 
L 21.310299 69.480774 
L 21.364658 86.931667 
L 21.419017 67.820755 
L 21.582094 104.64362 
L 21.690811 53.784271 
L 21.74517 87.275272 
L 21.853888 38.876619 
L 21.908247 40.647538 
L 21.962606 90.439608 
L 22.016965 63.024895 
L 22.125683 53.162237 
L 22.234401 87.375047 
L 22.28876 75.430877 
L 22.343119 59.033215 
L 22.397477 65.779408 
L 22.451836 82.386142 
L 22.506195 60.134303 
L 22.560554 62.534025 
L 22.614913 88.404708 
L 22.669272 33.753152 
L 22.723631 58.169805 
L 22.77799 83.270373 
L 22.832349 81.771828 
L 22.886708 27.40693 
L 22.941067 68.743481 
L 22.995426 40.894948 
L 23.049785 85.79368 
L 23.104144 69.462273 
L 23.26722 58.04689 
L 23.321579 93.161498 
L 23.375938 72.942372 
L 23.430297 39.164425 
L 23.484656 50.602061 
L 23.593374 50.358966 
L 23.647733 92.059539 
L 23.756451 29.927778 
L 23.81081 77.198555 
L 23.865169 74.914573 
L 24.028245 55.938998 
L 24.082604 61.173032 
L 24.191322 41.548766 
L 24.463117 76.409077 
L 24.626194 27.12967 
L 24.680552 77.212657 
L 24.734911 59.894654 
L 24.843629 86.941262 
L 24.952347 65.641686 
L 25.006706 78.035985 
L 25.061065 74.012287 
L 25.115424 67.65639 
L 25.169783 42.816342 
L 25.224142 64.35651 
L 25.278501 58.511061 
L 25.33286 94.05289 
L 25.387219 88.960097 
L 25.441577 50.904386 
L 25.495936 75.997631 
L 25.550295 80.029553 
L 25.604654 65.871837 
L 25.659013 77.814524 
L 25.876449 99.392058 
L 25.985167 44.273993 
L 26.039526 74.911836 
L 26.093885 55.003069 
L 26.148244 73.453379 
L 26.202602 34.945351 
L 26.256961 72.022491 
L 26.31132 64.669012 
L 26.365679 82.678201 
L 26.474397 42.544055 
L 26.528756 49.376804 
L 26.637474 35.863099 
L 26.746192 78.912306 
L 26.800551 28.850087 
L 26.85491 63.78413 
L 27.072345 99.552271 
L 27.126704 95.882999 
L 27.235422 39.517641 
L 27.34414 82.392234 
L 27.398499 52.075163 
L 27.452858 91.430036 
L 27.507217 70.068135 
L 27.561576 43.47155 
L 27.615935 61.581056 
L 27.670294 62.947723 
L 27.724652 68.553813 
L 27.779011 66.363057 
L 27.83337 65.96348 
L 27.887729 60.858969 
L 27.942088 73.742962 
L 27.996447 61.340109 
L 28.050806 54.500876 
L 28.213883 87.300866 
L 28.268242 86.913944 
L 28.322601 69.652092 
L 28.37696 95.193715 
L 28.431319 90.057738 
L 28.540036 76.055728 
L 28.703113 96.355173 
L 28.811831 43.046754 
L 28.86619 76.541148 
L 28.920549 72.549362 
L 28.974908 71.962697 
L 29.137985 59.12783 
L 29.192344 49.176741 
L 29.301061 68.001798 
L 29.35542 31.598137 
L 29.409779 81.323649 
L 29.464138 52.800377 
L 29.518497 59.010235 
L 29.572856 79.887749 
L 29.627215 44.631091 
L 29.681574 85.514971 
L 29.735933 41.350929 
L 29.790292 72.490088 
L 29.844651 52.103784 
L 29.89901 54.655647 
L 29.953369 57.198633 
L 30.007727 39.623014 
L 30.116445 107.238048 
L 30.170804 95.300852 
L 30.225163 63.275692 
L 30.279522 73.817331 
L 30.496958 49.682085 
L 30.605676 72.613897 
L 30.714394 46.404832 
L 30.823111 84.523802 
L 30.931829 46.572497 
L 31.040547 87.023966 
L 31.094906 47.106775 
L 31.149265 49.800596 
L 31.203624 60.570971 
L 31.257983 52.879603 
L 31.312342 60.088522 
L 31.366701 90.300595 
L 31.42106 78.649493 
L 31.529778 31.787571 
L 31.584136 55.023876 
L 31.638495 56.548361 
L 31.801572 99.288327 
L 31.855931 59.510506 
L 31.91029 61.305937 
L 31.964649 64.947699 
L 32.019008 60.889022 
L 32.073367 61.287414 
L 32.127726 74.973279 
L 32.182085 56.741253 
L 32.236444 61.169076 
L 32.290803 59.470459 
L 32.39952 84.684241 
L 32.562597 63.546061 
L 32.671315 51.675869 
L 32.725674 90.533912 
L 32.780033 63.687527 
L 32.888751 86.885719 
L 33.051828 44.462097 
L 33.214904 86.582453 
L 33.269263 49.207185 
L 33.323622 76.501261 
L 33.377981 72.47704 
L 33.43234 91.394537 
L 33.486699 77.350308 
L 33.649776 54.355521 
L 33.704135 61.436863 
L 33.758494 47.33709 
L 33.812853 60.588403 
L 33.867211 117.633649 
L 33.92157 60.252055 
L 33.975929 61.457156 
L 34.030288 45.041192 
L 34.084647 55.956544 
L 34.139006 66.799368 
L 34.193365 63.693298 
L 34.247724 54.56632 
L 34.410801 82.506777 
L 34.46516 32.45973 
L 34.519519 52.135122 
L 34.628236 75.701716 
L 34.682595 68.180424 
L 34.736954 79.170337 
L 34.791313 77.331766 
L 34.845672 23.148333 
L 34.900031 102.465632 
L 34.95439 73.956471 
L 35.008749 47.277835 
L 35.063108 92.574968 
L 35.117467 75.329024 
L 35.171826 55.237987 
L 35.226185 88.838866 
L 35.280544 58.402436 
L 35.334903 83.286818 
L 35.497979 36.852963 
L 35.552338 122.451069 
L 35.606697 67.747354 
L 35.769774 48.680717 
L 35.824133 76.646785 
L 35.878492 34.915328 
L 35.932851 50.538387 
L 35.98721 85.265799 
L 36.041569 57.183031 
L 36.095928 42.262827 
L 36.150286 102.031623 
L 36.204645 78.995139 
L 36.259004 71.991973 
L 36.313363 28.561216 
L 36.367722 54.402228 
L 36.422081 96.723203 
L 36.47644 86.099126 
L 36.585158 66.389481 
L 36.639517 72.128502 
L 36.693876 70.751922 
L 36.748235 37.340054 
L 36.802594 78.196316 
L 36.856953 48.81754 
L 36.911311 51.912956 
L 36.96567 84.275871 
L 37.020029 52.512996 
L 37.074388 68.375913 
L 37.128747 49.092901 
L 37.291824 77.98514 
L 37.346183 79.791774 
L 37.454901 55.953847 
L 37.617978 77.157086 
L 37.672336 74.084923 
L 37.726695 78.807719 
L 37.781054 77.473926 
L 37.99849 45.050483 
L 38.052849 73.123986 
L 38.107208 54.135671 
L 38.161567 62.412443 
L 38.215926 50.296804 
L 38.270285 55.21007 
L 38.324644 94.997492 
L 38.379003 81.038149 
L 38.433361 66.591725 
L 38.48772 101.682519 
L 38.542079 68.688875 
L 38.596438 65.910552 
L 38.650797 94.74164 
L 38.705156 54.212118 
L 38.759515 68.658949 
L 38.813874 93.282543 
L 38.922592 54.846303 
L 38.976951 83.848965 
L 39.085669 47.559516 
L 39.140028 78.195253 
L 39.194386 63.680212 
L 39.248745 57.864857 
L 39.411822 83.475396 
L 39.466181 46.081405 
L 39.52054 71.651909 
L 39.574899 52.331919 
L 39.629258 88.010675 
L 39.683617 76.075791 
L 39.792335 50.302797 
L 39.846694 59.607265 
L 39.901053 72.191241 
L 39.955411 54.248888 
L 40.00977 57.664533 
L 40.172847 104.260855 
L 40.335924 45.842117 
L 40.390283 85.391494 
L 40.444642 70.364888 
L 40.55336 86.289187 
L 40.607719 77.387484 
L 40.770795 43.400267 
L 40.825154 46.720084 
L 40.879513 46.068564 
L 40.933872 79.342626 
L 40.988231 69.600478 
L 41.096949 37.123492 
L 41.260026 65.73136 
L 41.314385 84.619801 
L 41.368744 82.295812 
L 41.477461 65.00071 
L 41.53182 68.949602 
L 41.640538 103.50487 
L 41.749256 66.828445 
L 41.803615 75.898116 
L 41.857974 73.583159 
L 41.912333 73.660032 
L 42.021051 83.2692 
L 42.07541 64.387984 
L 42.129769 67.386469 
L 42.184128 71.129288 
L 42.238486 63.093654 
L 42.292845 100.893012 
L 42.347204 71.643721 
L 42.401563 63.707989 
L 42.455922 88.274433 
L 42.510281 81.920932 
L 42.618999 67.678735 
L 42.673358 36.97517 
L 42.727717 53.051659 
L 42.890794 57.636953 
L 42.945153 51.087291 
L 42.999511 57.493224 
L 43.05387 64.814778 
L 43.108229 62.240531 
L 43.162588 54.600037 
L 43.216947 60.780123 
L 43.271306 94.665388 
L 43.380024 46.756667 
L 43.434383 69.244523 
L 43.488742 63.065646 
L 43.543101 62.806163 
L 43.651819 93.08146 
L 43.706178 45.901424 
L 43.760536 55.905219 
L 43.814895 83.660033 
L 43.869254 67.100416 
L 43.923613 82.167711 
L 43.977972 56.966282 
L 44.032331 113.314657 
L 44.08669 73.099245 
L 44.141049 53.934024 
L 44.195408 61.79378 
L 44.249767 58.344769 
L 44.304126 69.690657 
L 44.358485 55.276346 
L 44.412844 71.180931 
L 44.467203 70.075082 
L 44.521561 43.075528 
L 44.57592 73.561599 
L 44.630279 70.700573 
L 44.684638 17.255698 
L 44.738997 61.071931 
L 44.793356 89.941675 
L 44.847715 60.011824 
L 44.902074 51.561943 
L 44.956433 67.485313 
L 45.065151 25.813887 
L 45.282586 71.219881 
L 45.445663 43.768812 
L 45.60874 103.556615 
L 45.717458 50.341304 
L 45.771817 81.526996 
L 45.826176 38.094129 
L 45.880535 72.740225 
L 45.989253 42.056955 
L 46.043611 97.099007 
L 46.09797 86.538414 
L 46.152329 84.697949 
L 46.261047 51.346208 
L 46.315406 52.331562 
L 46.369765 66.613836 
L 46.424124 50.743206 
L 46.478483 60.811949 
L 46.64156 81.27279 
L 46.858995 45.037297 
L 46.913354 96.286489 
L 46.967713 74.726143 
L 47.022072 73.693509 
L 47.076431 75.727391 
L 47.13079 72.641942 
L 47.185149 53.113482 
L 47.293867 101.367226 
L 47.348226 56.150593 
L 47.402585 73.766116 
L 47.511303 62.856345 
L 47.565662 79.961727 
L 47.674379 41.833404 
L 47.783097 85.530532 
L 47.837456 72.455594 
L 47.891815 78.137071 
L 47.946174 57.369329 
L 48.000533 105.434205 
L 48.054892 76.104692 
L 48.109251 38.525692 
L 48.16361 99.010538 
L 48.217969 76.240961 
L 48.326687 57.377779 
L 48.381045 65.204901 
L 48.435404 86.464484 
L 48.489763 65.840753 
L 48.598481 71.757907 
L 48.65284 62.506065 
L 48.707199 78.789824 
L 48.761558 56.757667 
L 48.815917 74.20556 
L 48.870276 83.686377 
L 49.087712 42.610575 
L 49.14207 54.667564 
L 49.196429 39.697712 
L 49.305147 76.41705 
L 49.359506 40.408654 
L 49.413865 91.009078 
L 49.468224 75.07082 
L 49.576942 75.211492 
L 49.631301 70.164165 
L 49.68566 83.044839 
L 49.740019 59.215004 
L 49.794378 91.965682 
L 49.957454 46.990747 
L 50.011813 91.941122 
L 50.066172 55.664179 
L 50.17489 98.504765 
L 50.283608 64.212922 
L 50.337967 68.73707 
L 50.392326 84.200685 
L 50.555403 59.808612 
L 50.609762 55.959497 
L 50.772838 80.578029 
L 50.827197 93.008524 
L 50.935915 51.757855 
L 50.990274 77.261169 
L 51.044633 86.167081 
L 51.098992 68.450911 
L 51.153351 86.92804 
L 51.20771 85.224639 
L 51.262069 55.130992 
L 51.316428 70.32151 
L 51.370787 88.143687 
L 51.425145 25.56814 
L 51.479504 51.419747 
L 51.533863 63.88675 
L 51.588222 53.648923 
L 51.69694 25.613017 
L 51.751299 81.718977 
L 51.805658 63.73171 
L 51.968735 39.031364 
L 52.023094 78.015163 
L 52.077453 71.364487 
L 52.131812 65.92571 
L 52.18617 67.600019 
L 52.240529 71.054044 
L 52.294888 28.563188 
L 52.349247 81.42502 
L 52.403606 51.469109 
L 52.566683 77.00662 
L 52.621042 57.694743 
L 52.675401 63.889346 
L 52.72976 74.51006 
L 52.784119 67.371662 
L 52.838478 73.214961 
L 52.947195 58.295747 
L 53.055913 76.832911 
L 53.110272 55.438905 
L 53.164631 109.923464 
L 53.21899 78.694907 
L 53.273349 21.772803 
L 53.327708 75.468221 
L 53.436426 47.205705 
L 53.490785 55.363188 
L 53.599503 80.550121 
L 53.70822 58.683863 
L 53.816938 106.960865 
L 53.980015 64.447253 
L 54.034374 63.135077 
L 54.143092 41.100888 
L 54.197451 46.343625 
L 54.25181 106.742114 
L 54.306169 60.860542 
L 54.414887 45.924605 
L 54.469245 86.592224 
L 54.523604 54.766594 
L 54.577963 56.903667 
L 54.632322 47.644191 
L 54.686681 52.830132 
L 54.74104 87.234939 
L 54.849758 28.088695 
L 54.958476 87.010538 
L 55.012835 71.466813 
L 55.067194 82.916029 
L 55.175912 47.612677 
L 55.23027 56.685663 
L 55.284629 95.528968 
L 55.338988 59.085626 
L 55.393347 56.650597 
L 55.502065 78.474874 
L 55.556424 45.237718 
L 55.610783 63.970084 
L 55.665142 62.166377 
L 55.719501 25.714821 
L 55.77386 73.457007 
L 55.828219 68.092199 
L 55.882578 27.271193 
L 55.936937 82.026318 
L 55.991295 74.684012 
L 56.045654 75.995131 
L 56.100013 53.07267 
L 56.208731 89.57158 
L 56.26309 82.713134 
L 56.317449 72.76506 
L 56.371808 127.636364 
L 56.480526 38.196987 
L 56.534885 64.120117 
L 56.589244 48.549576 
L 56.697962 84.463962 
L 56.75232 84.34177 
L 56.806679 97.255299 
L 56.861038 86.884549 
L 56.915397 92.145971 
L 57.078474 45.746251 
L 57.241551 89.730377 
L 57.404628 53.909645 
L 57.458987 71.292914 
L 57.513345 41.019403 
L 57.567704 55.524071 
L 57.622063 77.623851 
L 57.676422 64.24917 
L 57.730781 63.873915 
L 57.78514 47.369196 
L 57.948217 69.901156 
L 58.002576 77.743341 
L 58.111294 36.249703 
L 58.27437 79.557038 
L 58.328729 58.77664 
L 58.383088 65.583695 
L 58.491806 86.087504 
L 58.600524 55.762694 
L 58.654883 67.177709 
L 58.763601 66.868734 
L 58.81796 73.740402 
L 58.872319 46.45298 
L 58.926678 61.606107 
L 58.981037 66.51093 
L 59.035395 64.180147 
L 59.089754 42.017552 
L 59.144113 75.100077 
L 59.198472 45.602388 
L 59.361549 86.300334 
L 59.524626 40.96755 
L 59.578985 47.110781 
L 59.633344 107.640795 
L 59.687703 70.234131 
L 59.742062 70.415455 
L 59.79642 60.226105 
L 59.850779 87.838749 
L 59.959497 49.953462 
L 60.013856 86.867018 
L 60.068215 73.302967 
L 60.122574 73.64791 
L 60.231292 58.183282 
L 60.34001 73.4297 
L 60.394369 59.245824 
L 60.448728 67.549815 
L 60.503087 89.237587 
L 60.557445 76.268016 
L 60.720522 59.893355 
L 60.774881 82.903369 
L 60.82924 35.977695 
L 60.883599 57.624211 
L 60.937958 92.282838 
L 60.992317 72.313238 
L 61.046676 78.22436 
L 61.101035 51.801666 
L 61.155394 53.160678 
L 61.209753 104.015098 
L 61.264112 53.128661 
L 61.481547 99.927005 
L 61.644624 41.145288 
L 61.753342 68.776081 
L 61.807701 56.507579 
L 61.86206 58.369675 
L 62.025137 79.512679 
L 62.133854 61.585198 
L 62.296931 84.440154 
L 62.35129 16.658839 
L 62.405649 65.368919 
L 62.460008 27.219351 
L 62.514367 47.750678 
L 62.786162 103.59049 
L 62.84052 77.342629 
L 62.894879 99.604272 
L 62.949238 98.1634 
L 63.003597 73.631972 
L 63.112315 74.599191 
L 63.166674 81.965137 
L 63.275392 40.458405 
L 63.329751 64.697652 
L 63.38411 40.647297 
L 63.438469 41.811092 
L 63.492828 79.201105 
L 63.547187 70.31296 
L 63.601545 31.110213 
L 63.655904 71.53066 
L 63.710263 56.053273 
L 63.764622 104.786565 
L 63.818981 43.011167 
L 63.87334 63.7953 
L 63.927699 63.902527 
L 63.982058 88.531857 
L 64.090776 41.053563 
L 64.145135 49.174615 
L 64.199494 86.89048 
L 64.253853 26.577081 
L 64.308212 63.222814 
L 64.362571 35.25145 
L 64.416929 78.642845 
L 64.471288 69.734798 
L 64.525647 44.373163 
L 64.580006 54.360593 
L 64.634365 55.682713 
L 64.688724 85.943411 
L 64.743083 65.730021 
L 64.797442 64.293232 
L 64.851801 55.764299 
L 64.90616 77.350887 
L 64.960519 73.993318 
L 65.069237 47.568501 
L 65.123596 62.431755 
L 65.177954 108.31358 
L 65.232313 86.323167 
L 65.341031 39.96194 
L 65.504108 73.824351 
L 65.558467 35.288777 
L 65.721544 102.888556 
L 65.775903 68.317141 
L 65.830262 90.821817 
L 65.884621 71.778692 
L 65.938979 106.921007 
L 65.993338 74.095945 
L 66.047697 34.787248 
L 66.102056 71.283392 
L 66.156415 80.079479 
L 66.265133 34.171501 
L 66.319492 42.399697 
L 66.42821 55.343513 
L 66.536928 39.501893 
L 66.591287 91.334619 
L 66.645646 57.051552 
L 66.700004 65.201539 
L 66.754363 48.100463 
L 66.808722 51.763776 
L 66.91744 91.412509 
L 66.971799 82.036976 
L 67.026158 80.128609 
L 67.189235 43.943138 
L 67.352312 87.463887 
L 67.406671 71.523579 
L 67.461029 49.58401 
L 67.515388 79.606597 
L 67.569747 49.56092 
L 67.624106 73.465632 
L 67.678465 69.061414 
L 67.732824 66.534372 
L 67.787183 57.912095 
L 67.895901 83.83872 
L 67.95026 38.743686 
L 68.004619 40.0019 
L 68.058978 77.141653 
L 68.167696 77.129233 
L 68.222054 71.622427 
L 68.276413 72.140994 
L 68.330772 82.565809 
L 68.385131 45.611889 
L 68.43949 64.923498 
L 68.493849 80.420241 
L 68.548208 71.818992 
L 68.602567 72.171524 
L 68.656926 71.170809 
L 68.765644 92.52454 
L 68.874362 57.994563 
L 68.928721 61.204675 
L 68.983079 77.038185 
L 69.037438 57.944465 
L 69.091797 82.87154 
L 69.200515 47.725158 
L 69.254874 98.582978 
L 69.309233 79.386271 
L 69.363592 38.025647 
L 69.417951 87.803035 
L 69.47231 53.511646 
L 69.526669 39.425519 
L 69.635387 79.985453 
L 69.744104 72.281162 
L 69.798463 25.76558 
L 69.96154 96.504681 
L 70.015899 44.041358 
L 70.070258 78.653731 
L 70.178976 47.852651 
L 70.233335 106.920642 
L 70.287694 84.584192 
L 70.342053 59.525345 
L 70.396412 74.68357 
L 70.450771 65.940623 
L 70.505129 73.809047 
L 70.559488 88.066254 
L 70.613847 85.108992 
L 70.668206 56.51416 
L 70.722565 73.734001 
L 70.776924 62.447002 
L 70.885642 83.024001 
L 70.940001 63.285814 
L 70.99436 81.459543 
L 71.048719 82.438631 
L 71.103078 78.403693 
L 71.157437 38.595769 
L 71.211796 63.495294 
L 71.266154 80.443424 
L 71.374872 45.30209 
L 71.429231 58.448234 
L 71.48359 74.092361 
L 71.592308 73.691871 
L 71.701026 52.328322 
L 71.864103 86.031182 
L 71.918462 41.642438 
L 71.972821 88.176689 
L 72.027179 32.349373 
L 72.081538 50.970523 
L 72.190256 50.682385 
L 72.244615 106.20435 
L 72.298974 98.02315 
L 72.353333 58.158089 
L 72.407692 58.674586 
L 72.51641 58.134319 
L 72.570769 75.208573 
L 72.733846 31.971302 
L 72.896922 52.405751 
L 72.951281 66.122938 
L 73.00564 65.712599 
L 73.059999 44.121258 
L 73.223076 95.793821 
L 73.277435 59.55504 
L 73.331794 63.717326 
L 73.386153 64.363075 
L 73.549229 83.390714 
L 73.603588 97.022401 
L 73.657947 84.260672 
L 73.766665 65.682626 
L 73.875383 88.18592 
L 73.929742 40.240299 
L 73.984101 60.837065 
L 74.03846 78.018111 
L 74.201537 53.594678 
L 74.255896 56.228265 
L 74.310254 30.627881 
L 74.473331 95.261255 
L 74.636408 44.173056 
L 74.690767 92.570669 
L 74.745126 52.148451 
L 74.853844 76.912448 
L 75.016921 35.691694 
L 75.071279 73.064904 
L 75.179997 72.372181 
L 75.288715 70.376284 
L 75.343074 57.042967 
L 75.506151 93.035635 
L 75.669228 30.841264 
L 75.777946 76.218883 
L 75.832304 38.929002 
L 75.886663 77.280003 
L 75.941022 85.83855 
L 76.04974 63.995476 
L 76.104099 78.189071 
L 76.267176 27.867226 
L 76.430253 77.190953 
L 76.484612 66.629585 
L 76.538971 31.331514 
L 76.647688 84.133291 
L 76.702047 79.364377 
L 76.756406 51.138714 
L 76.810765 61.992022 
L 76.865124 75.292564 
L 76.919483 62.066903 
L 76.973842 45.068655 
L 77.028201 62.74001 
L 77.08256 61.684004 
L 77.136919 86.943663 
L 77.191278 44.931191 
L 77.245637 91.52951 
L 77.299996 67.438085 
L 77.408713 75.212294 
L 77.463072 46.954626 
L 77.517431 47.057662 
L 77.680508 90.383946 
L 77.734867 83.825149 
L 77.843585 55.462677 
L 77.897944 85.844311 
L 77.952303 36.368196 
L 78.006662 68.101222 
L 78.061021 67.830564 
L 78.115379 98.801635 
L 78.278456 59.513479 
L 78.332815 43.23553 
L 78.387174 56.073884 
L 78.441533 51.112656 
L 78.550251 87.494289 
L 78.60461 41.880031 
L 78.658969 93.783627 
L 78.713328 55.221228 
L 78.767687 65.324683 
L 78.822046 96.540478 
L 78.876404 33.878177 
L 78.985122 35.13805 
L 79.039481 79.001182 
L 79.09384 66.242109 
L 79.148199 50.147916 
L 79.256917 73.608821 
L 79.419994 29.630963 
L 79.474353 71.983711 
L 79.528712 51.026105 
L 79.583071 36.867773 
L 79.637429 75.297438 
L 79.691788 35.674416 
L 79.746147 68.745999 
L 79.800506 47.813366 
L 79.854865 42.733633 
L 79.909224 72.16482 
L 79.963583 54.906131 
L 80.072301 44.521527 
L 80.12666 84.707543 
L 80.181019 46.299627 
L 80.289737 85.649352 
L 80.452813 37.673825 
L 80.507172 87.99065 
L 80.561531 69.717328 
L 80.670249 84.708706 
L 80.724608 56.288162 
L 80.833326 56.8529 
L 80.887685 52.776136 
L 80.942044 97.900898 
L 80.996403 62.485908 
L 81.15948 106.225064 
L 81.268197 34.909975 
L 81.322556 95.555956 
L 81.376915 75.919819 
L 81.703069 50.929351 
L 81.757428 67.30307 
L 81.811787 50.84519 
L 81.866146 53.735737 
L 81.920505 81.746482 
L 81.974863 39.996401 
L 82.029222 61.567073 
L 82.246658 94.523731 
L 82.355376 46.284702 
L 82.409735 49.700166 
L 82.464094 86.964226 
L 82.518453 74.764173 
L 82.572812 80.379764 
L 82.735888 37.787961 
L 82.790247 44.380013 
L 82.953324 99.920364 
L 83.116401 38.248481 
L 83.17076 99.64129 
L 83.225119 74.803935 
L 83.279478 88.216891 
L 83.333837 76.294304 
L 83.388196 70.541049 
L 83.442555 48.869981 
L 83.496913 60.14646 
L 83.551272 71.594039 
L 83.605631 40.708035 
L 83.65999 46.964813 
L 83.714349 75.922079 
L 83.768708 34.789377 
L 83.823067 52.90043 
L 83.877426 70.197107 
L 83.931785 70.029467 
L 83.986144 58.247136 
L 84.040503 87.229 
L 84.094862 70.489027 
L 84.20358 54.467839 
L 84.257938 62.930587 
L 84.312297 44.337148 
L 84.366656 86.32946 
L 84.421015 41.811699 
L 84.475374 100.830408 
L 84.529733 92.804586 
L 84.747169 18.434131 
L 84.910246 72.359409 
L 85.018963 41.269036 
L 85.073322 74.706354 
L 85.127681 73.538283 
L 85.18204 72.183569 
L 85.290758 76.917132 
L 85.345117 65.9122 
L 85.399476 84.851504 
L 85.453835 46.202338 
L 85.508194 91.673007 
L 85.562553 62.714079 
L 85.616912 61.155944 
L 85.671271 38.425591 
L 85.72563 101.306653 
L 85.779988 85.18539 
L 85.997424 18.41197 
L 86.051783 71.031778 
L 86.106142 52.023466 
L 86.160501 58.766463 
L 86.21486 87.462858 
L 86.269219 73.025451 
L 86.377937 49.894637 
L 86.432296 123.001634 
L 86.486655 69.122308 
L 86.541013 48.805875 
L 86.70409 81.531865 
L 86.921526 48.639092 
L 87.030244 96.263079 
L 87.138962 52.106789 
L 87.193321 91.287988 
L 87.24768 51.753745 
L 87.302038 72.921492 
L 87.356397 52.559081 
L 87.410756 52.306305 
L 87.465115 28.392228 
L 87.519474 87.483689 
L 87.573833 53.170734 
L 87.682551 70.994746 
L 87.73691 44.950729 
L 87.791269 54.265864 
L 87.845628 93.801928 
L 87.899987 50.053365 
L 87.954346 75.80046 
L 88.008705 73.090321 
L 88.063063 79.306169 
L 88.117422 59.062201 
L 88.171781 72.209572 
L 88.22614 73.186641 
L 88.280499 76.17742 
L 88.334858 60.14223 
L 88.389217 74.261269 
L 88.443576 99.850825 
L 88.606653 63.180434 
L 88.76973 78.035372 
L 88.824088 25.449327 
L 88.878447 106.252895 
L 88.932806 75.76164 
L 89.150242 43.246178 
L 89.313319 77.827767 
L 89.367678 58.534477 
L 89.422037 79.243009 
L 89.476396 62.612028 
L 89.530755 30.927147 
L 89.585113 44.371557 
L 89.639472 73.613154 
L 89.693831 71.915072 
L 89.74819 57.625316 
L 89.802549 64.454006 
L 89.856908 61.086838 
L 89.911267 63.079426 
L 90.019985 73.898704 
L 90.074344 60.469197 
L 90.128703 92.538808 
L 90.183062 37.470487 
L 90.237421 57.374274 
L 90.29178 77.502523 
L 90.346138 66.75126 
L 90.454856 86.26906 
L 90.563574 54.078699 
L 90.617933 72.195584 
L 90.672292 73.564525 
L 90.726651 71.182904 
L 90.78101 82.713627 
L 90.835369 39.25943 
L 90.889728 80.712839 
L 91.107163 40.897322 
L 91.161522 91.222556 
L 91.215881 64.625358 
L 91.27024 44.266815 
L 91.378958 94.268393 
L 91.433317 52.449493 
L 91.487676 111.134365 
L 91.542035 74.248146 
L 91.596394 91.946823 
L 91.650753 87.395 
L 91.81383 48.144918 
L 91.868188 77.083063 
L 91.922547 63.099749 
L 91.976906 45.178739 
L 92.031265 63.062501 
L 92.085624 57.953159 
L 92.194342 76.637346 
L 92.248701 63.172041 
L 92.30306 95.665422 
L 92.357419 80.695652 
L 92.411778 89.604888 
L 92.574855 31.400916 
L 92.629213 69.684753 
L 92.683572 62.810041 
L 92.737931 36.240288 
L 92.79229 41.99374 
L 92.901008 86.525079 
L 93.009726 50.171026 
L 93.064085 67.91455 
L 93.118444 99.502176 
L 93.172803 62.634607 
L 93.227162 72.384236 
L 93.281521 85.284383 
L 93.444597 30.23537 
L 93.607674 85.922654 
L 93.716392 53.241997 
L 93.770751 86.559738 
L 93.82511 75.714289 
L 93.879469 73.111663 
L 93.933828 81.802707 
L 93.988187 44.548918 
L 94.042546 55.301253 
L 94.096905 104.56772 
L 94.259981 41.640286 
L 94.31434 101.565079 
L 94.368699 80.511043 
L 94.477417 42.685111 
L 94.586135 52.233777 
L 94.640494 66.006084 
L 94.694853 39.628719 
L 94.803571 102.941312 
L 94.85793 71.783013 
L 94.912288 63.49831 
L 94.966647 75.871754 
L 95.075365 53.913987 
L 95.129724 90.014519 
L 95.184083 46.530277 
L 95.238442 64.247063 
L 95.292801 68.525138 
L 95.34716 30.576858 
L 95.401519 47.425786 
L 95.455878 66.708651 
L 95.510237 50.935185 
L 95.618955 87.13505 
L 95.727672 82.278136 
L 95.782031 71.271331 
L 95.83639 80.779631 
L 95.890749 85.928913 
L 95.945108 58.552679 
L 95.999467 70.540876 
L 96.053826 65.152257 
L 96.108185 99.869286 
L 96.162544 51.832211 
L 96.216903 75.949851 
L 96.434338 29.891386 
L 96.597415 92.911004 
L 96.651774 55.933132 
L 96.706133 56.852233 
L 96.760492 93.871932 
L 96.814851 68.368692 
L 96.86921 18.471038 
L 96.923569 49.131385 
L 96.977928 90.927181 
L 97.032287 69.522112 
L 97.086646 52.185932 
L 97.141005 74.362239 
L 97.195364 50.149917 
L 97.249722 65.565062 
L 97.304081 75.852652 
L 97.35844 68.889765 
L 97.521517 35.410914 
L 97.630235 78.59684 
L 97.684594 67.461867 
L 97.738953 84.377874 
L 97.793312 67.81116 
L 97.847671 62.810043 
L 97.90203 91.473859 
L 97.956389 44.642927 
L 98.010747 48.860745 
L 98.065106 75.992392 
L 98.173824 75.073045 
L 98.228183 94.544831 
L 98.445619 45.300781 
L 98.499978 64.757276 
L 98.554337 41.958337 
L 98.608696 80.030798 
L 98.663055 22.548234 
L 98.717414 82.989226 
L 98.771772 47.333145 
L 98.826131 71.835023 
L 98.88049 54.061658 
L 98.934849 54.810753 
L 98.989208 88.049925 
L 99.043567 44.34324 
L 99.097926 70.980608 
L 99.206644 96.098712 
L 99.261003 29.736987 
L 99.315362 66.064262 
L 99.369721 55.447805 
L 99.42408 66.181891 
L 99.478439 65.313241 
L 99.587156 88.493518 
L 99.695874 44.733289 
L 99.750233 46.962284 
L 99.858951 40.844223 
L 99.91331 85.880957 
L 99.967669 68.095641 
L 100.130746 55.050661 
L 100.293822 84.842262 
L 100.348181 52.239417 
L 100.40254 77.208352 
L 100.456899 80.336218 
L 100.511258 35.437648 
L 100.565617 46.747441 
L 100.619976 88.513486 
L 100.674335 78.916535 
L 100.783053 45.16694 
L 100.94613 92.178028 
L 101.054847 48.644134 
L 101.109206 50.22658 
L 101.163565 55.732507 
L 101.272283 56.113943 
L 101.326642 28.346261 
L 101.489719 81.055037 
L 101.544078 79.4373 
L 101.652796 60.942867 
L 101.707155 67.362196 
L 101.92459 92.834448 
L 101.978949 35.26356 
L 102.033308 97.908787 
L 102.087667 59.865908 
L 102.142026 74.693452 
L 102.196385 69.810964 
L 102.46818 32.266042 
L 102.631256 87.901481 
L 102.685615 89.99158 
L 102.739974 79.374552 
L 102.794333 98.256682 
L 102.848692 80.781294 
L 102.903051 46.556476 
L 102.95741 73.68028 
L 103.011769 61.183425 
L 103.120487 95.85527 
L 103.229205 30.339419 
L 103.283564 53.916674 
L 103.337922 83.766585 
L 103.392281 58.979074 
L 103.44664 79.628738 
L 103.555358 52.869113 
L 103.609717 83.512698 
L 103.664076 54.101941 
L 103.718435 47.901577 
L 103.772794 70.287712 
L 103.935871 34.636056 
L 103.99023 96.70903 
L 104.044589 61.478484 
L 104.098947 37.370776 
L 104.153306 81.017385 
L 104.207665 74.420596 
L 104.316383 58.721073 
L 104.425101 96.436455 
L 104.47946 49.011569 
L 104.533819 55.669461 
L 104.588178 57.955544 
L 104.751255 93.879661 
L 104.859972 41.447837 
L 104.96869 78.885674 
L 105.023049 52.080165 
L 105.077408 61.718632 
L 105.131767 89.269996 
L 105.240485 49.713402 
L 105.349203 68.026745 
L 105.403562 51.821999 
L 105.457921 59.38486 
L 105.51228 88.760652 
L 105.566639 53.594172 
L 105.620997 80.379121 
L 105.675356 63.420703 
L 105.729715 66.608297 
L 105.784074 70.674495 
L 105.838433 62.539684 
L 105.892792 86.29409 
L 105.947151 64.10509 
L 106.055869 50.87993 
L 106.110228 69.338366 
L 106.164587 32.866221 
L 106.218946 55.170298 
L 106.382022 23.099805 
L 106.436381 83.333265 
L 106.49074 70.217302 
L 106.545099 77.416712 
L 106.599458 48.901506 
L 106.653817 61.680345 
L 106.708176 58.599356 
L 106.762535 79.813915 
L 106.816894 59.608683 
L 106.871253 72.424249 
L 106.925612 56.179901 
L 106.979971 59.128251 
L 107.03433 58.208665 
L 107.088689 60.763352 
L 107.197406 81.983105 
L 107.251765 57.936905 
L 107.306124 85.844365 
L 107.360483 79.884885 
L 107.469201 79.914476 
L 107.52356 40.653737 
L 107.632278 83.760588 
L 107.740996 54.522647 
L 107.904072 94.179571 
L 108.01279 33.6915 
L 108.067149 39.226094 
L 108.230226 85.245068 
L 108.284585 63.916129 
L 108.338944 68.566688 
L 108.393303 81.393342 
L 108.447662 73.864029 
L 108.610739 33.728596 
L 108.665097 78.775058 
L 108.719456 60.316886 
L 108.828174 80.954699 
L 108.936892 78.597883 
L 108.991251 49.146561 
L 109.04561 105.460674 
L 109.099969 44.000245 
L 109.154328 94.57876 
L 109.317405 51.313657 
L 109.371764 43.994939 
L 109.426122 46.399663 
L 109.480481 77.513258 
L 109.53484 22.481787 
L 109.589199 53.302734 
L 109.643558 58.713781 
L 109.752276 86.783174 
L 109.806635 80.030848 
L 109.860994 96.186645 
L 109.969712 45.987439 
L 110.132789 85.952965 
L 110.241506 48.450111 
L 110.350224 89.786059 
L 110.458942 42.85705 
L 110.513301 53.934676 
L 110.676378 70.492641 
L 110.730737 71.439487 
L 110.785096 86.226698 
L 110.893814 56.087522 
L 110.948172 66.692704 
L 111.002531 44.247313 
L 111.165608 69.978389 
L 111.219967 72.874201 
L 111.274326 34.814072 
L 111.328685 89.282844 
L 111.383044 39.420044 
L 111.546121 93.637926 
L 111.654839 20.671684 
L 111.709197 86.515411 
L 111.763556 51.325483 
L 111.817915 75.891154 
L 111.872274 64.398387 
L 111.926633 64.104315 
L 112.08971 44.96534 
L 112.144069 50.838072 
L 112.198428 73.798685 
L 112.252787 67.457065 
L 112.307146 69.227021 
L 112.361505 68.239872 
L 112.415864 88.2595 
L 112.470222 70.232272 
L 112.524581 53.906481 
L 112.57894 72.309876 
L 112.687658 40.415088 
L 112.796376 84.066999 
L 112.850735 20.896177 
L 112.905094 65.395986 
L 112.959453 115.584387 
L 113.068171 30.90079 
L 113.12253 55.381123 
L 113.176889 98.687783 
L 113.231248 68.44866 
L 113.339965 57.381515 
L 113.448683 72.61843 
L 113.503042 66.051894 
L 113.557401 71.152794 
L 113.61176 71.766799 
L 113.666119 57.003992 
L 113.720478 82.995925 
L 113.774837 79.142123 
L 113.937914 48.08512 
L 113.992273 43.357662 
L 114.046631 123.470309 
L 114.155349 37.635189 
L 114.264067 81.025134 
L 114.318426 63.416336 
L 114.372785 35.967065 
L 114.481503 109.788737 
L 114.535862 82.381569 
L 114.698939 35.577899 
L 114.807656 95.421986 
L 114.862015 22.447139 
L 114.916374 68.437115 
L 115.079451 90.516048 
L 115.242528 53.941682 
L 115.351246 48.810237 
L 115.405605 68.39917 
L 115.459964 61.780236 
L 115.568681 47.921047 
L 115.731758 103.945062 
L 115.949194 59.617103 
L 116.003553 80.339285 
L 116.057912 69.025157 
L 116.112271 76.386834 
L 116.16663 75.502512 
L 116.220989 56.944077 
L 116.329706 78.602228 
L 116.384065 40.618142 
L 116.438424 54.198557 
L 116.492783 83.574453 
L 116.547142 61.352338 
L 116.65586 72.625057 
L 116.710219 28.361267 
L 116.764578 68.229969 
L 116.818937 75.064849 
L 116.927655 41.469808 
L 116.982014 74.921043 
L 117.036373 69.950127 
L 117.090731 43.395805 
L 117.14509 60.537879 
L 117.199449 105.391878 
L 117.362526 53.271796 
L 117.416885 87.896877 
L 117.471244 60.899368 
L 117.579962 82.93602 
L 117.634321 50.454726 
L 117.68868 51.817754 
L 117.851756 75.054198 
L 117.906115 73.014732 
L 118.014833 31.437703 
L 118.069192 83.821403 
L 118.123551 71.77422 
L 118.17791 75.580397 
L 118.232269 33.276881 
L 118.286628 50.3829 
L 118.449705 67.688741 
L 118.66714 36.037709 
L 118.721499 87.697667 
L 118.775858 64.942164 
L 118.884576 80.645451 
L 118.938935 35.775264 
L 118.993294 84.654901 
L 119.047653 62.392779 
L 119.102012 70.577222 
L 119.265089 48.306253 
L 119.373806 91.441988 
L 119.428165 86.948264 
L 119.482524 85.428243 
L 119.591242 63.766398 
L 119.645601 80.085867 
L 119.69996 46.036919 
L 119.754319 88.673196 
L 119.808678 77.175649 
L 119.971755 69.947331 
L 120.026114 45.004497 
L 120.18919 75.402481 
L 120.243549 72.182995 
L 120.297908 41.812835 
L 120.352267 70.606257 
L 120.406626 79.854108 
L 120.460985 70.609753 
L 120.515344 67.548464 
L 120.569703 83.834807 
L 120.624062 70.057138 
L 120.73278 77.051834 
L 120.787139 75.166483 
L 120.841498 55.706179 
L 120.895856 70.427542 
L 120.950215 83.81486 
L 121.004574 42.233974 
L 121.058933 83.237065 
L 121.113292 55.409754 
L 121.167651 79.35557 
L 121.22201 75.366203 
L 121.276369 49.604011 
L 121.330728 69.545907 
L 121.385087 54.338155 
L 121.439446 73.814452 
L 121.493805 68.391079 
L 121.548164 72.298445 
L 121.602523 85.314649 
L 121.71124 46.43367 
L 121.765599 74.610658 
L 121.819958 56.940275 
L 121.874317 40.467831 
L 121.928676 74.415852 
L 121.983035 61.963144 
L 122.037394 59.256575 
L 122.091753 50.62137 
L 122.200471 69.491913 
L 122.25483 57.211489 
L 122.309189 68.797583 
L 122.363548 65.61314 
L 122.417906 23.626327 
L 122.472265 44.474567 
L 122.526624 63.023088 
L 122.635342 40.015402 
L 122.798419 87.761299 
L 122.907137 46.758623 
L 122.961496 57.020907 
L 123.070214 38.313797 
L 123.23329 82.109869 
L 123.396367 68.040076 
L 123.450726 75.296411 
L 123.505085 73.443544 
L 123.559444 46.999656 
L 123.613803 91.092308 
L 123.668162 53.436667 
L 123.77688 68.513281 
L 123.831239 49.624236 
L 123.885598 64.047093 
L 123.939956 69.692452 
L 123.994315 53.560908 
L 124.103033 89.783453 
L 124.157392 57.350541 
L 124.211751 58.808223 
L 124.26611 70.976981 
L 124.320469 63.124498 
L 124.374828 44.373525 
L 124.429187 61.00002 
L 124.483546 77.535086 
L 124.537905 61.079562 
L 124.592264 68.045768 
L 124.646623 45.297474 
L 124.700981 65.182433 
L 124.75534 51.338549 
L 124.918417 105.705813 
L 125.027135 53.688542 
L 125.081494 60.001718 
L 125.135853 72.089518 
L 125.190212 67.434985 
L 125.244571 50.684639 
L 125.29893 63.201815 
L 125.353289 67.373188 
L 125.462006 50.421545 
L 125.516365 67.969928 
L 125.570724 64.89214 
L 125.679442 45.613924 
L 125.78816 75.649364 
L 125.842519 43.856237 
L 125.896878 81.772957 
L 125.951237 54.302893 
L 126.005596 48.741447 
L 126.059955 52.128584 
L 126.114314 83.422453 
L 126.168673 37.407668 
L 126.223031 50.407749 
L 126.27739 95.032284 
L 126.331749 30.907791 
L 126.386108 59.414398 
L 126.440467 56.545277 
L 126.494826 43.492184 
L 126.657903 85.072279 
L 126.712262 42.295924 
L 126.766621 60.324939 
L 126.82098 58.714009 
L 126.875339 60.776082 
L 126.929698 70.855911 
L 126.984056 58.036979 
L 127.038415 16.415242 
L 127.147133 83.050537 
L 127.255851 43.244168 
L 127.31021 77.96799 
L 127.364569 49.105231 
L 127.418928 73.730865 
L 127.473287 31.009396 
L 127.527646 58.673276 
L 127.582005 87.625237 
L 127.636364 60.19595 
" clip-path="url(#pa668c6f143)" style="fill: none; stroke: #e78ac3; stroke-width: 1.5; stroke-linecap: square"/>
   </g>
   <g id="patch_3">
    <path d="M 10.8 133.2 
L 10.8 10.8 
" style="fill: none; stroke: #000000; stroke-width: 0.8; stroke-linejoin: miter; stroke-linecap: square"/>
   </g>
   <g id="patch_4">
    <path d="M 133.2 133.2 
L 133.2 10.8 
" style="fill: none; stroke: #000000; stroke-width: 0.8; stroke-linejoin: miter; stroke-linecap: square"/>
   </g>
   <g id="patch_5">
    <path d="M 10.8 133.2 
L 133.2 133.2 
" style="fill: none; stroke: #000000; stroke-width: 0.8; stroke-linejoin: miter; stroke-linecap: square"/>
   </g>
   <g id="patch_6">
    <path d="M 10.8 10.8 
L 133.2 10.8 
" style="fill: none; stroke: #000000; stroke-width: 0.8; stroke-linejoin: miter; stroke-linecap: square"/>
   </g>
  </g>
 </g>
 <defs>
  <clipPath id="pa668c6f143">
   <rect x="10.8" y="10.8" width="122.4" height="122.4"/>
  </clipPath>
 </defs>
</svg>
