<?xml version="1.0" encoding="utf-8" standalone="no"?>
<!DOCTYPE svg PUBLIC "-//W3C//DTD SVG 1.1//EN"
  "http://www.w3.org/Graphics/SVG/1.1/DTD/svg11.dtd">
<svg xmlns:xlink="http://www.w3.org/1999/xlink" width="144pt" height="144pt" viewBox="0 0 144 144" xmlns="http://www.w3.org/2000/svg" version="1.1">
 <metadata>
  <rdf:RDF xmlns:dc="http://purl.org/dc/elements/1.1/" xmlns:cc="http://creativecommons.org/ns#" xmlns:rdf="http://www.w3.org/1999/02/22-rdf-syntax-ns#">
   <cc:Work>
    <dc:type rdf:resource="http://purl.org/dc/dcmitype/StillImage"/>
    <dc:date>2025-02-11T14:35:20.105521</dc:date>
    <dc:format>image/svg+xml</dc:format>
    <dc:creator>
     <cc:Agent>
      <dc:title>Matplotlib v3.8.0, https://matplotlib.org/</dc:title>
     </cc:Agent>
    </dc:creator>
   </cc:Work>
  </rdf:RDF>
 </metadata>
 <defs>
  <style type="text/css">*{stroke-linejoin: round; stroke-linecap: butt}</style>
 </defs>
 <g id="figure_1">
  <g id="patch_1">
   <path d="M 0 144 
L 144 144 
L 144 0 
L 0 0 
L 0 144 
z
" style="fill: none"/>
  </g>
  <g id="axes_1">
   <g id="patch_2">
    <path d="M 10.8 133.2 
L 133.2 133.2 
L 133.2 10.8 
L 10.8 10.8 
L 10.8 133.2 
z
" style="fill: none"/>
   </g>
   <g id="matplotlib.axis_1"/>
   <g id="matplotlib.axis_2"/>
   <g id="line2d_1">
    <path d="M 16.363636 78.603227 
L 16.417995 78.55652 
L 16.472354 100.727753 
L 16.526713 82.638065 
L 16.581072 70.961282 
L 16.635431 104.517274 
L 16.68979 103.626484 
L 16.852867 65.829181 
L 16.907226 97.97536 
L 16.961585 56.946469 
L 17.015944 68.853981 
L 17.17902 107.60788 
L 17.342097 66.992234 
L 17.450815 90.196805 
L 17.505174 72.572102 
L 17.559533 98.341252 
L 17.613892 61.993668 
L 17.668251 82.841213 
L 17.72261 84.666176 
L 17.885686 43.137642 
L 17.994404 104.707675 
L 18.048763 101.85066 
L 18.103122 50.165735 
L 18.157481 79.341655 
L 18.374917 36.130035 
L 18.592352 110.721182 
L 18.755429 60.130587 
L 18.809788 54.634826 
L 18.864147 105.155285 
L 18.918506 62.447814 
L 18.972865 43.991695 
L 19.135942 82.001482 
L 19.190301 83.287589 
L 19.24466 76.559019 
L 19.299019 104.942754 
L 19.462095 36.600092 
L 19.516454 99.134 
L 19.570813 63.3648 
L 19.625172 47.875004 
L 19.679531 67.85597 
L 19.73389 36.675552 
L 19.842608 93.323042 
L 20.005685 60.309778 
L 20.060044 106.679559 
L 20.114402 73.50733 
L 20.168761 71.140153 
L 20.22312 58.382654 
L 20.277479 112.969654 
L 20.331838 59.942661 
L 20.386197 88.665143 
L 20.440556 77.173414 
L 20.494915 82.903547 
L 20.549274 81.254262 
L 20.603633 80.009367 
L 20.712351 116.937446 
L 20.76671 68.601964 
L 20.821069 82.677789 
L 20.875427 72.496977 
L 20.929786 97.420523 
L 20.984145 47.813573 
L 21.038504 80.248618 
L 21.092863 51.679488 
L 21.147222 95.046687 
L 21.201581 93.830174 
L 21.25594 78.359955 
L 21.310299 79.308173 
L 21.364658 91.660578 
L 21.419017 79.483269 
L 21.527735 60.192446 
L 21.582094 107.594992 
L 21.636452 104.423338 
L 21.690811 58.777163 
L 21.74517 100.862915 
L 21.799529 114.570252 
L 21.962606 48.222958 
L 22.125683 107.653139 
L 22.28876 61.495229 
L 22.343119 92.092172 
L 22.397477 89.203217 
L 22.506195 62.831674 
L 22.669272 104.506222 
L 22.832349 61.479665 
L 22.995426 99.636697 
L 23.158502 29.785256 
L 23.375938 111.022683 
L 23.484656 60.920331 
L 23.539015 78.47548 
L 23.647733 57.532431 
L 23.865169 113.902715 
L 23.919527 59.716309 
L 23.973886 81.64098 
L 24.028245 71.456929 
L 24.082604 106.576985 
L 24.191322 61.143961 
L 24.245681 82.327887 
L 24.30004 64.927199 
L 24.354399 64.105232 
L 24.408758 54.234392 
L 24.463117 100.382543 
L 24.517476 65.409025 
L 24.571835 76.300781 
L 24.734911 62.533199 
L 24.78927 74.743613 
L 24.843629 68.788406 
L 24.897988 37.124434 
L 24.952347 87.298411 
L 25.006706 57.172902 
L 25.224142 99.263977 
L 25.278501 67.425003 
L 25.387219 67.919719 
L 25.550295 87.460918 
L 25.604654 70.971972 
L 25.659013 84.597359 
L 25.713372 99.698103 
L 25.767731 68.133203 
L 25.82209 85.940809 
L 25.930808 71.593814 
L 25.985167 95.85424 
L 26.039526 77.452352 
L 26.202602 95.257452 
L 26.31132 38.729987 
L 26.474397 112.105126 
L 26.691833 49.413483 
L 26.746192 120.728495 
L 26.800551 65.443916 
L 26.85491 86.967445 
L 26.909269 63.943456 
L 26.963627 85.871635 
L 27.017986 84.123187 
L 27.072345 93.785454 
L 27.126704 70.403975 
L 27.181063 90.497724 
L 27.398499 59.457034 
L 27.507217 90.389762 
L 27.615935 60.066961 
L 27.724652 108.549056 
L 27.779011 72.453707 
L 27.83337 85.810776 
L 27.887729 85.259857 
L 27.942088 63.660322 
L 27.996447 80.438552 
L 28.050806 65.65726 
L 28.105165 80.336382 
L 28.213883 103.10861 
L 28.268242 59.434181 
L 28.322601 78.327754 
L 28.37696 76.958867 
L 28.431319 83.932489 
L 28.485677 63.316439 
L 28.540036 72.407084 
L 28.648754 96.761337 
L 28.86619 54.11796 
L 28.974908 82.406718 
L 29.029267 47.885997 
L 29.083626 112.525902 
L 29.137985 63.086167 
L 29.192344 66.414362 
L 29.35542 114.09682 
L 29.572856 67.428303 
L 29.627215 81.202983 
L 29.681574 54.155553 
L 29.735933 61.010762 
L 29.790292 61.720097 
L 29.844651 99.116464 
L 29.89901 71.151228 
L 29.953369 61.656086 
L 30.007727 116.573189 
L 30.062086 54.933953 
L 30.116445 68.601552 
L 30.170804 97.770318 
L 30.225163 95.236781 
L 30.279522 92.795584 
L 30.333881 107.958414 
L 30.38824 95.983479 
L 30.551317 56.028124 
L 30.714394 73.690649 
L 30.768752 73.01548 
L 30.823111 96.152237 
L 30.87747 94.304507 
L 30.931829 94.788742 
L 31.257983 54.233578 
L 31.312342 94.776956 
L 31.366701 78.218649 
L 31.42106 59.140441 
L 31.475419 78.065722 
L 31.638495 85.03824 
L 31.692854 75.088758 
L 31.747213 102.847807 
L 31.801572 87.731782 
L 31.855931 58.975117 
L 31.91029 81.761468 
L 31.964649 74.771239 
L 32.019008 36.729511 
L 32.073367 63.194286 
L 32.290803 90.116077 
L 32.345161 93.947693 
L 32.39952 68.047713 
L 32.453879 81.811117 
L 32.508238 75.59244 
L 32.562597 107.911543 
L 32.616956 63.51417 
L 32.725674 64.633198 
L 32.888751 104.805285 
L 33.051828 59.210849 
L 33.106186 56.055599 
L 33.214904 67.293206 
L 33.269263 45.019335 
L 33.323622 84.890279 
L 33.377981 77.947585 
L 33.486699 66.742473 
L 33.595417 81.635658 
L 33.649776 72.376469 
L 33.867211 100.101768 
L 33.975929 44.021354 
L 34.084647 82.575612 
L 34.139006 18.95349 
L 34.193365 67.180977 
L 34.247724 105.829729 
L 34.302083 80.254345 
L 34.46516 47.032872 
L 34.519519 87.406735 
L 34.573878 73.439552 
L 34.628236 74.51097 
L 34.682595 86.623863 
L 34.736954 78.64157 
L 34.900031 61.146784 
L 34.95439 60.267437 
L 35.117467 114.06517 
L 35.280544 60.24581 
L 35.334903 50.899999 
L 35.44362 91.595398 
L 35.497979 84.393148 
L 35.552338 92.663772 
L 35.606697 72.410011 
L 35.661056 93.710959 
L 35.715415 70.189945 
L 35.769774 94.516849 
L 35.932851 43.337547 
L 36.041569 84.826683 
L 36.095928 47.082622 
L 36.150286 102.360853 
L 36.204645 77.757961 
L 36.259004 63.970923 
L 36.313363 68.550615 
L 36.367722 70.783523 
L 36.422081 89.776185 
L 36.47644 82.299588 
L 36.530799 72.586375 
L 36.639517 104.740707 
L 36.693876 79.08178 
L 36.748235 87.674912 
L 36.802594 98.900596 
L 36.856953 39.471078 
L 36.911311 70.640059 
L 36.96567 67.022878 
L 37.020029 80.510149 
L 37.183106 45.497356 
L 37.237465 117.105671 
L 37.291824 71.230853 
L 37.346183 35.433294 
L 37.400542 62.870532 
L 37.454901 65.957507 
L 37.50926 48.265965 
L 37.563619 66.141548 
L 37.672336 77.526993 
L 37.726695 52.420029 
L 37.781054 89.778255 
L 37.835413 80.368022 
L 37.889772 59.466629 
L 37.944131 100.665499 
L 37.99849 82.126457 
L 38.052849 71.878529 
L 38.107208 74.373705 
L 38.215926 109.817199 
L 38.324644 64.688323 
L 38.433361 94.095769 
L 38.596438 60.416623 
L 38.650797 71.695281 
L 38.705156 49.006838 
L 38.759515 96.199275 
L 38.813874 80.531175 
L 38.868233 80.890845 
L 39.03131 53.721461 
L 39.085669 50.032652 
L 39.140028 51.45217 
L 39.357463 84.393018 
L 39.411822 84.351205 
L 39.574899 54.719572 
L 39.737976 84.814753 
L 39.792335 78.953637 
L 39.846694 85.786067 
L 39.901053 72.577253 
L 39.955411 93.757236 
L 40.00977 62.778376 
L 40.118488 63.434064 
L 40.172847 88.806753 
L 40.227206 81.030361 
L 40.335924 50.465716 
L 40.390283 59.981127 
L 40.55336 81.847559 
L 40.607719 45.931664 
L 40.662078 68.501335 
L 40.716436 89.049632 
L 40.770795 69.078014 
L 40.825154 79.664777 
L 40.879513 57.783923 
L 40.933872 78.154018 
L 40.988231 81.262114 
L 41.04259 50.594319 
L 41.096949 95.688603 
L 41.151308 94.218909 
L 41.314385 62.669154 
L 41.368744 99.070608 
L 41.423103 47.422882 
L 41.477461 59.877987 
L 41.53182 51.035852 
L 41.586179 89.892477 
L 41.640538 56.508838 
L 41.694897 83.037911 
L 41.749256 68.335477 
L 41.803615 34.593273 
L 41.857974 84.283912 
L 41.912333 49.860862 
L 41.966692 79.026568 
L 42.021051 67.122414 
L 42.07541 60.577829 
L 42.184128 82.771285 
L 42.238486 109.063798 
L 42.347204 57.853374 
L 42.510281 96.458228 
L 42.618999 52.245787 
L 42.673358 79.766851 
L 42.727717 75.641809 
L 42.782076 57.359479 
L 42.890794 96.30261 
L 42.945153 52.710195 
L 42.999511 68.018033 
L 43.05387 64.130936 
L 43.108229 89.599476 
L 43.271306 53.638306 
L 43.434383 103.972766 
L 43.543101 85.687009 
L 43.59746 108.436329 
L 43.651819 43.487317 
L 43.706178 64.887933 
L 43.814895 91.372508 
L 43.977972 60.221559 
L 44.08669 92.447335 
L 44.141049 58.928849 
L 44.195408 80.824687 
L 44.358485 43.311279 
L 44.467203 79.099643 
L 44.521561 71.812718 
L 44.57592 116.394998 
L 44.630279 96.62675 
L 44.793356 78.96349 
L 44.902074 91.00379 
L 45.010792 48.563209 
L 45.065151 59.139919 
L 45.228228 102.528795 
L 45.282586 59.478764 
L 45.336945 67.167004 
L 45.391304 65.992298 
L 45.554381 110.312914 
L 45.663099 70.467832 
L 45.771817 98.152984 
L 45.880535 67.441989 
L 45.989253 74.274363 
L 46.152329 102.215714 
L 46.206688 67.854434 
L 46.261047 72.939612 
L 46.315406 69.840193 
L 46.369765 92.843819 
L 46.424124 52.107777 
L 46.478483 58.471757 
L 46.64156 94.793218 
L 46.695919 93.231973 
L 46.804636 73.970263 
L 46.858995 78.678053 
L 46.967713 111.055641 
L 47.022072 34.54481 
L 47.076431 77.122128 
L 47.13079 74.067522 
L 47.185149 125.704239 
L 47.239508 114.221747 
L 47.348226 84.885274 
L 47.511303 116.032588 
L 47.62002 51.384181 
L 47.674379 70.829417 
L 47.728738 123.143361 
L 47.783097 100.132748 
L 47.946174 32.916829 
L 48.054892 68.694843 
L 48.109251 50.989352 
L 48.217969 81.034154 
L 48.326687 66.643428 
L 48.381045 94.111421 
L 48.435404 61.499938 
L 48.489763 75.20917 
L 48.598481 94.755092 
L 48.65284 46.1819 
L 48.707199 104.06831 
L 48.761558 72.331336 
L 48.924635 89.821598 
L 48.978994 61.349969 
L 49.033353 86.528136 
L 49.087712 86.723524 
L 49.14207 114.891558 
L 49.196429 59.992354 
L 49.250788 82.418037 
L 49.305147 66.99033 
L 49.468224 97.156499 
L 49.522583 86.148366 
L 49.576942 109.03815 
L 49.68566 21.488964 
L 49.848737 102.335 
L 49.903095 73.663144 
L 49.957454 88.312704 
L 50.011813 93.794106 
L 50.066172 57.843533 
L 50.120531 69.678908 
L 50.17489 99.470127 
L 50.229249 74.419775 
L 50.283608 78.252417 
L 50.337967 62.565144 
L 50.392326 77.387276 
L 50.555403 36.324651 
L 50.718479 102.553158 
L 50.772838 61.511301 
L 50.827197 64.233596 
L 50.881556 101.007538 
L 50.935915 94.69107 
L 51.044633 59.178205 
L 51.098992 119.08568 
L 51.153351 85.2001 
L 51.20771 82.992891 
L 51.262069 44.860602 
L 51.316428 92.008972 
L 51.370787 57.265155 
L 51.425145 53.965317 
L 51.533863 97.322639 
L 51.588222 95.67827 
L 51.642581 66.773706 
L 51.69694 95.49922 
L 51.860017 75.135249 
L 51.914376 95.832674 
L 51.968735 56.379606 
L 52.023094 78.821848 
L 52.077453 62.189797 
L 52.18617 104.00312 
L 52.240529 64.325527 
L 52.294888 68.428628 
L 52.512324 99.063933 
L 52.621042 54.367756 
L 52.675401 72.747796 
L 52.838478 96.312018 
L 52.947195 58.061144 
L 53.110272 117.321346 
L 53.164631 69.579882 
L 53.21899 93.61879 
L 53.382067 49.220248 
L 53.545144 106.885904 
L 53.653862 62.387576 
L 53.70822 87.342842 
L 53.762579 68.102536 
L 53.816938 64.830389 
L 53.871297 89.938207 
L 53.925656 78.207468 
L 53.980015 82.618535 
L 54.034374 55.216445 
L 54.088733 94.577121 
L 54.143092 45.604919 
L 54.197451 64.587549 
L 54.306169 59.857425 
L 54.360528 98.891573 
L 54.414887 85.545808 
L 54.469245 84.440889 
L 54.523604 16.363636 
L 54.577963 83.236751 
L 54.686681 69.880428 
L 54.74104 72.639229 
L 54.795399 70.663115 
L 54.849758 55.904584 
L 54.904117 104.705855 
L 54.958476 69.050026 
L 55.012835 58.59753 
L 55.067194 66.072116 
L 55.175912 61.362105 
L 55.284629 107.462536 
L 55.393347 104.577566 
L 55.447706 22.724085 
L 55.502065 91.666143 
L 55.556424 63.560447 
L 55.610783 75.564447 
L 55.77386 93.125819 
L 55.828219 69.978847 
L 55.882578 85.741154 
L 56.045654 76.043908 
L 56.100013 98.433588 
L 56.154372 84.163602 
L 56.317449 61.752381 
L 56.426167 43.488374 
L 56.480526 103.370044 
L 56.534885 82.177496 
L 56.697962 69.060738 
L 56.861038 104.108453 
L 56.915397 95.300669 
L 57.078474 66.375931 
L 57.187192 98.68384 
L 57.241551 96.913855 
L 57.404628 43.796529 
L 57.458987 77.417077 
L 57.513345 56.43382 
L 57.622063 85.968486 
L 57.676422 78.716026 
L 57.730781 75.180148 
L 57.78514 87.407486 
L 57.839499 84.513428 
L 57.948217 61.700845 
L 58.002576 70.430169 
L 58.056935 73.920834 
L 58.165653 96.448328 
L 58.220012 58.286188 
L 58.27437 81.050814 
L 58.328729 98.455274 
L 58.383088 79.573494 
L 58.437447 97.732208 
L 58.600524 52.516948 
L 58.763601 115.9541 
L 58.926678 52.632201 
L 59.035395 83.971828 
L 59.089754 75.436961 
L 59.198472 103.013935 
L 59.252831 49.196121 
L 59.30719 81.764062 
L 59.415908 96.891323 
L 59.470267 94.204117 
L 59.633344 76.792001 
L 59.687703 104.363505 
L 59.742062 70.868695 
L 59.79642 75.405106 
L 59.850779 104.878768 
L 59.905138 76.336217 
L 59.959497 85.056276 
L 60.068215 40.524032 
L 60.122574 53.299556 
L 60.285651 69.379065 
L 60.34001 68.045348 
L 60.394369 96.169673 
L 60.448728 84.027924 
L 60.611804 60.260088 
L 60.666163 98.12379 
L 60.720522 84.860018 
L 60.883599 92.182436 
L 61.046676 73.239771 
L 61.209753 90.539902 
L 61.31847 67.734008 
L 61.427188 76.478874 
L 61.590265 102.13267 
L 61.644624 90.403613 
L 61.698983 40.797373 
L 61.753342 69.137186 
L 61.86206 90.447133 
L 61.916419 61.12227 
L 61.970778 83.424499 
L 62.025137 72.766265 
L 62.079495 76.631429 
L 62.35129 85.491888 
L 62.405649 77.771644 
L 62.460008 83.185209 
L 62.514367 100.125858 
L 62.568726 86.248394 
L 62.623085 58.312045 
L 62.677444 97.482433 
L 62.731803 67.054641 
L 62.786162 82.59637 
L 62.84052 81.754594 
L 62.894879 50.045103 
L 62.949238 71.27065 
L 63.112315 98.366466 
L 63.221033 66.247182 
L 63.275392 93.028665 
L 63.438469 55.384344 
L 63.492828 81.320313 
L 63.547187 78.336325 
L 63.601545 61.868007 
L 63.655904 105.882491 
L 63.710263 97.59024 
L 63.818981 45.681846 
L 63.87334 113.783635 
L 63.927699 77.626112 
L 63.982058 82.158629 
L 64.036417 101.867965 
L 64.145135 49.452174 
L 64.199494 110.1251 
L 64.253853 57.935545 
L 64.416929 90.236913 
L 64.471288 43.01596 
L 64.525647 118.232298 
L 64.580006 89.527701 
L 64.634365 102.211647 
L 64.743083 55.797243 
L 64.797442 76.488141 
L 64.851801 71.688811 
L 64.90616 95.220677 
L 64.960519 73.401633 
L 65.014878 68.745806 
L 65.069237 100.664626 
L 65.123596 73.493401 
L 65.177954 74.187387 
L 65.232313 55.942829 
L 65.286672 99.376658 
L 65.341031 63.478964 
L 65.39539 67.74677 
L 65.504108 67.363957 
L 65.558467 100.944352 
L 65.612826 66.739255 
L 65.667185 99.628958 
L 65.721544 89.81163 
L 65.775903 114.102781 
L 65.830262 89.948634 
L 65.993338 46.270609 
L 66.156415 99.719584 
L 66.210774 50.288885 
L 66.265133 99.83216 
L 66.319492 103.815929 
L 66.373851 78.08437 
L 66.42821 80.447597 
L 66.482569 90.714258 
L 66.645646 64.773563 
L 66.754363 111.763608 
L 66.808722 104.240594 
L 66.971799 62.288651 
L 67.026158 86.694449 
L 67.080517 74.462883 
L 67.134876 51.722771 
L 67.189235 94.084291 
L 67.243594 61.895258 
L 67.515388 93.162278 
L 67.569747 51.182413 
L 67.624106 69.863746 
L 67.732824 127.636364 
L 67.895901 73.555357 
L 67.95026 87.904087 
L 68.004619 60.537115 
L 68.058978 90.820389 
L 68.113337 86.099381 
L 68.222054 77.879069 
L 68.330772 94.426186 
L 68.385131 74.289169 
L 68.43949 91.427687 
L 68.493849 79.484593 
L 68.548208 100.056627 
L 68.602567 59.302116 
L 68.656926 61.070379 
L 68.765644 101.15682 
L 68.820003 94.335166 
L 68.983079 74.839443 
L 69.037438 40.919405 
L 69.146156 94.914931 
L 69.200515 89.613623 
L 69.254874 104.347946 
L 69.417951 50.556486 
L 69.47231 111.468638 
L 69.526669 87.827764 
L 69.635387 104.328895 
L 69.798463 50.469216 
L 69.852822 63.066439 
L 69.907181 105.938104 
L 69.96154 88.725547 
L 70.015899 92.148818 
L 70.178976 61.436387 
L 70.396412 99.975834 
L 70.559488 74.022815 
L 70.668206 66.18756 
L 70.722565 68.975046 
L 70.776924 89.584897 
L 70.831283 60.575923 
L 70.885642 101.898356 
L 70.940001 54.028382 
L 70.99436 118.917292 
L 71.048719 79.559634 
L 71.103078 61.251268 
L 71.157437 100.880702 
L 71.211796 63.227099 
L 71.48359 110.544712 
L 71.537949 64.252137 
L 71.592308 76.256112 
L 71.646667 74.578663 
L 71.864103 102.686176 
L 72.027179 66.504083 
L 72.081538 85.721777 
L 72.135897 53.904986 
L 72.190256 62.134775 
L 72.244615 104.463029 
L 72.298974 61.998314 
L 72.407692 96.933781 
L 72.462051 75.235241 
L 72.51641 112.482431 
L 72.570769 90.256191 
L 72.625128 85.396908 
L 72.679487 119.63239 
L 72.733846 75.940493 
L 72.788204 95.478473 
L 72.842563 95.822819 
L 72.951281 71.794194 
L 73.059999 101.421738 
L 73.168717 67.940764 
L 73.223076 107.455685 
L 73.277435 50.515626 
L 73.331794 77.474712 
L 73.386153 78.664912 
L 73.440512 56.097823 
L 73.494871 115.387349 
L 73.549229 84.368309 
L 73.712306 53.241769 
L 73.766665 57.840915 
L 73.821024 97.365172 
L 73.875383 70.905435 
L 74.03846 91.638581 
L 74.147178 52.444627 
L 74.201537 94.400006 
L 74.310254 93.884293 
L 74.364613 96.005784 
L 74.418972 109.455893 
L 74.473331 93.930318 
L 74.52769 96.268086 
L 74.582049 108.903799 
L 74.690767 68.780856 
L 74.745126 91.243099 
L 74.799485 86.073416 
L 74.853844 65.18422 
L 74.908203 75.545618 
L 75.016921 92.406047 
L 75.071279 74.139785 
L 75.125638 89.202261 
L 75.179997 93.584834 
L 75.288715 56.714683 
L 75.343074 63.895218 
L 75.397433 102.022307 
L 75.451792 59.758261 
L 75.506151 79.018838 
L 75.56051 79.353851 
L 75.614869 44.174081 
L 75.777946 91.33054 
L 75.832304 61.976472 
L 75.886663 66.375747 
L 75.941022 75.287173 
L 75.995381 54.731061 
L 76.04974 75.971638 
L 76.104099 73.397143 
L 76.158458 73.508613 
L 76.212817 98.187596 
L 76.267176 75.96861 
L 76.321535 76.576561 
L 76.375894 66.311647 
L 76.538971 102.7387 
L 76.702047 71.68484 
L 76.865124 83.491289 
L 76.919483 75.898953 
L 76.973842 90.039792 
L 77.028201 75.986573 
L 77.08256 74.632226 
L 77.136919 57.327205 
L 77.191278 108.19267 
L 77.245637 60.986335 
L 77.299996 55.988188 
L 77.408713 104.818987 
L 77.463072 62.178581 
L 77.517431 95.681931 
L 77.57179 71.222644 
L 77.626149 79.839667 
L 77.680508 111.970788 
L 77.734867 96.470993 
L 77.789226 91.564504 
L 77.897944 48.217025 
L 78.006662 95.617852 
L 78.061021 67.252163 
L 78.115379 90.735754 
L 78.169738 100.090014 
L 78.332815 75.545063 
L 78.441533 93.469514 
L 78.495892 71.468729 
L 78.550251 74.618635 
L 78.713328 92.407234 
L 78.767687 53.256465 
L 78.822046 68.709236 
L 78.876404 90.545586 
L 78.930763 76.545315 
L 78.985122 73.231505 
L 79.09384 101.850087 
L 79.256917 76.097723 
L 79.311276 94.186209 
L 79.365635 40.698559 
L 79.419994 82.076313 
L 79.583071 65.105421 
L 79.637429 92.925463 
L 79.691788 67.11612 
L 79.800506 89.450436 
L 79.909224 68.755363 
L 79.963583 58.129782 
L 80.12666 99.487569 
L 80.181019 65.041047 
L 80.235378 65.466335 
L 80.398455 100.071344 
L 80.452813 42.216756 
L 80.507172 90.711314 
L 80.61589 50.592983 
L 80.778967 119.723306 
L 80.887685 68.078351 
L 80.942044 76.278763 
L 80.996403 63.159459 
L 81.050762 65.650426 
L 81.105121 73.061252 
L 81.15948 61.958902 
L 81.213838 66.186754 
L 81.376915 88.550637 
L 81.485633 48.523436 
L 81.539992 51.997453 
L 81.703069 73.722241 
L 81.757428 48.085603 
L 81.811787 62.241285 
L 81.866146 64.294449 
L 81.920505 99.275848 
L 81.974863 43.046835 
L 82.029222 76.729265 
L 82.083581 81.507341 
L 82.192299 65.98304 
L 82.355376 85.887551 
L 82.464094 50.651724 
L 82.518453 53.079056 
L 82.572812 97.958442 
L 82.627171 85.341636 
L 82.68153 70.842088 
L 82.735888 96.966024 
L 82.790247 93.457604 
L 82.898965 46.273159 
L 83.007683 89.058592 
L 83.062042 72.269241 
L 83.116401 78.819139 
L 83.17076 82.107392 
L 83.279478 63.692886 
L 83.442555 90.494296 
L 83.605631 55.991833 
L 83.65999 100.636255 
L 83.714349 67.572692 
L 83.768708 88.980533 
L 83.823067 80.399353 
L 83.986144 55.980553 
L 84.040503 92.720927 
L 84.094862 83.431345 
L 84.149221 66.312064 
L 84.20358 95.525639 
L 84.257938 92.686327 
L 84.366656 50.275756 
L 84.475374 88.739289 
L 84.529733 81.527776 
L 84.584092 93.829781 
L 84.638451 51.026312 
L 84.69281 70.307981 
L 84.747169 54.143055 
L 84.801528 85.437377 
L 84.855887 81.259526 
L 84.910246 81.969292 
L 84.964605 66.408378 
L 85.018963 75.065542 
L 85.073322 91.751077 
L 85.127681 85.181322 
L 85.18204 57.6588 
L 85.236399 98.421493 
L 85.290758 74.445009 
L 85.453835 45.466611 
L 85.508194 99.236955 
L 85.562553 92.037155 
L 85.72563 72.416156 
L 85.779988 65.81066 
L 85.834347 86.764069 
L 85.888706 79.296631 
L 85.943065 75.054669 
L 85.997424 75.279494 
L 86.051783 51.100044 
L 86.106142 55.934059 
L 86.323578 77.277391 
L 86.377937 54.194875 
L 86.432296 64.339342 
L 86.486655 111.716712 
L 86.541013 108.788996 
L 86.595372 58.441784 
L 86.649731 86.338658 
L 86.70409 82.826279 
L 86.758449 67.655929 
L 86.867167 100.730258 
L 86.921526 92.770313 
L 87.030244 60.901379 
L 87.084603 108.367355 
L 87.138962 50.772234 
L 87.193321 86.077747 
L 87.24768 85.264168 
L 87.302038 91.20515 
L 87.356397 69.604503 
L 87.410756 115.738685 
L 87.465115 68.582821 
L 87.573833 92.302479 
L 87.628192 33.183221 
L 87.682551 91.713979 
L 87.73691 84.609821 
L 87.791269 111.628558 
L 87.845628 92.429146 
L 87.899987 86.628061 
L 87.954346 67.611769 
L 88.008705 87.608006 
L 88.117422 87.232926 
L 88.171781 44.242147 
L 88.22614 76.592974 
L 88.334858 62.338866 
L 88.443576 83.746117 
L 88.497935 50.605464 
L 88.661012 104.320946 
L 88.715371 61.733035 
L 88.76973 84.613107 
L 88.824088 70.313946 
L 88.878447 93.83706 
L 88.932806 82.118794 
L 88.987165 39.776296 
L 89.041524 86.307595 
L 89.095883 78.845457 
L 89.204601 50.272326 
L 89.25896 77.764521 
L 89.313319 69.441307 
L 89.367678 41.785231 
L 89.476396 94.721851 
L 89.530755 68.769648 
L 89.585113 80.642959 
L 89.639472 86.776637 
L 89.74819 61.88587 
L 89.856908 109.694131 
L 89.965626 76.206133 
L 90.019985 81.242983 
L 90.074344 100.68484 
L 90.128703 71.831591 
L 90.183062 115.466142 
L 90.237421 70.336232 
L 90.29178 80.191507 
L 90.400497 50.01555 
L 90.454856 78.670588 
L 90.563574 78.011803 
L 90.617933 71.494658 
L 90.672292 72.159837 
L 90.726651 83.18587 
L 90.78101 72.610828 
L 90.889728 45.645829 
L 90.944087 76.884748 
L 90.998446 63.45788 
L 91.052805 71.718197 
L 91.107163 59.485351 
L 91.161522 66.851002 
L 91.324599 107.484906 
L 91.487676 63.760264 
L 91.650753 103.976178 
L 91.705112 63.422581 
L 91.759471 98.217075 
L 91.868188 51.136989 
L 91.922547 86.17548 
L 91.976906 85.020445 
L 92.031265 71.066523 
L 92.085624 85.746348 
L 92.194342 35.510385 
L 92.30306 103.160799 
L 92.357419 101.321137 
L 92.411778 41.646704 
L 92.466137 69.739672 
L 92.520496 82.242522 
L 92.574855 81.979066 
L 92.737931 68.792134 
L 92.79229 49.0246 
L 92.846649 68.262755 
L 92.901008 67.539697 
L 92.955367 62.108162 
L 93.009726 95.792883 
L 93.064085 75.868125 
L 93.118444 76.931285 
L 93.172803 104.792963 
L 93.281521 38.909402 
L 93.33588 59.618376 
L 93.390238 29.14066 
L 93.553315 95.815689 
L 93.607674 60.07282 
L 93.662033 97.548378 
L 93.716392 89.784226 
L 93.82511 55.631574 
L 93.879469 92.38269 
L 93.933828 64.06384 
L 94.042546 68.900894 
L 94.096905 60.375552 
L 94.151263 60.939172 
L 94.259981 76.783968 
L 94.31434 66.794651 
L 94.368699 116.156974 
L 94.423058 99.413424 
L 94.477417 54.19225 
L 94.531776 70.440304 
L 94.586135 89.362181 
L 94.640494 82.788995 
L 94.749212 74.637664 
L 94.803571 85.924539 
L 94.85793 52.173696 
L 94.912288 72.826376 
L 95.021006 83.245857 
L 95.184083 50.026995 
L 95.238442 97.207908 
L 95.292801 92.856329 
L 95.34716 55.226657 
L 95.401519 78.495757 
L 95.455878 72.512544 
L 95.510237 78.848998 
L 95.618955 64.755559 
L 95.782031 76.594174 
L 95.83639 70.839024 
L 95.890749 82.987906 
L 95.945108 70.336718 
L 95.999467 74.512824 
L 96.053826 63.203744 
L 96.108185 68.315483 
L 96.162544 69.143955 
L 96.216903 62.432995 
L 96.271262 63.45766 
L 96.325621 64.709743 
L 96.37998 77.881275 
L 96.434338 50.067562 
L 96.488697 73.057876 
L 96.543056 77.19953 
L 96.597415 96.097845 
L 96.651774 28.832626 
L 96.706133 125.899034 
L 96.760492 86.790824 
L 96.814851 55.879746 
L 96.86921 57.433367 
L 96.923569 58.552562 
L 96.977928 85.147144 
L 97.032287 81.691394 
L 97.086646 50.385489 
L 97.141005 94.87366 
L 97.195364 64.197489 
L 97.249722 63.884998 
L 97.304081 91.367633 
L 97.35844 76.225253 
L 97.412799 76.876619 
L 97.467158 87.613627 
L 97.521517 69.875363 
L 97.575876 119.874904 
L 97.630235 57.733058 
L 97.684594 104.091621 
L 97.738953 62.706088 
L 97.793312 113.553288 
L 97.847671 97.230606 
L 98.010747 47.078843 
L 98.282542 117.392624 
L 98.336901 66.798266 
L 98.39126 80.691415 
L 98.445619 104.641562 
L 98.608696 48.35013 
L 98.663055 111.644586 
L 98.717414 66.244704 
L 98.771772 68.064199 
L 98.826131 90.778722 
L 98.88049 88.78837 
L 98.934849 84.491951 
L 98.989208 54.250778 
L 99.152285 103.601749 
L 99.315362 36.263989 
L 99.478439 98.465484 
L 99.587156 75.287692 
L 99.641515 76.769426 
L 99.695874 124.793578 
L 99.750233 103.91001 
L 99.91331 54.585292 
L 99.967669 55.833932 
L 100.022028 78.175214 
L 100.076387 73.618991 
L 100.130746 60.236033 
L 100.185105 118.324981 
L 100.239464 61.576871 
L 100.293822 78.886801 
L 100.348181 43.667775 
L 100.40254 109.496693 
L 100.456899 84.605799 
L 100.565617 50.91756 
L 100.728694 100.556088 
L 100.783053 47.972941 
L 100.837412 71.264993 
L 100.891771 70.348891 
L 100.94613 43.397686 
L 101.109206 93.345636 
L 101.217924 63.437352 
L 101.326642 95.085353 
L 101.489719 59.297859 
L 101.598437 94.701937 
L 101.652796 74.307758 
L 101.707155 100.787376 
L 101.761514 71.83291 
L 101.815872 82.84393 
L 101.870231 84.076739 
L 101.92459 45.908746 
L 101.978949 72.815719 
L 102.142026 112.346599 
L 102.196385 47.322732 
L 102.250744 125.790684 
L 102.305103 97.695045 
L 102.413821 61.592892 
L 102.46818 65.21767 
L 102.631256 106.019656 
L 102.739974 80.373938 
L 102.794333 100.998221 
L 102.848692 83.935161 
L 102.903051 84.038444 
L 102.95741 86.816127 
L 103.011769 77.19117 
L 103.066128 84.026362 
L 103.174846 63.152158 
L 103.229205 28.946492 
L 103.337922 95.187937 
L 103.392281 83.788598 
L 103.44664 68.782791 
L 103.609717 95.867268 
L 103.664076 85.167004 
L 103.718435 87.683435 
L 103.772794 94.288142 
L 103.881512 36.490917 
L 103.99023 53.927272 
L 104.207665 86.940613 
L 104.262024 81.181266 
L 104.370742 110.649125 
L 104.47946 71.215737 
L 104.533819 78.896102 
L 104.588178 82.997469 
L 104.642537 106.630729 
L 104.805614 52.810984 
L 104.914331 85.168378 
L 104.96869 57.637587 
L 105.023049 90.741556 
L 105.077408 78.394484 
L 105.131767 77.681879 
L 105.240485 66.059673 
L 105.294844 80.982612 
L 105.349203 49.784661 
L 105.457921 108.826757 
L 105.566639 77.44124 
L 105.620997 80.756272 
L 105.675356 79.676186 
L 105.729715 57.686031 
L 105.784074 72.066918 
L 105.892792 59.405564 
L 106.00151 97.692594 
L 106.055869 88.302718 
L 106.164587 53.655937 
L 106.273305 104.87373 
L 106.327664 103.044437 
L 106.545099 64.713223 
L 106.653817 77.257545 
L 106.708176 75.704457 
L 106.762535 80.336231 
L 106.816894 60.982443 
L 106.979971 91.369389 
L 107.03433 82.728435 
L 107.088689 85.392608 
L 107.143047 102.086796 
L 107.251765 72.521721 
L 107.306124 79.593115 
L 107.414842 93.076647 
L 107.52356 45.595377 
L 107.577919 105.229229 
L 107.632278 86.431811 
L 107.795355 47.137336 
L 107.849714 51.439315 
L 108.01279 90.941482 
L 108.067149 81.310121 
L 108.121508 49.797535 
L 108.175867 64.944685 
L 108.230226 61.018398 
L 108.284585 93.643398 
L 108.338944 90.760759 
L 108.502021 55.268859 
L 108.55638 87.781751 
L 108.610739 49.483099 
L 108.665097 99.55325 
L 108.719456 63.377128 
L 108.773815 64.419438 
L 108.882533 74.52983 
L 108.936892 69.282793 
L 109.099969 79.32662 
L 109.154328 68.533241 
L 109.208687 69.034112 
L 109.263046 76.103629 
L 109.317405 71.421552 
L 109.371764 61.537174 
L 109.426122 86.867821 
L 109.480481 72.808222 
L 109.53484 54.539059 
L 109.589199 58.034714 
L 109.643558 100.154492 
L 109.697917 82.961442 
L 109.752276 57.788865 
L 109.806635 91.216288 
L 109.860994 70.708005 
L 109.915353 68.123208 
L 109.969712 71.503633 
L 110.024071 64.883286 
L 110.07843 66.130322 
L 110.132789 69.96976 
L 110.295865 96.676219 
L 110.350224 105.914943 
L 110.458942 76.631241 
L 110.513301 106.194325 
L 110.676378 53.957299 
L 110.730737 97.233998 
L 110.785096 69.154048 
L 110.839455 58.182471 
L 110.893814 62.94399 
L 111.002531 78.881567 
L 111.05689 76.720527 
L 111.111249 122.326296 
L 111.165608 51.613179 
L 111.219967 86.560418 
L 111.274326 58.758439 
L 111.383044 58.496679 
L 111.437403 97.682489 
L 111.491762 89.655058 
L 111.546121 55.147146 
L 111.60048 94.905904 
L 111.654839 79.621855 
L 111.709197 89.600438 
L 111.763556 78.418653 
L 111.817915 88.44218 
L 111.872274 83.110237 
L 111.926633 89.039253 
L 111.980992 55.278825 
L 112.035351 59.74458 
L 112.144069 103.17152 
L 112.307146 51.485373 
L 112.415864 92.315016 
L 112.470222 86.302986 
L 112.524581 91.289324 
L 112.57894 87.933195 
L 112.687658 68.731182 
L 112.796376 106.762288 
L 112.959453 49.254683 
L 113.013812 96.994529 
L 113.068171 76.914359 
L 113.176889 93.861176 
L 113.339965 51.161519 
L 113.503042 100.648587 
L 113.666119 41.064431 
L 113.829196 99.46412 
L 113.883555 98.635053 
L 114.046631 68.776756 
L 114.155349 99.278595 
L 114.209708 63.781249 
L 114.264067 68.756013 
L 114.318426 98.743931 
L 114.372785 93.292887 
L 114.427144 87.301054 
L 114.590221 56.450341 
L 114.64458 94.801266 
L 114.698939 77.900944 
L 114.753298 72.106342 
L 114.807656 86.46844 
L 114.862015 57.582784 
L 114.916374 63.166275 
L 114.970733 65.235269 
L 115.025092 56.28686 
L 115.13381 100.824332 
L 115.242528 55.728388 
L 115.351246 121.180374 
L 115.405605 34.541457 
L 115.459964 71.067235 
L 115.514323 88.237795 
L 115.568681 77.094566 
L 115.62304 80.636031 
L 115.731758 107.720229 
L 115.786117 52.821473 
L 115.840476 75.114672 
L 115.894835 92.339826 
L 116.003553 70.663179 
L 116.057912 89.596599 
L 116.112271 86.563796 
L 116.16663 69.351782 
L 116.220989 85.10472 
L 116.275348 122.231263 
L 116.329706 71.518218 
L 116.384065 84.126072 
L 116.547142 108.026494 
L 116.710219 69.653815 
L 116.764578 106.057141 
L 116.873296 64.216515 
L 116.927655 68.356997 
L 116.982014 50.192774 
L 117.036373 53.983085 
L 117.090731 88.219929 
L 117.14509 75.391301 
L 117.199449 75.713653 
L 117.253808 77.053817 
L 117.416885 52.516601 
L 117.471244 56.211683 
L 117.525603 53.911461 
L 117.579962 23.714617 
L 117.743039 81.196829 
L 117.797398 63.016384 
L 117.851756 65.279835 
L 117.906115 88.143305 
L 117.960474 71.980857 
L 118.069192 80.246483 
L 118.123551 110.20386 
L 118.17791 58.136343 
L 118.232269 72.261721 
L 118.286628 106.455252 
L 118.340987 75.883281 
L 118.395346 51.73482 
L 118.449705 94.383997 
L 118.504064 71.559067 
L 118.558423 63.238434 
L 118.721499 93.301574 
L 118.775858 87.360905 
L 118.830217 78.844516 
L 118.884576 95.385978 
L 118.938935 49.367697 
L 118.993294 56.490791 
L 119.047653 89.015377 
L 119.102012 74.040338 
L 119.156371 61.580787 
L 119.21073 98.824712 
L 119.265089 69.91648 
L 119.319448 41.678207 
L 119.373806 68.931126 
L 119.482524 90.44977 
L 119.536883 47.975364 
L 119.591242 78.182969 
L 119.645601 77.879546 
L 119.754319 69.370097 
L 119.808678 48.190002 
L 119.863037 62.821533 
L 119.917396 59.861179 
L 119.971755 89.249691 
L 120.026114 79.816496 
L 120.080473 83.765591 
L 120.134831 57.044393 
L 120.297908 100.652635 
L 120.515344 52.644107 
L 120.569703 81.786029 
L 120.624062 61.121752 
L 120.73278 95.443232 
L 120.787139 64.123928 
L 120.841498 64.374697 
L 120.895856 84.885876 
L 120.950215 77.509289 
L 121.004574 63.642474 
L 121.167651 86.695961 
L 121.22201 70.71834 
L 121.276369 95.598395 
L 121.330728 50.677864 
L 121.385087 54.634722 
L 121.439446 96.826378 
L 121.493805 75.967369 
L 121.548164 65.124186 
L 121.602523 107.504871 
L 121.656881 77.523589 
L 121.765599 66.775677 
L 121.819958 76.482543 
L 121.874317 48.575673 
L 121.928676 57.127812 
L 121.983035 60.711635 
L 122.146112 86.06189 
L 122.200471 96.04636 
L 122.25483 90.417618 
L 122.417906 72.572342 
L 122.472265 43.920036 
L 122.526624 93.818681 
L 122.580983 63.309277 
L 122.689701 94.996502 
L 122.852778 59.753103 
L 122.907137 74.532218 
L 123.015855 41.527865 
L 123.23329 87.220449 
L 123.396367 75.203544 
L 123.450726 91.873971 
L 123.505085 76.2206 
L 123.613803 91.818873 
L 123.668162 51.595921 
L 123.722521 82.924903 
L 123.77688 53.46497 
L 123.939956 97.399428 
L 124.048674 63.9341 
L 124.157392 96.886008 
L 124.211751 54.94958 
L 124.26611 71.684946 
L 124.320469 112.464951 
L 124.374828 87.424096 
L 124.429187 97.816525 
L 124.592264 62.566244 
L 124.700981 47.38722 
L 124.75534 49.480906 
L 124.809699 49.138428 
L 124.918417 92.015551 
L 124.972776 71.196926 
L 125.027135 52.478208 
L 125.135853 118.788916 
L 125.244571 84.561819 
L 125.29893 110.673962 
L 125.407648 54.999454 
L 125.462006 108.791718 
L 125.516365 94.135072 
L 125.570724 71.991726 
L 125.625083 90.934213 
L 125.679442 98.126885 
L 125.78816 72.171692 
L 125.842519 74.578198 
L 125.951237 105.274285 
L 126.005596 97.580669 
L 126.168673 53.935751 
L 126.27739 95.352147 
L 126.331749 62.575832 
L 126.386108 95.534295 
L 126.440467 81.992175 
L 126.494826 86.73627 
L 126.549185 84.441805 
L 126.603544 64.242007 
L 126.657903 107.866698 
L 126.712262 91.533213 
L 126.766621 81.266461 
L 126.82098 95.911056 
L 126.984056 51.411137 
L 127.092774 87.362087 
L 127.147133 82.063565 
L 127.201492 82.732757 
L 127.255851 86.703538 
L 127.31021 81.806445 
L 127.364569 65.593261 
L 127.418928 81.057462 
L 127.473287 71.198981 
L 127.527646 77.273794 
L 127.582005 89.66527 
L 127.636364 29.802961 
L 127.636364 29.802961 
" clip-path="url(#pf5d4bd5fa4)" style="fill: none; stroke: #66c2a5; stroke-width: 1.5; stroke-linecap: square"/>
   </g>
   <g id="patch_3">
    <path d="M 10.8 133.2 
L 10.8 10.8 
" style="fill: none; stroke: #000000; stroke-width: 0.8; stroke-linejoin: miter; stroke-linecap: square"/>
   </g>
   <g id="patch_4">
    <path d="M 133.2 133.2 
L 133.2 10.8 
" style="fill: none; stroke: #000000; stroke-width: 0.8; stroke-linejoin: miter; stroke-linecap: square"/>
   </g>
   <g id="patch_5">
    <path d="M 10.8 133.2 
L 133.2 133.2 
" style="fill: none; stroke: #000000; stroke-width: 0.8; stroke-linejoin: miter; stroke-linecap: square"/>
   </g>
   <g id="patch_6">
    <path d="M 10.8 10.8 
L 133.2 10.8 
" style="fill: none; stroke: #000000; stroke-width: 0.8; stroke-linejoin: miter; stroke-linecap: square"/>
   </g>
  </g>
 </g>
 <defs>
  <clipPath id="pf5d4bd5fa4">
   <rect x="10.8" y="10.8" width="122.4" height="122.4"/>
  </clipPath>
 </defs>
</svg>
