<?xml version="1.0" encoding="utf-8" standalone="no"?>
<!DOCTYPE svg PUBLIC "-//W3C//DTD SVG 1.1//EN"
  "http://www.w3.org/Graphics/SVG/1.1/DTD/svg11.dtd">
<svg xmlns:xlink="http://www.w3.org/1999/xlink" width="144pt" height="144pt" viewBox="0 0 144 144" xmlns="http://www.w3.org/2000/svg" version="1.1">
 <metadata>
  <rdf:RDF xmlns:dc="http://purl.org/dc/elements/1.1/" xmlns:cc="http://creativecommons.org/ns#" xmlns:rdf="http://www.w3.org/1999/02/22-rdf-syntax-ns#">
   <cc:Work>
    <dc:type rdf:resource="http://purl.org/dc/dcmitype/StillImage"/>
    <dc:date>2025-02-07T11:07:19.650826</dc:date>
    <dc:format>image/svg+xml</dc:format>
    <dc:creator>
     <cc:Agent>
      <dc:title>Matplotlib v3.8.0, https://matplotlib.org/</dc:title>
     </cc:Agent>
    </dc:creator>
   </cc:Work>
  </rdf:RDF>
 </metadata>
 <defs>
  <style type="text/css">*{stroke-linejoin: round; stroke-linecap: butt}</style>
 </defs>
 <g id="figure_1">
  <g id="patch_1">
   <path d="M 0 144 
L 144 144 
L 144 0 
L 0 0 
L 0 144 
z
" style="fill: none"/>
  </g>
  <g id="axes_1">
   <g id="patch_2">
    <path d="M 10.8 133.2 
L 133.2 133.2 
L 133.2 10.8 
L 10.8 10.8 
L 10.8 133.2 
z
" style="fill: none"/>
   </g>
   <g id="matplotlib.axis_1"/>
   <g id="matplotlib.axis_2"/>
   <g id="line2d_1">
    <path d="M 16.363636 59.312619 
L 16.417995 70.14135 
L 16.526713 44.085984 
L 16.581072 72.850772 
L 16.635431 44.14117 
L 16.852867 76.85992 
L 16.907226 75.975006 
L 16.961585 70.960265 
L 17.015944 90.359404 
L 17.17902 52.568178 
L 17.287738 71.861291 
L 17.342097 59.902045 
L 17.505174 86.25552 
L 17.613892 40.90873 
L 17.776969 81.388205 
L 17.885686 71.25348 
L 17.940045 89.589133 
L 17.994404 54.012631 
L 18.048763 105.95391 
L 18.103122 75.834811 
L 18.157481 69.213806 
L 18.21184 40.393574 
L 18.266199 46.332559 
L 18.483635 91.163213 
L 18.537994 89.932053 
L 18.592352 47.163739 
L 18.646711 51.4755 
L 18.70107 69.791985 
L 18.755429 48.50407 
L 18.809788 74.090608 
L 18.864147 59.006019 
L 18.918506 33.807609 
L 18.972865 92.323977 
L 19.027224 57.66574 
L 19.190301 104.07029 
L 19.299019 48.966254 
L 19.353377 94.254887 
L 19.407736 83.188718 
L 19.516454 45.136487 
L 19.570813 76.602198 
L 19.625172 54.663509 
L 19.679531 70.622225 
L 19.73389 30.298329 
L 19.788249 63.031956 
L 19.842608 72.738749 
L 19.896967 50.348967 
L 19.951326 56.194287 
L 20.114402 86.985638 
L 20.22312 66.401549 
L 20.277479 103.702971 
L 20.331838 76.292155 
L 20.440556 57.832278 
L 20.494915 67.535223 
L 20.603633 41.962984 
L 20.712351 91.360732 
L 20.821069 54.596726 
L 20.875427 65.814722 
L 20.929786 63.409863 
L 21.092863 46.229277 
L 21.147222 91.631633 
L 21.201581 60.792036 
L 21.25594 74.112952 
L 21.310299 45.380678 
L 21.364658 77.281732 
L 21.419017 72.093844 
L 21.527735 65.698193 
L 21.582094 46.040545 
L 21.636452 57.510749 
L 21.74517 110.577973 
L 21.799529 40.190749 
L 21.853888 70.862253 
L 21.908247 89.512105 
L 21.962606 72.414283 
L 22.016965 75.902434 
L 22.071324 49.942135 
L 22.125683 58.745591 
L 22.234401 74.780547 
L 22.343119 49.476368 
L 22.506195 68.087564 
L 22.560554 68.657136 
L 22.614913 56.144614 
L 22.77799 91.739432 
L 22.832349 56.769268 
L 22.886708 63.040779 
L 22.995426 87.473064 
L 23.158502 40.314188 
L 23.212861 56.891323 
L 23.26722 79.704669 
L 23.321579 47.195247 
L 23.375938 102.054621 
L 23.430297 76.277293 
L 23.484656 57.566195 
L 23.539015 94.154511 
L 23.593374 79.203958 
L 23.756451 69.223674 
L 23.81081 97.636184 
L 23.865169 65.142305 
L 23.919527 68.238712 
L 23.973886 82.370802 
L 24.028245 57.087669 
L 24.082604 65.256946 
L 24.136963 62.600434 
L 24.191322 82.792593 
L 24.245681 77.822686 
L 24.30004 79.544733 
L 24.408758 52.155712 
L 24.463117 77.733366 
L 24.517476 71.593084 
L 24.626194 40.923254 
L 24.734911 90.793056 
L 24.843629 55.343333 
L 24.897988 71.286829 
L 24.952347 73.290813 
L 25.006706 39.483978 
L 25.061065 86.763395 
L 25.115424 69.955052 
L 25.169783 61.956164 
L 25.224142 90.002073 
L 25.387219 24.927853 
L 25.550295 64.132803 
L 25.604654 64.365218 
L 25.659013 56.053332 
L 25.713372 83.407554 
L 25.767731 63.000198 
L 25.82209 62.961785 
L 25.876449 41.557317 
L 26.093885 101.548024 
L 26.148244 42.81058 
L 26.202602 87.630376 
L 26.256961 55.866201 
L 26.31132 74.490102 
L 26.474397 42.419782 
L 26.528756 47.109428 
L 26.691833 90.805633 
L 26.746192 43.503029 
L 26.800551 66.667298 
L 26.909269 36.62899 
L 27.072345 83.684745 
L 27.126704 58.336103 
L 27.181063 71.273039 
L 27.235422 89.216075 
L 27.289781 47.783943 
L 27.34414 52.037498 
L 27.398499 49.803355 
L 27.452858 29.320137 
L 27.507217 61.587917 
L 27.561576 53.899161 
L 27.670294 45.758995 
L 27.779011 103.626233 
L 27.83337 46.41578 
L 27.887729 76.262767 
L 27.996447 59.074221 
L 28.159524 101.67262 
L 28.268242 51.4919 
L 28.37696 74.205556 
L 28.485677 47.797854 
L 28.540036 88.127309 
L 28.594395 82.543593 
L 28.703113 59.467036 
L 28.757472 66.17196 
L 28.86619 55.220592 
L 28.920549 72.595137 
L 28.974908 54.173633 
L 29.029267 60.979803 
L 29.137985 65.628119 
L 29.192344 48.468572 
L 29.246702 91.537161 
L 29.301061 76.565693 
L 29.464138 35.54303 
L 29.572856 80.779663 
L 29.627215 27.524851 
L 29.681574 79.037852 
L 29.735933 42.051738 
L 29.790292 90.505938 
L 29.844651 40.052735 
L 29.89901 45.951808 
L 29.953369 86.260883 
L 30.007727 66.942912 
L 30.116445 42.781794 
L 30.170804 56.475285 
L 30.225163 41.256236 
L 30.279522 54.13004 
L 30.38824 95.368923 
L 30.496958 33.205351 
L 30.605676 84.387221 
L 30.660035 58.417153 
L 30.714394 38.539345 
L 30.768752 127.636364 
L 30.823111 42.157678 
L 30.986188 78.881945 
L 31.040547 75.203731 
L 31.149265 28.654282 
L 31.312342 77.640419 
L 31.475419 45.190788 
L 31.638495 94.421835 
L 31.692854 88.819768 
L 31.801572 40.815844 
L 31.855931 41.664429 
L 31.964649 83.978163 
L 32.073367 83.709179 
L 32.127726 59.522154 
L 32.182085 93.891066 
L 32.236444 52.412488 
L 32.290803 64.618866 
L 32.345161 95.481929 
L 32.453879 59.218015 
L 32.508238 98.857299 
L 32.562597 89.66621 
L 32.725674 53.751783 
L 32.780033 45.106348 
L 32.834392 83.224119 
L 32.888751 58.256578 
L 32.94311 81.006016 
L 32.997469 58.000213 
L 33.051828 80.345854 
L 33.160545 52.194532 
L 33.214904 84.796252 
L 33.269263 28.909393 
L 33.323622 76.934715 
L 33.377981 49.600851 
L 33.43234 71.876981 
L 33.486699 77.141263 
L 33.541058 53.907786 
L 33.595417 82.204399 
L 33.649776 60.373229 
L 33.704135 59.912109 
L 33.758494 69.554447 
L 33.812853 40.974076 
L 33.867211 77.910954 
L 33.92157 62.039609 
L 33.975929 62.50486 
L 34.193365 95.356687 
L 34.356442 37.111478 
L 34.46516 88.544731 
L 34.628236 40.126309 
L 34.736954 92.540182 
L 34.791313 49.523905 
L 34.845672 58.100149 
L 34.900031 95.557176 
L 34.95439 27.970617 
L 35.008749 55.128316 
L 35.063108 60.080363 
L 35.117467 54.93598 
L 35.171826 50.713412 
L 35.226185 76.602185 
L 35.280544 53.741434 
L 35.334903 74.20247 
L 35.389261 73.755617 
L 35.44362 68.68248 
L 35.497979 73.726417 
L 35.552338 105.626784 
L 35.606697 76.673824 
L 35.661056 50.385003 
L 35.824133 87.179377 
L 35.98721 44.754083 
L 36.041569 80.797829 
L 36.095928 77.482286 
L 36.204645 38.702809 
L 36.259004 54.590014 
L 36.313363 49.325331 
L 36.367722 67.48618 
L 36.422081 24.486341 
L 36.47644 66.72766 
L 36.585158 48.21432 
L 36.748235 82.056133 
L 36.856953 58.149529 
L 37.074388 107.976356 
L 37.237465 62.78735 
L 37.291824 34.721566 
L 37.346183 42.023137 
L 37.454901 78.862882 
L 37.617978 51.680774 
L 37.672336 67.768145 
L 37.726695 48.28289 
L 37.781054 72.476009 
L 37.835413 49.148479 
L 37.944131 43.032642 
L 37.99849 17.244424 
L 38.215926 83.309775 
L 38.270285 54.590803 
L 38.324644 98.059175 
L 38.379003 74.128377 
L 38.433361 89.81774 
L 38.596438 34.051386 
L 38.705156 81.616517 
L 38.759515 78.623447 
L 38.813874 76.681042 
L 38.868233 98.452342 
L 38.922592 81.892743 
L 38.976951 81.161189 
L 39.140028 65.705646 
L 39.194386 42.463081 
L 39.248745 54.131596 
L 39.357463 97.750646 
L 39.411822 71.224258 
L 39.52054 31.642997 
L 39.629258 67.890987 
L 39.683617 25.837232 
L 39.737976 43.295345 
L 39.792335 73.917695 
L 39.846694 60.757134 
L 39.955411 68.936602 
L 40.00977 47.72444 
L 40.064129 105.195222 
L 40.118488 75.704888 
L 40.172847 83.457657 
L 40.227206 55.456794 
L 40.281565 61.850271 
L 40.335924 60.487088 
L 40.390283 79.199375 
L 40.444642 41.486771 
L 40.607719 86.630271 
L 40.662078 86.303238 
L 40.770795 64.051356 
L 40.825154 66.136201 
L 40.879513 54.137562 
L 40.933872 72.582844 
L 40.988231 48.55905 
L 41.096949 97.646988 
L 41.151308 62.302055 
L 41.205667 66.172947 
L 41.260026 67.087623 
L 41.423103 88.203208 
L 41.477461 51.708027 
L 41.53182 72.222219 
L 41.640538 48.081775 
L 41.694897 103.100314 
L 41.749256 47.966479 
L 41.803615 46.581459 
L 41.857974 55.591936 
L 41.912333 38.776273 
L 41.966692 87.386659 
L 42.021051 48.542579 
L 42.184128 105.716551 
L 42.238486 99.015493 
L 42.292845 47.446194 
L 42.347204 72.872032 
L 42.401563 52.786922 
L 42.510281 53.212931 
L 42.56464 78.361909 
L 42.618999 47.225802 
L 42.673358 61.109501 
L 42.836435 45.362083 
L 42.890794 84.293635 
L 42.945153 49.393448 
L 42.999511 47.639541 
L 43.108229 80.440824 
L 43.162588 70.45278 
L 43.216947 83.665416 
L 43.271306 45.846144 
L 43.325665 62.880891 
L 43.380024 50.13782 
L 43.434383 81.701493 
L 43.543101 81.259544 
L 43.651819 39.169187 
L 43.706178 54.937126 
L 43.760536 51.722697 
L 43.814895 80.013467 
L 43.869254 79.925483 
L 44.032331 39.64484 
L 44.08669 58.124092 
L 44.141049 26.002854 
L 44.195408 54.114518 
L 44.304126 74.565234 
L 44.358485 70.897478 
L 44.412844 57.327541 
L 44.467203 60.177167 
L 44.521561 77.831568 
L 44.57592 66.099557 
L 44.630279 63.066194 
L 44.684638 70.968162 
L 44.738997 68.370138 
L 44.847715 64.085194 
L 44.956433 89.112615 
L 45.010792 75.49228 
L 45.065151 36.067386 
L 45.11951 57.922645 
L 45.173869 53.509852 
L 45.282586 72.962923 
L 45.336945 72.483034 
L 45.391304 85.456087 
L 45.445663 32.179494 
L 45.500022 52.659432 
L 45.554381 48.260423 
L 45.60874 74.818412 
L 45.663099 50.01511 
L 45.717458 44.702054 
L 45.771817 65.113666 
L 45.826176 63.039869 
L 45.880535 62.2656 
L 45.934894 31.371177 
L 46.043611 103.636662 
L 46.09797 28.982981 
L 46.152329 74.071185 
L 46.206688 69.851513 
L 46.261047 73.777879 
L 46.315406 89.963685 
L 46.369765 80.606386 
L 46.478483 36.817126 
L 46.532842 53.714242 
L 46.587201 66.235468 
L 46.64156 45.460629 
L 46.804636 71.500889 
L 46.967713 59.344484 
L 47.022072 90.274899 
L 47.076431 73.407553 
L 47.13079 83.057247 
L 47.185149 64.090389 
L 47.239508 72.932184 
L 47.348226 59.330054 
L 47.402585 51.013181 
L 47.456944 53.588364 
L 47.511303 79.17206 
L 47.565662 78.851784 
L 47.62002 51.831318 
L 47.674379 63.581018 
L 47.728738 61.293004 
L 47.783097 67.30983 
L 47.837456 58.490798 
L 47.891815 78.632391 
L 47.946174 63.694511 
L 48.109251 75.178666 
L 48.272328 40.472615 
L 48.326687 101.925005 
L 48.381045 61.268128 
L 48.544122 85.077509 
L 48.598481 52.274938 
L 48.65284 90.392416 
L 48.707199 66.961009 
L 48.815917 35.526674 
L 48.870276 83.802557 
L 48.924635 70.899639 
L 48.978994 60.246313 
L 49.033353 64.812903 
L 49.087712 82.524012 
L 49.14207 55.491137 
L 49.196429 82.10656 
L 49.359506 37.379 
L 49.522583 81.828341 
L 49.576942 56.058798 
L 49.631301 104.558118 
L 49.68566 61.10795 
L 49.740019 52.539209 
L 49.848737 91.86496 
L 50.011813 42.233823 
L 50.17489 66.331105 
L 50.229249 61.864766 
L 50.392326 73.595544 
L 50.446685 70.976229 
L 50.501044 37.822405 
L 50.555403 44.678315 
L 50.718479 80.598274 
L 50.772838 58.838686 
L 50.827197 76.359492 
L 50.990274 42.5828 
L 51.044633 88.494343 
L 51.098992 58.731071 
L 51.153351 72.191842 
L 51.20771 31.683095 
L 51.262069 61.812243 
L 51.316428 63.760151 
L 51.425145 49.356481 
L 51.588222 91.989842 
L 51.69694 46.462946 
L 51.751299 85.918787 
L 51.805658 70.920998 
L 51.860017 72.620926 
L 51.914376 80.81931 
L 51.968735 47.028485 
L 52.023094 93.942135 
L 52.077453 25.525293 
L 52.131812 40.144396 
L 52.240529 80.309168 
L 52.403606 60.805453 
L 52.457965 64.063008 
L 52.512324 79.248797 
L 52.621042 41.402449 
L 52.675401 72.642503 
L 52.72976 57.158216 
L 52.892837 77.961495 
L 52.947195 40.164048 
L 53.001554 44.271425 
L 53.110272 83.919853 
L 53.164631 57.182668 
L 53.21899 87.910482 
L 53.273349 80.171445 
L 53.327708 86.330283 
L 53.382067 83.717197 
L 53.436426 36.126102 
L 53.599503 110.023908 
L 53.762579 49.032104 
L 53.816938 57.0449 
L 53.871297 30.328172 
L 53.925656 67.170192 
L 53.980015 54.207128 
L 54.034374 52.286492 
L 54.088733 77.85085 
L 54.143092 40.884466 
L 54.197451 67.975575 
L 54.25181 53.345132 
L 54.306169 94.376958 
L 54.360528 78.250201 
L 54.577963 34.121534 
L 54.632322 46.087705 
L 54.795399 79.112974 
L 54.958476 60.01205 
L 55.012835 65.864082 
L 55.067194 84.267443 
L 55.121553 74.737544 
L 55.175912 65.458999 
L 55.23027 69.768714 
L 55.284629 69.558763 
L 55.338988 79.360838 
L 55.447706 51.797042 
L 55.502065 75.513812 
L 55.556424 69.455841 
L 55.610783 73.747467 
L 55.719501 64.137551 
L 55.77386 84.661743 
L 55.828219 68.674278 
L 55.882578 78.552477 
L 55.936937 43.481261 
L 55.991295 65.933663 
L 56.100013 80.949708 
L 56.154372 60.933664 
L 56.208731 91.978199 
L 56.26309 76.2991 
L 56.317449 75.839065 
L 56.371808 44.678365 
L 56.426167 93.735215 
L 56.480526 77.910971 
L 56.534885 66.545914 
L 56.589244 87.776738 
L 56.643603 81.146593 
L 56.806679 45.935022 
L 56.861038 88.507495 
L 56.915397 64.995502 
L 56.969756 76.979711 
L 57.132833 39.996415 
L 57.241551 83.366962 
L 57.29591 72.569266 
L 57.404628 73.21073 
L 57.458987 41.818513 
L 57.513345 50.570205 
L 57.622063 82.637995 
L 57.676422 69.641531 
L 57.730781 82.659052 
L 57.78514 86.32556 
L 57.893858 51.191745 
L 57.948217 52.323031 
L 58.002576 80.101212 
L 58.056935 70.420695 
L 58.111294 52.445784 
L 58.165653 72.164404 
L 58.220012 69.161544 
L 58.27437 66.562349 
L 58.328729 35.30726 
L 58.383088 77.334168 
L 58.437447 62.838303 
L 58.491806 59.296671 
L 58.546165 43.926651 
L 58.709242 105.578172 
L 58.81796 39.595939 
L 58.926678 81.362926 
L 58.981037 36.120135 
L 59.035395 64.45119 
L 59.089754 81.298889 
L 59.144113 66.443037 
L 59.198472 72.626637 
L 59.252831 18.351824 
L 59.30719 90.510116 
L 59.361549 81.831803 
L 59.415908 80.169802 
L 59.470267 69.571413 
L 59.524626 97.421473 
L 59.578985 65.546306 
L 59.633344 66.567085 
L 59.687703 84.752251 
L 59.742062 81.059404 
L 59.850779 41.191166 
L 59.959497 91.578894 
L 60.013856 56.515934 
L 60.068215 79.731033 
L 60.122574 87.34369 
L 60.231292 49.842801 
L 60.285651 70.24428 
L 60.34001 69.621546 
L 60.394369 64.613133 
L 60.503087 70.87052 
L 60.611804 54.539575 
L 60.666163 85.469738 
L 60.720522 67.047953 
L 60.774881 83.209268 
L 60.82924 50.546032 
L 60.883599 60.443156 
L 60.937958 60.956982 
L 60.992317 72.948074 
L 61.046676 71.967284 
L 61.101035 39.569746 
L 61.155394 77.075757 
L 61.209753 57.30813 
L 61.31847 73.342249 
L 61.372829 66.949718 
L 61.427188 30.723707 
L 61.481547 97.569921 
L 61.535906 32.015482 
L 61.590265 73.801799 
L 61.644624 32.213998 
L 61.807701 86.218778 
L 61.916419 19.505071 
L 61.970778 46.073076 
L 62.079495 76.277783 
L 62.133854 44.536734 
L 62.188213 76.590126 
L 62.405649 47.125553 
L 62.460008 88.253858 
L 62.514367 66.397317 
L 62.568726 74.929831 
L 62.623085 49.391446 
L 62.677444 66.755506 
L 62.731803 95.451496 
L 62.786162 75.329221 
L 62.84052 71.930874 
L 62.894879 80.078929 
L 63.112315 24.355655 
L 63.166674 82.036125 
L 63.275392 80.922089 
L 63.329751 58.250024 
L 63.38411 97.499508 
L 63.547187 47.407661 
L 63.601545 49.117717 
L 63.710263 71.076865 
L 63.764622 62.205216 
L 63.818981 71.484015 
L 63.87334 67.386568 
L 63.927699 37.4084 
L 63.982058 83.810733 
L 64.036417 30.183641 
L 64.090776 58.894981 
L 64.145135 41.551982 
L 64.253853 67.375125 
L 64.362571 18.785911 
L 64.416929 71.037241 
L 64.471288 43.145528 
L 64.525647 50.711971 
L 64.580006 86.897104 
L 64.634365 53.842986 
L 64.688724 53.726686 
L 64.743083 104.518424 
L 64.797442 82.872149 
L 64.851801 56.207797 
L 64.90616 92.645796 
L 64.960519 60.501765 
L 65.014878 64.036993 
L 65.069237 44.07632 
L 65.123596 86.675489 
L 65.177954 34.590271 
L 65.232313 75.834183 
L 65.286672 79.309064 
L 65.449749 32.98797 
L 65.558467 71.769015 
L 65.612826 68.277839 
L 65.667185 48.339836 
L 65.721544 66.592418 
L 65.775903 104.737575 
L 65.938979 39.747195 
L 65.993338 42.971433 
L 66.047697 71.729591 
L 66.102056 67.478996 
L 66.210774 41.378498 
L 66.265133 58.881108 
L 66.319492 55.914515 
L 66.373851 55.152547 
L 66.591287 70.871232 
L 66.645646 53.710564 
L 66.700004 81.610136 
L 66.808722 44.102113 
L 66.863081 70.631942 
L 66.91744 66.479069 
L 66.971799 43.886911 
L 67.026158 61.485285 
L 67.189235 90.093248 
L 67.297953 62.400841 
L 67.352312 65.411333 
L 67.406671 69.23642 
L 67.461029 67.025131 
L 67.515388 60.167644 
L 67.569747 67.386753 
L 67.678465 40.067454 
L 67.732824 90.928394 
L 67.787183 43.977578 
L 67.841542 77.865506 
L 67.895901 46.361785 
L 68.058978 68.02476 
L 68.113337 47.685879 
L 68.167696 59.584026 
L 68.222054 75.023988 
L 68.276413 55.534863 
L 68.330772 93.238302 
L 68.385131 70.922175 
L 68.43949 67.385954 
L 68.493849 49.912726 
L 68.548208 55.422745 
L 68.602567 62.835805 
L 68.765644 20.992038 
L 68.874362 90.1724 
L 68.928721 68.825641 
L 68.983079 46.093823 
L 69.037438 60.024124 
L 69.091797 61.765629 
L 69.146156 78.344875 
L 69.200515 74.743891 
L 69.254874 41.691816 
L 69.309233 75.302742 
L 69.47231 64.203275 
L 69.526669 70.040635 
L 69.581028 64.87279 
L 69.635387 64.880214 
L 69.689746 50.522017 
L 69.798463 99.613713 
L 69.852822 59.603995 
L 69.907181 75.971408 
L 69.96154 64.318587 
L 70.070258 97.72489 
L 70.124617 57.901557 
L 70.178976 73.375754 
L 70.233335 83.818743 
L 70.287694 42.333096 
L 70.342053 79.924177 
L 70.396412 91.748859 
L 70.450771 69.050054 
L 70.505129 75.735569 
L 70.559488 81.000397 
L 70.613847 47.348731 
L 70.668206 83.229096 
L 70.722565 82.376579 
L 70.776924 44.821687 
L 70.831283 72.674546 
L 70.940001 46.073674 
L 70.99436 67.511712 
L 71.048719 62.167618 
L 71.103078 42.157223 
L 71.157437 82.988129 
L 71.211796 55.660605 
L 71.266154 25.014127 
L 71.320513 77.353225 
L 71.374872 75.175209 
L 71.429231 61.379263 
L 71.48359 62.299296 
L 71.537949 65.491117 
L 71.592308 64.898723 
L 71.646667 57.635035 
L 71.701026 69.328589 
L 71.755385 25.516901 
L 71.809744 64.136726 
L 71.864103 73.580211 
L 71.918462 64.308822 
L 71.972821 59.566269 
L 72.027179 83.453117 
L 72.081538 79.869786 
L 72.135897 81.404541 
L 72.190256 75.021646 
L 72.244615 45.605384 
L 72.298974 53.397537 
L 72.353333 83.078402 
L 72.407692 53.715309 
L 72.51641 80.189671 
L 72.570769 79.325773 
L 72.625128 47.054234 
L 72.679487 47.608773 
L 72.733846 56.689371 
L 72.788204 41.152629 
L 72.951281 92.169275 
L 73.00564 91.675227 
L 73.059999 52.466372 
L 73.114358 98.49217 
L 73.168717 37.550707 
L 73.223076 72.258994 
L 73.277435 78.197751 
L 73.331794 73.825113 
L 73.386153 53.792145 
L 73.440512 115.720772 
L 73.494871 51.22147 
L 73.549229 78.485749 
L 73.603588 51.756157 
L 73.712306 101.15783 
L 73.766665 78.069818 
L 73.821024 50.622798 
L 73.875383 71.351802 
L 73.929742 57.0432 
L 73.984101 87.608095 
L 74.03846 29.546134 
L 74.092819 79.248924 
L 74.147178 44.845852 
L 74.201537 69.591872 
L 74.255896 78.46095 
L 74.310254 74.444331 
L 74.364613 56.690639 
L 74.418972 84.515108 
L 74.473331 46.690075 
L 74.52769 85.891909 
L 74.582049 57.176498 
L 74.636408 64.613084 
L 74.690767 90.881433 
L 74.745126 45.192702 
L 74.799485 54.209846 
L 74.853844 60.759607 
L 74.908203 47.93355 
L 75.071279 80.459492 
L 75.125638 33.752513 
L 75.179997 64.493922 
L 75.234356 42.490004 
L 75.288715 59.734917 
L 75.343074 54.433183 
L 75.397433 65.142835 
L 75.451792 33.042064 
L 75.56051 89.94222 
L 75.614869 47.168115 
L 75.669228 64.794257 
L 75.723587 53.220724 
L 75.777946 75.14729 
L 75.832304 41.755127 
L 75.886663 55.592661 
L 75.941022 75.057317 
L 76.04974 42.947683 
L 76.212817 79.287173 
L 76.267176 71.250029 
L 76.321535 35.152784 
L 76.375894 69.152288 
L 76.430253 75.057583 
L 76.484612 53.336972 
L 76.538971 83.604258 
L 76.593329 45.27681 
L 76.647688 46.9494 
L 76.702047 67.529261 
L 76.756406 51.778216 
L 76.810765 38.184434 
L 76.865124 52.045071 
L 76.973842 75.480707 
L 77.08256 57.733959 
L 77.136919 69.260975 
L 77.245637 44.828835 
L 77.354354 88.551681 
L 77.408713 85.41818 
L 77.463072 51.246039 
L 77.517431 57.966789 
L 77.626149 71.924619 
L 77.680508 69.316368 
L 77.734867 47.06017 
L 77.789226 79.925359 
L 77.843585 71.977092 
L 77.897944 47.600244 
L 77.952303 81.214473 
L 78.006662 67.383505 
L 78.061021 72.822711 
L 78.115379 64.073496 
L 78.169738 96.064313 
L 78.224097 75.552091 
L 78.278456 85.500973 
L 78.387174 39.32617 
L 78.441533 42.920407 
L 78.495892 75.934926 
L 78.550251 53.642295 
L 78.658969 49.766224 
L 78.713328 62.329525 
L 78.767687 28.314415 
L 78.822046 83.068421 
L 78.876404 38.700589 
L 78.985122 79.13889 
L 79.148199 37.548013 
L 79.419994 67.451437 
L 79.528712 97.345452 
L 79.637429 38.065603 
L 79.691788 84.734434 
L 79.746147 80.856365 
L 79.800506 79.441271 
L 79.854865 48.568354 
L 79.909224 75.180543 
L 79.963583 74.245066 
L 80.017942 38.058585 
L 80.072301 48.712597 
L 80.181019 78.271259 
L 80.235378 53.091492 
L 80.289737 58.013186 
L 80.344096 55.990975 
L 80.452813 77.166956 
L 80.561531 71.239093 
L 80.61589 69.100616 
L 80.724608 55.016837 
L 80.833326 72.304427 
L 80.887685 65.26735 
L 80.942044 51.778776 
L 81.050762 75.372288 
L 81.105121 60.696793 
L 81.15948 68.731441 
L 81.213838 91.480174 
L 81.376915 42.710328 
L 81.431274 93.463783 
L 81.485633 59.432029 
L 81.539992 73.650796 
L 81.64871 73.311241 
L 81.703069 83.482089 
L 81.757428 59.793128 
L 81.811787 91.71034 
L 81.920505 39.574671 
L 81.974863 51.780747 
L 82.029222 99.655379 
L 82.083581 61.571773 
L 82.192299 100.364247 
L 82.301017 64.773807 
L 82.355376 83.011018 
L 82.409735 61.57734 
L 82.464094 65.002962 
L 82.518453 85.844198 
L 82.68153 30.766566 
L 82.735888 82.17945 
L 82.790247 60.121705 
L 82.898965 75.099766 
L 82.953324 67.039613 
L 83.007683 65.811277 
L 83.062042 65.897222 
L 83.116401 27.090372 
L 83.17076 45.172389 
L 83.225119 77.165912 
L 83.279478 74.494811 
L 83.333837 63.90486 
L 83.388196 73.014422 
L 83.496913 85.039093 
L 83.551272 52.954622 
L 83.605631 94.843517 
L 83.65999 84.94391 
L 83.823067 55.802237 
L 84.040503 91.377831 
L 84.20358 47.681563 
L 84.312297 89.664765 
L 84.475374 58.067177 
L 84.529733 90.492555 
L 84.584092 67.350987 
L 84.638451 81.780372 
L 84.69281 71.874669 
L 84.747169 54.081689 
L 84.855887 106.460594 
L 84.964605 24.370836 
L 85.018963 42.350983 
L 85.073322 76.168552 
L 85.127681 70.243227 
L 85.290758 51.956342 
L 85.508194 97.197481 
L 85.671271 18.115352 
L 85.834347 72.604093 
L 85.888706 47.436968 
L 85.943065 51.557882 
L 86.051783 67.200973 
L 86.106142 66.241709 
L 86.21486 50.234309 
L 86.269219 73.55532 
L 86.323578 70.111232 
L 86.377937 66.489582 
L 86.432296 49.997953 
L 86.486655 75.949064 
L 86.541013 51.536055 
L 86.595372 52.09509 
L 86.649731 45.507312 
L 86.70409 70.707825 
L 86.758449 62.179273 
L 86.812808 69.583228 
L 86.867167 63.791522 
L 86.921526 51.43127 
L 86.975885 107.97493 
L 87.030244 51.659015 
L 87.193321 79.507842 
L 87.302038 25.613751 
L 87.356397 82.02152 
L 87.410756 62.210017 
L 87.519474 51.29495 
L 87.573833 79.104715 
L 87.628192 61.342275 
L 87.682551 75.02135 
L 87.791269 37.739563 
L 87.845628 71.864126 
L 87.899987 57.764139 
L 87.954346 43.641756 
L 88.008705 93.194662 
L 88.063063 60.051787 
L 88.117422 41.973713 
L 88.22614 108.688782 
L 88.334858 47.776588 
L 88.389217 60.074228 
L 88.443576 39.062658 
L 88.552294 100.095154 
L 88.606653 42.610516 
L 88.661012 63.015831 
L 88.715371 84.286067 
L 88.76973 65.962201 
L 88.824088 53.638193 
L 88.878447 94.430507 
L 88.932806 26.649306 
L 88.987165 53.656067 
L 89.095883 68.186858 
L 89.150242 61.77951 
L 89.204601 23.621759 
L 89.25896 53.050265 
L 89.313319 64.501323 
L 89.367678 56.478049 
L 89.422037 34.79529 
L 89.530755 81.984606 
L 89.693831 48.9721 
L 89.74819 45.41065 
L 89.856908 73.837968 
L 89.911267 63.698374 
L 89.965626 64.298243 
L 90.019985 74.770632 
L 90.074344 59.768074 
L 90.128703 62.761107 
L 90.183062 64.522651 
L 90.237421 41.506473 
L 90.29178 66.882669 
L 90.346138 65.127378 
L 90.400497 29.187128 
L 90.509215 29.057404 
L 90.563574 76.479068 
L 90.726651 44.47607 
L 90.78101 53.027424 
L 90.835369 44.261599 
L 90.889728 30.458956 
L 91.052805 69.387814 
L 91.107163 47.146787 
L 91.215881 92.246036 
L 91.27024 74.477207 
L 91.378958 62.099435 
L 91.433317 100.10701 
L 91.487676 89.639225 
L 91.596394 40.933997 
L 91.650753 44.504233 
L 91.705112 51.440793 
L 91.759471 91.132864 
L 91.81383 49.123176 
L 91.868188 101.942562 
L 91.922547 45.06521 
L 91.976906 78.945156 
L 92.031265 53.690073 
L 92.139983 54.113968 
L 92.194342 32.583113 
L 92.248701 70.191629 
L 92.30306 44.119082 
L 92.357419 61.160672 
L 92.411778 35.993213 
L 92.466137 45.429082 
L 92.520496 77.042886 
L 92.574855 34.216375 
L 92.629213 49.89397 
L 92.683572 53.029477 
L 92.737931 43.332674 
L 92.79229 73.639141 
L 92.846649 56.62963 
L 92.901008 64.700182 
L 92.955367 54.817502 
L 93.064085 93.281046 
L 93.118444 61.301742 
L 93.172803 71.713566 
L 93.227162 63.582952 
L 93.281521 86.952483 
L 93.444597 34.810511 
L 93.662033 84.417361 
L 93.770751 54.338533 
L 93.82511 111.426584 
L 93.879469 74.652364 
L 93.933828 57.916733 
L 93.988187 92.327986 
L 94.042546 70.743862 
L 94.096905 41.439499 
L 94.151263 68.322424 
L 94.205622 43.261303 
L 94.259981 56.41463 
L 94.31434 46.893725 
L 94.423058 83.612303 
L 94.477417 68.04352 
L 94.531776 26.351456 
L 94.586135 76.294576 
L 94.640494 54.692506 
L 94.803571 76.248232 
L 94.912288 47.165899 
L 94.966647 80.753892 
L 95.075365 80.076849 
L 95.129724 96.381892 
L 95.34716 17.267993 
L 95.401519 86.603776 
L 95.455878 64.945833 
L 95.510237 56.434109 
L 95.564596 58.308259 
L 95.618955 86.476944 
L 95.673313 83.087961 
L 95.782031 31.481197 
L 95.945108 89.977764 
L 95.999467 101.182575 
L 96.053826 59.129762 
L 96.108185 62.962644 
L 96.162544 79.460183 
L 96.216903 73.043843 
L 96.271262 72.739599 
L 96.325621 64.190196 
L 96.37998 79.507913 
L 96.434338 64.930223 
L 96.488697 42.843387 
L 96.543056 73.853625 
L 96.597415 16.363636 
L 96.651774 38.279265 
L 96.706133 78.023178 
L 96.760492 69.203452 
L 96.86921 47.168373 
L 96.977928 70.238757 
L 97.032287 66.943191 
L 97.086646 27.493966 
L 97.141005 84.715884 
L 97.195364 64.212776 
L 97.249722 74.29631 
L 97.304081 71.2099 
L 97.412799 78.00174 
L 97.467158 72.424238 
L 97.521517 47.705388 
L 97.575876 67.900001 
L 97.630235 51.751093 
L 97.684594 78.333792 
L 97.738953 70.98129 
L 97.793312 61.53299 
L 97.90203 89.931999 
L 97.956389 73.165697 
L 98.010747 82.333292 
L 98.065106 97.568658 
L 98.282542 53.537802 
L 98.336901 82.690157 
L 98.39126 66.0359 
L 98.499978 42.287465 
L 98.663055 69.952986 
L 98.717414 63.254793 
L 98.771772 71.271773 
L 98.88049 50.797839 
L 98.989208 74.996972 
L 99.097926 52.971365 
L 99.152285 120.989623 
L 99.206644 73.093528 
L 99.261003 52.771827 
L 99.315362 71.37999 
L 99.369721 74.815036 
L 99.478439 48.129712 
L 99.532797 65.375368 
L 99.587156 81.385009 
L 99.641515 58.330064 
L 99.695874 83.962356 
L 99.750233 52.120184 
L 99.804592 80.432887 
L 99.91331 80.533516 
L 99.967669 74.107359 
L 100.022028 53.550145 
L 100.076387 73.879232 
L 100.239464 52.559121 
L 100.293822 58.428498 
L 100.348181 59.410399 
L 100.40254 82.940952 
L 100.511258 37.250806 
L 100.674335 88.61971 
L 100.783053 46.509831 
L 100.837412 73.048444 
L 100.891771 48.340227 
L 101.054847 75.537866 
L 101.272283 36.684469 
L 101.381001 71.275274 
L 101.43536 37.713348 
L 101.489719 104.75297 
L 101.544078 48.765168 
L 101.598437 30.296493 
L 101.761514 78.78386 
L 101.815872 58.409063 
L 101.870231 81.854376 
L 101.92459 78.263857 
L 101.978949 62.332624 
L 102.033308 105.987716 
L 102.087667 83.647233 
L 102.142026 82.602494 
L 102.250744 52.161334 
L 102.305103 78.994228 
L 102.359462 75.299675 
L 102.413821 50.638106 
L 102.46818 92.661366 
L 102.522539 80.072271 
L 102.576897 75.047204 
L 102.631256 47.695339 
L 102.685615 53.763842 
L 102.794333 80.053562 
L 103.011769 35.726135 
L 103.174846 87.729476 
L 103.229205 52.969541 
L 103.283564 90.107209 
L 103.337922 42.480216 
L 103.392281 76.476401 
L 103.44664 77.459457 
L 103.500999 59.296927 
L 103.555358 69.07811 
L 103.609717 79.660492 
L 103.664076 66.177251 
L 103.718435 97.321088 
L 103.881512 57.09684 
L 103.935871 67.703303 
L 103.99023 55.467502 
L 104.098947 79.957626 
L 104.153306 40.404402 
L 104.207665 77.550432 
L 104.316383 54.737158 
L 104.47946 81.67165 
L 104.533819 48.195918 
L 104.588178 80.134058 
L 104.642537 74.677937 
L 104.805614 47.893488 
L 104.96869 85.27663 
L 105.023049 30.285919 
L 105.077408 61.216201 
L 105.131767 39.197074 
L 105.186126 61.425078 
L 105.240485 83.985775 
L 105.294844 63.417125 
L 105.403562 46.055835 
L 105.51228 92.347134 
L 105.566639 49.811478 
L 105.620997 62.229443 
L 105.675356 85.131481 
L 105.838433 39.048778 
L 105.892792 94.175758 
L 105.947151 71.182712 
L 106.110228 89.755888 
L 106.164587 66.28346 
L 106.218946 73.105916 
L 106.273305 104.747607 
L 106.327664 85.510303 
L 106.49074 31.72691 
L 106.545099 48.255538 
L 106.653817 56.641721 
L 106.708176 45.017148 
L 106.816894 112.703269 
L 106.871253 104.585457 
L 106.925612 63.518709 
L 106.979971 83.614075 
L 107.03433 70.326005 
L 107.088689 87.073914 
L 107.251765 55.032115 
L 107.306124 65.594547 
L 107.360483 65.206319 
L 107.414842 50.12514 
L 107.469201 67.596205 
L 107.52356 47.919247 
L 107.577919 58.686715 
L 107.632278 80.171417 
L 107.686637 71.273749 
L 107.795355 32.739148 
L 107.904072 66.718482 
L 107.958431 50.64739 
L 108.01279 64.021384 
L 108.067149 70.218846 
L 108.175867 60.270325 
L 108.338944 75.237901 
L 108.393303 70.641503 
L 108.447662 46.114787 
L 108.502021 46.180634 
L 108.55638 89.655348 
L 108.610739 39.654442 
L 108.665097 82.595033 
L 108.773815 53.341033 
L 108.828174 85.374413 
L 108.882533 56.994 
L 108.936892 59.346668 
L 109.154328 101.699422 
L 109.317405 65.589491 
L 109.426122 76.643434 
L 109.480481 71.861024 
L 109.53484 74.71873 
L 109.643558 88.641743 
L 109.697917 75.759263 
L 109.752276 101.123193 
L 109.806635 77.795961 
L 109.860994 65.134119 
L 109.915353 73.793238 
L 109.969712 80.107495 
L 110.024071 56.461816 
L 110.07843 56.806411 
L 110.241506 86.107022 
L 110.350224 96.941459 
L 110.513301 58.610821 
L 110.56766 65.12234 
L 110.622019 92.987908 
L 110.676378 46.30327 
L 110.730737 56.038129 
L 110.785096 60.279631 
L 110.839455 96.147385 
L 110.893814 58.854631 
L 111.002531 66.06262 
L 111.05689 81.057169 
L 111.219967 48.306168 
L 111.328685 59.585128 
L 111.383044 32.461747 
L 111.491762 86.208991 
L 111.546121 57.483351 
L 111.60048 82.033725 
L 111.654839 81.16058 
L 111.817915 48.186009 
L 111.926633 69.847714 
L 111.980992 53.188578 
L 112.035351 58.966091 
L 112.08971 86.684269 
L 112.144069 71.383699 
L 112.198428 80.223647 
L 112.252787 47.610723 
L 112.307146 69.296874 
L 112.415864 58.329373 
L 112.524581 78.562895 
L 112.57894 72.186866 
L 112.633299 22.420989 
L 112.687658 57.220999 
L 112.742017 79.687179 
L 112.905094 29.589874 
L 112.959453 38.358703 
L 113.013812 70.87882 
L 113.12253 70.167335 
L 113.176889 63.834867 
L 113.231248 80.539023 
L 113.285606 75.514324 
L 113.339965 43.300846 
L 113.394324 46.498762 
L 113.503042 69.063467 
L 113.557401 65.40107 
L 113.61176 86.559822 
L 113.666119 77.854762 
L 113.774837 51.476156 
L 113.829196 90.729004 
L 113.883555 79.220523 
L 113.937914 57.602559 
L 113.992273 98.913712 
L 114.046631 89.519838 
L 114.10099 88.138541 
L 114.155349 65.079102 
L 114.209708 76.144887 
L 114.264067 76.149814 
L 114.318426 65.309518 
L 114.372785 85.22429 
L 114.427144 43.165271 
L 114.481503 64.872611 
L 114.535862 94.211268 
L 114.590221 54.08232 
L 114.64458 58.029168 
L 114.698939 57.756569 
L 114.753298 86.661917 
L 114.807656 73.63032 
L 114.862015 85.205386 
L 114.916374 44.355181 
L 114.970733 86.991629 
L 115.13381 49.640539 
L 115.188169 75.744592 
L 115.242528 51.100856 
L 115.296887 49.56501 
L 115.351246 60.691147 
L 115.405605 46.547637 
L 115.459964 68.204273 
L 115.514323 50.612032 
L 115.62304 82.159227 
L 115.731758 59.897472 
L 115.786117 97.759128 
L 115.894835 56.097382 
L 116.003553 89.292838 
L 116.16663 55.831325 
L 116.220989 38.815261 
L 116.329706 83.509594 
L 116.384065 77.414066 
L 116.438424 89.118491 
L 116.601501 29.723088 
L 116.710219 74.408199 
L 116.764578 69.103376 
L 116.818937 73.864358 
L 116.873296 72.800011 
L 116.927655 38.926328 
L 116.982014 49.573004 
L 117.036373 48.325684 
L 117.090731 84.426078 
L 117.14509 47.247414 
L 117.199449 51.670211 
L 117.253808 84.284509 
L 117.308167 62.829247 
L 117.362526 63.69798 
L 117.416885 63.023045 
L 117.471244 53.995698 
L 117.525603 80.845671 
L 117.579962 62.229161 
L 117.634321 51.241537 
L 117.68868 72.087991 
L 117.743039 43.772169 
L 117.797398 59.522591 
L 117.851756 71.305262 
L 117.906115 46.343666 
L 117.960474 64.647319 
L 118.014833 68.138186 
L 118.069192 66.810233 
L 118.123551 62.706091 
L 118.286628 29.736237 
L 118.340987 77.957904 
L 118.395346 44.695913 
L 118.449705 34.704927 
L 118.504064 79.110237 
L 118.558423 65.590493 
L 118.612781 58.792004 
L 118.66714 84.925224 
L 118.721499 78.923732 
L 118.775858 49.185747 
L 118.830217 81.478204 
L 118.884576 39.981839 
L 118.938935 58.978604 
L 119.047653 83.756759 
L 119.156371 46.048606 
L 119.265089 82.830498 
L 119.319448 43.582313 
L 119.373806 51.776004 
L 119.428165 68.005491 
L 119.482524 66.165396 
L 119.536883 66.193918 
L 119.645601 76.865451 
L 119.69996 76.223904 
L 119.754319 44.929319 
L 119.808678 97.642853 
L 119.863037 74.608716 
L 119.917396 60.197696 
L 119.971755 100.556678 
L 120.134831 47.929896 
L 120.297908 108.555694 
L 120.406626 61.41529 
L 120.460985 68.683028 
L 120.515344 52.135301 
L 120.569703 57.87501 
L 120.678421 83.398289 
L 120.787139 40.643437 
L 120.841498 44.338236 
L 121.004574 83.820042 
L 121.113292 52.089308 
L 121.167651 70.956103 
L 121.22201 41.998967 
L 121.385087 98.912906 
L 121.493805 40.388894 
L 121.548164 64.86476 
L 121.602523 71.874778 
L 121.71124 36.107836 
L 121.765599 75.790594 
L 121.819958 46.990856 
L 121.874317 68.545898 
L 121.928676 41.24905 
L 121.983035 95.985555 
L 122.037394 56.416791 
L 122.146112 32.443839 
L 122.25483 99.099415 
L 122.309189 77.017925 
L 122.363548 42.005832 
L 122.417906 65.756803 
L 122.526624 35.698305 
L 122.635342 76.500917 
L 122.74406 52.510475 
L 122.798419 70.143186 
L 122.852778 65.505446 
L 122.907137 68.787169 
L 123.015855 43.839678 
L 123.178931 72.067163 
L 123.23329 45.124587 
L 123.287649 57.130877 
L 123.342008 78.201633 
L 123.396367 69.342078 
L 123.450726 67.815628 
L 123.505085 84.553649 
L 123.559444 54.612117 
L 123.613803 69.943177 
L 123.722521 64.82301 
L 123.77688 87.96353 
L 123.831239 50.84724 
L 123.885598 53.923871 
L 123.939956 56.419247 
L 123.994315 80.969646 
L 124.048674 74.177721 
L 124.103033 79.75748 
L 124.211751 24.877808 
L 124.26611 77.357913 
L 124.320469 67.532812 
L 124.374828 59.740007 
L 124.429187 79.486692 
L 124.483546 45.21516 
L 124.537905 49.723206 
L 124.592264 57.637522 
L 124.646623 49.288085 
L 124.700981 67.001427 
L 124.75534 49.345826 
L 124.972776 79.050936 
L 125.081494 75.051544 
L 125.135853 67.004863 
L 125.190212 68.385814 
L 125.244571 70.527945 
L 125.29893 23.716992 
L 125.353289 70.844657 
L 125.407648 94.441137 
L 125.462006 28.797836 
L 125.516365 55.325646 
L 125.733801 95.570924 
L 125.896878 36.892964 
L 126.059955 87.880792 
L 126.168673 31.79205 
L 126.223031 62.948 
L 126.386108 74.551175 
L 126.440467 62.354148 
L 126.494826 76.5276 
L 126.549185 52.384297 
L 126.603544 58.993016 
L 126.657903 92.293256 
L 126.712262 89.346251 
L 126.875339 48.677126 
L 126.984056 73.522329 
L 127.092774 36.663212 
L 127.31021 95.789853 
L 127.418928 57.219337 
L 127.636364 91.616447 
L 127.636364 91.616447 
" clip-path="url(#pb388d0f5d2)" style="fill: none; stroke: #66c2a5; stroke-width: 1.5; stroke-linecap: square"/>
   </g>
   <g id="patch_3">
    <path d="M 10.8 133.2 
L 10.8 10.8 
" style="fill: none; stroke: #000000; stroke-width: 0.8; stroke-linejoin: miter; stroke-linecap: square"/>
   </g>
   <g id="patch_4">
    <path d="M 133.2 133.2 
L 133.2 10.8 
" style="fill: none; stroke: #000000; stroke-width: 0.8; stroke-linejoin: miter; stroke-linecap: square"/>
   </g>
   <g id="patch_5">
    <path d="M 10.8 133.2 
L 133.2 133.2 
" style="fill: none; stroke: #000000; stroke-width: 0.8; stroke-linejoin: miter; stroke-linecap: square"/>
   </g>
   <g id="patch_6">
    <path d="M 10.8 10.8 
L 133.2 10.8 
" style="fill: none; stroke: #000000; stroke-width: 0.8; stroke-linejoin: miter; stroke-linecap: square"/>
   </g>
  </g>
 </g>
 <defs>
  <clipPath id="pb388d0f5d2">
   <rect x="10.8" y="10.8" width="122.4" height="122.4"/>
  </clipPath>
 </defs>
</svg>
